%TF.GenerationSoftware,KiCad,Pcbnew,7.0.11+dfsg-1build4*%
%TF.CreationDate,2026-06-02T17:15:50-04:00*%
%TF.ProjectId,mission-control-plate-numpad,6d697373-696f-46e2-9d63-6f6e74726f6c,rev?*%
%TF.SameCoordinates,Original*%
%TF.FileFunction,Drillmap*%
%TF.FilePolarity,Positive*%
%FSLAX45Y45*%
G04 Gerber Fmt 4.5, Leading zero omitted, Abs format (unit mm)*
G04 Created by KiCad (PCBNEW 7.0.11+dfsg-1build4) date 2026-06-02 17:15:50*
%MOMM*%
%LPD*%
G01*
G04 APERTURE LIST*
%ADD10C,0.150000*%
%ADD11C,0.120000*%
%ADD12C,0.200000*%
G04 APERTURE END LIST*
D10*
X41080000Y-8270000D02*
X48200000Y-8270000D01*
X48200000Y-18470000D02*
X41080000Y-18470000D01*
X41080000Y-8270000D02*
G75*
G03*
X40780000Y-8570000I0J-300000D01*
G01*
X48200000Y-18470000D02*
G75*
G03*
X48500000Y-18170000I0J300000D01*
G01*
X48500000Y-8570000D02*
X48500000Y-18170000D01*
X40780000Y-18170000D02*
X40780000Y-8570000D01*
X40780000Y-18170000D02*
G75*
G03*
X41080000Y-18470000I300000J0D01*
G01*
X48500000Y-8570000D02*
G75*
G03*
X48200000Y-8270000I-300000J0D01*
G01*
D11*
X42986700Y-12664014D02*
X44386700Y-12664014D01*
X42986700Y-14064014D02*
X42986700Y-12664014D01*
X44386700Y-12664014D02*
X44386700Y-14064014D01*
X44386700Y-14064014D02*
X42986700Y-14064014D01*
X41081700Y-14720016D02*
X42481700Y-14720016D01*
X41081700Y-16120016D02*
X41081700Y-14720016D01*
X42481700Y-14720016D02*
X42481700Y-16120016D01*
X42481700Y-16120016D02*
X41081700Y-16120016D01*
X44891700Y-12664014D02*
X46291700Y-12664014D01*
X44891700Y-14064014D02*
X44891700Y-12664014D01*
X46291700Y-12664014D02*
X46291700Y-14064014D01*
X46291700Y-14064014D02*
X44891700Y-14064014D01*
D12*
X46796700Y-10804713D02*
X46796700Y-11479713D01*
X46796700Y-10804713D02*
X48096700Y-10804713D01*
X46796700Y-11636013D02*
X48196700Y-11636013D01*
X46796700Y-13036013D02*
X46796700Y-11636013D01*
X46796700Y-13192313D02*
X46796700Y-13867313D01*
X46796700Y-13192313D02*
X48096700Y-13192313D01*
X46796700Y-13867313D02*
X48096700Y-13867313D01*
X48096700Y-10804713D02*
X48096700Y-11479713D01*
X48096700Y-11479713D02*
X46796700Y-11479713D01*
X48096700Y-13192313D02*
X48096700Y-13867313D01*
X48196700Y-11636013D02*
X48196700Y-13036013D01*
X48196700Y-13036013D02*
X46796700Y-13036013D01*
D11*
X41081700Y-10608012D02*
X42481700Y-10608012D01*
X41081700Y-12008012D02*
X41081700Y-10608012D01*
X42481700Y-10608012D02*
X42481700Y-12008012D01*
X42481700Y-12008012D02*
X41081700Y-12008012D01*
X44891700Y-8552010D02*
X46291700Y-8552010D01*
X44891700Y-9952010D02*
X44891700Y-8552010D01*
X46291700Y-8552010D02*
X46291700Y-9952010D01*
X46291700Y-9952010D02*
X44891700Y-9952010D01*
X44891700Y-10608012D02*
X46291700Y-10608012D01*
X44891700Y-12008012D02*
X44891700Y-10608012D01*
X46291700Y-10608012D02*
X46291700Y-12008012D01*
X46291700Y-12008012D02*
X44891700Y-12008012D01*
X41081700Y-12664014D02*
X42481700Y-12664014D01*
X41081700Y-14064014D02*
X41081700Y-12664014D01*
X42481700Y-12664014D02*
X42481700Y-14064014D01*
X42481700Y-14064014D02*
X41081700Y-14064014D01*
D12*
X46796700Y-14916718D02*
X46796700Y-15591718D01*
X46796700Y-14916718D02*
X48096700Y-14916718D01*
X46796700Y-15748018D02*
X48196700Y-15748018D01*
X46796700Y-17148018D02*
X46796700Y-15748018D01*
X46796700Y-17304318D02*
X46796700Y-17979318D01*
X46796700Y-17304318D02*
X48096700Y-17304318D01*
X46796700Y-17979318D02*
X48096700Y-17979318D01*
X48096700Y-14916718D02*
X48096700Y-15591718D01*
X48096700Y-15591718D02*
X46796700Y-15591718D01*
X48096700Y-17304318D02*
X48096700Y-17979318D01*
X48196700Y-15748018D02*
X48196700Y-17148018D01*
X48196700Y-17148018D02*
X46796700Y-17148018D01*
D11*
X42986700Y-8552010D02*
X44386700Y-8552010D01*
X42986700Y-9952010D02*
X42986700Y-8552010D01*
X44386700Y-8552010D02*
X44386700Y-9952010D01*
X44386700Y-9952010D02*
X42986700Y-9952010D01*
X42986700Y-10608012D02*
X44386700Y-10608012D01*
X42986700Y-12008012D02*
X42986700Y-10608012D01*
X44386700Y-10608012D02*
X44386700Y-12008012D01*
X44386700Y-12008012D02*
X42986700Y-12008012D01*
X44891700Y-14720016D02*
X46291700Y-14720016D01*
X44891700Y-16120016D02*
X44891700Y-14720016D01*
X46291700Y-14720016D02*
X46291700Y-16120016D01*
X46291700Y-16120016D02*
X44891700Y-16120016D01*
D12*
X41202900Y-16876018D02*
X41202900Y-18176018D01*
X41202900Y-16876018D02*
X41877900Y-16876018D01*
X41202900Y-18176018D02*
X41877900Y-18176018D01*
X41877900Y-16876018D02*
X41877900Y-18176018D01*
X42034200Y-16776018D02*
X43434200Y-16776018D01*
X42034200Y-18176018D02*
X42034200Y-16776018D01*
X43434200Y-16776018D02*
X43434200Y-18176018D01*
X43434200Y-18176018D02*
X42034200Y-18176018D01*
X43590500Y-16876018D02*
X43590500Y-18176018D01*
X43590500Y-16876018D02*
X44265500Y-16876018D01*
X43590500Y-18176018D02*
X44265500Y-18176018D01*
X44265500Y-16876018D02*
X44265500Y-18176018D01*
D11*
X42986700Y-14720016D02*
X44386700Y-14720016D01*
X42986700Y-16120016D02*
X42986700Y-14720016D01*
X44386700Y-14720016D02*
X44386700Y-16120016D01*
X44386700Y-16120016D02*
X42986700Y-16120016D01*
X46796700Y-8552010D02*
X48196700Y-8552010D01*
X46796700Y-9952010D02*
X46796700Y-8552010D01*
X48196700Y-8552010D02*
X48196700Y-9952010D01*
X48196700Y-9952010D02*
X46796700Y-9952010D01*
X44891700Y-16776019D02*
X46291700Y-16776019D01*
X44891700Y-18176019D02*
X44891700Y-16776019D01*
X46291700Y-16776019D02*
X46291700Y-18176019D01*
X46291700Y-18176019D02*
X44891700Y-18176019D01*
X41081700Y-8552010D02*
X42481700Y-8552010D01*
X41081700Y-9952010D02*
X41081700Y-8552010D01*
X42481700Y-8552010D02*
X42481700Y-9952010D01*
X42481700Y-9952010D02*
X41081700Y-9952010D01*
D12*
X41033277Y-18788984D02*
X41033277Y-18588984D01*
X41033277Y-18588984D02*
X41080896Y-18588984D01*
X41080896Y-18588984D02*
X41109467Y-18598508D01*
X41109467Y-18598508D02*
X41128515Y-18617555D01*
X41128515Y-18617555D02*
X41138039Y-18636603D01*
X41138039Y-18636603D02*
X41147563Y-18674698D01*
X41147563Y-18674698D02*
X41147563Y-18703270D01*
X41147563Y-18703270D02*
X41138039Y-18741365D01*
X41138039Y-18741365D02*
X41128515Y-18760412D01*
X41128515Y-18760412D02*
X41109467Y-18779460D01*
X41109467Y-18779460D02*
X41080896Y-18788984D01*
X41080896Y-18788984D02*
X41033277Y-18788984D01*
X41233277Y-18788984D02*
X41233277Y-18655650D01*
X41233277Y-18693746D02*
X41242801Y-18674698D01*
X41242801Y-18674698D02*
X41252324Y-18665174D01*
X41252324Y-18665174D02*
X41271372Y-18655650D01*
X41271372Y-18655650D02*
X41290420Y-18655650D01*
X41357086Y-18788984D02*
X41357086Y-18655650D01*
X41357086Y-18588984D02*
X41347563Y-18598508D01*
X41347563Y-18598508D02*
X41357086Y-18608031D01*
X41357086Y-18608031D02*
X41366610Y-18598508D01*
X41366610Y-18598508D02*
X41357086Y-18588984D01*
X41357086Y-18588984D02*
X41357086Y-18608031D01*
X41480896Y-18788984D02*
X41461848Y-18779460D01*
X41461848Y-18779460D02*
X41452324Y-18760412D01*
X41452324Y-18760412D02*
X41452324Y-18588984D01*
X41585658Y-18788984D02*
X41566610Y-18779460D01*
X41566610Y-18779460D02*
X41557086Y-18760412D01*
X41557086Y-18760412D02*
X41557086Y-18588984D01*
X41814229Y-18788984D02*
X41814229Y-18588984D01*
X41814229Y-18588984D02*
X41880896Y-18731841D01*
X41880896Y-18731841D02*
X41947563Y-18588984D01*
X41947563Y-18588984D02*
X41947563Y-18788984D01*
X42128515Y-18788984D02*
X42128515Y-18684222D01*
X42128515Y-18684222D02*
X42118991Y-18665174D01*
X42118991Y-18665174D02*
X42099944Y-18655650D01*
X42099944Y-18655650D02*
X42061848Y-18655650D01*
X42061848Y-18655650D02*
X42042801Y-18665174D01*
X42128515Y-18779460D02*
X42109467Y-18788984D01*
X42109467Y-18788984D02*
X42061848Y-18788984D01*
X42061848Y-18788984D02*
X42042801Y-18779460D01*
X42042801Y-18779460D02*
X42033277Y-18760412D01*
X42033277Y-18760412D02*
X42033277Y-18741365D01*
X42033277Y-18741365D02*
X42042801Y-18722317D01*
X42042801Y-18722317D02*
X42061848Y-18712793D01*
X42061848Y-18712793D02*
X42109467Y-18712793D01*
X42109467Y-18712793D02*
X42128515Y-18703270D01*
X42223753Y-18655650D02*
X42223753Y-18855650D01*
X42223753Y-18665174D02*
X42242801Y-18655650D01*
X42242801Y-18655650D02*
X42280896Y-18655650D01*
X42280896Y-18655650D02*
X42299944Y-18665174D01*
X42299944Y-18665174D02*
X42309467Y-18674698D01*
X42309467Y-18674698D02*
X42318991Y-18693746D01*
X42318991Y-18693746D02*
X42318991Y-18750889D01*
X42318991Y-18750889D02*
X42309467Y-18769936D01*
X42309467Y-18769936D02*
X42299944Y-18779460D01*
X42299944Y-18779460D02*
X42280896Y-18788984D01*
X42280896Y-18788984D02*
X42242801Y-18788984D01*
X42242801Y-18788984D02*
X42223753Y-18779460D01*
X42404705Y-18769936D02*
X42414229Y-18779460D01*
X42414229Y-18779460D02*
X42404705Y-18788984D01*
X42404705Y-18788984D02*
X42395182Y-18779460D01*
X42395182Y-18779460D02*
X42404705Y-18769936D01*
X42404705Y-18769936D02*
X42404705Y-18788984D01*
X42404705Y-18665174D02*
X42414229Y-18674698D01*
X42414229Y-18674698D02*
X42404705Y-18684222D01*
X42404705Y-18684222D02*
X42395182Y-18674698D01*
X42395182Y-18674698D02*
X42404705Y-18665174D01*
X42404705Y-18665174D02*
X42404705Y-18684222D01*
M02*
