G04 #@! TF.GenerationSoftware,KiCad,Pcbnew,7.0.11+dfsg-1build4*
G04 #@! TF.CreationDate,2026-06-02T17:15:46-04:00*
G04 #@! TF.ProjectId,mission-control-plate-numpad,6d697373-696f-46e2-9d63-6f6e74726f6c,rev?*
G04 #@! TF.SameCoordinates,Original*
G04 #@! TF.FileFunction,Legend,Top*
G04 #@! TF.FilePolarity,Positive*
%FSLAX46Y46*%
G04 Gerber Fmt 4.6, Leading zero omitted, Abs format (unit mm)*
G04 Created by KiCad (PCBNEW 7.0.11+dfsg-1build4) date 2026-06-02 17:15:46*
%MOMM*%
%LPD*%
G01*
G04 APERTURE LIST*
%ADD10C,1.000000*%
%ADD11C,0.300000*%
%ADD12C,2.700000*%
%ADD13C,2.000000*%
G04 APERTURE END LIST*
D10*
G36*
X432105402Y-121456304D02*
G01*
X432157523Y-121461098D01*
X432206381Y-121466493D01*
X432266449Y-121474622D01*
X432320717Y-121483819D01*
X432369184Y-121494085D01*
X432421610Y-121508420D01*
X432472558Y-121527826D01*
X432523924Y-121550341D01*
X432573303Y-121570869D01*
X432620696Y-121589410D01*
X432672426Y-121608167D01*
X432691155Y-121614532D01*
X432738554Y-121633308D01*
X432781830Y-121656664D01*
X432825590Y-121688413D01*
X432856019Y-121717114D01*
X432893317Y-121755400D01*
X432929650Y-121791947D01*
X432965016Y-121826755D01*
X432984247Y-121845341D01*
X433018024Y-121880922D01*
X433049291Y-121921720D01*
X433078045Y-121967734D01*
X433092935Y-121995551D01*
X433113237Y-122042797D01*
X433127739Y-122092943D01*
X433136440Y-122145989D01*
X433139296Y-122194784D01*
X433139341Y-122201936D01*
X433136361Y-122251933D01*
X433127420Y-122300411D01*
X433112518Y-122347369D01*
X433091656Y-122392808D01*
X433077059Y-122418091D01*
X433047559Y-122466558D01*
X433015235Y-122511819D01*
X432980087Y-122553875D01*
X432942115Y-122592725D01*
X432901319Y-122628369D01*
X432857698Y-122660807D01*
X432811254Y-122690040D01*
X432761986Y-122716067D01*
X432713366Y-122738049D01*
X432667192Y-122759287D01*
X432617630Y-122782394D01*
X432572449Y-122803689D01*
X432540946Y-122818649D01*
X432495093Y-122839844D01*
X432447242Y-122861424D01*
X432399996Y-122881936D01*
X432352101Y-122901352D01*
X432347994Y-122902913D01*
X432396881Y-122927204D01*
X432447065Y-122953059D01*
X432498547Y-122980479D01*
X432551326Y-123009464D01*
X432605403Y-123040013D01*
X432660777Y-123072127D01*
X432703160Y-123097240D01*
X432746272Y-123123232D01*
X432775419Y-123141050D01*
X432818345Y-123167014D01*
X432871640Y-123199061D01*
X432920431Y-123228170D01*
X432964719Y-123254340D01*
X433013747Y-123282920D01*
X433063292Y-123311156D01*
X433102704Y-123332780D01*
X433148805Y-123355602D01*
X433194295Y-123376439D01*
X433244742Y-123397508D01*
X433283444Y-123412159D01*
X433332710Y-123430792D01*
X433381590Y-123450971D01*
X433430083Y-123472695D01*
X433456857Y-123485432D01*
X433509483Y-123510028D01*
X433557454Y-123535578D01*
X433600769Y-123562082D01*
X433648365Y-123596554D01*
X433688687Y-123632517D01*
X433721734Y-123669970D01*
X433747506Y-123708914D01*
X433760920Y-123759423D01*
X433764754Y-123815207D01*
X433750386Y-123871363D01*
X433715323Y-123915756D01*
X433670297Y-123943764D01*
X433623929Y-123960289D01*
X433597296Y-123966591D01*
X433566766Y-123966591D01*
X433516849Y-123952547D01*
X433471275Y-123932368D01*
X433430791Y-123901408D01*
X433420220Y-123888433D01*
X433371992Y-123863298D01*
X433323782Y-123837962D01*
X433275592Y-123812427D01*
X433227421Y-123786690D01*
X433179269Y-123760754D01*
X433131136Y-123734617D01*
X433083022Y-123708280D01*
X433034927Y-123681742D01*
X432986851Y-123655004D01*
X432938795Y-123628066D01*
X432890757Y-123600928D01*
X432842738Y-123573589D01*
X432794739Y-123546049D01*
X432746759Y-123518310D01*
X432698797Y-123490369D01*
X432650855Y-123462229D01*
X432602789Y-123434093D01*
X432554456Y-123406473D01*
X432505855Y-123379368D01*
X432456987Y-123352778D01*
X432407853Y-123326703D01*
X432358451Y-123301143D01*
X432308782Y-123276099D01*
X432258845Y-123251570D01*
X432208642Y-123227556D01*
X432158172Y-123204057D01*
X432107434Y-123181073D01*
X432056429Y-123158605D01*
X432005157Y-123136651D01*
X431953618Y-123115213D01*
X431901812Y-123094291D01*
X431849739Y-123073883D01*
X431822872Y-123064113D01*
X431803332Y-123058007D01*
X431753970Y-123067510D01*
X431690591Y-123076974D01*
X431629998Y-123082775D01*
X431572190Y-123084912D01*
X431517169Y-123083386D01*
X431464933Y-123078195D01*
X431415484Y-123069342D01*
X431357589Y-123053122D01*
X431332597Y-123134829D01*
X431309218Y-123214170D01*
X431287451Y-123291145D01*
X431267296Y-123365753D01*
X431248753Y-123437996D01*
X431231823Y-123507872D01*
X431216506Y-123575382D01*
X431202800Y-123640526D01*
X431190707Y-123703304D01*
X431180227Y-123763716D01*
X431171359Y-123821762D01*
X431164103Y-123877442D01*
X431158460Y-123930756D01*
X431154429Y-123981703D01*
X431151406Y-124053688D01*
X431151204Y-124076500D01*
X431142051Y-124124794D01*
X431122015Y-124173223D01*
X431086160Y-124216591D01*
X431044729Y-124242509D01*
X430993424Y-124258036D01*
X430974128Y-124260903D01*
X430922937Y-124252956D01*
X430877496Y-124231344D01*
X430860555Y-124219382D01*
X430826781Y-124181257D01*
X430807287Y-124132430D01*
X430799494Y-124082606D01*
X430799952Y-124024221D01*
X430801326Y-123965999D01*
X430803616Y-123907939D01*
X430806822Y-123850041D01*
X430810943Y-123792305D01*
X430815981Y-123734732D01*
X430821934Y-123677320D01*
X430828803Y-123620071D01*
X430836589Y-123562984D01*
X430845290Y-123506059D01*
X430854907Y-123449297D01*
X430865440Y-123392696D01*
X430876889Y-123336258D01*
X430889254Y-123279982D01*
X430902534Y-123223868D01*
X430916731Y-123167916D01*
X430931414Y-123112089D01*
X430946155Y-123056347D01*
X430960952Y-123000691D01*
X430975807Y-122945121D01*
X430990719Y-122889637D01*
X431005689Y-122834239D01*
X431020715Y-122778926D01*
X431035799Y-122723700D01*
X431050940Y-122668559D01*
X431066139Y-122613504D01*
X431072584Y-122590282D01*
X431484596Y-122590282D01*
X431542269Y-122596522D01*
X431595185Y-122605657D01*
X431652512Y-122618370D01*
X431701552Y-122631116D01*
X431753415Y-122646153D01*
X431808103Y-122663479D01*
X431865614Y-122683094D01*
X431944034Y-122663388D01*
X432018705Y-122643348D01*
X432089626Y-122622973D01*
X432156798Y-122602265D01*
X432220220Y-122581223D01*
X432279892Y-122559847D01*
X432335815Y-122538137D01*
X432387989Y-122516093D01*
X432436413Y-122493716D01*
X432481087Y-122471004D01*
X432541069Y-122436310D01*
X432592614Y-122400865D01*
X432635722Y-122364669D01*
X432670395Y-122327721D01*
X432702108Y-122287249D01*
X432735689Y-122249219D01*
X432753437Y-122231245D01*
X432746892Y-122168257D01*
X432727257Y-122109963D01*
X432694533Y-122056363D01*
X432661399Y-122019244D01*
X432620902Y-121984765D01*
X432573042Y-121952926D01*
X432517819Y-121923728D01*
X432455233Y-121897170D01*
X432385284Y-121873253D01*
X432334561Y-121858775D01*
X432270798Y-121843326D01*
X432206820Y-121830410D01*
X432142627Y-121820027D01*
X432078220Y-121812178D01*
X432013598Y-121806861D01*
X431948762Y-121804078D01*
X431883711Y-121803827D01*
X431818445Y-121806110D01*
X431752965Y-121810926D01*
X431687269Y-121818274D01*
X431643353Y-121824581D01*
X431594123Y-121826642D01*
X431581071Y-121823360D01*
X431581071Y-121813590D01*
X431580224Y-121876859D01*
X431577680Y-121942104D01*
X431573440Y-122009323D01*
X431567505Y-122078517D01*
X431559873Y-122149686D01*
X431553843Y-122198229D01*
X431547060Y-122247650D01*
X431539523Y-122297949D01*
X431531232Y-122349126D01*
X431522187Y-122401180D01*
X431512389Y-122454112D01*
X431501837Y-122507922D01*
X431490531Y-122562609D01*
X431484596Y-122590282D01*
X431072584Y-122590282D01*
X431081394Y-122558535D01*
X431096707Y-122503652D01*
X431112077Y-122448855D01*
X431127505Y-122394144D01*
X431142989Y-122339518D01*
X431158531Y-122284979D01*
X431158531Y-122280094D01*
X431166975Y-122220023D01*
X431173987Y-122162695D01*
X431179569Y-122108110D01*
X431183719Y-122056268D01*
X431186438Y-122007169D01*
X431187812Y-121951871D01*
X431187840Y-121943039D01*
X431140732Y-121924137D01*
X431106568Y-121888041D01*
X431087066Y-121841520D01*
X431079152Y-121797714D01*
X431081281Y-121744770D01*
X431099422Y-121698137D01*
X431133574Y-121657816D01*
X431175591Y-121628278D01*
X431219592Y-121607205D01*
X431235468Y-121602320D01*
X431273378Y-121565784D01*
X431319789Y-121545476D01*
X431374701Y-121541397D01*
X431408880Y-121546144D01*
X431455903Y-121529339D01*
X431515294Y-121509504D01*
X431570907Y-121492607D01*
X431622742Y-121478649D01*
X431670799Y-121467630D01*
X431725556Y-121457988D01*
X431774411Y-121452937D01*
X431800890Y-121452110D01*
X431850578Y-121452110D01*
X431906811Y-121452110D01*
X431961174Y-121452110D01*
X432013668Y-121452110D01*
X432050018Y-121452110D01*
X432105402Y-121456304D01*
G37*
G36*
X435114693Y-121539103D02*
G01*
X435167895Y-121560683D01*
X435209766Y-121588882D01*
X435245058Y-121631457D01*
X435264034Y-121683564D01*
X435267385Y-121734267D01*
X435266696Y-121745202D01*
X435294517Y-121796932D01*
X435319361Y-121848929D01*
X435341228Y-121901193D01*
X435360119Y-121953724D01*
X435376033Y-122006523D01*
X435388970Y-122059588D01*
X435398931Y-122112921D01*
X435405914Y-122166521D01*
X435411505Y-122218690D01*
X435416676Y-122268340D01*
X435422550Y-122326860D01*
X435427767Y-122381445D01*
X435432329Y-122432094D01*
X435436937Y-122487679D01*
X435438887Y-122513346D01*
X435443813Y-122568711D01*
X435448972Y-122619400D01*
X435455154Y-122671607D01*
X435462474Y-122723041D01*
X435463312Y-122728279D01*
X435470791Y-122779876D01*
X435478577Y-122829640D01*
X435487700Y-122883436D01*
X435495063Y-122923674D01*
X435528341Y-122961379D01*
X435547532Y-123007811D01*
X435547404Y-123058494D01*
X435536584Y-123094644D01*
X435550929Y-123157326D01*
X435564348Y-123218063D01*
X435576842Y-123276853D01*
X435588410Y-123333696D01*
X435599052Y-123388594D01*
X435608770Y-123441545D01*
X435617561Y-123492550D01*
X435625428Y-123541608D01*
X435635492Y-123611546D01*
X435643474Y-123677106D01*
X435649374Y-123738286D01*
X435653191Y-123795086D01*
X435654926Y-123847508D01*
X435655042Y-123864009D01*
X435646569Y-123912273D01*
X435628136Y-123960587D01*
X435595236Y-124003714D01*
X435550064Y-124032581D01*
X435501578Y-124045977D01*
X435492621Y-124047191D01*
X435441831Y-124040741D01*
X435392653Y-124021393D01*
X435370499Y-124008112D01*
X435335945Y-123968979D01*
X435314972Y-123918715D01*
X435303201Y-123868267D01*
X435297226Y-123826151D01*
X435291606Y-123771282D01*
X435285277Y-123716585D01*
X435278239Y-123662060D01*
X435270493Y-123607706D01*
X435262039Y-123553524D01*
X435252876Y-123499514D01*
X435243005Y-123445676D01*
X435232426Y-123392009D01*
X435221138Y-123338514D01*
X435209142Y-123285191D01*
X435200750Y-123249738D01*
X435139284Y-123250135D01*
X435082197Y-123251326D01*
X435029489Y-123253312D01*
X434966024Y-123257195D01*
X434910345Y-123262490D01*
X434851693Y-123271095D01*
X434797368Y-123284333D01*
X434770883Y-123294923D01*
X434767302Y-123343829D01*
X434739766Y-123388117D01*
X434699419Y-123420918D01*
X434693947Y-123424371D01*
X434647617Y-123444979D01*
X434597776Y-123453070D01*
X434544424Y-123448643D01*
X434494861Y-123434501D01*
X434487561Y-123431699D01*
X434483898Y-123425593D01*
X434460523Y-123469729D01*
X434435278Y-123517723D01*
X434412151Y-123561930D01*
X434387651Y-123608970D01*
X434361776Y-123658845D01*
X434336317Y-123708075D01*
X434312145Y-123753183D01*
X434285573Y-123800601D01*
X434257352Y-123847923D01*
X434240876Y-123873778D01*
X434217832Y-123918998D01*
X434205027Y-123966729D01*
X434202461Y-124016972D01*
X434205461Y-124045969D01*
X434160276Y-123958042D01*
X434131367Y-124002306D01*
X434096339Y-124037343D01*
X434049241Y-124056116D01*
X433999825Y-124045329D01*
X433994191Y-124042306D01*
X433946163Y-124011251D01*
X433910156Y-123974872D01*
X433883342Y-123925701D01*
X433873381Y-123877788D01*
X433875442Y-123824550D01*
X433876954Y-123815160D01*
X433900062Y-123763778D01*
X433923284Y-123712521D01*
X433946621Y-123661387D01*
X433970072Y-123610378D01*
X433993637Y-123559492D01*
X434017318Y-123508731D01*
X434041112Y-123458093D01*
X434065021Y-123407580D01*
X434089045Y-123357190D01*
X434113183Y-123306925D01*
X434137435Y-123256784D01*
X434161802Y-123206766D01*
X434186284Y-123156873D01*
X434210880Y-123107104D01*
X434235590Y-123057459D01*
X434260415Y-123007937D01*
X434285116Y-122959003D01*
X434306526Y-122916346D01*
X434734247Y-122916346D01*
X434786454Y-122909230D01*
X434836829Y-122908032D01*
X434888120Y-122908490D01*
X434949180Y-122910207D01*
X435001387Y-122912321D01*
X435059090Y-122915144D01*
X435122287Y-122918675D01*
X435144575Y-122920010D01*
X435121372Y-122895586D01*
X435115512Y-122847050D01*
X435105477Y-122794339D01*
X435100611Y-122771022D01*
X435090612Y-122716601D01*
X435082489Y-122660844D01*
X435075992Y-122607006D01*
X435070906Y-122557877D01*
X435066118Y-122504872D01*
X435065196Y-122493806D01*
X435061236Y-122438720D01*
X435057754Y-122385662D01*
X435054749Y-122334631D01*
X435052220Y-122285627D01*
X435049816Y-122229499D01*
X435048099Y-122176290D01*
X435044435Y-122225139D01*
X435015736Y-122268492D01*
X434994699Y-122313572D01*
X434980932Y-122347260D01*
X434956784Y-122404152D01*
X434933801Y-122458200D01*
X434911981Y-122509405D01*
X434891325Y-122557767D01*
X434871834Y-122603286D01*
X434844778Y-122666234D01*
X434820342Y-122722784D01*
X434798525Y-122772937D01*
X434773509Y-122829857D01*
X434753149Y-122875405D01*
X434734247Y-122916346D01*
X434306526Y-122916346D01*
X434309150Y-122911118D01*
X434332515Y-122864283D01*
X434355212Y-122818497D01*
X434377242Y-122773760D01*
X434409034Y-122708623D01*
X434439323Y-122645847D01*
X434468110Y-122585433D01*
X434495394Y-122527380D01*
X434521176Y-122471688D01*
X434545455Y-122418358D01*
X434568231Y-122367389D01*
X434575489Y-122350924D01*
X434596694Y-122302907D01*
X434616805Y-122257315D01*
X434641916Y-122200300D01*
X434665081Y-122147597D01*
X434686300Y-122099206D01*
X434710086Y-122044782D01*
X434730831Y-121997096D01*
X434745238Y-121963799D01*
X434765989Y-121918132D01*
X434791718Y-121868653D01*
X434819083Y-121823264D01*
X434848084Y-121781966D01*
X434869801Y-121754972D01*
X434861487Y-121703881D01*
X434876271Y-121656523D01*
X434895447Y-121623080D01*
X434930502Y-121582863D01*
X434975217Y-121552884D01*
X435023073Y-121534833D01*
X435063974Y-121526605D01*
X435114693Y-121539103D01*
G37*
G36*
X437884979Y-123334002D02*
G01*
X437857927Y-123395573D01*
X437832944Y-123454196D01*
X437810032Y-123509871D01*
X437789190Y-123562598D01*
X437770419Y-123612376D01*
X437753718Y-123659207D01*
X437732548Y-123723926D01*
X437716037Y-123782011D01*
X437704184Y-123833463D01*
X437695626Y-123891747D01*
X437696574Y-123948020D01*
X437700576Y-123965369D01*
X437689800Y-124018492D01*
X437667352Y-124070050D01*
X437634268Y-124110389D01*
X437590549Y-124139507D01*
X437552809Y-124153436D01*
X437498805Y-124160232D01*
X437450060Y-124148561D01*
X437406575Y-124118424D01*
X437373487Y-124077895D01*
X437348866Y-124033757D01*
X437380618Y-124025209D01*
X437331788Y-124002655D01*
X437296168Y-123956601D01*
X437268271Y-123913019D01*
X437237054Y-123859133D01*
X437211462Y-123811957D01*
X437184002Y-123758984D01*
X437157158Y-123705593D01*
X437132955Y-123657161D01*
X437104790Y-123600298D01*
X437081320Y-123552251D01*
X437058583Y-123504589D01*
X437037460Y-123456980D01*
X437033793Y-123445132D01*
X437007270Y-123389586D01*
X436981433Y-123333773D01*
X436956284Y-123277692D01*
X436931822Y-123221345D01*
X436908046Y-123164730D01*
X436884958Y-123107848D01*
X436862556Y-123050699D01*
X436840841Y-122993283D01*
X436819813Y-122935600D01*
X436799473Y-122877649D01*
X436779819Y-122819432D01*
X436760852Y-122760947D01*
X436742572Y-122702195D01*
X436724978Y-122643176D01*
X436708072Y-122583890D01*
X436691853Y-122524337D01*
X436677110Y-122470140D01*
X436664939Y-122415477D01*
X436655338Y-122360346D01*
X436648309Y-122304747D01*
X436645447Y-122272766D01*
X436639653Y-122218011D01*
X436630821Y-122165944D01*
X436618950Y-122116564D01*
X436604040Y-122069873D01*
X436594156Y-122044399D01*
X436556088Y-122011937D01*
X436530424Y-121964925D01*
X436518822Y-121916840D01*
X436515998Y-121889305D01*
X436525867Y-121832949D01*
X436540208Y-121785240D01*
X436563320Y-121739401D01*
X436598424Y-121701659D01*
X436649276Y-121679277D01*
X436656438Y-121678035D01*
X436706209Y-121675806D01*
X436759370Y-121687427D01*
X436808562Y-121714160D01*
X436848350Y-121749948D01*
X436859159Y-121762299D01*
X436884099Y-121804965D01*
X436907626Y-121851753D01*
X436929742Y-121902662D01*
X436950445Y-121957693D01*
X436969737Y-122016846D01*
X436983278Y-122063915D01*
X436996026Y-122113303D01*
X437007979Y-122165009D01*
X437019138Y-122219033D01*
X437032944Y-122287726D01*
X437046272Y-122353061D01*
X437059124Y-122415038D01*
X437071498Y-122473656D01*
X437083395Y-122528916D01*
X437094816Y-122580818D01*
X437105759Y-122629361D01*
X437121279Y-122695879D01*
X437135726Y-122754841D01*
X437149100Y-122806246D01*
X437165262Y-122863033D01*
X437182781Y-122915125D01*
X437203260Y-122965515D01*
X437226230Y-123016848D01*
X437251689Y-123069127D01*
X437274808Y-123113414D01*
X437299655Y-123158357D01*
X437320778Y-123194783D01*
X437346860Y-123238677D01*
X437375483Y-123287334D01*
X437401185Y-123331613D01*
X437427482Y-123377736D01*
X437452670Y-123423150D01*
X437480709Y-123357090D01*
X437500534Y-123311905D01*
X437521266Y-123265804D01*
X437542905Y-123218788D01*
X437565449Y-123170855D01*
X437588900Y-123122006D01*
X437613258Y-123072242D01*
X437638522Y-123021562D01*
X437664692Y-122969965D01*
X437691769Y-122917453D01*
X437719752Y-122864025D01*
X437748641Y-122809681D01*
X437778437Y-122754421D01*
X437809139Y-122698245D01*
X437840747Y-122641153D01*
X437856891Y-122612264D01*
X437884800Y-122563093D01*
X437912199Y-122515111D01*
X437939087Y-122468316D01*
X437965465Y-122422709D01*
X437991332Y-122378289D01*
X438016689Y-122335058D01*
X438065872Y-122252158D01*
X438113012Y-122174010D01*
X438158112Y-122100613D01*
X438201169Y-122031968D01*
X438242185Y-121968073D01*
X438281158Y-121908930D01*
X438318091Y-121854539D01*
X438352981Y-121804898D01*
X438385830Y-121760009D01*
X438416637Y-121719871D01*
X438459019Y-121668573D01*
X438496808Y-121627965D01*
X438545886Y-121600926D01*
X438596952Y-121584989D01*
X438650004Y-121580155D01*
X438705044Y-121586425D01*
X438737387Y-121594993D01*
X438773265Y-121629225D01*
X438803944Y-121670030D01*
X438824266Y-121717810D01*
X438828865Y-121766812D01*
X438826536Y-121785502D01*
X438810629Y-121835831D01*
X438779812Y-121879289D01*
X438735162Y-121909628D01*
X438719069Y-121916172D01*
X438685662Y-121952565D01*
X438651387Y-121992441D01*
X438616243Y-122035798D01*
X438580232Y-122082639D01*
X438543352Y-122132961D01*
X438505604Y-122186766D01*
X438466988Y-122244054D01*
X438427504Y-122304823D01*
X438387151Y-122369075D01*
X438345930Y-122436810D01*
X438303842Y-122508027D01*
X438260884Y-122582726D01*
X438217059Y-122660907D01*
X438172365Y-122742571D01*
X438126804Y-122827718D01*
X438103697Y-122871597D01*
X438080374Y-122916346D01*
X438053011Y-122971225D01*
X438026488Y-123025340D01*
X438000804Y-123078691D01*
X437975960Y-123131280D01*
X437951955Y-123183105D01*
X437928790Y-123234167D01*
X437906465Y-123284466D01*
X437884979Y-123334002D01*
G37*
G36*
X441921092Y-123953157D02*
G01*
X441865966Y-123953157D01*
X441810801Y-123953157D01*
X441755599Y-123953157D01*
X441700358Y-123953157D01*
X441645079Y-123953157D01*
X441589762Y-123953157D01*
X441534406Y-123953157D01*
X441479013Y-123953157D01*
X441423581Y-123953157D01*
X441368111Y-123953157D01*
X441312603Y-123953157D01*
X441257057Y-123953157D01*
X441201473Y-123953157D01*
X441145850Y-123953157D01*
X441090190Y-123953157D01*
X441034491Y-123953157D01*
X440979007Y-123953644D01*
X440923685Y-123955104D01*
X440868525Y-123957536D01*
X440813527Y-123960942D01*
X440758692Y-123965322D01*
X440704019Y-123970674D01*
X440649508Y-123977000D01*
X440595159Y-123984298D01*
X440540972Y-123992570D01*
X440486948Y-124001815D01*
X440433086Y-124012033D01*
X440379386Y-124023224D01*
X440325848Y-124035389D01*
X440272472Y-124048526D01*
X440219259Y-124062637D01*
X440166208Y-124077721D01*
X440118546Y-124092372D01*
X440068677Y-124111137D01*
X440016603Y-124134017D01*
X439962322Y-124161012D01*
X439917309Y-124185570D01*
X439870884Y-124212761D01*
X439823046Y-124242585D01*
X439775724Y-124273020D01*
X439730845Y-124301432D01*
X439688407Y-124327822D01*
X439638796Y-124357965D01*
X439593000Y-124384947D01*
X439543083Y-124413154D01*
X439512858Y-124429431D01*
X439468579Y-124450998D01*
X439422755Y-124469903D01*
X439375385Y-124486146D01*
X439326470Y-124499727D01*
X439276009Y-124510646D01*
X439258845Y-124513695D01*
X439207173Y-124500700D01*
X439154389Y-124478822D01*
X439108364Y-124444304D01*
X439081230Y-124400769D01*
X439072987Y-124348219D01*
X439080548Y-124297540D01*
X439096398Y-124244833D01*
X439115706Y-124194333D01*
X439138472Y-124146039D01*
X439164697Y-124099951D01*
X439194381Y-124056070D01*
X439227523Y-124014394D01*
X439241748Y-123998342D01*
X439277192Y-123958205D01*
X439310251Y-123917174D01*
X439340924Y-123875249D01*
X439369213Y-123832429D01*
X439395116Y-123788714D01*
X439418634Y-123744105D01*
X439427373Y-123726011D01*
X439450169Y-123677711D01*
X439475053Y-123624403D01*
X439496462Y-123578149D01*
X439519207Y-123528690D01*
X439543288Y-123476025D01*
X439568705Y-123420154D01*
X439595457Y-123361078D01*
X439609334Y-123330338D01*
X439631080Y-123285222D01*
X439652353Y-123239634D01*
X439673154Y-123193574D01*
X439693483Y-123147041D01*
X439713340Y-123100037D01*
X439732724Y-123052559D01*
X439751636Y-123004610D01*
X439770076Y-122956188D01*
X439788044Y-122907295D01*
X439805539Y-122857928D01*
X439816940Y-122824755D01*
X439846664Y-122746617D01*
X439874776Y-122670653D01*
X439901276Y-122596865D01*
X439926163Y-122525252D01*
X439949437Y-122455815D01*
X439971099Y-122388553D01*
X439991149Y-122323466D01*
X440009587Y-122260554D01*
X440026412Y-122199818D01*
X440041625Y-122141257D01*
X440055225Y-122084871D01*
X440067213Y-122030661D01*
X440077588Y-121978626D01*
X440086352Y-121928766D01*
X440096473Y-121858054D01*
X440099041Y-121835572D01*
X440058512Y-121806434D01*
X440032222Y-121760716D01*
X440018441Y-121709787D01*
X440014995Y-121656528D01*
X440027255Y-121607775D01*
X440060301Y-121566819D01*
X440068510Y-121560799D01*
X440110477Y-121533079D01*
X440153486Y-121507701D01*
X440162544Y-121503401D01*
X440207559Y-121483115D01*
X440216277Y-121478977D01*
X440264763Y-121463445D01*
X440319199Y-121457017D01*
X440375470Y-121468351D01*
X440421867Y-121500465D01*
X440452988Y-121543100D01*
X440477251Y-121600166D01*
X440481281Y-121613311D01*
X440481281Y-121648726D01*
X440534556Y-121638727D01*
X440586432Y-121628601D01*
X440634803Y-121618898D01*
X440686781Y-121608251D01*
X440732851Y-121598656D01*
X440789809Y-121586978D01*
X440847111Y-121576674D01*
X440904756Y-121567744D01*
X440962745Y-121560188D01*
X441011331Y-121554941D01*
X441040597Y-121552250D01*
X441108163Y-121545316D01*
X441173476Y-121541001D01*
X441236534Y-121539306D01*
X441297338Y-121540229D01*
X441355888Y-121543771D01*
X441412185Y-121549932D01*
X441466227Y-121558711D01*
X441518015Y-121570110D01*
X441567550Y-121584128D01*
X441614830Y-121600765D01*
X441645098Y-121613311D01*
X441686547Y-121647437D01*
X441720779Y-121690828D01*
X441738095Y-121736881D01*
X441736918Y-121793974D01*
X441717584Y-121845795D01*
X441707380Y-121863660D01*
X441675137Y-121906879D01*
X441632420Y-121940372D01*
X441584209Y-121955632D01*
X441530505Y-121952660D01*
X441488783Y-121939375D01*
X441437792Y-121919869D01*
X441387403Y-121904399D01*
X441337614Y-121892964D01*
X441288427Y-121885565D01*
X441231802Y-121882034D01*
X441223779Y-121881978D01*
X441167863Y-121883147D01*
X441111246Y-121886653D01*
X441062159Y-121891519D01*
X441012557Y-121898102D01*
X440962439Y-121906402D01*
X440912222Y-121915948D01*
X440861403Y-121926266D01*
X440809983Y-121937357D01*
X440757962Y-121949221D01*
X440705340Y-121961858D01*
X440687666Y-121966242D01*
X440636160Y-121978463D01*
X440586973Y-121989483D01*
X440532518Y-122000820D01*
X440481219Y-122010520D01*
X440439760Y-122017533D01*
X440429284Y-122069778D01*
X440416175Y-122126984D01*
X440400433Y-122189151D01*
X440386898Y-122239033D01*
X440371882Y-122291705D01*
X440355385Y-122347167D01*
X440337407Y-122405421D01*
X440317947Y-122466465D01*
X440297006Y-122530300D01*
X440282223Y-122574406D01*
X440333657Y-122568868D01*
X440391789Y-122563244D01*
X440445348Y-122558491D01*
X440503558Y-122553679D01*
X440553476Y-122549786D01*
X440606369Y-122545856D01*
X440633933Y-122543876D01*
X440688448Y-122538915D01*
X440739644Y-122532580D01*
X440798969Y-122522729D01*
X440853107Y-122510731D01*
X440902057Y-122496587D01*
X440953949Y-122476781D01*
X440977094Y-122465718D01*
X441026707Y-122442327D01*
X441076681Y-122425039D01*
X441129060Y-122417597D01*
X441159055Y-122421755D01*
X441205461Y-122443126D01*
X441240056Y-122480859D01*
X441244540Y-122487700D01*
X441267397Y-122537488D01*
X441275061Y-122589614D01*
X441267530Y-122644078D01*
X441248983Y-122692621D01*
X441225000Y-122734385D01*
X441180006Y-122757963D01*
X441134325Y-122779694D01*
X441087957Y-122799580D01*
X441040902Y-122817619D01*
X440993160Y-122833812D01*
X440944732Y-122848159D01*
X440895616Y-122860659D01*
X440845813Y-122871314D01*
X440795324Y-122880123D01*
X440744147Y-122887085D01*
X440709648Y-122890701D01*
X440657938Y-122895531D01*
X440606765Y-122900404D01*
X440556129Y-122905320D01*
X440506029Y-122910278D01*
X440456467Y-122915280D01*
X440407440Y-122920325D01*
X440342907Y-122927118D01*
X440279327Y-122933987D01*
X440216702Y-122940933D01*
X440185747Y-122944434D01*
X440141783Y-122939549D01*
X440122741Y-122987910D01*
X440101946Y-123038959D01*
X440082726Y-123084855D01*
X440062218Y-123132725D01*
X440040422Y-123182571D01*
X440018111Y-123233032D01*
X439996058Y-123283665D01*
X439974262Y-123334469D01*
X439952724Y-123385445D01*
X439931443Y-123436593D01*
X439924407Y-123453681D01*
X439903713Y-123505444D01*
X439882848Y-123558152D01*
X439861810Y-123611804D01*
X439840601Y-123666401D01*
X439822796Y-123712620D01*
X439812055Y-123740666D01*
X439791118Y-123793316D01*
X439770439Y-123839527D01*
X439746638Y-123885300D01*
X439719867Y-123926878D01*
X439703367Y-123947051D01*
X439667135Y-123983004D01*
X439633758Y-123997121D01*
X439684258Y-123956785D01*
X439732719Y-123919583D01*
X439779141Y-123885516D01*
X439823523Y-123854582D01*
X439865866Y-123826783D01*
X439919151Y-123794593D01*
X439968811Y-123767974D01*
X440014845Y-123746927D01*
X440067289Y-123728454D01*
X440125149Y-123713074D01*
X440183018Y-123698687D01*
X440240897Y-123685292D01*
X440298786Y-123672889D01*
X440356684Y-123661478D01*
X440414591Y-123651059D01*
X440472508Y-123641633D01*
X440530435Y-123633199D01*
X440588371Y-123625757D01*
X440646316Y-123619308D01*
X440704272Y-123613850D01*
X440762236Y-123609385D01*
X440820211Y-123605913D01*
X440878195Y-123603432D01*
X440936188Y-123601944D01*
X440994191Y-123601448D01*
X441052232Y-123601448D01*
X441110340Y-123601448D01*
X441168514Y-123601448D01*
X441226756Y-123601448D01*
X441285064Y-123601448D01*
X441343439Y-123601448D01*
X441401881Y-123601448D01*
X441460389Y-123601448D01*
X441518965Y-123601448D01*
X441577607Y-123601448D01*
X441636316Y-123601448D01*
X441695091Y-123601448D01*
X441753934Y-123601448D01*
X441812843Y-123601448D01*
X441871819Y-123601448D01*
X441930862Y-123601448D01*
X441982740Y-123623558D01*
X442023884Y-123651422D01*
X442058320Y-123691201D01*
X442078147Y-123738810D01*
X442083514Y-123785851D01*
X442075742Y-123839354D01*
X442052425Y-123883391D01*
X442013565Y-123917960D01*
X441967884Y-123940057D01*
X441921092Y-123953157D01*
G37*
G36*
X446727792Y-123953157D02*
G01*
X446672665Y-123953157D01*
X446617501Y-123953157D01*
X446562298Y-123953157D01*
X446507057Y-123953157D01*
X446451778Y-123953157D01*
X446396461Y-123953157D01*
X446341106Y-123953157D01*
X446285712Y-123953157D01*
X446230280Y-123953157D01*
X446174811Y-123953157D01*
X446119303Y-123953157D01*
X446063756Y-123953157D01*
X446008172Y-123953157D01*
X445952550Y-123953157D01*
X445896889Y-123953157D01*
X445841190Y-123953157D01*
X445785706Y-123953644D01*
X445730384Y-123955104D01*
X445675224Y-123957536D01*
X445620227Y-123960942D01*
X445565391Y-123965322D01*
X445510718Y-123970674D01*
X445456207Y-123977000D01*
X445401858Y-123984298D01*
X445347672Y-123992570D01*
X445293647Y-124001815D01*
X445239785Y-124012033D01*
X445186085Y-124023224D01*
X445132547Y-124035389D01*
X445079171Y-124048526D01*
X445025958Y-124062637D01*
X444972907Y-124077721D01*
X444925245Y-124092372D01*
X444875377Y-124111137D01*
X444823302Y-124134017D01*
X444769021Y-124161012D01*
X444724008Y-124185570D01*
X444677583Y-124212761D01*
X444629746Y-124242585D01*
X444582424Y-124273020D01*
X444537544Y-124301432D01*
X444495107Y-124327822D01*
X444445495Y-124357965D01*
X444399699Y-124384947D01*
X444349782Y-124413154D01*
X444319557Y-124429431D01*
X444275279Y-124450998D01*
X444229454Y-124469903D01*
X444182085Y-124486146D01*
X444133169Y-124499727D01*
X444082708Y-124510646D01*
X444065545Y-124513695D01*
X444013872Y-124500700D01*
X443961088Y-124478822D01*
X443915063Y-124444304D01*
X443887929Y-124400769D01*
X443879686Y-124348219D01*
X443887247Y-124297540D01*
X443903097Y-124244833D01*
X443922405Y-124194333D01*
X443945172Y-124146039D01*
X443971397Y-124099951D01*
X444001080Y-124056070D01*
X444034222Y-124014394D01*
X444048448Y-123998342D01*
X444083891Y-123958205D01*
X444116950Y-123917174D01*
X444147624Y-123875249D01*
X444175912Y-123832429D01*
X444201815Y-123788714D01*
X444225333Y-123744105D01*
X444234072Y-123726011D01*
X444256869Y-123677711D01*
X444281752Y-123624403D01*
X444303161Y-123578149D01*
X444325907Y-123528690D01*
X444349987Y-123476025D01*
X444375404Y-123420154D01*
X444402156Y-123361078D01*
X444416033Y-123330338D01*
X444437779Y-123285222D01*
X444459052Y-123239634D01*
X444479853Y-123193574D01*
X444500182Y-123147041D01*
X444520039Y-123100037D01*
X444539423Y-123052559D01*
X444558336Y-123004610D01*
X444576775Y-122956188D01*
X444594743Y-122907295D01*
X444612238Y-122857928D01*
X444623639Y-122824755D01*
X444653364Y-122746617D01*
X444681475Y-122670653D01*
X444707975Y-122596865D01*
X444732862Y-122525252D01*
X444756136Y-122455815D01*
X444777799Y-122388553D01*
X444797849Y-122323466D01*
X444816286Y-122260554D01*
X444833111Y-122199818D01*
X444848324Y-122141257D01*
X444861924Y-122084871D01*
X444873912Y-122030661D01*
X444884288Y-121978626D01*
X444893051Y-121928766D01*
X444903172Y-121858054D01*
X444905740Y-121835572D01*
X444865211Y-121806434D01*
X444838921Y-121760716D01*
X444825140Y-121709787D01*
X444821694Y-121656528D01*
X444833954Y-121607775D01*
X444867000Y-121566819D01*
X444875210Y-121560799D01*
X444917176Y-121533079D01*
X444960185Y-121507701D01*
X444969243Y-121503401D01*
X445014259Y-121483115D01*
X445022977Y-121478977D01*
X445071463Y-121463445D01*
X445125898Y-121457017D01*
X445182170Y-121468351D01*
X445228566Y-121500465D01*
X445259687Y-121543100D01*
X445283950Y-121600166D01*
X445287980Y-121613311D01*
X445287980Y-121648726D01*
X445341256Y-121638727D01*
X445393131Y-121628601D01*
X445441502Y-121618898D01*
X445493480Y-121608251D01*
X445539550Y-121598656D01*
X445596508Y-121586978D01*
X445653810Y-121576674D01*
X445711455Y-121567744D01*
X445769444Y-121560188D01*
X445818030Y-121554941D01*
X445847296Y-121552250D01*
X445914862Y-121545316D01*
X445980175Y-121541001D01*
X446043233Y-121539306D01*
X446104037Y-121540229D01*
X446162588Y-121543771D01*
X446218884Y-121549932D01*
X446272926Y-121558711D01*
X446324715Y-121570110D01*
X446374249Y-121584128D01*
X446421529Y-121600765D01*
X446451797Y-121613311D01*
X446493246Y-121647437D01*
X446527478Y-121690828D01*
X446544794Y-121736881D01*
X446543617Y-121793974D01*
X446524283Y-121845795D01*
X446514079Y-121863660D01*
X446481836Y-121906879D01*
X446439119Y-121940372D01*
X446390908Y-121955632D01*
X446337205Y-121952660D01*
X446295482Y-121939375D01*
X446244491Y-121919869D01*
X446194102Y-121904399D01*
X446144314Y-121892964D01*
X446095126Y-121885565D01*
X446038501Y-121882034D01*
X446030478Y-121881978D01*
X445974562Y-121883147D01*
X445917945Y-121886653D01*
X445868858Y-121891519D01*
X445819256Y-121898102D01*
X445769138Y-121906402D01*
X445718921Y-121915948D01*
X445668102Y-121926266D01*
X445616682Y-121937357D01*
X445564661Y-121949221D01*
X445512039Y-121961858D01*
X445494365Y-121966242D01*
X445442860Y-121978463D01*
X445393672Y-121989483D01*
X445339217Y-122000820D01*
X445287918Y-122010520D01*
X445246459Y-122017533D01*
X445235983Y-122069778D01*
X445222874Y-122126984D01*
X445207132Y-122189151D01*
X445193597Y-122239033D01*
X445178581Y-122291705D01*
X445162084Y-122347167D01*
X445144106Y-122405421D01*
X445124646Y-122466465D01*
X445103705Y-122530300D01*
X445088922Y-122574406D01*
X445140356Y-122568868D01*
X445198488Y-122563244D01*
X445252047Y-122558491D01*
X445310258Y-122553679D01*
X445360175Y-122549786D01*
X445413069Y-122545856D01*
X445440632Y-122543876D01*
X445495148Y-122538915D01*
X445546343Y-122532580D01*
X445605669Y-122522729D01*
X445659806Y-122510731D01*
X445708756Y-122496587D01*
X445760648Y-122476781D01*
X445783793Y-122465718D01*
X445833406Y-122442327D01*
X445883380Y-122425039D01*
X445935759Y-122417597D01*
X445965754Y-122421755D01*
X446012160Y-122443126D01*
X446046755Y-122480859D01*
X446051239Y-122487700D01*
X446074096Y-122537488D01*
X446081760Y-122589614D01*
X446074230Y-122644078D01*
X446055683Y-122692621D01*
X446031700Y-122734385D01*
X445986705Y-122757963D01*
X445941024Y-122779694D01*
X445894656Y-122799580D01*
X445847601Y-122817619D01*
X445799860Y-122833812D01*
X445751431Y-122848159D01*
X445702315Y-122860659D01*
X445652512Y-122871314D01*
X445602023Y-122880123D01*
X445550846Y-122887085D01*
X445516347Y-122890701D01*
X445464638Y-122895531D01*
X445413465Y-122900404D01*
X445362828Y-122905320D01*
X445312729Y-122910278D01*
X445263166Y-122915280D01*
X445214140Y-122920325D01*
X445149606Y-122927118D01*
X445086027Y-122933987D01*
X445023401Y-122940933D01*
X444992446Y-122944434D01*
X444948482Y-122939549D01*
X444929440Y-122987910D01*
X444908645Y-123038959D01*
X444889425Y-123084855D01*
X444868918Y-123132725D01*
X444847122Y-123182571D01*
X444824811Y-123233032D01*
X444802757Y-123283665D01*
X444780961Y-123334469D01*
X444759423Y-123385445D01*
X444738143Y-123436593D01*
X444731106Y-123453681D01*
X444710412Y-123505444D01*
X444689547Y-123558152D01*
X444668510Y-123611804D01*
X444647301Y-123666401D01*
X444629495Y-123712620D01*
X444618755Y-123740666D01*
X444597817Y-123793316D01*
X444577138Y-123839527D01*
X444553337Y-123885300D01*
X444526566Y-123926878D01*
X444510067Y-123947051D01*
X444473834Y-123983004D01*
X444440457Y-123997121D01*
X444490958Y-123956785D01*
X444539419Y-123919583D01*
X444585840Y-123885516D01*
X444630223Y-123854582D01*
X444672566Y-123826783D01*
X444725851Y-123794593D01*
X444775510Y-123767974D01*
X444821544Y-123746927D01*
X444873988Y-123728454D01*
X444931848Y-123713074D01*
X444989718Y-123698687D01*
X445047596Y-123685292D01*
X445105485Y-123672889D01*
X445163383Y-123661478D01*
X445221290Y-123651059D01*
X445279207Y-123641633D01*
X445337134Y-123633199D01*
X445395070Y-123625757D01*
X445453016Y-123619308D01*
X445510971Y-123613850D01*
X445568936Y-123609385D01*
X445626910Y-123605913D01*
X445684894Y-123603432D01*
X445742887Y-123601944D01*
X445800890Y-123601448D01*
X445858931Y-123601448D01*
X445917039Y-123601448D01*
X445975214Y-123601448D01*
X446033455Y-123601448D01*
X446091763Y-123601448D01*
X446150138Y-123601448D01*
X446208580Y-123601448D01*
X446267089Y-123601448D01*
X446325664Y-123601448D01*
X446384306Y-123601448D01*
X446443015Y-123601448D01*
X446501791Y-123601448D01*
X446560633Y-123601448D01*
X446619542Y-123601448D01*
X446678518Y-123601448D01*
X446737561Y-123601448D01*
X446789439Y-123623558D01*
X446830584Y-123651422D01*
X446865020Y-123691201D01*
X446884846Y-123738810D01*
X446890213Y-123785851D01*
X446882441Y-123839354D01*
X446859125Y-123883391D01*
X446820264Y-123917960D01*
X446774583Y-123940057D01*
X446727792Y-123953157D01*
G37*
G36*
X448386258Y-121588581D02*
G01*
X448426558Y-121628881D01*
X448454894Y-121679256D01*
X448459956Y-121692755D01*
X448461725Y-121688339D01*
X448504611Y-121659621D01*
X448556436Y-121644204D01*
X448571825Y-121641399D01*
X448625158Y-121641399D01*
X448678300Y-121641399D01*
X448731251Y-121641399D01*
X448784011Y-121641399D01*
X448836581Y-121641399D01*
X448888959Y-121641399D01*
X448941147Y-121641399D01*
X448993144Y-121641399D01*
X449045733Y-121642028D01*
X449099695Y-121643917D01*
X449155031Y-121647066D01*
X449211741Y-121651474D01*
X449269825Y-121657141D01*
X449329283Y-121664067D01*
X449390115Y-121672253D01*
X449452321Y-121681699D01*
X449514259Y-121693090D01*
X449574289Y-121707726D01*
X449632412Y-121725605D01*
X449688626Y-121746728D01*
X449742931Y-121771095D01*
X449795329Y-121798706D01*
X449845819Y-121829561D01*
X449894400Y-121863660D01*
X449940482Y-121900067D01*
X449982862Y-121938459D01*
X450021540Y-121978835D01*
X450056516Y-122021196D01*
X450087791Y-122065542D01*
X450115364Y-122111871D01*
X450139235Y-122160186D01*
X450159404Y-122210484D01*
X450177622Y-122262582D01*
X450192281Y-122315375D01*
X450203382Y-122368865D01*
X450210924Y-122423052D01*
X450214907Y-122477935D01*
X450215331Y-122533515D01*
X450212197Y-122589791D01*
X450205504Y-122646763D01*
X450195253Y-122704432D01*
X450181443Y-122762798D01*
X450164074Y-122821860D01*
X450143146Y-122881618D01*
X450118660Y-122942073D01*
X450090615Y-123003224D01*
X450059011Y-123065072D01*
X450023849Y-123127616D01*
X449971919Y-123208684D01*
X449914741Y-123286412D01*
X449852316Y-123360802D01*
X449819136Y-123396744D01*
X449784644Y-123431851D01*
X449748840Y-123466124D01*
X449711724Y-123499562D01*
X449673296Y-123532165D01*
X449633556Y-123563933D01*
X449592505Y-123594867D01*
X449550142Y-123624965D01*
X449506467Y-123654229D01*
X449461480Y-123682658D01*
X449415181Y-123710252D01*
X449367570Y-123737012D01*
X449318648Y-123762936D01*
X449268413Y-123788026D01*
X449216867Y-123812281D01*
X449164009Y-123835701D01*
X449109839Y-123858287D01*
X449054357Y-123880037D01*
X448997564Y-123900953D01*
X448939458Y-123921034D01*
X448880041Y-123940280D01*
X448819312Y-123958691D01*
X448757271Y-123976267D01*
X448693918Y-123993009D01*
X448629253Y-124008916D01*
X448563277Y-124023988D01*
X448510097Y-124035583D01*
X448458634Y-124046556D01*
X448408888Y-124056907D01*
X448360860Y-124066635D01*
X448299494Y-124078637D01*
X448241181Y-124089532D01*
X448185921Y-124099321D01*
X448133715Y-124108003D01*
X448084561Y-124115579D01*
X448027376Y-124124529D01*
X447974127Y-124133062D01*
X447924813Y-124141178D01*
X447870831Y-124150365D01*
X447822517Y-124158952D01*
X447786584Y-124165648D01*
X447732469Y-124175647D01*
X447677591Y-124184883D01*
X447628946Y-124192338D01*
X447579717Y-124199208D01*
X447565545Y-124201064D01*
X447514075Y-124205411D01*
X447464537Y-124207461D01*
X447401492Y-124206621D01*
X447341881Y-124201698D01*
X447285705Y-124192692D01*
X447232964Y-124179602D01*
X447183658Y-124162428D01*
X447137786Y-124141172D01*
X447116138Y-124129012D01*
X447082779Y-124092514D01*
X447061183Y-124054518D01*
X447046307Y-124005556D01*
X447034316Y-123970254D01*
X447045307Y-123926290D01*
X447061593Y-123874527D01*
X447088191Y-123826834D01*
X447128605Y-123789072D01*
X447179705Y-123769170D01*
X447201623Y-123766311D01*
X447251252Y-123766720D01*
X447303899Y-123779439D01*
X447347668Y-123809660D01*
X447366487Y-123835921D01*
X447417717Y-123835921D01*
X447431211Y-123835921D01*
X447481424Y-123847114D01*
X447487605Y-123851295D01*
X447488608Y-123850575D01*
X447478900Y-123800777D01*
X447482304Y-123779745D01*
X447859857Y-123779745D01*
X447932982Y-123771106D01*
X448003674Y-123762285D01*
X448071933Y-123753284D01*
X448137760Y-123744101D01*
X448201153Y-123734736D01*
X448262114Y-123725191D01*
X448320641Y-123715464D01*
X448376736Y-123705556D01*
X448430398Y-123695467D01*
X448481627Y-123685196D01*
X448530423Y-123674744D01*
X448599056Y-123658727D01*
X448662214Y-123642301D01*
X448719899Y-123625468D01*
X448737910Y-123619766D01*
X448808097Y-123596687D01*
X448876079Y-123572329D01*
X448941858Y-123546693D01*
X449005432Y-123519779D01*
X449066803Y-123491586D01*
X449125970Y-123462115D01*
X449182933Y-123431365D01*
X449237692Y-123399337D01*
X449290247Y-123366030D01*
X449340599Y-123331445D01*
X449388746Y-123295581D01*
X449434689Y-123258439D01*
X449478429Y-123220018D01*
X449519964Y-123180319D01*
X449559296Y-123139342D01*
X449596424Y-123097086D01*
X449636013Y-123048977D01*
X449672349Y-123001125D01*
X449705432Y-122953531D01*
X449735261Y-122906195D01*
X449761836Y-122859116D01*
X449785159Y-122812295D01*
X449805228Y-122765731D01*
X449822043Y-122719426D01*
X449841166Y-122650450D01*
X449852969Y-122582053D01*
X449857452Y-122514236D01*
X449854615Y-122446999D01*
X449844458Y-122380342D01*
X449839445Y-122358251D01*
X449824872Y-122311096D01*
X449800142Y-122257974D01*
X449773500Y-122216591D01*
X449741371Y-122177831D01*
X449703757Y-122141696D01*
X449660657Y-122108184D01*
X449651379Y-122101796D01*
X449602947Y-122072244D01*
X449551535Y-122047700D01*
X449497141Y-122028166D01*
X449439765Y-122013640D01*
X449379408Y-122004123D01*
X449328976Y-122000116D01*
X449289899Y-121999214D01*
X449228132Y-121999214D01*
X449176473Y-121999214D01*
X449120241Y-121999214D01*
X449059437Y-121999214D01*
X448994060Y-121999214D01*
X448924111Y-121999214D01*
X448874938Y-121999214D01*
X448823733Y-121999214D01*
X448770495Y-121999214D01*
X448715226Y-121999214D01*
X448657924Y-121999214D01*
X448598590Y-121999214D01*
X448568161Y-121999214D01*
X448513615Y-121997695D01*
X448463748Y-121991277D01*
X448431385Y-121967463D01*
X448416273Y-122016750D01*
X448384789Y-122057561D01*
X448347236Y-122090037D01*
X448336131Y-122098133D01*
X448321018Y-122148050D01*
X448306211Y-122200104D01*
X448293505Y-122247405D01*
X448281033Y-122296342D01*
X448277512Y-122310624D01*
X448264055Y-122364111D01*
X448250660Y-122416003D01*
X448238186Y-122463510D01*
X448224518Y-122514892D01*
X448209659Y-122570151D01*
X448196912Y-122617149D01*
X448183231Y-122667791D01*
X448168443Y-122723242D01*
X448152548Y-122783501D01*
X448139900Y-122831851D01*
X448126631Y-122882906D01*
X448112738Y-122936666D01*
X448098223Y-122993130D01*
X448083085Y-123052299D01*
X448067325Y-123114173D01*
X448056473Y-123156926D01*
X448040011Y-123221333D01*
X448023142Y-123284495D01*
X448005865Y-123346412D01*
X447988180Y-123407084D01*
X447970087Y-123466510D01*
X447951587Y-123524692D01*
X447932678Y-123581629D01*
X447913362Y-123637321D01*
X447893637Y-123691767D01*
X447873505Y-123744969D01*
X447859857Y-123779745D01*
X447482304Y-123779745D01*
X447482502Y-123778524D01*
X447507958Y-123711694D01*
X447532577Y-123644929D01*
X447556358Y-123578229D01*
X447579302Y-123511593D01*
X447601409Y-123445021D01*
X447622679Y-123378514D01*
X447643112Y-123312071D01*
X447662707Y-123245693D01*
X447681466Y-123179378D01*
X447699387Y-123113129D01*
X447710869Y-123068998D01*
X447727731Y-123004058D01*
X447743971Y-122941586D01*
X447759588Y-122881583D01*
X447774582Y-122824049D01*
X447788954Y-122768984D01*
X447802703Y-122716387D01*
X447815830Y-122666259D01*
X447828335Y-122618599D01*
X447844039Y-122558893D01*
X447858636Y-122503576D01*
X447872127Y-122451846D01*
X447884510Y-122403513D01*
X447898434Y-122347872D01*
X447910628Y-122297539D01*
X447922979Y-122244144D01*
X447934240Y-122191509D01*
X447935573Y-122184839D01*
X447946411Y-122131258D01*
X447958165Y-122076762D01*
X447969201Y-122028326D01*
X447980939Y-121979188D01*
X447984421Y-121965020D01*
X448000525Y-121913615D01*
X448018152Y-121865644D01*
X448044027Y-121807026D01*
X448072611Y-121754514D01*
X448103904Y-121708107D01*
X448137908Y-121667807D01*
X448174620Y-121633613D01*
X448224322Y-121599458D01*
X448234770Y-121593771D01*
X448285050Y-121573927D01*
X448339088Y-121570263D01*
X448386258Y-121588581D01*
G37*
G36*
X451381839Y-123751657D02*
G01*
X451427575Y-123770065D01*
X451472226Y-123797427D01*
X451510210Y-123836622D01*
X451533000Y-123883647D01*
X451540597Y-123938503D01*
X451532591Y-123993016D01*
X451508573Y-124037946D01*
X451468544Y-124073292D01*
X451421489Y-124095961D01*
X451373291Y-124109473D01*
X451324245Y-124110115D01*
X451269768Y-124112424D01*
X451216969Y-124116412D01*
X451165850Y-124122080D01*
X451159578Y-124122906D01*
X451110501Y-124129928D01*
X451057660Y-124137098D01*
X451007332Y-124143495D01*
X450975175Y-124147330D01*
X450954632Y-124192649D01*
X450942202Y-124218161D01*
X450908256Y-124253323D01*
X450867350Y-124282517D01*
X450818883Y-124300281D01*
X450768584Y-124301407D01*
X450749250Y-124297540D01*
X450702768Y-124281511D01*
X450659906Y-124254177D01*
X450630826Y-124210671D01*
X450628350Y-124202285D01*
X450576111Y-124204732D01*
X450527929Y-124183223D01*
X450488507Y-124143991D01*
X450461044Y-124102145D01*
X450440674Y-124051355D01*
X450436858Y-123998461D01*
X450453802Y-123951063D01*
X450491507Y-123909160D01*
X450497680Y-123904309D01*
X450542376Y-123873930D01*
X450587773Y-123849044D01*
X450633872Y-123829651D01*
X450687414Y-123814214D01*
X450707729Y-123810275D01*
X450723404Y-123750426D01*
X450738068Y-123687200D01*
X450751721Y-123620596D01*
X450764363Y-123550614D01*
X450775993Y-123477256D01*
X450786612Y-123400520D01*
X450796219Y-123320406D01*
X450804815Y-123236915D01*
X450812400Y-123150047D01*
X450818974Y-123059801D01*
X450824536Y-122966178D01*
X450829087Y-122869177D01*
X450830983Y-122819410D01*
X450832627Y-122768799D01*
X450834017Y-122717343D01*
X450835155Y-122665043D01*
X450836040Y-122611899D01*
X450836672Y-122557910D01*
X450837051Y-122503077D01*
X450837178Y-122447400D01*
X450837178Y-122388419D01*
X450837178Y-122331766D01*
X450837178Y-122277441D01*
X450837178Y-122225444D01*
X450837178Y-122175775D01*
X450837178Y-122116963D01*
X450837178Y-122061787D01*
X450837178Y-122040736D01*
X450704065Y-122040736D01*
X450653168Y-122032074D01*
X450606132Y-122011800D01*
X450565963Y-121976550D01*
X450559962Y-121968684D01*
X450537032Y-121924607D01*
X450525411Y-121873984D01*
X450524547Y-121855111D01*
X450530815Y-121802174D01*
X450553973Y-121752461D01*
X450594194Y-121715721D01*
X450642251Y-121694555D01*
X450691874Y-121684197D01*
X450702844Y-121682920D01*
X450730932Y-121682920D01*
X450788024Y-121677005D01*
X450842368Y-121671471D01*
X450893964Y-121666319D01*
X450942813Y-121661549D01*
X451010933Y-121655109D01*
X451072872Y-121649527D01*
X451128628Y-121644805D01*
X451178202Y-121640941D01*
X451234683Y-121637124D01*
X451289828Y-121634501D01*
X451314672Y-121634071D01*
X451362815Y-121657255D01*
X451406392Y-121690815D01*
X451436412Y-121731387D01*
X451452875Y-121778971D01*
X451456333Y-121817254D01*
X451450340Y-121869674D01*
X451427328Y-121920850D01*
X451387057Y-121959233D01*
X451340313Y-121981445D01*
X451281584Y-121994772D01*
X451225971Y-121999037D01*
X451210869Y-121999214D01*
X451174233Y-121999214D01*
X451174233Y-122054837D01*
X451174233Y-122113322D01*
X451174233Y-122174669D01*
X451174233Y-122225807D01*
X451174233Y-122278777D01*
X451174233Y-122333579D01*
X451174233Y-122390213D01*
X451174233Y-122404658D01*
X451174233Y-122463085D01*
X451174233Y-122521741D01*
X451174233Y-122580627D01*
X451174233Y-122639741D01*
X451174233Y-122699085D01*
X451174233Y-122758657D01*
X451174233Y-122818458D01*
X451174233Y-122878489D01*
X451173946Y-122947039D01*
X451173088Y-123013776D01*
X451171657Y-123078701D01*
X451169653Y-123141813D01*
X451167077Y-123203112D01*
X451163929Y-123262599D01*
X451160208Y-123320272D01*
X451155914Y-123376133D01*
X451151049Y-123430182D01*
X451145610Y-123482417D01*
X451139600Y-123532840D01*
X451133017Y-123581450D01*
X451122069Y-123650966D01*
X451109833Y-123716404D01*
X451100960Y-123757763D01*
X451152384Y-123753589D01*
X451201972Y-123751949D01*
X451237736Y-123751657D01*
X451381839Y-123751657D01*
G37*
G36*
X454835433Y-121784281D02*
G01*
X454812341Y-121832067D01*
X454777183Y-121872090D01*
X454753612Y-121895411D01*
X454676675Y-121921057D01*
X454606613Y-121921481D01*
X454535339Y-121922755D01*
X454462853Y-121924878D01*
X454389155Y-121927850D01*
X454314246Y-121931671D01*
X454238126Y-121936341D01*
X454160793Y-121941860D01*
X454082249Y-121948229D01*
X454002493Y-121955446D01*
X453921526Y-121963513D01*
X453839347Y-121972429D01*
X453755956Y-121982194D01*
X453671353Y-121992808D01*
X453585539Y-122004271D01*
X453498513Y-122016583D01*
X453410276Y-122029745D01*
X453404551Y-122085902D01*
X453399590Y-122143852D01*
X453395392Y-122203596D01*
X453391958Y-122265134D01*
X453389286Y-122328465D01*
X453387378Y-122393590D01*
X453386448Y-122443611D01*
X453385947Y-122494641D01*
X453385852Y-122529221D01*
X453385616Y-122582105D01*
X453384907Y-122634966D01*
X453383726Y-122687806D01*
X453382074Y-122740625D01*
X453379948Y-122793422D01*
X453377351Y-122846198D01*
X453374281Y-122898952D01*
X453370739Y-122951685D01*
X453366725Y-123004397D01*
X453362238Y-123057086D01*
X453358985Y-123092201D01*
X453351734Y-123176489D01*
X453343720Y-123258382D01*
X453334942Y-123337880D01*
X453325402Y-123414983D01*
X453315098Y-123489692D01*
X453304030Y-123562006D01*
X453292200Y-123631925D01*
X453279606Y-123699450D01*
X453266249Y-123764580D01*
X453252129Y-123827315D01*
X453237245Y-123887655D01*
X453221598Y-123945601D01*
X453205188Y-124001152D01*
X453188015Y-124054308D01*
X453170078Y-124105070D01*
X453151379Y-124153436D01*
X453127920Y-124200180D01*
X453094261Y-124242655D01*
X453047394Y-124273435D01*
X452992346Y-124283995D01*
X452938651Y-124276954D01*
X452929118Y-124274337D01*
X452878485Y-124252712D01*
X452836126Y-124215655D01*
X452811766Y-124165858D01*
X452805212Y-124113036D01*
X452809851Y-124061868D01*
X452811881Y-124050854D01*
X452828873Y-124002903D01*
X452845045Y-123954607D01*
X452860396Y-123905969D01*
X452874926Y-123856987D01*
X452888636Y-123807661D01*
X452901526Y-123757992D01*
X452913595Y-123707979D01*
X452924843Y-123657623D01*
X452935271Y-123606924D01*
X452944879Y-123555881D01*
X452953666Y-123504495D01*
X452961632Y-123452765D01*
X452968778Y-123400691D01*
X452975104Y-123348275D01*
X452980609Y-123295514D01*
X452985293Y-123242411D01*
X452989582Y-123189636D01*
X452993594Y-123138168D01*
X452997329Y-123088008D01*
X453000788Y-123039155D01*
X453005457Y-122968325D01*
X453009503Y-122900437D01*
X453012927Y-122835490D01*
X453015728Y-122773483D01*
X453017907Y-122714418D01*
X453019464Y-122658293D01*
X453020397Y-122605110D01*
X453020709Y-122554867D01*
X453021224Y-122490524D01*
X453022769Y-122428166D01*
X453025345Y-122367792D01*
X453028952Y-122309403D01*
X453033589Y-122252998D01*
X453039256Y-122198578D01*
X453045953Y-122146142D01*
X453053681Y-122095690D01*
X453002167Y-122106567D01*
X452947612Y-122119351D01*
X452890016Y-122134044D01*
X452841749Y-122147172D01*
X452791537Y-122161521D01*
X452739377Y-122177092D01*
X452685272Y-122193884D01*
X452671441Y-122198272D01*
X452616410Y-122214873D01*
X452561837Y-122229261D01*
X452507722Y-122241435D01*
X452454065Y-122251395D01*
X452400866Y-122259142D01*
X452348125Y-122264676D01*
X452295842Y-122267996D01*
X452244016Y-122269103D01*
X452203244Y-122298321D01*
X452153589Y-122311177D01*
X452137771Y-122311845D01*
X452088795Y-122306000D01*
X452041911Y-122286633D01*
X452026640Y-122276430D01*
X451990419Y-122234627D01*
X451967850Y-122189819D01*
X451958776Y-122133745D01*
X451965788Y-122082425D01*
X451986453Y-122028100D01*
X451991225Y-122018754D01*
X452028014Y-121979904D01*
X452071474Y-121952297D01*
X452117098Y-121933377D01*
X452170450Y-121918837D01*
X452220813Y-121910066D01*
X452296786Y-121895144D01*
X452372664Y-121880299D01*
X452448446Y-121865530D01*
X452524132Y-121850837D01*
X452599724Y-121836220D01*
X452675219Y-121821680D01*
X452750620Y-121807217D01*
X452825925Y-121792829D01*
X452901135Y-121778518D01*
X452976249Y-121764283D01*
X453051268Y-121750125D01*
X453126191Y-121736043D01*
X453201019Y-121722037D01*
X453275752Y-121708107D01*
X453350389Y-121694254D01*
X453424930Y-121680478D01*
X453499696Y-121667168D01*
X453574701Y-121654718D01*
X453649944Y-121643126D01*
X453725426Y-121632392D01*
X453801146Y-121622518D01*
X453877104Y-121613502D01*
X453953301Y-121605344D01*
X454029737Y-121598046D01*
X454106411Y-121591606D01*
X454183324Y-121586024D01*
X454260475Y-121581302D01*
X454337864Y-121577438D01*
X454415493Y-121574432D01*
X454493359Y-121572286D01*
X454571465Y-121570998D01*
X454649808Y-121570568D01*
X454692551Y-121570568D01*
X454737464Y-121592307D01*
X454781351Y-121620929D01*
X454802460Y-121658496D01*
X454815894Y-121680478D01*
X454835433Y-121712229D01*
X454835433Y-121715893D01*
X454843829Y-121765008D01*
X454835433Y-121784281D01*
G37*
G36*
X456076187Y-123751657D02*
G01*
X456121923Y-123770065D01*
X456166573Y-123797427D01*
X456204557Y-123836622D01*
X456227348Y-123883647D01*
X456234944Y-123938503D01*
X456226939Y-123993016D01*
X456202921Y-124037946D01*
X456162892Y-124073292D01*
X456115837Y-124095961D01*
X456067638Y-124109473D01*
X456018593Y-124110115D01*
X455964115Y-124112424D01*
X455911317Y-124116412D01*
X455860197Y-124122080D01*
X455853926Y-124122906D01*
X455804848Y-124129928D01*
X455752008Y-124137098D01*
X455701679Y-124143495D01*
X455669522Y-124147330D01*
X455648980Y-124192649D01*
X455636549Y-124218161D01*
X455602604Y-124253323D01*
X455561698Y-124282517D01*
X455513231Y-124300281D01*
X455462932Y-124301407D01*
X455443598Y-124297540D01*
X455397115Y-124281511D01*
X455354253Y-124254177D01*
X455325173Y-124210671D01*
X455322697Y-124202285D01*
X455270458Y-124204732D01*
X455222276Y-124183223D01*
X455182854Y-124143991D01*
X455155391Y-124102145D01*
X455135022Y-124051355D01*
X455131205Y-123998461D01*
X455148150Y-123951063D01*
X455185855Y-123909160D01*
X455192027Y-123904309D01*
X455236723Y-123873930D01*
X455282121Y-123849044D01*
X455328219Y-123829651D01*
X455381762Y-123814214D01*
X455402076Y-123810275D01*
X455417752Y-123750426D01*
X455432416Y-123687200D01*
X455446069Y-123620596D01*
X455458710Y-123550614D01*
X455470340Y-123477256D01*
X455480959Y-123400520D01*
X455490567Y-123320406D01*
X455499163Y-123236915D01*
X455506748Y-123150047D01*
X455513321Y-123059801D01*
X455518884Y-122966178D01*
X455523435Y-122869177D01*
X455525331Y-122819410D01*
X455526974Y-122768799D01*
X455528365Y-122717343D01*
X455529502Y-122665043D01*
X455530387Y-122611899D01*
X455531019Y-122557910D01*
X455531399Y-122503077D01*
X455531525Y-122447400D01*
X455531525Y-122388419D01*
X455531525Y-122331766D01*
X455531525Y-122277441D01*
X455531525Y-122225444D01*
X455531525Y-122175775D01*
X455531525Y-122116963D01*
X455531525Y-122061787D01*
X455531525Y-122040736D01*
X455398413Y-122040736D01*
X455347515Y-122032074D01*
X455300479Y-122011800D01*
X455260311Y-121976550D01*
X455254309Y-121968684D01*
X455231379Y-121924607D01*
X455219759Y-121873984D01*
X455218894Y-121855111D01*
X455225162Y-121802174D01*
X455248320Y-121752461D01*
X455288542Y-121715721D01*
X455336598Y-121694555D01*
X455386222Y-121684197D01*
X455397191Y-121682920D01*
X455425279Y-121682920D01*
X455482371Y-121677005D01*
X455536715Y-121671471D01*
X455588312Y-121666319D01*
X455637160Y-121661549D01*
X455705281Y-121655109D01*
X455767219Y-121649527D01*
X455822975Y-121644805D01*
X455872549Y-121640941D01*
X455929030Y-121637124D01*
X455984176Y-121634501D01*
X456009020Y-121634071D01*
X456057162Y-121657255D01*
X456100740Y-121690815D01*
X456130760Y-121731387D01*
X456147222Y-121778971D01*
X456150681Y-121817254D01*
X456144688Y-121869674D01*
X456121676Y-121920850D01*
X456081404Y-121959233D01*
X456034661Y-121981445D01*
X455975931Y-121994772D01*
X455920318Y-121999037D01*
X455905217Y-121999214D01*
X455868580Y-121999214D01*
X455868580Y-122054837D01*
X455868580Y-122113322D01*
X455868580Y-122174669D01*
X455868580Y-122225807D01*
X455868580Y-122278777D01*
X455868580Y-122333579D01*
X455868580Y-122390213D01*
X455868580Y-122404658D01*
X455868580Y-122463085D01*
X455868580Y-122521741D01*
X455868580Y-122580627D01*
X455868580Y-122639741D01*
X455868580Y-122699085D01*
X455868580Y-122758657D01*
X455868580Y-122818458D01*
X455868580Y-122878489D01*
X455868294Y-122947039D01*
X455867435Y-123013776D01*
X455866004Y-123078701D01*
X455864001Y-123141813D01*
X455861425Y-123203112D01*
X455858276Y-123262599D01*
X455854555Y-123320272D01*
X455850262Y-123376133D01*
X455845396Y-123430182D01*
X455839958Y-123482417D01*
X455833947Y-123532840D01*
X455827364Y-123581450D01*
X455816416Y-123650966D01*
X455804180Y-123716404D01*
X455795307Y-123757763D01*
X455846732Y-123753589D01*
X455896320Y-123751949D01*
X455932083Y-123751657D01*
X456076187Y-123751657D01*
G37*
G36*
X458119403Y-121338233D02*
G01*
X458183435Y-121348312D01*
X458245427Y-121365110D01*
X458305380Y-121388626D01*
X458363293Y-121418862D01*
X458419167Y-121455817D01*
X458473002Y-121499491D01*
X458524797Y-121549884D01*
X458558195Y-121587212D01*
X458590686Y-121627526D01*
X458622270Y-121670827D01*
X458652949Y-121717114D01*
X458680059Y-121761240D01*
X458705213Y-121805080D01*
X458728411Y-121848633D01*
X458759541Y-121913427D01*
X458786271Y-121977576D01*
X458808600Y-122041082D01*
X458826528Y-122103943D01*
X458840056Y-122166161D01*
X458849182Y-122227734D01*
X458853909Y-122288664D01*
X458854234Y-122348949D01*
X458852007Y-122388782D01*
X458846697Y-122448123D01*
X458839928Y-122507077D01*
X458831699Y-122565646D01*
X458822010Y-122623827D01*
X458810862Y-122681623D01*
X458798254Y-122739032D01*
X458784186Y-122796054D01*
X458768659Y-122852691D01*
X458751671Y-122908940D01*
X458733224Y-122964804D01*
X458720115Y-123001831D01*
X458699278Y-123056664D01*
X458677068Y-123110338D01*
X458653483Y-123162853D01*
X458628524Y-123214208D01*
X458602192Y-123264404D01*
X458574486Y-123313441D01*
X458545405Y-123361319D01*
X458514951Y-123408038D01*
X458483124Y-123453597D01*
X458449922Y-123497997D01*
X458427024Y-123526953D01*
X458371783Y-123588925D01*
X458314749Y-123646308D01*
X458255920Y-123699102D01*
X458195299Y-123747306D01*
X458132883Y-123790922D01*
X458068674Y-123829948D01*
X458002671Y-123864385D01*
X457934875Y-123894234D01*
X457865285Y-123919493D01*
X457793901Y-123940163D01*
X457720723Y-123956244D01*
X457645752Y-123967735D01*
X457568987Y-123974638D01*
X457490429Y-123976952D01*
X457410077Y-123974676D01*
X457327931Y-123967812D01*
X457278010Y-123961558D01*
X457214288Y-123950147D01*
X457153809Y-123935225D01*
X457096574Y-123916793D01*
X457042583Y-123894849D01*
X456991836Y-123869394D01*
X456944333Y-123840429D01*
X456900073Y-123807952D01*
X456889515Y-123799284D01*
X456849788Y-123762934D01*
X456813647Y-123724714D01*
X456781094Y-123684624D01*
X456752129Y-123642663D01*
X456726750Y-123598833D01*
X456704959Y-123553133D01*
X456686756Y-123505563D01*
X456672139Y-123456123D01*
X456660118Y-123405099D01*
X456649699Y-123352778D01*
X456640884Y-123299159D01*
X456633671Y-123244242D01*
X456628061Y-123188028D01*
X456624054Y-123130517D01*
X456622403Y-123090130D01*
X456969284Y-123090130D01*
X456972386Y-123159807D01*
X456980790Y-123227573D01*
X456984770Y-123249738D01*
X456996988Y-123301353D01*
X457013798Y-123350106D01*
X457035199Y-123395997D01*
X457061191Y-123439026D01*
X457091775Y-123479193D01*
X457126951Y-123516497D01*
X457142307Y-123530617D01*
X457184799Y-123562668D01*
X457232896Y-123590127D01*
X457286598Y-123612995D01*
X457333596Y-123627984D01*
X457384181Y-123640034D01*
X457438353Y-123649145D01*
X457496113Y-123655318D01*
X457511113Y-123656402D01*
X457507450Y-123636863D01*
X457557027Y-123624874D01*
X457609167Y-123614045D01*
X457658206Y-123605840D01*
X457672314Y-123603890D01*
X457725837Y-123591535D01*
X457777586Y-123573751D01*
X457829378Y-123552430D01*
X457878608Y-123529875D01*
X457887247Y-123525732D01*
X457931880Y-123501350D01*
X457978004Y-123470945D01*
X458025618Y-123434517D01*
X458064783Y-123401038D01*
X458104901Y-123363705D01*
X458145974Y-123322518D01*
X458188001Y-123277476D01*
X458198657Y-123265614D01*
X458241438Y-123217051D01*
X458281242Y-123167230D01*
X458318069Y-123116148D01*
X458351919Y-123063808D01*
X458382793Y-123010208D01*
X458410690Y-122955349D01*
X458435611Y-122899230D01*
X458457554Y-122841852D01*
X458479202Y-122776970D01*
X458497129Y-122712995D01*
X458511335Y-122649926D01*
X458521821Y-122587763D01*
X458528585Y-122526507D01*
X458531629Y-122466157D01*
X458530951Y-122406714D01*
X458526553Y-122348176D01*
X458518434Y-122290546D01*
X458506594Y-122233821D01*
X458491033Y-122178003D01*
X458471751Y-122123091D01*
X458448748Y-122069086D01*
X458422025Y-122015987D01*
X458391580Y-121963794D01*
X458357415Y-121912508D01*
X458325034Y-121867476D01*
X458290172Y-121827634D01*
X458252829Y-121792982D01*
X458213006Y-121763520D01*
X458159739Y-121733992D01*
X458102596Y-121712573D01*
X458054091Y-121701276D01*
X458048428Y-121700443D01*
X458057421Y-121715459D01*
X458059926Y-121766923D01*
X458038412Y-121816964D01*
X458035014Y-121822138D01*
X458001494Y-121860435D01*
X457958131Y-121884859D01*
X457908329Y-121890202D01*
X457892132Y-121888084D01*
X457842115Y-121877756D01*
X457793114Y-121866307D01*
X457761462Y-121857554D01*
X457713719Y-121841443D01*
X457684526Y-121831908D01*
X457628362Y-121860452D01*
X457573443Y-121894791D01*
X457519769Y-121934927D01*
X457467340Y-121980858D01*
X457416157Y-122032586D01*
X457382726Y-122070291D01*
X457349849Y-122110572D01*
X457317525Y-122153429D01*
X457285754Y-122198861D01*
X457254537Y-122246870D01*
X457223873Y-122297455D01*
X457193762Y-122350616D01*
X457164205Y-122406353D01*
X457149634Y-122435188D01*
X457121656Y-122492466D01*
X457096034Y-122548894D01*
X457072769Y-122604474D01*
X457051860Y-122659204D01*
X457033308Y-122713086D01*
X457017113Y-122766118D01*
X457003274Y-122818301D01*
X456991792Y-122869635D01*
X456982666Y-122920120D01*
X456975897Y-122969755D01*
X456971485Y-123018542D01*
X456969284Y-123090130D01*
X456622403Y-123090130D01*
X456621650Y-123071708D01*
X456620848Y-123011601D01*
X456622088Y-122950827D01*
X456625809Y-122890014D01*
X456632011Y-122829163D01*
X456640693Y-122768274D01*
X456651856Y-122707347D01*
X456665499Y-122646382D01*
X456681623Y-122585378D01*
X456700227Y-122524337D01*
X456722161Y-122460957D01*
X456745221Y-122399353D01*
X456769407Y-122339523D01*
X456794719Y-122281468D01*
X456821156Y-122225187D01*
X456848719Y-122170681D01*
X456877408Y-122117949D01*
X456907223Y-122066992D01*
X456938163Y-122017809D01*
X456970230Y-121970401D01*
X457003422Y-121924768D01*
X457037740Y-121880909D01*
X457073184Y-121838825D01*
X457109754Y-121798516D01*
X457147449Y-121759980D01*
X457186270Y-121723220D01*
X457170356Y-121673432D01*
X457175232Y-121619144D01*
X457199503Y-121575867D01*
X457242322Y-121535595D01*
X457292173Y-121504332D01*
X457315719Y-121492411D01*
X457368928Y-121472203D01*
X457416813Y-121453713D01*
X457465950Y-121434312D01*
X457513234Y-121415002D01*
X457537980Y-121404483D01*
X457583823Y-121385950D01*
X457632598Y-121368594D01*
X457679641Y-121354413D01*
X457727550Y-121343289D01*
X457778922Y-121336782D01*
X457828629Y-121334874D01*
X458053332Y-121334874D01*
X458119403Y-121338233D01*
G37*
G36*
X460239306Y-121750087D02*
G01*
X460239306Y-121783060D01*
X460291810Y-121801622D01*
X460342465Y-121836702D01*
X460381658Y-121876659D01*
X460419669Y-121927187D01*
X460447400Y-121972020D01*
X460474466Y-122022799D01*
X460500866Y-122079525D01*
X460526601Y-122142197D01*
X460543388Y-122187281D01*
X460565238Y-122242125D01*
X460590028Y-122298579D01*
X460617760Y-122356643D01*
X460648432Y-122416316D01*
X460682045Y-122477600D01*
X460718599Y-122540494D01*
X460744602Y-122583317D01*
X460771913Y-122626857D01*
X460800530Y-122671111D01*
X460830455Y-122716082D01*
X460861686Y-122761767D01*
X460894225Y-122808169D01*
X460928071Y-122855286D01*
X460962241Y-122901978D01*
X460995447Y-122947411D01*
X461027690Y-122991585D01*
X461058970Y-123034499D01*
X461089285Y-123076154D01*
X461118637Y-123116549D01*
X461160859Y-123174781D01*
X461200912Y-123230179D01*
X461238797Y-123282744D01*
X461274514Y-123332475D01*
X461308063Y-123379373D01*
X461339443Y-123423436D01*
X461359159Y-123451238D01*
X461362499Y-123402218D01*
X461363567Y-123353217D01*
X461364001Y-123297818D01*
X461364044Y-123270498D01*
X461365714Y-123220821D01*
X461370723Y-123166433D01*
X461379071Y-123107334D01*
X461388154Y-123056663D01*
X461399374Y-123002977D01*
X461412731Y-122946277D01*
X461428225Y-122886561D01*
X461432432Y-122871161D01*
X461446096Y-122823623D01*
X461460983Y-122774433D01*
X461477094Y-122723589D01*
X461494428Y-122671092D01*
X461512986Y-122616943D01*
X461532767Y-122561140D01*
X461553773Y-122503684D01*
X461576001Y-122444576D01*
X461599454Y-122383815D01*
X461624129Y-122321400D01*
X461641260Y-122278872D01*
X461667174Y-122214326D01*
X461692250Y-122149371D01*
X461716490Y-122084009D01*
X461739892Y-122018239D01*
X461762457Y-121952061D01*
X461784185Y-121885475D01*
X461805076Y-121818481D01*
X461825129Y-121751079D01*
X461844345Y-121683269D01*
X461862724Y-121615052D01*
X461874512Y-121569347D01*
X461906645Y-121525078D01*
X461948090Y-121491189D01*
X461998847Y-121467681D01*
X462050897Y-121455626D01*
X462058915Y-121454553D01*
X462082118Y-121454553D01*
X462128192Y-121472443D01*
X462170686Y-121498756D01*
X462205537Y-121535840D01*
X462225000Y-121575453D01*
X462234923Y-121626973D01*
X462228206Y-121679237D01*
X462203018Y-121726884D01*
X462188210Y-121791598D01*
X462172178Y-121856142D01*
X462154922Y-121920513D01*
X462136443Y-121984713D01*
X462116740Y-122048740D01*
X462095814Y-122112597D01*
X462073664Y-122176281D01*
X462050290Y-122239794D01*
X462025693Y-122303135D01*
X461999872Y-122366304D01*
X461981979Y-122408321D01*
X461955593Y-122470710D01*
X461930473Y-122531941D01*
X461906620Y-122592011D01*
X461884033Y-122650923D01*
X461862713Y-122708676D01*
X461842660Y-122765269D01*
X461823873Y-122820703D01*
X461806353Y-122874978D01*
X461790099Y-122928093D01*
X461775112Y-122980050D01*
X461765824Y-123014043D01*
X461753166Y-123063925D01*
X461741752Y-123112819D01*
X461731584Y-123160725D01*
X461719964Y-123223064D01*
X461710557Y-123283648D01*
X461703363Y-123342476D01*
X461698383Y-123399549D01*
X461695616Y-123454866D01*
X461694993Y-123495202D01*
X461694650Y-123548287D01*
X461693619Y-123601295D01*
X461691902Y-123654227D01*
X461689498Y-123707083D01*
X461686407Y-123759862D01*
X461682629Y-123812565D01*
X461678163Y-123865192D01*
X461673011Y-123917742D01*
X461651583Y-123962297D01*
X461619484Y-124005916D01*
X461573174Y-124040549D01*
X461518362Y-124055862D01*
X461466192Y-124053864D01*
X461408119Y-124038450D01*
X461395796Y-124033757D01*
X461355357Y-123996458D01*
X461315558Y-123958443D01*
X461276398Y-123919712D01*
X461237878Y-123880266D01*
X461199996Y-123840104D01*
X461162754Y-123799227D01*
X461126151Y-123757634D01*
X461090187Y-123715326D01*
X461054862Y-123672302D01*
X461020177Y-123628562D01*
X460986131Y-123584107D01*
X460952724Y-123538937D01*
X460919956Y-123493050D01*
X460887828Y-123446449D01*
X460856339Y-123399131D01*
X460825489Y-123351099D01*
X460795507Y-123303218D01*
X460766317Y-123256664D01*
X460737919Y-123211437D01*
X460710313Y-123167535D01*
X460683499Y-123124959D01*
X460644762Y-123063583D01*
X460607807Y-123005190D01*
X460572634Y-122949781D01*
X460539243Y-122897355D01*
X460507633Y-122847914D01*
X460477805Y-122801457D01*
X460449759Y-122757983D01*
X460440806Y-122744155D01*
X460406822Y-122690746D01*
X460375700Y-122639818D01*
X460347441Y-122591370D01*
X460322043Y-122545403D01*
X460299508Y-122501916D01*
X460275364Y-122451046D01*
X460255692Y-122404052D01*
X460249076Y-122386339D01*
X460231673Y-122338054D01*
X460212745Y-122287297D01*
X460193510Y-122240357D01*
X460188015Y-122230024D01*
X460178015Y-122284305D01*
X460165570Y-122342581D01*
X460153854Y-122392078D01*
X460140574Y-122444132D01*
X460125728Y-122498744D01*
X460109318Y-122555912D01*
X460091343Y-122615637D01*
X460081769Y-122646458D01*
X460062879Y-122707290D01*
X460045286Y-122765221D01*
X460028990Y-122820252D01*
X460013992Y-122872383D01*
X460000291Y-122921613D01*
X459984990Y-122979072D01*
X459971717Y-123031999D01*
X459966975Y-123051901D01*
X459954467Y-123108544D01*
X459943505Y-123161238D01*
X459934088Y-123209982D01*
X459925056Y-123261857D01*
X459918127Y-123308356D01*
X459916724Y-123359280D01*
X459912517Y-123411606D01*
X459905504Y-123465335D01*
X459895687Y-123520466D01*
X459888817Y-123552599D01*
X459876556Y-123611783D01*
X459863587Y-123667059D01*
X459849909Y-123718429D01*
X459835523Y-123765892D01*
X459815239Y-123823098D01*
X459793696Y-123873358D01*
X459770894Y-123916673D01*
X459740620Y-123961050D01*
X459721511Y-123982466D01*
X459675687Y-124004219D01*
X459626784Y-124017443D01*
X459576905Y-124016527D01*
X459528454Y-123995060D01*
X459518790Y-123987351D01*
X459479892Y-123952203D01*
X459447317Y-123910329D01*
X459426977Y-123861328D01*
X459424649Y-123811105D01*
X459428420Y-123791957D01*
X459442006Y-123741277D01*
X459454676Y-123693039D01*
X459467835Y-123641690D01*
X459477268Y-123603890D01*
X459490840Y-123552298D01*
X459505604Y-123502854D01*
X459521561Y-123455555D01*
X459524896Y-123446353D01*
X459524896Y-123441468D01*
X459539340Y-123381114D01*
X459553976Y-123321560D01*
X459568802Y-123262809D01*
X459583819Y-123204858D01*
X459599027Y-123147709D01*
X459614426Y-123091362D01*
X459630015Y-123035815D01*
X459645796Y-122981071D01*
X459659554Y-122925601D01*
X459673349Y-122870932D01*
X459687184Y-122817065D01*
X459701056Y-122764000D01*
X459714966Y-122711736D01*
X459728915Y-122660273D01*
X459742901Y-122609612D01*
X459756926Y-122559752D01*
X459772158Y-122503380D01*
X459786407Y-122448144D01*
X459799674Y-122394043D01*
X459811957Y-122341078D01*
X459823258Y-122289248D01*
X459833577Y-122238553D01*
X459842912Y-122188994D01*
X459851265Y-122140570D01*
X459861952Y-122070063D01*
X459870428Y-122002110D01*
X459876692Y-121936712D01*
X459880746Y-121873868D01*
X459882589Y-121813579D01*
X459882711Y-121794050D01*
X459882711Y-121773290D01*
X459897366Y-121734211D01*
X459916142Y-121686049D01*
X459948578Y-121645188D01*
X459992993Y-121618429D01*
X460029257Y-121608426D01*
X460078802Y-121612891D01*
X460129876Y-121629387D01*
X460173704Y-121658038D01*
X460210285Y-121698843D01*
X460231979Y-121735432D01*
X460239306Y-121750087D01*
G37*
D11*
G36*
X419030583Y-100620799D02*
G01*
X419030583Y-104685000D01*
X418098796Y-104685000D01*
X418098796Y-102179068D01*
X418099101Y-102138829D01*
X418100017Y-102097247D01*
X418101544Y-102054321D01*
X418103681Y-102010052D01*
X418106286Y-101970588D01*
X418109825Y-101930845D01*
X418114300Y-101890820D01*
X418119709Y-101850515D01*
X418123220Y-101827358D01*
X416663869Y-104041175D01*
X416631908Y-104084223D01*
X416595863Y-104121531D01*
X416555735Y-104153100D01*
X416511523Y-104178928D01*
X416463228Y-104199017D01*
X416410849Y-104213367D01*
X416354387Y-104221976D01*
X416293841Y-104224846D01*
X416146075Y-104224846D01*
X416093456Y-104222649D01*
X416043526Y-104216057D01*
X415996284Y-104205071D01*
X415945584Y-104187134D01*
X415927477Y-104178928D01*
X415882827Y-104152733D01*
X415847639Y-104125305D01*
X415816075Y-104093668D01*
X415788134Y-104057825D01*
X415777268Y-104041175D01*
X414310590Y-101818565D01*
X414314747Y-101861408D01*
X414318671Y-101903596D01*
X414322360Y-101945130D01*
X414325817Y-101986009D01*
X414327687Y-102009075D01*
X414330542Y-102048264D01*
X414332946Y-102091679D01*
X414334434Y-102133627D01*
X414335007Y-102174111D01*
X414335014Y-102179068D01*
X414335014Y-104685000D01*
X413403227Y-104685000D01*
X413403227Y-100620799D01*
X414204344Y-100620799D01*
X414256498Y-100620799D01*
X414307255Y-100620799D01*
X414324023Y-100620799D01*
X414374398Y-100623974D01*
X414418056Y-100633499D01*
X414461076Y-100652424D01*
X414491329Y-100673555D01*
X414523997Y-100705307D01*
X414550089Y-100739018D01*
X414556054Y-100747805D01*
X415984874Y-102928405D01*
X416009303Y-102965614D01*
X416033131Y-103003235D01*
X416056358Y-103041268D01*
X416078984Y-103079713D01*
X416101009Y-103118571D01*
X416108217Y-103131615D01*
X416130027Y-103170988D01*
X416151494Y-103210704D01*
X416172617Y-103250764D01*
X416193397Y-103291167D01*
X416213833Y-103331913D01*
X416220569Y-103345572D01*
X416240432Y-103303612D01*
X416260640Y-103261995D01*
X416281190Y-103220722D01*
X416302085Y-103179792D01*
X416323322Y-103139206D01*
X416330478Y-103125753D01*
X416352760Y-103085762D01*
X416375644Y-103046390D01*
X416399128Y-103007635D01*
X416423214Y-102969499D01*
X416447900Y-102931981D01*
X416456263Y-102919612D01*
X417872871Y-100747805D01*
X417899274Y-100712456D01*
X417931242Y-100680485D01*
X417940038Y-100673555D01*
X417979046Y-100648626D01*
X418015754Y-100633499D01*
X418064569Y-100623230D01*
X418107345Y-100620799D01*
X418159455Y-100620799D01*
X418211129Y-100620799D01*
X418228245Y-100620799D01*
X419030583Y-100620799D01*
G37*
G36*
X423191259Y-104122264D02*
G01*
X423191259Y-104685000D01*
X420328733Y-104685000D01*
X420328733Y-104122264D01*
X421341120Y-104122264D01*
X421341120Y-101927986D01*
X421341410Y-101887638D01*
X421342279Y-101846825D01*
X421343728Y-101805549D01*
X421344784Y-101782418D01*
X421347134Y-101739948D01*
X421350064Y-101697169D01*
X421353574Y-101654081D01*
X421355774Y-101630010D01*
X420686549Y-102073555D01*
X420643282Y-102096853D01*
X420596239Y-102115650D01*
X420549773Y-102127288D01*
X420500428Y-102132463D01*
X420449297Y-102131558D01*
X420422767Y-102128265D01*
X420373212Y-102117099D01*
X420326343Y-102099325D01*
X420317742Y-102095048D01*
X420277442Y-102070380D01*
X420246912Y-102045223D01*
X419941608Y-101715983D01*
X421509647Y-100620799D01*
X422308322Y-100620799D01*
X422308322Y-104122264D01*
X423191259Y-104122264D01*
G37*
G36*
X427029536Y-103997212D02*
G01*
X427086208Y-103999616D01*
X427138071Y-104006829D01*
X427185126Y-104018850D01*
X427233946Y-104038952D01*
X427276221Y-104065600D01*
X427311434Y-104097196D01*
X427337997Y-104132999D01*
X427355912Y-104173010D01*
X427365179Y-104217229D01*
X427366591Y-104244385D01*
X427366591Y-104685000D01*
X423828733Y-104685000D01*
X423828733Y-104430987D01*
X423831728Y-104388294D01*
X423839418Y-104348788D01*
X423851840Y-104307816D01*
X423866591Y-104270764D01*
X423886201Y-104233898D01*
X423910836Y-104198529D01*
X423940497Y-104164655D01*
X423975184Y-104132278D01*
X423997261Y-104114448D01*
X425509124Y-102896165D01*
X425545124Y-102867151D01*
X425580307Y-102838359D01*
X425614676Y-102809792D01*
X425659231Y-102772048D01*
X425702336Y-102734702D01*
X425743991Y-102697753D01*
X425784195Y-102661200D01*
X425822950Y-102625045D01*
X425851064Y-102598189D01*
X425887223Y-102562621D01*
X425921818Y-102527236D01*
X425954848Y-102492035D01*
X425986314Y-102457016D01*
X426016214Y-102422181D01*
X426044550Y-102387529D01*
X426071321Y-102353060D01*
X426096528Y-102318775D01*
X426120475Y-102284291D01*
X426148209Y-102241057D01*
X426173498Y-102197680D01*
X426196342Y-102154160D01*
X426216741Y-102110497D01*
X426234696Y-102066690D01*
X426244295Y-102040338D01*
X426258719Y-101995735D01*
X426270699Y-101950464D01*
X426280234Y-101904526D01*
X426287324Y-101857919D01*
X426291969Y-101810645D01*
X426294169Y-101762703D01*
X426294365Y-101743339D01*
X426292819Y-101693024D01*
X426288182Y-101645027D01*
X426280454Y-101599349D01*
X426269635Y-101555989D01*
X426255725Y-101514948D01*
X426238723Y-101476225D01*
X426218630Y-101439820D01*
X426187032Y-101394887D01*
X426149937Y-101354076D01*
X426118510Y-101326172D01*
X426072295Y-101292741D01*
X426021576Y-101263768D01*
X425966354Y-101239252D01*
X425906629Y-101219193D01*
X425858880Y-101207075D01*
X425808598Y-101197464D01*
X425755783Y-101190359D01*
X425700435Y-101185763D01*
X425642554Y-101183673D01*
X425622697Y-101183534D01*
X425570390Y-101184702D01*
X425519714Y-101188205D01*
X425470670Y-101194044D01*
X425415514Y-101203808D01*
X425362578Y-101216751D01*
X425312456Y-101232072D01*
X425264671Y-101249823D01*
X425219224Y-101270006D01*
X425176114Y-101292619D01*
X425152529Y-101306632D01*
X425113151Y-101332786D01*
X425076227Y-101360809D01*
X425041758Y-101390702D01*
X425009743Y-101422465D01*
X424992550Y-101441454D01*
X424964860Y-101475922D01*
X424940558Y-101511793D01*
X424919646Y-101549065D01*
X424902123Y-101587741D01*
X424893632Y-101610471D01*
X424873066Y-101652989D01*
X424850293Y-101690784D01*
X424820054Y-101729905D01*
X424786637Y-101762225D01*
X424743636Y-101791337D01*
X424723883Y-101800980D01*
X424672601Y-101817656D01*
X424621853Y-101826518D01*
X424564838Y-101830364D01*
X424512537Y-101829740D01*
X424455883Y-101825632D01*
X424419801Y-101821496D01*
X423905670Y-101748224D01*
X423917072Y-101693180D01*
X423930213Y-101639425D01*
X423945093Y-101586957D01*
X423961712Y-101535778D01*
X423980070Y-101485887D01*
X424000166Y-101437283D01*
X424022001Y-101389968D01*
X424045575Y-101343941D01*
X424070888Y-101299201D01*
X424097939Y-101255750D01*
X424116940Y-101227498D01*
X424146696Y-101186210D01*
X424177805Y-101146245D01*
X424210266Y-101107602D01*
X424244080Y-101070282D01*
X424279246Y-101034284D01*
X424315764Y-100999608D01*
X424353635Y-100966254D01*
X424392858Y-100934223D01*
X424433433Y-100903514D01*
X424475361Y-100874128D01*
X424504065Y-100855272D01*
X424548150Y-100828081D01*
X424593395Y-100802195D01*
X424639798Y-100777614D01*
X424687361Y-100754338D01*
X424736084Y-100732368D01*
X424785965Y-100711703D01*
X424837005Y-100692343D01*
X424889205Y-100674288D01*
X424942564Y-100657538D01*
X424997082Y-100642093D01*
X425034072Y-100632522D01*
X425090579Y-100619253D01*
X425147902Y-100607289D01*
X425206041Y-100596630D01*
X425264996Y-100587276D01*
X425324766Y-100579228D01*
X425385352Y-100572484D01*
X425446754Y-100567046D01*
X425508971Y-100562913D01*
X425572005Y-100560085D01*
X425635854Y-100558562D01*
X425678873Y-100558272D01*
X425746081Y-100559037D01*
X425812152Y-100561329D01*
X425877085Y-100565150D01*
X425940881Y-100570500D01*
X426003538Y-100577378D01*
X426065058Y-100585784D01*
X426125440Y-100595719D01*
X426184685Y-100607182D01*
X426242791Y-100620174D01*
X426299760Y-100634694D01*
X426337107Y-100645223D01*
X426392216Y-100661952D01*
X426445800Y-100679901D01*
X426497860Y-100699070D01*
X426548396Y-100719457D01*
X426597408Y-100741064D01*
X426644896Y-100763890D01*
X426690860Y-100787936D01*
X426735299Y-100813201D01*
X426778215Y-100839685D01*
X426819606Y-100867388D01*
X426846354Y-100886535D01*
X426885130Y-100916044D01*
X426922231Y-100946687D01*
X426957658Y-100978464D01*
X426991411Y-101011373D01*
X427023489Y-101045417D01*
X427053893Y-101080593D01*
X427082623Y-101116903D01*
X427109678Y-101154347D01*
X427135059Y-101192924D01*
X427158765Y-101232634D01*
X427173639Y-101259738D01*
X427194372Y-101300991D01*
X427213066Y-101343051D01*
X427229721Y-101385919D01*
X427244336Y-101429593D01*
X427256912Y-101474075D01*
X427267448Y-101519364D01*
X427275946Y-101565460D01*
X427282403Y-101612363D01*
X427286822Y-101660074D01*
X427289201Y-101708591D01*
X427289654Y-101741385D01*
X427288935Y-101783766D01*
X427286778Y-101825545D01*
X427283182Y-101866724D01*
X427278148Y-101907302D01*
X427271676Y-101947279D01*
X427263766Y-101986654D01*
X427254417Y-102025429D01*
X427243630Y-102063602D01*
X427227010Y-102113565D01*
X427207833Y-102162459D01*
X427186767Y-102210300D01*
X427163869Y-102257592D01*
X427139140Y-102304334D01*
X427112578Y-102350526D01*
X427084185Y-102396169D01*
X427053960Y-102441263D01*
X427021903Y-102485806D01*
X426988014Y-102529801D01*
X426952809Y-102573138D01*
X426916192Y-102616202D01*
X426887802Y-102648319D01*
X426858618Y-102680281D01*
X426828640Y-102712089D01*
X426797868Y-102743742D01*
X426766301Y-102775241D01*
X426733940Y-102806585D01*
X426700785Y-102837775D01*
X426666835Y-102868810D01*
X426632306Y-102899610D01*
X426597412Y-102930462D01*
X426562153Y-102961365D01*
X426526529Y-102992320D01*
X426490540Y-103023327D01*
X426454186Y-103054385D01*
X426417468Y-103085494D01*
X426380384Y-103116655D01*
X426342936Y-103147868D01*
X426305122Y-103179132D01*
X426279710Y-103200003D01*
X425196493Y-104093932D01*
X425252503Y-104080365D01*
X425308334Y-104067752D01*
X425363987Y-104056093D01*
X425419460Y-104045389D01*
X425474755Y-104035638D01*
X425529870Y-104026841D01*
X425551867Y-104023590D01*
X425606314Y-104015991D01*
X425659748Y-104009679D01*
X425712169Y-104004656D01*
X425763575Y-104000921D01*
X425813968Y-103998474D01*
X425863348Y-103997315D01*
X425882816Y-103997212D01*
X427029536Y-103997212D01*
G37*
G36*
X431088852Y-103997212D02*
G01*
X431145524Y-103999616D01*
X431197387Y-104006829D01*
X431244442Y-104018850D01*
X431293262Y-104038952D01*
X431335537Y-104065600D01*
X431370750Y-104097196D01*
X431397313Y-104132999D01*
X431415229Y-104173010D01*
X431424495Y-104217229D01*
X431425907Y-104244385D01*
X431425907Y-104685000D01*
X427888049Y-104685000D01*
X427888049Y-104430987D01*
X427891044Y-104388294D01*
X427898734Y-104348788D01*
X427911156Y-104307816D01*
X427925907Y-104270764D01*
X427945517Y-104233898D01*
X427970152Y-104198529D01*
X427999813Y-104164655D01*
X428034500Y-104132278D01*
X428056577Y-104114448D01*
X429568440Y-102896165D01*
X429604440Y-102867151D01*
X429639624Y-102838359D01*
X429673992Y-102809792D01*
X429718547Y-102772048D01*
X429761652Y-102734702D01*
X429803307Y-102697753D01*
X429843512Y-102661200D01*
X429882266Y-102625045D01*
X429910380Y-102598189D01*
X429946540Y-102562621D01*
X429981134Y-102527236D01*
X430014164Y-102492035D01*
X430045630Y-102457016D01*
X430075530Y-102422181D01*
X430103866Y-102387529D01*
X430130638Y-102353060D01*
X430155844Y-102318775D01*
X430179791Y-102284291D01*
X430207525Y-102241057D01*
X430232814Y-102197680D01*
X430255658Y-102154160D01*
X430276057Y-102110497D01*
X430294012Y-102066690D01*
X430303611Y-102040338D01*
X430318036Y-101995735D01*
X430330015Y-101950464D01*
X430339550Y-101904526D01*
X430346640Y-101857919D01*
X430351285Y-101810645D01*
X430353485Y-101762703D01*
X430353681Y-101743339D01*
X430352135Y-101693024D01*
X430347499Y-101645027D01*
X430339771Y-101599349D01*
X430328951Y-101555989D01*
X430315041Y-101514948D01*
X430298039Y-101476225D01*
X430277947Y-101439820D01*
X430246348Y-101394887D01*
X430209253Y-101354076D01*
X430177826Y-101326172D01*
X430131611Y-101292741D01*
X430080892Y-101263768D01*
X430025670Y-101239252D01*
X429965945Y-101219193D01*
X429918196Y-101207075D01*
X429867914Y-101197464D01*
X429815099Y-101190359D01*
X429759751Y-101185763D01*
X429701870Y-101183673D01*
X429682013Y-101183534D01*
X429629706Y-101184702D01*
X429579030Y-101188205D01*
X429529986Y-101194044D01*
X429474830Y-101203808D01*
X429421894Y-101216751D01*
X429371772Y-101232072D01*
X429323987Y-101249823D01*
X429278540Y-101270006D01*
X429235430Y-101292619D01*
X429211846Y-101306632D01*
X429172467Y-101332786D01*
X429135544Y-101360809D01*
X429101074Y-101390702D01*
X429069059Y-101422465D01*
X429051867Y-101441454D01*
X429024176Y-101475922D01*
X428999874Y-101511793D01*
X428978962Y-101549065D01*
X428961439Y-101587741D01*
X428952948Y-101610471D01*
X428932382Y-101652989D01*
X428909609Y-101690784D01*
X428879370Y-101729905D01*
X428845954Y-101762225D01*
X428802952Y-101791337D01*
X428783199Y-101800980D01*
X428731917Y-101817656D01*
X428681170Y-101826518D01*
X428624154Y-101830364D01*
X428571853Y-101829740D01*
X428515199Y-101825632D01*
X428479117Y-101821496D01*
X427964986Y-101748224D01*
X427976388Y-101693180D01*
X427989529Y-101639425D01*
X428004409Y-101586957D01*
X428021028Y-101535778D01*
X428039386Y-101485887D01*
X428059482Y-101437283D01*
X428081317Y-101389968D01*
X428104891Y-101343941D01*
X428130204Y-101299201D01*
X428157256Y-101255750D01*
X428176256Y-101227498D01*
X428206012Y-101186210D01*
X428237121Y-101146245D01*
X428269582Y-101107602D01*
X428303396Y-101070282D01*
X428338562Y-101034284D01*
X428375080Y-100999608D01*
X428412951Y-100966254D01*
X428452174Y-100934223D01*
X428492750Y-100903514D01*
X428534678Y-100874128D01*
X428563381Y-100855272D01*
X428607466Y-100828081D01*
X428652711Y-100802195D01*
X428699115Y-100777614D01*
X428746677Y-100754338D01*
X428795400Y-100732368D01*
X428845281Y-100711703D01*
X428896322Y-100692343D01*
X428948521Y-100674288D01*
X429001880Y-100657538D01*
X429056398Y-100642093D01*
X429093388Y-100632522D01*
X429149895Y-100619253D01*
X429207218Y-100607289D01*
X429265357Y-100596630D01*
X429324312Y-100587276D01*
X429384082Y-100579228D01*
X429444668Y-100572484D01*
X429506070Y-100567046D01*
X429568288Y-100562913D01*
X429631321Y-100560085D01*
X429695170Y-100558562D01*
X429738189Y-100558272D01*
X429805397Y-100559037D01*
X429871468Y-100561329D01*
X429936401Y-100565150D01*
X430000197Y-100570500D01*
X430062854Y-100577378D01*
X430124374Y-100585784D01*
X430184756Y-100595719D01*
X430244001Y-100607182D01*
X430302107Y-100620174D01*
X430359076Y-100634694D01*
X430396423Y-100645223D01*
X430451532Y-100661952D01*
X430505116Y-100679901D01*
X430557176Y-100699070D01*
X430607713Y-100719457D01*
X430656725Y-100741064D01*
X430704212Y-100763890D01*
X430750176Y-100787936D01*
X430794616Y-100813201D01*
X430837531Y-100839685D01*
X430878922Y-100867388D01*
X430905670Y-100886535D01*
X430944446Y-100916044D01*
X430981547Y-100946687D01*
X431016974Y-100978464D01*
X431050727Y-101011373D01*
X431082805Y-101045417D01*
X431113209Y-101080593D01*
X431141939Y-101116903D01*
X431168994Y-101154347D01*
X431194375Y-101192924D01*
X431218081Y-101232634D01*
X431232955Y-101259738D01*
X431253688Y-101300991D01*
X431272382Y-101343051D01*
X431289037Y-101385919D01*
X431303652Y-101429593D01*
X431316228Y-101474075D01*
X431326764Y-101519364D01*
X431335262Y-101565460D01*
X431341720Y-101612363D01*
X431346138Y-101660074D01*
X431348517Y-101708591D01*
X431348971Y-101741385D01*
X431348251Y-101783766D01*
X431346094Y-101825545D01*
X431342498Y-101866724D01*
X431337464Y-101907302D01*
X431330992Y-101947279D01*
X431323082Y-101986654D01*
X431313733Y-102025429D01*
X431302946Y-102063602D01*
X431286326Y-102113565D01*
X431267149Y-102162459D01*
X431246083Y-102210300D01*
X431223185Y-102257592D01*
X431198456Y-102304334D01*
X431171894Y-102350526D01*
X431143501Y-102396169D01*
X431113276Y-102441263D01*
X431081219Y-102485806D01*
X431047331Y-102529801D01*
X431012125Y-102573138D01*
X430975508Y-102616202D01*
X430947118Y-102648319D01*
X430917934Y-102680281D01*
X430887956Y-102712089D01*
X430857184Y-102743742D01*
X430825617Y-102775241D01*
X430793256Y-102806585D01*
X430760101Y-102837775D01*
X430726151Y-102868810D01*
X430691622Y-102899610D01*
X430656728Y-102930462D01*
X430621469Y-102961365D01*
X430585845Y-102992320D01*
X430549856Y-103023327D01*
X430513503Y-103054385D01*
X430476784Y-103085494D01*
X430439700Y-103116655D01*
X430402252Y-103147868D01*
X430364438Y-103179132D01*
X430339026Y-103200003D01*
X429255809Y-104093932D01*
X429311819Y-104080365D01*
X429367651Y-104067752D01*
X429423303Y-104056093D01*
X429478776Y-104045389D01*
X429534071Y-104035638D01*
X429589187Y-104026841D01*
X429611183Y-104023590D01*
X429665630Y-104015991D01*
X429719065Y-104009679D01*
X429771485Y-104004656D01*
X429822892Y-104000921D01*
X429873285Y-103998474D01*
X429922664Y-103997315D01*
X429942132Y-103997212D01*
X431088852Y-103997212D01*
G37*
G36*
X433301692Y-104685000D02*
G01*
X432239236Y-104685000D01*
X432239236Y-100620799D01*
X433301692Y-100620799D01*
X433301692Y-104685000D01*
G37*
G36*
X436750139Y-100558898D02*
G01*
X436822319Y-100560776D01*
X436893670Y-100563905D01*
X436964190Y-100568286D01*
X437033880Y-100573919D01*
X437102740Y-100580804D01*
X437170771Y-100588940D01*
X437237971Y-100598328D01*
X437304341Y-100608968D01*
X437369881Y-100620860D01*
X437434591Y-100634003D01*
X437498471Y-100648398D01*
X437561521Y-100664045D01*
X437623741Y-100680943D01*
X437685131Y-100699094D01*
X437745691Y-100718496D01*
X437805440Y-100738878D01*
X437864091Y-100760215D01*
X437921646Y-100782506D01*
X437978103Y-100805751D01*
X438033463Y-100829951D01*
X438087726Y-100855104D01*
X438140892Y-100881211D01*
X438192960Y-100908272D01*
X438243932Y-100936288D01*
X438293806Y-100965257D01*
X438342583Y-100995181D01*
X438390263Y-101026058D01*
X438436845Y-101057890D01*
X438482331Y-101090676D01*
X438526719Y-101124416D01*
X438570010Y-101159110D01*
X438612300Y-101194559D01*
X438653377Y-101230810D01*
X438693243Y-101267863D01*
X438731898Y-101305717D01*
X438769340Y-101344372D01*
X438805571Y-101383828D01*
X438840590Y-101424087D01*
X438874398Y-101465146D01*
X438906994Y-101507007D01*
X438938378Y-101549669D01*
X438968551Y-101593133D01*
X438997512Y-101637398D01*
X439025261Y-101682465D01*
X439051798Y-101728333D01*
X439077124Y-101775002D01*
X439101239Y-101822473D01*
X439124160Y-101870593D01*
X439145603Y-101919209D01*
X439165567Y-101968321D01*
X439184052Y-102017929D01*
X439201058Y-102068033D01*
X439216586Y-102118633D01*
X439230635Y-102169729D01*
X439243205Y-102221322D01*
X439254296Y-102273411D01*
X439263908Y-102325995D01*
X439272042Y-102379076D01*
X439278696Y-102432653D01*
X439283872Y-102486726D01*
X439287569Y-102541295D01*
X439289787Y-102596361D01*
X439290527Y-102651922D01*
X439289787Y-102707728D01*
X439287569Y-102763037D01*
X439283872Y-102817851D01*
X439278696Y-102872168D01*
X439272042Y-102925989D01*
X439263908Y-102979314D01*
X439254296Y-103032143D01*
X439243205Y-103084476D01*
X439230635Y-103136313D01*
X439216586Y-103187653D01*
X439201058Y-103238498D01*
X439184052Y-103288846D01*
X439165567Y-103338699D01*
X439145603Y-103388055D01*
X439124160Y-103436915D01*
X439101239Y-103485279D01*
X439077124Y-103532864D01*
X439051798Y-103579633D01*
X439025261Y-103625585D01*
X438997512Y-103670720D01*
X438968551Y-103715039D01*
X438938378Y-103758541D01*
X438906994Y-103801226D01*
X438874398Y-103843094D01*
X438840590Y-103884146D01*
X438805571Y-103924381D01*
X438769340Y-103963800D01*
X438731898Y-104002402D01*
X438693243Y-104040187D01*
X438653377Y-104077155D01*
X438612300Y-104113307D01*
X438570010Y-104148642D01*
X438526719Y-104183103D01*
X438482331Y-104216633D01*
X438436845Y-104249232D01*
X438390263Y-104280900D01*
X438342583Y-104311636D01*
X438293806Y-104341441D01*
X438243932Y-104370315D01*
X438192960Y-104398258D01*
X438140892Y-104425270D01*
X438087726Y-104451351D01*
X438033463Y-104476500D01*
X437978103Y-104500718D01*
X437921646Y-104524005D01*
X437864091Y-104546361D01*
X437805440Y-104567786D01*
X437745691Y-104588279D01*
X437685131Y-104607563D01*
X437623741Y-104625603D01*
X437561521Y-104642398D01*
X437498471Y-104657950D01*
X437434591Y-104672257D01*
X437369881Y-104685320D01*
X437304341Y-104697139D01*
X437237971Y-104707714D01*
X437170771Y-104717045D01*
X437102740Y-104725132D01*
X437033880Y-104731974D01*
X436964190Y-104737573D01*
X436893670Y-104741927D01*
X436822319Y-104745037D01*
X436750139Y-104746904D01*
X436677128Y-104747526D01*
X436604113Y-104746904D01*
X436531918Y-104745037D01*
X436460544Y-104741927D01*
X436389990Y-104737573D01*
X436320257Y-104731974D01*
X436251344Y-104725132D01*
X436183252Y-104717045D01*
X436115980Y-104707714D01*
X436049529Y-104697139D01*
X435983898Y-104685320D01*
X435919088Y-104672257D01*
X435855098Y-104657950D01*
X435791929Y-104642398D01*
X435729580Y-104625603D01*
X435668052Y-104607563D01*
X435607345Y-104588279D01*
X435547729Y-104567786D01*
X435489173Y-104546361D01*
X435431676Y-104524005D01*
X435375238Y-104500718D01*
X435319858Y-104476500D01*
X435265538Y-104451351D01*
X435212277Y-104425270D01*
X435160075Y-104398258D01*
X435108932Y-104370315D01*
X435058848Y-104341441D01*
X435009823Y-104311636D01*
X434961857Y-104280900D01*
X434914949Y-104249232D01*
X434869101Y-104216633D01*
X434824312Y-104183103D01*
X434780583Y-104148642D01*
X434738145Y-104113307D01*
X434696929Y-104077155D01*
X434656935Y-104040187D01*
X434618161Y-104002402D01*
X434580609Y-103963800D01*
X434544278Y-103924381D01*
X434509168Y-103884146D01*
X434475279Y-103843094D01*
X434442611Y-103801226D01*
X434411165Y-103758541D01*
X434380940Y-103715039D01*
X434351936Y-103670720D01*
X434324154Y-103625585D01*
X434297592Y-103579633D01*
X434272252Y-103532864D01*
X434248133Y-103485279D01*
X434225359Y-103436915D01*
X434204055Y-103388055D01*
X434184220Y-103338699D01*
X434165854Y-103288846D01*
X434148957Y-103238498D01*
X434133530Y-103187653D01*
X434119572Y-103136313D01*
X434107083Y-103084476D01*
X434096063Y-103032143D01*
X434086513Y-102979314D01*
X434078432Y-102925989D01*
X434071820Y-102872168D01*
X434066678Y-102817851D01*
X434063005Y-102763037D01*
X434060801Y-102707728D01*
X434060079Y-102652899D01*
X435139620Y-102652899D01*
X435140030Y-102694023D01*
X435141261Y-102734598D01*
X435143312Y-102774624D01*
X435146184Y-102814099D01*
X435152030Y-102872283D01*
X435159722Y-102929229D01*
X435169260Y-102984940D01*
X435180645Y-103039413D01*
X435193875Y-103092651D01*
X435208952Y-103144651D01*
X435225875Y-103195416D01*
X435244644Y-103244944D01*
X435265370Y-103292983D01*
X435287706Y-103339649D01*
X435311652Y-103384941D01*
X435337208Y-103428859D01*
X435364374Y-103471403D01*
X435393150Y-103512573D01*
X435423536Y-103552369D01*
X435455532Y-103590792D01*
X435489138Y-103627840D01*
X435524354Y-103663515D01*
X435548726Y-103686535D01*
X435586801Y-103719685D01*
X435626378Y-103751358D01*
X435667458Y-103781555D01*
X435710041Y-103810274D01*
X435754126Y-103837517D01*
X435799714Y-103863283D01*
X435846805Y-103887571D01*
X435895398Y-103910383D01*
X435945495Y-103931718D01*
X435997093Y-103951576D01*
X436032327Y-103963995D01*
X436086552Y-103981105D01*
X436142065Y-103996532D01*
X436198865Y-104010277D01*
X436256954Y-104022338D01*
X436316331Y-104032717D01*
X436376996Y-104041412D01*
X436438949Y-104048424D01*
X436502189Y-104053754D01*
X436566718Y-104057400D01*
X436632535Y-104059364D01*
X436677128Y-104059738D01*
X436743564Y-104058896D01*
X436808690Y-104056372D01*
X436872507Y-104052164D01*
X436935014Y-104046274D01*
X436996212Y-104038700D01*
X437056101Y-104029444D01*
X437114680Y-104018505D01*
X437171949Y-104005882D01*
X437227909Y-103991577D01*
X437282560Y-103975589D01*
X437318266Y-103963995D01*
X437370648Y-103945121D01*
X437421549Y-103924771D01*
X437470969Y-103902943D01*
X437518907Y-103879639D01*
X437565365Y-103854858D01*
X437610341Y-103828600D01*
X437653836Y-103800865D01*
X437695850Y-103771653D01*
X437736383Y-103740965D01*
X437775434Y-103708799D01*
X437800645Y-103686535D01*
X437837142Y-103651776D01*
X437871986Y-103615643D01*
X437905177Y-103578137D01*
X437936715Y-103539256D01*
X437966600Y-103499002D01*
X437994833Y-103457374D01*
X438021412Y-103414372D01*
X438046338Y-103369996D01*
X438069612Y-103324246D01*
X438091232Y-103277123D01*
X438104728Y-103244944D01*
X438123497Y-103195416D01*
X438140420Y-103144651D01*
X438155496Y-103092651D01*
X438168727Y-103039413D01*
X438180111Y-102984940D01*
X438189650Y-102929229D01*
X438197342Y-102872283D01*
X438203188Y-102814099D01*
X438206060Y-102774624D01*
X438208111Y-102734598D01*
X438209342Y-102694023D01*
X438209752Y-102652899D01*
X438209342Y-102612133D01*
X438208111Y-102571902D01*
X438206060Y-102532205D01*
X438203188Y-102493042D01*
X438197342Y-102435300D01*
X438189650Y-102378759D01*
X438180111Y-102323421D01*
X438168727Y-102269285D01*
X438155496Y-102216351D01*
X438140420Y-102164619D01*
X438123497Y-102114090D01*
X438104728Y-102064762D01*
X438084209Y-102016540D01*
X438062038Y-101969691D01*
X438038213Y-101924216D01*
X438012736Y-101880115D01*
X437985606Y-101837387D01*
X437956822Y-101796034D01*
X437926386Y-101756055D01*
X437894297Y-101717449D01*
X437860555Y-101680217D01*
X437825160Y-101644359D01*
X437800645Y-101621217D01*
X437762581Y-101587726D01*
X437723036Y-101555764D01*
X437682010Y-101525330D01*
X437639502Y-101496424D01*
X437595514Y-101469047D01*
X437550044Y-101443199D01*
X437503092Y-101418878D01*
X437454660Y-101396086D01*
X437404747Y-101374823D01*
X437353352Y-101355088D01*
X437318266Y-101342780D01*
X437264488Y-101325495D01*
X437209401Y-101309911D01*
X437153005Y-101296026D01*
X437095299Y-101283842D01*
X437036283Y-101273357D01*
X436975958Y-101264573D01*
X436914324Y-101257489D01*
X436851380Y-101252105D01*
X436787127Y-101248422D01*
X436721564Y-101246438D01*
X436677128Y-101246060D01*
X436610453Y-101246910D01*
X436545065Y-101249461D01*
X436480966Y-101253711D01*
X436418154Y-101259661D01*
X436356631Y-101267312D01*
X436296396Y-101276663D01*
X436237448Y-101287714D01*
X436179789Y-101300465D01*
X436123417Y-101314917D01*
X436068334Y-101331068D01*
X436032327Y-101342780D01*
X435979727Y-101361496D01*
X435928629Y-101381741D01*
X435879034Y-101403514D01*
X435830941Y-101426815D01*
X435784351Y-101451645D01*
X435739264Y-101478003D01*
X435695680Y-101505890D01*
X435653598Y-101535305D01*
X435613019Y-101566248D01*
X435573942Y-101598720D01*
X435548726Y-101621217D01*
X435512437Y-101656159D01*
X435477758Y-101692475D01*
X435444688Y-101730165D01*
X435413229Y-101769228D01*
X435383379Y-101809666D01*
X435355140Y-101851477D01*
X435328511Y-101894662D01*
X435303491Y-101939221D01*
X435280082Y-101985154D01*
X435258282Y-102032461D01*
X435244644Y-102064762D01*
X435225875Y-102114090D01*
X435208952Y-102164619D01*
X435193875Y-102216351D01*
X435180645Y-102269285D01*
X435169260Y-102323421D01*
X435159722Y-102378759D01*
X435152030Y-102435300D01*
X435146184Y-102493042D01*
X435143312Y-102532205D01*
X435141261Y-102571902D01*
X435140030Y-102612133D01*
X435139620Y-102652899D01*
X434060079Y-102652899D01*
X434060066Y-102651922D01*
X434060801Y-102596006D01*
X434063005Y-102540608D01*
X434066678Y-102485730D01*
X434071820Y-102431371D01*
X434078432Y-102377530D01*
X434086513Y-102324209D01*
X434096063Y-102271407D01*
X434107083Y-102219124D01*
X434119572Y-102167359D01*
X434133530Y-102116114D01*
X434148957Y-102065388D01*
X434165854Y-102015181D01*
X434184220Y-101965493D01*
X434204055Y-101916324D01*
X434225359Y-101867674D01*
X434248133Y-101819542D01*
X434272252Y-101772075D01*
X434297592Y-101725417D01*
X434324154Y-101679568D01*
X434351936Y-101634528D01*
X434380940Y-101590298D01*
X434411165Y-101546876D01*
X434442611Y-101504263D01*
X434475279Y-101462459D01*
X434509168Y-101421465D01*
X434544278Y-101381279D01*
X434580609Y-101341903D01*
X434618161Y-101303335D01*
X434656935Y-101265577D01*
X434696929Y-101228627D01*
X434738145Y-101192487D01*
X434780583Y-101157156D01*
X434824312Y-101122698D01*
X434869101Y-101089180D01*
X434914949Y-101056600D01*
X434961857Y-101024959D01*
X435009823Y-100994257D01*
X435058848Y-100964494D01*
X435108932Y-100935670D01*
X435160075Y-100907784D01*
X435212277Y-100880837D01*
X435265538Y-100854829D01*
X435319858Y-100829760D01*
X435375238Y-100805629D01*
X435431676Y-100782438D01*
X435489173Y-100760185D01*
X435547729Y-100738871D01*
X435607345Y-100718496D01*
X435668052Y-100699094D01*
X435729580Y-100680943D01*
X435791929Y-100664045D01*
X435855098Y-100648398D01*
X435919088Y-100634003D01*
X435983898Y-100620860D01*
X436049529Y-100608968D01*
X436115980Y-100598328D01*
X436183252Y-100588940D01*
X436251344Y-100580804D01*
X436320257Y-100573919D01*
X436389990Y-100568286D01*
X436460544Y-100563905D01*
X436531918Y-100560776D01*
X436604113Y-100558898D01*
X436677128Y-100558272D01*
X436750139Y-100558898D01*
G37*
G36*
X444407414Y-100620799D02*
G01*
X444407414Y-104685000D01*
X443861532Y-104685000D01*
X443809439Y-104683457D01*
X443754485Y-104677916D01*
X443704415Y-104668344D01*
X443653925Y-104652759D01*
X443606817Y-104630915D01*
X443565429Y-104605269D01*
X443529590Y-104578021D01*
X443494102Y-104546285D01*
X443489061Y-104541385D01*
X440946493Y-101953387D01*
X440950534Y-101996036D01*
X440954107Y-102038498D01*
X440957212Y-102080773D01*
X440959850Y-102122862D01*
X440961148Y-102146828D01*
X440963527Y-102188061D01*
X440965322Y-102227985D01*
X440966658Y-102272010D01*
X440967230Y-102314325D01*
X440967254Y-102324637D01*
X440967254Y-104685000D01*
X440035467Y-104685000D01*
X440035467Y-100620799D01*
X440591120Y-100620799D01*
X440642267Y-100621605D01*
X440692767Y-100624538D01*
X440704693Y-100625683D01*
X440752884Y-100633144D01*
X440791399Y-100645223D01*
X440833817Y-100665110D01*
X440864672Y-100685279D01*
X440899484Y-100712742D01*
X440932258Y-100742447D01*
X440942830Y-100752690D01*
X443502495Y-103353387D01*
X443497672Y-103313362D01*
X443493278Y-103273886D01*
X443488695Y-103228526D01*
X443484696Y-103183913D01*
X443481734Y-103146270D01*
X443478879Y-103103140D01*
X443476725Y-103060945D01*
X443475273Y-103019685D01*
X443474521Y-102979360D01*
X443474407Y-102956737D01*
X443474407Y-100620799D01*
X444407414Y-100620799D01*
G37*
G36*
X450583095Y-103709982D02*
G01*
X450635306Y-103715039D01*
X450682032Y-103730208D01*
X450723272Y-103755491D01*
X450730862Y-103761762D01*
X451149738Y-104127149D01*
X451110383Y-104164678D01*
X451069863Y-104201063D01*
X451028180Y-104236302D01*
X450985332Y-104270397D01*
X450941321Y-104303347D01*
X450896145Y-104335152D01*
X450849806Y-104365812D01*
X450802303Y-104395327D01*
X450753635Y-104423698D01*
X450703804Y-104450923D01*
X450652809Y-104477004D01*
X450600650Y-104501939D01*
X450547327Y-104525730D01*
X450492839Y-104548376D01*
X450437188Y-104569877D01*
X450380373Y-104590233D01*
X450322442Y-104609280D01*
X450263137Y-104627099D01*
X450202458Y-104643688D01*
X450140405Y-104659049D01*
X450076978Y-104673180D01*
X450012177Y-104686083D01*
X449946003Y-104697757D01*
X449878454Y-104708203D01*
X449809532Y-104717419D01*
X449739236Y-104725406D01*
X449667566Y-104732165D01*
X449594522Y-104737695D01*
X449520104Y-104741996D01*
X449444312Y-104745068D01*
X449367147Y-104746911D01*
X449288608Y-104747526D01*
X449217462Y-104746915D01*
X449147214Y-104745083D01*
X449077862Y-104742030D01*
X449009408Y-104737756D01*
X448941850Y-104732260D01*
X448875188Y-104725544D01*
X448809424Y-104717606D01*
X448744557Y-104708447D01*
X448680586Y-104698066D01*
X448617512Y-104686465D01*
X448555335Y-104673642D01*
X448494055Y-104659598D01*
X448433672Y-104644333D01*
X448374185Y-104627847D01*
X448315596Y-104610139D01*
X448257903Y-104591210D01*
X448201345Y-104571072D01*
X448145856Y-104549979D01*
X448091436Y-104527932D01*
X448038084Y-104504931D01*
X447985801Y-104480977D01*
X447934586Y-104456068D01*
X447884440Y-104430205D01*
X447835363Y-104403387D01*
X447787354Y-104375616D01*
X447740413Y-104346891D01*
X447694541Y-104317212D01*
X447649738Y-104286578D01*
X447606003Y-104254991D01*
X447563337Y-104222449D01*
X447521740Y-104188954D01*
X447481211Y-104154504D01*
X447441793Y-104119169D01*
X447403530Y-104083017D01*
X447366421Y-104046049D01*
X447330467Y-104008264D01*
X447295667Y-103969662D01*
X447262022Y-103930243D01*
X447229531Y-103890008D01*
X447198194Y-103848956D01*
X447168012Y-103807088D01*
X447138984Y-103764402D01*
X447111111Y-103720900D01*
X447084392Y-103676582D01*
X447058828Y-103631447D01*
X447034418Y-103585495D01*
X447011162Y-103538726D01*
X446989061Y-103491140D01*
X446968210Y-103442754D01*
X446948704Y-103393825D01*
X446930543Y-103344354D01*
X446913728Y-103294342D01*
X446898257Y-103243787D01*
X446884132Y-103192691D01*
X446871352Y-103141053D01*
X446859918Y-103088872D01*
X446849829Y-103036150D01*
X446841084Y-102982886D01*
X446833686Y-102929080D01*
X446827632Y-102874733D01*
X446822924Y-102819843D01*
X446819561Y-102764411D01*
X446817543Y-102708438D01*
X446816870Y-102651922D01*
X446817589Y-102594852D01*
X446819747Y-102538315D01*
X446823342Y-102482310D01*
X446828376Y-102426837D01*
X446834848Y-102371897D01*
X446842759Y-102317489D01*
X446852108Y-102263613D01*
X446862895Y-102210270D01*
X446875120Y-102157459D01*
X446888783Y-102105181D01*
X446898691Y-102070624D01*
X446914917Y-102019353D01*
X446932451Y-101968855D01*
X446951295Y-101919130D01*
X446971449Y-101870177D01*
X446992912Y-101821997D01*
X447015685Y-101774590D01*
X447039767Y-101727956D01*
X447065158Y-101682095D01*
X447091859Y-101637006D01*
X447119870Y-101592690D01*
X447139271Y-101563576D01*
X447169607Y-101520565D01*
X447201080Y-101478362D01*
X447233692Y-101436966D01*
X447267441Y-101396376D01*
X447302328Y-101356594D01*
X447338352Y-101317620D01*
X447375515Y-101279452D01*
X447413815Y-101242091D01*
X447453253Y-101205538D01*
X447493828Y-101169792D01*
X447521511Y-101146409D01*
X447563918Y-101111911D01*
X447607334Y-101078391D01*
X447651760Y-101045851D01*
X447697194Y-101014289D01*
X447743637Y-100983706D01*
X447791089Y-100954102D01*
X447839550Y-100925477D01*
X447889020Y-100897831D01*
X447939499Y-100871164D01*
X447990986Y-100845475D01*
X448025872Y-100828893D01*
X448079206Y-100804713D01*
X448133420Y-100781632D01*
X448188514Y-100759651D01*
X448244489Y-100738768D01*
X448301343Y-100718984D01*
X448359078Y-100700300D01*
X448417692Y-100682714D01*
X448477187Y-100666228D01*
X448537562Y-100650840D01*
X448598817Y-100636552D01*
X448640143Y-100627637D01*
X448702811Y-100615241D01*
X448766252Y-100604064D01*
X448830466Y-100594106D01*
X448895453Y-100585368D01*
X448961213Y-100577849D01*
X449027745Y-100571549D01*
X449095050Y-100566469D01*
X449163128Y-100562608D01*
X449231979Y-100559966D01*
X449301602Y-100558543D01*
X449348447Y-100558272D01*
X449401073Y-100558607D01*
X449453162Y-100559612D01*
X449504714Y-100561286D01*
X449555729Y-100563630D01*
X449606208Y-100566644D01*
X449656150Y-100570328D01*
X449705556Y-100574681D01*
X449754425Y-100579705D01*
X449802757Y-100585398D01*
X449866365Y-100594030D01*
X449882118Y-100596374D01*
X449944476Y-100606373D01*
X450005766Y-100617318D01*
X450065987Y-100629210D01*
X450125139Y-100642048D01*
X450183223Y-100655832D01*
X450240239Y-100670563D01*
X450296186Y-100686240D01*
X450351064Y-100702864D01*
X450405179Y-100720404D01*
X450458226Y-100738829D01*
X450510204Y-100758139D01*
X450561113Y-100778335D01*
X450610954Y-100799416D01*
X450659726Y-100821383D01*
X450707430Y-100844235D01*
X450754065Y-100867972D01*
X450799593Y-100892427D01*
X450843977Y-100917431D01*
X450887215Y-100942985D01*
X450929309Y-100969089D01*
X450970258Y-100995742D01*
X451010062Y-101022944D01*
X451048721Y-101050696D01*
X451086235Y-101078998D01*
X450730862Y-101468810D01*
X450699807Y-101499611D01*
X450662207Y-101527046D01*
X450650262Y-101534267D01*
X450604526Y-101552611D01*
X450556381Y-101560828D01*
X450515928Y-101562599D01*
X450463025Y-101557829D01*
X450415004Y-101545378D01*
X450366596Y-101525199D01*
X450344958Y-101513750D01*
X450299773Y-101488593D01*
X450256229Y-101465379D01*
X450208945Y-101441042D01*
X450165439Y-101419289D01*
X450134909Y-101404330D01*
X450085965Y-101382027D01*
X450041768Y-101364071D01*
X449994469Y-101346688D01*
X449944071Y-101329877D01*
X449890571Y-101313639D01*
X449833970Y-101297973D01*
X449822278Y-101294909D01*
X449773678Y-101283460D01*
X449721910Y-101273538D01*
X449666974Y-101265142D01*
X449608871Y-101258272D01*
X449547600Y-101252930D01*
X449483162Y-101249113D01*
X449432755Y-101247253D01*
X449380566Y-101246251D01*
X449344784Y-101246060D01*
X449285253Y-101246893D01*
X449226645Y-101249392D01*
X449168961Y-101253556D01*
X449112199Y-101259387D01*
X449056361Y-101266883D01*
X449001446Y-101276045D01*
X448947454Y-101286873D01*
X448894384Y-101299366D01*
X448842238Y-101313526D01*
X448791015Y-101329351D01*
X448757379Y-101340826D01*
X448708117Y-101359342D01*
X448660164Y-101379352D01*
X448613521Y-101400856D01*
X448568187Y-101423854D01*
X448524162Y-101448346D01*
X448481447Y-101474332D01*
X448440041Y-101501812D01*
X448399945Y-101530786D01*
X448361159Y-101561255D01*
X448323681Y-101593217D01*
X448299424Y-101615355D01*
X448264226Y-101649608D01*
X448230530Y-101685320D01*
X448198338Y-101722491D01*
X448167647Y-101761123D01*
X448138460Y-101801214D01*
X448110775Y-101842765D01*
X448084593Y-101885775D01*
X448059913Y-101930245D01*
X448036737Y-101976176D01*
X448015062Y-102023565D01*
X448001448Y-102055969D01*
X447982679Y-102105515D01*
X447965756Y-102156330D01*
X447950679Y-102208417D01*
X447937449Y-102261775D01*
X447926064Y-102316403D01*
X447916526Y-102372302D01*
X447908834Y-102429472D01*
X447902987Y-102487913D01*
X447900116Y-102527580D01*
X447898064Y-102567811D01*
X447896834Y-102608607D01*
X447896423Y-102649968D01*
X447896867Y-102691692D01*
X447898198Y-102732843D01*
X447900416Y-102773421D01*
X447903522Y-102813428D01*
X447907515Y-102852861D01*
X447915167Y-102910939D01*
X447924817Y-102967728D01*
X447936462Y-103023229D01*
X447950104Y-103077443D01*
X447965743Y-103130368D01*
X447983378Y-103182005D01*
X448003009Y-103232355D01*
X448009996Y-103248852D01*
X448032261Y-103297406D01*
X448056007Y-103344518D01*
X448081233Y-103390188D01*
X448107942Y-103434415D01*
X448136131Y-103477200D01*
X448165801Y-103518541D01*
X448196953Y-103558441D01*
X448229586Y-103596898D01*
X448263700Y-103633912D01*
X448299295Y-103669484D01*
X448323848Y-103692397D01*
X448361751Y-103725521D01*
X448400814Y-103757117D01*
X448441035Y-103787185D01*
X448482415Y-103815724D01*
X448524955Y-103842735D01*
X448568654Y-103868217D01*
X448613512Y-103892171D01*
X448659530Y-103914596D01*
X448706706Y-103935494D01*
X448755042Y-103954862D01*
X448787910Y-103966926D01*
X448837931Y-103983512D01*
X448888617Y-103998467D01*
X448939969Y-104011791D01*
X448991986Y-104023483D01*
X449044669Y-104033544D01*
X449098017Y-104041973D01*
X449152031Y-104048771D01*
X449206710Y-104053937D01*
X449262055Y-104057472D01*
X449318065Y-104059375D01*
X449355774Y-104059738D01*
X449411039Y-104059404D01*
X449464634Y-104058402D01*
X449516560Y-104056732D01*
X449566816Y-104054395D01*
X449624919Y-104050708D01*
X449680617Y-104046060D01*
X449734799Y-104039878D01*
X449787436Y-104032322D01*
X449838526Y-104023391D01*
X449888071Y-104013087D01*
X449936071Y-104001410D01*
X449951727Y-103997212D01*
X449997966Y-103983370D01*
X450043261Y-103968223D01*
X450087611Y-103951771D01*
X450138159Y-103930927D01*
X450187421Y-103908307D01*
X450229138Y-103886795D01*
X450270941Y-103863290D01*
X450312830Y-103837794D01*
X450354804Y-103810305D01*
X450396864Y-103780824D01*
X450410904Y-103770554D01*
X450450593Y-103746618D01*
X450491504Y-103727568D01*
X450538641Y-103713846D01*
X450583095Y-103709982D01*
G37*
G36*
X453998569Y-100558898D02*
G01*
X454070749Y-100560776D01*
X454142099Y-100563905D01*
X454212620Y-100568286D01*
X454282310Y-100573919D01*
X454351170Y-100580804D01*
X454419201Y-100588940D01*
X454486401Y-100598328D01*
X454552771Y-100608968D01*
X454618311Y-100620860D01*
X454683021Y-100634003D01*
X454746901Y-100648398D01*
X454809951Y-100664045D01*
X454872171Y-100680943D01*
X454933561Y-100699094D01*
X454994121Y-100718496D01*
X455053869Y-100738878D01*
X455112521Y-100760215D01*
X455170076Y-100782506D01*
X455226533Y-100805751D01*
X455281893Y-100829951D01*
X455336156Y-100855104D01*
X455389322Y-100881211D01*
X455441390Y-100908272D01*
X455492362Y-100936288D01*
X455542236Y-100965257D01*
X455591013Y-100995181D01*
X455638693Y-101026058D01*
X455685275Y-101057890D01*
X455730761Y-101090676D01*
X455775149Y-101124416D01*
X455818440Y-101159110D01*
X455860729Y-101194559D01*
X455901807Y-101230810D01*
X455941673Y-101267863D01*
X455980327Y-101305717D01*
X456017770Y-101344372D01*
X456054001Y-101383828D01*
X456089020Y-101424087D01*
X456122828Y-101465146D01*
X456155424Y-101507007D01*
X456186808Y-101549669D01*
X456216981Y-101593133D01*
X456245941Y-101637398D01*
X456273691Y-101682465D01*
X456300228Y-101728333D01*
X456325554Y-101775002D01*
X456349668Y-101822473D01*
X456372590Y-101870593D01*
X456394033Y-101919209D01*
X456413997Y-101968321D01*
X456432482Y-102017929D01*
X456449488Y-102068033D01*
X456465016Y-102118633D01*
X456479065Y-102169729D01*
X456491635Y-102221322D01*
X456502726Y-102273411D01*
X456512338Y-102325995D01*
X456520471Y-102379076D01*
X456527126Y-102432653D01*
X456532302Y-102486726D01*
X456535999Y-102541295D01*
X456538217Y-102596361D01*
X456538957Y-102651922D01*
X456538217Y-102707728D01*
X456535999Y-102763037D01*
X456532302Y-102817851D01*
X456527126Y-102872168D01*
X456520471Y-102925989D01*
X456512338Y-102979314D01*
X456502726Y-103032143D01*
X456491635Y-103084476D01*
X456479065Y-103136313D01*
X456465016Y-103187653D01*
X456449488Y-103238498D01*
X456432482Y-103288846D01*
X456413997Y-103338699D01*
X456394033Y-103388055D01*
X456372590Y-103436915D01*
X456349668Y-103485279D01*
X456325554Y-103532864D01*
X456300228Y-103579633D01*
X456273691Y-103625585D01*
X456245941Y-103670720D01*
X456216981Y-103715039D01*
X456186808Y-103758541D01*
X456155424Y-103801226D01*
X456122828Y-103843094D01*
X456089020Y-103884146D01*
X456054001Y-103924381D01*
X456017770Y-103963800D01*
X455980327Y-104002402D01*
X455941673Y-104040187D01*
X455901807Y-104077155D01*
X455860729Y-104113307D01*
X455818440Y-104148642D01*
X455775149Y-104183103D01*
X455730761Y-104216633D01*
X455685275Y-104249232D01*
X455638693Y-104280900D01*
X455591013Y-104311636D01*
X455542236Y-104341441D01*
X455492362Y-104370315D01*
X455441390Y-104398258D01*
X455389322Y-104425270D01*
X455336156Y-104451351D01*
X455281893Y-104476500D01*
X455226533Y-104500718D01*
X455170076Y-104524005D01*
X455112521Y-104546361D01*
X455053869Y-104567786D01*
X454994121Y-104588279D01*
X454933561Y-104607563D01*
X454872171Y-104625603D01*
X454809951Y-104642398D01*
X454746901Y-104657950D01*
X454683021Y-104672257D01*
X454618311Y-104685320D01*
X454552771Y-104697139D01*
X454486401Y-104707714D01*
X454419201Y-104717045D01*
X454351170Y-104725132D01*
X454282310Y-104731974D01*
X454212620Y-104737573D01*
X454142099Y-104741927D01*
X454070749Y-104745037D01*
X453998569Y-104746904D01*
X453925558Y-104747526D01*
X453852543Y-104746904D01*
X453780348Y-104745037D01*
X453708974Y-104741927D01*
X453638420Y-104737573D01*
X453568687Y-104731974D01*
X453499774Y-104725132D01*
X453431682Y-104717045D01*
X453364410Y-104707714D01*
X453297959Y-104697139D01*
X453232328Y-104685320D01*
X453167518Y-104672257D01*
X453103528Y-104657950D01*
X453040359Y-104642398D01*
X452978010Y-104625603D01*
X452916482Y-104607563D01*
X452855774Y-104588279D01*
X452796159Y-104567786D01*
X452737603Y-104546361D01*
X452680106Y-104524005D01*
X452623667Y-104500718D01*
X452568288Y-104476500D01*
X452513968Y-104451351D01*
X452460707Y-104425270D01*
X452408505Y-104398258D01*
X452357362Y-104370315D01*
X452307278Y-104341441D01*
X452258252Y-104311636D01*
X452210286Y-104280900D01*
X452163379Y-104249232D01*
X452117531Y-104216633D01*
X452072742Y-104183103D01*
X452029012Y-104148642D01*
X451986575Y-104113307D01*
X451945359Y-104077155D01*
X451905364Y-104040187D01*
X451866591Y-104002402D01*
X451829039Y-103963800D01*
X451792707Y-103924381D01*
X451757598Y-103884146D01*
X451723709Y-103843094D01*
X451691041Y-103801226D01*
X451659595Y-103758541D01*
X451629370Y-103715039D01*
X451600366Y-103670720D01*
X451572584Y-103625585D01*
X451546022Y-103579633D01*
X451520682Y-103532864D01*
X451496563Y-103485279D01*
X451473789Y-103436915D01*
X451452485Y-103388055D01*
X451432650Y-103338699D01*
X451414284Y-103288846D01*
X451397387Y-103238498D01*
X451381960Y-103187653D01*
X451368002Y-103136313D01*
X451355513Y-103084476D01*
X451344493Y-103032143D01*
X451334943Y-102979314D01*
X451326862Y-102925989D01*
X451320250Y-102872168D01*
X451315108Y-102817851D01*
X451311435Y-102763037D01*
X451309231Y-102707728D01*
X451308509Y-102652899D01*
X452388049Y-102652899D01*
X452388460Y-102694023D01*
X452389690Y-102734598D01*
X452391742Y-102774624D01*
X452394613Y-102814099D01*
X452400459Y-102872283D01*
X452408152Y-102929229D01*
X452417690Y-102984940D01*
X452429075Y-103039413D01*
X452442305Y-103092651D01*
X452457382Y-103144651D01*
X452474305Y-103195416D01*
X452493074Y-103244944D01*
X452513800Y-103292983D01*
X452536136Y-103339649D01*
X452560082Y-103384941D01*
X452585638Y-103428859D01*
X452612804Y-103471403D01*
X452641580Y-103512573D01*
X452671966Y-103552369D01*
X452703962Y-103590792D01*
X452737568Y-103627840D01*
X452772784Y-103663515D01*
X452797156Y-103686535D01*
X452835231Y-103719685D01*
X452874808Y-103751358D01*
X452915888Y-103781555D01*
X452958471Y-103810274D01*
X453002556Y-103837517D01*
X453048144Y-103863283D01*
X453095235Y-103887571D01*
X453143828Y-103910383D01*
X453193924Y-103931718D01*
X453245523Y-103951576D01*
X453280757Y-103963995D01*
X453334982Y-103981105D01*
X453390495Y-103996532D01*
X453447295Y-104010277D01*
X453505384Y-104022338D01*
X453564761Y-104032717D01*
X453625426Y-104041412D01*
X453687378Y-104048424D01*
X453750619Y-104053754D01*
X453815148Y-104057400D01*
X453880965Y-104059364D01*
X453925558Y-104059738D01*
X453991994Y-104058896D01*
X454057120Y-104056372D01*
X454120937Y-104052164D01*
X454183444Y-104046274D01*
X454244642Y-104038700D01*
X454304530Y-104029444D01*
X454363109Y-104018505D01*
X454420379Y-104005882D01*
X454476339Y-103991577D01*
X454530989Y-103975589D01*
X454566696Y-103963995D01*
X454619078Y-103945121D01*
X454669979Y-103924771D01*
X454719399Y-103902943D01*
X454767337Y-103879639D01*
X454813795Y-103854858D01*
X454858771Y-103828600D01*
X454902266Y-103800865D01*
X454944280Y-103771653D01*
X454984812Y-103740965D01*
X455023864Y-103708799D01*
X455049075Y-103686535D01*
X455085572Y-103651776D01*
X455120416Y-103615643D01*
X455153607Y-103578137D01*
X455185145Y-103539256D01*
X455215030Y-103499002D01*
X455243263Y-103457374D01*
X455269842Y-103414372D01*
X455294768Y-103369996D01*
X455318042Y-103324246D01*
X455339662Y-103277123D01*
X455353158Y-103244944D01*
X455371927Y-103195416D01*
X455388849Y-103144651D01*
X455403926Y-103092651D01*
X455417157Y-103039413D01*
X455428541Y-102984940D01*
X455438080Y-102929229D01*
X455445772Y-102872283D01*
X455451618Y-102814099D01*
X455454490Y-102774624D01*
X455456541Y-102734598D01*
X455457772Y-102694023D01*
X455458182Y-102652899D01*
X455457772Y-102612133D01*
X455456541Y-102571902D01*
X455454490Y-102532205D01*
X455451618Y-102493042D01*
X455445772Y-102435300D01*
X455438080Y-102378759D01*
X455428541Y-102323421D01*
X455417157Y-102269285D01*
X455403926Y-102216351D01*
X455388849Y-102164619D01*
X455371927Y-102114090D01*
X455353158Y-102064762D01*
X455332639Y-102016540D01*
X455310468Y-101969691D01*
X455286643Y-101924216D01*
X455261166Y-101880115D01*
X455234035Y-101837387D01*
X455205252Y-101796034D01*
X455174816Y-101756055D01*
X455142727Y-101717449D01*
X455108985Y-101680217D01*
X455073590Y-101644359D01*
X455049075Y-101621217D01*
X455011011Y-101587726D01*
X454971466Y-101555764D01*
X454930440Y-101525330D01*
X454887932Y-101496424D01*
X454843943Y-101469047D01*
X454798473Y-101443199D01*
X454751522Y-101418878D01*
X454703090Y-101396086D01*
X454653176Y-101374823D01*
X454601782Y-101355088D01*
X454566696Y-101342780D01*
X454512918Y-101325495D01*
X454457831Y-101309911D01*
X454401435Y-101296026D01*
X454343729Y-101283842D01*
X454284713Y-101273357D01*
X454224388Y-101264573D01*
X454162754Y-101257489D01*
X454099810Y-101252105D01*
X454035557Y-101248422D01*
X453969994Y-101246438D01*
X453925558Y-101246060D01*
X453858883Y-101246910D01*
X453793495Y-101249461D01*
X453729396Y-101253711D01*
X453666584Y-101259661D01*
X453605061Y-101267312D01*
X453544825Y-101276663D01*
X453485878Y-101287714D01*
X453428219Y-101300465D01*
X453371847Y-101314917D01*
X453316764Y-101331068D01*
X453280757Y-101342780D01*
X453228157Y-101361496D01*
X453177059Y-101381741D01*
X453127464Y-101403514D01*
X453079371Y-101426815D01*
X453032781Y-101451645D01*
X452987694Y-101478003D01*
X452944110Y-101505890D01*
X452902028Y-101535305D01*
X452861449Y-101566248D01*
X452822372Y-101598720D01*
X452797156Y-101621217D01*
X452760867Y-101656159D01*
X452726187Y-101692475D01*
X452693118Y-101730165D01*
X452661659Y-101769228D01*
X452631809Y-101809666D01*
X452603570Y-101851477D01*
X452576940Y-101894662D01*
X452551921Y-101939221D01*
X452528512Y-101985154D01*
X452506712Y-102032461D01*
X452493074Y-102064762D01*
X452474305Y-102114090D01*
X452457382Y-102164619D01*
X452442305Y-102216351D01*
X452429075Y-102269285D01*
X452417690Y-102323421D01*
X452408152Y-102378759D01*
X452400459Y-102435300D01*
X452394613Y-102493042D01*
X452391742Y-102532205D01*
X452389690Y-102571902D01*
X452388460Y-102612133D01*
X452388049Y-102652899D01*
X451308509Y-102652899D01*
X451308496Y-102651922D01*
X451309231Y-102596006D01*
X451311435Y-102540608D01*
X451315108Y-102485730D01*
X451320250Y-102431371D01*
X451326862Y-102377530D01*
X451334943Y-102324209D01*
X451344493Y-102271407D01*
X451355513Y-102219124D01*
X451368002Y-102167359D01*
X451381960Y-102116114D01*
X451397387Y-102065388D01*
X451414284Y-102015181D01*
X451432650Y-101965493D01*
X451452485Y-101916324D01*
X451473789Y-101867674D01*
X451496563Y-101819542D01*
X451520682Y-101772075D01*
X451546022Y-101725417D01*
X451572584Y-101679568D01*
X451600366Y-101634528D01*
X451629370Y-101590298D01*
X451659595Y-101546876D01*
X451691041Y-101504263D01*
X451723709Y-101462459D01*
X451757598Y-101421465D01*
X451792707Y-101381279D01*
X451829039Y-101341903D01*
X451866591Y-101303335D01*
X451905364Y-101265577D01*
X451945359Y-101228627D01*
X451986575Y-101192487D01*
X452029012Y-101157156D01*
X452072742Y-101122698D01*
X452117531Y-101089180D01*
X452163379Y-101056600D01*
X452210286Y-101024959D01*
X452258252Y-100994257D01*
X452307278Y-100964494D01*
X452357362Y-100935670D01*
X452408505Y-100907784D01*
X452460707Y-100880837D01*
X452513968Y-100854829D01*
X452568288Y-100829760D01*
X452623667Y-100805629D01*
X452680106Y-100782438D01*
X452737603Y-100760185D01*
X452796159Y-100738871D01*
X452855774Y-100718496D01*
X452916482Y-100699094D01*
X452978010Y-100680943D01*
X453040359Y-100664045D01*
X453103528Y-100648398D01*
X453167518Y-100634003D01*
X453232328Y-100620860D01*
X453297959Y-100608968D01*
X453364410Y-100598328D01*
X453431682Y-100588940D01*
X453499774Y-100580804D01*
X453568687Y-100573919D01*
X453638420Y-100568286D01*
X453708974Y-100563905D01*
X453780348Y-100560776D01*
X453852543Y-100558898D01*
X453925558Y-100558272D01*
X453998569Y-100558898D01*
G37*
G36*
X461655844Y-100620799D02*
G01*
X461655844Y-104685000D01*
X461109961Y-104685000D01*
X461057869Y-104683457D01*
X461002914Y-104677916D01*
X460952845Y-104668344D01*
X460902355Y-104652759D01*
X460855246Y-104630915D01*
X460813859Y-104605269D01*
X460778020Y-104578021D01*
X460742532Y-104546285D01*
X460737491Y-104541385D01*
X458194923Y-101953387D01*
X458198964Y-101996036D01*
X458202537Y-102038498D01*
X458205642Y-102080773D01*
X458208280Y-102122862D01*
X458209578Y-102146828D01*
X458211957Y-102188061D01*
X458213752Y-102227985D01*
X458215087Y-102272010D01*
X458215660Y-102314325D01*
X458215684Y-102324637D01*
X458215684Y-104685000D01*
X457283897Y-104685000D01*
X457283897Y-100620799D01*
X457839550Y-100620799D01*
X457890696Y-100621605D01*
X457941197Y-100624538D01*
X457953123Y-100625683D01*
X458001314Y-100633144D01*
X458039829Y-100645223D01*
X458082247Y-100665110D01*
X458113102Y-100685279D01*
X458147913Y-100712742D01*
X458180688Y-100742447D01*
X458191259Y-100752690D01*
X460750924Y-103353387D01*
X460746102Y-103313362D01*
X460741708Y-103273886D01*
X460737125Y-103228526D01*
X460733126Y-103183913D01*
X460730164Y-103146270D01*
X460727309Y-103103140D01*
X460725155Y-103060945D01*
X460723702Y-103019685D01*
X460722951Y-102979360D01*
X460722837Y-102956737D01*
X460722837Y-100620799D01*
X461655844Y-100620799D01*
G37*
G36*
X466308670Y-101308586D02*
G01*
X464816347Y-101308586D01*
X464816347Y-104685000D01*
X463758775Y-104685000D01*
X463758775Y-101308586D01*
X462266451Y-101308586D01*
X462266451Y-100620799D01*
X466308670Y-100620799D01*
X466308670Y-101308586D01*
G37*
G36*
X468591430Y-100621142D02*
G01*
X468656474Y-100622172D01*
X468720306Y-100623890D01*
X468782927Y-100626294D01*
X468844336Y-100629385D01*
X468904533Y-100633163D01*
X468963519Y-100637628D01*
X469021293Y-100642780D01*
X469077855Y-100648619D01*
X469133205Y-100655145D01*
X469187344Y-100662358D01*
X469240272Y-100670258D01*
X469291987Y-100678844D01*
X469342491Y-100688118D01*
X469391783Y-100698078D01*
X469439864Y-100708726D01*
X469486799Y-100719988D01*
X469555181Y-100737897D01*
X469621138Y-100757025D01*
X469684668Y-100777372D01*
X469745773Y-100798939D01*
X469804452Y-100821725D01*
X469860706Y-100845731D01*
X469914533Y-100870956D01*
X469965935Y-100897400D01*
X470014911Y-100925063D01*
X470061462Y-100953946D01*
X470105880Y-100983787D01*
X470148001Y-101014694D01*
X470187825Y-101046665D01*
X470225353Y-101079700D01*
X470260583Y-101113801D01*
X470293516Y-101148966D01*
X470324153Y-101185196D01*
X470352492Y-101222491D01*
X470378535Y-101260850D01*
X470402281Y-101300274D01*
X470416835Y-101327149D01*
X470437132Y-101368193D01*
X470455432Y-101409993D01*
X470471736Y-101452548D01*
X470486044Y-101495860D01*
X470498355Y-101539926D01*
X470508670Y-101584749D01*
X470516988Y-101630327D01*
X470523310Y-101676660D01*
X470527635Y-101723750D01*
X470529964Y-101771594D01*
X470530408Y-101803911D01*
X470529282Y-101854133D01*
X470525905Y-101903684D01*
X470520276Y-101952563D01*
X470512395Y-102000771D01*
X470502263Y-102048306D01*
X470489879Y-102095170D01*
X470475244Y-102141363D01*
X470458356Y-102186884D01*
X470439313Y-102231336D01*
X470418209Y-102274811D01*
X470395044Y-102317309D01*
X470369818Y-102358831D01*
X470342532Y-102399375D01*
X470313185Y-102438942D01*
X470281776Y-102477533D01*
X470248308Y-102515146D01*
X470213121Y-102551737D01*
X470175951Y-102587259D01*
X470136795Y-102621712D01*
X470095656Y-102655097D01*
X470052532Y-102687414D01*
X470007423Y-102718661D01*
X469960330Y-102748841D01*
X469911252Y-102777951D01*
X469860286Y-102805841D01*
X469807526Y-102832356D01*
X469752972Y-102857498D01*
X469696624Y-102881266D01*
X469638483Y-102903660D01*
X469593700Y-102919554D01*
X469547908Y-102934675D01*
X469501107Y-102949023D01*
X469453297Y-102962599D01*
X469497475Y-102983149D01*
X469540251Y-103005475D01*
X469581625Y-103029578D01*
X469621596Y-103055457D01*
X469643807Y-103071043D01*
X469681398Y-103099567D01*
X469717237Y-103130428D01*
X469751322Y-103163627D01*
X469783655Y-103199163D01*
X469801343Y-103220519D01*
X470990806Y-104685000D01*
X470037038Y-104685000D01*
X469972771Y-104682435D01*
X469913084Y-104674741D01*
X469857977Y-104661919D01*
X469807449Y-104643967D01*
X469761501Y-104620886D01*
X469720132Y-104592676D01*
X469683343Y-104559337D01*
X469651134Y-104520868D01*
X468680269Y-103263506D01*
X468649586Y-103228946D01*
X468617376Y-103199515D01*
X468579316Y-103172535D01*
X468548377Y-103156039D01*
X468502439Y-103139510D01*
X468452522Y-103129359D01*
X468401832Y-103123982D01*
X468344597Y-103121879D01*
X468335886Y-103121845D01*
X467976849Y-103121845D01*
X467976849Y-104685000D01*
X466921720Y-104685000D01*
X466921720Y-101246060D01*
X467976849Y-101246060D01*
X467976849Y-102559110D01*
X468517847Y-102559110D01*
X468581140Y-102558285D01*
X468642182Y-102555812D01*
X468700972Y-102551691D01*
X468757510Y-102545921D01*
X468811797Y-102538502D01*
X468863832Y-102529434D01*
X468913616Y-102518718D01*
X468961148Y-102506353D01*
X469017897Y-102488889D01*
X469071367Y-102469469D01*
X469121557Y-102448093D01*
X469168468Y-102424761D01*
X469212099Y-102399473D01*
X469252450Y-102372230D01*
X469267673Y-102360785D01*
X469303522Y-102330712D01*
X469336270Y-102299113D01*
X469365918Y-102265988D01*
X469392465Y-102231336D01*
X469415912Y-102195157D01*
X469436257Y-102157452D01*
X469443527Y-102141943D01*
X469459711Y-102101986D01*
X469473151Y-102060885D01*
X469483849Y-102018639D01*
X469491804Y-101975247D01*
X469497015Y-101930711D01*
X469499484Y-101885030D01*
X469499703Y-101866437D01*
X469497578Y-101812450D01*
X469491202Y-101760764D01*
X469480576Y-101711379D01*
X469465700Y-101664296D01*
X469446573Y-101619513D01*
X469423196Y-101577032D01*
X469395569Y-101536852D01*
X469363691Y-101498974D01*
X469327562Y-101463396D01*
X469287183Y-101430120D01*
X469257903Y-101409214D01*
X469210583Y-101380057D01*
X469158841Y-101353767D01*
X469102677Y-101330346D01*
X469042091Y-101309792D01*
X468977083Y-101292107D01*
X468907653Y-101277289D01*
X468858909Y-101269004D01*
X468808200Y-101261993D01*
X468755526Y-101256257D01*
X468700886Y-101251796D01*
X468644281Y-101248609D01*
X468585710Y-101246698D01*
X468525174Y-101246060D01*
X467976849Y-101246060D01*
X466921720Y-101246060D01*
X466921720Y-100620799D01*
X468525174Y-100620799D01*
X468591430Y-100621142D01*
G37*
G36*
X473777354Y-100558898D02*
G01*
X473849535Y-100560776D01*
X473920885Y-100563905D01*
X473991406Y-100568286D01*
X474061096Y-100573919D01*
X474129956Y-100580804D01*
X474197986Y-100588940D01*
X474265187Y-100598328D01*
X474331557Y-100608968D01*
X474397097Y-100620860D01*
X474461807Y-100634003D01*
X474525687Y-100648398D01*
X474588737Y-100664045D01*
X474650957Y-100680943D01*
X474712347Y-100699094D01*
X474772906Y-100718496D01*
X474832655Y-100738878D01*
X474891307Y-100760215D01*
X474948861Y-100782506D01*
X475005319Y-100805751D01*
X475060679Y-100829951D01*
X475114942Y-100855104D01*
X475168107Y-100881211D01*
X475220176Y-100908272D01*
X475271147Y-100936288D01*
X475321022Y-100965257D01*
X475369799Y-100995181D01*
X475417478Y-101026058D01*
X475464061Y-101057890D01*
X475509547Y-101090676D01*
X475553935Y-101124416D01*
X475597226Y-101159110D01*
X475639515Y-101194559D01*
X475680593Y-101230810D01*
X475720459Y-101267863D01*
X475759113Y-101305717D01*
X475796556Y-101344372D01*
X475832787Y-101383828D01*
X475867806Y-101424087D01*
X475901614Y-101465146D01*
X475934210Y-101507007D01*
X475965594Y-101549669D01*
X475995766Y-101593133D01*
X476024727Y-101637398D01*
X476052476Y-101682465D01*
X476079014Y-101728333D01*
X476104340Y-101775002D01*
X476128454Y-101822473D01*
X476151376Y-101870593D01*
X476172819Y-101919209D01*
X476192783Y-101968321D01*
X476211268Y-102017929D01*
X476228274Y-102068033D01*
X476243802Y-102118633D01*
X476257850Y-102169729D01*
X476270420Y-102221322D01*
X476281511Y-102273411D01*
X476291124Y-102325995D01*
X476299257Y-102379076D01*
X476305912Y-102432653D01*
X476311088Y-102486726D01*
X476314785Y-102541295D01*
X476317003Y-102596361D01*
X476317742Y-102651922D01*
X476317003Y-102707728D01*
X476314785Y-102763037D01*
X476311088Y-102817851D01*
X476305912Y-102872168D01*
X476299257Y-102925989D01*
X476291124Y-102979314D01*
X476281511Y-103032143D01*
X476270420Y-103084476D01*
X476257850Y-103136313D01*
X476243802Y-103187653D01*
X476228274Y-103238498D01*
X476211268Y-103288846D01*
X476192783Y-103338699D01*
X476172819Y-103388055D01*
X476151376Y-103436915D01*
X476128454Y-103485279D01*
X476104340Y-103532864D01*
X476079014Y-103579633D01*
X476052476Y-103625585D01*
X476024727Y-103670720D01*
X475995766Y-103715039D01*
X475965594Y-103758541D01*
X475934210Y-103801226D01*
X475901614Y-103843094D01*
X475867806Y-103884146D01*
X475832787Y-103924381D01*
X475796556Y-103963800D01*
X475759113Y-104002402D01*
X475720459Y-104040187D01*
X475680593Y-104077155D01*
X475639515Y-104113307D01*
X475597226Y-104148642D01*
X475553935Y-104183103D01*
X475509547Y-104216633D01*
X475464061Y-104249232D01*
X475417478Y-104280900D01*
X475369799Y-104311636D01*
X475321022Y-104341441D01*
X475271147Y-104370315D01*
X475220176Y-104398258D01*
X475168107Y-104425270D01*
X475114942Y-104451351D01*
X475060679Y-104476500D01*
X475005319Y-104500718D01*
X474948861Y-104524005D01*
X474891307Y-104546361D01*
X474832655Y-104567786D01*
X474772906Y-104588279D01*
X474712347Y-104607563D01*
X474650957Y-104625603D01*
X474588737Y-104642398D01*
X474525687Y-104657950D01*
X474461807Y-104672257D01*
X474397097Y-104685320D01*
X474331557Y-104697139D01*
X474265187Y-104707714D01*
X474197986Y-104717045D01*
X474129956Y-104725132D01*
X474061096Y-104731974D01*
X473991406Y-104737573D01*
X473920885Y-104741927D01*
X473849535Y-104745037D01*
X473777354Y-104746904D01*
X473704344Y-104747526D01*
X473631329Y-104746904D01*
X473559134Y-104745037D01*
X473487760Y-104741927D01*
X473417206Y-104737573D01*
X473347473Y-104731974D01*
X473278560Y-104725132D01*
X473210468Y-104717045D01*
X473143196Y-104707714D01*
X473076745Y-104697139D01*
X473011114Y-104685320D01*
X472946304Y-104672257D01*
X472882314Y-104657950D01*
X472819145Y-104642398D01*
X472756796Y-104625603D01*
X472695268Y-104607563D01*
X472634560Y-104588279D01*
X472574945Y-104567786D01*
X472516389Y-104546361D01*
X472458891Y-104524005D01*
X472402453Y-104500718D01*
X472347074Y-104476500D01*
X472292754Y-104451351D01*
X472239493Y-104425270D01*
X472187290Y-104398258D01*
X472136147Y-104370315D01*
X472086063Y-104341441D01*
X472037038Y-104311636D01*
X471989072Y-104280900D01*
X471942165Y-104249232D01*
X471896317Y-104216633D01*
X471851528Y-104183103D01*
X471807798Y-104148642D01*
X471765361Y-104113307D01*
X471724145Y-104077155D01*
X471684150Y-104040187D01*
X471645377Y-104002402D01*
X471607824Y-103963800D01*
X471571493Y-103924381D01*
X471536383Y-103884146D01*
X471502495Y-103843094D01*
X471469827Y-103801226D01*
X471438381Y-103758541D01*
X471408156Y-103715039D01*
X471379152Y-103670720D01*
X471351369Y-103625585D01*
X471324808Y-103579633D01*
X471299468Y-103532864D01*
X471275349Y-103485279D01*
X471252575Y-103436915D01*
X471231271Y-103388055D01*
X471211435Y-103338699D01*
X471193069Y-103288846D01*
X471176173Y-103238498D01*
X471160745Y-103187653D01*
X471146787Y-103136313D01*
X471134299Y-103084476D01*
X471123279Y-103032143D01*
X471113729Y-102979314D01*
X471105648Y-102925989D01*
X471099036Y-102872168D01*
X471093893Y-102817851D01*
X471090220Y-102763037D01*
X471088016Y-102707728D01*
X471087295Y-102652899D01*
X472166835Y-102652899D01*
X472167245Y-102694023D01*
X472168476Y-102734598D01*
X472170527Y-102774624D01*
X472173399Y-102814099D01*
X472179245Y-102872283D01*
X472186937Y-102929229D01*
X472196476Y-102984940D01*
X472207860Y-103039413D01*
X472221091Y-103092651D01*
X472236168Y-103144651D01*
X472253091Y-103195416D01*
X472271860Y-103244944D01*
X472292586Y-103292983D01*
X472314922Y-103339649D01*
X472338868Y-103384941D01*
X472364424Y-103428859D01*
X472391590Y-103471403D01*
X472420366Y-103512573D01*
X472450752Y-103552369D01*
X472482748Y-103590792D01*
X472516354Y-103627840D01*
X472551570Y-103663515D01*
X472575942Y-103686535D01*
X472614017Y-103719685D01*
X472653594Y-103751358D01*
X472694674Y-103781555D01*
X472737257Y-103810274D01*
X472781342Y-103837517D01*
X472826930Y-103863283D01*
X472874021Y-103887571D01*
X472922614Y-103910383D01*
X472972710Y-103931718D01*
X473024309Y-103951576D01*
X473059543Y-103963995D01*
X473113768Y-103981105D01*
X473169280Y-103996532D01*
X473226081Y-104010277D01*
X473284170Y-104022338D01*
X473343547Y-104032717D01*
X473404211Y-104041412D01*
X473466164Y-104048424D01*
X473529405Y-104053754D01*
X473593934Y-104057400D01*
X473659750Y-104059364D01*
X473704344Y-104059738D01*
X473770780Y-104058896D01*
X473835906Y-104056372D01*
X473899723Y-104052164D01*
X473962230Y-104046274D01*
X474023428Y-104038700D01*
X474083316Y-104029444D01*
X474141895Y-104018505D01*
X474199165Y-104005882D01*
X474255125Y-103991577D01*
X474309775Y-103975589D01*
X474345481Y-103963995D01*
X474397864Y-103945121D01*
X474448765Y-103924771D01*
X474498184Y-103902943D01*
X474546123Y-103879639D01*
X474592580Y-103854858D01*
X474637557Y-103828600D01*
X474681052Y-103800865D01*
X474723066Y-103771653D01*
X474763598Y-103740965D01*
X474802650Y-103708799D01*
X474827861Y-103686535D01*
X474864358Y-103651776D01*
X474899202Y-103615643D01*
X474932393Y-103578137D01*
X474963931Y-103539256D01*
X474993816Y-103499002D01*
X475022048Y-103457374D01*
X475048628Y-103414372D01*
X475073554Y-103369996D01*
X475096827Y-103324246D01*
X475118448Y-103277123D01*
X475131943Y-103244944D01*
X475150712Y-103195416D01*
X475167635Y-103144651D01*
X475182712Y-103092651D01*
X475195943Y-103039413D01*
X475207327Y-102984940D01*
X475216865Y-102929229D01*
X475224558Y-102872283D01*
X475230404Y-102814099D01*
X475233275Y-102774624D01*
X475235327Y-102734598D01*
X475236557Y-102694023D01*
X475236968Y-102652899D01*
X475236557Y-102612133D01*
X475235327Y-102571902D01*
X475233275Y-102532205D01*
X475230404Y-102493042D01*
X475224558Y-102435300D01*
X475216865Y-102378759D01*
X475207327Y-102323421D01*
X475195943Y-102269285D01*
X475182712Y-102216351D01*
X475167635Y-102164619D01*
X475150712Y-102114090D01*
X475131943Y-102064762D01*
X475111425Y-102016540D01*
X475089253Y-101969691D01*
X475065429Y-101924216D01*
X475039952Y-101880115D01*
X475012821Y-101837387D01*
X474984038Y-101796034D01*
X474953602Y-101756055D01*
X474921513Y-101717449D01*
X474887771Y-101680217D01*
X474852376Y-101644359D01*
X474827861Y-101621217D01*
X474789797Y-101587726D01*
X474750252Y-101555764D01*
X474709225Y-101525330D01*
X474666718Y-101496424D01*
X474622729Y-101469047D01*
X474577259Y-101443199D01*
X474530308Y-101418878D01*
X474481876Y-101396086D01*
X474431962Y-101374823D01*
X474380567Y-101355088D01*
X474345481Y-101342780D01*
X474291704Y-101325495D01*
X474236617Y-101309911D01*
X474180220Y-101296026D01*
X474122514Y-101283842D01*
X474063499Y-101273357D01*
X474003174Y-101264573D01*
X473941540Y-101257489D01*
X473878596Y-101252105D01*
X473814343Y-101248422D01*
X473748780Y-101246438D01*
X473704344Y-101246060D01*
X473637668Y-101246910D01*
X473572281Y-101249461D01*
X473508182Y-101253711D01*
X473445370Y-101259661D01*
X473383847Y-101267312D01*
X473323611Y-101276663D01*
X473264664Y-101287714D01*
X473207004Y-101300465D01*
X473150633Y-101314917D01*
X473095549Y-101331068D01*
X473059543Y-101342780D01*
X473006942Y-101361496D01*
X472955844Y-101381741D01*
X472906249Y-101403514D01*
X472858157Y-101426815D01*
X472811567Y-101451645D01*
X472766480Y-101478003D01*
X472722895Y-101505890D01*
X472680814Y-101535305D01*
X472640235Y-101566248D01*
X472601158Y-101598720D01*
X472575942Y-101621217D01*
X472539653Y-101656159D01*
X472504973Y-101692475D01*
X472471904Y-101730165D01*
X472440444Y-101769228D01*
X472410595Y-101809666D01*
X472382356Y-101851477D01*
X472355726Y-101894662D01*
X472330707Y-101939221D01*
X472307297Y-101985154D01*
X472285498Y-102032461D01*
X472271860Y-102064762D01*
X472253091Y-102114090D01*
X472236168Y-102164619D01*
X472221091Y-102216351D01*
X472207860Y-102269285D01*
X472196476Y-102323421D01*
X472186937Y-102378759D01*
X472179245Y-102435300D01*
X472173399Y-102493042D01*
X472170527Y-102532205D01*
X472168476Y-102571902D01*
X472167245Y-102612133D01*
X472166835Y-102652899D01*
X471087295Y-102652899D01*
X471087282Y-102651922D01*
X471088016Y-102596006D01*
X471090220Y-102540608D01*
X471093893Y-102485730D01*
X471099036Y-102431371D01*
X471105648Y-102377530D01*
X471113729Y-102324209D01*
X471123279Y-102271407D01*
X471134299Y-102219124D01*
X471146787Y-102167359D01*
X471160745Y-102116114D01*
X471176173Y-102065388D01*
X471193069Y-102015181D01*
X471211435Y-101965493D01*
X471231271Y-101916324D01*
X471252575Y-101867674D01*
X471275349Y-101819542D01*
X471299468Y-101772075D01*
X471324808Y-101725417D01*
X471351369Y-101679568D01*
X471379152Y-101634528D01*
X471408156Y-101590298D01*
X471438381Y-101546876D01*
X471469827Y-101504263D01*
X471502495Y-101462459D01*
X471536383Y-101421465D01*
X471571493Y-101381279D01*
X471607824Y-101341903D01*
X471645377Y-101303335D01*
X471684150Y-101265577D01*
X471724145Y-101228627D01*
X471765361Y-101192487D01*
X471807798Y-101157156D01*
X471851528Y-101122698D01*
X471896317Y-101089180D01*
X471942165Y-101056600D01*
X471989072Y-101024959D01*
X472037038Y-100994257D01*
X472086063Y-100964494D01*
X472136147Y-100935670D01*
X472187290Y-100907784D01*
X472239493Y-100880837D01*
X472292754Y-100854829D01*
X472347074Y-100829760D01*
X472402453Y-100805629D01*
X472458891Y-100782438D01*
X472516389Y-100760185D01*
X472574945Y-100738871D01*
X472634560Y-100718496D01*
X472695268Y-100699094D01*
X472756796Y-100680943D01*
X472819145Y-100664045D01*
X472882314Y-100648398D01*
X472946304Y-100634003D01*
X473011114Y-100620860D01*
X473076745Y-100608968D01*
X473143196Y-100598328D01*
X473210468Y-100588940D01*
X473278560Y-100580804D01*
X473347473Y-100573919D01*
X473417206Y-100568286D01*
X473487760Y-100563905D01*
X473559134Y-100560776D01*
X473631329Y-100558898D01*
X473704344Y-100558272D01*
X473777354Y-100558898D01*
G37*
G36*
X480090073Y-103997212D02*
G01*
X480090073Y-104685000D01*
X477062683Y-104685000D01*
X477062683Y-100620799D01*
X478117812Y-100620799D01*
X478117812Y-103997212D01*
X480090073Y-103997212D01*
G37*
%LPC*%
D12*
X446325000Y-181300000D03*
X446400000Y-164700000D03*
X482967000Y-144000000D03*
D13*
X410000000Y-181300000D03*
D12*
X427350000Y-127304800D03*
X465500000Y-85800000D03*
X446390000Y-85800000D03*
X482967000Y-106426000D03*
X482967000Y-181300000D03*
X446379600Y-106426000D03*
X446300000Y-144000000D03*
X427400000Y-85800000D03*
X410700000Y-164700000D03*
X427400000Y-106426000D03*
X410700000Y-144000000D03*
%LPD*%
M02*
