G04 #@! TF.GenerationSoftware,KiCad,Pcbnew,7.0.11+dfsg-1build4*
G04 #@! TF.CreationDate,2026-06-02T17:15:46-04:00*
G04 #@! TF.ProjectId,mission-control-plate-numpad,6d697373-696f-46e2-9d63-6f6e74726f6c,rev?*
G04 #@! TF.SameCoordinates,Original*
G04 #@! TF.FileFunction,Profile,NP*
%FSLAX46Y46*%
G04 Gerber Fmt 4.6, Leading zero omitted, Abs format (unit mm)*
G04 Created by KiCad (PCBNEW 7.0.11+dfsg-1build4) date 2026-06-02 17:15:46*
%MOMM*%
%LPD*%
G01*
G04 APERTURE LIST*
G04 #@! TA.AperFunction,Profile*
%ADD10C,0.150000*%
G04 #@! TD*
G04 #@! TA.AperFunction,Profile*
%ADD11C,0.120000*%
G04 #@! TD*
G04 #@! TA.AperFunction,Profile*
%ADD12C,0.200000*%
G04 #@! TD*
G04 APERTURE END LIST*
D10*
X410800000Y-82700000D02*
X482000000Y-82700000D01*
X482000000Y-184700000D02*
X410800000Y-184700000D01*
X410800000Y-82700000D02*
G75*
G03*
X407800000Y-85700000I0J-3000000D01*
G01*
X482000000Y-184700000D02*
G75*
G03*
X485000000Y-181700000I0J3000000D01*
G01*
X485000000Y-85700000D02*
X485000000Y-181700000D01*
X407800000Y-181700000D02*
X407800000Y-85700000D01*
X407800000Y-181700000D02*
G75*
G03*
X410800000Y-184700000I3000000J0D01*
G01*
X485000000Y-85700000D02*
G75*
G03*
X482000000Y-82700000I-3000000J0D01*
G01*
D11*
X429867000Y-126640139D02*
X443867000Y-126640139D01*
X429867000Y-140640139D02*
X429867000Y-126640139D01*
X443867000Y-126640139D02*
X443867000Y-140640139D01*
X443867000Y-140640139D02*
X429867000Y-140640139D01*
X410817000Y-147200160D02*
X424817000Y-147200160D01*
X410817000Y-161200160D02*
X410817000Y-147200160D01*
X424817000Y-147200160D02*
X424817000Y-161200160D01*
X424817000Y-161200160D02*
X410817000Y-161200160D01*
X448917000Y-126640139D02*
X462917000Y-126640139D01*
X448917000Y-140640139D02*
X448917000Y-126640139D01*
X462917000Y-126640139D02*
X462917000Y-140640139D01*
X462917000Y-140640139D02*
X448917000Y-140640139D01*
D12*
X467967000Y-108047132D02*
X467967000Y-114797132D01*
X467967000Y-108047132D02*
X480967000Y-108047132D01*
X467967000Y-116360132D02*
X481967000Y-116360132D01*
X467967000Y-130360132D02*
X467967000Y-116360132D01*
X467967000Y-131923132D02*
X467967000Y-138673132D01*
X467967000Y-131923132D02*
X480967000Y-131923132D01*
X467967000Y-138673132D02*
X480967000Y-138673132D01*
X480967000Y-108047132D02*
X480967000Y-114797132D01*
X480967000Y-114797132D02*
X467967000Y-114797132D01*
X480967000Y-131923132D02*
X480967000Y-138673132D01*
X481967000Y-116360132D02*
X481967000Y-130360132D01*
X481967000Y-130360132D02*
X467967000Y-130360132D01*
D11*
X410817000Y-106080118D02*
X424817000Y-106080118D01*
X410817000Y-120080118D02*
X410817000Y-106080118D01*
X424817000Y-106080118D02*
X424817000Y-120080118D01*
X424817000Y-120080118D02*
X410817000Y-120080118D01*
X448917000Y-85520097D02*
X462917000Y-85520097D01*
X448917000Y-99520097D02*
X448917000Y-85520097D01*
X462917000Y-85520097D02*
X462917000Y-99520097D01*
X462917000Y-99520097D02*
X448917000Y-99520097D01*
X448917000Y-106080118D02*
X462917000Y-106080118D01*
X448917000Y-120080118D02*
X448917000Y-106080118D01*
X462917000Y-106080118D02*
X462917000Y-120080118D01*
X462917000Y-120080118D02*
X448917000Y-120080118D01*
X410817000Y-126640139D02*
X424817000Y-126640139D01*
X410817000Y-140640139D02*
X410817000Y-126640139D01*
X424817000Y-126640139D02*
X424817000Y-140640139D01*
X424817000Y-140640139D02*
X410817000Y-140640139D01*
D12*
X467967000Y-149167176D02*
X467967000Y-155917176D01*
X467967000Y-149167176D02*
X480967000Y-149167176D01*
X467967000Y-157480176D02*
X481967000Y-157480176D01*
X467967000Y-171480176D02*
X467967000Y-157480176D01*
X467967000Y-173043176D02*
X467967000Y-179793176D01*
X467967000Y-173043176D02*
X480967000Y-173043176D01*
X467967000Y-179793176D02*
X480967000Y-179793176D01*
X480967000Y-149167176D02*
X480967000Y-155917176D01*
X480967000Y-155917176D02*
X467967000Y-155917176D01*
X480967000Y-173043176D02*
X480967000Y-179793176D01*
X481967000Y-157480176D02*
X481967000Y-171480176D01*
X481967000Y-171480176D02*
X467967000Y-171480176D01*
D11*
X429867000Y-85520097D02*
X443867000Y-85520097D01*
X429867000Y-99520097D02*
X429867000Y-85520097D01*
X443867000Y-85520097D02*
X443867000Y-99520097D01*
X443867000Y-99520097D02*
X429867000Y-99520097D01*
X429867000Y-106080118D02*
X443867000Y-106080118D01*
X429867000Y-120080118D02*
X429867000Y-106080118D01*
X443867000Y-106080118D02*
X443867000Y-120080118D01*
X443867000Y-120080118D02*
X429867000Y-120080118D01*
X448917000Y-147200160D02*
X462917000Y-147200160D01*
X448917000Y-161200160D02*
X448917000Y-147200160D01*
X462917000Y-147200160D02*
X462917000Y-161200160D01*
X462917000Y-161200160D02*
X448917000Y-161200160D01*
D12*
X412029000Y-168760181D02*
X412029000Y-181760181D01*
X412029000Y-168760181D02*
X418779000Y-168760181D01*
X412029000Y-181760181D02*
X418779000Y-181760181D01*
X418779000Y-168760181D02*
X418779000Y-181760181D01*
X420342000Y-167760181D02*
X434342000Y-167760181D01*
X420342000Y-181760181D02*
X420342000Y-167760181D01*
X434342000Y-167760181D02*
X434342000Y-181760181D01*
X434342000Y-181760181D02*
X420342000Y-181760181D01*
X435905000Y-168760181D02*
X435905000Y-181760181D01*
X435905000Y-168760181D02*
X442655000Y-168760181D01*
X435905000Y-181760181D02*
X442655000Y-181760181D01*
X442655000Y-168760181D02*
X442655000Y-181760181D01*
D11*
X429867000Y-147200160D02*
X443867000Y-147200160D01*
X429867000Y-161200160D02*
X429867000Y-147200160D01*
X443867000Y-147200160D02*
X443867000Y-161200160D01*
X443867000Y-161200160D02*
X429867000Y-161200160D01*
X467967000Y-85520097D02*
X481967000Y-85520097D01*
X467967000Y-99520097D02*
X467967000Y-85520097D01*
X481967000Y-85520097D02*
X481967000Y-99520097D01*
X481967000Y-99520097D02*
X467967000Y-99520097D01*
X448917000Y-167760187D02*
X462917000Y-167760187D01*
X448917000Y-181760187D02*
X448917000Y-167760187D01*
X462917000Y-167760187D02*
X462917000Y-181760187D01*
X462917000Y-181760187D02*
X448917000Y-181760187D01*
X410817000Y-85520097D02*
X424817000Y-85520097D01*
X410817000Y-99520097D02*
X410817000Y-85520097D01*
X424817000Y-85520097D02*
X424817000Y-99520097D01*
X424817000Y-99520097D02*
X410817000Y-99520097D01*
M02*
