G04 #@! TF.GenerationSoftware,KiCad,Pcbnew,7.0.11+dfsg-1build4*
G04 #@! TF.CreationDate,2026-06-02T17:15:46-04:00*
G04 #@! TF.ProjectId,mission-control-plate-numpad,6d697373-696f-46e2-9d63-6f6e74726f6c,rev?*
G04 #@! TF.SameCoordinates,Original*
G04 #@! TF.FileFunction,Copper,L1,Top*
G04 #@! TF.FilePolarity,Positive*
%FSLAX46Y46*%
G04 Gerber Fmt 4.6, Leading zero omitted, Abs format (unit mm)*
G04 Created by KiCad (PCBNEW 7.0.11+dfsg-1build4) date 2026-06-02 17:15:46*
%MOMM*%
%LPD*%
G01*
G04 APERTURE LIST*
G04 APERTURE END LIST*
G04 #@! TA.AperFunction,NonConductor*
G36*
X471359453Y-82710501D02*
G01*
X482609628Y-82775971D01*
X482634659Y-82779340D01*
X482918805Y-82855477D01*
X482928638Y-82858671D01*
X483211111Y-82967102D01*
X483220546Y-82971303D01*
X483490140Y-83108668D01*
X483499100Y-83113842D01*
X483752836Y-83278620D01*
X483761208Y-83284703D01*
X483850725Y-83357192D01*
X483996328Y-83475099D01*
X484004029Y-83482032D01*
X484217967Y-83695970D01*
X484224900Y-83703671D01*
X484415292Y-83938785D01*
X484421383Y-83947169D01*
X484586153Y-84200892D01*
X484591335Y-84209866D01*
X484728692Y-84479445D01*
X484732900Y-84488897D01*
X484841323Y-84771350D01*
X484844523Y-84781197D01*
X484922830Y-85073440D01*
X484924984Y-85083576D01*
X484972311Y-85382389D01*
X484973394Y-85392694D01*
X484989364Y-85697403D01*
X484989500Y-85702585D01*
X484989500Y-181697414D01*
X484989364Y-181702596D01*
X484973394Y-182007305D01*
X484972311Y-182017610D01*
X484924984Y-182316423D01*
X484922830Y-182326559D01*
X484844523Y-182618802D01*
X484841321Y-182628654D01*
X484750557Y-182865108D01*
X484732907Y-182911087D01*
X484728692Y-182920554D01*
X484591335Y-183190133D01*
X484586153Y-183199107D01*
X484421383Y-183452830D01*
X484415292Y-183461214D01*
X484224900Y-183696328D01*
X484217967Y-183704029D01*
X484004029Y-183917967D01*
X483996328Y-183924900D01*
X483761214Y-184115292D01*
X483752830Y-184121383D01*
X483499107Y-184286153D01*
X483490133Y-184291335D01*
X483220554Y-184428692D01*
X483211095Y-184432903D01*
X482998789Y-184514400D01*
X482928657Y-184541321D01*
X482918802Y-184544523D01*
X482626559Y-184622830D01*
X482616423Y-184624984D01*
X482317610Y-184672311D01*
X482307305Y-184673394D01*
X482025832Y-184688146D01*
X482002594Y-184689364D01*
X481997414Y-184689500D01*
X410802586Y-184689500D01*
X410797405Y-184689364D01*
X410772242Y-184688045D01*
X410492694Y-184673394D01*
X410482389Y-184672311D01*
X410183576Y-184624984D01*
X410173440Y-184622830D01*
X409881197Y-184544523D01*
X409871350Y-184541323D01*
X409588897Y-184432900D01*
X409579445Y-184428692D01*
X409309866Y-184291335D01*
X409300892Y-184286153D01*
X409047169Y-184121383D01*
X409038785Y-184115292D01*
X408803671Y-183924900D01*
X408795970Y-183917967D01*
X408582032Y-183704029D01*
X408575099Y-183696328D01*
X408384703Y-183461208D01*
X408378616Y-183452830D01*
X408213846Y-183199107D01*
X408208668Y-183190140D01*
X408071303Y-182920546D01*
X408067102Y-182911111D01*
X407958671Y-182628638D01*
X407955476Y-182618802D01*
X407941765Y-182567632D01*
X407877166Y-182326547D01*
X407875017Y-182316434D01*
X407827687Y-182017605D01*
X407826605Y-182007304D01*
X407819004Y-181862276D01*
X407810636Y-181702595D01*
X407810500Y-181697414D01*
X407810500Y-181355427D01*
X408765769Y-181355427D01*
X408795502Y-181574919D01*
X408863947Y-181785574D01*
X408968906Y-181980619D01*
X408968906Y-181980620D01*
X409107005Y-182153789D01*
X409107006Y-182153790D01*
X409273807Y-182299519D01*
X409463943Y-182413121D01*
X409463952Y-182413126D01*
X409671309Y-182490948D01*
X409671312Y-182490949D01*
X409671318Y-182490951D01*
X409889253Y-182530500D01*
X409889259Y-182530500D01*
X410055260Y-182530500D01*
X410055264Y-182530500D01*
X410220602Y-182515619D01*
X410434114Y-182456694D01*
X410633674Y-182360591D01*
X410812866Y-182230400D01*
X410965932Y-182070305D01*
X411087953Y-181885452D01*
X411145982Y-181749687D01*
X411148941Y-181742764D01*
X412017633Y-181742764D01*
X412017635Y-181760182D01*
X412018499Y-181762268D01*
X412020963Y-181768216D01*
X412020963Y-181768217D01*
X412028999Y-181771546D01*
X412029000Y-181771546D01*
X412046435Y-181771546D01*
X412050783Y-181770681D01*
X418757217Y-181770681D01*
X418761565Y-181771546D01*
X418779000Y-181771546D01*
X418779001Y-181771546D01*
X418787036Y-181768217D01*
X418787036Y-181768216D01*
X418789501Y-181762268D01*
X418789501Y-181762266D01*
X418790365Y-181760181D01*
X418790364Y-181760179D01*
X418790365Y-181760178D01*
X418790366Y-181742764D01*
X420330633Y-181742764D01*
X420330635Y-181760182D01*
X420331499Y-181762268D01*
X420333963Y-181768216D01*
X420333963Y-181768217D01*
X420341999Y-181771546D01*
X420342000Y-181771546D01*
X420359435Y-181771546D01*
X420363783Y-181770681D01*
X434320217Y-181770681D01*
X434324565Y-181771546D01*
X434342000Y-181771546D01*
X434342001Y-181771546D01*
X434350036Y-181768217D01*
X434350036Y-181768216D01*
X434352501Y-181762268D01*
X434352501Y-181762266D01*
X434353365Y-181760181D01*
X434353364Y-181760179D01*
X434353365Y-181760178D01*
X434353366Y-181742764D01*
X435893633Y-181742764D01*
X435893635Y-181760182D01*
X435894499Y-181762268D01*
X435896963Y-181768216D01*
X435896963Y-181768217D01*
X435904999Y-181771546D01*
X435905000Y-181771546D01*
X435922435Y-181771546D01*
X435926783Y-181770681D01*
X442633217Y-181770681D01*
X442637565Y-181771546D01*
X442655000Y-181771546D01*
X442655001Y-181771546D01*
X442663036Y-181768217D01*
X442663036Y-181768216D01*
X442665501Y-181762268D01*
X442665501Y-181762266D01*
X442666365Y-181760181D01*
X442666364Y-181760179D01*
X442666365Y-181760178D01*
X442666366Y-181742764D01*
X442665500Y-181738405D01*
X442665500Y-181363851D01*
X444740644Y-181363851D01*
X444771402Y-181617165D01*
X444771404Y-181617173D01*
X444842397Y-181862271D01*
X444842398Y-181862273D01*
X444842399Y-181862276D01*
X444941112Y-182070309D01*
X444951798Y-182092829D01*
X445096749Y-182302827D01*
X445096750Y-182302828D01*
X445096754Y-182302832D01*
X445273525Y-182486870D01*
X445477529Y-182640169D01*
X445703481Y-182758758D01*
X445703486Y-182758759D01*
X445703489Y-182758761D01*
X445768148Y-182780347D01*
X445945531Y-182839566D01*
X446197409Y-182880500D01*
X446388689Y-182880500D01*
X446388694Y-182880500D01*
X446579355Y-182865108D01*
X446827122Y-182804039D01*
X447061885Y-182704016D01*
X447277562Y-182567630D01*
X447468569Y-182398413D01*
X447629958Y-182200747D01*
X447757549Y-181979753D01*
X447847425Y-181742770D01*
X448905633Y-181742770D01*
X448905635Y-181760188D01*
X448906499Y-181762274D01*
X448908963Y-181768222D01*
X448908963Y-181768223D01*
X448916999Y-181771552D01*
X448917000Y-181771552D01*
X448934435Y-181771552D01*
X448938783Y-181770687D01*
X462895217Y-181770687D01*
X462899565Y-181771552D01*
X462917000Y-181771552D01*
X462917001Y-181771552D01*
X462925036Y-181768223D01*
X462925036Y-181768222D01*
X462925039Y-181768216D01*
X462926057Y-181765758D01*
X462927501Y-181762274D01*
X462927501Y-181762272D01*
X462928365Y-181760187D01*
X462928364Y-181760185D01*
X462928365Y-181760184D01*
X462928366Y-181742770D01*
X462927500Y-181738411D01*
X462927500Y-181363851D01*
X481382644Y-181363851D01*
X481413402Y-181617165D01*
X481413404Y-181617173D01*
X481484397Y-181862271D01*
X481484398Y-181862273D01*
X481484399Y-181862276D01*
X481583112Y-182070309D01*
X481593798Y-182092829D01*
X481738749Y-182302827D01*
X481738750Y-182302828D01*
X481738754Y-182302832D01*
X481915525Y-182486870D01*
X482119529Y-182640169D01*
X482345481Y-182758758D01*
X482345486Y-182758759D01*
X482345489Y-182758761D01*
X482410148Y-182780347D01*
X482587531Y-182839566D01*
X482839409Y-182880500D01*
X483030689Y-182880500D01*
X483030694Y-182880500D01*
X483221355Y-182865108D01*
X483469122Y-182804039D01*
X483703885Y-182704016D01*
X483919562Y-182567630D01*
X484110569Y-182398413D01*
X484271958Y-182200747D01*
X484399549Y-181979753D01*
X484490038Y-181741153D01*
X484541081Y-181491128D01*
X484551356Y-181236153D01*
X484520597Y-180982831D01*
X484449601Y-180737724D01*
X484340206Y-180507179D01*
X484340203Y-180507175D01*
X484340201Y-180507170D01*
X484195250Y-180297172D01*
X484195249Y-180297171D01*
X484176526Y-180277678D01*
X484018475Y-180113130D01*
X483814471Y-179959831D01*
X483588519Y-179841242D01*
X483588518Y-179841241D01*
X483588510Y-179841238D01*
X483346472Y-179760435D01*
X483346462Y-179760432D01*
X483094591Y-179719500D01*
X482903306Y-179719500D01*
X482848481Y-179723926D01*
X482712645Y-179734891D01*
X482712640Y-179734892D01*
X482464877Y-179795961D01*
X482230114Y-179895984D01*
X482014440Y-180032367D01*
X481823429Y-180201588D01*
X481823429Y-180201589D01*
X481662043Y-180399251D01*
X481534450Y-180620248D01*
X481443961Y-180858849D01*
X481392919Y-181108868D01*
X481392919Y-181108871D01*
X481382644Y-181363851D01*
X462927500Y-181363851D01*
X462927500Y-179775759D01*
X467955633Y-179775759D01*
X467955635Y-179793177D01*
X467956499Y-179795263D01*
X467958963Y-179801211D01*
X467958963Y-179801212D01*
X467966999Y-179804541D01*
X467967000Y-179804541D01*
X467984435Y-179804541D01*
X467988783Y-179803676D01*
X480945217Y-179803676D01*
X480949565Y-179804541D01*
X480967000Y-179804541D01*
X480967001Y-179804541D01*
X480975036Y-179801212D01*
X480975036Y-179801211D01*
X480977501Y-179795263D01*
X480977501Y-179795261D01*
X480978365Y-179793176D01*
X480978364Y-179793174D01*
X480978365Y-179793173D01*
X480978366Y-179775759D01*
X480977500Y-179771400D01*
X480977500Y-173064958D01*
X480978365Y-173060611D01*
X480978365Y-173043175D01*
X480975036Y-173035139D01*
X480969088Y-173032675D01*
X480969086Y-173032675D01*
X480967000Y-173031811D01*
X480966999Y-173031811D01*
X480949565Y-173031811D01*
X480945217Y-173032676D01*
X467988783Y-173032676D01*
X467984435Y-173031811D01*
X467967000Y-173031811D01*
X467964912Y-173032676D01*
X467964911Y-173032675D01*
X467958964Y-173035139D01*
X467958963Y-173035139D01*
X467955635Y-173043175D01*
X467955635Y-173060611D01*
X467956500Y-173064958D01*
X467956500Y-179771400D01*
X467955633Y-179775759D01*
X462927500Y-179775759D01*
X462927500Y-171462759D01*
X467955633Y-171462759D01*
X467955635Y-171480177D01*
X467956499Y-171482263D01*
X467958963Y-171488211D01*
X467958963Y-171488212D01*
X467966999Y-171491541D01*
X467967000Y-171491541D01*
X467984435Y-171491541D01*
X467988783Y-171490676D01*
X481945217Y-171490676D01*
X481949565Y-171491541D01*
X481967000Y-171491541D01*
X481967001Y-171491541D01*
X481975036Y-171488212D01*
X481975036Y-171488211D01*
X481977501Y-171482263D01*
X481977501Y-171482261D01*
X481978365Y-171480176D01*
X481978364Y-171480174D01*
X481978365Y-171480173D01*
X481978366Y-171462759D01*
X481977500Y-171458400D01*
X481977500Y-157501958D01*
X481978365Y-157497611D01*
X481978365Y-157480175D01*
X481975036Y-157472139D01*
X481969088Y-157469675D01*
X481969086Y-157469675D01*
X481967000Y-157468811D01*
X481966999Y-157468811D01*
X481949565Y-157468811D01*
X481945217Y-157469676D01*
X467988783Y-157469676D01*
X467984435Y-157468811D01*
X467967000Y-157468811D01*
X467964912Y-157469676D01*
X467964911Y-157469675D01*
X467958964Y-157472139D01*
X467958963Y-157472139D01*
X467955635Y-157480175D01*
X467955635Y-157497611D01*
X467956500Y-157501958D01*
X467956500Y-171458400D01*
X467955633Y-171462759D01*
X462927500Y-171462759D01*
X462927500Y-167781969D01*
X462928365Y-167777622D01*
X462928365Y-167760186D01*
X462925036Y-167752150D01*
X462919088Y-167749686D01*
X462919086Y-167749686D01*
X462917000Y-167748822D01*
X462916999Y-167748822D01*
X462899565Y-167748822D01*
X462895217Y-167749687D01*
X448938783Y-167749687D01*
X448934435Y-167748822D01*
X448917000Y-167748822D01*
X448914912Y-167749687D01*
X448914911Y-167749686D01*
X448908964Y-167752150D01*
X448908963Y-167752150D01*
X448905635Y-167760186D01*
X448905635Y-167777622D01*
X448906500Y-167781969D01*
X448906500Y-181738411D01*
X448905633Y-181742770D01*
X447847425Y-181742770D01*
X447848038Y-181741153D01*
X447899081Y-181491128D01*
X447909356Y-181236153D01*
X447878597Y-180982831D01*
X447807601Y-180737724D01*
X447698206Y-180507179D01*
X447698203Y-180507175D01*
X447698201Y-180507170D01*
X447553250Y-180297172D01*
X447553249Y-180297171D01*
X447534526Y-180277678D01*
X447376475Y-180113130D01*
X447172471Y-179959831D01*
X446946519Y-179841242D01*
X446946518Y-179841241D01*
X446946510Y-179841238D01*
X446704472Y-179760435D01*
X446704462Y-179760432D01*
X446452591Y-179719500D01*
X446261306Y-179719500D01*
X446206481Y-179723926D01*
X446070645Y-179734891D01*
X446070640Y-179734892D01*
X445822877Y-179795961D01*
X445588114Y-179895984D01*
X445372440Y-180032367D01*
X445181429Y-180201588D01*
X445181429Y-180201589D01*
X445020043Y-180399251D01*
X444892450Y-180620248D01*
X444801961Y-180858849D01*
X444750919Y-181108868D01*
X444750919Y-181108871D01*
X444740644Y-181363851D01*
X442665500Y-181363851D01*
X442665500Y-168781963D01*
X442666365Y-168777616D01*
X442666365Y-168760180D01*
X442663036Y-168752144D01*
X442657088Y-168749680D01*
X442657086Y-168749680D01*
X442655000Y-168748816D01*
X442654999Y-168748816D01*
X442637565Y-168748816D01*
X442633217Y-168749681D01*
X435926783Y-168749681D01*
X435922435Y-168748816D01*
X435905000Y-168748816D01*
X435902912Y-168749681D01*
X435902911Y-168749680D01*
X435896964Y-168752144D01*
X435896963Y-168752144D01*
X435893635Y-168760180D01*
X435893635Y-168777616D01*
X435894500Y-168781963D01*
X435894500Y-181738405D01*
X435893633Y-181742764D01*
X434353366Y-181742764D01*
X434352500Y-181738405D01*
X434352500Y-167781963D01*
X434353365Y-167777616D01*
X434353365Y-167760181D01*
X434350036Y-167752146D01*
X434350036Y-167752145D01*
X434342000Y-167748816D01*
X434341999Y-167748816D01*
X434324565Y-167748816D01*
X434320217Y-167749681D01*
X420363783Y-167749681D01*
X420359435Y-167748816D01*
X420342001Y-167748816D01*
X420342000Y-167748816D01*
X420338672Y-167750194D01*
X420333965Y-167752144D01*
X420333963Y-167752146D01*
X420330635Y-167760181D01*
X420330635Y-167777616D01*
X420331500Y-167781963D01*
X420331500Y-181738405D01*
X420330633Y-181742764D01*
X418790366Y-181742764D01*
X418789500Y-181738405D01*
X418789500Y-168781963D01*
X418790365Y-168777616D01*
X418790365Y-168760180D01*
X418787036Y-168752144D01*
X418781088Y-168749680D01*
X418781086Y-168749680D01*
X418779000Y-168748816D01*
X418778999Y-168748816D01*
X418761565Y-168748816D01*
X418757217Y-168749681D01*
X412050783Y-168749681D01*
X412046435Y-168748816D01*
X412029000Y-168748816D01*
X412026912Y-168749681D01*
X412026911Y-168749680D01*
X412020964Y-168752144D01*
X412020963Y-168752144D01*
X412017635Y-168760180D01*
X412017635Y-168777616D01*
X412018500Y-168781963D01*
X412018500Y-181738405D01*
X412017633Y-181742764D01*
X411148941Y-181742764D01*
X411175004Y-181681787D01*
X411175004Y-181681786D01*
X411175006Y-181681782D01*
X411224293Y-181465842D01*
X411234230Y-181244571D01*
X411204498Y-181025081D01*
X411136053Y-180814428D01*
X411136052Y-180814427D01*
X411136052Y-180814425D01*
X411076137Y-180703085D01*
X411031094Y-180619381D01*
X411031093Y-180619379D01*
X410892994Y-180446210D01*
X410892993Y-180446209D01*
X410726192Y-180300480D01*
X410536056Y-180186878D01*
X410536047Y-180186873D01*
X410328690Y-180109051D01*
X410328679Y-180109048D01*
X410110753Y-180069501D01*
X410110752Y-180069500D01*
X410110747Y-180069500D01*
X409944736Y-180069500D01*
X409944732Y-180069500D01*
X409944716Y-180069501D01*
X409779398Y-180084380D01*
X409565896Y-180143302D01*
X409565885Y-180143306D01*
X409366326Y-180239409D01*
X409187132Y-180369601D01*
X409034072Y-180529690D01*
X409034071Y-180529691D01*
X409034069Y-180529693D01*
X409034068Y-180529695D01*
X408974295Y-180620247D01*
X408912045Y-180714551D01*
X408912044Y-180714552D01*
X408824995Y-180918212D01*
X408775707Y-181134156D01*
X408775706Y-181134168D01*
X408765769Y-181355427D01*
X407810500Y-181355427D01*
X407810500Y-164763851D01*
X409115644Y-164763851D01*
X409146402Y-165017165D01*
X409146404Y-165017173D01*
X409217397Y-165262271D01*
X409326798Y-165492829D01*
X409471749Y-165702827D01*
X409471750Y-165702828D01*
X409471754Y-165702832D01*
X409648525Y-165886870D01*
X409852529Y-166040169D01*
X410078481Y-166158758D01*
X410078486Y-166158759D01*
X410078489Y-166158761D01*
X410158666Y-166185527D01*
X410320531Y-166239566D01*
X410572409Y-166280500D01*
X410763689Y-166280500D01*
X410763694Y-166280500D01*
X410954355Y-166265108D01*
X411202122Y-166204039D01*
X411436885Y-166104016D01*
X411652562Y-165967630D01*
X411843569Y-165798413D01*
X412004958Y-165600747D01*
X412132549Y-165379753D01*
X412223038Y-165141153D01*
X412274081Y-164891128D01*
X412279210Y-164763851D01*
X444815644Y-164763851D01*
X444846402Y-165017165D01*
X444846404Y-165017173D01*
X444917397Y-165262271D01*
X445026798Y-165492829D01*
X445171749Y-165702827D01*
X445171750Y-165702828D01*
X445171754Y-165702832D01*
X445348525Y-165886870D01*
X445552529Y-166040169D01*
X445778481Y-166158758D01*
X445778486Y-166158759D01*
X445778489Y-166158761D01*
X445858666Y-166185527D01*
X446020531Y-166239566D01*
X446272409Y-166280500D01*
X446463689Y-166280500D01*
X446463694Y-166280500D01*
X446654355Y-166265108D01*
X446902122Y-166204039D01*
X447136885Y-166104016D01*
X447352562Y-165967630D01*
X447543569Y-165798413D01*
X447704958Y-165600747D01*
X447832549Y-165379753D01*
X447923038Y-165141153D01*
X447974081Y-164891128D01*
X447984356Y-164636153D01*
X447953597Y-164382831D01*
X447882601Y-164137724D01*
X447773206Y-163907179D01*
X447773203Y-163907175D01*
X447773201Y-163907170D01*
X447628250Y-163697172D01*
X447628249Y-163697171D01*
X447536439Y-163601587D01*
X447451475Y-163513130D01*
X447247471Y-163359831D01*
X447021519Y-163241242D01*
X447021518Y-163241241D01*
X447021510Y-163241238D01*
X446779472Y-163160435D01*
X446779462Y-163160432D01*
X446527591Y-163119500D01*
X446336306Y-163119500D01*
X446281481Y-163123926D01*
X446145645Y-163134891D01*
X446145640Y-163134892D01*
X445897877Y-163195961D01*
X445663114Y-163295984D01*
X445447440Y-163432367D01*
X445256429Y-163601588D01*
X445256429Y-163601589D01*
X445095043Y-163799251D01*
X444967450Y-164020248D01*
X444876961Y-164258849D01*
X444825919Y-164508868D01*
X444825919Y-164508871D01*
X444815644Y-164763851D01*
X412279210Y-164763851D01*
X412284356Y-164636153D01*
X412253597Y-164382831D01*
X412182601Y-164137724D01*
X412073206Y-163907179D01*
X412073203Y-163907175D01*
X412073201Y-163907170D01*
X411928250Y-163697172D01*
X411928249Y-163697171D01*
X411836439Y-163601587D01*
X411751475Y-163513130D01*
X411547471Y-163359831D01*
X411321519Y-163241242D01*
X411321518Y-163241241D01*
X411321510Y-163241238D01*
X411079472Y-163160435D01*
X411079462Y-163160432D01*
X410827591Y-163119500D01*
X410636306Y-163119500D01*
X410581481Y-163123926D01*
X410445645Y-163134891D01*
X410445640Y-163134892D01*
X410197877Y-163195961D01*
X409963114Y-163295984D01*
X409747440Y-163432367D01*
X409556429Y-163601588D01*
X409556429Y-163601589D01*
X409395043Y-163799251D01*
X409267450Y-164020248D01*
X409176961Y-164258849D01*
X409125919Y-164508868D01*
X409125919Y-164508871D01*
X409115644Y-164763851D01*
X407810500Y-164763851D01*
X407810500Y-161182743D01*
X410805633Y-161182743D01*
X410805635Y-161200161D01*
X410806499Y-161202247D01*
X410808963Y-161208195D01*
X410808963Y-161208196D01*
X410816999Y-161211525D01*
X410817000Y-161211525D01*
X410834435Y-161211525D01*
X410838783Y-161210660D01*
X424795217Y-161210660D01*
X424799565Y-161211525D01*
X424817000Y-161211525D01*
X424817001Y-161211525D01*
X424825036Y-161208196D01*
X424825036Y-161208195D01*
X424827501Y-161202247D01*
X424827501Y-161202245D01*
X424828365Y-161200160D01*
X424828364Y-161200158D01*
X424828365Y-161200157D01*
X424828366Y-161182743D01*
X429855633Y-161182743D01*
X429855635Y-161200161D01*
X429856499Y-161202247D01*
X429858963Y-161208195D01*
X429858963Y-161208196D01*
X429866999Y-161211525D01*
X429867000Y-161211525D01*
X429884435Y-161211525D01*
X429888783Y-161210660D01*
X443845217Y-161210660D01*
X443849565Y-161211525D01*
X443867000Y-161211525D01*
X443867001Y-161211525D01*
X443875036Y-161208196D01*
X443875036Y-161208195D01*
X443877501Y-161202247D01*
X443877501Y-161202245D01*
X443878365Y-161200160D01*
X443878364Y-161200158D01*
X443878365Y-161200157D01*
X443878366Y-161182743D01*
X448905633Y-161182743D01*
X448905635Y-161200161D01*
X448906499Y-161202247D01*
X448908963Y-161208195D01*
X448908963Y-161208196D01*
X448916999Y-161211525D01*
X448917000Y-161211525D01*
X448934435Y-161211525D01*
X448938783Y-161210660D01*
X462895217Y-161210660D01*
X462899565Y-161211525D01*
X462917000Y-161211525D01*
X462917001Y-161211525D01*
X462925036Y-161208196D01*
X462925036Y-161208195D01*
X462927501Y-161202247D01*
X462927501Y-161202245D01*
X462928365Y-161200160D01*
X462928364Y-161200158D01*
X462928365Y-161200157D01*
X462928366Y-161182743D01*
X462927500Y-161178384D01*
X462927500Y-155899759D01*
X467955633Y-155899759D01*
X467955635Y-155917177D01*
X467956499Y-155919263D01*
X467958963Y-155925211D01*
X467958963Y-155925212D01*
X467966999Y-155928541D01*
X467967000Y-155928541D01*
X467984435Y-155928541D01*
X467988783Y-155927676D01*
X480945217Y-155927676D01*
X480949565Y-155928541D01*
X480967000Y-155928541D01*
X480967001Y-155928541D01*
X480975036Y-155925212D01*
X480975036Y-155925211D01*
X480977501Y-155919263D01*
X480977501Y-155919261D01*
X480978365Y-155917176D01*
X480978364Y-155917174D01*
X480978365Y-155917173D01*
X480978366Y-155899759D01*
X480977500Y-155895400D01*
X480977500Y-149188958D01*
X480978365Y-149184611D01*
X480978365Y-149167175D01*
X480975036Y-149159139D01*
X480969088Y-149156675D01*
X480969086Y-149156675D01*
X480967000Y-149155811D01*
X480966999Y-149155811D01*
X480949565Y-149155811D01*
X480945217Y-149156676D01*
X467988783Y-149156676D01*
X467984435Y-149155811D01*
X467967000Y-149155811D01*
X467964912Y-149156676D01*
X467964911Y-149156675D01*
X467958964Y-149159139D01*
X467958963Y-149159139D01*
X467955635Y-149167175D01*
X467955635Y-149184611D01*
X467956500Y-149188958D01*
X467956500Y-155895400D01*
X467955633Y-155899759D01*
X462927500Y-155899759D01*
X462927500Y-147221942D01*
X462928365Y-147217595D01*
X462928365Y-147200159D01*
X462925036Y-147192123D01*
X462919088Y-147189659D01*
X462919086Y-147189659D01*
X462917000Y-147188795D01*
X462916999Y-147188795D01*
X462899565Y-147188795D01*
X462895217Y-147189660D01*
X448938783Y-147189660D01*
X448934435Y-147188795D01*
X448917000Y-147188795D01*
X448914912Y-147189660D01*
X448914911Y-147189659D01*
X448908964Y-147192123D01*
X448908963Y-147192123D01*
X448905635Y-147200159D01*
X448905635Y-147217595D01*
X448906500Y-147221942D01*
X448906500Y-161178384D01*
X448905633Y-161182743D01*
X443878366Y-161182743D01*
X443877500Y-161178384D01*
X443877500Y-147221942D01*
X443878365Y-147217595D01*
X443878365Y-147200159D01*
X443875036Y-147192123D01*
X443869088Y-147189659D01*
X443869086Y-147189659D01*
X443867000Y-147188795D01*
X443866999Y-147188795D01*
X443849565Y-147188795D01*
X443845217Y-147189660D01*
X429888783Y-147189660D01*
X429884435Y-147188795D01*
X429867000Y-147188795D01*
X429864912Y-147189660D01*
X429864911Y-147189659D01*
X429858964Y-147192123D01*
X429858963Y-147192123D01*
X429855635Y-147200159D01*
X429855635Y-147217595D01*
X429856500Y-147221942D01*
X429856500Y-161178384D01*
X429855633Y-161182743D01*
X424828366Y-161182743D01*
X424827500Y-161178384D01*
X424827500Y-147221942D01*
X424828365Y-147217595D01*
X424828365Y-147200159D01*
X424825036Y-147192123D01*
X424819088Y-147189659D01*
X424819086Y-147189659D01*
X424817000Y-147188795D01*
X424816999Y-147188795D01*
X424799565Y-147188795D01*
X424795217Y-147189660D01*
X410838783Y-147189660D01*
X410834435Y-147188795D01*
X410817000Y-147188795D01*
X410814912Y-147189660D01*
X410814911Y-147189659D01*
X410808964Y-147192123D01*
X410808963Y-147192123D01*
X410805635Y-147200159D01*
X410805635Y-147217595D01*
X410806500Y-147221942D01*
X410806500Y-161178384D01*
X410805633Y-161182743D01*
X407810500Y-161182743D01*
X407810500Y-144063851D01*
X409115644Y-144063851D01*
X409146402Y-144317165D01*
X409146404Y-144317173D01*
X409217397Y-144562271D01*
X409326798Y-144792829D01*
X409471749Y-145002827D01*
X409471750Y-145002828D01*
X409471754Y-145002832D01*
X409648525Y-145186870D01*
X409852529Y-145340169D01*
X410078481Y-145458758D01*
X410078486Y-145458759D01*
X410078489Y-145458761D01*
X410158666Y-145485527D01*
X410320531Y-145539566D01*
X410572409Y-145580500D01*
X410763689Y-145580500D01*
X410763694Y-145580500D01*
X410954355Y-145565108D01*
X411202122Y-145504039D01*
X411436885Y-145404016D01*
X411652562Y-145267630D01*
X411843569Y-145098413D01*
X412004958Y-144900747D01*
X412132549Y-144679753D01*
X412223038Y-144441153D01*
X412274081Y-144191128D01*
X412279210Y-144063851D01*
X444715644Y-144063851D01*
X444746402Y-144317165D01*
X444746404Y-144317173D01*
X444817397Y-144562271D01*
X444926798Y-144792829D01*
X445071749Y-145002827D01*
X445071750Y-145002828D01*
X445071754Y-145002832D01*
X445248525Y-145186870D01*
X445452529Y-145340169D01*
X445678481Y-145458758D01*
X445678486Y-145458759D01*
X445678489Y-145458761D01*
X445758666Y-145485527D01*
X445920531Y-145539566D01*
X446172409Y-145580500D01*
X446363689Y-145580500D01*
X446363694Y-145580500D01*
X446554355Y-145565108D01*
X446802122Y-145504039D01*
X447036885Y-145404016D01*
X447252562Y-145267630D01*
X447443569Y-145098413D01*
X447604958Y-144900747D01*
X447732549Y-144679753D01*
X447823038Y-144441153D01*
X447874081Y-144191128D01*
X447879210Y-144063851D01*
X481382644Y-144063851D01*
X481413402Y-144317165D01*
X481413404Y-144317173D01*
X481484397Y-144562271D01*
X481593798Y-144792829D01*
X481738749Y-145002827D01*
X481738750Y-145002828D01*
X481738754Y-145002832D01*
X481915525Y-145186870D01*
X482119529Y-145340169D01*
X482345481Y-145458758D01*
X482345486Y-145458759D01*
X482345489Y-145458761D01*
X482425666Y-145485527D01*
X482587531Y-145539566D01*
X482839409Y-145580500D01*
X483030689Y-145580500D01*
X483030694Y-145580500D01*
X483221355Y-145565108D01*
X483469122Y-145504039D01*
X483703885Y-145404016D01*
X483919562Y-145267630D01*
X484110569Y-145098413D01*
X484271958Y-144900747D01*
X484399549Y-144679753D01*
X484490038Y-144441153D01*
X484541081Y-144191128D01*
X484551356Y-143936153D01*
X484520597Y-143682831D01*
X484449601Y-143437724D01*
X484340206Y-143207179D01*
X484340203Y-143207175D01*
X484340201Y-143207170D01*
X484195250Y-142997172D01*
X484195249Y-142997171D01*
X484103439Y-142901587D01*
X484018475Y-142813130D01*
X483814471Y-142659831D01*
X483588519Y-142541242D01*
X483588518Y-142541241D01*
X483588510Y-142541238D01*
X483346472Y-142460435D01*
X483346462Y-142460432D01*
X483094591Y-142419500D01*
X482903306Y-142419500D01*
X482848481Y-142423926D01*
X482712645Y-142434891D01*
X482712640Y-142434892D01*
X482464877Y-142495961D01*
X482230114Y-142595984D01*
X482014440Y-142732367D01*
X481823429Y-142901588D01*
X481823429Y-142901589D01*
X481662043Y-143099251D01*
X481534450Y-143320248D01*
X481443961Y-143558849D01*
X481392919Y-143808868D01*
X481392919Y-143808871D01*
X481382644Y-144063851D01*
X447879210Y-144063851D01*
X447884356Y-143936153D01*
X447853597Y-143682831D01*
X447782601Y-143437724D01*
X447673206Y-143207179D01*
X447673203Y-143207175D01*
X447673201Y-143207170D01*
X447528250Y-142997172D01*
X447528249Y-142997171D01*
X447436439Y-142901587D01*
X447351475Y-142813130D01*
X447147471Y-142659831D01*
X446921519Y-142541242D01*
X446921518Y-142541241D01*
X446921510Y-142541238D01*
X446679472Y-142460435D01*
X446679462Y-142460432D01*
X446427591Y-142419500D01*
X446236306Y-142419500D01*
X446181481Y-142423926D01*
X446045645Y-142434891D01*
X446045640Y-142434892D01*
X445797877Y-142495961D01*
X445563114Y-142595984D01*
X445347440Y-142732367D01*
X445156429Y-142901588D01*
X445156429Y-142901589D01*
X444995043Y-143099251D01*
X444867450Y-143320248D01*
X444776961Y-143558849D01*
X444725919Y-143808868D01*
X444725919Y-143808871D01*
X444715644Y-144063851D01*
X412279210Y-144063851D01*
X412284356Y-143936153D01*
X412253597Y-143682831D01*
X412182601Y-143437724D01*
X412073206Y-143207179D01*
X412073203Y-143207175D01*
X412073201Y-143207170D01*
X411928250Y-142997172D01*
X411928249Y-142997171D01*
X411836439Y-142901587D01*
X411751475Y-142813130D01*
X411547471Y-142659831D01*
X411321519Y-142541242D01*
X411321518Y-142541241D01*
X411321510Y-142541238D01*
X411079472Y-142460435D01*
X411079462Y-142460432D01*
X410827591Y-142419500D01*
X410636306Y-142419500D01*
X410581481Y-142423926D01*
X410445645Y-142434891D01*
X410445640Y-142434892D01*
X410197877Y-142495961D01*
X409963114Y-142595984D01*
X409747440Y-142732367D01*
X409556429Y-142901588D01*
X409556429Y-142901589D01*
X409395043Y-143099251D01*
X409267450Y-143320248D01*
X409176961Y-143558849D01*
X409125919Y-143808868D01*
X409125919Y-143808871D01*
X409115644Y-144063851D01*
X407810500Y-144063851D01*
X407810500Y-140622722D01*
X410805633Y-140622722D01*
X410805635Y-140640140D01*
X410806499Y-140642226D01*
X410808963Y-140648174D01*
X410808963Y-140648175D01*
X410816999Y-140651504D01*
X410817000Y-140651504D01*
X410834435Y-140651504D01*
X410838783Y-140650639D01*
X424795217Y-140650639D01*
X424799565Y-140651504D01*
X424817000Y-140651504D01*
X424817001Y-140651504D01*
X424825036Y-140648175D01*
X424825036Y-140648174D01*
X424827501Y-140642226D01*
X424827501Y-140642224D01*
X424828365Y-140640139D01*
X424828364Y-140640137D01*
X424828365Y-140640136D01*
X424828366Y-140622722D01*
X429855633Y-140622722D01*
X429855635Y-140640140D01*
X429856499Y-140642226D01*
X429858963Y-140648174D01*
X429858963Y-140648175D01*
X429866999Y-140651504D01*
X429867000Y-140651504D01*
X429884435Y-140651504D01*
X429888783Y-140650639D01*
X443845217Y-140650639D01*
X443849565Y-140651504D01*
X443867000Y-140651504D01*
X443867001Y-140651504D01*
X443875036Y-140648175D01*
X443875036Y-140648174D01*
X443877501Y-140642226D01*
X443877501Y-140642224D01*
X443878365Y-140640139D01*
X443878364Y-140640137D01*
X443878365Y-140640136D01*
X443878366Y-140622722D01*
X448905633Y-140622722D01*
X448905635Y-140640140D01*
X448906499Y-140642226D01*
X448908963Y-140648174D01*
X448908963Y-140648175D01*
X448916999Y-140651504D01*
X448917000Y-140651504D01*
X448934435Y-140651504D01*
X448938783Y-140650639D01*
X462895217Y-140650639D01*
X462899565Y-140651504D01*
X462917000Y-140651504D01*
X462917001Y-140651504D01*
X462925036Y-140648175D01*
X462925036Y-140648174D01*
X462927501Y-140642226D01*
X462927501Y-140642224D01*
X462928365Y-140640139D01*
X462928364Y-140640137D01*
X462928365Y-140640136D01*
X462928366Y-140622722D01*
X462927500Y-140618363D01*
X462927500Y-138655715D01*
X467955633Y-138655715D01*
X467955635Y-138673133D01*
X467956499Y-138675219D01*
X467958963Y-138681167D01*
X467958963Y-138681168D01*
X467966999Y-138684497D01*
X467967000Y-138684497D01*
X467984435Y-138684497D01*
X467988783Y-138683632D01*
X480945217Y-138683632D01*
X480949565Y-138684497D01*
X480967000Y-138684497D01*
X480967001Y-138684497D01*
X480975036Y-138681168D01*
X480975036Y-138681167D01*
X480977501Y-138675219D01*
X480977501Y-138675217D01*
X480978365Y-138673132D01*
X480978364Y-138673130D01*
X480978365Y-138673129D01*
X480978366Y-138655715D01*
X480977500Y-138651356D01*
X480977500Y-131944914D01*
X480978365Y-131940567D01*
X480978365Y-131923131D01*
X480975036Y-131915095D01*
X480969088Y-131912631D01*
X480969086Y-131912631D01*
X480967000Y-131911767D01*
X480966999Y-131911767D01*
X480949565Y-131911767D01*
X480945217Y-131912632D01*
X467988783Y-131912632D01*
X467984435Y-131911767D01*
X467967000Y-131911767D01*
X467964912Y-131912632D01*
X467964911Y-131912631D01*
X467958964Y-131915095D01*
X467958963Y-131915095D01*
X467955635Y-131923131D01*
X467955635Y-131940567D01*
X467956500Y-131944914D01*
X467956500Y-138651356D01*
X467955633Y-138655715D01*
X462927500Y-138655715D01*
X462927500Y-130342715D01*
X467955633Y-130342715D01*
X467955635Y-130360133D01*
X467956499Y-130362219D01*
X467958963Y-130368167D01*
X467958963Y-130368168D01*
X467966999Y-130371497D01*
X467967000Y-130371497D01*
X467984435Y-130371497D01*
X467988783Y-130370632D01*
X481945217Y-130370632D01*
X481949565Y-130371497D01*
X481967000Y-130371497D01*
X481967001Y-130371497D01*
X481975036Y-130368168D01*
X481975036Y-130368167D01*
X481977501Y-130362219D01*
X481977501Y-130362217D01*
X481978365Y-130360132D01*
X481978364Y-130360130D01*
X481978365Y-130360129D01*
X481978366Y-130342715D01*
X481977500Y-130338356D01*
X481977500Y-116381914D01*
X481978365Y-116377567D01*
X481978365Y-116360131D01*
X481975036Y-116352095D01*
X481969088Y-116349631D01*
X481969086Y-116349631D01*
X481967000Y-116348767D01*
X481966999Y-116348767D01*
X481949565Y-116348767D01*
X481945217Y-116349632D01*
X467988783Y-116349632D01*
X467984435Y-116348767D01*
X467967000Y-116348767D01*
X467964912Y-116349632D01*
X467964911Y-116349631D01*
X467958964Y-116352095D01*
X467958963Y-116352095D01*
X467955635Y-116360131D01*
X467955635Y-116377567D01*
X467956500Y-116381914D01*
X467956500Y-130338356D01*
X467955633Y-130342715D01*
X462927500Y-130342715D01*
X462927500Y-126661921D01*
X462928365Y-126657574D01*
X462928365Y-126640138D01*
X462925036Y-126632102D01*
X462919088Y-126629638D01*
X462919086Y-126629638D01*
X462917000Y-126628774D01*
X462916999Y-126628774D01*
X462899565Y-126628774D01*
X462895217Y-126629639D01*
X448938783Y-126629639D01*
X448934435Y-126628774D01*
X448917000Y-126628774D01*
X448914912Y-126629639D01*
X448914911Y-126629638D01*
X448908964Y-126632102D01*
X448908963Y-126632102D01*
X448905635Y-126640138D01*
X448905635Y-126657574D01*
X448906500Y-126661921D01*
X448906500Y-140618363D01*
X448905633Y-140622722D01*
X443878366Y-140622722D01*
X443877500Y-140618363D01*
X443877500Y-126661921D01*
X443878365Y-126657574D01*
X443878365Y-126640138D01*
X443875036Y-126632102D01*
X443869088Y-126629638D01*
X443869086Y-126629638D01*
X443867000Y-126628774D01*
X443866999Y-126628774D01*
X443849565Y-126628774D01*
X443845217Y-126629639D01*
X429888783Y-126629639D01*
X429884435Y-126628774D01*
X429867000Y-126628774D01*
X429864912Y-126629639D01*
X429864911Y-126629638D01*
X429858964Y-126632102D01*
X429858963Y-126632102D01*
X429855635Y-126640138D01*
X429855635Y-126657574D01*
X429856500Y-126661921D01*
X429856500Y-140618363D01*
X429855633Y-140622722D01*
X424828366Y-140622722D01*
X424827500Y-140618363D01*
X424827500Y-127368651D01*
X425765644Y-127368651D01*
X425796402Y-127621965D01*
X425796404Y-127621973D01*
X425867397Y-127867071D01*
X425976798Y-128097629D01*
X426121749Y-128307627D01*
X426121750Y-128307628D01*
X426121754Y-128307632D01*
X426298525Y-128491670D01*
X426502529Y-128644969D01*
X426728481Y-128763558D01*
X426728486Y-128763559D01*
X426728489Y-128763561D01*
X426808666Y-128790327D01*
X426970531Y-128844366D01*
X427222409Y-128885300D01*
X427413689Y-128885300D01*
X427413694Y-128885300D01*
X427604355Y-128869908D01*
X427852122Y-128808839D01*
X428086885Y-128708816D01*
X428302562Y-128572430D01*
X428493569Y-128403213D01*
X428654958Y-128205547D01*
X428782549Y-127984553D01*
X428873038Y-127745953D01*
X428924081Y-127495928D01*
X428934356Y-127240953D01*
X428903597Y-126987631D01*
X428832601Y-126742524D01*
X428723206Y-126511979D01*
X428723203Y-126511975D01*
X428723201Y-126511970D01*
X428578250Y-126301972D01*
X428578249Y-126301971D01*
X428486439Y-126206387D01*
X428401475Y-126117930D01*
X428197471Y-125964631D01*
X427971519Y-125846042D01*
X427971518Y-125846041D01*
X427971510Y-125846038D01*
X427729472Y-125765235D01*
X427729462Y-125765232D01*
X427477591Y-125724300D01*
X427286306Y-125724300D01*
X427231481Y-125728726D01*
X427095645Y-125739691D01*
X427095640Y-125739692D01*
X426847877Y-125800761D01*
X426613114Y-125900784D01*
X426397440Y-126037167D01*
X426206429Y-126206388D01*
X426206429Y-126206389D01*
X426045043Y-126404051D01*
X425917450Y-126625048D01*
X425826961Y-126863649D01*
X425775919Y-127113668D01*
X425775919Y-127113671D01*
X425765644Y-127368651D01*
X424827500Y-127368651D01*
X424827500Y-126661921D01*
X424828365Y-126657574D01*
X424828365Y-126640138D01*
X424825036Y-126632102D01*
X424819088Y-126629638D01*
X424819086Y-126629638D01*
X424817000Y-126628774D01*
X424816999Y-126628774D01*
X424799565Y-126628774D01*
X424795217Y-126629639D01*
X410838783Y-126629639D01*
X410834435Y-126628774D01*
X410817000Y-126628774D01*
X410814912Y-126629639D01*
X410814911Y-126629638D01*
X410808964Y-126632102D01*
X410808963Y-126632102D01*
X410805635Y-126640138D01*
X410805635Y-126657574D01*
X410806500Y-126661921D01*
X410806500Y-140618363D01*
X410805633Y-140622722D01*
X407810500Y-140622722D01*
X407810500Y-120062701D01*
X410805633Y-120062701D01*
X410805635Y-120080119D01*
X410806499Y-120082205D01*
X410808963Y-120088153D01*
X410808963Y-120088154D01*
X410816999Y-120091483D01*
X410817000Y-120091483D01*
X410834435Y-120091483D01*
X410838783Y-120090618D01*
X424795217Y-120090618D01*
X424799565Y-120091483D01*
X424817000Y-120091483D01*
X424817001Y-120091483D01*
X424825036Y-120088154D01*
X424825036Y-120088153D01*
X424827501Y-120082205D01*
X424827501Y-120082203D01*
X424828365Y-120080118D01*
X424828364Y-120080116D01*
X424828365Y-120080115D01*
X424828366Y-120062701D01*
X429855633Y-120062701D01*
X429855635Y-120080119D01*
X429856499Y-120082205D01*
X429858963Y-120088153D01*
X429858963Y-120088154D01*
X429866999Y-120091483D01*
X429867000Y-120091483D01*
X429884435Y-120091483D01*
X429888783Y-120090618D01*
X443845217Y-120090618D01*
X443849565Y-120091483D01*
X443867000Y-120091483D01*
X443867001Y-120091483D01*
X443875036Y-120088154D01*
X443875036Y-120088153D01*
X443877501Y-120082205D01*
X443877501Y-120082203D01*
X443878365Y-120080118D01*
X443878364Y-120080116D01*
X443878365Y-120080115D01*
X443878366Y-120062701D01*
X448905633Y-120062701D01*
X448905635Y-120080119D01*
X448906499Y-120082205D01*
X448908963Y-120088153D01*
X448908963Y-120088154D01*
X448916999Y-120091483D01*
X448917000Y-120091483D01*
X448934435Y-120091483D01*
X448938783Y-120090618D01*
X462895217Y-120090618D01*
X462899565Y-120091483D01*
X462917000Y-120091483D01*
X462917001Y-120091483D01*
X462925036Y-120088154D01*
X462925036Y-120088153D01*
X462927501Y-120082205D01*
X462927501Y-120082203D01*
X462928365Y-120080118D01*
X462928364Y-120080116D01*
X462928365Y-120080115D01*
X462928366Y-120062701D01*
X462927500Y-120058342D01*
X462927500Y-114779715D01*
X467955633Y-114779715D01*
X467955635Y-114797133D01*
X467956499Y-114799219D01*
X467958963Y-114805167D01*
X467958963Y-114805168D01*
X467966999Y-114808497D01*
X467967000Y-114808497D01*
X467984435Y-114808497D01*
X467988783Y-114807632D01*
X480945217Y-114807632D01*
X480949565Y-114808497D01*
X480967000Y-114808497D01*
X480967001Y-114808497D01*
X480975036Y-114805168D01*
X480975036Y-114805167D01*
X480977501Y-114799219D01*
X480977501Y-114799217D01*
X480978365Y-114797132D01*
X480978364Y-114797130D01*
X480978365Y-114797129D01*
X480978366Y-114779715D01*
X480977500Y-114775356D01*
X480977500Y-108068914D01*
X480978365Y-108064567D01*
X480978365Y-108047131D01*
X480975036Y-108039095D01*
X480969088Y-108036631D01*
X480969086Y-108036631D01*
X480967000Y-108035767D01*
X480966999Y-108035767D01*
X480949565Y-108035767D01*
X480945217Y-108036632D01*
X467988783Y-108036632D01*
X467984435Y-108035767D01*
X467967000Y-108035767D01*
X467964912Y-108036632D01*
X467964911Y-108036631D01*
X467958964Y-108039095D01*
X467958963Y-108039095D01*
X467955635Y-108047131D01*
X467955635Y-108064567D01*
X467956500Y-108068914D01*
X467956500Y-114775356D01*
X467955633Y-114779715D01*
X462927500Y-114779715D01*
X462927500Y-106489851D01*
X481382644Y-106489851D01*
X481413402Y-106743165D01*
X481413404Y-106743173D01*
X481484397Y-106988271D01*
X481593798Y-107218829D01*
X481738749Y-107428827D01*
X481738750Y-107428828D01*
X481738754Y-107428832D01*
X481915525Y-107612870D01*
X482119529Y-107766169D01*
X482345481Y-107884758D01*
X482345486Y-107884759D01*
X482345489Y-107884761D01*
X482425666Y-107911527D01*
X482587531Y-107965566D01*
X482839409Y-108006500D01*
X483030689Y-108006500D01*
X483030694Y-108006500D01*
X483221355Y-107991108D01*
X483469122Y-107930039D01*
X483703885Y-107830016D01*
X483919562Y-107693630D01*
X484110569Y-107524413D01*
X484271958Y-107326747D01*
X484399549Y-107105753D01*
X484490038Y-106867153D01*
X484541081Y-106617128D01*
X484551356Y-106362153D01*
X484520597Y-106108831D01*
X484449601Y-105863724D01*
X484340206Y-105633179D01*
X484340203Y-105633175D01*
X484340201Y-105633170D01*
X484195250Y-105423172D01*
X484195249Y-105423171D01*
X484103439Y-105327587D01*
X484018475Y-105239130D01*
X483814471Y-105085831D01*
X483588519Y-104967242D01*
X483588518Y-104967241D01*
X483588510Y-104967238D01*
X483346472Y-104886435D01*
X483346462Y-104886432D01*
X483094591Y-104845500D01*
X482903306Y-104845500D01*
X482848481Y-104849926D01*
X482712645Y-104860891D01*
X482712640Y-104860892D01*
X482464877Y-104921961D01*
X482230114Y-105021984D01*
X482014440Y-105158367D01*
X481823429Y-105327588D01*
X481823429Y-105327589D01*
X481662043Y-105525251D01*
X481534450Y-105746248D01*
X481443961Y-105984849D01*
X481392919Y-106234868D01*
X481392919Y-106234871D01*
X481382644Y-106489851D01*
X462927500Y-106489851D01*
X462927500Y-106101900D01*
X462928365Y-106097553D01*
X462928365Y-106080117D01*
X462925036Y-106072081D01*
X462919088Y-106069617D01*
X462919086Y-106069617D01*
X462917000Y-106068753D01*
X462916999Y-106068753D01*
X462899565Y-106068753D01*
X462895217Y-106069618D01*
X448938783Y-106069618D01*
X448934435Y-106068753D01*
X448917000Y-106068753D01*
X448914912Y-106069618D01*
X448914911Y-106069617D01*
X448908964Y-106072081D01*
X448908963Y-106072081D01*
X448905635Y-106080117D01*
X448905635Y-106097553D01*
X448906500Y-106101900D01*
X448906500Y-120058342D01*
X448905633Y-120062701D01*
X443878366Y-120062701D01*
X443877500Y-120058342D01*
X443877500Y-106489851D01*
X444795244Y-106489851D01*
X444826002Y-106743165D01*
X444826004Y-106743173D01*
X444896997Y-106988271D01*
X445006398Y-107218829D01*
X445151349Y-107428827D01*
X445151350Y-107428828D01*
X445151354Y-107428832D01*
X445328125Y-107612870D01*
X445532129Y-107766169D01*
X445758081Y-107884758D01*
X445758086Y-107884759D01*
X445758089Y-107884761D01*
X445838266Y-107911527D01*
X446000131Y-107965566D01*
X446252009Y-108006500D01*
X446443289Y-108006500D01*
X446443294Y-108006500D01*
X446633955Y-107991108D01*
X446881722Y-107930039D01*
X447116485Y-107830016D01*
X447332162Y-107693630D01*
X447523169Y-107524413D01*
X447684558Y-107326747D01*
X447812149Y-107105753D01*
X447902638Y-106867153D01*
X447953681Y-106617128D01*
X447963956Y-106362153D01*
X447933197Y-106108831D01*
X447862201Y-105863724D01*
X447752806Y-105633179D01*
X447752803Y-105633175D01*
X447752801Y-105633170D01*
X447607850Y-105423172D01*
X447607849Y-105423171D01*
X447516039Y-105327587D01*
X447431075Y-105239130D01*
X447227071Y-105085831D01*
X447001119Y-104967242D01*
X447001118Y-104967241D01*
X447001110Y-104967238D01*
X446759072Y-104886435D01*
X446759062Y-104886432D01*
X446507191Y-104845500D01*
X446315906Y-104845500D01*
X446261081Y-104849926D01*
X446125245Y-104860891D01*
X446125240Y-104860892D01*
X445877477Y-104921961D01*
X445642714Y-105021984D01*
X445427040Y-105158367D01*
X445236029Y-105327588D01*
X445236029Y-105327589D01*
X445074643Y-105525251D01*
X444947050Y-105746248D01*
X444856561Y-105984849D01*
X444805519Y-106234868D01*
X444805519Y-106234871D01*
X444795244Y-106489851D01*
X443877500Y-106489851D01*
X443877500Y-106101900D01*
X443878365Y-106097553D01*
X443878365Y-106080117D01*
X443875036Y-106072081D01*
X443869088Y-106069617D01*
X443869086Y-106069617D01*
X443867000Y-106068753D01*
X443866999Y-106068753D01*
X443849565Y-106068753D01*
X443845217Y-106069618D01*
X429888783Y-106069618D01*
X429884435Y-106068753D01*
X429867000Y-106068753D01*
X429864912Y-106069618D01*
X429864911Y-106069617D01*
X429858964Y-106072081D01*
X429858963Y-106072081D01*
X429855635Y-106080117D01*
X429855635Y-106097553D01*
X429856500Y-106101900D01*
X429856500Y-120058342D01*
X429855633Y-120062701D01*
X424828366Y-120062701D01*
X424827500Y-120058342D01*
X424827500Y-106489851D01*
X425815644Y-106489851D01*
X425846402Y-106743165D01*
X425846404Y-106743173D01*
X425917397Y-106988271D01*
X426026798Y-107218829D01*
X426171749Y-107428827D01*
X426171750Y-107428828D01*
X426171754Y-107428832D01*
X426348525Y-107612870D01*
X426552529Y-107766169D01*
X426778481Y-107884758D01*
X426778486Y-107884759D01*
X426778489Y-107884761D01*
X426858666Y-107911527D01*
X427020531Y-107965566D01*
X427272409Y-108006500D01*
X427463689Y-108006500D01*
X427463694Y-108006500D01*
X427654355Y-107991108D01*
X427902122Y-107930039D01*
X428136885Y-107830016D01*
X428352562Y-107693630D01*
X428543569Y-107524413D01*
X428704958Y-107326747D01*
X428832549Y-107105753D01*
X428923038Y-106867153D01*
X428974081Y-106617128D01*
X428984356Y-106362153D01*
X428953597Y-106108831D01*
X428882601Y-105863724D01*
X428773206Y-105633179D01*
X428773203Y-105633175D01*
X428773201Y-105633170D01*
X428628250Y-105423172D01*
X428628249Y-105423171D01*
X428536439Y-105327587D01*
X428451475Y-105239130D01*
X428247471Y-105085831D01*
X428021519Y-104967242D01*
X428021518Y-104967241D01*
X428021510Y-104967238D01*
X427779472Y-104886435D01*
X427779462Y-104886432D01*
X427527591Y-104845500D01*
X427336306Y-104845500D01*
X427281481Y-104849926D01*
X427145645Y-104860891D01*
X427145640Y-104860892D01*
X426897877Y-104921961D01*
X426663114Y-105021984D01*
X426447440Y-105158367D01*
X426256429Y-105327588D01*
X426256429Y-105327589D01*
X426095043Y-105525251D01*
X425967450Y-105746248D01*
X425876961Y-105984849D01*
X425825919Y-106234868D01*
X425825919Y-106234871D01*
X425815644Y-106489851D01*
X424827500Y-106489851D01*
X424827500Y-106101900D01*
X424828365Y-106097553D01*
X424828365Y-106080117D01*
X424825036Y-106072081D01*
X424819088Y-106069617D01*
X424819086Y-106069617D01*
X424817000Y-106068753D01*
X424816999Y-106068753D01*
X424799565Y-106068753D01*
X424795217Y-106069618D01*
X410838783Y-106069618D01*
X410834435Y-106068753D01*
X410817000Y-106068753D01*
X410814912Y-106069618D01*
X410814911Y-106069617D01*
X410808964Y-106072081D01*
X410808963Y-106072081D01*
X410805635Y-106080117D01*
X410805635Y-106097553D01*
X410806500Y-106101900D01*
X410806500Y-120058342D01*
X410805633Y-120062701D01*
X407810500Y-120062701D01*
X407810500Y-99502680D01*
X410805633Y-99502680D01*
X410805635Y-99520098D01*
X410806499Y-99522184D01*
X410808963Y-99528132D01*
X410808963Y-99528133D01*
X410816999Y-99531462D01*
X410817000Y-99531462D01*
X410834435Y-99531462D01*
X410838783Y-99530597D01*
X424795217Y-99530597D01*
X424799565Y-99531462D01*
X424817000Y-99531462D01*
X424817001Y-99531462D01*
X424825036Y-99528133D01*
X424825036Y-99528132D01*
X424827501Y-99522184D01*
X424827501Y-99522182D01*
X424828365Y-99520097D01*
X424828364Y-99520095D01*
X424828365Y-99520094D01*
X424828366Y-99502680D01*
X429855633Y-99502680D01*
X429855635Y-99520098D01*
X429856499Y-99522184D01*
X429858963Y-99528132D01*
X429858963Y-99528133D01*
X429866999Y-99531462D01*
X429867000Y-99531462D01*
X429884435Y-99531462D01*
X429888783Y-99530597D01*
X443845217Y-99530597D01*
X443849565Y-99531462D01*
X443867000Y-99531462D01*
X443867001Y-99531462D01*
X443875036Y-99528133D01*
X443875036Y-99528132D01*
X443877501Y-99522184D01*
X443877501Y-99522182D01*
X443878365Y-99520097D01*
X443878364Y-99520095D01*
X443878365Y-99520094D01*
X443878366Y-99502680D01*
X448905633Y-99502680D01*
X448905635Y-99520098D01*
X448906499Y-99522184D01*
X448908963Y-99528132D01*
X448908963Y-99528133D01*
X448916999Y-99531462D01*
X448917000Y-99531462D01*
X448934435Y-99531462D01*
X448938783Y-99530597D01*
X462895217Y-99530597D01*
X462899565Y-99531462D01*
X462917000Y-99531462D01*
X462917001Y-99531462D01*
X462925036Y-99528133D01*
X462925036Y-99528132D01*
X462927501Y-99522184D01*
X462927501Y-99522182D01*
X462928365Y-99520097D01*
X462928364Y-99520095D01*
X462928365Y-99520094D01*
X462928366Y-99502680D01*
X467955633Y-99502680D01*
X467955635Y-99520098D01*
X467956499Y-99522184D01*
X467958963Y-99528132D01*
X467958963Y-99528133D01*
X467966999Y-99531462D01*
X467967000Y-99531462D01*
X467984435Y-99531462D01*
X467988783Y-99530597D01*
X481945217Y-99530597D01*
X481949565Y-99531462D01*
X481967000Y-99531462D01*
X481967001Y-99531462D01*
X481975036Y-99528133D01*
X481975036Y-99528132D01*
X481977501Y-99522184D01*
X481977501Y-99522182D01*
X481978365Y-99520097D01*
X481978364Y-99520095D01*
X481978365Y-99520094D01*
X481978366Y-99502680D01*
X481977500Y-99498321D01*
X481977500Y-85541879D01*
X481978365Y-85537532D01*
X481978365Y-85520096D01*
X481975036Y-85512060D01*
X481969088Y-85509596D01*
X481969086Y-85509596D01*
X481967000Y-85508732D01*
X481966999Y-85508732D01*
X481949565Y-85508732D01*
X481945217Y-85509597D01*
X467988783Y-85509597D01*
X467984435Y-85508732D01*
X467967000Y-85508732D01*
X467964912Y-85509597D01*
X467964911Y-85509596D01*
X467958964Y-85512060D01*
X467958963Y-85512060D01*
X467955635Y-85520096D01*
X467955635Y-85537532D01*
X467956500Y-85541879D01*
X467956500Y-99498321D01*
X467955633Y-99502680D01*
X462928366Y-99502680D01*
X462927500Y-99498321D01*
X462927500Y-85863851D01*
X463915644Y-85863851D01*
X463946402Y-86117165D01*
X463946404Y-86117173D01*
X464017397Y-86362271D01*
X464126798Y-86592829D01*
X464271749Y-86802827D01*
X464271750Y-86802828D01*
X464271754Y-86802832D01*
X464448525Y-86986870D01*
X464652529Y-87140169D01*
X464878481Y-87258758D01*
X464878486Y-87258759D01*
X464878489Y-87258761D01*
X464958666Y-87285527D01*
X465120531Y-87339566D01*
X465372409Y-87380500D01*
X465563689Y-87380500D01*
X465563694Y-87380500D01*
X465754355Y-87365108D01*
X466002122Y-87304039D01*
X466236885Y-87204016D01*
X466452562Y-87067630D01*
X466643569Y-86898413D01*
X466804958Y-86700747D01*
X466932549Y-86479753D01*
X467023038Y-86241153D01*
X467074081Y-85991128D01*
X467084356Y-85736153D01*
X467053597Y-85482831D01*
X466982601Y-85237724D01*
X466873206Y-85007179D01*
X466873203Y-85007175D01*
X466873201Y-85007170D01*
X466728250Y-84797172D01*
X466728249Y-84797171D01*
X466636439Y-84701587D01*
X466551475Y-84613130D01*
X466347471Y-84459831D01*
X466121519Y-84341242D01*
X466121518Y-84341241D01*
X466121510Y-84341238D01*
X465879472Y-84260435D01*
X465879462Y-84260432D01*
X465627591Y-84219500D01*
X465436306Y-84219500D01*
X465381481Y-84223926D01*
X465245645Y-84234891D01*
X465245640Y-84234892D01*
X464997877Y-84295961D01*
X464763114Y-84395984D01*
X464547440Y-84532367D01*
X464356429Y-84701588D01*
X464356429Y-84701589D01*
X464195043Y-84899251D01*
X464067450Y-85120248D01*
X463976961Y-85358849D01*
X463925919Y-85608868D01*
X463925919Y-85608871D01*
X463915644Y-85863851D01*
X462927500Y-85863851D01*
X462927500Y-85541879D01*
X462928365Y-85537532D01*
X462928365Y-85520096D01*
X462925036Y-85512060D01*
X462919088Y-85509596D01*
X462919086Y-85509596D01*
X462917000Y-85508732D01*
X462916999Y-85508732D01*
X462899565Y-85508732D01*
X462895217Y-85509597D01*
X448938783Y-85509597D01*
X448934435Y-85508732D01*
X448917000Y-85508732D01*
X448914912Y-85509597D01*
X448914911Y-85509596D01*
X448908964Y-85512060D01*
X448908963Y-85512060D01*
X448905635Y-85520096D01*
X448905635Y-85537532D01*
X448906500Y-85541879D01*
X448906500Y-99498321D01*
X448905633Y-99502680D01*
X443878366Y-99502680D01*
X443877500Y-99498321D01*
X443877500Y-85863851D01*
X444805644Y-85863851D01*
X444836402Y-86117165D01*
X444836404Y-86117173D01*
X444907397Y-86362271D01*
X445016798Y-86592829D01*
X445161749Y-86802827D01*
X445161750Y-86802828D01*
X445161754Y-86802832D01*
X445338525Y-86986870D01*
X445542529Y-87140169D01*
X445768481Y-87258758D01*
X445768486Y-87258759D01*
X445768489Y-87258761D01*
X445848666Y-87285527D01*
X446010531Y-87339566D01*
X446262409Y-87380500D01*
X446453689Y-87380500D01*
X446453694Y-87380500D01*
X446644355Y-87365108D01*
X446892122Y-87304039D01*
X447126885Y-87204016D01*
X447342562Y-87067630D01*
X447533569Y-86898413D01*
X447694958Y-86700747D01*
X447822549Y-86479753D01*
X447913038Y-86241153D01*
X447964081Y-85991128D01*
X447974356Y-85736153D01*
X447943597Y-85482831D01*
X447872601Y-85237724D01*
X447763206Y-85007179D01*
X447763203Y-85007175D01*
X447763201Y-85007170D01*
X447618250Y-84797172D01*
X447618249Y-84797171D01*
X447526439Y-84701587D01*
X447441475Y-84613130D01*
X447237471Y-84459831D01*
X447011519Y-84341242D01*
X447011518Y-84341241D01*
X447011510Y-84341238D01*
X446769472Y-84260435D01*
X446769462Y-84260432D01*
X446517591Y-84219500D01*
X446326306Y-84219500D01*
X446271481Y-84223926D01*
X446135645Y-84234891D01*
X446135640Y-84234892D01*
X445887877Y-84295961D01*
X445653114Y-84395984D01*
X445437440Y-84532367D01*
X445246429Y-84701588D01*
X445246429Y-84701589D01*
X445085043Y-84899251D01*
X444957450Y-85120248D01*
X444866961Y-85358849D01*
X444815919Y-85608868D01*
X444815919Y-85608871D01*
X444805644Y-85863851D01*
X443877500Y-85863851D01*
X443877500Y-85541879D01*
X443878365Y-85537532D01*
X443878365Y-85520096D01*
X443875036Y-85512060D01*
X443869088Y-85509596D01*
X443869086Y-85509596D01*
X443867000Y-85508732D01*
X443866999Y-85508732D01*
X443849565Y-85508732D01*
X443845217Y-85509597D01*
X429888783Y-85509597D01*
X429884435Y-85508732D01*
X429867000Y-85508732D01*
X429864912Y-85509597D01*
X429864911Y-85509596D01*
X429858964Y-85512060D01*
X429858963Y-85512060D01*
X429855635Y-85520096D01*
X429855635Y-85537532D01*
X429856500Y-85541879D01*
X429856500Y-99498321D01*
X429855633Y-99502680D01*
X424828366Y-99502680D01*
X424827500Y-99498321D01*
X424827500Y-85863851D01*
X425815644Y-85863851D01*
X425846402Y-86117165D01*
X425846404Y-86117173D01*
X425917397Y-86362271D01*
X426026798Y-86592829D01*
X426171749Y-86802827D01*
X426171750Y-86802828D01*
X426171754Y-86802832D01*
X426348525Y-86986870D01*
X426552529Y-87140169D01*
X426778481Y-87258758D01*
X426778486Y-87258759D01*
X426778489Y-87258761D01*
X426858666Y-87285527D01*
X427020531Y-87339566D01*
X427272409Y-87380500D01*
X427463689Y-87380500D01*
X427463694Y-87380500D01*
X427654355Y-87365108D01*
X427902122Y-87304039D01*
X428136885Y-87204016D01*
X428352562Y-87067630D01*
X428543569Y-86898413D01*
X428704958Y-86700747D01*
X428832549Y-86479753D01*
X428923038Y-86241153D01*
X428974081Y-85991128D01*
X428984356Y-85736153D01*
X428953597Y-85482831D01*
X428882601Y-85237724D01*
X428773206Y-85007179D01*
X428773203Y-85007175D01*
X428773201Y-85007170D01*
X428628250Y-84797172D01*
X428628249Y-84797171D01*
X428536439Y-84701587D01*
X428451475Y-84613130D01*
X428247471Y-84459831D01*
X428021519Y-84341242D01*
X428021518Y-84341241D01*
X428021510Y-84341238D01*
X427779472Y-84260435D01*
X427779462Y-84260432D01*
X427527591Y-84219500D01*
X427336306Y-84219500D01*
X427281481Y-84223926D01*
X427145645Y-84234891D01*
X427145640Y-84234892D01*
X426897877Y-84295961D01*
X426663114Y-84395984D01*
X426447440Y-84532367D01*
X426256429Y-84701588D01*
X426256429Y-84701589D01*
X426095043Y-84899251D01*
X425967450Y-85120248D01*
X425876961Y-85358849D01*
X425825919Y-85608868D01*
X425825919Y-85608871D01*
X425815644Y-85863851D01*
X424827500Y-85863851D01*
X424827500Y-85541879D01*
X424828365Y-85537532D01*
X424828365Y-85520096D01*
X424825036Y-85512060D01*
X424819088Y-85509596D01*
X424819086Y-85509596D01*
X424817000Y-85508732D01*
X424816999Y-85508732D01*
X424799565Y-85508732D01*
X424795217Y-85509597D01*
X410838783Y-85509597D01*
X410834435Y-85508732D01*
X410817000Y-85508732D01*
X410814912Y-85509597D01*
X410814911Y-85509596D01*
X410808964Y-85512060D01*
X410808963Y-85512060D01*
X410805635Y-85520096D01*
X410805635Y-85537532D01*
X410806500Y-85541879D01*
X410806500Y-99498321D01*
X410805633Y-99502680D01*
X407810500Y-99502680D01*
X407810500Y-85702585D01*
X407810636Y-85697404D01*
X407815276Y-85608868D01*
X407826605Y-85392688D01*
X407827688Y-85382389D01*
X407875018Y-85083561D01*
X407877165Y-85073456D01*
X407955478Y-84781189D01*
X407958669Y-84771367D01*
X408067105Y-84488881D01*
X408071300Y-84479460D01*
X408208672Y-84209850D01*
X408213836Y-84200907D01*
X408378626Y-83947154D01*
X408384696Y-83938799D01*
X408575107Y-83703661D01*
X408582022Y-83695980D01*
X408795980Y-83482022D01*
X408803661Y-83475107D01*
X409038799Y-83284696D01*
X409047154Y-83278626D01*
X409300907Y-83113836D01*
X409309850Y-83108672D01*
X409579460Y-82971300D01*
X409588881Y-82967105D01*
X409871367Y-82858669D01*
X409881189Y-82855478D01*
X410173456Y-82777165D01*
X410183561Y-82775018D01*
X410482396Y-82727687D01*
X410492688Y-82726605D01*
X410797405Y-82710636D01*
X410802586Y-82710500D01*
X410803412Y-82710500D01*
X471358879Y-82710500D01*
X471359453Y-82710501D01*
G37*
G04 #@! TD.AperFunction*
M02*
