G04 #@! TF.GenerationSoftware,KiCad,Pcbnew,7.0.11+dfsg-1build4*
G04 #@! TF.CreationDate,2026-06-02T17:22:24-04:00*
G04 #@! TF.ProjectId,mission-control-plate-nav,6d697373-696f-46e2-9d63-6f6e74726f6c,rev?*
G04 #@! TF.SameCoordinates,Original*
G04 #@! TF.FileFunction,Copper,L1,Top*
G04 #@! TF.FilePolarity,Positive*
%FSLAX46Y46*%
G04 Gerber Fmt 4.6, Leading zero omitted, Abs format (unit mm)*
G04 Created by KiCad (PCBNEW 7.0.11+dfsg-1build4) date 2026-06-02 17:22:24*
%MOMM*%
%LPD*%
G01*
G04 APERTURE LIST*
G04 APERTURE END LIST*
G04 #@! TA.AperFunction,NonConductor*
G36*
X397302595Y-82710636D02*
G01*
X397607309Y-82726605D01*
X397617605Y-82727687D01*
X397916434Y-82775017D01*
X397926547Y-82777166D01*
X398218805Y-82855477D01*
X398228638Y-82858671D01*
X398511111Y-82967102D01*
X398520546Y-82971303D01*
X398790140Y-83108668D01*
X398799100Y-83113842D01*
X399052836Y-83278620D01*
X399061208Y-83284703D01*
X399150725Y-83357192D01*
X399296328Y-83475099D01*
X399304029Y-83482032D01*
X399517967Y-83695970D01*
X399524900Y-83703671D01*
X399715292Y-83938785D01*
X399721381Y-83947167D01*
X399879107Y-84190043D01*
X399886153Y-84200892D01*
X399891335Y-84209866D01*
X400028692Y-84479445D01*
X400032900Y-84488897D01*
X400141323Y-84771350D01*
X400144523Y-84781197D01*
X400222830Y-85073440D01*
X400224984Y-85083576D01*
X400272311Y-85382389D01*
X400273394Y-85392694D01*
X400289364Y-85697403D01*
X400289500Y-85702585D01*
X400289500Y-120697414D01*
X400289364Y-120702596D01*
X400273394Y-121007305D01*
X400272311Y-121017610D01*
X400224984Y-121316423D01*
X400222830Y-121326559D01*
X400144523Y-121618802D01*
X400141321Y-121628654D01*
X400049588Y-121867632D01*
X400032907Y-121911087D01*
X400028692Y-121920554D01*
X399891335Y-122190133D01*
X399886153Y-122199107D01*
X399721383Y-122452830D01*
X399715292Y-122461214D01*
X399524900Y-122696328D01*
X399517967Y-122704029D01*
X399304029Y-122917967D01*
X399296328Y-122924900D01*
X399061214Y-123115292D01*
X399052830Y-123121383D01*
X398799107Y-123286153D01*
X398790133Y-123291335D01*
X398520554Y-123428692D01*
X398511095Y-123432903D01*
X398298789Y-123514400D01*
X398228657Y-123541321D01*
X398218802Y-123544523D01*
X397926559Y-123622830D01*
X397916423Y-123624984D01*
X397617610Y-123672311D01*
X397607305Y-123673394D01*
X397325832Y-123688146D01*
X397302594Y-123689364D01*
X397297414Y-123689500D01*
X383642222Y-123689500D01*
X383328407Y-123722484D01*
X383019749Y-123788091D01*
X382719656Y-123885598D01*
X382719653Y-123885600D01*
X382431390Y-124013941D01*
X382431373Y-124013950D01*
X382158123Y-124171712D01*
X382158117Y-124171715D01*
X382158114Y-124171718D01*
X382078068Y-124229874D01*
X381902828Y-124357193D01*
X381668345Y-124568323D01*
X381668323Y-124568345D01*
X381457193Y-124802828D01*
X381355487Y-124942816D01*
X381271718Y-125058114D01*
X381271715Y-125058117D01*
X381271712Y-125058123D01*
X381113950Y-125331373D01*
X381113941Y-125331390D01*
X380985600Y-125619653D01*
X380985598Y-125619656D01*
X380888091Y-125919749D01*
X380822484Y-126228407D01*
X380789500Y-126542222D01*
X380789500Y-141357777D01*
X380822484Y-141671592D01*
X380888091Y-141980250D01*
X380985598Y-142280343D01*
X380985600Y-142280346D01*
X381113941Y-142568609D01*
X381113950Y-142568626D01*
X381271712Y-142841876D01*
X381271718Y-142841886D01*
X381355487Y-142957184D01*
X381457193Y-143097171D01*
X381668323Y-143331654D01*
X381668334Y-143331666D01*
X381668344Y-143331675D01*
X381668345Y-143331676D01*
X381902828Y-143542806D01*
X381902831Y-143542808D01*
X382158114Y-143728282D01*
X382158123Y-143728287D01*
X382431373Y-143886049D01*
X382431383Y-143886054D01*
X382431386Y-143886056D01*
X382719653Y-144014400D01*
X382719655Y-144014400D01*
X382719656Y-144014401D01*
X383019749Y-144111908D01*
X383019751Y-144111908D01*
X383019756Y-144111910D01*
X383328408Y-144177516D01*
X383642226Y-144210500D01*
X383797912Y-144210500D01*
X397296588Y-144210500D01*
X397297414Y-144210500D01*
X397302595Y-144210636D01*
X397607309Y-144226605D01*
X397617605Y-144227687D01*
X397916434Y-144275017D01*
X397926547Y-144277166D01*
X398218805Y-144355477D01*
X398228638Y-144358671D01*
X398511111Y-144467102D01*
X398520546Y-144471303D01*
X398790140Y-144608668D01*
X398799100Y-144613842D01*
X399052836Y-144778620D01*
X399061208Y-144784703D01*
X399150725Y-144857192D01*
X399296328Y-144975099D01*
X399304029Y-144982032D01*
X399517967Y-145195970D01*
X399524900Y-145203671D01*
X399715292Y-145438785D01*
X399721383Y-145447169D01*
X399886153Y-145700892D01*
X399891335Y-145709866D01*
X400028692Y-145979445D01*
X400032900Y-145988897D01*
X400141323Y-146271350D01*
X400144523Y-146281197D01*
X400222830Y-146573440D01*
X400224984Y-146583576D01*
X400272311Y-146882389D01*
X400273394Y-146892694D01*
X400279633Y-147011728D01*
X400288958Y-147189667D01*
X400289364Y-147197403D01*
X400289500Y-147202585D01*
X400289500Y-161697414D01*
X400289364Y-161702596D01*
X400273394Y-162007305D01*
X400272311Y-162017610D01*
X400224984Y-162316423D01*
X400222830Y-162326559D01*
X400144523Y-162618802D01*
X400141321Y-162628657D01*
X400032907Y-162911087D01*
X400028692Y-162920554D01*
X399891335Y-163190133D01*
X399886153Y-163199107D01*
X399721383Y-163452830D01*
X399715292Y-163461214D01*
X399524900Y-163696328D01*
X399517967Y-163704029D01*
X399304029Y-163917967D01*
X399296328Y-163924900D01*
X399061214Y-164115292D01*
X399052830Y-164121383D01*
X398799107Y-164286153D01*
X398790133Y-164291335D01*
X398520554Y-164428692D01*
X398511095Y-164432903D01*
X398298789Y-164514400D01*
X398228657Y-164541321D01*
X398218802Y-164544523D01*
X397926559Y-164622830D01*
X397916423Y-164624984D01*
X397617610Y-164672311D01*
X397607305Y-164673394D01*
X397325832Y-164688146D01*
X397302594Y-164689364D01*
X397297414Y-164689500D01*
X383642222Y-164689500D01*
X383328407Y-164722484D01*
X383019749Y-164788091D01*
X382719656Y-164885598D01*
X382719653Y-164885600D01*
X382431390Y-165013941D01*
X382431373Y-165013950D01*
X382158123Y-165171712D01*
X382158117Y-165171715D01*
X382158114Y-165171718D01*
X382078068Y-165229874D01*
X381902828Y-165357193D01*
X381668345Y-165568323D01*
X381668323Y-165568345D01*
X381457193Y-165802828D01*
X381355487Y-165942816D01*
X381271718Y-166058114D01*
X381271715Y-166058117D01*
X381271712Y-166058123D01*
X381113950Y-166331373D01*
X381113941Y-166331390D01*
X380985600Y-166619653D01*
X380985598Y-166619656D01*
X380888091Y-166919749D01*
X380822484Y-167228407D01*
X380789500Y-167542222D01*
X380789500Y-181697414D01*
X380789364Y-181702596D01*
X380773394Y-182007305D01*
X380772311Y-182017610D01*
X380724984Y-182316423D01*
X380722830Y-182326559D01*
X380644523Y-182618802D01*
X380641321Y-182628657D01*
X380532907Y-182911087D01*
X380528692Y-182920554D01*
X380391335Y-183190133D01*
X380386153Y-183199107D01*
X380221383Y-183452830D01*
X380215292Y-183461214D01*
X380024900Y-183696328D01*
X380017967Y-183704029D01*
X379804029Y-183917967D01*
X379796328Y-183924900D01*
X379561214Y-184115292D01*
X379552830Y-184121383D01*
X379299107Y-184286153D01*
X379290133Y-184291335D01*
X379020554Y-184428692D01*
X379011095Y-184432903D01*
X378798789Y-184514400D01*
X378728657Y-184541321D01*
X378718802Y-184544523D01*
X378426559Y-184622830D01*
X378416423Y-184624984D01*
X378117610Y-184672311D01*
X378107305Y-184673394D01*
X377825832Y-184688146D01*
X377802594Y-184689364D01*
X377797414Y-184689500D01*
X363802586Y-184689500D01*
X363797405Y-184689364D01*
X363772242Y-184688045D01*
X363492694Y-184673394D01*
X363482389Y-184672311D01*
X363183576Y-184624984D01*
X363173440Y-184622830D01*
X362881197Y-184544523D01*
X362871350Y-184541323D01*
X362588897Y-184432900D01*
X362579445Y-184428692D01*
X362309866Y-184291335D01*
X362300892Y-184286153D01*
X362047169Y-184121383D01*
X362038785Y-184115292D01*
X361803671Y-183924900D01*
X361795970Y-183917967D01*
X361582032Y-183704029D01*
X361575099Y-183696328D01*
X361384703Y-183461208D01*
X361378616Y-183452830D01*
X361213846Y-183199107D01*
X361208668Y-183190140D01*
X361071303Y-182920546D01*
X361067102Y-182911111D01*
X360958671Y-182628638D01*
X360955476Y-182618802D01*
X360877166Y-182326547D01*
X360875017Y-182316434D01*
X360827687Y-182017605D01*
X360826605Y-182007304D01*
X360814075Y-181768224D01*
X360812741Y-181742771D01*
X363822133Y-181742771D01*
X363822135Y-181760189D01*
X363822999Y-181762275D01*
X363825463Y-181768223D01*
X363825463Y-181768224D01*
X363833499Y-181771553D01*
X363833500Y-181771553D01*
X363850935Y-181771553D01*
X363855283Y-181770688D01*
X377811717Y-181770688D01*
X377816065Y-181771553D01*
X377833500Y-181771553D01*
X377833501Y-181771553D01*
X377841536Y-181768224D01*
X377841536Y-181768223D01*
X377844001Y-181762275D01*
X377844001Y-181762273D01*
X377844865Y-181760188D01*
X377844864Y-181760186D01*
X377844865Y-181760185D01*
X377844866Y-181742771D01*
X377844000Y-181738412D01*
X377844000Y-167781970D01*
X377844865Y-167777623D01*
X377844865Y-167760187D01*
X377841536Y-167752151D01*
X377835588Y-167749687D01*
X377835586Y-167749687D01*
X377833500Y-167748823D01*
X377833499Y-167748823D01*
X377816065Y-167748823D01*
X377811717Y-167749688D01*
X363855283Y-167749688D01*
X363850935Y-167748823D01*
X363833500Y-167748823D01*
X363831412Y-167749688D01*
X363831411Y-167749687D01*
X363825464Y-167752151D01*
X363825463Y-167752151D01*
X363822135Y-167760187D01*
X363822135Y-167777623D01*
X363823000Y-167781970D01*
X363823000Y-181738412D01*
X363822133Y-181742771D01*
X360812741Y-181742771D01*
X360810636Y-181702595D01*
X360810500Y-181697414D01*
X360810500Y-167542228D01*
X360810500Y-167542226D01*
X360777516Y-167228408D01*
X360711910Y-166919756D01*
X360614400Y-166619653D01*
X360486056Y-166331386D01*
X360486054Y-166331383D01*
X360486049Y-166331373D01*
X360328287Y-166058123D01*
X360328282Y-166058114D01*
X360142808Y-165802831D01*
X360142806Y-165802828D01*
X359931676Y-165568345D01*
X359931675Y-165568344D01*
X359931666Y-165568334D01*
X359831750Y-165478369D01*
X359697171Y-165357193D01*
X359592911Y-165281444D01*
X359441886Y-165171718D01*
X359441876Y-165171712D01*
X359168626Y-165013950D01*
X359168609Y-165013941D01*
X358985622Y-164932471D01*
X358880347Y-164885600D01*
X358880345Y-164885599D01*
X358880343Y-164885598D01*
X358580250Y-164788091D01*
X358271592Y-164722484D01*
X357957777Y-164689500D01*
X357957774Y-164689500D01*
X357802088Y-164689500D01*
X344302586Y-164689500D01*
X344297405Y-164689364D01*
X344272242Y-164688045D01*
X343992694Y-164673394D01*
X343982389Y-164672311D01*
X343683576Y-164624984D01*
X343673440Y-164622830D01*
X343381197Y-164544523D01*
X343371350Y-164541323D01*
X343088897Y-164432900D01*
X343079445Y-164428692D01*
X342809866Y-164291335D01*
X342800892Y-164286153D01*
X342547169Y-164121383D01*
X342538785Y-164115292D01*
X342303671Y-163924900D01*
X342295970Y-163917967D01*
X342082032Y-163704029D01*
X342075099Y-163696328D01*
X341884703Y-163461208D01*
X341878616Y-163452830D01*
X341713846Y-163199107D01*
X341708668Y-163190140D01*
X341571303Y-162920546D01*
X341567102Y-162911111D01*
X341458671Y-162628638D01*
X341455476Y-162618802D01*
X341451912Y-162605500D01*
X341377166Y-162326547D01*
X341375017Y-162316434D01*
X341327687Y-162017605D01*
X341326605Y-162007304D01*
X341310636Y-161702595D01*
X341310500Y-161697414D01*
X341310500Y-161182733D01*
X344772133Y-161182733D01*
X344772135Y-161200151D01*
X344772999Y-161202237D01*
X344775463Y-161208185D01*
X344775463Y-161208186D01*
X344783499Y-161211515D01*
X344783500Y-161211515D01*
X344800935Y-161211515D01*
X344805283Y-161210650D01*
X358761717Y-161210650D01*
X358766065Y-161211515D01*
X358783500Y-161211515D01*
X358783501Y-161211515D01*
X358791536Y-161208186D01*
X358791536Y-161208185D01*
X358794001Y-161202237D01*
X358794001Y-161202235D01*
X358794865Y-161200150D01*
X358794864Y-161200148D01*
X358794865Y-161200147D01*
X358794866Y-161182733D01*
X358794000Y-161178374D01*
X358794000Y-161088851D01*
X359790644Y-161088851D01*
X359821402Y-161342165D01*
X359821404Y-161342173D01*
X359892397Y-161587271D01*
X359892398Y-161587273D01*
X359892399Y-161587276D01*
X359947119Y-161702595D01*
X360001798Y-161817829D01*
X360146749Y-162027827D01*
X360146750Y-162027828D01*
X360146754Y-162027832D01*
X360323525Y-162211870D01*
X360527529Y-162365169D01*
X360753481Y-162483758D01*
X360753486Y-162483759D01*
X360753489Y-162483761D01*
X360833666Y-162510527D01*
X360995531Y-162564566D01*
X361247409Y-162605500D01*
X361438689Y-162605500D01*
X361438694Y-162605500D01*
X361629355Y-162590108D01*
X361877122Y-162529039D01*
X362111885Y-162429016D01*
X362327562Y-162292630D01*
X362518569Y-162123413D01*
X362679958Y-161925747D01*
X362807549Y-161704753D01*
X362898038Y-161466153D01*
X362949081Y-161216128D01*
X362950426Y-161182750D01*
X363822133Y-161182750D01*
X363822135Y-161200168D01*
X363822999Y-161202254D01*
X363825463Y-161208202D01*
X363825463Y-161208203D01*
X363833499Y-161211532D01*
X363833500Y-161211532D01*
X363850935Y-161211532D01*
X363855283Y-161210667D01*
X377811717Y-161210667D01*
X377816065Y-161211532D01*
X377833500Y-161211532D01*
X377833501Y-161211532D01*
X377841536Y-161208203D01*
X377841536Y-161208202D01*
X377844001Y-161202254D01*
X377844001Y-161202252D01*
X377844865Y-161200167D01*
X377844864Y-161200165D01*
X377844865Y-161200164D01*
X377844866Y-161182750D01*
X377844000Y-161178391D01*
X377844000Y-161088851D01*
X378755244Y-161088851D01*
X378786002Y-161342165D01*
X378786004Y-161342173D01*
X378856997Y-161587271D01*
X378856998Y-161587273D01*
X378856999Y-161587276D01*
X378911719Y-161702595D01*
X378966398Y-161817829D01*
X379111349Y-162027827D01*
X379111350Y-162027828D01*
X379111354Y-162027832D01*
X379288125Y-162211870D01*
X379492129Y-162365169D01*
X379718081Y-162483758D01*
X379718086Y-162483759D01*
X379718089Y-162483761D01*
X379798266Y-162510527D01*
X379960131Y-162564566D01*
X380212009Y-162605500D01*
X380403289Y-162605500D01*
X380403294Y-162605500D01*
X380593955Y-162590108D01*
X380841722Y-162529039D01*
X381076485Y-162429016D01*
X381292162Y-162292630D01*
X381483169Y-162123413D01*
X381644558Y-161925747D01*
X381772149Y-161704753D01*
X381862638Y-161466153D01*
X381913681Y-161216128D01*
X381915027Y-161182733D01*
X382872133Y-161182733D01*
X382872135Y-161200151D01*
X382872999Y-161202237D01*
X382875463Y-161208185D01*
X382875463Y-161208186D01*
X382883499Y-161211515D01*
X382883500Y-161211515D01*
X382900935Y-161211515D01*
X382905283Y-161210650D01*
X396861717Y-161210650D01*
X396866065Y-161211515D01*
X396883500Y-161211515D01*
X396883501Y-161211515D01*
X396891536Y-161208186D01*
X396891536Y-161208185D01*
X396894001Y-161202237D01*
X396894001Y-161202235D01*
X396894865Y-161200150D01*
X396894864Y-161200148D01*
X396894865Y-161200147D01*
X396894866Y-161182733D01*
X396894000Y-161178374D01*
X396894000Y-147221932D01*
X396894865Y-147217585D01*
X396894865Y-147200149D01*
X396891536Y-147192113D01*
X396885588Y-147189649D01*
X396885586Y-147189649D01*
X396883500Y-147188785D01*
X396883499Y-147188785D01*
X396866065Y-147188785D01*
X396861717Y-147189650D01*
X382905283Y-147189650D01*
X382900935Y-147188785D01*
X382883500Y-147188785D01*
X382881412Y-147189650D01*
X382881411Y-147189649D01*
X382875464Y-147192113D01*
X382875463Y-147192113D01*
X382872135Y-147200149D01*
X382872135Y-147217585D01*
X382873000Y-147221932D01*
X382873000Y-161178374D01*
X382872133Y-161182733D01*
X381915027Y-161182733D01*
X381923956Y-160961153D01*
X381893197Y-160707831D01*
X381822201Y-160462724D01*
X381712806Y-160232179D01*
X381712803Y-160232175D01*
X381712801Y-160232170D01*
X381567850Y-160022172D01*
X381567849Y-160022171D01*
X381476039Y-159926587D01*
X381391075Y-159838130D01*
X381187071Y-159684831D01*
X380961119Y-159566242D01*
X380961118Y-159566241D01*
X380961110Y-159566238D01*
X380719072Y-159485435D01*
X380719062Y-159485432D01*
X380467191Y-159444500D01*
X380275906Y-159444500D01*
X380221081Y-159448926D01*
X380085245Y-159459891D01*
X380085240Y-159459892D01*
X379837477Y-159520961D01*
X379602714Y-159620984D01*
X379387040Y-159757367D01*
X379196029Y-159926588D01*
X379196029Y-159926589D01*
X379034643Y-160124251D01*
X378907050Y-160345248D01*
X378816561Y-160583849D01*
X378765519Y-160833868D01*
X378765519Y-160833871D01*
X378755244Y-161088851D01*
X377844000Y-161088851D01*
X377844000Y-147637851D01*
X378755244Y-147637851D01*
X378786002Y-147891165D01*
X378786004Y-147891173D01*
X378856997Y-148136271D01*
X378966398Y-148366829D01*
X379111349Y-148576827D01*
X379111350Y-148576828D01*
X379111354Y-148576832D01*
X379288125Y-148760870D01*
X379492129Y-148914169D01*
X379718081Y-149032758D01*
X379718086Y-149032759D01*
X379718089Y-149032761D01*
X379798266Y-149059527D01*
X379960131Y-149113566D01*
X380212009Y-149154500D01*
X380403289Y-149154500D01*
X380403294Y-149154500D01*
X380593955Y-149139108D01*
X380841722Y-149078039D01*
X381076485Y-148978016D01*
X381292162Y-148841630D01*
X381483169Y-148672413D01*
X381644558Y-148474747D01*
X381772149Y-148253753D01*
X381862638Y-148015153D01*
X381913681Y-147765128D01*
X381923956Y-147510153D01*
X381893197Y-147256831D01*
X381822201Y-147011724D01*
X381712806Y-146781179D01*
X381712803Y-146781175D01*
X381712801Y-146781170D01*
X381567850Y-146571172D01*
X381567849Y-146571171D01*
X381476039Y-146475587D01*
X381391075Y-146387130D01*
X381187071Y-146233831D01*
X381065421Y-146169984D01*
X380961121Y-146115243D01*
X380961110Y-146115238D01*
X380719072Y-146034435D01*
X380719062Y-146034432D01*
X380467191Y-145993500D01*
X380275906Y-145993500D01*
X380221081Y-145997926D01*
X380085245Y-146008891D01*
X380085240Y-146008892D01*
X379837477Y-146069961D01*
X379602714Y-146169984D01*
X379387040Y-146306367D01*
X379196029Y-146475588D01*
X379196029Y-146475589D01*
X379034643Y-146673251D01*
X378907050Y-146894248D01*
X378816561Y-147132849D01*
X378765519Y-147382868D01*
X378765519Y-147382871D01*
X378755244Y-147637851D01*
X377844000Y-147637851D01*
X377844000Y-147221949D01*
X377844865Y-147217602D01*
X377844865Y-147200166D01*
X377841536Y-147192130D01*
X377835588Y-147189666D01*
X377835586Y-147189666D01*
X377833500Y-147188802D01*
X377833499Y-147188802D01*
X377816065Y-147188802D01*
X377811717Y-147189667D01*
X363855283Y-147189667D01*
X363850935Y-147188802D01*
X363833500Y-147188802D01*
X363831412Y-147189667D01*
X363831411Y-147189666D01*
X363825464Y-147192130D01*
X363825463Y-147192130D01*
X363822135Y-147200166D01*
X363822135Y-147217602D01*
X363823000Y-147221949D01*
X363823000Y-161178391D01*
X363822133Y-161182750D01*
X362950426Y-161182750D01*
X362959356Y-160961153D01*
X362928597Y-160707831D01*
X362857601Y-160462724D01*
X362748206Y-160232179D01*
X362748203Y-160232175D01*
X362748201Y-160232170D01*
X362603250Y-160022172D01*
X362603249Y-160022171D01*
X362511439Y-159926587D01*
X362426475Y-159838130D01*
X362222471Y-159684831D01*
X361996519Y-159566242D01*
X361996518Y-159566241D01*
X361996510Y-159566238D01*
X361754472Y-159485435D01*
X361754462Y-159485432D01*
X361502591Y-159444500D01*
X361311306Y-159444500D01*
X361256481Y-159448926D01*
X361120645Y-159459891D01*
X361120640Y-159459892D01*
X360872877Y-159520961D01*
X360638114Y-159620984D01*
X360422440Y-159757367D01*
X360231429Y-159926588D01*
X360231429Y-159926589D01*
X360070043Y-160124251D01*
X359942450Y-160345248D01*
X359851961Y-160583849D01*
X359800919Y-160833868D01*
X359800919Y-160833871D01*
X359790644Y-161088851D01*
X358794000Y-161088851D01*
X358794000Y-147637851D01*
X359756044Y-147637851D01*
X359786802Y-147891165D01*
X359786804Y-147891173D01*
X359857797Y-148136271D01*
X359967198Y-148366829D01*
X360112149Y-148576827D01*
X360112150Y-148576828D01*
X360112154Y-148576832D01*
X360288925Y-148760870D01*
X360492929Y-148914169D01*
X360718881Y-149032758D01*
X360718886Y-149032759D01*
X360718889Y-149032761D01*
X360799066Y-149059527D01*
X360960931Y-149113566D01*
X361212809Y-149154500D01*
X361404089Y-149154500D01*
X361404094Y-149154500D01*
X361594755Y-149139108D01*
X361842522Y-149078039D01*
X362077285Y-148978016D01*
X362292962Y-148841630D01*
X362483969Y-148672413D01*
X362645358Y-148474747D01*
X362772949Y-148253753D01*
X362863438Y-148015153D01*
X362914481Y-147765128D01*
X362924756Y-147510153D01*
X362893997Y-147256831D01*
X362823001Y-147011724D01*
X362713606Y-146781179D01*
X362713603Y-146781175D01*
X362713601Y-146781170D01*
X362568650Y-146571172D01*
X362568649Y-146571171D01*
X362476839Y-146475587D01*
X362391875Y-146387130D01*
X362187871Y-146233831D01*
X362066221Y-146169984D01*
X361961921Y-146115243D01*
X361961910Y-146115238D01*
X361719872Y-146034435D01*
X361719862Y-146034432D01*
X361467991Y-145993500D01*
X361276706Y-145993500D01*
X361221881Y-145997926D01*
X361086045Y-146008891D01*
X361086040Y-146008892D01*
X360838277Y-146069961D01*
X360603514Y-146169984D01*
X360387840Y-146306367D01*
X360196829Y-146475588D01*
X360196829Y-146475589D01*
X360035443Y-146673251D01*
X359907850Y-146894248D01*
X359817361Y-147132849D01*
X359766319Y-147382868D01*
X359766319Y-147382871D01*
X359756044Y-147637851D01*
X358794000Y-147637851D01*
X358794000Y-147221932D01*
X358794865Y-147217585D01*
X358794865Y-147200149D01*
X358791536Y-147192113D01*
X358785588Y-147189649D01*
X358785586Y-147189649D01*
X358783500Y-147188785D01*
X358783499Y-147188785D01*
X358766065Y-147188785D01*
X358761717Y-147189650D01*
X344805283Y-147189650D01*
X344800935Y-147188785D01*
X344783500Y-147188785D01*
X344781412Y-147189650D01*
X344781411Y-147189649D01*
X344775464Y-147192113D01*
X344775463Y-147192113D01*
X344772135Y-147200149D01*
X344772135Y-147217585D01*
X344773000Y-147221932D01*
X344773000Y-161178374D01*
X344772133Y-161182733D01*
X341310500Y-161182733D01*
X341310500Y-147202585D01*
X341310636Y-147197404D01*
X341310913Y-147192113D01*
X341326605Y-146892688D01*
X341327688Y-146882389D01*
X341375018Y-146583561D01*
X341377165Y-146573456D01*
X341455478Y-146281189D01*
X341458669Y-146271367D01*
X341567105Y-145988881D01*
X341571300Y-145979460D01*
X341708672Y-145709850D01*
X341713836Y-145700907D01*
X341878626Y-145447154D01*
X341884696Y-145438799D01*
X342075107Y-145203661D01*
X342082022Y-145195980D01*
X342295980Y-144982022D01*
X342303661Y-144975107D01*
X342538799Y-144784696D01*
X342547154Y-144778626D01*
X342800907Y-144613836D01*
X342809850Y-144608672D01*
X343079460Y-144471300D01*
X343088881Y-144467105D01*
X343371367Y-144358669D01*
X343381189Y-144355478D01*
X343673456Y-144277165D01*
X343683561Y-144275018D01*
X343982396Y-144227687D01*
X343992688Y-144226605D01*
X344297405Y-144210636D01*
X344302586Y-144210500D01*
X357957771Y-144210500D01*
X357957774Y-144210500D01*
X358271592Y-144177516D01*
X358580244Y-144111910D01*
X358880347Y-144014400D01*
X359168614Y-143886056D01*
X359441886Y-143728282D01*
X359697169Y-143542808D01*
X359931666Y-143331666D01*
X360142808Y-143097169D01*
X360328282Y-142841886D01*
X360486056Y-142568614D01*
X360614400Y-142280347D01*
X360711910Y-141980244D01*
X360777516Y-141671592D01*
X360810500Y-141357774D01*
X360810500Y-141200000D01*
X360810500Y-141196588D01*
X360810500Y-140622713D01*
X363822133Y-140622713D01*
X363822135Y-140640131D01*
X363822999Y-140642217D01*
X363825463Y-140648165D01*
X363825463Y-140648166D01*
X363833499Y-140651495D01*
X363833500Y-140651495D01*
X363850935Y-140651495D01*
X363855283Y-140650630D01*
X377811717Y-140650630D01*
X377816065Y-140651495D01*
X377833500Y-140651495D01*
X377833501Y-140651495D01*
X377841536Y-140648166D01*
X377841536Y-140648165D01*
X377844001Y-140642217D01*
X377844001Y-140642215D01*
X377844865Y-140640130D01*
X377844864Y-140640128D01*
X377844865Y-140640127D01*
X377844866Y-140622713D01*
X377844000Y-140618354D01*
X377844000Y-126661912D01*
X377844865Y-126657565D01*
X377844865Y-126640129D01*
X377841536Y-126632093D01*
X377835588Y-126629629D01*
X377835586Y-126629629D01*
X377833500Y-126628765D01*
X377833499Y-126628765D01*
X377816065Y-126628765D01*
X377811717Y-126629630D01*
X363855283Y-126629630D01*
X363850935Y-126628765D01*
X363833500Y-126628765D01*
X363831412Y-126629630D01*
X363831411Y-126629629D01*
X363825464Y-126632093D01*
X363825463Y-126632093D01*
X363822135Y-126640129D01*
X363822135Y-126657565D01*
X363823000Y-126661912D01*
X363823000Y-140618354D01*
X363822133Y-140622713D01*
X360810500Y-140622713D01*
X360810500Y-126697912D01*
X360810500Y-126542226D01*
X360777516Y-126228408D01*
X360711910Y-125919756D01*
X360614400Y-125619653D01*
X360486056Y-125331386D01*
X360486054Y-125331383D01*
X360486049Y-125331373D01*
X360328287Y-125058123D01*
X360328282Y-125058114D01*
X360142808Y-124802831D01*
X360142806Y-124802828D01*
X359931676Y-124568345D01*
X359931675Y-124568344D01*
X359931666Y-124568334D01*
X359831750Y-124478369D01*
X359697171Y-124357193D01*
X359592911Y-124281444D01*
X359441886Y-124171718D01*
X359441876Y-124171712D01*
X359168626Y-124013950D01*
X359168609Y-124013941D01*
X358985622Y-123932471D01*
X358880347Y-123885600D01*
X358880345Y-123885599D01*
X358880343Y-123885598D01*
X358580250Y-123788091D01*
X358271592Y-123722484D01*
X357957777Y-123689500D01*
X357957774Y-123689500D01*
X357802088Y-123689500D01*
X344302586Y-123689500D01*
X344297405Y-123689364D01*
X344272242Y-123688045D01*
X343992694Y-123673394D01*
X343982389Y-123672311D01*
X343683576Y-123624984D01*
X343673440Y-123622830D01*
X343381197Y-123544523D01*
X343371350Y-123541323D01*
X343088897Y-123432900D01*
X343079445Y-123428692D01*
X342809866Y-123291335D01*
X342800892Y-123286153D01*
X342547169Y-123121383D01*
X342538785Y-123115292D01*
X342303671Y-122924900D01*
X342295970Y-122917967D01*
X342082032Y-122704029D01*
X342075099Y-122696328D01*
X341884703Y-122461208D01*
X341878616Y-122452830D01*
X341713846Y-122199107D01*
X341708668Y-122190140D01*
X341571303Y-121920546D01*
X341567102Y-121911111D01*
X341458671Y-121628638D01*
X341455476Y-121618802D01*
X341451196Y-121602828D01*
X341377166Y-121326547D01*
X341375017Y-121316434D01*
X341327687Y-121017605D01*
X341326605Y-121007304D01*
X341321881Y-120917173D01*
X341310636Y-120702595D01*
X341310500Y-120697414D01*
X341310500Y-120663851D01*
X359756044Y-120663851D01*
X359786802Y-120917165D01*
X359786804Y-120917173D01*
X359857797Y-121162271D01*
X359857798Y-121162273D01*
X359857799Y-121162276D01*
X359967194Y-121392821D01*
X359967198Y-121392829D01*
X360112149Y-121602827D01*
X360112150Y-121602828D01*
X360112154Y-121602832D01*
X360288925Y-121786870D01*
X360492929Y-121940169D01*
X360718881Y-122058758D01*
X360718886Y-122058759D01*
X360718889Y-122058761D01*
X360748403Y-122068614D01*
X360960931Y-122139566D01*
X361212809Y-122180500D01*
X361404089Y-122180500D01*
X361404094Y-122180500D01*
X361594755Y-122165108D01*
X361842522Y-122104039D01*
X362077285Y-122004016D01*
X362292962Y-121867630D01*
X362483969Y-121698413D01*
X362645358Y-121500747D01*
X362772949Y-121279753D01*
X362863438Y-121041153D01*
X362914481Y-120791128D01*
X362919610Y-120663851D01*
X378640644Y-120663851D01*
X378671402Y-120917165D01*
X378671404Y-120917173D01*
X378742397Y-121162271D01*
X378742398Y-121162273D01*
X378742399Y-121162276D01*
X378851794Y-121392821D01*
X378851798Y-121392829D01*
X378996749Y-121602827D01*
X378996750Y-121602828D01*
X378996754Y-121602832D01*
X379173525Y-121786870D01*
X379377529Y-121940169D01*
X379603481Y-122058758D01*
X379603486Y-122058759D01*
X379603489Y-122058761D01*
X379633003Y-122068614D01*
X379845531Y-122139566D01*
X380097409Y-122180500D01*
X380288689Y-122180500D01*
X380288694Y-122180500D01*
X380479355Y-122165108D01*
X380727122Y-122104039D01*
X380961885Y-122004016D01*
X381177562Y-121867630D01*
X381368569Y-121698413D01*
X381529958Y-121500747D01*
X381657549Y-121279753D01*
X381748038Y-121041153D01*
X381799081Y-120791128D01*
X381809356Y-120536153D01*
X381778597Y-120282831D01*
X381714836Y-120062701D01*
X382872133Y-120062701D01*
X382872135Y-120080119D01*
X382872999Y-120082205D01*
X382875463Y-120088153D01*
X382875463Y-120088154D01*
X382883499Y-120091483D01*
X382883500Y-120091483D01*
X382900935Y-120091483D01*
X382905283Y-120090618D01*
X396861717Y-120090618D01*
X396866065Y-120091483D01*
X396883500Y-120091483D01*
X396883501Y-120091483D01*
X396891536Y-120088154D01*
X396891536Y-120088153D01*
X396894001Y-120082205D01*
X396894001Y-120082203D01*
X396894865Y-120080118D01*
X396894864Y-120080116D01*
X396894865Y-120080115D01*
X396894866Y-120062701D01*
X396894000Y-120058342D01*
X396894000Y-106101900D01*
X396894865Y-106097553D01*
X396894865Y-106080117D01*
X396891536Y-106072081D01*
X396885588Y-106069617D01*
X396885586Y-106069617D01*
X396883500Y-106068753D01*
X396883499Y-106068753D01*
X396866065Y-106068753D01*
X396861717Y-106069618D01*
X382905283Y-106069618D01*
X382900935Y-106068753D01*
X382883500Y-106068753D01*
X382881412Y-106069618D01*
X382881411Y-106069617D01*
X382875464Y-106072081D01*
X382875463Y-106072081D01*
X382872135Y-106080117D01*
X382872135Y-106097553D01*
X382873000Y-106101900D01*
X382873000Y-120058342D01*
X382872133Y-120062701D01*
X381714836Y-120062701D01*
X381707601Y-120037724D01*
X381598206Y-119807179D01*
X381598203Y-119807175D01*
X381598201Y-119807170D01*
X381453250Y-119597172D01*
X381453249Y-119597171D01*
X381361439Y-119501587D01*
X381276475Y-119413130D01*
X381072471Y-119259831D01*
X380846519Y-119141242D01*
X380846518Y-119141241D01*
X380846510Y-119141238D01*
X380604472Y-119060435D01*
X380604462Y-119060432D01*
X380352591Y-119019500D01*
X380161306Y-119019500D01*
X380106481Y-119023926D01*
X379970645Y-119034891D01*
X379970640Y-119034892D01*
X379722877Y-119095961D01*
X379488114Y-119195984D01*
X379272440Y-119332367D01*
X379081429Y-119501588D01*
X379081429Y-119501589D01*
X378920043Y-119699251D01*
X378792450Y-119920248D01*
X378701961Y-120158849D01*
X378650919Y-120408868D01*
X378650919Y-120408871D01*
X378640644Y-120663851D01*
X362919610Y-120663851D01*
X362924756Y-120536153D01*
X362893997Y-120282831D01*
X362830236Y-120062701D01*
X363822133Y-120062701D01*
X363822135Y-120080119D01*
X363822999Y-120082205D01*
X363825463Y-120088153D01*
X363825463Y-120088154D01*
X363833499Y-120091483D01*
X363833500Y-120091483D01*
X363850935Y-120091483D01*
X363855283Y-120090618D01*
X377811717Y-120090618D01*
X377816065Y-120091483D01*
X377833500Y-120091483D01*
X377833501Y-120091483D01*
X377841536Y-120088154D01*
X377841536Y-120088153D01*
X377844001Y-120082205D01*
X377844001Y-120082203D01*
X377844865Y-120080118D01*
X377844864Y-120080116D01*
X377844865Y-120080115D01*
X377844866Y-120062701D01*
X377844000Y-120058342D01*
X377844000Y-106101900D01*
X377844865Y-106097553D01*
X377844865Y-106080117D01*
X377841536Y-106072081D01*
X377835588Y-106069617D01*
X377835586Y-106069617D01*
X377833500Y-106068753D01*
X377833499Y-106068753D01*
X377816065Y-106068753D01*
X377811717Y-106069618D01*
X363855283Y-106069618D01*
X363850935Y-106068753D01*
X363833500Y-106068753D01*
X363831412Y-106069618D01*
X363831411Y-106069617D01*
X363825464Y-106072081D01*
X363825463Y-106072081D01*
X363822135Y-106080117D01*
X363822135Y-106097553D01*
X363823000Y-106101900D01*
X363823000Y-120058342D01*
X363822133Y-120062701D01*
X362830236Y-120062701D01*
X362823001Y-120037724D01*
X362713606Y-119807179D01*
X362713603Y-119807175D01*
X362713601Y-119807170D01*
X362568650Y-119597172D01*
X362568649Y-119597171D01*
X362476839Y-119501587D01*
X362391875Y-119413130D01*
X362187871Y-119259831D01*
X361961919Y-119141242D01*
X361961918Y-119141241D01*
X361961910Y-119141238D01*
X361719872Y-119060435D01*
X361719862Y-119060432D01*
X361467991Y-119019500D01*
X361276706Y-119019500D01*
X361221881Y-119023926D01*
X361086045Y-119034891D01*
X361086040Y-119034892D01*
X360838277Y-119095961D01*
X360603514Y-119195984D01*
X360387840Y-119332367D01*
X360196829Y-119501588D01*
X360196829Y-119501589D01*
X360035443Y-119699251D01*
X359907850Y-119920248D01*
X359817361Y-120158849D01*
X359766319Y-120408868D01*
X359766319Y-120408871D01*
X359756044Y-120663851D01*
X341310500Y-120663851D01*
X341310500Y-120062701D01*
X344772133Y-120062701D01*
X344772135Y-120080119D01*
X344772999Y-120082205D01*
X344775463Y-120088153D01*
X344775463Y-120088154D01*
X344783499Y-120091483D01*
X344783500Y-120091483D01*
X344800935Y-120091483D01*
X344805283Y-120090618D01*
X358761717Y-120090618D01*
X358766065Y-120091483D01*
X358783500Y-120091483D01*
X358783501Y-120091483D01*
X358791536Y-120088154D01*
X358791536Y-120088153D01*
X358794001Y-120082205D01*
X358794001Y-120082203D01*
X358794865Y-120080118D01*
X358794864Y-120080116D01*
X358794865Y-120080115D01*
X358794866Y-120062701D01*
X358794000Y-120058342D01*
X358794000Y-106101900D01*
X358794865Y-106097553D01*
X358794865Y-106080117D01*
X358791536Y-106072081D01*
X358785588Y-106069617D01*
X358785586Y-106069617D01*
X358783500Y-106068753D01*
X358783499Y-106068753D01*
X358766065Y-106068753D01*
X358761717Y-106069618D01*
X344805283Y-106069618D01*
X344800935Y-106068753D01*
X344783500Y-106068753D01*
X344781412Y-106069618D01*
X344781411Y-106069617D01*
X344775464Y-106072081D01*
X344775463Y-106072081D01*
X344772135Y-106080117D01*
X344772135Y-106097553D01*
X344773000Y-106101900D01*
X344773000Y-120058342D01*
X344772133Y-120062701D01*
X341310500Y-120062701D01*
X341310500Y-102888851D01*
X343415644Y-102888851D01*
X343446402Y-103142165D01*
X343446404Y-103142173D01*
X343517397Y-103387271D01*
X343626798Y-103617829D01*
X343771749Y-103827827D01*
X343771750Y-103827828D01*
X343771754Y-103827832D01*
X343948525Y-104011870D01*
X344152529Y-104165169D01*
X344378481Y-104283758D01*
X344378486Y-104283759D01*
X344378489Y-104283761D01*
X344458666Y-104310527D01*
X344620531Y-104364566D01*
X344872409Y-104405500D01*
X345063689Y-104405500D01*
X345063694Y-104405500D01*
X345254355Y-104390108D01*
X345502122Y-104329039D01*
X345736885Y-104229016D01*
X345952562Y-104092630D01*
X346143569Y-103923413D01*
X346304958Y-103725747D01*
X346432549Y-103504753D01*
X346523038Y-103266153D01*
X346574081Y-103016128D01*
X346579210Y-102888851D01*
X394915644Y-102888851D01*
X394946402Y-103142165D01*
X394946404Y-103142173D01*
X395017397Y-103387271D01*
X395126798Y-103617829D01*
X395271749Y-103827827D01*
X395271750Y-103827828D01*
X395271754Y-103827832D01*
X395448525Y-104011870D01*
X395652529Y-104165169D01*
X395878481Y-104283758D01*
X395878486Y-104283759D01*
X395878489Y-104283761D01*
X395958666Y-104310527D01*
X396120531Y-104364566D01*
X396372409Y-104405500D01*
X396563689Y-104405500D01*
X396563694Y-104405500D01*
X396754355Y-104390108D01*
X397002122Y-104329039D01*
X397236885Y-104229016D01*
X397452562Y-104092630D01*
X397643569Y-103923413D01*
X397804958Y-103725747D01*
X397932549Y-103504753D01*
X398023038Y-103266153D01*
X398074081Y-103016128D01*
X398084356Y-102761153D01*
X398053597Y-102507831D01*
X397982601Y-102262724D01*
X397873206Y-102032179D01*
X397873203Y-102032175D01*
X397873201Y-102032170D01*
X397728250Y-101822172D01*
X397728249Y-101822171D01*
X397636439Y-101726587D01*
X397551475Y-101638130D01*
X397347471Y-101484831D01*
X397121519Y-101366242D01*
X397121518Y-101366241D01*
X397121510Y-101366238D01*
X396879472Y-101285435D01*
X396879462Y-101285432D01*
X396627591Y-101244500D01*
X396436306Y-101244500D01*
X396381481Y-101248926D01*
X396245645Y-101259891D01*
X396245640Y-101259892D01*
X395997877Y-101320961D01*
X395763114Y-101420984D01*
X395547440Y-101557367D01*
X395356429Y-101726588D01*
X395356429Y-101726589D01*
X395195043Y-101924251D01*
X395067450Y-102145248D01*
X394976961Y-102383849D01*
X394925919Y-102633868D01*
X394925919Y-102633871D01*
X394915644Y-102888851D01*
X346579210Y-102888851D01*
X346584356Y-102761153D01*
X346553597Y-102507831D01*
X346482601Y-102262724D01*
X346373206Y-102032179D01*
X346373203Y-102032175D01*
X346373201Y-102032170D01*
X346228250Y-101822172D01*
X346228249Y-101822171D01*
X346136439Y-101726587D01*
X346051475Y-101638130D01*
X345847471Y-101484831D01*
X345621519Y-101366242D01*
X345621518Y-101366241D01*
X345621510Y-101366238D01*
X345379472Y-101285435D01*
X345379462Y-101285432D01*
X345127591Y-101244500D01*
X344936306Y-101244500D01*
X344881481Y-101248926D01*
X344745645Y-101259891D01*
X344745640Y-101259892D01*
X344497877Y-101320961D01*
X344263114Y-101420984D01*
X344047440Y-101557367D01*
X343856429Y-101726588D01*
X343856429Y-101726589D01*
X343695043Y-101924251D01*
X343567450Y-102145248D01*
X343476961Y-102383849D01*
X343425919Y-102633868D01*
X343425919Y-102633871D01*
X343415644Y-102888851D01*
X341310500Y-102888851D01*
X341310500Y-99502680D01*
X344772133Y-99502680D01*
X344772135Y-99520098D01*
X344772999Y-99522184D01*
X344775463Y-99528132D01*
X344775463Y-99528133D01*
X344783499Y-99531462D01*
X344783500Y-99531462D01*
X344800935Y-99531462D01*
X344805283Y-99530597D01*
X358761717Y-99530597D01*
X358766065Y-99531462D01*
X358783500Y-99531462D01*
X358783501Y-99531462D01*
X358791536Y-99528133D01*
X358791536Y-99528132D01*
X358794001Y-99522184D01*
X358794001Y-99522182D01*
X358794865Y-99520097D01*
X358794864Y-99520095D01*
X358794865Y-99520094D01*
X358794866Y-99502680D01*
X363822133Y-99502680D01*
X363822135Y-99520098D01*
X363822999Y-99522184D01*
X363825463Y-99528132D01*
X363825463Y-99528133D01*
X363833499Y-99531462D01*
X363833500Y-99531462D01*
X363850935Y-99531462D01*
X363855283Y-99530597D01*
X377811717Y-99530597D01*
X377816065Y-99531462D01*
X377833500Y-99531462D01*
X377833501Y-99531462D01*
X377841536Y-99528133D01*
X377841536Y-99528132D01*
X377844001Y-99522184D01*
X377844001Y-99522182D01*
X377844865Y-99520097D01*
X377844864Y-99520095D01*
X377844865Y-99520094D01*
X377844866Y-99502680D01*
X382872133Y-99502680D01*
X382872135Y-99520098D01*
X382872999Y-99522184D01*
X382875463Y-99528132D01*
X382875463Y-99528133D01*
X382883499Y-99531462D01*
X382883500Y-99531462D01*
X382900935Y-99531462D01*
X382905283Y-99530597D01*
X396861717Y-99530597D01*
X396866065Y-99531462D01*
X396883500Y-99531462D01*
X396883501Y-99531462D01*
X396891536Y-99528133D01*
X396891536Y-99528132D01*
X396894001Y-99522184D01*
X396894001Y-99522182D01*
X396894865Y-99520097D01*
X396894864Y-99520095D01*
X396894865Y-99520094D01*
X396894866Y-99502680D01*
X396894000Y-99498321D01*
X396894000Y-85541879D01*
X396894865Y-85537532D01*
X396894865Y-85520096D01*
X396891536Y-85512060D01*
X396885588Y-85509596D01*
X396885586Y-85509596D01*
X396883500Y-85508732D01*
X396883499Y-85508732D01*
X396866065Y-85508732D01*
X396861717Y-85509597D01*
X382905283Y-85509597D01*
X382900935Y-85508732D01*
X382883500Y-85508732D01*
X382881412Y-85509597D01*
X382881411Y-85509596D01*
X382875464Y-85512060D01*
X382875463Y-85512060D01*
X382872135Y-85520096D01*
X382872135Y-85537532D01*
X382873000Y-85541879D01*
X382873000Y-99498321D01*
X382872133Y-99502680D01*
X377844866Y-99502680D01*
X377844000Y-99498321D01*
X377844000Y-85712651D01*
X378815644Y-85712651D01*
X378846402Y-85965965D01*
X378846404Y-85965973D01*
X378917397Y-86211071D01*
X379026798Y-86441629D01*
X379171749Y-86651627D01*
X379171750Y-86651628D01*
X379171754Y-86651632D01*
X379348525Y-86835670D01*
X379552529Y-86988969D01*
X379778481Y-87107558D01*
X379778486Y-87107559D01*
X379778489Y-87107561D01*
X379858666Y-87134327D01*
X380020531Y-87188366D01*
X380272409Y-87229300D01*
X380463689Y-87229300D01*
X380463694Y-87229300D01*
X380654355Y-87213908D01*
X380902122Y-87152839D01*
X381136885Y-87052816D01*
X381352562Y-86916430D01*
X381543569Y-86747213D01*
X381704958Y-86549547D01*
X381832549Y-86328553D01*
X381923038Y-86089953D01*
X381974081Y-85839928D01*
X381984356Y-85584953D01*
X381953597Y-85331631D01*
X381882601Y-85086524D01*
X381773206Y-84855979D01*
X381773203Y-84855975D01*
X381773201Y-84855970D01*
X381628250Y-84645972D01*
X381628249Y-84645971D01*
X381536439Y-84550387D01*
X381451475Y-84461930D01*
X381247471Y-84308631D01*
X381021519Y-84190042D01*
X381021518Y-84190041D01*
X381021510Y-84190038D01*
X380779472Y-84109235D01*
X380779462Y-84109232D01*
X380527591Y-84068300D01*
X380336306Y-84068300D01*
X380281481Y-84072726D01*
X380145645Y-84083691D01*
X380145640Y-84083692D01*
X379897877Y-84144761D01*
X379663114Y-84244784D01*
X379447440Y-84381167D01*
X379256429Y-84550388D01*
X379256429Y-84550389D01*
X379095043Y-84748051D01*
X378967450Y-84969048D01*
X378876961Y-85207649D01*
X378825919Y-85457668D01*
X378825919Y-85457671D01*
X378825919Y-85457672D01*
X378816050Y-85702585D01*
X378815644Y-85712651D01*
X377844000Y-85712651D01*
X377844000Y-85541879D01*
X377844865Y-85537532D01*
X377844865Y-85520096D01*
X377841536Y-85512060D01*
X377835588Y-85509596D01*
X377835586Y-85509596D01*
X377833500Y-85508732D01*
X377833499Y-85508732D01*
X377816065Y-85508732D01*
X377811717Y-85509597D01*
X363855283Y-85509597D01*
X363850935Y-85508732D01*
X363833500Y-85508732D01*
X363831412Y-85509597D01*
X363831411Y-85509596D01*
X363825464Y-85512060D01*
X363825463Y-85512060D01*
X363822135Y-85520096D01*
X363822135Y-85537532D01*
X363823000Y-85541879D01*
X363823000Y-99498321D01*
X363822133Y-99502680D01*
X358794866Y-99502680D01*
X358794000Y-99498321D01*
X358794000Y-85712651D01*
X359730644Y-85712651D01*
X359761402Y-85965965D01*
X359761404Y-85965973D01*
X359832397Y-86211071D01*
X359941798Y-86441629D01*
X360086749Y-86651627D01*
X360086750Y-86651628D01*
X360086754Y-86651632D01*
X360263525Y-86835670D01*
X360467529Y-86988969D01*
X360693481Y-87107558D01*
X360693486Y-87107559D01*
X360693489Y-87107561D01*
X360773666Y-87134327D01*
X360935531Y-87188366D01*
X361187409Y-87229300D01*
X361378689Y-87229300D01*
X361378694Y-87229300D01*
X361569355Y-87213908D01*
X361817122Y-87152839D01*
X362051885Y-87052816D01*
X362267562Y-86916430D01*
X362458569Y-86747213D01*
X362619958Y-86549547D01*
X362747549Y-86328553D01*
X362838038Y-86089953D01*
X362889081Y-85839928D01*
X362899356Y-85584953D01*
X362868597Y-85331631D01*
X362797601Y-85086524D01*
X362688206Y-84855979D01*
X362688203Y-84855975D01*
X362688201Y-84855970D01*
X362543250Y-84645972D01*
X362543249Y-84645971D01*
X362451439Y-84550387D01*
X362366475Y-84461930D01*
X362162471Y-84308631D01*
X361936519Y-84190042D01*
X361936518Y-84190041D01*
X361936510Y-84190038D01*
X361694472Y-84109235D01*
X361694462Y-84109232D01*
X361442591Y-84068300D01*
X361251306Y-84068300D01*
X361196481Y-84072726D01*
X361060645Y-84083691D01*
X361060640Y-84083692D01*
X360812877Y-84144761D01*
X360578114Y-84244784D01*
X360362440Y-84381167D01*
X360171429Y-84550388D01*
X360171429Y-84550389D01*
X360010043Y-84748051D01*
X359882450Y-84969048D01*
X359791961Y-85207649D01*
X359740919Y-85457668D01*
X359740919Y-85457671D01*
X359740919Y-85457672D01*
X359731050Y-85702585D01*
X359730644Y-85712651D01*
X358794000Y-85712651D01*
X358794000Y-85541879D01*
X358794865Y-85537532D01*
X358794865Y-85520096D01*
X358791536Y-85512060D01*
X358785588Y-85509596D01*
X358785586Y-85509596D01*
X358783500Y-85508732D01*
X358783499Y-85508732D01*
X358766065Y-85508732D01*
X358761717Y-85509597D01*
X344805283Y-85509597D01*
X344800935Y-85508732D01*
X344783500Y-85508732D01*
X344781412Y-85509597D01*
X344781411Y-85509596D01*
X344775464Y-85512060D01*
X344775463Y-85512060D01*
X344772135Y-85520096D01*
X344772135Y-85537532D01*
X344773000Y-85541879D01*
X344773000Y-99498321D01*
X344772133Y-99502680D01*
X341310500Y-99502680D01*
X341310500Y-85702585D01*
X341310636Y-85697404D01*
X341316529Y-85584953D01*
X341326605Y-85392688D01*
X341327688Y-85382389D01*
X341335727Y-85331634D01*
X341375018Y-85083561D01*
X341377165Y-85073456D01*
X341455478Y-84781189D01*
X341458669Y-84771367D01*
X341567105Y-84488881D01*
X341571300Y-84479460D01*
X341708672Y-84209850D01*
X341713836Y-84200907D01*
X341878626Y-83947154D01*
X341884696Y-83938799D01*
X342075107Y-83703661D01*
X342082022Y-83695980D01*
X342295980Y-83482022D01*
X342303661Y-83475107D01*
X342538799Y-83284696D01*
X342547154Y-83278626D01*
X342800907Y-83113836D01*
X342809850Y-83108672D01*
X343079460Y-82971300D01*
X343088881Y-82967105D01*
X343371367Y-82858669D01*
X343381189Y-82855478D01*
X343673456Y-82777165D01*
X343683561Y-82775018D01*
X343982396Y-82727687D01*
X343992688Y-82726605D01*
X344297405Y-82710636D01*
X344302586Y-82710500D01*
X344303412Y-82710500D01*
X397296588Y-82710500D01*
X397297414Y-82710500D01*
X397302595Y-82710636D01*
G37*
G04 #@! TD.AperFunction*
M02*
