%TF.GenerationSoftware,KiCad,Pcbnew,7.0.11+dfsg-1build4*%
%TF.CreationDate,2026-06-02T17:22:27-04:00*%
%TF.ProjectId,mission-control-plate-nav,6d697373-696f-46e2-9d63-6f6e74726f6c,rev?*%
%TF.SameCoordinates,Original*%
%TF.FileFunction,Drillmap*%
%TF.FilePolarity,Positive*%
%FSLAX45Y45*%
G04 Gerber Fmt 4.5, Leading zero omitted, Abs format (unit mm)*
G04 Created by KiCad (PCBNEW 7.0.11+dfsg-1build4) date 2026-06-02 17:22:27*
%MOMM*%
%LPD*%
G01*
G04 APERTURE LIST*
%ADD10C,0.150000*%
%ADD11C,0.120000*%
%ADD12C,0.200000*%
G04 APERTURE END LIST*
D10*
X40030000Y-8570000D02*
G75*
G03*
X39730000Y-8270000I-300000J0D01*
G01*
X34430000Y-12370000D02*
X35780000Y-12370000D01*
X39730000Y-12370000D02*
G75*
G03*
X40030000Y-12070000I0J300000D01*
G01*
X36080000Y-12670000D02*
X36080000Y-14120000D01*
X36080000Y-16770000D02*
G75*
G03*
X35780000Y-16470000I-300000J0D01*
G01*
X39730000Y-16470000D02*
G75*
G03*
X40030000Y-16170000I0J300000D01*
G01*
X34430000Y-14420000D02*
G75*
G03*
X34130000Y-14720000I0J-300000D01*
G01*
X34430000Y-8270000D02*
G75*
G03*
X34130000Y-8570000I0J-300000D01*
G01*
X35780000Y-14420000D02*
G75*
G03*
X36080000Y-14120000I0J300000D01*
G01*
X36080000Y-18170000D02*
G75*
G03*
X36380000Y-18470000I300000J0D01*
G01*
X34430000Y-16470000D02*
X35780000Y-16470000D01*
X34130000Y-16170000D02*
G75*
G03*
X34430000Y-16470000I300000J0D01*
G01*
X38080000Y-18170000D02*
X38080000Y-16770000D01*
X37780000Y-18470000D02*
G75*
G03*
X38080000Y-18170000I0J300000D01*
G01*
X36380000Y-18470000D02*
X37780000Y-18470000D01*
X38380000Y-12370000D02*
G75*
G03*
X38080000Y-12670000I0J-300000D01*
G01*
X34130000Y-14720000D02*
X34130000Y-16170000D01*
X36080000Y-12670000D02*
G75*
G03*
X35780000Y-12370000I-300000J0D01*
G01*
X38080000Y-14120000D02*
G75*
G03*
X38380000Y-14420000I300000J0D01*
G01*
X34130000Y-12070000D02*
G75*
G03*
X34430000Y-12370000I300000J0D01*
G01*
X34430000Y-14420000D02*
X35780000Y-14420000D01*
X38380000Y-16470000D02*
X39730000Y-16470000D01*
X38080000Y-12670000D02*
X38080000Y-14120000D01*
X40030000Y-14720000D02*
G75*
G03*
X39730000Y-14420000I-300000J0D01*
G01*
X38380000Y-14420000D02*
X39730000Y-14420000D01*
X34430000Y-8270000D02*
X39730000Y-8270000D01*
X34130000Y-8570000D02*
X34130000Y-12070000D01*
X40030000Y-8570000D02*
X40030000Y-12070000D01*
X38380000Y-12370000D02*
X39730000Y-12370000D01*
X36080000Y-16770000D02*
X36080000Y-18170000D01*
X40030000Y-16170000D02*
X40030000Y-14720000D01*
X38380000Y-16470000D02*
G75*
G03*
X38080000Y-16770000I0J-300000D01*
G01*
D11*
X38288350Y-14720015D02*
X39688350Y-14720015D01*
X38288350Y-16120015D02*
X38288350Y-14720015D01*
X39688350Y-14720015D02*
X39688350Y-16120015D01*
X39688350Y-16120015D02*
X38288350Y-16120015D01*
X34478350Y-10608012D02*
X35878350Y-10608012D01*
X34478350Y-12008012D02*
X34478350Y-10608012D01*
X35878350Y-10608012D02*
X35878350Y-12008012D01*
X35878350Y-12008012D02*
X34478350Y-12008012D01*
X34478350Y-14720015D02*
X35878350Y-14720015D01*
X34478350Y-16120015D02*
X34478350Y-14720015D01*
X35878350Y-14720015D02*
X35878350Y-16120015D01*
X35878350Y-16120015D02*
X34478350Y-16120015D01*
X37783350Y-9952010D02*
X36383350Y-9952010D01*
X37783350Y-8552010D02*
X37783350Y-9952010D01*
X36383350Y-9952010D02*
X36383350Y-8552010D01*
X36383350Y-8552010D02*
X37783350Y-8552010D01*
X39688350Y-9952010D02*
X38288350Y-9952010D01*
X39688350Y-8552010D02*
X39688350Y-9952010D01*
X38288350Y-9952010D02*
X38288350Y-8552010D01*
X38288350Y-8552010D02*
X39688350Y-8552010D01*
X37783350Y-12008012D02*
X36383350Y-12008012D01*
X37783350Y-10608012D02*
X37783350Y-12008012D01*
X36383350Y-12008012D02*
X36383350Y-10608012D01*
X36383350Y-10608012D02*
X37783350Y-10608012D01*
X37783350Y-16120017D02*
X36383350Y-16120017D01*
X37783350Y-14720017D02*
X37783350Y-16120017D01*
X36383350Y-16120017D02*
X36383350Y-14720017D01*
X36383350Y-14720017D02*
X37783350Y-14720017D01*
X35878350Y-9952010D02*
X34478350Y-9952010D01*
X35878350Y-8552010D02*
X35878350Y-9952010D01*
X34478350Y-9952010D02*
X34478350Y-8552010D01*
X34478350Y-8552010D02*
X35878350Y-8552010D01*
X39688350Y-12008012D02*
X38288350Y-12008012D01*
X39688350Y-10608012D02*
X39688350Y-12008012D01*
X38288350Y-12008012D02*
X38288350Y-10608012D01*
X38288350Y-10608012D02*
X39688350Y-10608012D01*
X37783350Y-18176019D02*
X36383350Y-18176019D01*
X37783350Y-16776019D02*
X37783350Y-18176019D01*
X36383350Y-18176019D02*
X36383350Y-16776019D01*
X36383350Y-16776019D02*
X37783350Y-16776019D01*
X37783350Y-14064013D02*
X36383350Y-14064013D01*
X37783350Y-12664013D02*
X37783350Y-14064013D01*
X36383350Y-14064013D02*
X36383350Y-12664013D01*
X36383350Y-12664013D02*
X37783350Y-12664013D01*
D12*
X34383277Y-18788984D02*
X34383277Y-18588984D01*
X34383277Y-18588984D02*
X34430896Y-18588984D01*
X34430896Y-18588984D02*
X34459467Y-18598508D01*
X34459467Y-18598508D02*
X34478515Y-18617555D01*
X34478515Y-18617555D02*
X34488039Y-18636603D01*
X34488039Y-18636603D02*
X34497563Y-18674698D01*
X34497563Y-18674698D02*
X34497563Y-18703270D01*
X34497563Y-18703270D02*
X34488039Y-18741365D01*
X34488039Y-18741365D02*
X34478515Y-18760412D01*
X34478515Y-18760412D02*
X34459467Y-18779460D01*
X34459467Y-18779460D02*
X34430896Y-18788984D01*
X34430896Y-18788984D02*
X34383277Y-18788984D01*
X34583277Y-18788984D02*
X34583277Y-18655650D01*
X34583277Y-18693746D02*
X34592801Y-18674698D01*
X34592801Y-18674698D02*
X34602324Y-18665174D01*
X34602324Y-18665174D02*
X34621372Y-18655650D01*
X34621372Y-18655650D02*
X34640420Y-18655650D01*
X34707086Y-18788984D02*
X34707086Y-18655650D01*
X34707086Y-18588984D02*
X34697563Y-18598508D01*
X34697563Y-18598508D02*
X34707086Y-18608031D01*
X34707086Y-18608031D02*
X34716610Y-18598508D01*
X34716610Y-18598508D02*
X34707086Y-18588984D01*
X34707086Y-18588984D02*
X34707086Y-18608031D01*
X34830896Y-18788984D02*
X34811848Y-18779460D01*
X34811848Y-18779460D02*
X34802324Y-18760412D01*
X34802324Y-18760412D02*
X34802324Y-18588984D01*
X34935658Y-18788984D02*
X34916610Y-18779460D01*
X34916610Y-18779460D02*
X34907086Y-18760412D01*
X34907086Y-18760412D02*
X34907086Y-18588984D01*
X35164229Y-18788984D02*
X35164229Y-18588984D01*
X35164229Y-18588984D02*
X35230896Y-18731841D01*
X35230896Y-18731841D02*
X35297563Y-18588984D01*
X35297563Y-18588984D02*
X35297563Y-18788984D01*
X35478515Y-18788984D02*
X35478515Y-18684222D01*
X35478515Y-18684222D02*
X35468991Y-18665174D01*
X35468991Y-18665174D02*
X35449944Y-18655650D01*
X35449944Y-18655650D02*
X35411848Y-18655650D01*
X35411848Y-18655650D02*
X35392801Y-18665174D01*
X35478515Y-18779460D02*
X35459467Y-18788984D01*
X35459467Y-18788984D02*
X35411848Y-18788984D01*
X35411848Y-18788984D02*
X35392801Y-18779460D01*
X35392801Y-18779460D02*
X35383277Y-18760412D01*
X35383277Y-18760412D02*
X35383277Y-18741365D01*
X35383277Y-18741365D02*
X35392801Y-18722317D01*
X35392801Y-18722317D02*
X35411848Y-18712793D01*
X35411848Y-18712793D02*
X35459467Y-18712793D01*
X35459467Y-18712793D02*
X35478515Y-18703270D01*
X35573753Y-18655650D02*
X35573753Y-18855650D01*
X35573753Y-18665174D02*
X35592801Y-18655650D01*
X35592801Y-18655650D02*
X35630896Y-18655650D01*
X35630896Y-18655650D02*
X35649944Y-18665174D01*
X35649944Y-18665174D02*
X35659467Y-18674698D01*
X35659467Y-18674698D02*
X35668991Y-18693746D01*
X35668991Y-18693746D02*
X35668991Y-18750889D01*
X35668991Y-18750889D02*
X35659467Y-18769936D01*
X35659467Y-18769936D02*
X35649944Y-18779460D01*
X35649944Y-18779460D02*
X35630896Y-18788984D01*
X35630896Y-18788984D02*
X35592801Y-18788984D01*
X35592801Y-18788984D02*
X35573753Y-18779460D01*
X35754705Y-18769936D02*
X35764229Y-18779460D01*
X35764229Y-18779460D02*
X35754705Y-18788984D01*
X35754705Y-18788984D02*
X35745182Y-18779460D01*
X35745182Y-18779460D02*
X35754705Y-18769936D01*
X35754705Y-18769936D02*
X35754705Y-18788984D01*
X35754705Y-18665174D02*
X35764229Y-18674698D01*
X35764229Y-18674698D02*
X35754705Y-18684222D01*
X35754705Y-18684222D02*
X35745182Y-18674698D01*
X35745182Y-18674698D02*
X35754705Y-18665174D01*
X35754705Y-18665174D02*
X35754705Y-18684222D01*
M02*
