G04 #@! TF.GenerationSoftware,KiCad,Pcbnew,7.0.11+dfsg-1build4*
G04 #@! TF.CreationDate,2026-06-02T17:22:24-04:00*
G04 #@! TF.ProjectId,mission-control-plate-nav,6d697373-696f-46e2-9d63-6f6e74726f6c,rev?*
G04 #@! TF.SameCoordinates,Original*
G04 #@! TF.FileFunction,Profile,NP*
%FSLAX46Y46*%
G04 Gerber Fmt 4.6, Leading zero omitted, Abs format (unit mm)*
G04 Created by KiCad (PCBNEW 7.0.11+dfsg-1build4) date 2026-06-02 17:22:24*
%MOMM*%
%LPD*%
G01*
G04 APERTURE LIST*
G04 #@! TA.AperFunction,Profile*
%ADD10C,0.150000*%
G04 #@! TD*
G04 #@! TA.AperFunction,Profile*
%ADD11C,0.120000*%
G04 #@! TD*
G04 APERTURE END LIST*
D10*
X400300000Y-85700000D02*
G75*
G03*
X397300000Y-82700000I-3000000J0D01*
G01*
X344300000Y-123700000D02*
X357800000Y-123700000D01*
X397300000Y-123700000D02*
G75*
G03*
X400300000Y-120700000I0J3000000D01*
G01*
X360800000Y-126700000D02*
X360800000Y-141200000D01*
X360800000Y-167700000D02*
G75*
G03*
X357800000Y-164700000I-3000000J0D01*
G01*
X397300000Y-164700000D02*
G75*
G03*
X400300000Y-161700000I0J3000000D01*
G01*
X344300000Y-144200000D02*
G75*
G03*
X341300000Y-147200000I0J-3000000D01*
G01*
X344300000Y-82700000D02*
G75*
G03*
X341300000Y-85700000I0J-3000000D01*
G01*
X357800000Y-144200000D02*
G75*
G03*
X360800000Y-141200000I0J3000000D01*
G01*
X360800000Y-181700000D02*
G75*
G03*
X363800000Y-184700000I3000000J0D01*
G01*
X344300000Y-164700000D02*
X357800000Y-164700000D01*
X341300000Y-161700000D02*
G75*
G03*
X344300000Y-164700000I3000000J0D01*
G01*
X380800000Y-181700000D02*
X380800000Y-167700000D01*
X377800000Y-184700000D02*
G75*
G03*
X380800000Y-181700000I0J3000000D01*
G01*
X363800000Y-184700000D02*
X377800000Y-184700000D01*
X383800000Y-123700000D02*
G75*
G03*
X380800000Y-126700000I0J-3000000D01*
G01*
X341300000Y-147200000D02*
X341300000Y-161700000D01*
X360800000Y-126700000D02*
G75*
G03*
X357800000Y-123700000I-3000000J0D01*
G01*
X380800000Y-141200000D02*
G75*
G03*
X383800000Y-144200000I3000000J0D01*
G01*
X341300000Y-120700000D02*
G75*
G03*
X344300000Y-123700000I3000000J0D01*
G01*
X344300000Y-144200000D02*
X357800000Y-144200000D01*
X383800000Y-164700000D02*
X397300000Y-164700000D01*
X380800000Y-126700000D02*
X380800000Y-141200000D01*
X400300000Y-147200000D02*
G75*
G03*
X397300000Y-144200000I-3000000J0D01*
G01*
X383800000Y-144200000D02*
X397300000Y-144200000D01*
X344300000Y-82700000D02*
X397300000Y-82700000D01*
X341300000Y-85700000D02*
X341300000Y-120700000D01*
X400300000Y-85700000D02*
X400300000Y-120700000D01*
X383800000Y-123700000D02*
X397300000Y-123700000D01*
X360800000Y-167700000D02*
X360800000Y-181700000D01*
X400300000Y-161700000D02*
X400300000Y-147200000D01*
X383800000Y-164700000D02*
G75*
G03*
X380800000Y-167700000I0J-3000000D01*
G01*
D11*
X382883500Y-147200150D02*
X396883500Y-147200150D01*
X382883500Y-161200150D02*
X382883500Y-147200150D01*
X396883500Y-147200150D02*
X396883500Y-161200150D01*
X396883500Y-161200150D02*
X382883500Y-161200150D01*
X344783500Y-106080118D02*
X358783500Y-106080118D01*
X344783500Y-120080118D02*
X344783500Y-106080118D01*
X358783500Y-106080118D02*
X358783500Y-120080118D01*
X358783500Y-120080118D02*
X344783500Y-120080118D01*
X344783500Y-147200150D02*
X358783500Y-147200150D01*
X344783500Y-161200150D02*
X344783500Y-147200150D01*
X358783500Y-147200150D02*
X358783500Y-161200150D01*
X358783500Y-161200150D02*
X344783500Y-161200150D01*
X377833500Y-99520097D02*
X363833500Y-99520097D01*
X377833500Y-85520097D02*
X377833500Y-99520097D01*
X363833500Y-99520097D02*
X363833500Y-85520097D01*
X363833500Y-85520097D02*
X377833500Y-85520097D01*
X396883500Y-99520097D02*
X382883500Y-99520097D01*
X396883500Y-85520097D02*
X396883500Y-99520097D01*
X382883500Y-99520097D02*
X382883500Y-85520097D01*
X382883500Y-85520097D02*
X396883500Y-85520097D01*
X377833500Y-120080118D02*
X363833500Y-120080118D01*
X377833500Y-106080118D02*
X377833500Y-120080118D01*
X363833500Y-120080118D02*
X363833500Y-106080118D01*
X363833500Y-106080118D02*
X377833500Y-106080118D01*
X377833500Y-161200167D02*
X363833500Y-161200167D01*
X377833500Y-147200167D02*
X377833500Y-161200167D01*
X363833500Y-161200167D02*
X363833500Y-147200167D01*
X363833500Y-147200167D02*
X377833500Y-147200167D01*
X358783500Y-99520097D02*
X344783500Y-99520097D01*
X358783500Y-85520097D02*
X358783500Y-99520097D01*
X344783500Y-99520097D02*
X344783500Y-85520097D01*
X344783500Y-85520097D02*
X358783500Y-85520097D01*
X396883500Y-120080118D02*
X382883500Y-120080118D01*
X396883500Y-106080118D02*
X396883500Y-120080118D01*
X382883500Y-120080118D02*
X382883500Y-106080118D01*
X382883500Y-106080118D02*
X396883500Y-106080118D01*
X377833500Y-181760188D02*
X363833500Y-181760188D01*
X377833500Y-167760188D02*
X377833500Y-181760188D01*
X363833500Y-181760188D02*
X363833500Y-167760188D01*
X363833500Y-167760188D02*
X377833500Y-167760188D01*
X377833500Y-140640130D02*
X363833500Y-140640130D01*
X377833500Y-126640130D02*
X377833500Y-140640130D01*
X363833500Y-140640130D02*
X363833500Y-126640130D01*
X363833500Y-126640130D02*
X377833500Y-126640130D01*
M02*
