%TF.GenerationSoftware,KiCad,Pcbnew,7.0.11+dfsg-1build4*%
%TF.CreationDate,2026-06-02T17:22:27-04:00*%
%TF.ProjectId,mission-control-plate-nav,6d697373-696f-46e2-9d63-6f6e74726f6c,rev?*%
%TF.SameCoordinates,Original*%
%TF.FileFunction,Drillmap*%
%TF.FilePolarity,Positive*%
%FSLAX45Y45*%
G04 Gerber Fmt 4.5, Leading zero omitted, Abs format (unit mm)*
G04 Created by KiCad (PCBNEW 7.0.11+dfsg-1build4) date 2026-06-02 17:22:27*
%MOMM*%
%LPD*%
G01*
G04 APERTURE LIST*
%ADD10C,0.150000*%
%ADD11C,0.120000*%
%ADD12C,0.200000*%
%ADD13C,0.270000*%
G04 APERTURE END LIST*
D10*
X40030000Y-8570000D02*
G75*
G03*
X39730000Y-8270000I-300000J0D01*
G01*
X34430000Y-12370000D02*
X35780000Y-12370000D01*
X39730000Y-12370000D02*
G75*
G03*
X40030000Y-12070000I0J300000D01*
G01*
X36080000Y-12670000D02*
X36080000Y-14120000D01*
X36080000Y-16770000D02*
G75*
G03*
X35780000Y-16470000I-300000J0D01*
G01*
X39730000Y-16470000D02*
G75*
G03*
X40030000Y-16170000I0J300000D01*
G01*
X34430000Y-14420000D02*
G75*
G03*
X34130000Y-14720000I0J-300000D01*
G01*
X34430000Y-8270000D02*
G75*
G03*
X34130000Y-8570000I0J-300000D01*
G01*
X35780000Y-14420000D02*
G75*
G03*
X36080000Y-14120000I0J300000D01*
G01*
X36080000Y-18170000D02*
G75*
G03*
X36380000Y-18470000I300000J0D01*
G01*
X34430000Y-16470000D02*
X35780000Y-16470000D01*
X34130000Y-16170000D02*
G75*
G03*
X34430000Y-16470000I300000J0D01*
G01*
X38080000Y-18170000D02*
X38080000Y-16770000D01*
X37780000Y-18470000D02*
G75*
G03*
X38080000Y-18170000I0J300000D01*
G01*
X36380000Y-18470000D02*
X37780000Y-18470000D01*
X38380000Y-12370000D02*
G75*
G03*
X38080000Y-12670000I0J-300000D01*
G01*
X34130000Y-14720000D02*
X34130000Y-16170000D01*
X36080000Y-12670000D02*
G75*
G03*
X35780000Y-12370000I-300000J0D01*
G01*
X38080000Y-14120000D02*
G75*
G03*
X38380000Y-14420000I300000J0D01*
G01*
X34130000Y-12070000D02*
G75*
G03*
X34430000Y-12370000I300000J0D01*
G01*
X34430000Y-14420000D02*
X35780000Y-14420000D01*
X38380000Y-16470000D02*
X39730000Y-16470000D01*
X38080000Y-12670000D02*
X38080000Y-14120000D01*
X40030000Y-14720000D02*
G75*
G03*
X39730000Y-14420000I-300000J0D01*
G01*
X38380000Y-14420000D02*
X39730000Y-14420000D01*
X34430000Y-8270000D02*
X39730000Y-8270000D01*
X34130000Y-8570000D02*
X34130000Y-12070000D01*
X40030000Y-8570000D02*
X40030000Y-12070000D01*
X38380000Y-12370000D02*
X39730000Y-12370000D01*
X36080000Y-16770000D02*
X36080000Y-18170000D01*
X40030000Y-16170000D02*
X40030000Y-14720000D01*
X38380000Y-16470000D02*
G75*
G03*
X38080000Y-16770000I0J-300000D01*
G01*
D11*
X38288350Y-14720015D02*
X39688350Y-14720015D01*
X38288350Y-16120015D02*
X38288350Y-14720015D01*
X39688350Y-14720015D02*
X39688350Y-16120015D01*
X39688350Y-16120015D02*
X38288350Y-16120015D01*
X34478350Y-10608012D02*
X35878350Y-10608012D01*
X34478350Y-12008012D02*
X34478350Y-10608012D01*
X35878350Y-10608012D02*
X35878350Y-12008012D01*
X35878350Y-12008012D02*
X34478350Y-12008012D01*
X34478350Y-14720015D02*
X35878350Y-14720015D01*
X34478350Y-16120015D02*
X34478350Y-14720015D01*
X35878350Y-14720015D02*
X35878350Y-16120015D01*
X35878350Y-16120015D02*
X34478350Y-16120015D01*
X37783350Y-9952010D02*
X36383350Y-9952010D01*
X37783350Y-8552010D02*
X37783350Y-9952010D01*
X36383350Y-9952010D02*
X36383350Y-8552010D01*
X36383350Y-8552010D02*
X37783350Y-8552010D01*
X39688350Y-9952010D02*
X38288350Y-9952010D01*
X39688350Y-8552010D02*
X39688350Y-9952010D01*
X38288350Y-9952010D02*
X38288350Y-8552010D01*
X38288350Y-8552010D02*
X39688350Y-8552010D01*
X37783350Y-12008012D02*
X36383350Y-12008012D01*
X37783350Y-10608012D02*
X37783350Y-12008012D01*
X36383350Y-12008012D02*
X36383350Y-10608012D01*
X36383350Y-10608012D02*
X37783350Y-10608012D01*
X37783350Y-16120017D02*
X36383350Y-16120017D01*
X37783350Y-14720017D02*
X37783350Y-16120017D01*
X36383350Y-16120017D02*
X36383350Y-14720017D01*
X36383350Y-14720017D02*
X37783350Y-14720017D01*
X35878350Y-9952010D02*
X34478350Y-9952010D01*
X35878350Y-8552010D02*
X35878350Y-9952010D01*
X34478350Y-9952010D02*
X34478350Y-8552010D01*
X34478350Y-8552010D02*
X35878350Y-8552010D01*
X39688350Y-12008012D02*
X38288350Y-12008012D01*
X39688350Y-10608012D02*
X39688350Y-12008012D01*
X38288350Y-12008012D02*
X38288350Y-10608012D01*
X38288350Y-10608012D02*
X39688350Y-10608012D01*
X37783350Y-18176019D02*
X36383350Y-18176019D01*
X37783350Y-16776019D02*
X37783350Y-18176019D01*
X36383350Y-18176019D02*
X36383350Y-16776019D01*
X36383350Y-16776019D02*
X37783350Y-16776019D01*
X37783350Y-14064013D02*
X36383350Y-14064013D01*
X37783350Y-12664013D02*
X37783350Y-14064013D01*
X36383350Y-14064013D02*
X36383350Y-12664013D01*
X36383350Y-12664013D02*
X37783350Y-12664013D01*
D12*
D13*
X34365000Y-10147500D02*
X34635000Y-10417500D01*
X34635000Y-10147500D02*
X34365000Y-10417500D01*
X35996500Y-8429880D02*
X36266500Y-8699880D01*
X36266500Y-8429880D02*
X35996500Y-8699880D01*
X35999040Y-11925000D02*
X36269040Y-12195000D01*
X36269040Y-11925000D02*
X35999040Y-12195000D01*
X35999040Y-14622400D02*
X36269040Y-14892400D01*
X36269040Y-14622400D02*
X35999040Y-14892400D01*
X36002500Y-15967500D02*
X36272500Y-16237500D01*
X36272500Y-15967500D02*
X36002500Y-16237500D01*
X37887500Y-11925000D02*
X38157500Y-12195000D01*
X38157500Y-11925000D02*
X37887500Y-12195000D01*
X37898960Y-14622400D02*
X38168960Y-14892400D01*
X38168960Y-14622400D02*
X37898960Y-14892400D01*
X37898960Y-15967500D02*
X38168960Y-16237500D01*
X38168960Y-15967500D02*
X37898960Y-16237500D01*
X37905000Y-8429880D02*
X38175000Y-8699880D01*
X38175000Y-8429880D02*
X37905000Y-8699880D01*
X39515000Y-10147500D02*
X39785000Y-10417500D01*
X39785000Y-10147500D02*
X39515000Y-10417500D01*
D12*
X34383277Y-18788984D02*
X34383277Y-18588984D01*
X34383277Y-18588984D02*
X34430896Y-18588984D01*
X34430896Y-18588984D02*
X34459467Y-18598508D01*
X34459467Y-18598508D02*
X34478515Y-18617555D01*
X34478515Y-18617555D02*
X34488039Y-18636603D01*
X34488039Y-18636603D02*
X34497563Y-18674698D01*
X34497563Y-18674698D02*
X34497563Y-18703270D01*
X34497563Y-18703270D02*
X34488039Y-18741365D01*
X34488039Y-18741365D02*
X34478515Y-18760412D01*
X34478515Y-18760412D02*
X34459467Y-18779460D01*
X34459467Y-18779460D02*
X34430896Y-18788984D01*
X34430896Y-18788984D02*
X34383277Y-18788984D01*
X34583277Y-18788984D02*
X34583277Y-18655650D01*
X34583277Y-18693746D02*
X34592801Y-18674698D01*
X34592801Y-18674698D02*
X34602324Y-18665174D01*
X34602324Y-18665174D02*
X34621372Y-18655650D01*
X34621372Y-18655650D02*
X34640420Y-18655650D01*
X34707086Y-18788984D02*
X34707086Y-18655650D01*
X34707086Y-18588984D02*
X34697563Y-18598508D01*
X34697563Y-18598508D02*
X34707086Y-18608031D01*
X34707086Y-18608031D02*
X34716610Y-18598508D01*
X34716610Y-18598508D02*
X34707086Y-18588984D01*
X34707086Y-18588984D02*
X34707086Y-18608031D01*
X34830896Y-18788984D02*
X34811848Y-18779460D01*
X34811848Y-18779460D02*
X34802324Y-18760412D01*
X34802324Y-18760412D02*
X34802324Y-18588984D01*
X34935658Y-18788984D02*
X34916610Y-18779460D01*
X34916610Y-18779460D02*
X34907086Y-18760412D01*
X34907086Y-18760412D02*
X34907086Y-18588984D01*
X35164229Y-18788984D02*
X35164229Y-18588984D01*
X35164229Y-18588984D02*
X35230896Y-18731841D01*
X35230896Y-18731841D02*
X35297563Y-18588984D01*
X35297563Y-18588984D02*
X35297563Y-18788984D01*
X35478515Y-18788984D02*
X35478515Y-18684222D01*
X35478515Y-18684222D02*
X35468991Y-18665174D01*
X35468991Y-18665174D02*
X35449944Y-18655650D01*
X35449944Y-18655650D02*
X35411848Y-18655650D01*
X35411848Y-18655650D02*
X35392801Y-18665174D01*
X35478515Y-18779460D02*
X35459467Y-18788984D01*
X35459467Y-18788984D02*
X35411848Y-18788984D01*
X35411848Y-18788984D02*
X35392801Y-18779460D01*
X35392801Y-18779460D02*
X35383277Y-18760412D01*
X35383277Y-18760412D02*
X35383277Y-18741365D01*
X35383277Y-18741365D02*
X35392801Y-18722317D01*
X35392801Y-18722317D02*
X35411848Y-18712793D01*
X35411848Y-18712793D02*
X35459467Y-18712793D01*
X35459467Y-18712793D02*
X35478515Y-18703270D01*
X35573753Y-18655650D02*
X35573753Y-18855650D01*
X35573753Y-18665174D02*
X35592801Y-18655650D01*
X35592801Y-18655650D02*
X35630896Y-18655650D01*
X35630896Y-18655650D02*
X35649944Y-18665174D01*
X35649944Y-18665174D02*
X35659467Y-18674698D01*
X35659467Y-18674698D02*
X35668991Y-18693746D01*
X35668991Y-18693746D02*
X35668991Y-18750889D01*
X35668991Y-18750889D02*
X35659467Y-18769936D01*
X35659467Y-18769936D02*
X35649944Y-18779460D01*
X35649944Y-18779460D02*
X35630896Y-18788984D01*
X35630896Y-18788984D02*
X35592801Y-18788984D01*
X35592801Y-18788984D02*
X35573753Y-18779460D01*
X35754705Y-18769936D02*
X35764229Y-18779460D01*
X35764229Y-18779460D02*
X35754705Y-18788984D01*
X35754705Y-18788984D02*
X35745182Y-18779460D01*
X35745182Y-18779460D02*
X35754705Y-18769936D01*
X35754705Y-18769936D02*
X35754705Y-18788984D01*
X35754705Y-18665174D02*
X35764229Y-18674698D01*
X35764229Y-18674698D02*
X35754705Y-18684222D01*
X35754705Y-18684222D02*
X35745182Y-18674698D01*
X35745182Y-18674698D02*
X35754705Y-18665174D01*
X35754705Y-18665174D02*
X35754705Y-18684222D01*
X33922500Y-19017500D02*
X34122500Y-19217500D01*
X34122500Y-19017500D02*
X33922500Y-19217500D01*
X34373753Y-19028031D02*
X34383277Y-19018508D01*
X34383277Y-19018508D02*
X34402324Y-19008984D01*
X34402324Y-19008984D02*
X34449944Y-19008984D01*
X34449944Y-19008984D02*
X34468991Y-19018508D01*
X34468991Y-19018508D02*
X34478515Y-19028031D01*
X34478515Y-19028031D02*
X34488039Y-19047079D01*
X34488039Y-19047079D02*
X34488039Y-19066127D01*
X34488039Y-19066127D02*
X34478515Y-19094698D01*
X34478515Y-19094698D02*
X34364229Y-19208984D01*
X34364229Y-19208984D02*
X34488039Y-19208984D01*
X34573753Y-19189936D02*
X34583277Y-19199460D01*
X34583277Y-19199460D02*
X34573753Y-19208984D01*
X34573753Y-19208984D02*
X34564229Y-19199460D01*
X34564229Y-19199460D02*
X34573753Y-19189936D01*
X34573753Y-19189936D02*
X34573753Y-19208984D01*
X34649944Y-19008984D02*
X34783277Y-19008984D01*
X34783277Y-19008984D02*
X34697563Y-19208984D01*
X34897563Y-19008984D02*
X34916610Y-19008984D01*
X34916610Y-19008984D02*
X34935658Y-19018508D01*
X34935658Y-19018508D02*
X34945182Y-19028031D01*
X34945182Y-19028031D02*
X34954705Y-19047079D01*
X34954705Y-19047079D02*
X34964229Y-19085174D01*
X34964229Y-19085174D02*
X34964229Y-19132793D01*
X34964229Y-19132793D02*
X34954705Y-19170889D01*
X34954705Y-19170889D02*
X34945182Y-19189936D01*
X34945182Y-19189936D02*
X34935658Y-19199460D01*
X34935658Y-19199460D02*
X34916610Y-19208984D01*
X34916610Y-19208984D02*
X34897563Y-19208984D01*
X34897563Y-19208984D02*
X34878515Y-19199460D01*
X34878515Y-19199460D02*
X34868991Y-19189936D01*
X34868991Y-19189936D02*
X34859467Y-19170889D01*
X34859467Y-19170889D02*
X34849944Y-19132793D01*
X34849944Y-19132793D02*
X34849944Y-19085174D01*
X34849944Y-19085174D02*
X34859467Y-19047079D01*
X34859467Y-19047079D02*
X34868991Y-19028031D01*
X34868991Y-19028031D02*
X34878515Y-19018508D01*
X34878515Y-19018508D02*
X34897563Y-19008984D01*
X35088039Y-19008984D02*
X35107086Y-19008984D01*
X35107086Y-19008984D02*
X35126134Y-19018508D01*
X35126134Y-19018508D02*
X35135658Y-19028031D01*
X35135658Y-19028031D02*
X35145182Y-19047079D01*
X35145182Y-19047079D02*
X35154705Y-19085174D01*
X35154705Y-19085174D02*
X35154705Y-19132793D01*
X35154705Y-19132793D02*
X35145182Y-19170889D01*
X35145182Y-19170889D02*
X35135658Y-19189936D01*
X35135658Y-19189936D02*
X35126134Y-19199460D01*
X35126134Y-19199460D02*
X35107086Y-19208984D01*
X35107086Y-19208984D02*
X35088039Y-19208984D01*
X35088039Y-19208984D02*
X35068991Y-19199460D01*
X35068991Y-19199460D02*
X35059467Y-19189936D01*
X35059467Y-19189936D02*
X35049944Y-19170889D01*
X35049944Y-19170889D02*
X35040420Y-19132793D01*
X35040420Y-19132793D02*
X35040420Y-19085174D01*
X35040420Y-19085174D02*
X35049944Y-19047079D01*
X35049944Y-19047079D02*
X35059467Y-19028031D01*
X35059467Y-19028031D02*
X35068991Y-19018508D01*
X35068991Y-19018508D02*
X35088039Y-19008984D01*
X35240420Y-19208984D02*
X35240420Y-19075650D01*
X35240420Y-19094698D02*
X35249944Y-19085174D01*
X35249944Y-19085174D02*
X35268991Y-19075650D01*
X35268991Y-19075650D02*
X35297563Y-19075650D01*
X35297563Y-19075650D02*
X35316610Y-19085174D01*
X35316610Y-19085174D02*
X35326134Y-19104222D01*
X35326134Y-19104222D02*
X35326134Y-19208984D01*
X35326134Y-19104222D02*
X35335658Y-19085174D01*
X35335658Y-19085174D02*
X35354705Y-19075650D01*
X35354705Y-19075650D02*
X35383277Y-19075650D01*
X35383277Y-19075650D02*
X35402325Y-19085174D01*
X35402325Y-19085174D02*
X35411848Y-19104222D01*
X35411848Y-19104222D02*
X35411848Y-19208984D01*
X35507086Y-19208984D02*
X35507086Y-19075650D01*
X35507086Y-19094698D02*
X35516610Y-19085174D01*
X35516610Y-19085174D02*
X35535658Y-19075650D01*
X35535658Y-19075650D02*
X35564229Y-19075650D01*
X35564229Y-19075650D02*
X35583277Y-19085174D01*
X35583277Y-19085174D02*
X35592801Y-19104222D01*
X35592801Y-19104222D02*
X35592801Y-19208984D01*
X35592801Y-19104222D02*
X35602325Y-19085174D01*
X35602325Y-19085174D02*
X35621372Y-19075650D01*
X35621372Y-19075650D02*
X35649944Y-19075650D01*
X35649944Y-19075650D02*
X35668991Y-19085174D01*
X35668991Y-19085174D02*
X35678515Y-19104222D01*
X35678515Y-19104222D02*
X35678515Y-19208984D01*
X36068991Y-18999460D02*
X35897563Y-19256603D01*
X36326134Y-19008984D02*
X36345182Y-19008984D01*
X36345182Y-19008984D02*
X36364229Y-19018508D01*
X36364229Y-19018508D02*
X36373753Y-19028031D01*
X36373753Y-19028031D02*
X36383277Y-19047079D01*
X36383277Y-19047079D02*
X36392801Y-19085174D01*
X36392801Y-19085174D02*
X36392801Y-19132793D01*
X36392801Y-19132793D02*
X36383277Y-19170889D01*
X36383277Y-19170889D02*
X36373753Y-19189936D01*
X36373753Y-19189936D02*
X36364229Y-19199460D01*
X36364229Y-19199460D02*
X36345182Y-19208984D01*
X36345182Y-19208984D02*
X36326134Y-19208984D01*
X36326134Y-19208984D02*
X36307087Y-19199460D01*
X36307087Y-19199460D02*
X36297563Y-19189936D01*
X36297563Y-19189936D02*
X36288039Y-19170889D01*
X36288039Y-19170889D02*
X36278515Y-19132793D01*
X36278515Y-19132793D02*
X36278515Y-19085174D01*
X36278515Y-19085174D02*
X36288039Y-19047079D01*
X36288039Y-19047079D02*
X36297563Y-19028031D01*
X36297563Y-19028031D02*
X36307087Y-19018508D01*
X36307087Y-19018508D02*
X36326134Y-19008984D01*
X36478515Y-19189936D02*
X36488039Y-19199460D01*
X36488039Y-19199460D02*
X36478515Y-19208984D01*
X36478515Y-19208984D02*
X36468991Y-19199460D01*
X36468991Y-19199460D02*
X36478515Y-19189936D01*
X36478515Y-19189936D02*
X36478515Y-19208984D01*
X36678515Y-19208984D02*
X36564229Y-19208984D01*
X36621372Y-19208984D02*
X36621372Y-19008984D01*
X36621372Y-19008984D02*
X36602325Y-19037555D01*
X36602325Y-19037555D02*
X36583277Y-19056603D01*
X36583277Y-19056603D02*
X36564229Y-19066127D01*
X36802325Y-19008984D02*
X36821372Y-19008984D01*
X36821372Y-19008984D02*
X36840420Y-19018508D01*
X36840420Y-19018508D02*
X36849944Y-19028031D01*
X36849944Y-19028031D02*
X36859468Y-19047079D01*
X36859468Y-19047079D02*
X36868991Y-19085174D01*
X36868991Y-19085174D02*
X36868991Y-19132793D01*
X36868991Y-19132793D02*
X36859468Y-19170889D01*
X36859468Y-19170889D02*
X36849944Y-19189936D01*
X36849944Y-19189936D02*
X36840420Y-19199460D01*
X36840420Y-19199460D02*
X36821372Y-19208984D01*
X36821372Y-19208984D02*
X36802325Y-19208984D01*
X36802325Y-19208984D02*
X36783277Y-19199460D01*
X36783277Y-19199460D02*
X36773753Y-19189936D01*
X36773753Y-19189936D02*
X36764229Y-19170889D01*
X36764229Y-19170889D02*
X36754706Y-19132793D01*
X36754706Y-19132793D02*
X36754706Y-19085174D01*
X36754706Y-19085174D02*
X36764229Y-19047079D01*
X36764229Y-19047079D02*
X36773753Y-19028031D01*
X36773753Y-19028031D02*
X36783277Y-19018508D01*
X36783277Y-19018508D02*
X36802325Y-19008984D01*
X37040420Y-19008984D02*
X37002325Y-19008984D01*
X37002325Y-19008984D02*
X36983277Y-19018508D01*
X36983277Y-19018508D02*
X36973753Y-19028031D01*
X36973753Y-19028031D02*
X36954706Y-19056603D01*
X36954706Y-19056603D02*
X36945182Y-19094698D01*
X36945182Y-19094698D02*
X36945182Y-19170889D01*
X36945182Y-19170889D02*
X36954706Y-19189936D01*
X36954706Y-19189936D02*
X36964229Y-19199460D01*
X36964229Y-19199460D02*
X36983277Y-19208984D01*
X36983277Y-19208984D02*
X37021372Y-19208984D01*
X37021372Y-19208984D02*
X37040420Y-19199460D01*
X37040420Y-19199460D02*
X37049944Y-19189936D01*
X37049944Y-19189936D02*
X37059468Y-19170889D01*
X37059468Y-19170889D02*
X37059468Y-19123270D01*
X37059468Y-19123270D02*
X37049944Y-19104222D01*
X37049944Y-19104222D02*
X37040420Y-19094698D01*
X37040420Y-19094698D02*
X37021372Y-19085174D01*
X37021372Y-19085174D02*
X36983277Y-19085174D01*
X36983277Y-19085174D02*
X36964229Y-19094698D01*
X36964229Y-19094698D02*
X36954706Y-19104222D01*
X36954706Y-19104222D02*
X36945182Y-19123270D01*
X37126134Y-19008984D02*
X37249944Y-19008984D01*
X37249944Y-19008984D02*
X37183277Y-19085174D01*
X37183277Y-19085174D02*
X37211849Y-19085174D01*
X37211849Y-19085174D02*
X37230896Y-19094698D01*
X37230896Y-19094698D02*
X37240420Y-19104222D01*
X37240420Y-19104222D02*
X37249944Y-19123270D01*
X37249944Y-19123270D02*
X37249944Y-19170889D01*
X37249944Y-19170889D02*
X37240420Y-19189936D01*
X37240420Y-19189936D02*
X37230896Y-19199460D01*
X37230896Y-19199460D02*
X37211849Y-19208984D01*
X37211849Y-19208984D02*
X37154706Y-19208984D01*
X37154706Y-19208984D02*
X37135658Y-19199460D01*
X37135658Y-19199460D02*
X37126134Y-19189936D01*
X37326134Y-19008984D02*
X37326134Y-19047079D01*
X37402325Y-19008984D02*
X37402325Y-19047079D01*
X37697563Y-19285174D02*
X37688039Y-19275650D01*
X37688039Y-19275650D02*
X37668991Y-19247079D01*
X37668991Y-19247079D02*
X37659468Y-19228031D01*
X37659468Y-19228031D02*
X37649944Y-19199460D01*
X37649944Y-19199460D02*
X37640420Y-19151841D01*
X37640420Y-19151841D02*
X37640420Y-19113746D01*
X37640420Y-19113746D02*
X37649944Y-19066127D01*
X37649944Y-19066127D02*
X37659468Y-19037555D01*
X37659468Y-19037555D02*
X37668991Y-19018508D01*
X37668991Y-19018508D02*
X37688039Y-18989936D01*
X37688039Y-18989936D02*
X37697563Y-18980412D01*
X37878515Y-19208984D02*
X37764230Y-19208984D01*
X37821372Y-19208984D02*
X37821372Y-19008984D01*
X37821372Y-19008984D02*
X37802325Y-19037555D01*
X37802325Y-19037555D02*
X37783277Y-19056603D01*
X37783277Y-19056603D02*
X37764230Y-19066127D01*
X38002325Y-19008984D02*
X38021372Y-19008984D01*
X38021372Y-19008984D02*
X38040420Y-19018508D01*
X38040420Y-19018508D02*
X38049944Y-19028031D01*
X38049944Y-19028031D02*
X38059468Y-19047079D01*
X38059468Y-19047079D02*
X38068991Y-19085174D01*
X38068991Y-19085174D02*
X38068991Y-19132793D01*
X38068991Y-19132793D02*
X38059468Y-19170889D01*
X38059468Y-19170889D02*
X38049944Y-19189936D01*
X38049944Y-19189936D02*
X38040420Y-19199460D01*
X38040420Y-19199460D02*
X38021372Y-19208984D01*
X38021372Y-19208984D02*
X38002325Y-19208984D01*
X38002325Y-19208984D02*
X37983277Y-19199460D01*
X37983277Y-19199460D02*
X37973753Y-19189936D01*
X37973753Y-19189936D02*
X37964230Y-19170889D01*
X37964230Y-19170889D02*
X37954706Y-19132793D01*
X37954706Y-19132793D02*
X37954706Y-19085174D01*
X37954706Y-19085174D02*
X37964230Y-19047079D01*
X37964230Y-19047079D02*
X37973753Y-19028031D01*
X37973753Y-19028031D02*
X37983277Y-19018508D01*
X37983277Y-19018508D02*
X38002325Y-19008984D01*
X38307087Y-19208984D02*
X38307087Y-19008984D01*
X38392801Y-19208984D02*
X38392801Y-19104222D01*
X38392801Y-19104222D02*
X38383277Y-19085174D01*
X38383277Y-19085174D02*
X38364230Y-19075650D01*
X38364230Y-19075650D02*
X38335658Y-19075650D01*
X38335658Y-19075650D02*
X38316611Y-19085174D01*
X38316611Y-19085174D02*
X38307087Y-19094698D01*
X38516611Y-19208984D02*
X38497563Y-19199460D01*
X38497563Y-19199460D02*
X38488039Y-19189936D01*
X38488039Y-19189936D02*
X38478515Y-19170889D01*
X38478515Y-19170889D02*
X38478515Y-19113746D01*
X38478515Y-19113746D02*
X38488039Y-19094698D01*
X38488039Y-19094698D02*
X38497563Y-19085174D01*
X38497563Y-19085174D02*
X38516611Y-19075650D01*
X38516611Y-19075650D02*
X38545182Y-19075650D01*
X38545182Y-19075650D02*
X38564230Y-19085174D01*
X38564230Y-19085174D02*
X38573753Y-19094698D01*
X38573753Y-19094698D02*
X38583277Y-19113746D01*
X38583277Y-19113746D02*
X38583277Y-19170889D01*
X38583277Y-19170889D02*
X38573753Y-19189936D01*
X38573753Y-19189936D02*
X38564230Y-19199460D01*
X38564230Y-19199460D02*
X38545182Y-19208984D01*
X38545182Y-19208984D02*
X38516611Y-19208984D01*
X38697563Y-19208984D02*
X38678515Y-19199460D01*
X38678515Y-19199460D02*
X38668992Y-19180412D01*
X38668992Y-19180412D02*
X38668992Y-19008984D01*
X38849944Y-19199460D02*
X38830896Y-19208984D01*
X38830896Y-19208984D02*
X38792801Y-19208984D01*
X38792801Y-19208984D02*
X38773753Y-19199460D01*
X38773753Y-19199460D02*
X38764230Y-19180412D01*
X38764230Y-19180412D02*
X38764230Y-19104222D01*
X38764230Y-19104222D02*
X38773753Y-19085174D01*
X38773753Y-19085174D02*
X38792801Y-19075650D01*
X38792801Y-19075650D02*
X38830896Y-19075650D01*
X38830896Y-19075650D02*
X38849944Y-19085174D01*
X38849944Y-19085174D02*
X38859468Y-19104222D01*
X38859468Y-19104222D02*
X38859468Y-19123270D01*
X38859468Y-19123270D02*
X38764230Y-19142317D01*
X38935658Y-19199460D02*
X38954706Y-19208984D01*
X38954706Y-19208984D02*
X38992801Y-19208984D01*
X38992801Y-19208984D02*
X39011849Y-19199460D01*
X39011849Y-19199460D02*
X39021373Y-19180412D01*
X39021373Y-19180412D02*
X39021373Y-19170889D01*
X39021373Y-19170889D02*
X39011849Y-19151841D01*
X39011849Y-19151841D02*
X38992801Y-19142317D01*
X38992801Y-19142317D02*
X38964230Y-19142317D01*
X38964230Y-19142317D02*
X38945182Y-19132793D01*
X38945182Y-19132793D02*
X38935658Y-19113746D01*
X38935658Y-19113746D02*
X38935658Y-19104222D01*
X38935658Y-19104222D02*
X38945182Y-19085174D01*
X38945182Y-19085174D02*
X38964230Y-19075650D01*
X38964230Y-19075650D02*
X38992801Y-19075650D01*
X38992801Y-19075650D02*
X39011849Y-19085174D01*
X39088039Y-19285174D02*
X39097563Y-19275650D01*
X39097563Y-19275650D02*
X39116611Y-19247079D01*
X39116611Y-19247079D02*
X39126134Y-19228031D01*
X39126134Y-19228031D02*
X39135658Y-19199460D01*
X39135658Y-19199460D02*
X39145182Y-19151841D01*
X39145182Y-19151841D02*
X39145182Y-19113746D01*
X39145182Y-19113746D02*
X39135658Y-19066127D01*
X39135658Y-19066127D02*
X39126134Y-19037555D01*
X39126134Y-19037555D02*
X39116611Y-19018508D01*
X39116611Y-19018508D02*
X39097563Y-18989936D01*
X39097563Y-18989936D02*
X39088039Y-18980412D01*
X39449944Y-19285174D02*
X39440420Y-19275650D01*
X39440420Y-19275650D02*
X39421373Y-19247079D01*
X39421373Y-19247079D02*
X39411849Y-19228031D01*
X39411849Y-19228031D02*
X39402325Y-19199460D01*
X39402325Y-19199460D02*
X39392801Y-19151841D01*
X39392801Y-19151841D02*
X39392801Y-19113746D01*
X39392801Y-19113746D02*
X39402325Y-19066127D01*
X39402325Y-19066127D02*
X39411849Y-19037555D01*
X39411849Y-19037555D02*
X39421373Y-19018508D01*
X39421373Y-19018508D02*
X39440420Y-18989936D01*
X39440420Y-18989936D02*
X39449944Y-18980412D01*
X39526134Y-19075650D02*
X39526134Y-19208984D01*
X39526134Y-19094698D02*
X39535658Y-19085174D01*
X39535658Y-19085174D02*
X39554706Y-19075650D01*
X39554706Y-19075650D02*
X39583277Y-19075650D01*
X39583277Y-19075650D02*
X39602325Y-19085174D01*
X39602325Y-19085174D02*
X39611849Y-19104222D01*
X39611849Y-19104222D02*
X39611849Y-19208984D01*
X39735658Y-19208984D02*
X39716611Y-19199460D01*
X39716611Y-19199460D02*
X39707087Y-19189936D01*
X39707087Y-19189936D02*
X39697563Y-19170889D01*
X39697563Y-19170889D02*
X39697563Y-19113746D01*
X39697563Y-19113746D02*
X39707087Y-19094698D01*
X39707087Y-19094698D02*
X39716611Y-19085174D01*
X39716611Y-19085174D02*
X39735658Y-19075650D01*
X39735658Y-19075650D02*
X39764230Y-19075650D01*
X39764230Y-19075650D02*
X39783277Y-19085174D01*
X39783277Y-19085174D02*
X39792801Y-19094698D01*
X39792801Y-19094698D02*
X39802325Y-19113746D01*
X39802325Y-19113746D02*
X39802325Y-19170889D01*
X39802325Y-19170889D02*
X39792801Y-19189936D01*
X39792801Y-19189936D02*
X39783277Y-19199460D01*
X39783277Y-19199460D02*
X39764230Y-19208984D01*
X39764230Y-19208984D02*
X39735658Y-19208984D01*
X39859468Y-19075650D02*
X39935658Y-19075650D01*
X39888039Y-19008984D02*
X39888039Y-19180412D01*
X39888039Y-19180412D02*
X39897563Y-19199460D01*
X39897563Y-19199460D02*
X39916611Y-19208984D01*
X39916611Y-19208984D02*
X39935658Y-19208984D01*
X40154706Y-19075650D02*
X40154706Y-19275650D01*
X40154706Y-19085174D02*
X40173754Y-19075650D01*
X40173754Y-19075650D02*
X40211849Y-19075650D01*
X40211849Y-19075650D02*
X40230896Y-19085174D01*
X40230896Y-19085174D02*
X40240420Y-19094698D01*
X40240420Y-19094698D02*
X40249944Y-19113746D01*
X40249944Y-19113746D02*
X40249944Y-19170889D01*
X40249944Y-19170889D02*
X40240420Y-19189936D01*
X40240420Y-19189936D02*
X40230896Y-19199460D01*
X40230896Y-19199460D02*
X40211849Y-19208984D01*
X40211849Y-19208984D02*
X40173754Y-19208984D01*
X40173754Y-19208984D02*
X40154706Y-19199460D01*
X40364230Y-19208984D02*
X40345182Y-19199460D01*
X40345182Y-19199460D02*
X40335658Y-19180412D01*
X40335658Y-19180412D02*
X40335658Y-19008984D01*
X40526135Y-19208984D02*
X40526135Y-19104222D01*
X40526135Y-19104222D02*
X40516611Y-19085174D01*
X40516611Y-19085174D02*
X40497563Y-19075650D01*
X40497563Y-19075650D02*
X40459468Y-19075650D01*
X40459468Y-19075650D02*
X40440420Y-19085174D01*
X40526135Y-19199460D02*
X40507087Y-19208984D01*
X40507087Y-19208984D02*
X40459468Y-19208984D01*
X40459468Y-19208984D02*
X40440420Y-19199460D01*
X40440420Y-19199460D02*
X40430896Y-19180412D01*
X40430896Y-19180412D02*
X40430896Y-19161365D01*
X40430896Y-19161365D02*
X40440420Y-19142317D01*
X40440420Y-19142317D02*
X40459468Y-19132793D01*
X40459468Y-19132793D02*
X40507087Y-19132793D01*
X40507087Y-19132793D02*
X40526135Y-19123270D01*
X40592801Y-19075650D02*
X40668992Y-19075650D01*
X40621373Y-19008984D02*
X40621373Y-19180412D01*
X40621373Y-19180412D02*
X40630896Y-19199460D01*
X40630896Y-19199460D02*
X40649944Y-19208984D01*
X40649944Y-19208984D02*
X40668992Y-19208984D01*
X40811849Y-19199460D02*
X40792801Y-19208984D01*
X40792801Y-19208984D02*
X40754706Y-19208984D01*
X40754706Y-19208984D02*
X40735658Y-19199460D01*
X40735658Y-19199460D02*
X40726135Y-19180412D01*
X40726135Y-19180412D02*
X40726135Y-19104222D01*
X40726135Y-19104222D02*
X40735658Y-19085174D01*
X40735658Y-19085174D02*
X40754706Y-19075650D01*
X40754706Y-19075650D02*
X40792801Y-19075650D01*
X40792801Y-19075650D02*
X40811849Y-19085174D01*
X40811849Y-19085174D02*
X40821373Y-19104222D01*
X40821373Y-19104222D02*
X40821373Y-19123270D01*
X40821373Y-19123270D02*
X40726135Y-19142317D01*
X40992801Y-19208984D02*
X40992801Y-19008984D01*
X40992801Y-19199460D02*
X40973754Y-19208984D01*
X40973754Y-19208984D02*
X40935658Y-19208984D01*
X40935658Y-19208984D02*
X40916611Y-19199460D01*
X40916611Y-19199460D02*
X40907087Y-19189936D01*
X40907087Y-19189936D02*
X40897563Y-19170889D01*
X40897563Y-19170889D02*
X40897563Y-19113746D01*
X40897563Y-19113746D02*
X40907087Y-19094698D01*
X40907087Y-19094698D02*
X40916611Y-19085174D01*
X40916611Y-19085174D02*
X40935658Y-19075650D01*
X40935658Y-19075650D02*
X40973754Y-19075650D01*
X40973754Y-19075650D02*
X40992801Y-19085174D01*
X41068992Y-19285174D02*
X41078516Y-19275650D01*
X41078516Y-19275650D02*
X41097563Y-19247079D01*
X41097563Y-19247079D02*
X41107087Y-19228031D01*
X41107087Y-19228031D02*
X41116611Y-19199460D01*
X41116611Y-19199460D02*
X41126135Y-19151841D01*
X41126135Y-19151841D02*
X41126135Y-19113746D01*
X41126135Y-19113746D02*
X41116611Y-19066127D01*
X41116611Y-19066127D02*
X41107087Y-19037555D01*
X41107087Y-19037555D02*
X41097563Y-19018508D01*
X41097563Y-19018508D02*
X41078516Y-18989936D01*
X41078516Y-18989936D02*
X41068992Y-18980412D01*
M02*
