M48
; DRILL file {KiCad 7.0.11+dfsg-1build4} date Tue 02 Jun 2026 05:27:22 PM EDT
; FORMAT={-:-/ absolute / metric / decimal}
; #@! TF.CreationDate,2026-06-02T17:27:22-04:00
; #@! TF.GenerationSoftware,Kicad,Pcbnew,7.0.11+dfsg-1build4
; #@! TF.FileFunction,NonPlated,1,2,NPTH
FMAT,2
METRIC
; #@! TA.AperFunction,NonPlated,NPTH,ComponentDrill
T1C2.700
%
G90
G05
T1
X49.97Y-127.102
X50.0Y-106.223
X50.0Y-147.58
X52.583Y-168.148
X72.034Y-106.223
X72.725Y-181.5
X85.75Y-85.649
X90.49Y-147.58
X114.31Y-106.47
X114.35Y-168.148
X114.35Y-181.75
X119.07Y-127.203
X161.92Y-85.67
X164.25Y-181.5
X166.69Y-147.58
X190.5Y-106.33
X195.27Y-127.152
X200.19Y-168.148
X204.8Y-147.58
X217.45Y-181.5
X238.13Y-85.66
X266.725Y-168.148
X266.725Y-181.5
X266.75Y-106.31
X271.628Y-127.152
X281.01Y-147.58
X309.58Y-168.148
X314.35Y-85.649
X329.5Y-106.31
X329.5Y-127.152
X329.5Y-147.58
X329.5Y-180.5
M30
