%TF.GenerationSoftware,KiCad,Pcbnew,7.0.11+dfsg-1build4*%
%TF.CreationDate,2026-06-02T17:27:22-04:00*%
%TF.ProjectId,mission-control-plate-main,6d697373-696f-46e2-9d63-6f6e74726f6c,rev?*%
%TF.SameCoordinates,Original*%
%TF.FileFunction,Drillmap*%
%TF.FilePolarity,Positive*%
%FSLAX45Y45*%
G04 Gerber Fmt 4.5, Leading zero omitted, Abs format (unit mm)*
G04 Created by KiCad (PCBNEW 7.0.11+dfsg-1build4) date 2026-06-02 17:27:22*
%MOMM*%
%LPD*%
G01*
G04 APERTURE LIST*
%ADD10C,0.150000*%
%ADD11C,0.120000*%
%ADD12C,0.200000*%
%ADD13C,0.270000*%
G04 APERTURE END LIST*
D10*
X9450000Y-16400000D02*
X9450000Y-18140000D01*
X4700000Y-8590000D02*
X4700000Y-18140000D01*
X28350000Y-18440000D02*
G75*
G03*
X28650000Y-18140000I0J300000D01*
G01*
X5000000Y-8290000D02*
G75*
G03*
X4700000Y-8590000I0J-300000D01*
G01*
X33100000Y-18440000D02*
G75*
G03*
X33400000Y-18140000I0J300000D01*
G01*
X30400000Y-16400000D02*
X30400000Y-18140000D01*
X33400080Y-8589926D02*
G75*
G03*
X33100074Y-8290000I-300010J-84D01*
G01*
X7700000Y-16400000D02*
X7700000Y-18140000D01*
X30400000Y-18140000D02*
G75*
G03*
X30700000Y-18440000I300000J0D01*
G01*
X9750000Y-18440000D02*
X28350000Y-18440000D01*
X9450000Y-18140000D02*
G75*
G03*
X9750000Y-18440000I300000J0D01*
G01*
X7700000Y-16400000D02*
X9450000Y-16400000D01*
X7627500Y-18440000D02*
X7627500Y-18440000D01*
X7400000Y-18440000D02*
G75*
G03*
X7700000Y-18140000I0J300000D01*
G01*
X33400000Y-8589926D02*
X33400000Y-18140000D01*
X28650000Y-16400000D02*
X28650000Y-18140000D01*
X28650000Y-16400000D02*
X30400000Y-16400000D01*
X5000000Y-8290000D02*
X33100074Y-8290000D01*
X5000000Y-18440000D02*
X7400000Y-18440000D01*
X30700000Y-18440000D02*
X33100000Y-18440000D01*
X4700000Y-18140000D02*
G75*
G03*
X5000000Y-18440000I300000J0D01*
G01*
D11*
X30970625Y-14720015D02*
X32370625Y-14720015D01*
X30970625Y-16120015D02*
X30970625Y-14720015D01*
X32370625Y-14720015D02*
X32370625Y-16120015D01*
X32370625Y-16120015D02*
X30970625Y-16120015D01*
X19778750Y-12664014D02*
X21178750Y-12664014D01*
X19778750Y-14064014D02*
X19778750Y-12664014D01*
X21178750Y-12664014D02*
X21178750Y-14064014D01*
X21178750Y-14064014D02*
X19778750Y-14064014D01*
X18826250Y-14720016D02*
X20226250Y-14720016D01*
X18826250Y-16120016D02*
X18826250Y-14720016D01*
X20226250Y-14720016D02*
X20226250Y-16120016D01*
X20226250Y-16120016D02*
X18826250Y-16120016D01*
X17873750Y-12664014D02*
X19273750Y-12664014D01*
X17873750Y-14064014D02*
X17873750Y-12664014D01*
X19273750Y-12664014D02*
X19273750Y-14064014D01*
X19273750Y-14064014D02*
X17873750Y-14064014D01*
X11206250Y-14720016D02*
X12606250Y-14720016D01*
X11206250Y-16120016D02*
X11206250Y-14720016D01*
X12606250Y-14720016D02*
X12606250Y-16120016D01*
X12606250Y-16120016D02*
X11206250Y-16120016D01*
X7872500Y-10608012D02*
X9272500Y-10608012D01*
X7872500Y-12008012D02*
X7872500Y-10608012D01*
X9272500Y-10608012D02*
X9272500Y-12008012D01*
X9272500Y-12008012D02*
X7872500Y-12008012D01*
X9777500Y-16776019D02*
X11177500Y-16776019D01*
X9777500Y-18176019D02*
X9777500Y-16776019D01*
X11177500Y-16776019D02*
X11177500Y-18176019D01*
X11177500Y-18176019D02*
X9777500Y-18176019D01*
X22636250Y-14720016D02*
X24036250Y-14720016D01*
X22636250Y-16120016D02*
X22636250Y-14720016D01*
X24036250Y-14720016D02*
X24036250Y-16120016D01*
X24036250Y-16120016D02*
X22636250Y-16120016D01*
D12*
X5374325Y-14820015D02*
X5374325Y-16120015D01*
X5374325Y-14820015D02*
X6049325Y-14820015D01*
X5374325Y-16120015D02*
X6049325Y-16120015D01*
X6049325Y-14820015D02*
X6049325Y-16120015D01*
X6205625Y-14720015D02*
X7605625Y-14720015D01*
X6205625Y-16120015D02*
X6205625Y-14720015D01*
X7605625Y-14720015D02*
X7605625Y-16120015D01*
X7605625Y-16120015D02*
X6205625Y-16120015D01*
X7761925Y-14820015D02*
X7761925Y-16120015D01*
X7761925Y-14820015D02*
X8436925Y-14820015D01*
X7761925Y-16120015D02*
X8436925Y-16120015D01*
X8436925Y-14820015D02*
X8436925Y-16120015D01*
D11*
X9777500Y-10608012D02*
X11177500Y-10608012D01*
X9777500Y-12008012D02*
X9777500Y-10608012D01*
X11177500Y-10608012D02*
X11177500Y-12008012D01*
X11177500Y-12008012D02*
X9777500Y-12008012D01*
X18350000Y-8552010D02*
X19750000Y-8552010D01*
X18350000Y-9952010D02*
X18350000Y-8552010D01*
X19750000Y-8552010D02*
X19750000Y-9952010D01*
X19750000Y-9952010D02*
X18350000Y-9952010D01*
X12158750Y-12664014D02*
X13558750Y-12664014D01*
X12158750Y-14064014D02*
X12158750Y-12664014D01*
X13558750Y-12664014D02*
X13558750Y-14064014D01*
X13558750Y-14064014D02*
X12158750Y-14064014D01*
X19302500Y-10608012D02*
X20702500Y-10608012D01*
X19302500Y-12008012D02*
X19302500Y-10608012D01*
X20702500Y-10608012D02*
X20702500Y-12008012D01*
X20702500Y-12008012D02*
X19302500Y-12008012D01*
X5491250Y-10608012D02*
X6891250Y-10608012D01*
X5491250Y-12008012D02*
X5491250Y-10608012D01*
X6891250Y-10608012D02*
X6891250Y-12008012D01*
X6891250Y-12008012D02*
X5491250Y-12008012D01*
X20731250Y-14720016D02*
X22131250Y-14720016D01*
X20731250Y-16120016D02*
X20731250Y-14720016D01*
X22131250Y-14720016D02*
X22131250Y-16120016D01*
X22131250Y-16120016D02*
X20731250Y-16120016D01*
X21683750Y-12664014D02*
X23083750Y-12664014D01*
X21683750Y-14064014D02*
X21683750Y-12664014D01*
X23083750Y-12664014D02*
X23083750Y-14064014D01*
X23083750Y-14064014D02*
X21683750Y-14064014D01*
X20255000Y-8552010D02*
X21655000Y-8552010D01*
X20255000Y-9952010D02*
X20255000Y-8552010D01*
X21655000Y-8552010D02*
X21655000Y-9952010D01*
X21655000Y-9952010D02*
X20255000Y-9952010D01*
X13587500Y-10608012D02*
X14987500Y-10608012D01*
X13587500Y-12008012D02*
X13587500Y-10608012D01*
X14987500Y-10608012D02*
X14987500Y-12008012D01*
X14987500Y-12008012D02*
X13587500Y-12008012D01*
X13950000Y-16876017D02*
X13950000Y-18176017D01*
X13950000Y-16876017D02*
X14625000Y-16876017D01*
X13950000Y-18176017D02*
X14625000Y-18176017D01*
X14625000Y-16876017D02*
X14625000Y-18176017D01*
X18350000Y-16776017D02*
X19750000Y-16776017D01*
X18350000Y-18176017D02*
X18350000Y-16776017D01*
X19750000Y-16776017D02*
X19750000Y-18176017D01*
X19750000Y-18176017D02*
X18350000Y-18176017D01*
X23475000Y-16876017D02*
X23475000Y-18176017D01*
X23475000Y-18176017D02*
X24150000Y-18176017D01*
X24150000Y-16876017D02*
X23475000Y-16876017D01*
X24150000Y-18176017D02*
X24150000Y-16876017D01*
X28827500Y-10608012D02*
X30227500Y-10608012D01*
X28827500Y-12008012D02*
X28827500Y-10608012D01*
X30227500Y-10608012D02*
X30227500Y-12008012D01*
X30227500Y-12008012D02*
X28827500Y-12008012D01*
X31208750Y-16776019D02*
X32608750Y-16776019D01*
X31208750Y-18176019D02*
X31208750Y-16776019D01*
X32608750Y-16776019D02*
X32608750Y-18176019D01*
X32608750Y-18176019D02*
X31208750Y-18176019D01*
X25970000Y-8552010D02*
X27370000Y-8552010D01*
X25970000Y-9952010D02*
X25970000Y-8552010D01*
X27370000Y-8552010D02*
X27370000Y-9952010D01*
X27370000Y-9952010D02*
X25970000Y-9952010D01*
X26922500Y-16776019D02*
X28322500Y-16776019D01*
X26922500Y-18176019D02*
X26922500Y-16776019D01*
X28322500Y-16776019D02*
X28322500Y-18176019D01*
X28322500Y-18176019D02*
X26922500Y-18176019D01*
X31208750Y-10608012D02*
X32608750Y-10608012D01*
X31208750Y-12008012D02*
X31208750Y-10608012D01*
X32608750Y-10608012D02*
X32608750Y-12008012D01*
X32608750Y-12008012D02*
X31208750Y-12008012D01*
X15968750Y-12664014D02*
X17368750Y-12664014D01*
X15968750Y-14064014D02*
X15968750Y-12664014D01*
X17368750Y-12664014D02*
X17368750Y-14064014D01*
X17368750Y-14064014D02*
X15968750Y-14064014D01*
X11682500Y-10608012D02*
X13082500Y-10608012D01*
X11682500Y-12008012D02*
X11682500Y-10608012D01*
X13082500Y-10608012D02*
X13082500Y-12008012D01*
X13082500Y-12008012D02*
X11682500Y-12008012D01*
X11682500Y-16776019D02*
X13082500Y-16776019D01*
X11682500Y-18176019D02*
X11682500Y-16776019D01*
X13082500Y-16776019D02*
X13082500Y-18176019D01*
X13082500Y-18176019D02*
X11682500Y-18176019D01*
X12635000Y-8552010D02*
X14035000Y-8552010D01*
X12635000Y-9952010D02*
X12635000Y-8552010D01*
X14035000Y-8552010D02*
X14035000Y-9952010D01*
X14035000Y-9952010D02*
X12635000Y-9952010D01*
X22160000Y-8552010D02*
X23560000Y-8552010D01*
X22160000Y-9952010D02*
X22160000Y-8552010D01*
X23560000Y-8552010D02*
X23560000Y-9952010D01*
X23560000Y-9952010D02*
X22160000Y-9952010D01*
X25493750Y-12664014D02*
X26893750Y-12664014D01*
X25493750Y-14064014D02*
X25493750Y-12664014D01*
X26893750Y-12664014D02*
X26893750Y-14064014D01*
X26893750Y-14064014D02*
X25493750Y-14064014D01*
X28351250Y-14720015D02*
X29751250Y-14720015D01*
X28351250Y-16120015D02*
X28351250Y-14720015D01*
X29751250Y-14720015D02*
X29751250Y-16120015D01*
X29751250Y-16120015D02*
X28351250Y-16120015D01*
X15016250Y-14720016D02*
X16416250Y-14720016D01*
X15016250Y-16120016D02*
X15016250Y-14720016D01*
X16416250Y-14720016D02*
X16416250Y-16120016D01*
X16416250Y-16120016D02*
X15016250Y-16120016D01*
X23112500Y-10608012D02*
X24512500Y-10608012D01*
X23112500Y-12008012D02*
X23112500Y-10608012D01*
X24512500Y-10608012D02*
X24512500Y-12008012D01*
X24512500Y-12008012D02*
X23112500Y-12008012D01*
X14540000Y-8552010D02*
X15940000Y-8552010D01*
X14540000Y-9952010D02*
X14540000Y-8552010D01*
X15940000Y-8552010D02*
X15940000Y-9952010D01*
X15940000Y-9952010D02*
X14540000Y-9952010D01*
X25017500Y-16776019D02*
X26417500Y-16776019D01*
X25017500Y-18176019D02*
X25017500Y-16776019D01*
X26417500Y-16776019D02*
X26417500Y-18176019D01*
X26417500Y-18176019D02*
X25017500Y-18176019D01*
X10730000Y-8552010D02*
X12130000Y-8552010D01*
X10730000Y-9952010D02*
X10730000Y-8552010D01*
X12130000Y-8552010D02*
X12130000Y-9952010D01*
X12130000Y-9952010D02*
X10730000Y-9952010D01*
X27875000Y-8552010D02*
X29275000Y-8552010D01*
X27875000Y-9952010D02*
X27875000Y-8552010D01*
X29275000Y-8552010D02*
X29275000Y-9952010D01*
X29275000Y-9952010D02*
X27875000Y-9952010D01*
X10253750Y-12664014D02*
X11653750Y-12664014D01*
X10253750Y-14064014D02*
X10253750Y-12664014D01*
X11653750Y-12664014D02*
X11653750Y-14064014D01*
X11653750Y-14064014D02*
X10253750Y-14064014D01*
X26922500Y-10608012D02*
X28322500Y-10608012D01*
X26922500Y-12008012D02*
X26922500Y-10608012D01*
X28322500Y-10608012D02*
X28322500Y-12008012D01*
X28322500Y-12008012D02*
X26922500Y-12008012D01*
X5015000Y-8552010D02*
X6415000Y-8552010D01*
X5015000Y-9952010D02*
X5015000Y-8552010D01*
X6415000Y-8552010D02*
X6415000Y-9952010D01*
X6415000Y-9952010D02*
X5015000Y-9952010D01*
X9301250Y-14720016D02*
X10701250Y-14720016D01*
X9301250Y-16120016D02*
X9301250Y-14720016D01*
X10701250Y-14720016D02*
X10701250Y-16120016D01*
X10701250Y-16120016D02*
X9301250Y-16120016D01*
X14063750Y-12664014D02*
X15463750Y-12664014D01*
X14063750Y-14064014D02*
X14063750Y-12664014D01*
X15463750Y-12664014D02*
X15463750Y-14064014D01*
X15463750Y-14064014D02*
X14063750Y-14064014D01*
X17397500Y-10608012D02*
X18797500Y-10608012D01*
X17397500Y-12008012D02*
X17397500Y-10608012D01*
X18797500Y-10608012D02*
X18797500Y-12008012D01*
X18797500Y-12008012D02*
X17397500Y-12008012D01*
X24541250Y-14720016D02*
X25941250Y-14720016D01*
X24541250Y-16120016D02*
X24541250Y-14720016D01*
X25941250Y-14720016D02*
X25941250Y-16120016D01*
X25941250Y-16120016D02*
X24541250Y-16120016D01*
X13111250Y-14720016D02*
X14511250Y-14720016D01*
X13111250Y-16120016D02*
X13111250Y-14720016D01*
X14511250Y-14720016D02*
X14511250Y-16120016D01*
X14511250Y-16120016D02*
X13111250Y-16120016D01*
X16921250Y-14720016D02*
X18321250Y-14720016D01*
X16921250Y-16120016D02*
X16921250Y-14720016D01*
X18321250Y-14720016D02*
X18321250Y-16120016D01*
X18321250Y-16120016D02*
X16921250Y-16120016D01*
D12*
X29663075Y-13964013D02*
X29663075Y-12664013D01*
X30338075Y-12664013D02*
X29663075Y-12664013D01*
X30338075Y-13964013D02*
X29663075Y-13964013D01*
X30338075Y-13964013D02*
X30338075Y-12664013D01*
X30494375Y-12664013D02*
X31894375Y-12664013D01*
X30494375Y-14064013D02*
X30494375Y-12664013D01*
X31894375Y-12664013D02*
X31894375Y-14064013D01*
X31894375Y-14064013D02*
X30494375Y-14064013D01*
X32050675Y-13964013D02*
X32050675Y-12664013D01*
X32725675Y-12664013D02*
X32050675Y-12664013D01*
X32725675Y-13964013D02*
X32050675Y-13964013D01*
X32725675Y-13964013D02*
X32725675Y-12664013D01*
D11*
X26446250Y-14720016D02*
X27846250Y-14720016D01*
X26446250Y-16120016D02*
X26446250Y-14720016D01*
X27846250Y-14720016D02*
X27846250Y-16120016D01*
X27846250Y-16120016D02*
X26446250Y-16120016D01*
D12*
X5253125Y-12664013D02*
X7129375Y-12664013D01*
X5253125Y-14064013D02*
X5253125Y-12664013D01*
X7129375Y-12664013D02*
X7129375Y-14064013D01*
X7129375Y-14064013D02*
X5253125Y-14064013D01*
D11*
X16445000Y-8552010D02*
X17845000Y-8552010D01*
X16445000Y-9952010D02*
X16445000Y-8552010D01*
X17845000Y-8552010D02*
X17845000Y-9952010D01*
X17845000Y-9952010D02*
X16445000Y-9952010D01*
X8825000Y-8552010D02*
X10225000Y-8552010D01*
X8825000Y-9952010D02*
X8825000Y-8552010D01*
X10225000Y-8552010D02*
X10225000Y-9952010D01*
X10225000Y-9952010D02*
X8825000Y-9952010D01*
X6920000Y-8552010D02*
X8320000Y-8552010D01*
X6920000Y-9952010D02*
X6920000Y-8552010D01*
X8320000Y-8552010D02*
X8320000Y-9952010D01*
X8320000Y-9952010D02*
X6920000Y-9952010D01*
X29780000Y-8552010D02*
X31180000Y-8552010D01*
X29780000Y-9952010D02*
X29780000Y-8552010D01*
X31180000Y-8552010D02*
X31180000Y-9952010D01*
X31180000Y-9952010D02*
X29780000Y-9952010D01*
X8348750Y-12664014D02*
X9748750Y-12664014D01*
X8348750Y-14064014D02*
X8348750Y-12664014D01*
X9748750Y-12664014D02*
X9748750Y-14064014D01*
X9748750Y-14064014D02*
X8348750Y-14064014D01*
X21207500Y-10608012D02*
X22607500Y-10608012D01*
X21207500Y-12008012D02*
X21207500Y-10608012D01*
X22607500Y-10608012D02*
X22607500Y-12008012D01*
X22607500Y-12008012D02*
X21207500Y-12008012D01*
X15492500Y-10608012D02*
X16892500Y-10608012D01*
X15492500Y-12008012D02*
X15492500Y-10608012D01*
X16892500Y-10608012D02*
X16892500Y-12008012D01*
X16892500Y-12008012D02*
X15492500Y-12008012D01*
X24065000Y-8552010D02*
X25465000Y-8552010D01*
X24065000Y-9952010D02*
X24065000Y-8552010D01*
X25465000Y-8552010D02*
X25465000Y-9952010D01*
X25465000Y-9952010D02*
X24065000Y-9952010D01*
X27398750Y-12664014D02*
X28798750Y-12664014D01*
X27398750Y-14064014D02*
X27398750Y-12664014D01*
X28798750Y-12664014D02*
X28798750Y-14064014D01*
X28798750Y-14064014D02*
X27398750Y-14064014D01*
X23588750Y-12664014D02*
X24988750Y-12664014D01*
X23588750Y-14064014D02*
X23588750Y-12664014D01*
X24988750Y-12664014D02*
X24988750Y-14064014D01*
X24988750Y-14064014D02*
X23588750Y-14064014D01*
X25017500Y-10608012D02*
X26417500Y-10608012D01*
X25017500Y-12008012D02*
X25017500Y-10608012D01*
X26417500Y-10608012D02*
X26417500Y-12008012D01*
X26417500Y-12008012D02*
X25017500Y-12008012D01*
X31685000Y-8552011D02*
X33085000Y-8552011D01*
X31685000Y-9952011D02*
X31685000Y-8552011D01*
X33085000Y-8552011D02*
X33085000Y-9952011D01*
X33085000Y-9952011D02*
X31685000Y-9952011D01*
X5491250Y-16776019D02*
X6891250Y-16776019D01*
X5491250Y-18176019D02*
X5491250Y-16776019D01*
X6891250Y-16776019D02*
X6891250Y-18176019D01*
X6891250Y-18176019D02*
X5491250Y-18176019D01*
D12*
D13*
X4862000Y-12575160D02*
X5132000Y-12845160D01*
X5132000Y-12575160D02*
X4862000Y-12845160D01*
X4865000Y-10487280D02*
X5135000Y-10757280D01*
X5135000Y-10487280D02*
X4865000Y-10757280D01*
X4865000Y-14623000D02*
X5135000Y-14893000D01*
X5135000Y-14623000D02*
X4865000Y-14893000D01*
X5123280Y-16679800D02*
X5393280Y-16949800D01*
X5393280Y-16679800D02*
X5123280Y-16949800D01*
X7068440Y-10487280D02*
X7338440Y-10757280D01*
X7338440Y-10487280D02*
X7068440Y-10757280D01*
X7137500Y-18015000D02*
X7407500Y-18285000D01*
X7407500Y-18015000D02*
X7137500Y-18285000D01*
X8440040Y-8429880D02*
X8710040Y-8699880D01*
X8710040Y-8429880D02*
X8440040Y-8699880D01*
X8914000Y-14623000D02*
X9184000Y-14893000D01*
X9184000Y-14623000D02*
X8914000Y-14893000D01*
X11296000Y-10512000D02*
X11566000Y-10782000D01*
X11566000Y-10512000D02*
X11296000Y-10782000D01*
X11300000Y-16679800D02*
X11570000Y-16949800D01*
X11570000Y-16679800D02*
X11300000Y-16949800D01*
X11300000Y-18040000D02*
X11570000Y-18310000D01*
X11570000Y-18040000D02*
X11300000Y-18310000D01*
X11772000Y-12585320D02*
X12042000Y-12855320D01*
X12042000Y-12585320D02*
X11772000Y-12855320D01*
X16057000Y-8432000D02*
X16327000Y-8702000D01*
X16327000Y-8432000D02*
X16057000Y-8702000D01*
X16290000Y-18015000D02*
X16560000Y-18285000D01*
X16560000Y-18015000D02*
X16290000Y-18285000D01*
X16534000Y-14623000D02*
X16804000Y-14893000D01*
X16804000Y-14623000D02*
X16534000Y-14893000D01*
X18915000Y-10498000D02*
X19185000Y-10768000D01*
X19185000Y-10498000D02*
X18915000Y-10768000D01*
X19392000Y-12580240D02*
X19662000Y-12850240D01*
X19662000Y-12580240D02*
X19392000Y-12850240D01*
X19884000Y-16679800D02*
X20154000Y-16949800D01*
X20154000Y-16679800D02*
X19884000Y-16949800D01*
X20345000Y-14623000D02*
X20615000Y-14893000D01*
X20615000Y-14623000D02*
X20345000Y-14893000D01*
X21610000Y-18015000D02*
X21880000Y-18285000D01*
X21880000Y-18015000D02*
X21610000Y-18285000D01*
X23678000Y-8431000D02*
X23948000Y-8701000D01*
X23948000Y-8431000D02*
X23678000Y-8701000D01*
X26537500Y-16679800D02*
X26807500Y-16949800D01*
X26807500Y-16679800D02*
X26537500Y-16949800D01*
X26537500Y-18015000D02*
X26807500Y-18285000D01*
X26807500Y-18015000D02*
X26537500Y-18285000D01*
X26540000Y-10496000D02*
X26810000Y-10766000D01*
X26810000Y-10496000D02*
X26540000Y-10766000D01*
X27027760Y-12580240D02*
X27297760Y-12850240D01*
X27297760Y-12580240D02*
X27027760Y-12850240D01*
X27966000Y-14623000D02*
X28236000Y-14893000D01*
X28236000Y-14623000D02*
X27966000Y-14893000D01*
X30823000Y-16679800D02*
X31093000Y-16949800D01*
X31093000Y-16679800D02*
X30823000Y-16949800D01*
X31300040Y-8429880D02*
X31570040Y-8699880D01*
X31570040Y-8429880D02*
X31300040Y-8699880D01*
X32815000Y-10496000D02*
X33085000Y-10766000D01*
X33085000Y-10496000D02*
X32815000Y-10766000D01*
X32815000Y-12580240D02*
X33085000Y-12850240D01*
X33085000Y-12580240D02*
X32815000Y-12850240D01*
X32815000Y-14623000D02*
X33085000Y-14893000D01*
X33085000Y-14623000D02*
X32815000Y-14893000D01*
X32815000Y-17915000D02*
X33085000Y-18185000D01*
X33085000Y-17915000D02*
X32815000Y-18185000D01*
D12*
X4953277Y-18758984D02*
X4953277Y-18558984D01*
X4953277Y-18558984D02*
X5000896Y-18558984D01*
X5000896Y-18558984D02*
X5029467Y-18568508D01*
X5029467Y-18568508D02*
X5048515Y-18587555D01*
X5048515Y-18587555D02*
X5058039Y-18606603D01*
X5058039Y-18606603D02*
X5067563Y-18644698D01*
X5067563Y-18644698D02*
X5067563Y-18673270D01*
X5067563Y-18673270D02*
X5058039Y-18711365D01*
X5058039Y-18711365D02*
X5048515Y-18730412D01*
X5048515Y-18730412D02*
X5029467Y-18749460D01*
X5029467Y-18749460D02*
X5000896Y-18758984D01*
X5000896Y-18758984D02*
X4953277Y-18758984D01*
X5153277Y-18758984D02*
X5153277Y-18625650D01*
X5153277Y-18663746D02*
X5162801Y-18644698D01*
X5162801Y-18644698D02*
X5172324Y-18635174D01*
X5172324Y-18635174D02*
X5191372Y-18625650D01*
X5191372Y-18625650D02*
X5210420Y-18625650D01*
X5277086Y-18758984D02*
X5277086Y-18625650D01*
X5277086Y-18558984D02*
X5267563Y-18568508D01*
X5267563Y-18568508D02*
X5277086Y-18578031D01*
X5277086Y-18578031D02*
X5286610Y-18568508D01*
X5286610Y-18568508D02*
X5277086Y-18558984D01*
X5277086Y-18558984D02*
X5277086Y-18578031D01*
X5400896Y-18758984D02*
X5381848Y-18749460D01*
X5381848Y-18749460D02*
X5372324Y-18730412D01*
X5372324Y-18730412D02*
X5372324Y-18558984D01*
X5505658Y-18758984D02*
X5486610Y-18749460D01*
X5486610Y-18749460D02*
X5477086Y-18730412D01*
X5477086Y-18730412D02*
X5477086Y-18558984D01*
X5734229Y-18758984D02*
X5734229Y-18558984D01*
X5734229Y-18558984D02*
X5800896Y-18701841D01*
X5800896Y-18701841D02*
X5867562Y-18558984D01*
X5867562Y-18558984D02*
X5867562Y-18758984D01*
X6048515Y-18758984D02*
X6048515Y-18654222D01*
X6048515Y-18654222D02*
X6038991Y-18635174D01*
X6038991Y-18635174D02*
X6019943Y-18625650D01*
X6019943Y-18625650D02*
X5981848Y-18625650D01*
X5981848Y-18625650D02*
X5962801Y-18635174D01*
X6048515Y-18749460D02*
X6029467Y-18758984D01*
X6029467Y-18758984D02*
X5981848Y-18758984D01*
X5981848Y-18758984D02*
X5962801Y-18749460D01*
X5962801Y-18749460D02*
X5953277Y-18730412D01*
X5953277Y-18730412D02*
X5953277Y-18711365D01*
X5953277Y-18711365D02*
X5962801Y-18692317D01*
X5962801Y-18692317D02*
X5981848Y-18682793D01*
X5981848Y-18682793D02*
X6029467Y-18682793D01*
X6029467Y-18682793D02*
X6048515Y-18673270D01*
X6143753Y-18625650D02*
X6143753Y-18825650D01*
X6143753Y-18635174D02*
X6162801Y-18625650D01*
X6162801Y-18625650D02*
X6200896Y-18625650D01*
X6200896Y-18625650D02*
X6219943Y-18635174D01*
X6219943Y-18635174D02*
X6229467Y-18644698D01*
X6229467Y-18644698D02*
X6238991Y-18663746D01*
X6238991Y-18663746D02*
X6238991Y-18720889D01*
X6238991Y-18720889D02*
X6229467Y-18739936D01*
X6229467Y-18739936D02*
X6219943Y-18749460D01*
X6219943Y-18749460D02*
X6200896Y-18758984D01*
X6200896Y-18758984D02*
X6162801Y-18758984D01*
X6162801Y-18758984D02*
X6143753Y-18749460D01*
X6324705Y-18739936D02*
X6334229Y-18749460D01*
X6334229Y-18749460D02*
X6324705Y-18758984D01*
X6324705Y-18758984D02*
X6315182Y-18749460D01*
X6315182Y-18749460D02*
X6324705Y-18739936D01*
X6324705Y-18739936D02*
X6324705Y-18758984D01*
X6324705Y-18635174D02*
X6334229Y-18644698D01*
X6334229Y-18644698D02*
X6324705Y-18654222D01*
X6324705Y-18654222D02*
X6315182Y-18644698D01*
X6315182Y-18644698D02*
X6324705Y-18635174D01*
X6324705Y-18635174D02*
X6324705Y-18654222D01*
X4492500Y-18987500D02*
X4692500Y-19187500D01*
X4692500Y-18987500D02*
X4492500Y-19187500D01*
X4943753Y-18998031D02*
X4953277Y-18988508D01*
X4953277Y-18988508D02*
X4972324Y-18978984D01*
X4972324Y-18978984D02*
X5019944Y-18978984D01*
X5019944Y-18978984D02*
X5038991Y-18988508D01*
X5038991Y-18988508D02*
X5048515Y-18998031D01*
X5048515Y-18998031D02*
X5058039Y-19017079D01*
X5058039Y-19017079D02*
X5058039Y-19036127D01*
X5058039Y-19036127D02*
X5048515Y-19064698D01*
X5048515Y-19064698D02*
X4934229Y-19178984D01*
X4934229Y-19178984D02*
X5058039Y-19178984D01*
X5143753Y-19159936D02*
X5153277Y-19169460D01*
X5153277Y-19169460D02*
X5143753Y-19178984D01*
X5143753Y-19178984D02*
X5134229Y-19169460D01*
X5134229Y-19169460D02*
X5143753Y-19159936D01*
X5143753Y-19159936D02*
X5143753Y-19178984D01*
X5219944Y-18978984D02*
X5353277Y-18978984D01*
X5353277Y-18978984D02*
X5267563Y-19178984D01*
X5467563Y-18978984D02*
X5486610Y-18978984D01*
X5486610Y-18978984D02*
X5505658Y-18988508D01*
X5505658Y-18988508D02*
X5515182Y-18998031D01*
X5515182Y-18998031D02*
X5524705Y-19017079D01*
X5524705Y-19017079D02*
X5534229Y-19055174D01*
X5534229Y-19055174D02*
X5534229Y-19102793D01*
X5534229Y-19102793D02*
X5524705Y-19140889D01*
X5524705Y-19140889D02*
X5515182Y-19159936D01*
X5515182Y-19159936D02*
X5505658Y-19169460D01*
X5505658Y-19169460D02*
X5486610Y-19178984D01*
X5486610Y-19178984D02*
X5467563Y-19178984D01*
X5467563Y-19178984D02*
X5448515Y-19169460D01*
X5448515Y-19169460D02*
X5438991Y-19159936D01*
X5438991Y-19159936D02*
X5429467Y-19140889D01*
X5429467Y-19140889D02*
X5419944Y-19102793D01*
X5419944Y-19102793D02*
X5419944Y-19055174D01*
X5419944Y-19055174D02*
X5429467Y-19017079D01*
X5429467Y-19017079D02*
X5438991Y-18998031D01*
X5438991Y-18998031D02*
X5448515Y-18988508D01*
X5448515Y-18988508D02*
X5467563Y-18978984D01*
X5658039Y-18978984D02*
X5677086Y-18978984D01*
X5677086Y-18978984D02*
X5696134Y-18988508D01*
X5696134Y-18988508D02*
X5705658Y-18998031D01*
X5705658Y-18998031D02*
X5715182Y-19017079D01*
X5715182Y-19017079D02*
X5724705Y-19055174D01*
X5724705Y-19055174D02*
X5724705Y-19102793D01*
X5724705Y-19102793D02*
X5715182Y-19140889D01*
X5715182Y-19140889D02*
X5705658Y-19159936D01*
X5705658Y-19159936D02*
X5696134Y-19169460D01*
X5696134Y-19169460D02*
X5677086Y-19178984D01*
X5677086Y-19178984D02*
X5658039Y-19178984D01*
X5658039Y-19178984D02*
X5638991Y-19169460D01*
X5638991Y-19169460D02*
X5629467Y-19159936D01*
X5629467Y-19159936D02*
X5619943Y-19140889D01*
X5619943Y-19140889D02*
X5610420Y-19102793D01*
X5610420Y-19102793D02*
X5610420Y-19055174D01*
X5610420Y-19055174D02*
X5619943Y-19017079D01*
X5619943Y-19017079D02*
X5629467Y-18998031D01*
X5629467Y-18998031D02*
X5638991Y-18988508D01*
X5638991Y-18988508D02*
X5658039Y-18978984D01*
X5810420Y-19178984D02*
X5810420Y-19045650D01*
X5810420Y-19064698D02*
X5819943Y-19055174D01*
X5819943Y-19055174D02*
X5838991Y-19045650D01*
X5838991Y-19045650D02*
X5867563Y-19045650D01*
X5867563Y-19045650D02*
X5886610Y-19055174D01*
X5886610Y-19055174D02*
X5896134Y-19074222D01*
X5896134Y-19074222D02*
X5896134Y-19178984D01*
X5896134Y-19074222D02*
X5905658Y-19055174D01*
X5905658Y-19055174D02*
X5924705Y-19045650D01*
X5924705Y-19045650D02*
X5953277Y-19045650D01*
X5953277Y-19045650D02*
X5972324Y-19055174D01*
X5972324Y-19055174D02*
X5981848Y-19074222D01*
X5981848Y-19074222D02*
X5981848Y-19178984D01*
X6077086Y-19178984D02*
X6077086Y-19045650D01*
X6077086Y-19064698D02*
X6086610Y-19055174D01*
X6086610Y-19055174D02*
X6105658Y-19045650D01*
X6105658Y-19045650D02*
X6134229Y-19045650D01*
X6134229Y-19045650D02*
X6153277Y-19055174D01*
X6153277Y-19055174D02*
X6162801Y-19074222D01*
X6162801Y-19074222D02*
X6162801Y-19178984D01*
X6162801Y-19074222D02*
X6172324Y-19055174D01*
X6172324Y-19055174D02*
X6191372Y-19045650D01*
X6191372Y-19045650D02*
X6219943Y-19045650D01*
X6219943Y-19045650D02*
X6238991Y-19055174D01*
X6238991Y-19055174D02*
X6248515Y-19074222D01*
X6248515Y-19074222D02*
X6248515Y-19178984D01*
X6638991Y-18969460D02*
X6467563Y-19226603D01*
X6896134Y-18978984D02*
X6915182Y-18978984D01*
X6915182Y-18978984D02*
X6934229Y-18988508D01*
X6934229Y-18988508D02*
X6943753Y-18998031D01*
X6943753Y-18998031D02*
X6953277Y-19017079D01*
X6953277Y-19017079D02*
X6962801Y-19055174D01*
X6962801Y-19055174D02*
X6962801Y-19102793D01*
X6962801Y-19102793D02*
X6953277Y-19140889D01*
X6953277Y-19140889D02*
X6943753Y-19159936D01*
X6943753Y-19159936D02*
X6934229Y-19169460D01*
X6934229Y-19169460D02*
X6915182Y-19178984D01*
X6915182Y-19178984D02*
X6896134Y-19178984D01*
X6896134Y-19178984D02*
X6877086Y-19169460D01*
X6877086Y-19169460D02*
X6867563Y-19159936D01*
X6867563Y-19159936D02*
X6858039Y-19140889D01*
X6858039Y-19140889D02*
X6848515Y-19102793D01*
X6848515Y-19102793D02*
X6848515Y-19055174D01*
X6848515Y-19055174D02*
X6858039Y-19017079D01*
X6858039Y-19017079D02*
X6867563Y-18998031D01*
X6867563Y-18998031D02*
X6877086Y-18988508D01*
X6877086Y-18988508D02*
X6896134Y-18978984D01*
X7048515Y-19159936D02*
X7058039Y-19169460D01*
X7058039Y-19169460D02*
X7048515Y-19178984D01*
X7048515Y-19178984D02*
X7038991Y-19169460D01*
X7038991Y-19169460D02*
X7048515Y-19159936D01*
X7048515Y-19159936D02*
X7048515Y-19178984D01*
X7248515Y-19178984D02*
X7134229Y-19178984D01*
X7191372Y-19178984D02*
X7191372Y-18978984D01*
X7191372Y-18978984D02*
X7172325Y-19007555D01*
X7172325Y-19007555D02*
X7153277Y-19026603D01*
X7153277Y-19026603D02*
X7134229Y-19036127D01*
X7372325Y-18978984D02*
X7391372Y-18978984D01*
X7391372Y-18978984D02*
X7410420Y-18988508D01*
X7410420Y-18988508D02*
X7419944Y-18998031D01*
X7419944Y-18998031D02*
X7429467Y-19017079D01*
X7429467Y-19017079D02*
X7438991Y-19055174D01*
X7438991Y-19055174D02*
X7438991Y-19102793D01*
X7438991Y-19102793D02*
X7429467Y-19140889D01*
X7429467Y-19140889D02*
X7419944Y-19159936D01*
X7419944Y-19159936D02*
X7410420Y-19169460D01*
X7410420Y-19169460D02*
X7391372Y-19178984D01*
X7391372Y-19178984D02*
X7372325Y-19178984D01*
X7372325Y-19178984D02*
X7353277Y-19169460D01*
X7353277Y-19169460D02*
X7343753Y-19159936D01*
X7343753Y-19159936D02*
X7334229Y-19140889D01*
X7334229Y-19140889D02*
X7324706Y-19102793D01*
X7324706Y-19102793D02*
X7324706Y-19055174D01*
X7324706Y-19055174D02*
X7334229Y-19017079D01*
X7334229Y-19017079D02*
X7343753Y-18998031D01*
X7343753Y-18998031D02*
X7353277Y-18988508D01*
X7353277Y-18988508D02*
X7372325Y-18978984D01*
X7610420Y-18978984D02*
X7572325Y-18978984D01*
X7572325Y-18978984D02*
X7553277Y-18988508D01*
X7553277Y-18988508D02*
X7543753Y-18998031D01*
X7543753Y-18998031D02*
X7524706Y-19026603D01*
X7524706Y-19026603D02*
X7515182Y-19064698D01*
X7515182Y-19064698D02*
X7515182Y-19140889D01*
X7515182Y-19140889D02*
X7524706Y-19159936D01*
X7524706Y-19159936D02*
X7534229Y-19169460D01*
X7534229Y-19169460D02*
X7553277Y-19178984D01*
X7553277Y-19178984D02*
X7591372Y-19178984D01*
X7591372Y-19178984D02*
X7610420Y-19169460D01*
X7610420Y-19169460D02*
X7619944Y-19159936D01*
X7619944Y-19159936D02*
X7629467Y-19140889D01*
X7629467Y-19140889D02*
X7629467Y-19093270D01*
X7629467Y-19093270D02*
X7619944Y-19074222D01*
X7619944Y-19074222D02*
X7610420Y-19064698D01*
X7610420Y-19064698D02*
X7591372Y-19055174D01*
X7591372Y-19055174D02*
X7553277Y-19055174D01*
X7553277Y-19055174D02*
X7534229Y-19064698D01*
X7534229Y-19064698D02*
X7524706Y-19074222D01*
X7524706Y-19074222D02*
X7515182Y-19093270D01*
X7696134Y-18978984D02*
X7819944Y-18978984D01*
X7819944Y-18978984D02*
X7753277Y-19055174D01*
X7753277Y-19055174D02*
X7781848Y-19055174D01*
X7781848Y-19055174D02*
X7800896Y-19064698D01*
X7800896Y-19064698D02*
X7810420Y-19074222D01*
X7810420Y-19074222D02*
X7819944Y-19093270D01*
X7819944Y-19093270D02*
X7819944Y-19140889D01*
X7819944Y-19140889D02*
X7810420Y-19159936D01*
X7810420Y-19159936D02*
X7800896Y-19169460D01*
X7800896Y-19169460D02*
X7781848Y-19178984D01*
X7781848Y-19178984D02*
X7724706Y-19178984D01*
X7724706Y-19178984D02*
X7705658Y-19169460D01*
X7705658Y-19169460D02*
X7696134Y-19159936D01*
X7896134Y-18978984D02*
X7896134Y-19017079D01*
X7972325Y-18978984D02*
X7972325Y-19017079D01*
X8267563Y-19255174D02*
X8258039Y-19245650D01*
X8258039Y-19245650D02*
X8238991Y-19217079D01*
X8238991Y-19217079D02*
X8229468Y-19198031D01*
X8229468Y-19198031D02*
X8219944Y-19169460D01*
X8219944Y-19169460D02*
X8210420Y-19121841D01*
X8210420Y-19121841D02*
X8210420Y-19083746D01*
X8210420Y-19083746D02*
X8219944Y-19036127D01*
X8219944Y-19036127D02*
X8229468Y-19007555D01*
X8229468Y-19007555D02*
X8238991Y-18988508D01*
X8238991Y-18988508D02*
X8258039Y-18959936D01*
X8258039Y-18959936D02*
X8267563Y-18950412D01*
X8324706Y-18978984D02*
X8448515Y-18978984D01*
X8448515Y-18978984D02*
X8381848Y-19055174D01*
X8381848Y-19055174D02*
X8410420Y-19055174D01*
X8410420Y-19055174D02*
X8429468Y-19064698D01*
X8429468Y-19064698D02*
X8438991Y-19074222D01*
X8438991Y-19074222D02*
X8448515Y-19093270D01*
X8448515Y-19093270D02*
X8448515Y-19140889D01*
X8448515Y-19140889D02*
X8438991Y-19159936D01*
X8438991Y-19159936D02*
X8429468Y-19169460D01*
X8429468Y-19169460D02*
X8410420Y-19178984D01*
X8410420Y-19178984D02*
X8353277Y-19178984D01*
X8353277Y-19178984D02*
X8334229Y-19169460D01*
X8334229Y-19169460D02*
X8324706Y-19159936D01*
X8524706Y-18998031D02*
X8534230Y-18988508D01*
X8534230Y-18988508D02*
X8553277Y-18978984D01*
X8553277Y-18978984D02*
X8600896Y-18978984D01*
X8600896Y-18978984D02*
X8619944Y-18988508D01*
X8619944Y-18988508D02*
X8629468Y-18998031D01*
X8629468Y-18998031D02*
X8638991Y-19017079D01*
X8638991Y-19017079D02*
X8638991Y-19036127D01*
X8638991Y-19036127D02*
X8629468Y-19064698D01*
X8629468Y-19064698D02*
X8515182Y-19178984D01*
X8515182Y-19178984D02*
X8638991Y-19178984D01*
X8877087Y-19178984D02*
X8877087Y-18978984D01*
X8962801Y-19178984D02*
X8962801Y-19074222D01*
X8962801Y-19074222D02*
X8953277Y-19055174D01*
X8953277Y-19055174D02*
X8934230Y-19045650D01*
X8934230Y-19045650D02*
X8905658Y-19045650D01*
X8905658Y-19045650D02*
X8886611Y-19055174D01*
X8886611Y-19055174D02*
X8877087Y-19064698D01*
X9086611Y-19178984D02*
X9067563Y-19169460D01*
X9067563Y-19169460D02*
X9058039Y-19159936D01*
X9058039Y-19159936D02*
X9048515Y-19140889D01*
X9048515Y-19140889D02*
X9048515Y-19083746D01*
X9048515Y-19083746D02*
X9058039Y-19064698D01*
X9058039Y-19064698D02*
X9067563Y-19055174D01*
X9067563Y-19055174D02*
X9086611Y-19045650D01*
X9086611Y-19045650D02*
X9115182Y-19045650D01*
X9115182Y-19045650D02*
X9134230Y-19055174D01*
X9134230Y-19055174D02*
X9143753Y-19064698D01*
X9143753Y-19064698D02*
X9153277Y-19083746D01*
X9153277Y-19083746D02*
X9153277Y-19140889D01*
X9153277Y-19140889D02*
X9143753Y-19159936D01*
X9143753Y-19159936D02*
X9134230Y-19169460D01*
X9134230Y-19169460D02*
X9115182Y-19178984D01*
X9115182Y-19178984D02*
X9086611Y-19178984D01*
X9267563Y-19178984D02*
X9248515Y-19169460D01*
X9248515Y-19169460D02*
X9238992Y-19150412D01*
X9238992Y-19150412D02*
X9238992Y-18978984D01*
X9419944Y-19169460D02*
X9400896Y-19178984D01*
X9400896Y-19178984D02*
X9362801Y-19178984D01*
X9362801Y-19178984D02*
X9343753Y-19169460D01*
X9343753Y-19169460D02*
X9334230Y-19150412D01*
X9334230Y-19150412D02*
X9334230Y-19074222D01*
X9334230Y-19074222D02*
X9343753Y-19055174D01*
X9343753Y-19055174D02*
X9362801Y-19045650D01*
X9362801Y-19045650D02*
X9400896Y-19045650D01*
X9400896Y-19045650D02*
X9419944Y-19055174D01*
X9419944Y-19055174D02*
X9429468Y-19074222D01*
X9429468Y-19074222D02*
X9429468Y-19093270D01*
X9429468Y-19093270D02*
X9334230Y-19112317D01*
X9505658Y-19169460D02*
X9524706Y-19178984D01*
X9524706Y-19178984D02*
X9562801Y-19178984D01*
X9562801Y-19178984D02*
X9581849Y-19169460D01*
X9581849Y-19169460D02*
X9591373Y-19150412D01*
X9591373Y-19150412D02*
X9591373Y-19140889D01*
X9591373Y-19140889D02*
X9581849Y-19121841D01*
X9581849Y-19121841D02*
X9562801Y-19112317D01*
X9562801Y-19112317D02*
X9534230Y-19112317D01*
X9534230Y-19112317D02*
X9515182Y-19102793D01*
X9515182Y-19102793D02*
X9505658Y-19083746D01*
X9505658Y-19083746D02*
X9505658Y-19074222D01*
X9505658Y-19074222D02*
X9515182Y-19055174D01*
X9515182Y-19055174D02*
X9534230Y-19045650D01*
X9534230Y-19045650D02*
X9562801Y-19045650D01*
X9562801Y-19045650D02*
X9581849Y-19055174D01*
X9658039Y-19255174D02*
X9667563Y-19245650D01*
X9667563Y-19245650D02*
X9686611Y-19217079D01*
X9686611Y-19217079D02*
X9696134Y-19198031D01*
X9696134Y-19198031D02*
X9705658Y-19169460D01*
X9705658Y-19169460D02*
X9715182Y-19121841D01*
X9715182Y-19121841D02*
X9715182Y-19083746D01*
X9715182Y-19083746D02*
X9705658Y-19036127D01*
X9705658Y-19036127D02*
X9696134Y-19007555D01*
X9696134Y-19007555D02*
X9686611Y-18988508D01*
X9686611Y-18988508D02*
X9667563Y-18959936D01*
X9667563Y-18959936D02*
X9658039Y-18950412D01*
X10019944Y-19255174D02*
X10010420Y-19245650D01*
X10010420Y-19245650D02*
X9991373Y-19217079D01*
X9991373Y-19217079D02*
X9981849Y-19198031D01*
X9981849Y-19198031D02*
X9972325Y-19169460D01*
X9972325Y-19169460D02*
X9962801Y-19121841D01*
X9962801Y-19121841D02*
X9962801Y-19083746D01*
X9962801Y-19083746D02*
X9972325Y-19036127D01*
X9972325Y-19036127D02*
X9981849Y-19007555D01*
X9981849Y-19007555D02*
X9991373Y-18988508D01*
X9991373Y-18988508D02*
X10010420Y-18959936D01*
X10010420Y-18959936D02*
X10019944Y-18950412D01*
X10096134Y-19045650D02*
X10096134Y-19178984D01*
X10096134Y-19064698D02*
X10105658Y-19055174D01*
X10105658Y-19055174D02*
X10124706Y-19045650D01*
X10124706Y-19045650D02*
X10153277Y-19045650D01*
X10153277Y-19045650D02*
X10172325Y-19055174D01*
X10172325Y-19055174D02*
X10181849Y-19074222D01*
X10181849Y-19074222D02*
X10181849Y-19178984D01*
X10305658Y-19178984D02*
X10286611Y-19169460D01*
X10286611Y-19169460D02*
X10277087Y-19159936D01*
X10277087Y-19159936D02*
X10267563Y-19140889D01*
X10267563Y-19140889D02*
X10267563Y-19083746D01*
X10267563Y-19083746D02*
X10277087Y-19064698D01*
X10277087Y-19064698D02*
X10286611Y-19055174D01*
X10286611Y-19055174D02*
X10305658Y-19045650D01*
X10305658Y-19045650D02*
X10334230Y-19045650D01*
X10334230Y-19045650D02*
X10353277Y-19055174D01*
X10353277Y-19055174D02*
X10362801Y-19064698D01*
X10362801Y-19064698D02*
X10372325Y-19083746D01*
X10372325Y-19083746D02*
X10372325Y-19140889D01*
X10372325Y-19140889D02*
X10362801Y-19159936D01*
X10362801Y-19159936D02*
X10353277Y-19169460D01*
X10353277Y-19169460D02*
X10334230Y-19178984D01*
X10334230Y-19178984D02*
X10305658Y-19178984D01*
X10429468Y-19045650D02*
X10505658Y-19045650D01*
X10458039Y-18978984D02*
X10458039Y-19150412D01*
X10458039Y-19150412D02*
X10467563Y-19169460D01*
X10467563Y-19169460D02*
X10486611Y-19178984D01*
X10486611Y-19178984D02*
X10505658Y-19178984D01*
X10724706Y-19045650D02*
X10724706Y-19245650D01*
X10724706Y-19055174D02*
X10743754Y-19045650D01*
X10743754Y-19045650D02*
X10781849Y-19045650D01*
X10781849Y-19045650D02*
X10800896Y-19055174D01*
X10800896Y-19055174D02*
X10810420Y-19064698D01*
X10810420Y-19064698D02*
X10819944Y-19083746D01*
X10819944Y-19083746D02*
X10819944Y-19140889D01*
X10819944Y-19140889D02*
X10810420Y-19159936D01*
X10810420Y-19159936D02*
X10800896Y-19169460D01*
X10800896Y-19169460D02*
X10781849Y-19178984D01*
X10781849Y-19178984D02*
X10743754Y-19178984D01*
X10743754Y-19178984D02*
X10724706Y-19169460D01*
X10934230Y-19178984D02*
X10915182Y-19169460D01*
X10915182Y-19169460D02*
X10905658Y-19150412D01*
X10905658Y-19150412D02*
X10905658Y-18978984D01*
X11096135Y-19178984D02*
X11096135Y-19074222D01*
X11096135Y-19074222D02*
X11086611Y-19055174D01*
X11086611Y-19055174D02*
X11067563Y-19045650D01*
X11067563Y-19045650D02*
X11029468Y-19045650D01*
X11029468Y-19045650D02*
X11010420Y-19055174D01*
X11096135Y-19169460D02*
X11077087Y-19178984D01*
X11077087Y-19178984D02*
X11029468Y-19178984D01*
X11029468Y-19178984D02*
X11010420Y-19169460D01*
X11010420Y-19169460D02*
X11000896Y-19150412D01*
X11000896Y-19150412D02*
X11000896Y-19131365D01*
X11000896Y-19131365D02*
X11010420Y-19112317D01*
X11010420Y-19112317D02*
X11029468Y-19102793D01*
X11029468Y-19102793D02*
X11077087Y-19102793D01*
X11077087Y-19102793D02*
X11096135Y-19093270D01*
X11162801Y-19045650D02*
X11238992Y-19045650D01*
X11191373Y-18978984D02*
X11191373Y-19150412D01*
X11191373Y-19150412D02*
X11200896Y-19169460D01*
X11200896Y-19169460D02*
X11219944Y-19178984D01*
X11219944Y-19178984D02*
X11238992Y-19178984D01*
X11381849Y-19169460D02*
X11362801Y-19178984D01*
X11362801Y-19178984D02*
X11324706Y-19178984D01*
X11324706Y-19178984D02*
X11305658Y-19169460D01*
X11305658Y-19169460D02*
X11296134Y-19150412D01*
X11296134Y-19150412D02*
X11296134Y-19074222D01*
X11296134Y-19074222D02*
X11305658Y-19055174D01*
X11305658Y-19055174D02*
X11324706Y-19045650D01*
X11324706Y-19045650D02*
X11362801Y-19045650D01*
X11362801Y-19045650D02*
X11381849Y-19055174D01*
X11381849Y-19055174D02*
X11391373Y-19074222D01*
X11391373Y-19074222D02*
X11391373Y-19093270D01*
X11391373Y-19093270D02*
X11296134Y-19112317D01*
X11562801Y-19178984D02*
X11562801Y-18978984D01*
X11562801Y-19169460D02*
X11543754Y-19178984D01*
X11543754Y-19178984D02*
X11505658Y-19178984D01*
X11505658Y-19178984D02*
X11486611Y-19169460D01*
X11486611Y-19169460D02*
X11477087Y-19159936D01*
X11477087Y-19159936D02*
X11467563Y-19140889D01*
X11467563Y-19140889D02*
X11467563Y-19083746D01*
X11467563Y-19083746D02*
X11477087Y-19064698D01*
X11477087Y-19064698D02*
X11486611Y-19055174D01*
X11486611Y-19055174D02*
X11505658Y-19045650D01*
X11505658Y-19045650D02*
X11543754Y-19045650D01*
X11543754Y-19045650D02*
X11562801Y-19055174D01*
X11638992Y-19255174D02*
X11648515Y-19245650D01*
X11648515Y-19245650D02*
X11667563Y-19217079D01*
X11667563Y-19217079D02*
X11677087Y-19198031D01*
X11677087Y-19198031D02*
X11686611Y-19169460D01*
X11686611Y-19169460D02*
X11696134Y-19121841D01*
X11696134Y-19121841D02*
X11696134Y-19083746D01*
X11696134Y-19083746D02*
X11686611Y-19036127D01*
X11686611Y-19036127D02*
X11677087Y-19007555D01*
X11677087Y-19007555D02*
X11667563Y-18988508D01*
X11667563Y-18988508D02*
X11648515Y-18959936D01*
X11648515Y-18959936D02*
X11638992Y-18950412D01*
M02*
