G04 #@! TF.GenerationSoftware,KiCad,Pcbnew,7.0.11+dfsg-1build4*
G04 #@! TF.CreationDate,2026-06-02T17:27:19-04:00*
G04 #@! TF.ProjectId,mission-control-plate-main,6d697373-696f-46e2-9d63-6f6e74726f6c,rev?*
G04 #@! TF.SameCoordinates,Original*
G04 #@! TF.FileFunction,Copper,L2,Bot*
G04 #@! TF.FilePolarity,Positive*
%FSLAX46Y46*%
G04 Gerber Fmt 4.6, Leading zero omitted, Abs format (unit mm)*
G04 Created by KiCad (PCBNEW 7.0.11+dfsg-1build4) date 2026-06-02 17:27:19*
%MOMM*%
%LPD*%
G01*
G04 APERTURE LIST*
G04 APERTURE END LIST*
G04 #@! TA.AperFunction,NonConductor*
G36*
X331003333Y-82910635D02*
G01*
X331308004Y-82926603D01*
X331318297Y-82927685D01*
X331617077Y-82975003D01*
X331627186Y-82977150D01*
X331919410Y-83055440D01*
X331929256Y-83058639D01*
X332211661Y-83167027D01*
X332221109Y-83171232D01*
X332476628Y-83301401D01*
X332490666Y-83308553D01*
X332499625Y-83313724D01*
X332753355Y-83478465D01*
X332761715Y-83484538D01*
X332996829Y-83674886D01*
X333004529Y-83681817D01*
X333218452Y-83895682D01*
X333225386Y-83903381D01*
X333415783Y-84138430D01*
X333421874Y-84146810D01*
X333586671Y-84400479D01*
X333591853Y-84409451D01*
X333729233Y-84678947D01*
X333733449Y-84688411D01*
X333841913Y-84970790D01*
X333845117Y-84980643D01*
X333923477Y-85272817D01*
X333925633Y-85282951D01*
X333973027Y-85581702D01*
X333974113Y-85592005D01*
X333989393Y-85882062D01*
X333989021Y-85887425D01*
X333989500Y-85887425D01*
X333989500Y-181397414D01*
X333989364Y-181402596D01*
X333973394Y-181707305D01*
X333972311Y-181717610D01*
X333924984Y-182016423D01*
X333922830Y-182026559D01*
X333844523Y-182318802D01*
X333841321Y-182328654D01*
X333737773Y-182598411D01*
X333732907Y-182611087D01*
X333728692Y-182620554D01*
X333591335Y-182890133D01*
X333586153Y-182899107D01*
X333421383Y-183152830D01*
X333415292Y-183161214D01*
X333224900Y-183396328D01*
X333217967Y-183404029D01*
X333004029Y-183617967D01*
X332996328Y-183624900D01*
X332761214Y-183815292D01*
X332752830Y-183821383D01*
X332499107Y-183986153D01*
X332490133Y-183991335D01*
X332220554Y-184128692D01*
X332211095Y-184132903D01*
X331998789Y-184214400D01*
X331928657Y-184241321D01*
X331918802Y-184244523D01*
X331626559Y-184322830D01*
X331616423Y-184324984D01*
X331317610Y-184372311D01*
X331307305Y-184373394D01*
X331025832Y-184388146D01*
X331002594Y-184389364D01*
X330997414Y-184389500D01*
X307002586Y-184389500D01*
X306997405Y-184389364D01*
X306972242Y-184388045D01*
X306692694Y-184373394D01*
X306682389Y-184372311D01*
X306383576Y-184324984D01*
X306373440Y-184322830D01*
X306081197Y-184244523D01*
X306071350Y-184241323D01*
X305788897Y-184132900D01*
X305779445Y-184128692D01*
X305509866Y-183991335D01*
X305500892Y-183986153D01*
X305247169Y-183821383D01*
X305238785Y-183815292D01*
X305003671Y-183624900D01*
X304995970Y-183617967D01*
X304782032Y-183404029D01*
X304775099Y-183396328D01*
X304584703Y-183161208D01*
X304578616Y-183152830D01*
X304413842Y-182899100D01*
X304408668Y-182890140D01*
X304271303Y-182620546D01*
X304267102Y-182611111D01*
X304158671Y-182328638D01*
X304155476Y-182318802D01*
X304077166Y-182026547D01*
X304075017Y-182016434D01*
X304031673Y-181742770D01*
X312076133Y-181742770D01*
X312076135Y-181760188D01*
X312076999Y-181762274D01*
X312079463Y-181768222D01*
X312079463Y-181768223D01*
X312087499Y-181771552D01*
X312087500Y-181771552D01*
X312104935Y-181771552D01*
X312109283Y-181770687D01*
X326065717Y-181770687D01*
X326070065Y-181771552D01*
X326087500Y-181771552D01*
X326087501Y-181771552D01*
X326095536Y-181768223D01*
X326095536Y-181768222D01*
X326095782Y-181767630D01*
X326096557Y-181765758D01*
X326098001Y-181762274D01*
X326098001Y-181762272D01*
X326098865Y-181760187D01*
X326098864Y-181760185D01*
X326098865Y-181760184D01*
X326098866Y-181742770D01*
X326098000Y-181738411D01*
X326098000Y-180563851D01*
X327915644Y-180563851D01*
X327946402Y-180817165D01*
X327946404Y-180817173D01*
X328017397Y-181062271D01*
X328017398Y-181062273D01*
X328017399Y-181062276D01*
X328021182Y-181070248D01*
X328126798Y-181292829D01*
X328271749Y-181502827D01*
X328271750Y-181502828D01*
X328271754Y-181502832D01*
X328448525Y-181686870D01*
X328652529Y-181840169D01*
X328878481Y-181958758D01*
X328878486Y-181958759D01*
X328878489Y-181958761D01*
X328958666Y-181985527D01*
X329120531Y-182039566D01*
X329372409Y-182080500D01*
X329563689Y-182080500D01*
X329563694Y-182080500D01*
X329754355Y-182065108D01*
X330002122Y-182004039D01*
X330236885Y-181904016D01*
X330452562Y-181767630D01*
X330643569Y-181598413D01*
X330804958Y-181400747D01*
X330932549Y-181179753D01*
X331023038Y-180941153D01*
X331074081Y-180691128D01*
X331084356Y-180436153D01*
X331053597Y-180182831D01*
X330982601Y-179937724D01*
X330873206Y-179707179D01*
X330873203Y-179707175D01*
X330873201Y-179707170D01*
X330728250Y-179497172D01*
X330728249Y-179497171D01*
X330636439Y-179401587D01*
X330551475Y-179313130D01*
X330347471Y-179159831D01*
X330121519Y-179041242D01*
X330121518Y-179041241D01*
X330121510Y-179041238D01*
X329879472Y-178960435D01*
X329879462Y-178960432D01*
X329627591Y-178919500D01*
X329436306Y-178919500D01*
X329381481Y-178923926D01*
X329245645Y-178934891D01*
X329245640Y-178934892D01*
X328997877Y-178995961D01*
X328763114Y-179095984D01*
X328547440Y-179232367D01*
X328356429Y-179401588D01*
X328356429Y-179401589D01*
X328195043Y-179599251D01*
X328067450Y-179820248D01*
X327976961Y-180058849D01*
X327925919Y-180308868D01*
X327925919Y-180308871D01*
X327925919Y-180308872D01*
X327918928Y-180482367D01*
X327915644Y-180563851D01*
X326098000Y-180563851D01*
X326098000Y-167781969D01*
X326098865Y-167777622D01*
X326098865Y-167760186D01*
X326095536Y-167752150D01*
X326089588Y-167749686D01*
X326089586Y-167749686D01*
X326087500Y-167748822D01*
X326087499Y-167748822D01*
X326070065Y-167748822D01*
X326065717Y-167749687D01*
X312109283Y-167749687D01*
X312104935Y-167748822D01*
X312087500Y-167748822D01*
X312085412Y-167749687D01*
X312085411Y-167749686D01*
X312079464Y-167752150D01*
X312079463Y-167752150D01*
X312076135Y-167760186D01*
X312076135Y-167777622D01*
X312077000Y-167781969D01*
X312077000Y-181738411D01*
X312076133Y-181742770D01*
X304031673Y-181742770D01*
X304027687Y-181717605D01*
X304026605Y-181707304D01*
X304025757Y-181691131D01*
X304010636Y-181402595D01*
X304010500Y-181397414D01*
X304010500Y-168211851D01*
X307995644Y-168211851D01*
X308026402Y-168465165D01*
X308026404Y-168465173D01*
X308097397Y-168710271D01*
X308097398Y-168710273D01*
X308097399Y-168710276D01*
X308129347Y-168777605D01*
X308206798Y-168940829D01*
X308351749Y-169150827D01*
X308351750Y-169150828D01*
X308351754Y-169150832D01*
X308528525Y-169334870D01*
X308732529Y-169488169D01*
X308958481Y-169606758D01*
X308958486Y-169606759D01*
X308958489Y-169606761D01*
X309038666Y-169633527D01*
X309200531Y-169687566D01*
X309452409Y-169728500D01*
X309643689Y-169728500D01*
X309643694Y-169728500D01*
X309834355Y-169713108D01*
X310082122Y-169652039D01*
X310316885Y-169552016D01*
X310532562Y-169415630D01*
X310723569Y-169246413D01*
X310884958Y-169048747D01*
X311012549Y-168827753D01*
X311103038Y-168589153D01*
X311154081Y-168339128D01*
X311164356Y-168084153D01*
X311133597Y-167830831D01*
X311062601Y-167585724D01*
X310953206Y-167355179D01*
X310953203Y-167355175D01*
X310953201Y-167355170D01*
X310808250Y-167145172D01*
X310808249Y-167145171D01*
X310716439Y-167049587D01*
X310631475Y-166961130D01*
X310427471Y-166807831D01*
X310201519Y-166689242D01*
X310201518Y-166689241D01*
X310201510Y-166689238D01*
X309959472Y-166608435D01*
X309959462Y-166608432D01*
X309707591Y-166567500D01*
X309516306Y-166567500D01*
X309461481Y-166571926D01*
X309325645Y-166582891D01*
X309325640Y-166582892D01*
X309077877Y-166643961D01*
X308843114Y-166743984D01*
X308627440Y-166880367D01*
X308436429Y-167049588D01*
X308436429Y-167049589D01*
X308275043Y-167247251D01*
X308147450Y-167468248D01*
X308056961Y-167706849D01*
X308005919Y-167956868D01*
X308005919Y-167956871D01*
X307995644Y-168211851D01*
X304010500Y-168211851D01*
X304010500Y-164021782D01*
X304011365Y-164017435D01*
X304011365Y-163999999D01*
X304008036Y-163991963D01*
X304002088Y-163989499D01*
X304002086Y-163989499D01*
X304000000Y-163988635D01*
X303999999Y-163988635D01*
X303982565Y-163988635D01*
X303978217Y-163989500D01*
X286521783Y-163989500D01*
X286517435Y-163988635D01*
X286500000Y-163988635D01*
X286497912Y-163989500D01*
X286497911Y-163989499D01*
X286491964Y-163991963D01*
X286491963Y-163991963D01*
X286488635Y-163999999D01*
X286488635Y-164017435D01*
X286489500Y-164021782D01*
X286489500Y-181397414D01*
X286489364Y-181402596D01*
X286473394Y-181707305D01*
X286472311Y-181717610D01*
X286424984Y-182016423D01*
X286422830Y-182026559D01*
X286344523Y-182318802D01*
X286341321Y-182328654D01*
X286237773Y-182598411D01*
X286232907Y-182611087D01*
X286228692Y-182620554D01*
X286091335Y-182890133D01*
X286086153Y-182899107D01*
X285921383Y-183152830D01*
X285915292Y-183161214D01*
X285724900Y-183396328D01*
X285717967Y-183404029D01*
X285504029Y-183617967D01*
X285496328Y-183624900D01*
X285261214Y-183815292D01*
X285252830Y-183821383D01*
X284999107Y-183986153D01*
X284990133Y-183991335D01*
X284720554Y-184128692D01*
X284711095Y-184132903D01*
X284498789Y-184214400D01*
X284428657Y-184241321D01*
X284418802Y-184244523D01*
X284126559Y-184322830D01*
X284116423Y-184324984D01*
X283817610Y-184372311D01*
X283807305Y-184373394D01*
X283525832Y-184388146D01*
X283502594Y-184389364D01*
X283497414Y-184389500D01*
X97502586Y-184389500D01*
X97497405Y-184389364D01*
X97472242Y-184388045D01*
X97192694Y-184373394D01*
X97182389Y-184372311D01*
X96883576Y-184324984D01*
X96873440Y-184322830D01*
X96581197Y-184244523D01*
X96571350Y-184241323D01*
X96288897Y-184132900D01*
X96279445Y-184128692D01*
X96009866Y-183991335D01*
X96000892Y-183986153D01*
X95747169Y-183821383D01*
X95738785Y-183815292D01*
X95503671Y-183624900D01*
X95495970Y-183617967D01*
X95282032Y-183404029D01*
X95275099Y-183396328D01*
X95084703Y-183161208D01*
X95078616Y-183152830D01*
X94913842Y-182899100D01*
X94908668Y-182890140D01*
X94771303Y-182620546D01*
X94767102Y-182611111D01*
X94658671Y-182328638D01*
X94655476Y-182318802D01*
X94577166Y-182026547D01*
X94575017Y-182016434D01*
X94542931Y-181813851D01*
X112765644Y-181813851D01*
X112796402Y-182067165D01*
X112796404Y-182067173D01*
X112867397Y-182312271D01*
X112976798Y-182542829D01*
X113121749Y-182752827D01*
X113121750Y-182752828D01*
X113121754Y-182752832D01*
X113298525Y-182936870D01*
X113502529Y-183090169D01*
X113728481Y-183208758D01*
X113728486Y-183208759D01*
X113728489Y-183208761D01*
X113808666Y-183235527D01*
X113970531Y-183289566D01*
X114222409Y-183330500D01*
X114413689Y-183330500D01*
X114413694Y-183330500D01*
X114604355Y-183315108D01*
X114852122Y-183254039D01*
X115086885Y-183154016D01*
X115302562Y-183017630D01*
X115493569Y-182848413D01*
X115654958Y-182650747D01*
X115782549Y-182429753D01*
X115873038Y-182191153D01*
X115924081Y-181941128D01*
X115932074Y-181742770D01*
X116813633Y-181742770D01*
X116813635Y-181760188D01*
X116814499Y-181762274D01*
X116816963Y-181768222D01*
X116816963Y-181768223D01*
X116824999Y-181771552D01*
X116825000Y-181771552D01*
X116842435Y-181771552D01*
X116846783Y-181770687D01*
X130803217Y-181770687D01*
X130807565Y-181771552D01*
X130825000Y-181771552D01*
X130825001Y-181771552D01*
X130833036Y-181768223D01*
X130833036Y-181768222D01*
X130833282Y-181767630D01*
X130834057Y-181765758D01*
X130835501Y-181762274D01*
X130835501Y-181762272D01*
X130836365Y-181760187D01*
X130836364Y-181760185D01*
X130836365Y-181760184D01*
X130836366Y-181742770D01*
X130836363Y-181742753D01*
X139488633Y-181742753D01*
X139488635Y-181760171D01*
X139489499Y-181762257D01*
X139491963Y-181768205D01*
X139491963Y-181768206D01*
X139499999Y-181771535D01*
X139500000Y-181771535D01*
X139517435Y-181771535D01*
X139521783Y-181770670D01*
X146228217Y-181770670D01*
X146232565Y-181771535D01*
X146250000Y-181771535D01*
X146250001Y-181771535D01*
X146258036Y-181768206D01*
X146258036Y-181768205D01*
X146258274Y-181767632D01*
X146259057Y-181765741D01*
X146260501Y-181762257D01*
X146260501Y-181762255D01*
X146261365Y-181760170D01*
X146261364Y-181760168D01*
X146261365Y-181760167D01*
X146261366Y-181742753D01*
X146260500Y-181738394D01*
X146260500Y-181563851D01*
X162665644Y-181563851D01*
X162696402Y-181817165D01*
X162696404Y-181817173D01*
X162767397Y-182062271D01*
X162767398Y-182062273D01*
X162767399Y-182062276D01*
X162828552Y-182191153D01*
X162876798Y-182292829D01*
X163021749Y-182502827D01*
X163021750Y-182502828D01*
X163021754Y-182502832D01*
X163198525Y-182686870D01*
X163402529Y-182840169D01*
X163628481Y-182958758D01*
X163628486Y-182958759D01*
X163628489Y-182958761D01*
X163708666Y-182985527D01*
X163870531Y-183039566D01*
X163870536Y-183039566D01*
X163870537Y-183039567D01*
X164027692Y-183065107D01*
X164122409Y-183080500D01*
X164313689Y-183080500D01*
X164313694Y-183080500D01*
X164504355Y-183065108D01*
X164752122Y-183004039D01*
X164986885Y-182904016D01*
X165202562Y-182767630D01*
X165393569Y-182598413D01*
X165554958Y-182400747D01*
X165682549Y-182179753D01*
X165773038Y-181941153D01*
X165813542Y-181742753D01*
X183488633Y-181742753D01*
X183488635Y-181760171D01*
X183489499Y-181762257D01*
X183491963Y-181768205D01*
X183491963Y-181768206D01*
X183499999Y-181771535D01*
X183500000Y-181771535D01*
X183517435Y-181771535D01*
X183521783Y-181770670D01*
X197478217Y-181770670D01*
X197482565Y-181771535D01*
X197500000Y-181771535D01*
X197500001Y-181771535D01*
X197508036Y-181768206D01*
X197508036Y-181768205D01*
X197508274Y-181767632D01*
X197509057Y-181765741D01*
X197510501Y-181762257D01*
X197510501Y-181762255D01*
X197511365Y-181760170D01*
X197511364Y-181760168D01*
X197511365Y-181760167D01*
X197511366Y-181742753D01*
X197510500Y-181738394D01*
X197510500Y-181563851D01*
X215865644Y-181563851D01*
X215896402Y-181817165D01*
X215896404Y-181817173D01*
X215967397Y-182062271D01*
X215967398Y-182062273D01*
X215967399Y-182062276D01*
X216028552Y-182191153D01*
X216076798Y-182292829D01*
X216221749Y-182502827D01*
X216221750Y-182502828D01*
X216221754Y-182502832D01*
X216398525Y-182686870D01*
X216602529Y-182840169D01*
X216828481Y-182958758D01*
X216828486Y-182958759D01*
X216828489Y-182958761D01*
X216908666Y-182985527D01*
X217070531Y-183039566D01*
X217070536Y-183039566D01*
X217070537Y-183039567D01*
X217227692Y-183065107D01*
X217322409Y-183080500D01*
X217513689Y-183080500D01*
X217513694Y-183080500D01*
X217704355Y-183065108D01*
X217952122Y-183004039D01*
X218186885Y-182904016D01*
X218402562Y-182767630D01*
X218593569Y-182598413D01*
X218754958Y-182400747D01*
X218882549Y-182179753D01*
X218973038Y-181941153D01*
X219013542Y-181742753D01*
X234738633Y-181742753D01*
X234738635Y-181760171D01*
X234739499Y-181762257D01*
X234741963Y-181768205D01*
X234741963Y-181768206D01*
X234749999Y-181771535D01*
X234750000Y-181771535D01*
X234767435Y-181771535D01*
X234771783Y-181770670D01*
X241478217Y-181770670D01*
X241482565Y-181771535D01*
X241500000Y-181771535D01*
X241500001Y-181771535D01*
X241508036Y-181768206D01*
X241508036Y-181768205D01*
X241508274Y-181767632D01*
X241509057Y-181765741D01*
X241510501Y-181762257D01*
X241510501Y-181762255D01*
X241511365Y-181760170D01*
X241511364Y-181760168D01*
X241511365Y-181760167D01*
X241511366Y-181742770D01*
X250163633Y-181742770D01*
X250163635Y-181760188D01*
X250164499Y-181762274D01*
X250166963Y-181768222D01*
X250166963Y-181768223D01*
X250174999Y-181771552D01*
X250175000Y-181771552D01*
X250192435Y-181771552D01*
X250196783Y-181770687D01*
X264153217Y-181770687D01*
X264157565Y-181771552D01*
X264175000Y-181771552D01*
X264175001Y-181771552D01*
X264183036Y-181768223D01*
X264183036Y-181768222D01*
X264183282Y-181767630D01*
X264184057Y-181765758D01*
X264185501Y-181762274D01*
X264185501Y-181762272D01*
X264186365Y-181760187D01*
X264186364Y-181760185D01*
X264186365Y-181760184D01*
X264186366Y-181742770D01*
X264185500Y-181738411D01*
X264185500Y-181563851D01*
X265140644Y-181563851D01*
X265171402Y-181817165D01*
X265171404Y-181817173D01*
X265242397Y-182062271D01*
X265242398Y-182062273D01*
X265242399Y-182062276D01*
X265303552Y-182191153D01*
X265351798Y-182292829D01*
X265496749Y-182502827D01*
X265496750Y-182502828D01*
X265496754Y-182502832D01*
X265673525Y-182686870D01*
X265877529Y-182840169D01*
X266103481Y-182958758D01*
X266103486Y-182958759D01*
X266103489Y-182958761D01*
X266183666Y-182985527D01*
X266345531Y-183039566D01*
X266345536Y-183039566D01*
X266345537Y-183039567D01*
X266502692Y-183065107D01*
X266597409Y-183080500D01*
X266788689Y-183080500D01*
X266788694Y-183080500D01*
X266979355Y-183065108D01*
X267227122Y-183004039D01*
X267461885Y-182904016D01*
X267677562Y-182767630D01*
X267868569Y-182598413D01*
X268029958Y-182400747D01*
X268157549Y-182179753D01*
X268248038Y-181941153D01*
X268288538Y-181742770D01*
X269213633Y-181742770D01*
X269213635Y-181760188D01*
X269214499Y-181762274D01*
X269216963Y-181768222D01*
X269216963Y-181768223D01*
X269224999Y-181771552D01*
X269225000Y-181771552D01*
X269242435Y-181771552D01*
X269246783Y-181770687D01*
X283203217Y-181770687D01*
X283207565Y-181771552D01*
X283225000Y-181771552D01*
X283225001Y-181771552D01*
X283233036Y-181768223D01*
X283233036Y-181768222D01*
X283233282Y-181767630D01*
X283234057Y-181765758D01*
X283235501Y-181762274D01*
X283235501Y-181762272D01*
X283236365Y-181760187D01*
X283236364Y-181760185D01*
X283236365Y-181760184D01*
X283236366Y-181742770D01*
X283235500Y-181738411D01*
X283235500Y-167781969D01*
X283236365Y-167777622D01*
X283236365Y-167760186D01*
X283233036Y-167752150D01*
X283227088Y-167749686D01*
X283227086Y-167749686D01*
X283225000Y-167748822D01*
X283224999Y-167748822D01*
X283207565Y-167748822D01*
X283203217Y-167749687D01*
X269246783Y-167749687D01*
X269242435Y-167748822D01*
X269225000Y-167748822D01*
X269222912Y-167749687D01*
X269222911Y-167749686D01*
X269216964Y-167752150D01*
X269216963Y-167752150D01*
X269213635Y-167760186D01*
X269213635Y-167777622D01*
X269214500Y-167781969D01*
X269214500Y-181738411D01*
X269213633Y-181742770D01*
X268288538Y-181742770D01*
X268299081Y-181691128D01*
X268309356Y-181436153D01*
X268278597Y-181182831D01*
X268207601Y-180937724D01*
X268098206Y-180707179D01*
X268098203Y-180707175D01*
X268098201Y-180707170D01*
X267953250Y-180497172D01*
X267953249Y-180497171D01*
X267894636Y-180436149D01*
X267776475Y-180313130D01*
X267572471Y-180159831D01*
X267380066Y-180058849D01*
X267346521Y-180041243D01*
X267346510Y-180041238D01*
X267104472Y-179960435D01*
X267104462Y-179960432D01*
X266852591Y-179919500D01*
X266661306Y-179919500D01*
X266606481Y-179923926D01*
X266470645Y-179934891D01*
X266470640Y-179934892D01*
X266222877Y-179995961D01*
X265988114Y-180095984D01*
X265772440Y-180232367D01*
X265581429Y-180401588D01*
X265581429Y-180401589D01*
X265420043Y-180599251D01*
X265292450Y-180820248D01*
X265201961Y-181058849D01*
X265150919Y-181308868D01*
X265150919Y-181308871D01*
X265150919Y-181308872D01*
X265140845Y-181558872D01*
X265140644Y-181563851D01*
X264185500Y-181563851D01*
X264185500Y-168211851D01*
X265140644Y-168211851D01*
X265171402Y-168465165D01*
X265171404Y-168465173D01*
X265242397Y-168710271D01*
X265242398Y-168710273D01*
X265242399Y-168710276D01*
X265274347Y-168777605D01*
X265351798Y-168940829D01*
X265496749Y-169150827D01*
X265496750Y-169150828D01*
X265496754Y-169150832D01*
X265673525Y-169334870D01*
X265877529Y-169488169D01*
X266103481Y-169606758D01*
X266103486Y-169606759D01*
X266103489Y-169606761D01*
X266183666Y-169633527D01*
X266345531Y-169687566D01*
X266597409Y-169728500D01*
X266788689Y-169728500D01*
X266788694Y-169728500D01*
X266979355Y-169713108D01*
X267227122Y-169652039D01*
X267461885Y-169552016D01*
X267677562Y-169415630D01*
X267868569Y-169246413D01*
X268029958Y-169048747D01*
X268157549Y-168827753D01*
X268248038Y-168589153D01*
X268299081Y-168339128D01*
X268309356Y-168084153D01*
X268278597Y-167830831D01*
X268207601Y-167585724D01*
X268098206Y-167355179D01*
X268098203Y-167355175D01*
X268098201Y-167355170D01*
X267953250Y-167145172D01*
X267953249Y-167145171D01*
X267861439Y-167049587D01*
X267776475Y-166961130D01*
X267572471Y-166807831D01*
X267346519Y-166689242D01*
X267346518Y-166689241D01*
X267346510Y-166689238D01*
X267104472Y-166608435D01*
X267104462Y-166608432D01*
X266852591Y-166567500D01*
X266661306Y-166567500D01*
X266606481Y-166571926D01*
X266470645Y-166582891D01*
X266470640Y-166582892D01*
X266222877Y-166643961D01*
X265988114Y-166743984D01*
X265772440Y-166880367D01*
X265581429Y-167049588D01*
X265581429Y-167049589D01*
X265420043Y-167247251D01*
X265292450Y-167468248D01*
X265201961Y-167706849D01*
X265150919Y-167956868D01*
X265150919Y-167956871D01*
X265140644Y-168211851D01*
X264185500Y-168211851D01*
X264185500Y-167781969D01*
X264186365Y-167777622D01*
X264186365Y-167760186D01*
X264183036Y-167752150D01*
X264177088Y-167749686D01*
X264177086Y-167749686D01*
X264175000Y-167748822D01*
X264174999Y-167748822D01*
X264157565Y-167748822D01*
X264153217Y-167749687D01*
X250196783Y-167749687D01*
X250192435Y-167748822D01*
X250175000Y-167748822D01*
X250172912Y-167749687D01*
X250172911Y-167749686D01*
X250166964Y-167752150D01*
X250166963Y-167752150D01*
X250163635Y-167760186D01*
X250163635Y-167777622D01*
X250164500Y-167781969D01*
X250164500Y-181738411D01*
X250163633Y-181742770D01*
X241511366Y-181742770D01*
X241511366Y-181742753D01*
X241510500Y-181738394D01*
X241510500Y-168781952D01*
X241511365Y-168777605D01*
X241511365Y-168760169D01*
X241508036Y-168752133D01*
X241502088Y-168749669D01*
X241502086Y-168749669D01*
X241500000Y-168748805D01*
X241499999Y-168748805D01*
X241482565Y-168748805D01*
X241478217Y-168749670D01*
X234771783Y-168749670D01*
X234767435Y-168748805D01*
X234750000Y-168748805D01*
X234747912Y-168749670D01*
X234747911Y-168749669D01*
X234741964Y-168752133D01*
X234741963Y-168752133D01*
X234738635Y-168760169D01*
X234738635Y-168777605D01*
X234739500Y-168781952D01*
X234739500Y-181738394D01*
X234738633Y-181742753D01*
X219013542Y-181742753D01*
X219024081Y-181691128D01*
X219034356Y-181436153D01*
X219003597Y-181182831D01*
X218932601Y-180937724D01*
X218823206Y-180707179D01*
X218823203Y-180707175D01*
X218823201Y-180707170D01*
X218678250Y-180497172D01*
X218678249Y-180497171D01*
X218619636Y-180436149D01*
X218501475Y-180313130D01*
X218297471Y-180159831D01*
X218105066Y-180058849D01*
X218071521Y-180041243D01*
X218071510Y-180041238D01*
X217829472Y-179960435D01*
X217829462Y-179960432D01*
X217577591Y-179919500D01*
X217386306Y-179919500D01*
X217331481Y-179923926D01*
X217195645Y-179934891D01*
X217195640Y-179934892D01*
X216947877Y-179995961D01*
X216713114Y-180095984D01*
X216497440Y-180232367D01*
X216306429Y-180401588D01*
X216306429Y-180401589D01*
X216145043Y-180599251D01*
X216017450Y-180820248D01*
X215926961Y-181058849D01*
X215875919Y-181308868D01*
X215875919Y-181308871D01*
X215875919Y-181308872D01*
X215865845Y-181558872D01*
X215865644Y-181563851D01*
X197510500Y-181563851D01*
X197510500Y-168211851D01*
X198605644Y-168211851D01*
X198636402Y-168465165D01*
X198636404Y-168465173D01*
X198707397Y-168710271D01*
X198707398Y-168710273D01*
X198707399Y-168710276D01*
X198739347Y-168777605D01*
X198816798Y-168940829D01*
X198961749Y-169150827D01*
X198961750Y-169150828D01*
X198961754Y-169150832D01*
X199138525Y-169334870D01*
X199342529Y-169488169D01*
X199568481Y-169606758D01*
X199568486Y-169606759D01*
X199568489Y-169606761D01*
X199648666Y-169633527D01*
X199810531Y-169687566D01*
X200062409Y-169728500D01*
X200253689Y-169728500D01*
X200253694Y-169728500D01*
X200444355Y-169713108D01*
X200692122Y-169652039D01*
X200926885Y-169552016D01*
X201142562Y-169415630D01*
X201333569Y-169246413D01*
X201494958Y-169048747D01*
X201622549Y-168827753D01*
X201713038Y-168589153D01*
X201764081Y-168339128D01*
X201774356Y-168084153D01*
X201743597Y-167830831D01*
X201672601Y-167585724D01*
X201563206Y-167355179D01*
X201563203Y-167355175D01*
X201563201Y-167355170D01*
X201418250Y-167145172D01*
X201418249Y-167145171D01*
X201326439Y-167049587D01*
X201241475Y-166961130D01*
X201037471Y-166807831D01*
X200811519Y-166689242D01*
X200811518Y-166689241D01*
X200811510Y-166689238D01*
X200569472Y-166608435D01*
X200569462Y-166608432D01*
X200317591Y-166567500D01*
X200126306Y-166567500D01*
X200071481Y-166571926D01*
X199935645Y-166582891D01*
X199935640Y-166582892D01*
X199687877Y-166643961D01*
X199453114Y-166743984D01*
X199237440Y-166880367D01*
X199046429Y-167049588D01*
X199046429Y-167049589D01*
X198885043Y-167247251D01*
X198757450Y-167468248D01*
X198666961Y-167706849D01*
X198615919Y-167956868D01*
X198615919Y-167956871D01*
X198605644Y-168211851D01*
X197510500Y-168211851D01*
X197510500Y-167781952D01*
X197511365Y-167777605D01*
X197511365Y-167760169D01*
X197508036Y-167752133D01*
X197502088Y-167749669D01*
X197502086Y-167749669D01*
X197500000Y-167748805D01*
X197499999Y-167748805D01*
X197482565Y-167748805D01*
X197478217Y-167749670D01*
X183521783Y-167749670D01*
X183517435Y-167748805D01*
X183500000Y-167748805D01*
X183497912Y-167749670D01*
X183497911Y-167749669D01*
X183491964Y-167752133D01*
X183491963Y-167752133D01*
X183488635Y-167760169D01*
X183488635Y-167777605D01*
X183489500Y-167781952D01*
X183489500Y-181738394D01*
X183488633Y-181742753D01*
X165813542Y-181742753D01*
X165824081Y-181691128D01*
X165834356Y-181436153D01*
X165803597Y-181182831D01*
X165732601Y-180937724D01*
X165623206Y-180707179D01*
X165623203Y-180707175D01*
X165623201Y-180707170D01*
X165478250Y-180497172D01*
X165478249Y-180497171D01*
X165419636Y-180436149D01*
X165301475Y-180313130D01*
X165097471Y-180159831D01*
X164905066Y-180058849D01*
X164871521Y-180041243D01*
X164871510Y-180041238D01*
X164629472Y-179960435D01*
X164629462Y-179960432D01*
X164377591Y-179919500D01*
X164186306Y-179919500D01*
X164131481Y-179923926D01*
X163995645Y-179934891D01*
X163995640Y-179934892D01*
X163747877Y-179995961D01*
X163513114Y-180095984D01*
X163297440Y-180232367D01*
X163106429Y-180401588D01*
X163106429Y-180401589D01*
X162945043Y-180599251D01*
X162817450Y-180820248D01*
X162726961Y-181058849D01*
X162675919Y-181308868D01*
X162675919Y-181308871D01*
X162675919Y-181308872D01*
X162665845Y-181558872D01*
X162665644Y-181563851D01*
X146260500Y-181563851D01*
X146260500Y-168781952D01*
X146261365Y-168777605D01*
X146261365Y-168760169D01*
X146258036Y-168752133D01*
X146252088Y-168749669D01*
X146252086Y-168749669D01*
X146250000Y-168748805D01*
X146249999Y-168748805D01*
X146232565Y-168748805D01*
X146228217Y-168749670D01*
X139521783Y-168749670D01*
X139517435Y-168748805D01*
X139500000Y-168748805D01*
X139497912Y-168749670D01*
X139497911Y-168749669D01*
X139491964Y-168752133D01*
X139491963Y-168752133D01*
X139488635Y-168760169D01*
X139488635Y-168777605D01*
X139489500Y-168781952D01*
X139489500Y-181738394D01*
X139488633Y-181742753D01*
X130836363Y-181742753D01*
X130835500Y-181738411D01*
X130835500Y-167781969D01*
X130836365Y-167777622D01*
X130836365Y-167760186D01*
X130833036Y-167752150D01*
X130827088Y-167749686D01*
X130827086Y-167749686D01*
X130825000Y-167748822D01*
X130824999Y-167748822D01*
X130807565Y-167748822D01*
X130803217Y-167749687D01*
X116846783Y-167749687D01*
X116842435Y-167748822D01*
X116825000Y-167748822D01*
X116822912Y-167749687D01*
X116822911Y-167749686D01*
X116816964Y-167752150D01*
X116816963Y-167752150D01*
X116813635Y-167760186D01*
X116813635Y-167777622D01*
X116814500Y-167781969D01*
X116814500Y-181738411D01*
X116813633Y-181742770D01*
X115932074Y-181742770D01*
X115934356Y-181686153D01*
X115903597Y-181432831D01*
X115832601Y-181187724D01*
X115723206Y-180957179D01*
X115723203Y-180957175D01*
X115723201Y-180957170D01*
X115578250Y-180747172D01*
X115578249Y-180747171D01*
X115539827Y-180707170D01*
X115401475Y-180563130D01*
X115197471Y-180409831D01*
X115005108Y-180308871D01*
X114971521Y-180291243D01*
X114971510Y-180291238D01*
X114729472Y-180210435D01*
X114729462Y-180210432D01*
X114477591Y-180169500D01*
X114286306Y-180169500D01*
X114231481Y-180173926D01*
X114095645Y-180184891D01*
X114095640Y-180184892D01*
X113847877Y-180245961D01*
X113613114Y-180345984D01*
X113397440Y-180482367D01*
X113206429Y-180651588D01*
X113206429Y-180651589D01*
X113045043Y-180849251D01*
X112917450Y-181070248D01*
X112826961Y-181308849D01*
X112775919Y-181558868D01*
X112775919Y-181558871D01*
X112775718Y-181563851D01*
X112767349Y-181771552D01*
X112765644Y-181813851D01*
X94542931Y-181813851D01*
X94531673Y-181742770D01*
X97763633Y-181742770D01*
X97763635Y-181760188D01*
X97764499Y-181762274D01*
X97766963Y-181768222D01*
X97766963Y-181768223D01*
X97774999Y-181771552D01*
X97775000Y-181771552D01*
X97792435Y-181771552D01*
X97796783Y-181770687D01*
X111753217Y-181770687D01*
X111757565Y-181771552D01*
X111775000Y-181771552D01*
X111775001Y-181771552D01*
X111783036Y-181768223D01*
X111783036Y-181768222D01*
X111783282Y-181767630D01*
X111784057Y-181765758D01*
X111785501Y-181762274D01*
X111785501Y-181762272D01*
X111786365Y-181760187D01*
X111786364Y-181760185D01*
X111786365Y-181760184D01*
X111786366Y-181742770D01*
X111785500Y-181738411D01*
X111785500Y-168211851D01*
X112765644Y-168211851D01*
X112796402Y-168465165D01*
X112796404Y-168465173D01*
X112867397Y-168710271D01*
X112867398Y-168710273D01*
X112867399Y-168710276D01*
X112899347Y-168777605D01*
X112976798Y-168940829D01*
X113121749Y-169150827D01*
X113121750Y-169150828D01*
X113121754Y-169150832D01*
X113298525Y-169334870D01*
X113502529Y-169488169D01*
X113728481Y-169606758D01*
X113728486Y-169606759D01*
X113728489Y-169606761D01*
X113808666Y-169633527D01*
X113970531Y-169687566D01*
X114222409Y-169728500D01*
X114413689Y-169728500D01*
X114413694Y-169728500D01*
X114604355Y-169713108D01*
X114852122Y-169652039D01*
X115086885Y-169552016D01*
X115302562Y-169415630D01*
X115493569Y-169246413D01*
X115654958Y-169048747D01*
X115782549Y-168827753D01*
X115873038Y-168589153D01*
X115924081Y-168339128D01*
X115934356Y-168084153D01*
X115903597Y-167830831D01*
X115832601Y-167585724D01*
X115723206Y-167355179D01*
X115723203Y-167355175D01*
X115723201Y-167355170D01*
X115578250Y-167145172D01*
X115578249Y-167145171D01*
X115486439Y-167049587D01*
X115401475Y-166961130D01*
X115197471Y-166807831D01*
X114971519Y-166689242D01*
X114971518Y-166689241D01*
X114971510Y-166689238D01*
X114729472Y-166608435D01*
X114729462Y-166608432D01*
X114477591Y-166567500D01*
X114286306Y-166567500D01*
X114231481Y-166571926D01*
X114095645Y-166582891D01*
X114095640Y-166582892D01*
X113847877Y-166643961D01*
X113613114Y-166743984D01*
X113397440Y-166880367D01*
X113206429Y-167049588D01*
X113206429Y-167049589D01*
X113045043Y-167247251D01*
X112917450Y-167468248D01*
X112826961Y-167706849D01*
X112775919Y-167956868D01*
X112775919Y-167956871D01*
X112765644Y-168211851D01*
X111785500Y-168211851D01*
X111785500Y-167781969D01*
X111786365Y-167777622D01*
X111786365Y-167760186D01*
X111783036Y-167752150D01*
X111777088Y-167749686D01*
X111777086Y-167749686D01*
X111775000Y-167748822D01*
X111774999Y-167748822D01*
X111757565Y-167748822D01*
X111753217Y-167749687D01*
X97796783Y-167749687D01*
X97792435Y-167748822D01*
X97775000Y-167748822D01*
X97772912Y-167749687D01*
X97772911Y-167749686D01*
X97766964Y-167752150D01*
X97766963Y-167752150D01*
X97763635Y-167760186D01*
X97763635Y-167777622D01*
X97764500Y-167781969D01*
X97764500Y-181738411D01*
X97763633Y-181742770D01*
X94531673Y-181742770D01*
X94527687Y-181717605D01*
X94526605Y-181707304D01*
X94525757Y-181691131D01*
X94510636Y-181402595D01*
X94510500Y-181397414D01*
X94510500Y-164021782D01*
X94511365Y-164017435D01*
X94511365Y-163999999D01*
X94508036Y-163991963D01*
X94502088Y-163989499D01*
X94502086Y-163989499D01*
X94500000Y-163988635D01*
X94499999Y-163988635D01*
X94482565Y-163988635D01*
X94478217Y-163989500D01*
X77021783Y-163989500D01*
X77017435Y-163988635D01*
X77000000Y-163988635D01*
X76997912Y-163989500D01*
X76997911Y-163989499D01*
X76991964Y-163991963D01*
X76991963Y-163991963D01*
X76988635Y-163999999D01*
X76988635Y-164017435D01*
X76989500Y-164021782D01*
X76989500Y-181397414D01*
X76989364Y-181402596D01*
X76973394Y-181707305D01*
X76972311Y-181717610D01*
X76924984Y-182016423D01*
X76922830Y-182026559D01*
X76844523Y-182318802D01*
X76841321Y-182328654D01*
X76737773Y-182598411D01*
X76732907Y-182611087D01*
X76728692Y-182620554D01*
X76591335Y-182890133D01*
X76586153Y-182899107D01*
X76421383Y-183152830D01*
X76415292Y-183161214D01*
X76224900Y-183396328D01*
X76217967Y-183404029D01*
X76004029Y-183617967D01*
X75996328Y-183624900D01*
X75761214Y-183815292D01*
X75752830Y-183821383D01*
X75499107Y-183986153D01*
X75490133Y-183991335D01*
X75220554Y-184128692D01*
X75211095Y-184132903D01*
X74998789Y-184214400D01*
X74928657Y-184241321D01*
X74918802Y-184244523D01*
X74626559Y-184322830D01*
X74616423Y-184324984D01*
X74317610Y-184372311D01*
X74307305Y-184373394D01*
X74025832Y-184388146D01*
X74002594Y-184389364D01*
X73997414Y-184389500D01*
X50002586Y-184389500D01*
X49997405Y-184389364D01*
X49972242Y-184388045D01*
X49692694Y-184373394D01*
X49682389Y-184372311D01*
X49383576Y-184324984D01*
X49373440Y-184322830D01*
X49081197Y-184244523D01*
X49071350Y-184241323D01*
X48788897Y-184132900D01*
X48779445Y-184128692D01*
X48509866Y-183991335D01*
X48500892Y-183986153D01*
X48247169Y-183821383D01*
X48238785Y-183815292D01*
X48003671Y-183624900D01*
X47995970Y-183617967D01*
X47782032Y-183404029D01*
X47775099Y-183396328D01*
X47584703Y-183161208D01*
X47578616Y-183152830D01*
X47413842Y-182899100D01*
X47408668Y-182890140D01*
X47271303Y-182620546D01*
X47267102Y-182611111D01*
X47158671Y-182328638D01*
X47155476Y-182318802D01*
X47077166Y-182026547D01*
X47075017Y-182016434D01*
X47031673Y-181742770D01*
X54901133Y-181742770D01*
X54901135Y-181760188D01*
X54901999Y-181762274D01*
X54904463Y-181768222D01*
X54904463Y-181768223D01*
X54912499Y-181771552D01*
X54912500Y-181771552D01*
X54929935Y-181771552D01*
X54934283Y-181770687D01*
X68890717Y-181770687D01*
X68895065Y-181771552D01*
X68912500Y-181771552D01*
X68912501Y-181771552D01*
X68920536Y-181768223D01*
X68920536Y-181768222D01*
X68920782Y-181767630D01*
X68921557Y-181765758D01*
X68923001Y-181762274D01*
X68923001Y-181762272D01*
X68923865Y-181760187D01*
X68923864Y-181760185D01*
X68923865Y-181760184D01*
X68923866Y-181742770D01*
X68923000Y-181738411D01*
X68923000Y-181563851D01*
X71140644Y-181563851D01*
X71171402Y-181817165D01*
X71171404Y-181817173D01*
X71242397Y-182062271D01*
X71242398Y-182062273D01*
X71242399Y-182062276D01*
X71303552Y-182191153D01*
X71351798Y-182292829D01*
X71496749Y-182502827D01*
X71496750Y-182502828D01*
X71496754Y-182502832D01*
X71673525Y-182686870D01*
X71877529Y-182840169D01*
X72103481Y-182958758D01*
X72103486Y-182958759D01*
X72103489Y-182958761D01*
X72183666Y-182985527D01*
X72345531Y-183039566D01*
X72345536Y-183039566D01*
X72345537Y-183039567D01*
X72502692Y-183065107D01*
X72597409Y-183080500D01*
X72788689Y-183080500D01*
X72788694Y-183080500D01*
X72979355Y-183065108D01*
X73227122Y-183004039D01*
X73461885Y-182904016D01*
X73677562Y-182767630D01*
X73868569Y-182598413D01*
X74029958Y-182400747D01*
X74157549Y-182179753D01*
X74248038Y-181941153D01*
X74299081Y-181691128D01*
X74309356Y-181436153D01*
X74278597Y-181182831D01*
X74207601Y-180937724D01*
X74098206Y-180707179D01*
X74098203Y-180707175D01*
X74098201Y-180707170D01*
X73953250Y-180497172D01*
X73953249Y-180497171D01*
X73894636Y-180436149D01*
X73776475Y-180313130D01*
X73572471Y-180159831D01*
X73380066Y-180058849D01*
X73346521Y-180041243D01*
X73346510Y-180041238D01*
X73104472Y-179960435D01*
X73104462Y-179960432D01*
X72852591Y-179919500D01*
X72661306Y-179919500D01*
X72606481Y-179923926D01*
X72470645Y-179934891D01*
X72470640Y-179934892D01*
X72222877Y-179995961D01*
X71988114Y-180095984D01*
X71772440Y-180232367D01*
X71581429Y-180401588D01*
X71581429Y-180401589D01*
X71420043Y-180599251D01*
X71292450Y-180820248D01*
X71201961Y-181058849D01*
X71150919Y-181308868D01*
X71150919Y-181308871D01*
X71150919Y-181308872D01*
X71140845Y-181558872D01*
X71140644Y-181563851D01*
X68923000Y-181563851D01*
X68923000Y-167781969D01*
X68923865Y-167777622D01*
X68923865Y-167760186D01*
X68920536Y-167752150D01*
X68914588Y-167749686D01*
X68914586Y-167749686D01*
X68912500Y-167748822D01*
X68912499Y-167748822D01*
X68895065Y-167748822D01*
X68890717Y-167749687D01*
X54934283Y-167749687D01*
X54929935Y-167748822D01*
X54912500Y-167748822D01*
X54910412Y-167749687D01*
X54910411Y-167749686D01*
X54904464Y-167752150D01*
X54904463Y-167752150D01*
X54901135Y-167760186D01*
X54901135Y-167777622D01*
X54902000Y-167781969D01*
X54902000Y-181738411D01*
X54901133Y-181742770D01*
X47031673Y-181742770D01*
X47027687Y-181717605D01*
X47026605Y-181707304D01*
X47025757Y-181691131D01*
X47010636Y-181402595D01*
X47010500Y-181397414D01*
X47010500Y-168211851D01*
X50998444Y-168211851D01*
X51029202Y-168465165D01*
X51029204Y-168465173D01*
X51100197Y-168710271D01*
X51100198Y-168710273D01*
X51100199Y-168710276D01*
X51132147Y-168777605D01*
X51209598Y-168940829D01*
X51354549Y-169150827D01*
X51354550Y-169150828D01*
X51354554Y-169150832D01*
X51531325Y-169334870D01*
X51735329Y-169488169D01*
X51961281Y-169606758D01*
X51961286Y-169606759D01*
X51961289Y-169606761D01*
X52041466Y-169633527D01*
X52203331Y-169687566D01*
X52455209Y-169728500D01*
X52646489Y-169728500D01*
X52646494Y-169728500D01*
X52837155Y-169713108D01*
X53084922Y-169652039D01*
X53319685Y-169552016D01*
X53535362Y-169415630D01*
X53726369Y-169246413D01*
X53887758Y-169048747D01*
X54015349Y-168827753D01*
X54105838Y-168589153D01*
X54156881Y-168339128D01*
X54167156Y-168084153D01*
X54136397Y-167830831D01*
X54065401Y-167585724D01*
X53956006Y-167355179D01*
X53956003Y-167355175D01*
X53956001Y-167355170D01*
X53811050Y-167145172D01*
X53811049Y-167145171D01*
X53719239Y-167049587D01*
X53634275Y-166961130D01*
X53430271Y-166807831D01*
X53204319Y-166689242D01*
X53204318Y-166689241D01*
X53204310Y-166689238D01*
X52962272Y-166608435D01*
X52962262Y-166608432D01*
X52710391Y-166567500D01*
X52519106Y-166567500D01*
X52464281Y-166571926D01*
X52328445Y-166582891D01*
X52328440Y-166582892D01*
X52080677Y-166643961D01*
X51845914Y-166743984D01*
X51630240Y-166880367D01*
X51439229Y-167049588D01*
X51439229Y-167049589D01*
X51277843Y-167247251D01*
X51150250Y-167468248D01*
X51059761Y-167706849D01*
X51008719Y-167956868D01*
X51008719Y-167956871D01*
X50998444Y-168211851D01*
X47010500Y-168211851D01*
X47010500Y-161182733D01*
X53731883Y-161182733D01*
X53731885Y-161200151D01*
X53732749Y-161202237D01*
X53735213Y-161208185D01*
X53735213Y-161208186D01*
X53743249Y-161211515D01*
X53743250Y-161211515D01*
X53760685Y-161211515D01*
X53765033Y-161210650D01*
X60471467Y-161210650D01*
X60475815Y-161211515D01*
X60493250Y-161211515D01*
X60493251Y-161211515D01*
X60501286Y-161208186D01*
X60501286Y-161208185D01*
X60503751Y-161202237D01*
X60503751Y-161202235D01*
X60504615Y-161200150D01*
X60504614Y-161200148D01*
X60504615Y-161200147D01*
X60504616Y-161182733D01*
X62044883Y-161182733D01*
X62044885Y-161200151D01*
X62045749Y-161202237D01*
X62048213Y-161208185D01*
X62048213Y-161208186D01*
X62056249Y-161211515D01*
X62056250Y-161211515D01*
X62073685Y-161211515D01*
X62078033Y-161210650D01*
X76034467Y-161210650D01*
X76038815Y-161211515D01*
X76056250Y-161211515D01*
X76056251Y-161211515D01*
X76064286Y-161208186D01*
X76064286Y-161208185D01*
X76066751Y-161202237D01*
X76066751Y-161202235D01*
X76067615Y-161200150D01*
X76067614Y-161200148D01*
X76067615Y-161200147D01*
X76067616Y-161182733D01*
X77607883Y-161182733D01*
X77607885Y-161200151D01*
X77608749Y-161202237D01*
X77611213Y-161208185D01*
X77611213Y-161208186D01*
X77619249Y-161211515D01*
X77619250Y-161211515D01*
X77636685Y-161211515D01*
X77641033Y-161210650D01*
X84347467Y-161210650D01*
X84351815Y-161211515D01*
X84369250Y-161211515D01*
X84369251Y-161211515D01*
X84377286Y-161208186D01*
X84377286Y-161208185D01*
X84379751Y-161202237D01*
X84379751Y-161202235D01*
X84380615Y-161200150D01*
X84380614Y-161200148D01*
X84380615Y-161200147D01*
X84380616Y-161182748D01*
X93001133Y-161182748D01*
X93001135Y-161200166D01*
X93001999Y-161202252D01*
X93004463Y-161208200D01*
X93004463Y-161208201D01*
X93012499Y-161211530D01*
X93012500Y-161211530D01*
X93029935Y-161211530D01*
X93034283Y-161210665D01*
X106990717Y-161210665D01*
X106995065Y-161211530D01*
X107012500Y-161211530D01*
X107012501Y-161211530D01*
X107020536Y-161208201D01*
X107020536Y-161208200D01*
X107020543Y-161208185D01*
X107021557Y-161205736D01*
X107023001Y-161202252D01*
X107023001Y-161202250D01*
X107023865Y-161200165D01*
X107023864Y-161200163D01*
X107023865Y-161200162D01*
X107023866Y-161182748D01*
X112051133Y-161182748D01*
X112051135Y-161200166D01*
X112051999Y-161202252D01*
X112054463Y-161208200D01*
X112054463Y-161208201D01*
X112062499Y-161211530D01*
X112062500Y-161211530D01*
X112079935Y-161211530D01*
X112084283Y-161210665D01*
X126040717Y-161210665D01*
X126045065Y-161211530D01*
X126062500Y-161211530D01*
X126062501Y-161211530D01*
X126070536Y-161208201D01*
X126070536Y-161208200D01*
X126070543Y-161208185D01*
X126071557Y-161205736D01*
X126073001Y-161202252D01*
X126073001Y-161202250D01*
X126073865Y-161200165D01*
X126073864Y-161200163D01*
X126073865Y-161200162D01*
X126073866Y-161182748D01*
X131101133Y-161182748D01*
X131101135Y-161200166D01*
X131101999Y-161202252D01*
X131104463Y-161208200D01*
X131104463Y-161208201D01*
X131112499Y-161211530D01*
X131112500Y-161211530D01*
X131129935Y-161211530D01*
X131134283Y-161210665D01*
X145090717Y-161210665D01*
X145095065Y-161211530D01*
X145112500Y-161211530D01*
X145112501Y-161211530D01*
X145120536Y-161208201D01*
X145120536Y-161208200D01*
X145120543Y-161208185D01*
X145121557Y-161205736D01*
X145123001Y-161202252D01*
X145123001Y-161202250D01*
X145123865Y-161200165D01*
X145123864Y-161200163D01*
X145123865Y-161200162D01*
X145123866Y-161182748D01*
X150151133Y-161182748D01*
X150151135Y-161200166D01*
X150151999Y-161202252D01*
X150154463Y-161208200D01*
X150154463Y-161208201D01*
X150162499Y-161211530D01*
X150162500Y-161211530D01*
X150179935Y-161211530D01*
X150184283Y-161210665D01*
X164140717Y-161210665D01*
X164145065Y-161211530D01*
X164162500Y-161211530D01*
X164162501Y-161211530D01*
X164170536Y-161208201D01*
X164170536Y-161208200D01*
X164170543Y-161208185D01*
X164171557Y-161205736D01*
X164173001Y-161202252D01*
X164173001Y-161202250D01*
X164173865Y-161200165D01*
X164173864Y-161200163D01*
X164173865Y-161200162D01*
X164173866Y-161182748D01*
X169201133Y-161182748D01*
X169201135Y-161200166D01*
X169201999Y-161202252D01*
X169204463Y-161208200D01*
X169204463Y-161208201D01*
X169212499Y-161211530D01*
X169212500Y-161211530D01*
X169229935Y-161211530D01*
X169234283Y-161210665D01*
X183190717Y-161210665D01*
X183195065Y-161211530D01*
X183212500Y-161211530D01*
X183212501Y-161211530D01*
X183220536Y-161208201D01*
X183220536Y-161208200D01*
X183220543Y-161208185D01*
X183221557Y-161205736D01*
X183223001Y-161202252D01*
X183223001Y-161202250D01*
X183223865Y-161200165D01*
X183223864Y-161200163D01*
X183223865Y-161200162D01*
X183223866Y-161182748D01*
X188251133Y-161182748D01*
X188251135Y-161200166D01*
X188251999Y-161202252D01*
X188254463Y-161208200D01*
X188254463Y-161208201D01*
X188262499Y-161211530D01*
X188262500Y-161211530D01*
X188279935Y-161211530D01*
X188284283Y-161210665D01*
X202240717Y-161210665D01*
X202245065Y-161211530D01*
X202262500Y-161211530D01*
X202262501Y-161211530D01*
X202270536Y-161208201D01*
X202270536Y-161208200D01*
X202270543Y-161208185D01*
X202271557Y-161205736D01*
X202273001Y-161202252D01*
X202273001Y-161202250D01*
X202273865Y-161200165D01*
X202273864Y-161200163D01*
X202273865Y-161200162D01*
X202273866Y-161182748D01*
X207301133Y-161182748D01*
X207301135Y-161200166D01*
X207301999Y-161202252D01*
X207304463Y-161208200D01*
X207304463Y-161208201D01*
X207312499Y-161211530D01*
X207312500Y-161211530D01*
X207329935Y-161211530D01*
X207334283Y-161210665D01*
X221290717Y-161210665D01*
X221295065Y-161211530D01*
X221312500Y-161211530D01*
X221312501Y-161211530D01*
X221320536Y-161208201D01*
X221320536Y-161208200D01*
X221320543Y-161208185D01*
X221321557Y-161205736D01*
X221323001Y-161202252D01*
X221323001Y-161202250D01*
X221323865Y-161200165D01*
X221323864Y-161200163D01*
X221323865Y-161200162D01*
X221323866Y-161182748D01*
X226351133Y-161182748D01*
X226351135Y-161200166D01*
X226351999Y-161202252D01*
X226354463Y-161208200D01*
X226354463Y-161208201D01*
X226362499Y-161211530D01*
X226362500Y-161211530D01*
X226379935Y-161211530D01*
X226384283Y-161210665D01*
X240340717Y-161210665D01*
X240345065Y-161211530D01*
X240362500Y-161211530D01*
X240362501Y-161211530D01*
X240370536Y-161208201D01*
X240370536Y-161208200D01*
X240370543Y-161208185D01*
X240371557Y-161205736D01*
X240373001Y-161202252D01*
X240373001Y-161202250D01*
X240373865Y-161200165D01*
X240373864Y-161200163D01*
X240373865Y-161200162D01*
X240373866Y-161182748D01*
X245401133Y-161182748D01*
X245401135Y-161200166D01*
X245401999Y-161202252D01*
X245404463Y-161208200D01*
X245404463Y-161208201D01*
X245412499Y-161211530D01*
X245412500Y-161211530D01*
X245429935Y-161211530D01*
X245434283Y-161210665D01*
X259390717Y-161210665D01*
X259395065Y-161211530D01*
X259412500Y-161211530D01*
X259412501Y-161211530D01*
X259420536Y-161208201D01*
X259420536Y-161208200D01*
X259420543Y-161208185D01*
X259421557Y-161205736D01*
X259423001Y-161202252D01*
X259423001Y-161202250D01*
X259423865Y-161200165D01*
X259423864Y-161200163D01*
X259423865Y-161200162D01*
X259423866Y-161182748D01*
X264451133Y-161182748D01*
X264451135Y-161200166D01*
X264451999Y-161202252D01*
X264454463Y-161208200D01*
X264454463Y-161208201D01*
X264462499Y-161211530D01*
X264462500Y-161211530D01*
X264479935Y-161211530D01*
X264484283Y-161210665D01*
X278440717Y-161210665D01*
X278445065Y-161211530D01*
X278462500Y-161211530D01*
X278462501Y-161211530D01*
X278470536Y-161208201D01*
X278470536Y-161208200D01*
X278470543Y-161208185D01*
X278471557Y-161205736D01*
X278473001Y-161202252D01*
X278473001Y-161202250D01*
X278473865Y-161200165D01*
X278473864Y-161200163D01*
X278473865Y-161200162D01*
X278473866Y-161182748D01*
X278473863Y-161182733D01*
X283501133Y-161182733D01*
X283501135Y-161200151D01*
X283501999Y-161202237D01*
X283504463Y-161208185D01*
X283504463Y-161208186D01*
X283512499Y-161211515D01*
X283512500Y-161211515D01*
X283529935Y-161211515D01*
X283534283Y-161210650D01*
X297490717Y-161210650D01*
X297495065Y-161211515D01*
X297512500Y-161211515D01*
X297512501Y-161211515D01*
X297520536Y-161208186D01*
X297520536Y-161208185D01*
X297523001Y-161202237D01*
X297523001Y-161202235D01*
X297523865Y-161200150D01*
X297523864Y-161200148D01*
X297523865Y-161200147D01*
X297523866Y-161182733D01*
X309694883Y-161182733D01*
X309694885Y-161200151D01*
X309695749Y-161202237D01*
X309698213Y-161208185D01*
X309698213Y-161208186D01*
X309706249Y-161211515D01*
X309706250Y-161211515D01*
X309723685Y-161211515D01*
X309728033Y-161210650D01*
X323684467Y-161210650D01*
X323688815Y-161211515D01*
X323706250Y-161211515D01*
X323706251Y-161211515D01*
X323714286Y-161208186D01*
X323714286Y-161208185D01*
X323716751Y-161202237D01*
X323716751Y-161202235D01*
X323717615Y-161200150D01*
X323717614Y-161200148D01*
X323717615Y-161200147D01*
X323717616Y-161182733D01*
X323716750Y-161178374D01*
X323716750Y-147643851D01*
X327915644Y-147643851D01*
X327946402Y-147897165D01*
X327946404Y-147897173D01*
X328017397Y-148142271D01*
X328017398Y-148142273D01*
X328017399Y-148142276D01*
X328073142Y-148259751D01*
X328126798Y-148372829D01*
X328271749Y-148582827D01*
X328271750Y-148582828D01*
X328271754Y-148582832D01*
X328448525Y-148766870D01*
X328652529Y-148920169D01*
X328878481Y-149038758D01*
X328878486Y-149038759D01*
X328878489Y-149038761D01*
X328958666Y-149065527D01*
X329120531Y-149119566D01*
X329372409Y-149160500D01*
X329563689Y-149160500D01*
X329563694Y-149160500D01*
X329754355Y-149145108D01*
X330002122Y-149084039D01*
X330236885Y-148984016D01*
X330452562Y-148847630D01*
X330643569Y-148678413D01*
X330804958Y-148480747D01*
X330932549Y-148259753D01*
X331023038Y-148021153D01*
X331074081Y-147771128D01*
X331084356Y-147516153D01*
X331053597Y-147262831D01*
X330982601Y-147017724D01*
X330873206Y-146787179D01*
X330873203Y-146787175D01*
X330873201Y-146787170D01*
X330728250Y-146577172D01*
X330728249Y-146577171D01*
X330636439Y-146481587D01*
X330551475Y-146393130D01*
X330347471Y-146239831D01*
X330121519Y-146121242D01*
X330121518Y-146121241D01*
X330121510Y-146121238D01*
X329879472Y-146040435D01*
X329879462Y-146040432D01*
X329627591Y-145999500D01*
X329436306Y-145999500D01*
X329381481Y-146003926D01*
X329245645Y-146014891D01*
X329245640Y-146014892D01*
X328997877Y-146075961D01*
X328763114Y-146175984D01*
X328547440Y-146312367D01*
X328356429Y-146481588D01*
X328356429Y-146481589D01*
X328195043Y-146679251D01*
X328067450Y-146900248D01*
X327976961Y-147138849D01*
X327925919Y-147388868D01*
X327925919Y-147388871D01*
X327915644Y-147643851D01*
X323716750Y-147643851D01*
X323716750Y-147221932D01*
X323717615Y-147217585D01*
X323717615Y-147200149D01*
X323714286Y-147192113D01*
X323708338Y-147189649D01*
X323708336Y-147189649D01*
X323706250Y-147188785D01*
X323706249Y-147188785D01*
X323688815Y-147188785D01*
X323684467Y-147189650D01*
X309728033Y-147189650D01*
X309723685Y-147188785D01*
X309706250Y-147188785D01*
X309704162Y-147189650D01*
X309704161Y-147189649D01*
X309698214Y-147192113D01*
X309698213Y-147192113D01*
X309694885Y-147200149D01*
X309694885Y-147217585D01*
X309695750Y-147221932D01*
X309695750Y-161178374D01*
X309694883Y-161182733D01*
X297523866Y-161182733D01*
X297523000Y-161178374D01*
X297523000Y-147221932D01*
X297523865Y-147217585D01*
X297523865Y-147200149D01*
X297520536Y-147192113D01*
X297514588Y-147189649D01*
X297514586Y-147189649D01*
X297512500Y-147188785D01*
X297512499Y-147188785D01*
X297495065Y-147188785D01*
X297490717Y-147189650D01*
X283534283Y-147189650D01*
X283529935Y-147188785D01*
X283512500Y-147188785D01*
X283510412Y-147189650D01*
X283510411Y-147189649D01*
X283504464Y-147192113D01*
X283504463Y-147192113D01*
X283501135Y-147200149D01*
X283501135Y-147217585D01*
X283502000Y-147221932D01*
X283502000Y-161178374D01*
X283501133Y-161182733D01*
X278473863Y-161182733D01*
X278473000Y-161178389D01*
X278473000Y-147643851D01*
X279425644Y-147643851D01*
X279456402Y-147897165D01*
X279456404Y-147897173D01*
X279527397Y-148142271D01*
X279527398Y-148142273D01*
X279527399Y-148142276D01*
X279583142Y-148259751D01*
X279636798Y-148372829D01*
X279781749Y-148582827D01*
X279781750Y-148582828D01*
X279781754Y-148582832D01*
X279958525Y-148766870D01*
X280162529Y-148920169D01*
X280388481Y-149038758D01*
X280388486Y-149038759D01*
X280388489Y-149038761D01*
X280468666Y-149065527D01*
X280630531Y-149119566D01*
X280882409Y-149160500D01*
X281073689Y-149160500D01*
X281073694Y-149160500D01*
X281264355Y-149145108D01*
X281512122Y-149084039D01*
X281746885Y-148984016D01*
X281962562Y-148847630D01*
X282153569Y-148678413D01*
X282314958Y-148480747D01*
X282442549Y-148259753D01*
X282533038Y-148021153D01*
X282584081Y-147771128D01*
X282594356Y-147516153D01*
X282563597Y-147262831D01*
X282492601Y-147017724D01*
X282383206Y-146787179D01*
X282383203Y-146787175D01*
X282383201Y-146787170D01*
X282238250Y-146577172D01*
X282238249Y-146577171D01*
X282146439Y-146481587D01*
X282061475Y-146393130D01*
X281857471Y-146239831D01*
X281631519Y-146121242D01*
X281631518Y-146121241D01*
X281631510Y-146121238D01*
X281389472Y-146040435D01*
X281389462Y-146040432D01*
X281137591Y-145999500D01*
X280946306Y-145999500D01*
X280891481Y-146003926D01*
X280755645Y-146014891D01*
X280755640Y-146014892D01*
X280507877Y-146075961D01*
X280273114Y-146175984D01*
X280057440Y-146312367D01*
X279866429Y-146481588D01*
X279866429Y-146481589D01*
X279705043Y-146679251D01*
X279577450Y-146900248D01*
X279486961Y-147138849D01*
X279435919Y-147388868D01*
X279435919Y-147388871D01*
X279425644Y-147643851D01*
X278473000Y-147643851D01*
X278473000Y-147221947D01*
X278473865Y-147217600D01*
X278473865Y-147200164D01*
X278470536Y-147192128D01*
X278464588Y-147189664D01*
X278464586Y-147189664D01*
X278462500Y-147188800D01*
X278462499Y-147188800D01*
X278445065Y-147188800D01*
X278440717Y-147189665D01*
X264484283Y-147189665D01*
X264479935Y-147188800D01*
X264462500Y-147188800D01*
X264460412Y-147189665D01*
X264460411Y-147189664D01*
X264454464Y-147192128D01*
X264454463Y-147192128D01*
X264451135Y-147200164D01*
X264451135Y-147217600D01*
X264452000Y-147221947D01*
X264452000Y-161178389D01*
X264451133Y-161182748D01*
X259423866Y-161182748D01*
X259423000Y-161178389D01*
X259423000Y-147221947D01*
X259423865Y-147217600D01*
X259423865Y-147200164D01*
X259420536Y-147192128D01*
X259414588Y-147189664D01*
X259414586Y-147189664D01*
X259412500Y-147188800D01*
X259412499Y-147188800D01*
X259395065Y-147188800D01*
X259390717Y-147189665D01*
X245434283Y-147189665D01*
X245429935Y-147188800D01*
X245412500Y-147188800D01*
X245410412Y-147189665D01*
X245410411Y-147189664D01*
X245404464Y-147192128D01*
X245404463Y-147192128D01*
X245401135Y-147200164D01*
X245401135Y-147217600D01*
X245402000Y-147221947D01*
X245402000Y-161178389D01*
X245401133Y-161182748D01*
X240373866Y-161182748D01*
X240373000Y-161178389D01*
X240373000Y-147221947D01*
X240373865Y-147217600D01*
X240373865Y-147200164D01*
X240370536Y-147192128D01*
X240364588Y-147189664D01*
X240364586Y-147189664D01*
X240362500Y-147188800D01*
X240362499Y-147188800D01*
X240345065Y-147188800D01*
X240340717Y-147189665D01*
X226384283Y-147189665D01*
X226379935Y-147188800D01*
X226362500Y-147188800D01*
X226360412Y-147189665D01*
X226360411Y-147189664D01*
X226354464Y-147192128D01*
X226354463Y-147192128D01*
X226351135Y-147200164D01*
X226351135Y-147217600D01*
X226352000Y-147221947D01*
X226352000Y-161178389D01*
X226351133Y-161182748D01*
X221323866Y-161182748D01*
X221323000Y-161178389D01*
X221323000Y-147221947D01*
X221323865Y-147217600D01*
X221323865Y-147200164D01*
X221320536Y-147192128D01*
X221314588Y-147189664D01*
X221314586Y-147189664D01*
X221312500Y-147188800D01*
X221312499Y-147188800D01*
X221295065Y-147188800D01*
X221290717Y-147189665D01*
X207334283Y-147189665D01*
X207329935Y-147188800D01*
X207312500Y-147188800D01*
X207310412Y-147189665D01*
X207310411Y-147189664D01*
X207304464Y-147192128D01*
X207304463Y-147192128D01*
X207301135Y-147200164D01*
X207301135Y-147217600D01*
X207302000Y-147221947D01*
X207302000Y-161178389D01*
X207301133Y-161182748D01*
X202273866Y-161182748D01*
X202273000Y-161178389D01*
X202273000Y-147643851D01*
X203215644Y-147643851D01*
X203246402Y-147897165D01*
X203246404Y-147897173D01*
X203317397Y-148142271D01*
X203317398Y-148142273D01*
X203317399Y-148142276D01*
X203373142Y-148259751D01*
X203426798Y-148372829D01*
X203571749Y-148582827D01*
X203571750Y-148582828D01*
X203571754Y-148582832D01*
X203748525Y-148766870D01*
X203952529Y-148920169D01*
X204178481Y-149038758D01*
X204178486Y-149038759D01*
X204178489Y-149038761D01*
X204258666Y-149065527D01*
X204420531Y-149119566D01*
X204672409Y-149160500D01*
X204863689Y-149160500D01*
X204863694Y-149160500D01*
X205054355Y-149145108D01*
X205302122Y-149084039D01*
X205536885Y-148984016D01*
X205752562Y-148847630D01*
X205943569Y-148678413D01*
X206104958Y-148480747D01*
X206232549Y-148259753D01*
X206323038Y-148021153D01*
X206374081Y-147771128D01*
X206384356Y-147516153D01*
X206353597Y-147262831D01*
X206282601Y-147017724D01*
X206173206Y-146787179D01*
X206173203Y-146787175D01*
X206173201Y-146787170D01*
X206028250Y-146577172D01*
X206028249Y-146577171D01*
X205936439Y-146481587D01*
X205851475Y-146393130D01*
X205647471Y-146239831D01*
X205421519Y-146121242D01*
X205421518Y-146121241D01*
X205421510Y-146121238D01*
X205179472Y-146040435D01*
X205179462Y-146040432D01*
X204927591Y-145999500D01*
X204736306Y-145999500D01*
X204681481Y-146003926D01*
X204545645Y-146014891D01*
X204545640Y-146014892D01*
X204297877Y-146075961D01*
X204063114Y-146175984D01*
X203847440Y-146312367D01*
X203656429Y-146481588D01*
X203656429Y-146481589D01*
X203495043Y-146679251D01*
X203367450Y-146900248D01*
X203276961Y-147138849D01*
X203225919Y-147388868D01*
X203225919Y-147388871D01*
X203215644Y-147643851D01*
X202273000Y-147643851D01*
X202273000Y-147221947D01*
X202273865Y-147217600D01*
X202273865Y-147200164D01*
X202270536Y-147192128D01*
X202264588Y-147189664D01*
X202264586Y-147189664D01*
X202262500Y-147188800D01*
X202262499Y-147188800D01*
X202245065Y-147188800D01*
X202240717Y-147189665D01*
X188284283Y-147189665D01*
X188279935Y-147188800D01*
X188262500Y-147188800D01*
X188260412Y-147189665D01*
X188260411Y-147189664D01*
X188254464Y-147192128D01*
X188254463Y-147192128D01*
X188251135Y-147200164D01*
X188251135Y-147217600D01*
X188252000Y-147221947D01*
X188252000Y-161178389D01*
X188251133Y-161182748D01*
X183223866Y-161182748D01*
X183223000Y-161178389D01*
X183223000Y-147221947D01*
X183223865Y-147217600D01*
X183223865Y-147200164D01*
X183220536Y-147192128D01*
X183214588Y-147189664D01*
X183214586Y-147189664D01*
X183212500Y-147188800D01*
X183212499Y-147188800D01*
X183195065Y-147188800D01*
X183190717Y-147189665D01*
X169234283Y-147189665D01*
X169229935Y-147188800D01*
X169212500Y-147188800D01*
X169210412Y-147189665D01*
X169210411Y-147189664D01*
X169204464Y-147192128D01*
X169204463Y-147192128D01*
X169201135Y-147200164D01*
X169201135Y-147217600D01*
X169202000Y-147221947D01*
X169202000Y-161178389D01*
X169201133Y-161182748D01*
X164173866Y-161182748D01*
X164173000Y-161178389D01*
X164173000Y-147643851D01*
X165105644Y-147643851D01*
X165136402Y-147897165D01*
X165136404Y-147897173D01*
X165207397Y-148142271D01*
X165207398Y-148142273D01*
X165207399Y-148142276D01*
X165263142Y-148259751D01*
X165316798Y-148372829D01*
X165461749Y-148582827D01*
X165461750Y-148582828D01*
X165461754Y-148582832D01*
X165638525Y-148766870D01*
X165842529Y-148920169D01*
X166068481Y-149038758D01*
X166068486Y-149038759D01*
X166068489Y-149038761D01*
X166148666Y-149065527D01*
X166310531Y-149119566D01*
X166562409Y-149160500D01*
X166753689Y-149160500D01*
X166753694Y-149160500D01*
X166944355Y-149145108D01*
X167192122Y-149084039D01*
X167426885Y-148984016D01*
X167642562Y-148847630D01*
X167833569Y-148678413D01*
X167994958Y-148480747D01*
X168122549Y-148259753D01*
X168213038Y-148021153D01*
X168264081Y-147771128D01*
X168274356Y-147516153D01*
X168243597Y-147262831D01*
X168172601Y-147017724D01*
X168063206Y-146787179D01*
X168063203Y-146787175D01*
X168063201Y-146787170D01*
X167918250Y-146577172D01*
X167918249Y-146577171D01*
X167826439Y-146481587D01*
X167741475Y-146393130D01*
X167537471Y-146239831D01*
X167311519Y-146121242D01*
X167311518Y-146121241D01*
X167311510Y-146121238D01*
X167069472Y-146040435D01*
X167069462Y-146040432D01*
X166817591Y-145999500D01*
X166626306Y-145999500D01*
X166571481Y-146003926D01*
X166435645Y-146014891D01*
X166435640Y-146014892D01*
X166187877Y-146075961D01*
X165953114Y-146175984D01*
X165737440Y-146312367D01*
X165546429Y-146481588D01*
X165546429Y-146481589D01*
X165385043Y-146679251D01*
X165257450Y-146900248D01*
X165166961Y-147138849D01*
X165115919Y-147388868D01*
X165115919Y-147388871D01*
X165105644Y-147643851D01*
X164173000Y-147643851D01*
X164173000Y-147221947D01*
X164173865Y-147217600D01*
X164173865Y-147200164D01*
X164170536Y-147192128D01*
X164164588Y-147189664D01*
X164164586Y-147189664D01*
X164162500Y-147188800D01*
X164162499Y-147188800D01*
X164145065Y-147188800D01*
X164140717Y-147189665D01*
X150184283Y-147189665D01*
X150179935Y-147188800D01*
X150162500Y-147188800D01*
X150160412Y-147189665D01*
X150160411Y-147189664D01*
X150154464Y-147192128D01*
X150154463Y-147192128D01*
X150151135Y-147200164D01*
X150151135Y-147217600D01*
X150152000Y-147221947D01*
X150152000Y-161178389D01*
X150151133Y-161182748D01*
X145123866Y-161182748D01*
X145123000Y-161178389D01*
X145123000Y-147221947D01*
X145123865Y-147217600D01*
X145123865Y-147200164D01*
X145120536Y-147192128D01*
X145114588Y-147189664D01*
X145114586Y-147189664D01*
X145112500Y-147188800D01*
X145112499Y-147188800D01*
X145095065Y-147188800D01*
X145090717Y-147189665D01*
X131134283Y-147189665D01*
X131129935Y-147188800D01*
X131112500Y-147188800D01*
X131110412Y-147189665D01*
X131110411Y-147189664D01*
X131104464Y-147192128D01*
X131104463Y-147192128D01*
X131101135Y-147200164D01*
X131101135Y-147217600D01*
X131102000Y-147221947D01*
X131102000Y-161178389D01*
X131101133Y-161182748D01*
X126073866Y-161182748D01*
X126073000Y-161178389D01*
X126073000Y-147221947D01*
X126073865Y-147217600D01*
X126073865Y-147200164D01*
X126070536Y-147192128D01*
X126064588Y-147189664D01*
X126064586Y-147189664D01*
X126062500Y-147188800D01*
X126062499Y-147188800D01*
X126045065Y-147188800D01*
X126040717Y-147189665D01*
X112084283Y-147189665D01*
X112079935Y-147188800D01*
X112062500Y-147188800D01*
X112060412Y-147189665D01*
X112060411Y-147189664D01*
X112054464Y-147192128D01*
X112054463Y-147192128D01*
X112051135Y-147200164D01*
X112051135Y-147217600D01*
X112052000Y-147221947D01*
X112052000Y-161178389D01*
X112051133Y-161182748D01*
X107023866Y-161182748D01*
X107023000Y-161178389D01*
X107023000Y-147221947D01*
X107023865Y-147217600D01*
X107023865Y-147200164D01*
X107020536Y-147192128D01*
X107014588Y-147189664D01*
X107014586Y-147189664D01*
X107012500Y-147188800D01*
X107012499Y-147188800D01*
X106995065Y-147188800D01*
X106990717Y-147189665D01*
X93034283Y-147189665D01*
X93029935Y-147188800D01*
X93012500Y-147188800D01*
X93010412Y-147189665D01*
X93010411Y-147189664D01*
X93004464Y-147192128D01*
X93004463Y-147192128D01*
X93001135Y-147200164D01*
X93001135Y-147217600D01*
X93002000Y-147221947D01*
X93002000Y-161178389D01*
X93001133Y-161182748D01*
X84380616Y-161182748D01*
X84380616Y-161182733D01*
X84379750Y-161178374D01*
X84379750Y-148221932D01*
X84380615Y-148217585D01*
X84380615Y-148200149D01*
X84377286Y-148192113D01*
X84371338Y-148189649D01*
X84371336Y-148189649D01*
X84369250Y-148188785D01*
X84369249Y-148188785D01*
X84351815Y-148188785D01*
X84347467Y-148189650D01*
X77641033Y-148189650D01*
X77636685Y-148188785D01*
X77619250Y-148188785D01*
X77617162Y-148189650D01*
X77617161Y-148189649D01*
X77611214Y-148192113D01*
X77611213Y-148192113D01*
X77607885Y-148200149D01*
X77607885Y-148217585D01*
X77608750Y-148221932D01*
X77608750Y-161178374D01*
X77607883Y-161182733D01*
X76067616Y-161182733D01*
X76066750Y-161178374D01*
X76066750Y-147643851D01*
X88905644Y-147643851D01*
X88936402Y-147897165D01*
X88936404Y-147897173D01*
X89007397Y-148142271D01*
X89007398Y-148142273D01*
X89007399Y-148142276D01*
X89063142Y-148259751D01*
X89116798Y-148372829D01*
X89261749Y-148582827D01*
X89261750Y-148582828D01*
X89261754Y-148582832D01*
X89438525Y-148766870D01*
X89642529Y-148920169D01*
X89868481Y-149038758D01*
X89868486Y-149038759D01*
X89868489Y-149038761D01*
X89948666Y-149065527D01*
X90110531Y-149119566D01*
X90362409Y-149160500D01*
X90553689Y-149160500D01*
X90553694Y-149160500D01*
X90744355Y-149145108D01*
X90992122Y-149084039D01*
X91226885Y-148984016D01*
X91442562Y-148847630D01*
X91633569Y-148678413D01*
X91794958Y-148480747D01*
X91922549Y-148259753D01*
X92013038Y-148021153D01*
X92064081Y-147771128D01*
X92074356Y-147516153D01*
X92043597Y-147262831D01*
X91972601Y-147017724D01*
X91863206Y-146787179D01*
X91863203Y-146787175D01*
X91863201Y-146787170D01*
X91718250Y-146577172D01*
X91718249Y-146577171D01*
X91626439Y-146481587D01*
X91541475Y-146393130D01*
X91337471Y-146239831D01*
X91111519Y-146121242D01*
X91111518Y-146121241D01*
X91111510Y-146121238D01*
X90869472Y-146040435D01*
X90869462Y-146040432D01*
X90617591Y-145999500D01*
X90426306Y-145999500D01*
X90371481Y-146003926D01*
X90235645Y-146014891D01*
X90235640Y-146014892D01*
X89987877Y-146075961D01*
X89753114Y-146175984D01*
X89537440Y-146312367D01*
X89346429Y-146481588D01*
X89346429Y-146481589D01*
X89185043Y-146679251D01*
X89057450Y-146900248D01*
X88966961Y-147138849D01*
X88915919Y-147388868D01*
X88915919Y-147388871D01*
X88905644Y-147643851D01*
X76066750Y-147643851D01*
X76066750Y-147221932D01*
X76067615Y-147217585D01*
X76067615Y-147200149D01*
X76064286Y-147192113D01*
X76058338Y-147189649D01*
X76058336Y-147189649D01*
X76056250Y-147188785D01*
X76056249Y-147188785D01*
X76038815Y-147188785D01*
X76034467Y-147189650D01*
X62078033Y-147189650D01*
X62073685Y-147188785D01*
X62056250Y-147188785D01*
X62054162Y-147189650D01*
X62054161Y-147189649D01*
X62048214Y-147192113D01*
X62048213Y-147192113D01*
X62044885Y-147200149D01*
X62044885Y-147217585D01*
X62045750Y-147221932D01*
X62045750Y-161178374D01*
X62044883Y-161182733D01*
X60504616Y-161182733D01*
X60503750Y-161178374D01*
X60503750Y-148221932D01*
X60504615Y-148217585D01*
X60504615Y-148200149D01*
X60501286Y-148192113D01*
X60495338Y-148189649D01*
X60495336Y-148189649D01*
X60493250Y-148188785D01*
X60493249Y-148188785D01*
X60475815Y-148188785D01*
X60471467Y-148189650D01*
X53765033Y-148189650D01*
X53760685Y-148188785D01*
X53743250Y-148188785D01*
X53741162Y-148189650D01*
X53741161Y-148189649D01*
X53735214Y-148192113D01*
X53735213Y-148192113D01*
X53731885Y-148200149D01*
X53731885Y-148217585D01*
X53732750Y-148221932D01*
X53732750Y-161178374D01*
X53731883Y-161182733D01*
X47010500Y-161182733D01*
X47010500Y-147643851D01*
X48415644Y-147643851D01*
X48446402Y-147897165D01*
X48446404Y-147897173D01*
X48517397Y-148142271D01*
X48517398Y-148142273D01*
X48517399Y-148142276D01*
X48573142Y-148259751D01*
X48626798Y-148372829D01*
X48771749Y-148582827D01*
X48771750Y-148582828D01*
X48771754Y-148582832D01*
X48948525Y-148766870D01*
X49152529Y-148920169D01*
X49378481Y-149038758D01*
X49378486Y-149038759D01*
X49378489Y-149038761D01*
X49458666Y-149065527D01*
X49620531Y-149119566D01*
X49872409Y-149160500D01*
X50063689Y-149160500D01*
X50063694Y-149160500D01*
X50254355Y-149145108D01*
X50502122Y-149084039D01*
X50736885Y-148984016D01*
X50952562Y-148847630D01*
X51143569Y-148678413D01*
X51304958Y-148480747D01*
X51432549Y-148259753D01*
X51523038Y-148021153D01*
X51574081Y-147771128D01*
X51584356Y-147516153D01*
X51553597Y-147262831D01*
X51482601Y-147017724D01*
X51373206Y-146787179D01*
X51373203Y-146787175D01*
X51373201Y-146787170D01*
X51228250Y-146577172D01*
X51228249Y-146577171D01*
X51136439Y-146481587D01*
X51051475Y-146393130D01*
X50847471Y-146239831D01*
X50621519Y-146121242D01*
X50621518Y-146121241D01*
X50621510Y-146121238D01*
X50379472Y-146040435D01*
X50379462Y-146040432D01*
X50127591Y-145999500D01*
X49936306Y-145999500D01*
X49881481Y-146003926D01*
X49745645Y-146014891D01*
X49745640Y-146014892D01*
X49497877Y-146075961D01*
X49263114Y-146175984D01*
X49047440Y-146312367D01*
X48856429Y-146481588D01*
X48856429Y-146481589D01*
X48695043Y-146679251D01*
X48567450Y-146900248D01*
X48476961Y-147138849D01*
X48425919Y-147388868D01*
X48425919Y-147388871D01*
X48415644Y-147643851D01*
X47010500Y-147643851D01*
X47010500Y-140622713D01*
X52519883Y-140622713D01*
X52519885Y-140640131D01*
X52520749Y-140642217D01*
X52523213Y-140648165D01*
X52523213Y-140648166D01*
X52531249Y-140651495D01*
X52531250Y-140651495D01*
X52548685Y-140651495D01*
X52553033Y-140650630D01*
X71271967Y-140650630D01*
X71276315Y-140651495D01*
X71293750Y-140651495D01*
X71293751Y-140651495D01*
X71301786Y-140648166D01*
X71301786Y-140648165D01*
X71304251Y-140642217D01*
X71304251Y-140642215D01*
X71305115Y-140640130D01*
X71305114Y-140640128D01*
X71305115Y-140640127D01*
X71305116Y-140622726D01*
X83476133Y-140622726D01*
X83476135Y-140640144D01*
X83476999Y-140642230D01*
X83479463Y-140648178D01*
X83479463Y-140648179D01*
X83487499Y-140651508D01*
X83487500Y-140651508D01*
X83504935Y-140651508D01*
X83509283Y-140650643D01*
X97465717Y-140650643D01*
X97470065Y-140651508D01*
X97487500Y-140651508D01*
X97487501Y-140651508D01*
X97495536Y-140648179D01*
X97495536Y-140648178D01*
X97495542Y-140648165D01*
X97496557Y-140645714D01*
X97498001Y-140642230D01*
X97498001Y-140642228D01*
X97498865Y-140640143D01*
X97498864Y-140640141D01*
X97498865Y-140640140D01*
X97498866Y-140622726D01*
X102526133Y-140622726D01*
X102526135Y-140640144D01*
X102526999Y-140642230D01*
X102529463Y-140648178D01*
X102529463Y-140648179D01*
X102537499Y-140651508D01*
X102537500Y-140651508D01*
X102554935Y-140651508D01*
X102559283Y-140650643D01*
X116515717Y-140650643D01*
X116520065Y-140651508D01*
X116537500Y-140651508D01*
X116537501Y-140651508D01*
X116545536Y-140648179D01*
X116545536Y-140648178D01*
X116545542Y-140648165D01*
X116546557Y-140645714D01*
X116548001Y-140642230D01*
X116548001Y-140642228D01*
X116548865Y-140640143D01*
X116548864Y-140640141D01*
X116548865Y-140640140D01*
X116548866Y-140622726D01*
X121576133Y-140622726D01*
X121576135Y-140640144D01*
X121576999Y-140642230D01*
X121579463Y-140648178D01*
X121579463Y-140648179D01*
X121587499Y-140651508D01*
X121587500Y-140651508D01*
X121604935Y-140651508D01*
X121609283Y-140650643D01*
X135565717Y-140650643D01*
X135570065Y-140651508D01*
X135587500Y-140651508D01*
X135587501Y-140651508D01*
X135595536Y-140648179D01*
X135595536Y-140648178D01*
X135595542Y-140648165D01*
X135596557Y-140645714D01*
X135598001Y-140642230D01*
X135598001Y-140642228D01*
X135598865Y-140640143D01*
X135598864Y-140640141D01*
X135598865Y-140640140D01*
X135598866Y-140622726D01*
X140626133Y-140622726D01*
X140626135Y-140640144D01*
X140626999Y-140642230D01*
X140629463Y-140648178D01*
X140629463Y-140648179D01*
X140637499Y-140651508D01*
X140637500Y-140651508D01*
X140654935Y-140651508D01*
X140659283Y-140650643D01*
X154615717Y-140650643D01*
X154620065Y-140651508D01*
X154637500Y-140651508D01*
X154637501Y-140651508D01*
X154645536Y-140648179D01*
X154645536Y-140648178D01*
X154645542Y-140648165D01*
X154646557Y-140645714D01*
X154648001Y-140642230D01*
X154648001Y-140642228D01*
X154648865Y-140640143D01*
X154648864Y-140640141D01*
X154648865Y-140640140D01*
X154648866Y-140622726D01*
X159676133Y-140622726D01*
X159676135Y-140640144D01*
X159676999Y-140642230D01*
X159679463Y-140648178D01*
X159679463Y-140648179D01*
X159687499Y-140651508D01*
X159687500Y-140651508D01*
X159704935Y-140651508D01*
X159709283Y-140650643D01*
X173665717Y-140650643D01*
X173670065Y-140651508D01*
X173687500Y-140651508D01*
X173687501Y-140651508D01*
X173695536Y-140648179D01*
X173695536Y-140648178D01*
X173695542Y-140648165D01*
X173696557Y-140645714D01*
X173698001Y-140642230D01*
X173698001Y-140642228D01*
X173698865Y-140640143D01*
X173698864Y-140640141D01*
X173698865Y-140640140D01*
X173698866Y-140622726D01*
X178726133Y-140622726D01*
X178726135Y-140640144D01*
X178726999Y-140642230D01*
X178729463Y-140648178D01*
X178729463Y-140648179D01*
X178737499Y-140651508D01*
X178737500Y-140651508D01*
X178754935Y-140651508D01*
X178759283Y-140650643D01*
X192715717Y-140650643D01*
X192720065Y-140651508D01*
X192737500Y-140651508D01*
X192737501Y-140651508D01*
X192745536Y-140648179D01*
X192745536Y-140648178D01*
X192745542Y-140648165D01*
X192746557Y-140645714D01*
X192748001Y-140642230D01*
X192748001Y-140642228D01*
X192748865Y-140640143D01*
X192748864Y-140640141D01*
X192748865Y-140640140D01*
X192748866Y-140622726D01*
X197776133Y-140622726D01*
X197776135Y-140640144D01*
X197776999Y-140642230D01*
X197779463Y-140648178D01*
X197779463Y-140648179D01*
X197787499Y-140651508D01*
X197787500Y-140651508D01*
X197804935Y-140651508D01*
X197809283Y-140650643D01*
X211765717Y-140650643D01*
X211770065Y-140651508D01*
X211787500Y-140651508D01*
X211787501Y-140651508D01*
X211795536Y-140648179D01*
X211795536Y-140648178D01*
X211795542Y-140648165D01*
X211796557Y-140645714D01*
X211798001Y-140642230D01*
X211798001Y-140642228D01*
X211798865Y-140640143D01*
X211798864Y-140640141D01*
X211798865Y-140640140D01*
X211798866Y-140622726D01*
X216826133Y-140622726D01*
X216826135Y-140640144D01*
X216826999Y-140642230D01*
X216829463Y-140648178D01*
X216829463Y-140648179D01*
X216837499Y-140651508D01*
X216837500Y-140651508D01*
X216854935Y-140651508D01*
X216859283Y-140650643D01*
X230815717Y-140650643D01*
X230820065Y-140651508D01*
X230837500Y-140651508D01*
X230837501Y-140651508D01*
X230845536Y-140648179D01*
X230845536Y-140648178D01*
X230845542Y-140648165D01*
X230846557Y-140645714D01*
X230848001Y-140642230D01*
X230848001Y-140642228D01*
X230848865Y-140640143D01*
X230848864Y-140640141D01*
X230848865Y-140640140D01*
X230848866Y-140622726D01*
X235876133Y-140622726D01*
X235876135Y-140640144D01*
X235876999Y-140642230D01*
X235879463Y-140648178D01*
X235879463Y-140648179D01*
X235887499Y-140651508D01*
X235887500Y-140651508D01*
X235904935Y-140651508D01*
X235909283Y-140650643D01*
X249865717Y-140650643D01*
X249870065Y-140651508D01*
X249887500Y-140651508D01*
X249887501Y-140651508D01*
X249895536Y-140648179D01*
X249895536Y-140648178D01*
X249895542Y-140648165D01*
X249896557Y-140645714D01*
X249898001Y-140642230D01*
X249898001Y-140642228D01*
X249898865Y-140640143D01*
X249898864Y-140640141D01*
X249898865Y-140640140D01*
X249898866Y-140622726D01*
X254926133Y-140622726D01*
X254926135Y-140640144D01*
X254926999Y-140642230D01*
X254929463Y-140648178D01*
X254929463Y-140648179D01*
X254937499Y-140651508D01*
X254937500Y-140651508D01*
X254954935Y-140651508D01*
X254959283Y-140650643D01*
X268915717Y-140650643D01*
X268920065Y-140651508D01*
X268937500Y-140651508D01*
X268937501Y-140651508D01*
X268945536Y-140648179D01*
X268945536Y-140648178D01*
X268945542Y-140648165D01*
X268946557Y-140645714D01*
X268948001Y-140642230D01*
X268948001Y-140642228D01*
X268948865Y-140640143D01*
X268948864Y-140640141D01*
X268948865Y-140640140D01*
X268948866Y-140622726D01*
X273976133Y-140622726D01*
X273976135Y-140640144D01*
X273976999Y-140642230D01*
X273979463Y-140648178D01*
X273979463Y-140648179D01*
X273987499Y-140651508D01*
X273987500Y-140651508D01*
X274004935Y-140651508D01*
X274009283Y-140650643D01*
X287965717Y-140650643D01*
X287970065Y-140651508D01*
X287987500Y-140651508D01*
X287987501Y-140651508D01*
X287995536Y-140648179D01*
X287995536Y-140648178D01*
X287995542Y-140648165D01*
X287996557Y-140645714D01*
X287998001Y-140642230D01*
X287998001Y-140642228D01*
X287998865Y-140640143D01*
X287998864Y-140640141D01*
X287998865Y-140640140D01*
X287998866Y-140622726D01*
X287998863Y-140622713D01*
X304932383Y-140622713D01*
X304932385Y-140640131D01*
X304933249Y-140642217D01*
X304935713Y-140648165D01*
X304935713Y-140648166D01*
X304943749Y-140651495D01*
X304943750Y-140651495D01*
X304961185Y-140651495D01*
X304965533Y-140650630D01*
X318921967Y-140650630D01*
X318926315Y-140651495D01*
X318943750Y-140651495D01*
X318943751Y-140651495D01*
X318951786Y-140648166D01*
X318951786Y-140648165D01*
X318954251Y-140642217D01*
X318954251Y-140642215D01*
X318955115Y-140640130D01*
X318955114Y-140640128D01*
X318955115Y-140640127D01*
X318955116Y-140622713D01*
X318954250Y-140618354D01*
X318954250Y-139622713D01*
X320495383Y-139622713D01*
X320495385Y-139640131D01*
X320496249Y-139642217D01*
X320498713Y-139648165D01*
X320498713Y-139648166D01*
X320506749Y-139651495D01*
X320506750Y-139651495D01*
X320524185Y-139651495D01*
X320528533Y-139650630D01*
X327234967Y-139650630D01*
X327239315Y-139651495D01*
X327256750Y-139651495D01*
X327256751Y-139651495D01*
X327264786Y-139648166D01*
X327264786Y-139648165D01*
X327267251Y-139642217D01*
X327267251Y-139642215D01*
X327268115Y-139640130D01*
X327268114Y-139640128D01*
X327268115Y-139640127D01*
X327268116Y-139622713D01*
X327267250Y-139618354D01*
X327267250Y-127216251D01*
X327915644Y-127216251D01*
X327946402Y-127469565D01*
X327946404Y-127469573D01*
X328017397Y-127714671D01*
X328017398Y-127714673D01*
X328017399Y-127714676D01*
X328102689Y-127894421D01*
X328126798Y-127945229D01*
X328271749Y-128155227D01*
X328271750Y-128155228D01*
X328271754Y-128155232D01*
X328448525Y-128339270D01*
X328652529Y-128492569D01*
X328878481Y-128611158D01*
X328878486Y-128611159D01*
X328878489Y-128611161D01*
X328958666Y-128637927D01*
X329120531Y-128691966D01*
X329372409Y-128732900D01*
X329563689Y-128732900D01*
X329563694Y-128732900D01*
X329754355Y-128717508D01*
X330002122Y-128656439D01*
X330236885Y-128556416D01*
X330452562Y-128420030D01*
X330643569Y-128250813D01*
X330804958Y-128053147D01*
X330932549Y-127832153D01*
X331023038Y-127593553D01*
X331074081Y-127343528D01*
X331084356Y-127088553D01*
X331053597Y-126835231D01*
X330982601Y-126590124D01*
X330873206Y-126359579D01*
X330873203Y-126359575D01*
X330873201Y-126359570D01*
X330728250Y-126149572D01*
X330728249Y-126149571D01*
X330636439Y-126053987D01*
X330551475Y-125965530D01*
X330347471Y-125812231D01*
X330218310Y-125744442D01*
X330121521Y-125693643D01*
X330121510Y-125693638D01*
X329879472Y-125612835D01*
X329879462Y-125612832D01*
X329627591Y-125571900D01*
X329436306Y-125571900D01*
X329381481Y-125576326D01*
X329245645Y-125587291D01*
X329245640Y-125587292D01*
X328997877Y-125648361D01*
X328763114Y-125748384D01*
X328547440Y-125884767D01*
X328356429Y-126053988D01*
X328356429Y-126053989D01*
X328195043Y-126251651D01*
X328067450Y-126472648D01*
X327976961Y-126711249D01*
X327925919Y-126961268D01*
X327925919Y-126961271D01*
X327915644Y-127216251D01*
X327267250Y-127216251D01*
X327267250Y-126661912D01*
X327268115Y-126657565D01*
X327268115Y-126640129D01*
X327264786Y-126632093D01*
X327258838Y-126629629D01*
X327258836Y-126629629D01*
X327256750Y-126628765D01*
X327256749Y-126628765D01*
X327239315Y-126628765D01*
X327234967Y-126629630D01*
X320528533Y-126629630D01*
X320524185Y-126628765D01*
X320506750Y-126628765D01*
X320504662Y-126629630D01*
X320504661Y-126629629D01*
X320498714Y-126632093D01*
X320498713Y-126632093D01*
X320495385Y-126640129D01*
X320495385Y-126657565D01*
X320496250Y-126661912D01*
X320496250Y-139618354D01*
X320495383Y-139622713D01*
X318954250Y-139622713D01*
X318954250Y-126661912D01*
X318955115Y-126657565D01*
X318955115Y-126640129D01*
X318951786Y-126632093D01*
X318945838Y-126629629D01*
X318945836Y-126629629D01*
X318943750Y-126628765D01*
X318943749Y-126628765D01*
X318926315Y-126628765D01*
X318921967Y-126629630D01*
X304965533Y-126629630D01*
X304961185Y-126628765D01*
X304943750Y-126628765D01*
X304941662Y-126629630D01*
X304941661Y-126629629D01*
X304935714Y-126632093D01*
X304935713Y-126632093D01*
X304932385Y-126640129D01*
X304932385Y-126657565D01*
X304933250Y-126661912D01*
X304933250Y-140618354D01*
X304932383Y-140622713D01*
X287998863Y-140622713D01*
X287998000Y-140618367D01*
X287998000Y-139622713D01*
X296619383Y-139622713D01*
X296619385Y-139640131D01*
X296620249Y-139642217D01*
X296622713Y-139648165D01*
X296622713Y-139648166D01*
X296630749Y-139651495D01*
X296630750Y-139651495D01*
X296648185Y-139651495D01*
X296652533Y-139650630D01*
X303358967Y-139650630D01*
X303363315Y-139651495D01*
X303380750Y-139651495D01*
X303380751Y-139651495D01*
X303388786Y-139648166D01*
X303388786Y-139648165D01*
X303391251Y-139642217D01*
X303391251Y-139642215D01*
X303392115Y-139640130D01*
X303392114Y-139640128D01*
X303392115Y-139640127D01*
X303392116Y-139622713D01*
X303391250Y-139618354D01*
X303391250Y-126661912D01*
X303392115Y-126657565D01*
X303392115Y-126640129D01*
X303388786Y-126632093D01*
X303382838Y-126629629D01*
X303382836Y-126629629D01*
X303380750Y-126628765D01*
X303380749Y-126628765D01*
X303363315Y-126628765D01*
X303358967Y-126629630D01*
X296652533Y-126629630D01*
X296648185Y-126628765D01*
X296630750Y-126628765D01*
X296628662Y-126629630D01*
X296628661Y-126629629D01*
X296622714Y-126632093D01*
X296622713Y-126632093D01*
X296619385Y-126640129D01*
X296619385Y-126657565D01*
X296620250Y-126661912D01*
X296620250Y-139618354D01*
X296619383Y-139622713D01*
X287998000Y-139622713D01*
X287998000Y-126661925D01*
X287998865Y-126657578D01*
X287998865Y-126640142D01*
X287995536Y-126632106D01*
X287989588Y-126629642D01*
X287989586Y-126629642D01*
X287987500Y-126628778D01*
X287987499Y-126628778D01*
X287970065Y-126628778D01*
X287965717Y-126629643D01*
X274009283Y-126629643D01*
X274004935Y-126628778D01*
X273987500Y-126628778D01*
X273985412Y-126629643D01*
X273985411Y-126629642D01*
X273979464Y-126632106D01*
X273979463Y-126632106D01*
X273976135Y-126640142D01*
X273976135Y-126657578D01*
X273977000Y-126661925D01*
X273977000Y-140618367D01*
X273976133Y-140622726D01*
X268948866Y-140622726D01*
X268948000Y-140618367D01*
X268948000Y-127216251D01*
X270043244Y-127216251D01*
X270074002Y-127469565D01*
X270074004Y-127469573D01*
X270144997Y-127714671D01*
X270144998Y-127714673D01*
X270144999Y-127714676D01*
X270230289Y-127894421D01*
X270254398Y-127945229D01*
X270399349Y-128155227D01*
X270399350Y-128155228D01*
X270399354Y-128155232D01*
X270576125Y-128339270D01*
X270780129Y-128492569D01*
X271006081Y-128611158D01*
X271006086Y-128611159D01*
X271006089Y-128611161D01*
X271086266Y-128637927D01*
X271248131Y-128691966D01*
X271500009Y-128732900D01*
X271691289Y-128732900D01*
X271691294Y-128732900D01*
X271881955Y-128717508D01*
X272129722Y-128656439D01*
X272364485Y-128556416D01*
X272580162Y-128420030D01*
X272771169Y-128250813D01*
X272932558Y-128053147D01*
X273060149Y-127832153D01*
X273150638Y-127593553D01*
X273201681Y-127343528D01*
X273211956Y-127088553D01*
X273181197Y-126835231D01*
X273110201Y-126590124D01*
X273000806Y-126359579D01*
X273000803Y-126359575D01*
X273000801Y-126359570D01*
X272855850Y-126149572D01*
X272855849Y-126149571D01*
X272764039Y-126053987D01*
X272679075Y-125965530D01*
X272475071Y-125812231D01*
X272345910Y-125744442D01*
X272249121Y-125693643D01*
X272249110Y-125693638D01*
X272007072Y-125612835D01*
X272007062Y-125612832D01*
X271755191Y-125571900D01*
X271563906Y-125571900D01*
X271509081Y-125576326D01*
X271373245Y-125587291D01*
X271373240Y-125587292D01*
X271125477Y-125648361D01*
X270890714Y-125748384D01*
X270675040Y-125884767D01*
X270484029Y-126053988D01*
X270484029Y-126053989D01*
X270322643Y-126251651D01*
X270195050Y-126472648D01*
X270104561Y-126711249D01*
X270053519Y-126961268D01*
X270053519Y-126961271D01*
X270043244Y-127216251D01*
X268948000Y-127216251D01*
X268948000Y-126661925D01*
X268948865Y-126657578D01*
X268948865Y-126640142D01*
X268945536Y-126632106D01*
X268939588Y-126629642D01*
X268939586Y-126629642D01*
X268937500Y-126628778D01*
X268937499Y-126628778D01*
X268920065Y-126628778D01*
X268915717Y-126629643D01*
X254959283Y-126629643D01*
X254954935Y-126628778D01*
X254937500Y-126628778D01*
X254935412Y-126629643D01*
X254935411Y-126629642D01*
X254929464Y-126632106D01*
X254929463Y-126632106D01*
X254926135Y-126640142D01*
X254926135Y-126657578D01*
X254927000Y-126661925D01*
X254927000Y-140618367D01*
X254926133Y-140622726D01*
X249898866Y-140622726D01*
X249898000Y-140618367D01*
X249898000Y-126661925D01*
X249898865Y-126657578D01*
X249898865Y-126640142D01*
X249895536Y-126632106D01*
X249889588Y-126629642D01*
X249889586Y-126629642D01*
X249887500Y-126628778D01*
X249887499Y-126628778D01*
X249870065Y-126628778D01*
X249865717Y-126629643D01*
X235909283Y-126629643D01*
X235904935Y-126628778D01*
X235887500Y-126628778D01*
X235885412Y-126629643D01*
X235885411Y-126629642D01*
X235879464Y-126632106D01*
X235879463Y-126632106D01*
X235876135Y-126640142D01*
X235876135Y-126657578D01*
X235877000Y-126661925D01*
X235877000Y-140618367D01*
X235876133Y-140622726D01*
X230848866Y-140622726D01*
X230848000Y-140618367D01*
X230848000Y-126661925D01*
X230848865Y-126657578D01*
X230848865Y-126640142D01*
X230845536Y-126632106D01*
X230839588Y-126629642D01*
X230839586Y-126629642D01*
X230837500Y-126628778D01*
X230837499Y-126628778D01*
X230820065Y-126628778D01*
X230815717Y-126629643D01*
X216859283Y-126629643D01*
X216854935Y-126628778D01*
X216837500Y-126628778D01*
X216835412Y-126629643D01*
X216835411Y-126629642D01*
X216829464Y-126632106D01*
X216829463Y-126632106D01*
X216826135Y-126640142D01*
X216826135Y-126657578D01*
X216827000Y-126661925D01*
X216827000Y-140618367D01*
X216826133Y-140622726D01*
X211798866Y-140622726D01*
X211798000Y-140618367D01*
X211798000Y-126661925D01*
X211798865Y-126657578D01*
X211798865Y-126640142D01*
X211795536Y-126632106D01*
X211789588Y-126629642D01*
X211789586Y-126629642D01*
X211787500Y-126628778D01*
X211787499Y-126628778D01*
X211770065Y-126628778D01*
X211765717Y-126629643D01*
X197809283Y-126629643D01*
X197804935Y-126628778D01*
X197787500Y-126628778D01*
X197785412Y-126629643D01*
X197785411Y-126629642D01*
X197779464Y-126632106D01*
X197779463Y-126632106D01*
X197776135Y-126640142D01*
X197776135Y-126657578D01*
X197777000Y-126661925D01*
X197777000Y-140618367D01*
X197776133Y-140622726D01*
X192748866Y-140622726D01*
X192748000Y-140618367D01*
X192748000Y-127216251D01*
X193685644Y-127216251D01*
X193716402Y-127469565D01*
X193716404Y-127469573D01*
X193787397Y-127714671D01*
X193787398Y-127714673D01*
X193787399Y-127714676D01*
X193872689Y-127894421D01*
X193896798Y-127945229D01*
X194041749Y-128155227D01*
X194041750Y-128155228D01*
X194041754Y-128155232D01*
X194218525Y-128339270D01*
X194422529Y-128492569D01*
X194648481Y-128611158D01*
X194648486Y-128611159D01*
X194648489Y-128611161D01*
X194728666Y-128637927D01*
X194890531Y-128691966D01*
X195142409Y-128732900D01*
X195333689Y-128732900D01*
X195333694Y-128732900D01*
X195524355Y-128717508D01*
X195772122Y-128656439D01*
X196006885Y-128556416D01*
X196222562Y-128420030D01*
X196413569Y-128250813D01*
X196574958Y-128053147D01*
X196702549Y-127832153D01*
X196793038Y-127593553D01*
X196844081Y-127343528D01*
X196854356Y-127088553D01*
X196823597Y-126835231D01*
X196752601Y-126590124D01*
X196643206Y-126359579D01*
X196643203Y-126359575D01*
X196643201Y-126359570D01*
X196498250Y-126149572D01*
X196498249Y-126149571D01*
X196406439Y-126053987D01*
X196321475Y-125965530D01*
X196117471Y-125812231D01*
X195988310Y-125744442D01*
X195891521Y-125693643D01*
X195891510Y-125693638D01*
X195649472Y-125612835D01*
X195649462Y-125612832D01*
X195397591Y-125571900D01*
X195206306Y-125571900D01*
X195151481Y-125576326D01*
X195015645Y-125587291D01*
X195015640Y-125587292D01*
X194767877Y-125648361D01*
X194533114Y-125748384D01*
X194317440Y-125884767D01*
X194126429Y-126053988D01*
X194126429Y-126053989D01*
X193965043Y-126251651D01*
X193837450Y-126472648D01*
X193746961Y-126711249D01*
X193695919Y-126961268D01*
X193695919Y-126961271D01*
X193685644Y-127216251D01*
X192748000Y-127216251D01*
X192748000Y-126661925D01*
X192748865Y-126657578D01*
X192748865Y-126640142D01*
X192745536Y-126632106D01*
X192739588Y-126629642D01*
X192739586Y-126629642D01*
X192737500Y-126628778D01*
X192737499Y-126628778D01*
X192720065Y-126628778D01*
X192715717Y-126629643D01*
X178759283Y-126629643D01*
X178754935Y-126628778D01*
X178737500Y-126628778D01*
X178735412Y-126629643D01*
X178735411Y-126629642D01*
X178729464Y-126632106D01*
X178729463Y-126632106D01*
X178726135Y-126640142D01*
X178726135Y-126657578D01*
X178727000Y-126661925D01*
X178727000Y-140618367D01*
X178726133Y-140622726D01*
X173698866Y-140622726D01*
X173698000Y-140618367D01*
X173698000Y-126661925D01*
X173698865Y-126657578D01*
X173698865Y-126640142D01*
X173695536Y-126632106D01*
X173689588Y-126629642D01*
X173689586Y-126629642D01*
X173687500Y-126628778D01*
X173687499Y-126628778D01*
X173670065Y-126628778D01*
X173665717Y-126629643D01*
X159709283Y-126629643D01*
X159704935Y-126628778D01*
X159687500Y-126628778D01*
X159685412Y-126629643D01*
X159685411Y-126629642D01*
X159679464Y-126632106D01*
X159679463Y-126632106D01*
X159676135Y-126640142D01*
X159676135Y-126657578D01*
X159677000Y-126661925D01*
X159677000Y-140618367D01*
X159676133Y-140622726D01*
X154648866Y-140622726D01*
X154648000Y-140618367D01*
X154648000Y-126661925D01*
X154648865Y-126657578D01*
X154648865Y-126640142D01*
X154645536Y-126632106D01*
X154639588Y-126629642D01*
X154639586Y-126629642D01*
X154637500Y-126628778D01*
X154637499Y-126628778D01*
X154620065Y-126628778D01*
X154615717Y-126629643D01*
X140659283Y-126629643D01*
X140654935Y-126628778D01*
X140637500Y-126628778D01*
X140635412Y-126629643D01*
X140635411Y-126629642D01*
X140629464Y-126632106D01*
X140629463Y-126632106D01*
X140626135Y-126640142D01*
X140626135Y-126657578D01*
X140627000Y-126661925D01*
X140627000Y-140618367D01*
X140626133Y-140622726D01*
X135598866Y-140622726D01*
X135598000Y-140618367D01*
X135598000Y-126661925D01*
X135598865Y-126657578D01*
X135598865Y-126640142D01*
X135595536Y-126632106D01*
X135589588Y-126629642D01*
X135589586Y-126629642D01*
X135587500Y-126628778D01*
X135587499Y-126628778D01*
X135570065Y-126628778D01*
X135565717Y-126629643D01*
X121609283Y-126629643D01*
X121604935Y-126628778D01*
X121587500Y-126628778D01*
X121585412Y-126629643D01*
X121585411Y-126629642D01*
X121579464Y-126632106D01*
X121579463Y-126632106D01*
X121576135Y-126640142D01*
X121576135Y-126657578D01*
X121577000Y-126661925D01*
X121577000Y-140618367D01*
X121576133Y-140622726D01*
X116548866Y-140622726D01*
X116548000Y-140618367D01*
X116548000Y-127267051D01*
X117485644Y-127267051D01*
X117516402Y-127520365D01*
X117516404Y-127520373D01*
X117587397Y-127765471D01*
X117696798Y-127996029D01*
X117841749Y-128206027D01*
X117841750Y-128206028D01*
X117841754Y-128206032D01*
X118018525Y-128390070D01*
X118222529Y-128543369D01*
X118448481Y-128661958D01*
X118448486Y-128661959D01*
X118448489Y-128661961D01*
X118508814Y-128682100D01*
X118690531Y-128742766D01*
X118942409Y-128783700D01*
X119133689Y-128783700D01*
X119133694Y-128783700D01*
X119324355Y-128768308D01*
X119572122Y-128707239D01*
X119806885Y-128607216D01*
X120022562Y-128470830D01*
X120213569Y-128301613D01*
X120374958Y-128103947D01*
X120502549Y-127882953D01*
X120593038Y-127644353D01*
X120644081Y-127394328D01*
X120654356Y-127139353D01*
X120623597Y-126886031D01*
X120552601Y-126640924D01*
X120443206Y-126410379D01*
X120443203Y-126410375D01*
X120443201Y-126410370D01*
X120298250Y-126200372D01*
X120298249Y-126200371D01*
X120206439Y-126104787D01*
X120121475Y-126016330D01*
X119917471Y-125863031D01*
X119691519Y-125744442D01*
X119691518Y-125744441D01*
X119691510Y-125744438D01*
X119449472Y-125663635D01*
X119449462Y-125663632D01*
X119197591Y-125622700D01*
X119006306Y-125622700D01*
X118951481Y-125627126D01*
X118815645Y-125638091D01*
X118815640Y-125638092D01*
X118567877Y-125699161D01*
X118333114Y-125799184D01*
X118117440Y-125935567D01*
X117926429Y-126104788D01*
X117926429Y-126104789D01*
X117765043Y-126302451D01*
X117637450Y-126523448D01*
X117546961Y-126762049D01*
X117495919Y-127012068D01*
X117495919Y-127012071D01*
X117485644Y-127267051D01*
X116548000Y-127267051D01*
X116548000Y-126661925D01*
X116548865Y-126657578D01*
X116548865Y-126640142D01*
X116545536Y-126632106D01*
X116539588Y-126629642D01*
X116539586Y-126629642D01*
X116537500Y-126628778D01*
X116537499Y-126628778D01*
X116520065Y-126628778D01*
X116515717Y-126629643D01*
X102559283Y-126629643D01*
X102554935Y-126628778D01*
X102537500Y-126628778D01*
X102535412Y-126629643D01*
X102535411Y-126629642D01*
X102529464Y-126632106D01*
X102529463Y-126632106D01*
X102526135Y-126640142D01*
X102526135Y-126657578D01*
X102527000Y-126661925D01*
X102527000Y-140618367D01*
X102526133Y-140622726D01*
X97498866Y-140622726D01*
X97498000Y-140618367D01*
X97498000Y-126661925D01*
X97498865Y-126657578D01*
X97498865Y-126640142D01*
X97495536Y-126632106D01*
X97489588Y-126629642D01*
X97489586Y-126629642D01*
X97487500Y-126628778D01*
X97487499Y-126628778D01*
X97470065Y-126628778D01*
X97465717Y-126629643D01*
X83509283Y-126629643D01*
X83504935Y-126628778D01*
X83487500Y-126628778D01*
X83485412Y-126629643D01*
X83485411Y-126629642D01*
X83479464Y-126632106D01*
X83479463Y-126632106D01*
X83476135Y-126640142D01*
X83476135Y-126657578D01*
X83477000Y-126661925D01*
X83477000Y-140618367D01*
X83476133Y-140622726D01*
X71305116Y-140622726D01*
X71305116Y-140622713D01*
X71304250Y-140618354D01*
X71304250Y-126661912D01*
X71305115Y-126657565D01*
X71305115Y-126640129D01*
X71301786Y-126632093D01*
X71295838Y-126629629D01*
X71295836Y-126629629D01*
X71293750Y-126628765D01*
X71293749Y-126628765D01*
X71276315Y-126628765D01*
X71271967Y-126629630D01*
X52553033Y-126629630D01*
X52548685Y-126628765D01*
X52531250Y-126628765D01*
X52529162Y-126629630D01*
X52529161Y-126629629D01*
X52523214Y-126632093D01*
X52523213Y-126632093D01*
X52519885Y-126640129D01*
X52519885Y-126657565D01*
X52520750Y-126661912D01*
X52520750Y-140618354D01*
X52519883Y-140622713D01*
X47010500Y-140622713D01*
X47010500Y-127165451D01*
X48385644Y-127165451D01*
X48416402Y-127418765D01*
X48416404Y-127418773D01*
X48487397Y-127663871D01*
X48487398Y-127663873D01*
X48487399Y-127663876D01*
X48596794Y-127894421D01*
X48596798Y-127894429D01*
X48741749Y-128104427D01*
X48741750Y-128104428D01*
X48741754Y-128104432D01*
X48918525Y-128288470D01*
X49122529Y-128441769D01*
X49348481Y-128560358D01*
X49348486Y-128560359D01*
X49348489Y-128560361D01*
X49428666Y-128587127D01*
X49590531Y-128641166D01*
X49590536Y-128641166D01*
X49590537Y-128641167D01*
X49718470Y-128661958D01*
X49842409Y-128682100D01*
X50033689Y-128682100D01*
X50033694Y-128682100D01*
X50224355Y-128666708D01*
X50472122Y-128605639D01*
X50706885Y-128505616D01*
X50922562Y-128369230D01*
X51113569Y-128200013D01*
X51274958Y-128002347D01*
X51402549Y-127781353D01*
X51493038Y-127542753D01*
X51544081Y-127292728D01*
X51554356Y-127037753D01*
X51523597Y-126784431D01*
X51452601Y-126539324D01*
X51343206Y-126308779D01*
X51343203Y-126308775D01*
X51343201Y-126308770D01*
X51198250Y-126098772D01*
X51198249Y-126098771D01*
X51106439Y-126003187D01*
X51021475Y-125914730D01*
X50817471Y-125761431D01*
X50688310Y-125693642D01*
X50591521Y-125642843D01*
X50591510Y-125642838D01*
X50349472Y-125562035D01*
X50349462Y-125562032D01*
X50097591Y-125521100D01*
X49906306Y-125521100D01*
X49851481Y-125525526D01*
X49715645Y-125536491D01*
X49715640Y-125536492D01*
X49467877Y-125597561D01*
X49233114Y-125697584D01*
X49017440Y-125833967D01*
X48826429Y-126003188D01*
X48826429Y-126003189D01*
X48665043Y-126200851D01*
X48537450Y-126421848D01*
X48446961Y-126660449D01*
X48395919Y-126910468D01*
X48395919Y-126910471D01*
X48385644Y-127165451D01*
X47010500Y-127165451D01*
X47010500Y-120062704D01*
X54901133Y-120062704D01*
X54901135Y-120080122D01*
X54901999Y-120082208D01*
X54904463Y-120088156D01*
X54904463Y-120088157D01*
X54912499Y-120091486D01*
X54912500Y-120091486D01*
X54929935Y-120091486D01*
X54934283Y-120090621D01*
X68890717Y-120090621D01*
X68895065Y-120091486D01*
X68912500Y-120091486D01*
X68912501Y-120091486D01*
X68920536Y-120088157D01*
X68920536Y-120088156D01*
X68923001Y-120082208D01*
X68923001Y-120082206D01*
X68923865Y-120080121D01*
X68923864Y-120080119D01*
X68923865Y-120080118D01*
X68923866Y-120062704D01*
X78713633Y-120062704D01*
X78713635Y-120080122D01*
X78714499Y-120082208D01*
X78716963Y-120088156D01*
X78716963Y-120088157D01*
X78724999Y-120091486D01*
X78725000Y-120091486D01*
X78742435Y-120091486D01*
X78746783Y-120090621D01*
X92703217Y-120090621D01*
X92707565Y-120091486D01*
X92725000Y-120091486D01*
X92725001Y-120091486D01*
X92733036Y-120088157D01*
X92733036Y-120088156D01*
X92735501Y-120082208D01*
X92735501Y-120082206D01*
X92736365Y-120080121D01*
X92736364Y-120080119D01*
X92736365Y-120080118D01*
X92736366Y-120062704D01*
X97763633Y-120062704D01*
X97763635Y-120080122D01*
X97764499Y-120082208D01*
X97766963Y-120088156D01*
X97766963Y-120088157D01*
X97774999Y-120091486D01*
X97775000Y-120091486D01*
X97792435Y-120091486D01*
X97796783Y-120090621D01*
X111753217Y-120090621D01*
X111757565Y-120091486D01*
X111775000Y-120091486D01*
X111775001Y-120091486D01*
X111783036Y-120088157D01*
X111783036Y-120088156D01*
X111785501Y-120082208D01*
X111785501Y-120082206D01*
X111786365Y-120080121D01*
X111786364Y-120080119D01*
X111786365Y-120080118D01*
X111786366Y-120062704D01*
X116813633Y-120062704D01*
X116813635Y-120080122D01*
X116814499Y-120082208D01*
X116816963Y-120088156D01*
X116816963Y-120088157D01*
X116824999Y-120091486D01*
X116825000Y-120091486D01*
X116842435Y-120091486D01*
X116846783Y-120090621D01*
X130803217Y-120090621D01*
X130807565Y-120091486D01*
X130825000Y-120091486D01*
X130825001Y-120091486D01*
X130833036Y-120088157D01*
X130833036Y-120088156D01*
X130835501Y-120082208D01*
X130835501Y-120082206D01*
X130836365Y-120080121D01*
X130836364Y-120080119D01*
X130836365Y-120080118D01*
X130836366Y-120062704D01*
X135863633Y-120062704D01*
X135863635Y-120080122D01*
X135864499Y-120082208D01*
X135866963Y-120088156D01*
X135866963Y-120088157D01*
X135874999Y-120091486D01*
X135875000Y-120091486D01*
X135892435Y-120091486D01*
X135896783Y-120090621D01*
X149853217Y-120090621D01*
X149857565Y-120091486D01*
X149875000Y-120091486D01*
X149875001Y-120091486D01*
X149883036Y-120088157D01*
X149883036Y-120088156D01*
X149885501Y-120082208D01*
X149885501Y-120082206D01*
X149886365Y-120080121D01*
X149886364Y-120080119D01*
X149886365Y-120080118D01*
X149886366Y-120062704D01*
X154913633Y-120062704D01*
X154913635Y-120080122D01*
X154914499Y-120082208D01*
X154916963Y-120088156D01*
X154916963Y-120088157D01*
X154924999Y-120091486D01*
X154925000Y-120091486D01*
X154942435Y-120091486D01*
X154946783Y-120090621D01*
X168903217Y-120090621D01*
X168907565Y-120091486D01*
X168925000Y-120091486D01*
X168925001Y-120091486D01*
X168933036Y-120088157D01*
X168933036Y-120088156D01*
X168935501Y-120082208D01*
X168935501Y-120082206D01*
X168936365Y-120080121D01*
X168936364Y-120080119D01*
X168936365Y-120080118D01*
X168936366Y-120062704D01*
X173963633Y-120062704D01*
X173963635Y-120080122D01*
X173964499Y-120082208D01*
X173966963Y-120088156D01*
X173966963Y-120088157D01*
X173974999Y-120091486D01*
X173975000Y-120091486D01*
X173992435Y-120091486D01*
X173996783Y-120090621D01*
X187953217Y-120090621D01*
X187957565Y-120091486D01*
X187975000Y-120091486D01*
X187975001Y-120091486D01*
X187983036Y-120088157D01*
X187983036Y-120088156D01*
X187985501Y-120082208D01*
X187985501Y-120082206D01*
X187986365Y-120080121D01*
X187986364Y-120080119D01*
X187986365Y-120080118D01*
X187986366Y-120062704D01*
X193013633Y-120062704D01*
X193013635Y-120080122D01*
X193014499Y-120082208D01*
X193016963Y-120088156D01*
X193016963Y-120088157D01*
X193024999Y-120091486D01*
X193025000Y-120091486D01*
X193042435Y-120091486D01*
X193046783Y-120090621D01*
X207003217Y-120090621D01*
X207007565Y-120091486D01*
X207025000Y-120091486D01*
X207025001Y-120091486D01*
X207033036Y-120088157D01*
X207033036Y-120088156D01*
X207035501Y-120082208D01*
X207035501Y-120082206D01*
X207036365Y-120080121D01*
X207036364Y-120080119D01*
X207036365Y-120080118D01*
X207036366Y-120062704D01*
X212063633Y-120062704D01*
X212063635Y-120080122D01*
X212064499Y-120082208D01*
X212066963Y-120088156D01*
X212066963Y-120088157D01*
X212074999Y-120091486D01*
X212075000Y-120091486D01*
X212092435Y-120091486D01*
X212096783Y-120090621D01*
X226053217Y-120090621D01*
X226057565Y-120091486D01*
X226075000Y-120091486D01*
X226075001Y-120091486D01*
X226083036Y-120088157D01*
X226083036Y-120088156D01*
X226085501Y-120082208D01*
X226085501Y-120082206D01*
X226086365Y-120080121D01*
X226086364Y-120080119D01*
X226086365Y-120080118D01*
X226086366Y-120062704D01*
X231113633Y-120062704D01*
X231113635Y-120080122D01*
X231114499Y-120082208D01*
X231116963Y-120088156D01*
X231116963Y-120088157D01*
X231124999Y-120091486D01*
X231125000Y-120091486D01*
X231142435Y-120091486D01*
X231146783Y-120090621D01*
X245103217Y-120090621D01*
X245107565Y-120091486D01*
X245125000Y-120091486D01*
X245125001Y-120091486D01*
X245133036Y-120088157D01*
X245133036Y-120088156D01*
X245135501Y-120082208D01*
X245135501Y-120082206D01*
X245136365Y-120080121D01*
X245136364Y-120080119D01*
X245136365Y-120080118D01*
X245136366Y-120062704D01*
X250163633Y-120062704D01*
X250163635Y-120080122D01*
X250164499Y-120082208D01*
X250166963Y-120088156D01*
X250166963Y-120088157D01*
X250174999Y-120091486D01*
X250175000Y-120091486D01*
X250192435Y-120091486D01*
X250196783Y-120090621D01*
X264153217Y-120090621D01*
X264157565Y-120091486D01*
X264175000Y-120091486D01*
X264175001Y-120091486D01*
X264183036Y-120088157D01*
X264183036Y-120088156D01*
X264185501Y-120082208D01*
X264185501Y-120082206D01*
X264186365Y-120080121D01*
X264186364Y-120080119D01*
X264186365Y-120080118D01*
X264186366Y-120062704D01*
X269213633Y-120062704D01*
X269213635Y-120080122D01*
X269214499Y-120082208D01*
X269216963Y-120088156D01*
X269216963Y-120088157D01*
X269224999Y-120091486D01*
X269225000Y-120091486D01*
X269242435Y-120091486D01*
X269246783Y-120090621D01*
X283203217Y-120090621D01*
X283207565Y-120091486D01*
X283225000Y-120091486D01*
X283225001Y-120091486D01*
X283233036Y-120088157D01*
X283233036Y-120088156D01*
X283235501Y-120082208D01*
X283235501Y-120082206D01*
X283236365Y-120080121D01*
X283236364Y-120080119D01*
X283236365Y-120080118D01*
X283236366Y-120062704D01*
X288263633Y-120062704D01*
X288263635Y-120080122D01*
X288264499Y-120082208D01*
X288266963Y-120088156D01*
X288266963Y-120088157D01*
X288274999Y-120091486D01*
X288275000Y-120091486D01*
X288292435Y-120091486D01*
X288296783Y-120090621D01*
X302253217Y-120090621D01*
X302257565Y-120091486D01*
X302275000Y-120091486D01*
X302275001Y-120091486D01*
X302283036Y-120088157D01*
X302283036Y-120088156D01*
X302285501Y-120082208D01*
X302285501Y-120082206D01*
X302286365Y-120080121D01*
X302286364Y-120080119D01*
X302286365Y-120080118D01*
X302286366Y-120062704D01*
X312076133Y-120062704D01*
X312076135Y-120080122D01*
X312076999Y-120082208D01*
X312079463Y-120088156D01*
X312079463Y-120088157D01*
X312087499Y-120091486D01*
X312087500Y-120091486D01*
X312104935Y-120091486D01*
X312109283Y-120090621D01*
X326065717Y-120090621D01*
X326070065Y-120091486D01*
X326087500Y-120091486D01*
X326087501Y-120091486D01*
X326095536Y-120088157D01*
X326095536Y-120088156D01*
X326098001Y-120082208D01*
X326098001Y-120082206D01*
X326098865Y-120080121D01*
X326098864Y-120080119D01*
X326098865Y-120080118D01*
X326098866Y-120062704D01*
X326098000Y-120058345D01*
X326098000Y-106373851D01*
X327915644Y-106373851D01*
X327946402Y-106627165D01*
X327946404Y-106627173D01*
X328017397Y-106872271D01*
X328017398Y-106872273D01*
X328017399Y-106872276D01*
X328073142Y-106989751D01*
X328126798Y-107102829D01*
X328271749Y-107312827D01*
X328271750Y-107312828D01*
X328271754Y-107312832D01*
X328448525Y-107496870D01*
X328652529Y-107650169D01*
X328878481Y-107768758D01*
X328878486Y-107768759D01*
X328878489Y-107768761D01*
X328935839Y-107787907D01*
X329120531Y-107849566D01*
X329120536Y-107849566D01*
X329120537Y-107849567D01*
X329270972Y-107874015D01*
X329372409Y-107890500D01*
X329563689Y-107890500D01*
X329563694Y-107890500D01*
X329754355Y-107875108D01*
X330002122Y-107814039D01*
X330236885Y-107714016D01*
X330452562Y-107577630D01*
X330643569Y-107408413D01*
X330804958Y-107210747D01*
X330932549Y-106989753D01*
X331023038Y-106751153D01*
X331074081Y-106501128D01*
X331084356Y-106246153D01*
X331053597Y-105992831D01*
X330982601Y-105747724D01*
X330873206Y-105517179D01*
X330873203Y-105517175D01*
X330873201Y-105517170D01*
X330728250Y-105307172D01*
X330728249Y-105307171D01*
X330627583Y-105202367D01*
X330551475Y-105123130D01*
X330347471Y-104969831D01*
X330121519Y-104851242D01*
X330121518Y-104851241D01*
X330121510Y-104851238D01*
X329879472Y-104770435D01*
X329879462Y-104770432D01*
X329627591Y-104729500D01*
X329436306Y-104729500D01*
X329381481Y-104733926D01*
X329245645Y-104744891D01*
X329245640Y-104744892D01*
X328997877Y-104805961D01*
X328763114Y-104905984D01*
X328547440Y-105042367D01*
X328356429Y-105211588D01*
X328356429Y-105211589D01*
X328195043Y-105409251D01*
X328067450Y-105630248D01*
X327976961Y-105868849D01*
X327925919Y-106118868D01*
X327925919Y-106118871D01*
X327925919Y-106118872D01*
X327919472Y-106278868D01*
X327915644Y-106373851D01*
X326098000Y-106373851D01*
X326098000Y-106101903D01*
X326098865Y-106097556D01*
X326098865Y-106080120D01*
X326095536Y-106072084D01*
X326089588Y-106069620D01*
X326089586Y-106069620D01*
X326087500Y-106068756D01*
X326087499Y-106068756D01*
X326070065Y-106068756D01*
X326065717Y-106069621D01*
X312109283Y-106069621D01*
X312104935Y-106068756D01*
X312087500Y-106068756D01*
X312085412Y-106069621D01*
X312085411Y-106069620D01*
X312079464Y-106072084D01*
X312079463Y-106072084D01*
X312076135Y-106080120D01*
X312076135Y-106097556D01*
X312077000Y-106101903D01*
X312077000Y-120058345D01*
X312076133Y-120062704D01*
X302286366Y-120062704D01*
X302285500Y-120058345D01*
X302285500Y-106101903D01*
X302286365Y-106097556D01*
X302286365Y-106080120D01*
X302283036Y-106072084D01*
X302277088Y-106069620D01*
X302277086Y-106069620D01*
X302275000Y-106068756D01*
X302274999Y-106068756D01*
X302257565Y-106068756D01*
X302253217Y-106069621D01*
X288296783Y-106069621D01*
X288292435Y-106068756D01*
X288275000Y-106068756D01*
X288272912Y-106069621D01*
X288272911Y-106069620D01*
X288266964Y-106072084D01*
X288266963Y-106072084D01*
X288263635Y-106080120D01*
X288263635Y-106097556D01*
X288264500Y-106101903D01*
X288264500Y-120058345D01*
X288263633Y-120062704D01*
X283236366Y-120062704D01*
X283235500Y-120058345D01*
X283235500Y-106101903D01*
X283236365Y-106097556D01*
X283236365Y-106080120D01*
X283233036Y-106072084D01*
X283227088Y-106069620D01*
X283227086Y-106069620D01*
X283225000Y-106068756D01*
X283224999Y-106068756D01*
X283207565Y-106068756D01*
X283203217Y-106069621D01*
X269246783Y-106069621D01*
X269242435Y-106068756D01*
X269225000Y-106068756D01*
X269222912Y-106069621D01*
X269222911Y-106069620D01*
X269216964Y-106072084D01*
X269216963Y-106072084D01*
X269213635Y-106080120D01*
X269213635Y-106097556D01*
X269214500Y-106101903D01*
X269214500Y-120058345D01*
X269213633Y-120062704D01*
X264186366Y-120062704D01*
X264185500Y-120058345D01*
X264185500Y-106373851D01*
X265165644Y-106373851D01*
X265196402Y-106627165D01*
X265196404Y-106627173D01*
X265267397Y-106872271D01*
X265267398Y-106872273D01*
X265267399Y-106872276D01*
X265323142Y-106989751D01*
X265376798Y-107102829D01*
X265521749Y-107312827D01*
X265521750Y-107312828D01*
X265521754Y-107312832D01*
X265698525Y-107496870D01*
X265902529Y-107650169D01*
X266128481Y-107768758D01*
X266128486Y-107768759D01*
X266128489Y-107768761D01*
X266185839Y-107787907D01*
X266370531Y-107849566D01*
X266370536Y-107849566D01*
X266370537Y-107849567D01*
X266520972Y-107874015D01*
X266622409Y-107890500D01*
X266813689Y-107890500D01*
X266813694Y-107890500D01*
X267004355Y-107875108D01*
X267252122Y-107814039D01*
X267486885Y-107714016D01*
X267702562Y-107577630D01*
X267893569Y-107408413D01*
X268054958Y-107210747D01*
X268182549Y-106989753D01*
X268273038Y-106751153D01*
X268324081Y-106501128D01*
X268334356Y-106246153D01*
X268303597Y-105992831D01*
X268232601Y-105747724D01*
X268123206Y-105517179D01*
X268123203Y-105517175D01*
X268123201Y-105517170D01*
X267978250Y-105307172D01*
X267978249Y-105307171D01*
X267877583Y-105202367D01*
X267801475Y-105123130D01*
X267597471Y-104969831D01*
X267371519Y-104851242D01*
X267371518Y-104851241D01*
X267371510Y-104851238D01*
X267129472Y-104770435D01*
X267129462Y-104770432D01*
X266877591Y-104729500D01*
X266686306Y-104729500D01*
X266631481Y-104733926D01*
X266495645Y-104744891D01*
X266495640Y-104744892D01*
X266247877Y-104805961D01*
X266013114Y-104905984D01*
X265797440Y-105042367D01*
X265606429Y-105211588D01*
X265606429Y-105211589D01*
X265445043Y-105409251D01*
X265317450Y-105630248D01*
X265226961Y-105868849D01*
X265175919Y-106118868D01*
X265175919Y-106118871D01*
X265175919Y-106118872D01*
X265169472Y-106278868D01*
X265165644Y-106373851D01*
X264185500Y-106373851D01*
X264185500Y-106101903D01*
X264186365Y-106097556D01*
X264186365Y-106080120D01*
X264183036Y-106072084D01*
X264177088Y-106069620D01*
X264177086Y-106069620D01*
X264175000Y-106068756D01*
X264174999Y-106068756D01*
X264157565Y-106068756D01*
X264153217Y-106069621D01*
X250196783Y-106069621D01*
X250192435Y-106068756D01*
X250175000Y-106068756D01*
X250172912Y-106069621D01*
X250172911Y-106069620D01*
X250166964Y-106072084D01*
X250166963Y-106072084D01*
X250163635Y-106080120D01*
X250163635Y-106097556D01*
X250164500Y-106101903D01*
X250164500Y-120058345D01*
X250163633Y-120062704D01*
X245136366Y-120062704D01*
X245135500Y-120058345D01*
X245135500Y-106101903D01*
X245136365Y-106097556D01*
X245136365Y-106080120D01*
X245133036Y-106072084D01*
X245127088Y-106069620D01*
X245127086Y-106069620D01*
X245125000Y-106068756D01*
X245124999Y-106068756D01*
X245107565Y-106068756D01*
X245103217Y-106069621D01*
X231146783Y-106069621D01*
X231142435Y-106068756D01*
X231125000Y-106068756D01*
X231122912Y-106069621D01*
X231122911Y-106069620D01*
X231116964Y-106072084D01*
X231116963Y-106072084D01*
X231113635Y-106080120D01*
X231113635Y-106097556D01*
X231114500Y-106101903D01*
X231114500Y-120058345D01*
X231113633Y-120062704D01*
X226086366Y-120062704D01*
X226085500Y-120058345D01*
X226085500Y-106101903D01*
X226086365Y-106097556D01*
X226086365Y-106080120D01*
X226083036Y-106072084D01*
X226077088Y-106069620D01*
X226077086Y-106069620D01*
X226075000Y-106068756D01*
X226074999Y-106068756D01*
X226057565Y-106068756D01*
X226053217Y-106069621D01*
X212096783Y-106069621D01*
X212092435Y-106068756D01*
X212075000Y-106068756D01*
X212072912Y-106069621D01*
X212072911Y-106069620D01*
X212066964Y-106072084D01*
X212066963Y-106072084D01*
X212063635Y-106080120D01*
X212063635Y-106097556D01*
X212064500Y-106101903D01*
X212064500Y-120058345D01*
X212063633Y-120062704D01*
X207036366Y-120062704D01*
X207035500Y-120058345D01*
X207035500Y-106101903D01*
X207036365Y-106097556D01*
X207036365Y-106080120D01*
X207033036Y-106072084D01*
X207027088Y-106069620D01*
X207027086Y-106069620D01*
X207025000Y-106068756D01*
X207024999Y-106068756D01*
X207007565Y-106068756D01*
X207003217Y-106069621D01*
X193046783Y-106069621D01*
X193042435Y-106068756D01*
X193025000Y-106068756D01*
X193022912Y-106069621D01*
X193022911Y-106069620D01*
X193016964Y-106072084D01*
X193016963Y-106072084D01*
X193013635Y-106080120D01*
X193013635Y-106097556D01*
X193014500Y-106101903D01*
X193014500Y-120058345D01*
X193013633Y-120062704D01*
X187986366Y-120062704D01*
X187985500Y-120058345D01*
X187985500Y-106393851D01*
X188915644Y-106393851D01*
X188946402Y-106647165D01*
X188946404Y-106647173D01*
X189017397Y-106892271D01*
X189017398Y-106892273D01*
X189017399Y-106892276D01*
X189083830Y-107032276D01*
X189126798Y-107122829D01*
X189271749Y-107332827D01*
X189271750Y-107332828D01*
X189271754Y-107332832D01*
X189448525Y-107516870D01*
X189652529Y-107670169D01*
X189878481Y-107788758D01*
X189878486Y-107788759D01*
X189878489Y-107788761D01*
X189942612Y-107810168D01*
X190120531Y-107869566D01*
X190372409Y-107910500D01*
X190563689Y-107910500D01*
X190563694Y-107910500D01*
X190754355Y-107895108D01*
X191002122Y-107834039D01*
X191236885Y-107734016D01*
X191452562Y-107597630D01*
X191643569Y-107428413D01*
X191804958Y-107230747D01*
X191932549Y-107009753D01*
X192023038Y-106771153D01*
X192074081Y-106521128D01*
X192084356Y-106266153D01*
X192053597Y-106012831D01*
X191982601Y-105767724D01*
X191873206Y-105537179D01*
X191873203Y-105537175D01*
X191873201Y-105537170D01*
X191728250Y-105327172D01*
X191728249Y-105327171D01*
X191636439Y-105231587D01*
X191551475Y-105143130D01*
X191347471Y-104989831D01*
X191121519Y-104871242D01*
X191121518Y-104871241D01*
X191121510Y-104871238D01*
X190879472Y-104790435D01*
X190879462Y-104790432D01*
X190627591Y-104749500D01*
X190436306Y-104749500D01*
X190381481Y-104753926D01*
X190245645Y-104764891D01*
X190245640Y-104764892D01*
X189997877Y-104825961D01*
X189763114Y-104925984D01*
X189547440Y-105062367D01*
X189356429Y-105231588D01*
X189356429Y-105231589D01*
X189195043Y-105429251D01*
X189067450Y-105650248D01*
X188976961Y-105888849D01*
X188925919Y-106138868D01*
X188925919Y-106138871D01*
X188925919Y-106138872D01*
X188920278Y-106278868D01*
X188915644Y-106393851D01*
X187985500Y-106393851D01*
X187985500Y-106101903D01*
X187986365Y-106097556D01*
X187986365Y-106080120D01*
X187983036Y-106072084D01*
X187977088Y-106069620D01*
X187977086Y-106069620D01*
X187975000Y-106068756D01*
X187974999Y-106068756D01*
X187957565Y-106068756D01*
X187953217Y-106069621D01*
X173996783Y-106069621D01*
X173992435Y-106068756D01*
X173975000Y-106068756D01*
X173972912Y-106069621D01*
X173972911Y-106069620D01*
X173966964Y-106072084D01*
X173966963Y-106072084D01*
X173963635Y-106080120D01*
X173963635Y-106097556D01*
X173964500Y-106101903D01*
X173964500Y-120058345D01*
X173963633Y-120062704D01*
X168936366Y-120062704D01*
X168935500Y-120058345D01*
X168935500Y-106101903D01*
X168936365Y-106097556D01*
X168936365Y-106080120D01*
X168933036Y-106072084D01*
X168927088Y-106069620D01*
X168927086Y-106069620D01*
X168925000Y-106068756D01*
X168924999Y-106068756D01*
X168907565Y-106068756D01*
X168903217Y-106069621D01*
X154946783Y-106069621D01*
X154942435Y-106068756D01*
X154925000Y-106068756D01*
X154922912Y-106069621D01*
X154922911Y-106069620D01*
X154916964Y-106072084D01*
X154916963Y-106072084D01*
X154913635Y-106080120D01*
X154913635Y-106097556D01*
X154914500Y-106101903D01*
X154914500Y-120058345D01*
X154913633Y-120062704D01*
X149886366Y-120062704D01*
X149885500Y-120058345D01*
X149885500Y-106101903D01*
X149886365Y-106097556D01*
X149886365Y-106080120D01*
X149883036Y-106072084D01*
X149877088Y-106069620D01*
X149877086Y-106069620D01*
X149875000Y-106068756D01*
X149874999Y-106068756D01*
X149857565Y-106068756D01*
X149853217Y-106069621D01*
X135896783Y-106069621D01*
X135892435Y-106068756D01*
X135875000Y-106068756D01*
X135872912Y-106069621D01*
X135872911Y-106069620D01*
X135866964Y-106072084D01*
X135866963Y-106072084D01*
X135863635Y-106080120D01*
X135863635Y-106097556D01*
X135864500Y-106101903D01*
X135864500Y-120058345D01*
X135863633Y-120062704D01*
X130836366Y-120062704D01*
X130835500Y-120058345D01*
X130835500Y-106101903D01*
X130836365Y-106097556D01*
X130836365Y-106080120D01*
X130833036Y-106072084D01*
X130827088Y-106069620D01*
X130827086Y-106069620D01*
X130825000Y-106068756D01*
X130824999Y-106068756D01*
X130807565Y-106068756D01*
X130803217Y-106069621D01*
X116846783Y-106069621D01*
X116842435Y-106068756D01*
X116825000Y-106068756D01*
X116822912Y-106069621D01*
X116822911Y-106069620D01*
X116816964Y-106072084D01*
X116816963Y-106072084D01*
X116813635Y-106080120D01*
X116813635Y-106097556D01*
X116814500Y-106101903D01*
X116814500Y-120058345D01*
X116813633Y-120062704D01*
X111786366Y-120062704D01*
X111785500Y-120058345D01*
X111785500Y-106533851D01*
X112725644Y-106533851D01*
X112756402Y-106787165D01*
X112756404Y-106787173D01*
X112827397Y-107032271D01*
X112936798Y-107262829D01*
X113081749Y-107472827D01*
X113081750Y-107472828D01*
X113081754Y-107472832D01*
X113258525Y-107656870D01*
X113462529Y-107810169D01*
X113688481Y-107928758D01*
X113688486Y-107928759D01*
X113688489Y-107928761D01*
X113768666Y-107955527D01*
X113930531Y-108009566D01*
X114182409Y-108050500D01*
X114373689Y-108050500D01*
X114373694Y-108050500D01*
X114564355Y-108035108D01*
X114812122Y-107974039D01*
X115046885Y-107874016D01*
X115262562Y-107737630D01*
X115453569Y-107568413D01*
X115614958Y-107370747D01*
X115742549Y-107149753D01*
X115833038Y-106911153D01*
X115884081Y-106661128D01*
X115894356Y-106406153D01*
X115863597Y-106152831D01*
X115792601Y-105907724D01*
X115683206Y-105677179D01*
X115683203Y-105677175D01*
X115683201Y-105677170D01*
X115538250Y-105467172D01*
X115538249Y-105467171D01*
X115446439Y-105371587D01*
X115361475Y-105283130D01*
X115157471Y-105129831D01*
X114931519Y-105011242D01*
X114931518Y-105011241D01*
X114931510Y-105011238D01*
X114689472Y-104930435D01*
X114689462Y-104930432D01*
X114437591Y-104889500D01*
X114246306Y-104889500D01*
X114191481Y-104893926D01*
X114055645Y-104904891D01*
X114055640Y-104904892D01*
X113807877Y-104965961D01*
X113573114Y-105065984D01*
X113357440Y-105202367D01*
X113166429Y-105371588D01*
X113166429Y-105371589D01*
X113005043Y-105569251D01*
X112877450Y-105790248D01*
X112786961Y-106028849D01*
X112735919Y-106278868D01*
X112735919Y-106278871D01*
X112733864Y-106329867D01*
X112726157Y-106521131D01*
X112725644Y-106533851D01*
X111785500Y-106533851D01*
X111785500Y-106101903D01*
X111786365Y-106097556D01*
X111786365Y-106080120D01*
X111783036Y-106072084D01*
X111777088Y-106069620D01*
X111777086Y-106069620D01*
X111775000Y-106068756D01*
X111774999Y-106068756D01*
X111757565Y-106068756D01*
X111753217Y-106069621D01*
X97796783Y-106069621D01*
X97792435Y-106068756D01*
X97775000Y-106068756D01*
X97772912Y-106069621D01*
X97772911Y-106069620D01*
X97766964Y-106072084D01*
X97766963Y-106072084D01*
X97763635Y-106080120D01*
X97763635Y-106097556D01*
X97764500Y-106101903D01*
X97764500Y-120058345D01*
X97763633Y-120062704D01*
X92736366Y-120062704D01*
X92735500Y-120058345D01*
X92735500Y-106101903D01*
X92736365Y-106097556D01*
X92736365Y-106080120D01*
X92733036Y-106072084D01*
X92727088Y-106069620D01*
X92727086Y-106069620D01*
X92725000Y-106068756D01*
X92724999Y-106068756D01*
X92707565Y-106068756D01*
X92703217Y-106069621D01*
X78746783Y-106069621D01*
X78742435Y-106068756D01*
X78725000Y-106068756D01*
X78722912Y-106069621D01*
X78722911Y-106069620D01*
X78716964Y-106072084D01*
X78716963Y-106072084D01*
X78713635Y-106080120D01*
X78713635Y-106097556D01*
X78714500Y-106101903D01*
X78714500Y-120058345D01*
X78713633Y-120062704D01*
X68923866Y-120062704D01*
X68923000Y-120058345D01*
X68923000Y-106286651D01*
X70450044Y-106286651D01*
X70480802Y-106539965D01*
X70480804Y-106539973D01*
X70551797Y-106785071D01*
X70551798Y-106785073D01*
X70551799Y-106785076D01*
X70658409Y-107009751D01*
X70661198Y-107015629D01*
X70806149Y-107225627D01*
X70806150Y-107225628D01*
X70806154Y-107225632D01*
X70982925Y-107409670D01*
X71186929Y-107562969D01*
X71412881Y-107681558D01*
X71412886Y-107681559D01*
X71412889Y-107681561D01*
X71493066Y-107708327D01*
X71654931Y-107762366D01*
X71906809Y-107803300D01*
X72098089Y-107803300D01*
X72098094Y-107803300D01*
X72288755Y-107787908D01*
X72536522Y-107726839D01*
X72771285Y-107626816D01*
X72986962Y-107490430D01*
X73177969Y-107321213D01*
X73339358Y-107123547D01*
X73466949Y-106902553D01*
X73557438Y-106663953D01*
X73608481Y-106413928D01*
X73618756Y-106158953D01*
X73587997Y-105905631D01*
X73517001Y-105660524D01*
X73407606Y-105429979D01*
X73407603Y-105429975D01*
X73407601Y-105429970D01*
X73262650Y-105219972D01*
X73262649Y-105219971D01*
X73170839Y-105124387D01*
X73085875Y-105035930D01*
X72881871Y-104882631D01*
X72860171Y-104871242D01*
X72655921Y-104764043D01*
X72655910Y-104764038D01*
X72413872Y-104683235D01*
X72413862Y-104683232D01*
X72161991Y-104642300D01*
X71970706Y-104642300D01*
X71915881Y-104646726D01*
X71780045Y-104657691D01*
X71780040Y-104657692D01*
X71532277Y-104718761D01*
X71297514Y-104818784D01*
X71081840Y-104955167D01*
X70890829Y-105124388D01*
X70890829Y-105124389D01*
X70729443Y-105322051D01*
X70601850Y-105543048D01*
X70511361Y-105781649D01*
X70460319Y-106031668D01*
X70460319Y-106031671D01*
X70460319Y-106031672D01*
X70450358Y-106278871D01*
X70450044Y-106286651D01*
X68923000Y-106286651D01*
X68923000Y-106101903D01*
X68923865Y-106097556D01*
X68923865Y-106080120D01*
X68920536Y-106072084D01*
X68914588Y-106069620D01*
X68914586Y-106069620D01*
X68912500Y-106068756D01*
X68912499Y-106068756D01*
X68895065Y-106068756D01*
X68890717Y-106069621D01*
X54934283Y-106069621D01*
X54929935Y-106068756D01*
X54912500Y-106068756D01*
X54910412Y-106069621D01*
X54910411Y-106069620D01*
X54904464Y-106072084D01*
X54904463Y-106072084D01*
X54901135Y-106080120D01*
X54901135Y-106097556D01*
X54902000Y-106101903D01*
X54902000Y-120058345D01*
X54901133Y-120062704D01*
X47010500Y-120062704D01*
X47010500Y-106286651D01*
X48415644Y-106286651D01*
X48446402Y-106539965D01*
X48446404Y-106539973D01*
X48517397Y-106785071D01*
X48517398Y-106785073D01*
X48517399Y-106785076D01*
X48624009Y-107009751D01*
X48626798Y-107015629D01*
X48771749Y-107225627D01*
X48771750Y-107225628D01*
X48771754Y-107225632D01*
X48948525Y-107409670D01*
X49152529Y-107562969D01*
X49378481Y-107681558D01*
X49378486Y-107681559D01*
X49378489Y-107681561D01*
X49458666Y-107708327D01*
X49620531Y-107762366D01*
X49872409Y-107803300D01*
X50063689Y-107803300D01*
X50063694Y-107803300D01*
X50254355Y-107787908D01*
X50502122Y-107726839D01*
X50736885Y-107626816D01*
X50952562Y-107490430D01*
X51143569Y-107321213D01*
X51304958Y-107123547D01*
X51432549Y-106902553D01*
X51523038Y-106663953D01*
X51574081Y-106413928D01*
X51584356Y-106158953D01*
X51553597Y-105905631D01*
X51482601Y-105660524D01*
X51373206Y-105429979D01*
X51373203Y-105429975D01*
X51373201Y-105429970D01*
X51228250Y-105219972D01*
X51228249Y-105219971D01*
X51136439Y-105124387D01*
X51051475Y-105035930D01*
X50847471Y-104882631D01*
X50825771Y-104871242D01*
X50621521Y-104764043D01*
X50621510Y-104764038D01*
X50379472Y-104683235D01*
X50379462Y-104683232D01*
X50127591Y-104642300D01*
X49936306Y-104642300D01*
X49881481Y-104646726D01*
X49745645Y-104657691D01*
X49745640Y-104657692D01*
X49497877Y-104718761D01*
X49263114Y-104818784D01*
X49047440Y-104955167D01*
X48856429Y-105124388D01*
X48856429Y-105124389D01*
X48695043Y-105322051D01*
X48567450Y-105543048D01*
X48476961Y-105781649D01*
X48425919Y-106031668D01*
X48425919Y-106031671D01*
X48425919Y-106031672D01*
X48415958Y-106278871D01*
X48415644Y-106286651D01*
X47010500Y-106286651D01*
X47010500Y-99502680D01*
X50138633Y-99502680D01*
X50138635Y-99520098D01*
X50139499Y-99522184D01*
X50141963Y-99528132D01*
X50141963Y-99528133D01*
X50149999Y-99531462D01*
X50150000Y-99531462D01*
X50167435Y-99531462D01*
X50171783Y-99530597D01*
X64128217Y-99530597D01*
X64132565Y-99531462D01*
X64150000Y-99531462D01*
X64150001Y-99531462D01*
X64158036Y-99528133D01*
X64158036Y-99528132D01*
X64160501Y-99522184D01*
X64160501Y-99522182D01*
X64161365Y-99520097D01*
X64161364Y-99520095D01*
X64161365Y-99520094D01*
X64161366Y-99502682D01*
X69188633Y-99502682D01*
X69188635Y-99520100D01*
X69189499Y-99522186D01*
X69191963Y-99528134D01*
X69191963Y-99528135D01*
X69199999Y-99531464D01*
X69200000Y-99531464D01*
X69217435Y-99531464D01*
X69221783Y-99530599D01*
X83178217Y-99530599D01*
X83182565Y-99531464D01*
X83200000Y-99531464D01*
X83200001Y-99531464D01*
X83208036Y-99528135D01*
X83208036Y-99528134D01*
X83208037Y-99528133D01*
X83209057Y-99525670D01*
X83210501Y-99522186D01*
X83210501Y-99522184D01*
X83211365Y-99520099D01*
X83211364Y-99520097D01*
X83211365Y-99520096D01*
X83211366Y-99502682D01*
X88238633Y-99502682D01*
X88238635Y-99520100D01*
X88239499Y-99522186D01*
X88241963Y-99528134D01*
X88241963Y-99528135D01*
X88249999Y-99531464D01*
X88250000Y-99531464D01*
X88267435Y-99531464D01*
X88271783Y-99530599D01*
X102228217Y-99530599D01*
X102232565Y-99531464D01*
X102250000Y-99531464D01*
X102250001Y-99531464D01*
X102258036Y-99528135D01*
X102258036Y-99528134D01*
X102258037Y-99528133D01*
X102259057Y-99525670D01*
X102260501Y-99522186D01*
X102260501Y-99522184D01*
X102261365Y-99520099D01*
X102261364Y-99520097D01*
X102261365Y-99520096D01*
X102261366Y-99502682D01*
X107288633Y-99502682D01*
X107288635Y-99520100D01*
X107289499Y-99522186D01*
X107291963Y-99528134D01*
X107291963Y-99528135D01*
X107299999Y-99531464D01*
X107300000Y-99531464D01*
X107317435Y-99531464D01*
X107321783Y-99530599D01*
X121278217Y-99530599D01*
X121282565Y-99531464D01*
X121300000Y-99531464D01*
X121300001Y-99531464D01*
X121308036Y-99528135D01*
X121308036Y-99528134D01*
X121308037Y-99528133D01*
X121309057Y-99525670D01*
X121310501Y-99522186D01*
X121310501Y-99522184D01*
X121311365Y-99520099D01*
X121311364Y-99520097D01*
X121311365Y-99520096D01*
X121311366Y-99502682D01*
X126338633Y-99502682D01*
X126338635Y-99520100D01*
X126339499Y-99522186D01*
X126341963Y-99528134D01*
X126341963Y-99528135D01*
X126349999Y-99531464D01*
X126350000Y-99531464D01*
X126367435Y-99531464D01*
X126371783Y-99530599D01*
X140328217Y-99530599D01*
X140332565Y-99531464D01*
X140350000Y-99531464D01*
X140350001Y-99531464D01*
X140358036Y-99528135D01*
X140358036Y-99528134D01*
X140358037Y-99528133D01*
X140359057Y-99525670D01*
X140360501Y-99522186D01*
X140360501Y-99522184D01*
X140361365Y-99520099D01*
X140361364Y-99520097D01*
X140361365Y-99520096D01*
X140361366Y-99502682D01*
X145388633Y-99502682D01*
X145388635Y-99520100D01*
X145389499Y-99522186D01*
X145391963Y-99528134D01*
X145391963Y-99528135D01*
X145399999Y-99531464D01*
X145400000Y-99531464D01*
X145417435Y-99531464D01*
X145421783Y-99530599D01*
X159378217Y-99530599D01*
X159382565Y-99531464D01*
X159400000Y-99531464D01*
X159400001Y-99531464D01*
X159408036Y-99528135D01*
X159408036Y-99528134D01*
X159408037Y-99528133D01*
X159409057Y-99525670D01*
X159410501Y-99522186D01*
X159410501Y-99522184D01*
X159411365Y-99520099D01*
X159411364Y-99520097D01*
X159411365Y-99520096D01*
X159411366Y-99502682D01*
X164438633Y-99502682D01*
X164438635Y-99520100D01*
X164439499Y-99522186D01*
X164441963Y-99528134D01*
X164441963Y-99528135D01*
X164449999Y-99531464D01*
X164450000Y-99531464D01*
X164467435Y-99531464D01*
X164471783Y-99530599D01*
X178428217Y-99530599D01*
X178432565Y-99531464D01*
X178450000Y-99531464D01*
X178450001Y-99531464D01*
X178458036Y-99528135D01*
X178458036Y-99528134D01*
X178458037Y-99528133D01*
X178459057Y-99525670D01*
X178460501Y-99522186D01*
X178460501Y-99522184D01*
X178461365Y-99520099D01*
X178461364Y-99520097D01*
X178461365Y-99520096D01*
X178461366Y-99502682D01*
X183488633Y-99502682D01*
X183488635Y-99520100D01*
X183489499Y-99522186D01*
X183491963Y-99528134D01*
X183491963Y-99528135D01*
X183499999Y-99531464D01*
X183500000Y-99531464D01*
X183517435Y-99531464D01*
X183521783Y-99530599D01*
X197478217Y-99530599D01*
X197482565Y-99531464D01*
X197500000Y-99531464D01*
X197500001Y-99531464D01*
X197508036Y-99528135D01*
X197508036Y-99528134D01*
X197508037Y-99528133D01*
X197509057Y-99525670D01*
X197510501Y-99522186D01*
X197510501Y-99522184D01*
X197511365Y-99520099D01*
X197511364Y-99520097D01*
X197511365Y-99520096D01*
X197511366Y-99502682D01*
X202538633Y-99502682D01*
X202538635Y-99520100D01*
X202539499Y-99522186D01*
X202541963Y-99528134D01*
X202541963Y-99528135D01*
X202549999Y-99531464D01*
X202550000Y-99531464D01*
X202567435Y-99531464D01*
X202571783Y-99530599D01*
X216528217Y-99530599D01*
X216532565Y-99531464D01*
X216550000Y-99531464D01*
X216550001Y-99531464D01*
X216558036Y-99528135D01*
X216558036Y-99528134D01*
X216558037Y-99528133D01*
X216559057Y-99525670D01*
X216560501Y-99522186D01*
X216560501Y-99522184D01*
X216561365Y-99520099D01*
X216561364Y-99520097D01*
X216561365Y-99520096D01*
X216561366Y-99502682D01*
X221588633Y-99502682D01*
X221588635Y-99520100D01*
X221589499Y-99522186D01*
X221591963Y-99528134D01*
X221591963Y-99528135D01*
X221599999Y-99531464D01*
X221600000Y-99531464D01*
X221617435Y-99531464D01*
X221621783Y-99530599D01*
X235578217Y-99530599D01*
X235582565Y-99531464D01*
X235600000Y-99531464D01*
X235600001Y-99531464D01*
X235608036Y-99528135D01*
X235608036Y-99528134D01*
X235608037Y-99528133D01*
X235609057Y-99525670D01*
X235610501Y-99522186D01*
X235610501Y-99522184D01*
X235611365Y-99520099D01*
X235611364Y-99520097D01*
X235611365Y-99520096D01*
X235611366Y-99502682D01*
X240638633Y-99502682D01*
X240638635Y-99520100D01*
X240639499Y-99522186D01*
X240641963Y-99528134D01*
X240641963Y-99528135D01*
X240649999Y-99531464D01*
X240650000Y-99531464D01*
X240667435Y-99531464D01*
X240671783Y-99530599D01*
X254628217Y-99530599D01*
X254632565Y-99531464D01*
X254650000Y-99531464D01*
X254650001Y-99531464D01*
X254658036Y-99528135D01*
X254658036Y-99528134D01*
X254658037Y-99528133D01*
X254659057Y-99525670D01*
X254660501Y-99522186D01*
X254660501Y-99522184D01*
X254661365Y-99520099D01*
X254661364Y-99520097D01*
X254661365Y-99520096D01*
X254661366Y-99502682D01*
X259688633Y-99502682D01*
X259688635Y-99520100D01*
X259689499Y-99522186D01*
X259691963Y-99528134D01*
X259691963Y-99528135D01*
X259699999Y-99531464D01*
X259700000Y-99531464D01*
X259717435Y-99531464D01*
X259721783Y-99530599D01*
X273678217Y-99530599D01*
X273682565Y-99531464D01*
X273700000Y-99531464D01*
X273700001Y-99531464D01*
X273708036Y-99528135D01*
X273708036Y-99528134D01*
X273708037Y-99528133D01*
X273709057Y-99525670D01*
X273710501Y-99522186D01*
X273710501Y-99522184D01*
X273711365Y-99520099D01*
X273711364Y-99520097D01*
X273711365Y-99520096D01*
X273711366Y-99502682D01*
X278738633Y-99502682D01*
X278738635Y-99520100D01*
X278739499Y-99522186D01*
X278741963Y-99528134D01*
X278741963Y-99528135D01*
X278749999Y-99531464D01*
X278750000Y-99531464D01*
X278767435Y-99531464D01*
X278771783Y-99530599D01*
X292728217Y-99530599D01*
X292732565Y-99531464D01*
X292750000Y-99531464D01*
X292750001Y-99531464D01*
X292758036Y-99528135D01*
X292758036Y-99528134D01*
X292758037Y-99528133D01*
X292759057Y-99525670D01*
X292760501Y-99522186D01*
X292760501Y-99522184D01*
X292761365Y-99520099D01*
X292761364Y-99520097D01*
X292761365Y-99520096D01*
X292761366Y-99502682D01*
X297788633Y-99502682D01*
X297788635Y-99520100D01*
X297789499Y-99522186D01*
X297791963Y-99528134D01*
X297791963Y-99528135D01*
X297799999Y-99531464D01*
X297800000Y-99531464D01*
X297817435Y-99531464D01*
X297821783Y-99530599D01*
X311778217Y-99530599D01*
X311782565Y-99531464D01*
X311800000Y-99531464D01*
X311800001Y-99531464D01*
X311808036Y-99528135D01*
X311808036Y-99528134D01*
X311808037Y-99528133D01*
X311809057Y-99525670D01*
X311810501Y-99522186D01*
X311810501Y-99522184D01*
X311811365Y-99520099D01*
X311811364Y-99520097D01*
X311811365Y-99520096D01*
X311811366Y-99502691D01*
X316838633Y-99502691D01*
X316838635Y-99520109D01*
X316839499Y-99522195D01*
X316841963Y-99528143D01*
X316841963Y-99528144D01*
X316849999Y-99531473D01*
X316850000Y-99531473D01*
X316867435Y-99531473D01*
X316871783Y-99530608D01*
X330828217Y-99530608D01*
X330832565Y-99531473D01*
X330850000Y-99531473D01*
X330850001Y-99531473D01*
X330858036Y-99528144D01*
X330858036Y-99528143D01*
X330858040Y-99528135D01*
X330859057Y-99525679D01*
X330860501Y-99522195D01*
X330860501Y-99522193D01*
X330861365Y-99520108D01*
X330861364Y-99520106D01*
X330861365Y-99520105D01*
X330861366Y-99502691D01*
X330860500Y-99498332D01*
X330860500Y-85541890D01*
X330861365Y-85537543D01*
X330861365Y-85520107D01*
X330858036Y-85512071D01*
X330852088Y-85509607D01*
X330852086Y-85509607D01*
X330850000Y-85508743D01*
X330849999Y-85508743D01*
X330832565Y-85508743D01*
X330828217Y-85509608D01*
X316871783Y-85509608D01*
X316867435Y-85508743D01*
X316850000Y-85508743D01*
X316847912Y-85509608D01*
X316847911Y-85509607D01*
X316841964Y-85512071D01*
X316841963Y-85512071D01*
X316838635Y-85520107D01*
X316838635Y-85537543D01*
X316839500Y-85541890D01*
X316839500Y-99498332D01*
X316838633Y-99502691D01*
X311811366Y-99502691D01*
X311811366Y-99502682D01*
X311810500Y-99498323D01*
X311810500Y-85712651D01*
X312766044Y-85712651D01*
X312796802Y-85965965D01*
X312796804Y-85965973D01*
X312867797Y-86211071D01*
X312867798Y-86211073D01*
X312867799Y-86211076D01*
X312877859Y-86232276D01*
X312977198Y-86441629D01*
X313122149Y-86651627D01*
X313122150Y-86651628D01*
X313122154Y-86651632D01*
X313298925Y-86835670D01*
X313502929Y-86988969D01*
X313728881Y-87107558D01*
X313728886Y-87107559D01*
X313728889Y-87107561D01*
X313762423Y-87118756D01*
X313970931Y-87188366D01*
X313970936Y-87188366D01*
X313970937Y-87188367D01*
X314128092Y-87213907D01*
X314222809Y-87229300D01*
X314414089Y-87229300D01*
X314414094Y-87229300D01*
X314604755Y-87213908D01*
X314852522Y-87152839D01*
X315087285Y-87052816D01*
X315302962Y-86916430D01*
X315493969Y-86747213D01*
X315655358Y-86549547D01*
X315782949Y-86328553D01*
X315873438Y-86089953D01*
X315924481Y-85839928D01*
X315934756Y-85584953D01*
X315903997Y-85331631D01*
X315833001Y-85086524D01*
X315723606Y-84855979D01*
X315723603Y-84855975D01*
X315723601Y-84855970D01*
X315578650Y-84645972D01*
X315578649Y-84645971D01*
X315507202Y-84571587D01*
X315401875Y-84461930D01*
X315197871Y-84308631D01*
X314971919Y-84190042D01*
X314971918Y-84190041D01*
X314971910Y-84190038D01*
X314729872Y-84109235D01*
X314729862Y-84109232D01*
X314477991Y-84068300D01*
X314286706Y-84068300D01*
X314231881Y-84072726D01*
X314096045Y-84083691D01*
X314096040Y-84083692D01*
X313848277Y-84144761D01*
X313613514Y-84244784D01*
X313397840Y-84381167D01*
X313206829Y-84550388D01*
X313206829Y-84550389D01*
X313045443Y-84748051D01*
X312917850Y-84969048D01*
X312827361Y-85207649D01*
X312776319Y-85457668D01*
X312776319Y-85457671D01*
X312776319Y-85457672D01*
X312770739Y-85596153D01*
X312766044Y-85712651D01*
X311810500Y-85712651D01*
X311810500Y-85541881D01*
X311811365Y-85537534D01*
X311811365Y-85520098D01*
X311808036Y-85512062D01*
X311802088Y-85509598D01*
X311802086Y-85509598D01*
X311800000Y-85508734D01*
X311799999Y-85508734D01*
X311782565Y-85508734D01*
X311778217Y-85509599D01*
X297821783Y-85509599D01*
X297817435Y-85508734D01*
X297800000Y-85508734D01*
X297797912Y-85509599D01*
X297797911Y-85509598D01*
X297791964Y-85512062D01*
X297791963Y-85512062D01*
X297788635Y-85520098D01*
X297788635Y-85537534D01*
X297789500Y-85541881D01*
X297789500Y-99498323D01*
X297788633Y-99502682D01*
X292761366Y-99502682D01*
X292760500Y-99498323D01*
X292760500Y-85541881D01*
X292761365Y-85537534D01*
X292761365Y-85520098D01*
X292758036Y-85512062D01*
X292752088Y-85509598D01*
X292752086Y-85509598D01*
X292750000Y-85508734D01*
X292749999Y-85508734D01*
X292732565Y-85508734D01*
X292728217Y-85509599D01*
X278771783Y-85509599D01*
X278767435Y-85508734D01*
X278750000Y-85508734D01*
X278747912Y-85509599D01*
X278747911Y-85509598D01*
X278741964Y-85512062D01*
X278741963Y-85512062D01*
X278738635Y-85520098D01*
X278738635Y-85537534D01*
X278739500Y-85541881D01*
X278739500Y-99498323D01*
X278738633Y-99502682D01*
X273711366Y-99502682D01*
X273710500Y-99498323D01*
X273710500Y-85541881D01*
X273711365Y-85537534D01*
X273711365Y-85520098D01*
X273708036Y-85512062D01*
X273702088Y-85509598D01*
X273702086Y-85509598D01*
X273700000Y-85508734D01*
X273699999Y-85508734D01*
X273682565Y-85508734D01*
X273678217Y-85509599D01*
X259721783Y-85509599D01*
X259717435Y-85508734D01*
X259700000Y-85508734D01*
X259697912Y-85509599D01*
X259697911Y-85509598D01*
X259691964Y-85512062D01*
X259691963Y-85512062D01*
X259688635Y-85520098D01*
X259688635Y-85537534D01*
X259689500Y-85541881D01*
X259689500Y-99498323D01*
X259688633Y-99502682D01*
X254661366Y-99502682D01*
X254660500Y-99498323D01*
X254660500Y-85541881D01*
X254661365Y-85537534D01*
X254661365Y-85520098D01*
X254658036Y-85512062D01*
X254652088Y-85509598D01*
X254652086Y-85509598D01*
X254650000Y-85508734D01*
X254649999Y-85508734D01*
X254632565Y-85508734D01*
X254628217Y-85509599D01*
X240671783Y-85509599D01*
X240667435Y-85508734D01*
X240650000Y-85508734D01*
X240647912Y-85509599D01*
X240647911Y-85509598D01*
X240641964Y-85512062D01*
X240641963Y-85512062D01*
X240638635Y-85520098D01*
X240638635Y-85537534D01*
X240639500Y-85541881D01*
X240639500Y-99498323D01*
X240638633Y-99502682D01*
X235611366Y-99502682D01*
X235610500Y-99498323D01*
X235610500Y-85723851D01*
X236545644Y-85723851D01*
X236576402Y-85977165D01*
X236576404Y-85977173D01*
X236647397Y-86222271D01*
X236647398Y-86222273D01*
X236647399Y-86222276D01*
X236756794Y-86452821D01*
X236756798Y-86452829D01*
X236901749Y-86662827D01*
X236901750Y-86662828D01*
X236901754Y-86662832D01*
X237078525Y-86846870D01*
X237282529Y-87000169D01*
X237508481Y-87118758D01*
X237508486Y-87118759D01*
X237508489Y-87118761D01*
X237588666Y-87145527D01*
X237750531Y-87199566D01*
X238002409Y-87240500D01*
X238193689Y-87240500D01*
X238193694Y-87240500D01*
X238384355Y-87225108D01*
X238632122Y-87164039D01*
X238866885Y-87064016D01*
X239082562Y-86927630D01*
X239273569Y-86758413D01*
X239434958Y-86560747D01*
X239562549Y-86339753D01*
X239653038Y-86101153D01*
X239704081Y-85851128D01*
X239714356Y-85596153D01*
X239683597Y-85342831D01*
X239612601Y-85097724D01*
X239503206Y-84867179D01*
X239503203Y-84867175D01*
X239503201Y-84867170D01*
X239358250Y-84657172D01*
X239358249Y-84657171D01*
X239255681Y-84550387D01*
X239181475Y-84473130D01*
X238977471Y-84319831D01*
X238751519Y-84201242D01*
X238751518Y-84201241D01*
X238751510Y-84201238D01*
X238509472Y-84120435D01*
X238509462Y-84120432D01*
X238257591Y-84079500D01*
X238066306Y-84079500D01*
X238014392Y-84083691D01*
X237875645Y-84094891D01*
X237875640Y-84094892D01*
X237627877Y-84155961D01*
X237393114Y-84255984D01*
X237177440Y-84392367D01*
X236986429Y-84561588D01*
X236986429Y-84561589D01*
X236825043Y-84759251D01*
X236697450Y-84980248D01*
X236606961Y-85218849D01*
X236555919Y-85468868D01*
X236555919Y-85468871D01*
X236555919Y-85468872D01*
X236551345Y-85582389D01*
X236545644Y-85723851D01*
X235610500Y-85723851D01*
X235610500Y-85541881D01*
X235611365Y-85537534D01*
X235611365Y-85520098D01*
X235608036Y-85512062D01*
X235602088Y-85509598D01*
X235602086Y-85509598D01*
X235600000Y-85508734D01*
X235599999Y-85508734D01*
X235582565Y-85508734D01*
X235578217Y-85509599D01*
X221621783Y-85509599D01*
X221617435Y-85508734D01*
X221600000Y-85508734D01*
X221597912Y-85509599D01*
X221597911Y-85509598D01*
X221591964Y-85512062D01*
X221591963Y-85512062D01*
X221588635Y-85520098D01*
X221588635Y-85537534D01*
X221589500Y-85541881D01*
X221589500Y-99498323D01*
X221588633Y-99502682D01*
X216561366Y-99502682D01*
X216560500Y-99498323D01*
X216560500Y-85541881D01*
X216561365Y-85537534D01*
X216561365Y-85520098D01*
X216558036Y-85512062D01*
X216552088Y-85509598D01*
X216552086Y-85509598D01*
X216550000Y-85508734D01*
X216549999Y-85508734D01*
X216532565Y-85508734D01*
X216528217Y-85509599D01*
X202571783Y-85509599D01*
X202567435Y-85508734D01*
X202550000Y-85508734D01*
X202547912Y-85509599D01*
X202547911Y-85509598D01*
X202541964Y-85512062D01*
X202541963Y-85512062D01*
X202538635Y-85520098D01*
X202538635Y-85537534D01*
X202539500Y-85541881D01*
X202539500Y-99498323D01*
X202538633Y-99502682D01*
X197511366Y-99502682D01*
X197510500Y-99498323D01*
X197510500Y-85541881D01*
X197511365Y-85537534D01*
X197511365Y-85520098D01*
X197508036Y-85512062D01*
X197502088Y-85509598D01*
X197502086Y-85509598D01*
X197500000Y-85508734D01*
X197499999Y-85508734D01*
X197482565Y-85508734D01*
X197478217Y-85509599D01*
X183521783Y-85509599D01*
X183517435Y-85508734D01*
X183500000Y-85508734D01*
X183497912Y-85509599D01*
X183497911Y-85509598D01*
X183491964Y-85512062D01*
X183491963Y-85512062D01*
X183488635Y-85520098D01*
X183488635Y-85537534D01*
X183489500Y-85541881D01*
X183489500Y-99498323D01*
X183488633Y-99502682D01*
X178461366Y-99502682D01*
X178460500Y-99498323D01*
X178460500Y-85541881D01*
X178461365Y-85537534D01*
X178461365Y-85520098D01*
X178458036Y-85512062D01*
X178452088Y-85509598D01*
X178452086Y-85509598D01*
X178450000Y-85508734D01*
X178449999Y-85508734D01*
X178432565Y-85508734D01*
X178428217Y-85509599D01*
X164471783Y-85509599D01*
X164467435Y-85508734D01*
X164450000Y-85508734D01*
X164447912Y-85509599D01*
X164447911Y-85509598D01*
X164441964Y-85512062D01*
X164441963Y-85512062D01*
X164438635Y-85520098D01*
X164438635Y-85537534D01*
X164439500Y-85541881D01*
X164439500Y-99498323D01*
X164438633Y-99502682D01*
X159411366Y-99502682D01*
X159410500Y-99498323D01*
X159410500Y-85733851D01*
X160335644Y-85733851D01*
X160366402Y-85987165D01*
X160366404Y-85987173D01*
X160437397Y-86232271D01*
X160437398Y-86232273D01*
X160437399Y-86232276D01*
X160536738Y-86441629D01*
X160546798Y-86462829D01*
X160691749Y-86672827D01*
X160691750Y-86672828D01*
X160691754Y-86672832D01*
X160868525Y-86856870D01*
X161072529Y-87010169D01*
X161298481Y-87128758D01*
X161298486Y-87128759D01*
X161298489Y-87128761D01*
X161378666Y-87155527D01*
X161540531Y-87209566D01*
X161540536Y-87209566D01*
X161540537Y-87209567D01*
X161636159Y-87225107D01*
X161792409Y-87250500D01*
X161983689Y-87250500D01*
X161983694Y-87250500D01*
X162174355Y-87235108D01*
X162422122Y-87174039D01*
X162656885Y-87074016D01*
X162872562Y-86937630D01*
X163063569Y-86768413D01*
X163224958Y-86570747D01*
X163352549Y-86349753D01*
X163443038Y-86111153D01*
X163494081Y-85861128D01*
X163504356Y-85606153D01*
X163473597Y-85352831D01*
X163402601Y-85107724D01*
X163293206Y-84877179D01*
X163293203Y-84877175D01*
X163293201Y-84877170D01*
X163148250Y-84667172D01*
X163148249Y-84667171D01*
X163056439Y-84571587D01*
X162971475Y-84483130D01*
X162767471Y-84329831D01*
X162541519Y-84211242D01*
X162541518Y-84211241D01*
X162541510Y-84211238D01*
X162299472Y-84130435D01*
X162299462Y-84130432D01*
X162047591Y-84089500D01*
X161856306Y-84089500D01*
X161801481Y-84093926D01*
X161665645Y-84104891D01*
X161665640Y-84104892D01*
X161417877Y-84165961D01*
X161183114Y-84265984D01*
X160967440Y-84402367D01*
X160776429Y-84571588D01*
X160776429Y-84571589D01*
X160615043Y-84769251D01*
X160487450Y-84990248D01*
X160396961Y-85228849D01*
X160345919Y-85478868D01*
X160345919Y-85478871D01*
X160344581Y-85512063D01*
X160341748Y-85582389D01*
X160335644Y-85733851D01*
X159410500Y-85733851D01*
X159410500Y-85541881D01*
X159411365Y-85537534D01*
X159411365Y-85520098D01*
X159408036Y-85512062D01*
X159402088Y-85509598D01*
X159402086Y-85509598D01*
X159400000Y-85508734D01*
X159399999Y-85508734D01*
X159382565Y-85508734D01*
X159378217Y-85509599D01*
X145421783Y-85509599D01*
X145417435Y-85508734D01*
X145400000Y-85508734D01*
X145397912Y-85509599D01*
X145397911Y-85509598D01*
X145391964Y-85512062D01*
X145391963Y-85512062D01*
X145388635Y-85520098D01*
X145388635Y-85537534D01*
X145389500Y-85541881D01*
X145389500Y-99498323D01*
X145388633Y-99502682D01*
X140361366Y-99502682D01*
X140360500Y-99498323D01*
X140360500Y-85541881D01*
X140361365Y-85537534D01*
X140361365Y-85520098D01*
X140358036Y-85512062D01*
X140352088Y-85509598D01*
X140352086Y-85509598D01*
X140350000Y-85508734D01*
X140349999Y-85508734D01*
X140332565Y-85508734D01*
X140328217Y-85509599D01*
X126371783Y-85509599D01*
X126367435Y-85508734D01*
X126350000Y-85508734D01*
X126347912Y-85509599D01*
X126347911Y-85509598D01*
X126341964Y-85512062D01*
X126341963Y-85512062D01*
X126338635Y-85520098D01*
X126338635Y-85537534D01*
X126339500Y-85541881D01*
X126339500Y-99498323D01*
X126338633Y-99502682D01*
X121311366Y-99502682D01*
X121310500Y-99498323D01*
X121310500Y-85541881D01*
X121311365Y-85537534D01*
X121311365Y-85520098D01*
X121308036Y-85512062D01*
X121302088Y-85509598D01*
X121302086Y-85509598D01*
X121300000Y-85508734D01*
X121299999Y-85508734D01*
X121282565Y-85508734D01*
X121278217Y-85509599D01*
X107321783Y-85509599D01*
X107317435Y-85508734D01*
X107300000Y-85508734D01*
X107297912Y-85509599D01*
X107297911Y-85509598D01*
X107291964Y-85512062D01*
X107291963Y-85512062D01*
X107288635Y-85520098D01*
X107288635Y-85537534D01*
X107289500Y-85541881D01*
X107289500Y-99498323D01*
X107288633Y-99502682D01*
X102261366Y-99502682D01*
X102260500Y-99498323D01*
X102260500Y-85541881D01*
X102261365Y-85537534D01*
X102261365Y-85520098D01*
X102258036Y-85512062D01*
X102252088Y-85509598D01*
X102252086Y-85509598D01*
X102250000Y-85508734D01*
X102249999Y-85508734D01*
X102232565Y-85508734D01*
X102228217Y-85509599D01*
X88271783Y-85509599D01*
X88267435Y-85508734D01*
X88250000Y-85508734D01*
X88247912Y-85509599D01*
X88247911Y-85509598D01*
X88241964Y-85512062D01*
X88241963Y-85512062D01*
X88238635Y-85520098D01*
X88238635Y-85537534D01*
X88239500Y-85541881D01*
X88239500Y-99498323D01*
X88238633Y-99502682D01*
X83211366Y-99502682D01*
X83210500Y-99498323D01*
X83210500Y-85712651D01*
X84166044Y-85712651D01*
X84196802Y-85965965D01*
X84196804Y-85965973D01*
X84267797Y-86211071D01*
X84267798Y-86211073D01*
X84267799Y-86211076D01*
X84277859Y-86232276D01*
X84377198Y-86441629D01*
X84522149Y-86651627D01*
X84522150Y-86651628D01*
X84522154Y-86651632D01*
X84698925Y-86835670D01*
X84902929Y-86988969D01*
X85128881Y-87107558D01*
X85128886Y-87107559D01*
X85128889Y-87107561D01*
X85162423Y-87118756D01*
X85370931Y-87188366D01*
X85370936Y-87188366D01*
X85370937Y-87188367D01*
X85528092Y-87213907D01*
X85622809Y-87229300D01*
X85814089Y-87229300D01*
X85814094Y-87229300D01*
X86004755Y-87213908D01*
X86252522Y-87152839D01*
X86487285Y-87052816D01*
X86702962Y-86916430D01*
X86893969Y-86747213D01*
X87055358Y-86549547D01*
X87182949Y-86328553D01*
X87273438Y-86089953D01*
X87324481Y-85839928D01*
X87334756Y-85584953D01*
X87303997Y-85331631D01*
X87233001Y-85086524D01*
X87123606Y-84855979D01*
X87123603Y-84855975D01*
X87123601Y-84855970D01*
X86978650Y-84645972D01*
X86978649Y-84645971D01*
X86907202Y-84571587D01*
X86801875Y-84461930D01*
X86597871Y-84308631D01*
X86371919Y-84190042D01*
X86371918Y-84190041D01*
X86371910Y-84190038D01*
X86129872Y-84109235D01*
X86129862Y-84109232D01*
X85877991Y-84068300D01*
X85686706Y-84068300D01*
X85631881Y-84072726D01*
X85496045Y-84083691D01*
X85496040Y-84083692D01*
X85248277Y-84144761D01*
X85013514Y-84244784D01*
X84797840Y-84381167D01*
X84606829Y-84550388D01*
X84606829Y-84550389D01*
X84445443Y-84748051D01*
X84317850Y-84969048D01*
X84227361Y-85207649D01*
X84176319Y-85457668D01*
X84176319Y-85457671D01*
X84176319Y-85457672D01*
X84170739Y-85596153D01*
X84166044Y-85712651D01*
X83210500Y-85712651D01*
X83210500Y-85541881D01*
X83211365Y-85537534D01*
X83211365Y-85520098D01*
X83208036Y-85512062D01*
X83202088Y-85509598D01*
X83202086Y-85509598D01*
X83200000Y-85508734D01*
X83199999Y-85508734D01*
X83182565Y-85508734D01*
X83178217Y-85509599D01*
X69221783Y-85509599D01*
X69217435Y-85508734D01*
X69200000Y-85508734D01*
X69197912Y-85509599D01*
X69197911Y-85509598D01*
X69191964Y-85512062D01*
X69191963Y-85512062D01*
X69188635Y-85520098D01*
X69188635Y-85537534D01*
X69189500Y-85541881D01*
X69189500Y-99498323D01*
X69188633Y-99502682D01*
X64161366Y-99502682D01*
X64161366Y-99502680D01*
X64160500Y-99498321D01*
X64160500Y-85541879D01*
X64161365Y-85537532D01*
X64161365Y-85520096D01*
X64158036Y-85512060D01*
X64152088Y-85509596D01*
X64152086Y-85509596D01*
X64150000Y-85508732D01*
X64149999Y-85508732D01*
X64132565Y-85508732D01*
X64128217Y-85509597D01*
X50171783Y-85509597D01*
X50167435Y-85508732D01*
X50150000Y-85508732D01*
X50147912Y-85509597D01*
X50147911Y-85509596D01*
X50141964Y-85512060D01*
X50141963Y-85512060D01*
X50138635Y-85520096D01*
X50138635Y-85537532D01*
X50139500Y-85541879D01*
X50139500Y-99498321D01*
X50138633Y-99502680D01*
X47010500Y-99502680D01*
X47010500Y-85902585D01*
X47010636Y-85897404D01*
X47013648Y-85839928D01*
X47026605Y-85592688D01*
X47027688Y-85582389D01*
X47027797Y-85581702D01*
X47075018Y-85283561D01*
X47077165Y-85273456D01*
X47155478Y-84981189D01*
X47158669Y-84971367D01*
X47267105Y-84688881D01*
X47271300Y-84679460D01*
X47408672Y-84409850D01*
X47413836Y-84400907D01*
X47578626Y-84147154D01*
X47584696Y-84138799D01*
X47775107Y-83903661D01*
X47782022Y-83895980D01*
X47995980Y-83682022D01*
X48003661Y-83675107D01*
X48238799Y-83484696D01*
X48247154Y-83478626D01*
X48500907Y-83313836D01*
X48509850Y-83308672D01*
X48779460Y-83171300D01*
X48788881Y-83167105D01*
X49071367Y-83058669D01*
X49081189Y-83055478D01*
X49373456Y-82977165D01*
X49383561Y-82975018D01*
X49682396Y-82927687D01*
X49692688Y-82926605D01*
X49997405Y-82910636D01*
X50002586Y-82910500D01*
X50003412Y-82910500D01*
X330997327Y-82910500D01*
X330998153Y-82910500D01*
X331003333Y-82910635D01*
G37*
G04 #@! TD.AperFunction*
M02*
