%TF.GenerationSoftware,KiCad,Pcbnew,7.0.11+dfsg-1build4*%
%TF.CreationDate,2026-06-02T17:33:45-04:00*%
%TF.ProjectId,mission-control-plate-macros,6d697373-696f-46e2-9d63-6f6e74726f6c,rev?*%
%TF.SameCoordinates,Original*%
%TF.FileFunction,Drillmap*%
%TF.FilePolarity,Positive*%
%FSLAX45Y45*%
G04 Gerber Fmt 4.5, Leading zero omitted, Abs format (unit mm)*
G04 Created by KiCad (PCBNEW 7.0.11+dfsg-1build4) date 2026-06-02 17:33:45*
%MOMM*%
%LPD*%
G01*
G04 APERTURE LIST*
%ADD10C,0.150000*%
%ADD11C,0.120000*%
%ADD12C,0.200000*%
%ADD13C,0.270000*%
G04 APERTURE END LIST*
D10*
X3675000Y-18440000D02*
G75*
G03*
X3975000Y-18140000I0J300000D01*
G01*
X3975000Y-8590000D02*
G75*
G03*
X3675000Y-8290000I-300000J0D01*
G01*
X-25000Y-18140000D02*
X-25000Y-8590000D01*
X3675000Y-18440000D02*
X275000Y-18440000D01*
X3975000Y-8590000D02*
X3975000Y-18140000D01*
X275000Y-8290000D02*
X3675000Y-8290000D01*
X275000Y-8290000D02*
G75*
G03*
X-25000Y-8590000I0J-300000D01*
G01*
X-25000Y-18140000D02*
G75*
G03*
X275000Y-18440000I300000J0D01*
G01*
D11*
X2221700Y-8552010D02*
X3621700Y-8552010D01*
X2221700Y-9952010D02*
X2221700Y-8552010D01*
X3621700Y-8552010D02*
X3621700Y-9952010D01*
X3621700Y-9952010D02*
X2221700Y-9952010D01*
X2221700Y-16776019D02*
X3621700Y-16776019D01*
X2221700Y-18176019D02*
X2221700Y-16776019D01*
X3621700Y-16776019D02*
X3621700Y-18176019D01*
X3621700Y-18176019D02*
X2221700Y-18176019D01*
X316700Y-12664014D02*
X1716700Y-12664014D01*
X316700Y-14064014D02*
X316700Y-12664014D01*
X1716700Y-12664014D02*
X1716700Y-14064014D01*
X1716700Y-14064014D02*
X316700Y-14064014D01*
X316700Y-10608012D02*
X1716700Y-10608012D01*
X316700Y-12008012D02*
X316700Y-10608012D01*
X1716700Y-10608012D02*
X1716700Y-12008012D01*
X1716700Y-12008012D02*
X316700Y-12008012D01*
X316700Y-14720016D02*
X1716700Y-14720016D01*
X316700Y-16120016D02*
X316700Y-14720016D01*
X1716700Y-14720016D02*
X1716700Y-16120016D01*
X1716700Y-16120016D02*
X316700Y-16120016D01*
X2221700Y-10608011D02*
X3621700Y-10608011D01*
X2221700Y-12008011D02*
X2221700Y-10608011D01*
X3621700Y-10608011D02*
X3621700Y-12008011D01*
X3621700Y-12008011D02*
X2221700Y-12008011D01*
X2221700Y-12664014D02*
X3621700Y-12664014D01*
X2221700Y-14064014D02*
X2221700Y-12664014D01*
X3621700Y-12664014D02*
X3621700Y-14064014D01*
X3621700Y-14064014D02*
X2221700Y-14064014D01*
X316700Y-8552010D02*
X1716700Y-8552010D01*
X316700Y-9952010D02*
X316700Y-8552010D01*
X1716700Y-8552010D02*
X1716700Y-9952010D01*
X1716700Y-9952010D02*
X316700Y-9952010D01*
X316700Y-16776019D02*
X1716700Y-16776019D01*
X316700Y-18176019D02*
X316700Y-16776019D01*
X1716700Y-16776019D02*
X1716700Y-18176019D01*
X1716700Y-18176019D02*
X316700Y-18176019D01*
X2221700Y-14720016D02*
X3621700Y-14720016D01*
X2221700Y-16120016D02*
X2221700Y-14720016D01*
X3621700Y-14720016D02*
X3621700Y-16120016D01*
X3621700Y-16120016D02*
X2221700Y-16120016D01*
D12*
D13*
X1835000Y-16674720D02*
X2105000Y-16944720D01*
X2105000Y-16674720D02*
X1835000Y-16944720D01*
X1836040Y-8424800D02*
X2106040Y-8694800D01*
X2106040Y-8424800D02*
X1836040Y-8694800D01*
X1836040Y-10487280D02*
X2106040Y-10757280D01*
X2106040Y-10487280D02*
X1836040Y-10757280D01*
X1836040Y-12575160D02*
X2106040Y-12845160D01*
X2106040Y-12575160D02*
X1836040Y-12845160D01*
X1836040Y-14623000D02*
X2106040Y-14893000D01*
X2106040Y-14623000D02*
X1836040Y-14893000D01*
X1836040Y-18015000D02*
X2106040Y-18285000D01*
X2106040Y-18015000D02*
X1836040Y-18285000D01*
D12*
X228277Y-18758984D02*
X228277Y-18558984D01*
X228277Y-18558984D02*
X275896Y-18558984D01*
X275896Y-18558984D02*
X304467Y-18568508D01*
X304467Y-18568508D02*
X323515Y-18587555D01*
X323515Y-18587555D02*
X333039Y-18606603D01*
X333039Y-18606603D02*
X342563Y-18644698D01*
X342563Y-18644698D02*
X342563Y-18673270D01*
X342563Y-18673270D02*
X333039Y-18711365D01*
X333039Y-18711365D02*
X323515Y-18730412D01*
X323515Y-18730412D02*
X304467Y-18749460D01*
X304467Y-18749460D02*
X275896Y-18758984D01*
X275896Y-18758984D02*
X228277Y-18758984D01*
X428277Y-18758984D02*
X428277Y-18625650D01*
X428277Y-18663746D02*
X437801Y-18644698D01*
X437801Y-18644698D02*
X447324Y-18635174D01*
X447324Y-18635174D02*
X466372Y-18625650D01*
X466372Y-18625650D02*
X485420Y-18625650D01*
X552086Y-18758984D02*
X552086Y-18625650D01*
X552086Y-18558984D02*
X542563Y-18568508D01*
X542563Y-18568508D02*
X552086Y-18578031D01*
X552086Y-18578031D02*
X561610Y-18568508D01*
X561610Y-18568508D02*
X552086Y-18558984D01*
X552086Y-18558984D02*
X552086Y-18578031D01*
X675896Y-18758984D02*
X656848Y-18749460D01*
X656848Y-18749460D02*
X647324Y-18730412D01*
X647324Y-18730412D02*
X647324Y-18558984D01*
X780658Y-18758984D02*
X761610Y-18749460D01*
X761610Y-18749460D02*
X752086Y-18730412D01*
X752086Y-18730412D02*
X752086Y-18558984D01*
X1009229Y-18758984D02*
X1009229Y-18558984D01*
X1009229Y-18558984D02*
X1075896Y-18701841D01*
X1075896Y-18701841D02*
X1142563Y-18558984D01*
X1142563Y-18558984D02*
X1142563Y-18758984D01*
X1323515Y-18758984D02*
X1323515Y-18654222D01*
X1323515Y-18654222D02*
X1313991Y-18635174D01*
X1313991Y-18635174D02*
X1294944Y-18625650D01*
X1294944Y-18625650D02*
X1256848Y-18625650D01*
X1256848Y-18625650D02*
X1237801Y-18635174D01*
X1323515Y-18749460D02*
X1304467Y-18758984D01*
X1304467Y-18758984D02*
X1256848Y-18758984D01*
X1256848Y-18758984D02*
X1237801Y-18749460D01*
X1237801Y-18749460D02*
X1228277Y-18730412D01*
X1228277Y-18730412D02*
X1228277Y-18711365D01*
X1228277Y-18711365D02*
X1237801Y-18692317D01*
X1237801Y-18692317D02*
X1256848Y-18682793D01*
X1256848Y-18682793D02*
X1304467Y-18682793D01*
X1304467Y-18682793D02*
X1323515Y-18673270D01*
X1418753Y-18625650D02*
X1418753Y-18825650D01*
X1418753Y-18635174D02*
X1437801Y-18625650D01*
X1437801Y-18625650D02*
X1475896Y-18625650D01*
X1475896Y-18625650D02*
X1494943Y-18635174D01*
X1494943Y-18635174D02*
X1504467Y-18644698D01*
X1504467Y-18644698D02*
X1513991Y-18663746D01*
X1513991Y-18663746D02*
X1513991Y-18720889D01*
X1513991Y-18720889D02*
X1504467Y-18739936D01*
X1504467Y-18739936D02*
X1494943Y-18749460D01*
X1494943Y-18749460D02*
X1475896Y-18758984D01*
X1475896Y-18758984D02*
X1437801Y-18758984D01*
X1437801Y-18758984D02*
X1418753Y-18749460D01*
X1599705Y-18739936D02*
X1609229Y-18749460D01*
X1609229Y-18749460D02*
X1599705Y-18758984D01*
X1599705Y-18758984D02*
X1590182Y-18749460D01*
X1590182Y-18749460D02*
X1599705Y-18739936D01*
X1599705Y-18739936D02*
X1599705Y-18758984D01*
X1599705Y-18635174D02*
X1609229Y-18644698D01*
X1609229Y-18644698D02*
X1599705Y-18654222D01*
X1599705Y-18654222D02*
X1590182Y-18644698D01*
X1590182Y-18644698D02*
X1599705Y-18635174D01*
X1599705Y-18635174D02*
X1599705Y-18654222D01*
X-232500Y-18987500D02*
X-32500Y-19187500D01*
X-32500Y-18987500D02*
X-232500Y-19187500D01*
X218753Y-18998031D02*
X228277Y-18988508D01*
X228277Y-18988508D02*
X247324Y-18978984D01*
X247324Y-18978984D02*
X294944Y-18978984D01*
X294944Y-18978984D02*
X313991Y-18988508D01*
X313991Y-18988508D02*
X323515Y-18998031D01*
X323515Y-18998031D02*
X333039Y-19017079D01*
X333039Y-19017079D02*
X333039Y-19036127D01*
X333039Y-19036127D02*
X323515Y-19064698D01*
X323515Y-19064698D02*
X209229Y-19178984D01*
X209229Y-19178984D02*
X333039Y-19178984D01*
X418753Y-19159936D02*
X428277Y-19169460D01*
X428277Y-19169460D02*
X418753Y-19178984D01*
X418753Y-19178984D02*
X409229Y-19169460D01*
X409229Y-19169460D02*
X418753Y-19159936D01*
X418753Y-19159936D02*
X418753Y-19178984D01*
X494943Y-18978984D02*
X628277Y-18978984D01*
X628277Y-18978984D02*
X542563Y-19178984D01*
X742562Y-18978984D02*
X761610Y-18978984D01*
X761610Y-18978984D02*
X780658Y-18988508D01*
X780658Y-18988508D02*
X790182Y-18998031D01*
X790182Y-18998031D02*
X799705Y-19017079D01*
X799705Y-19017079D02*
X809229Y-19055174D01*
X809229Y-19055174D02*
X809229Y-19102793D01*
X809229Y-19102793D02*
X799705Y-19140889D01*
X799705Y-19140889D02*
X790182Y-19159936D01*
X790182Y-19159936D02*
X780658Y-19169460D01*
X780658Y-19169460D02*
X761610Y-19178984D01*
X761610Y-19178984D02*
X742562Y-19178984D01*
X742562Y-19178984D02*
X723515Y-19169460D01*
X723515Y-19169460D02*
X713991Y-19159936D01*
X713991Y-19159936D02*
X704467Y-19140889D01*
X704467Y-19140889D02*
X694944Y-19102793D01*
X694944Y-19102793D02*
X694944Y-19055174D01*
X694944Y-19055174D02*
X704467Y-19017079D01*
X704467Y-19017079D02*
X713991Y-18998031D01*
X713991Y-18998031D02*
X723515Y-18988508D01*
X723515Y-18988508D02*
X742562Y-18978984D01*
X933039Y-18978984D02*
X952086Y-18978984D01*
X952086Y-18978984D02*
X971134Y-18988508D01*
X971134Y-18988508D02*
X980658Y-18998031D01*
X980658Y-18998031D02*
X990182Y-19017079D01*
X990182Y-19017079D02*
X999705Y-19055174D01*
X999705Y-19055174D02*
X999705Y-19102793D01*
X999705Y-19102793D02*
X990182Y-19140889D01*
X990182Y-19140889D02*
X980658Y-19159936D01*
X980658Y-19159936D02*
X971134Y-19169460D01*
X971134Y-19169460D02*
X952086Y-19178984D01*
X952086Y-19178984D02*
X933039Y-19178984D01*
X933039Y-19178984D02*
X913991Y-19169460D01*
X913991Y-19169460D02*
X904467Y-19159936D01*
X904467Y-19159936D02*
X894943Y-19140889D01*
X894943Y-19140889D02*
X885420Y-19102793D01*
X885420Y-19102793D02*
X885420Y-19055174D01*
X885420Y-19055174D02*
X894943Y-19017079D01*
X894943Y-19017079D02*
X904467Y-18998031D01*
X904467Y-18998031D02*
X913991Y-18988508D01*
X913991Y-18988508D02*
X933039Y-18978984D01*
X1085420Y-19178984D02*
X1085420Y-19045650D01*
X1085420Y-19064698D02*
X1094944Y-19055174D01*
X1094944Y-19055174D02*
X1113991Y-19045650D01*
X1113991Y-19045650D02*
X1142563Y-19045650D01*
X1142563Y-19045650D02*
X1161610Y-19055174D01*
X1161610Y-19055174D02*
X1171134Y-19074222D01*
X1171134Y-19074222D02*
X1171134Y-19178984D01*
X1171134Y-19074222D02*
X1180658Y-19055174D01*
X1180658Y-19055174D02*
X1199705Y-19045650D01*
X1199705Y-19045650D02*
X1228277Y-19045650D01*
X1228277Y-19045650D02*
X1247325Y-19055174D01*
X1247325Y-19055174D02*
X1256848Y-19074222D01*
X1256848Y-19074222D02*
X1256848Y-19178984D01*
X1352086Y-19178984D02*
X1352086Y-19045650D01*
X1352086Y-19064698D02*
X1361610Y-19055174D01*
X1361610Y-19055174D02*
X1380658Y-19045650D01*
X1380658Y-19045650D02*
X1409229Y-19045650D01*
X1409229Y-19045650D02*
X1428277Y-19055174D01*
X1428277Y-19055174D02*
X1437801Y-19074222D01*
X1437801Y-19074222D02*
X1437801Y-19178984D01*
X1437801Y-19074222D02*
X1447324Y-19055174D01*
X1447324Y-19055174D02*
X1466372Y-19045650D01*
X1466372Y-19045650D02*
X1494943Y-19045650D01*
X1494943Y-19045650D02*
X1513991Y-19055174D01*
X1513991Y-19055174D02*
X1523515Y-19074222D01*
X1523515Y-19074222D02*
X1523515Y-19178984D01*
X1913991Y-18969460D02*
X1742563Y-19226603D01*
X2171134Y-18978984D02*
X2190182Y-18978984D01*
X2190182Y-18978984D02*
X2209229Y-18988508D01*
X2209229Y-18988508D02*
X2218753Y-18998031D01*
X2218753Y-18998031D02*
X2228277Y-19017079D01*
X2228277Y-19017079D02*
X2237801Y-19055174D01*
X2237801Y-19055174D02*
X2237801Y-19102793D01*
X2237801Y-19102793D02*
X2228277Y-19140889D01*
X2228277Y-19140889D02*
X2218753Y-19159936D01*
X2218753Y-19159936D02*
X2209229Y-19169460D01*
X2209229Y-19169460D02*
X2190182Y-19178984D01*
X2190182Y-19178984D02*
X2171134Y-19178984D01*
X2171134Y-19178984D02*
X2152087Y-19169460D01*
X2152087Y-19169460D02*
X2142563Y-19159936D01*
X2142563Y-19159936D02*
X2133039Y-19140889D01*
X2133039Y-19140889D02*
X2123515Y-19102793D01*
X2123515Y-19102793D02*
X2123515Y-19055174D01*
X2123515Y-19055174D02*
X2133039Y-19017079D01*
X2133039Y-19017079D02*
X2142563Y-18998031D01*
X2142563Y-18998031D02*
X2152087Y-18988508D01*
X2152087Y-18988508D02*
X2171134Y-18978984D01*
X2323515Y-19159936D02*
X2333039Y-19169460D01*
X2333039Y-19169460D02*
X2323515Y-19178984D01*
X2323515Y-19178984D02*
X2313991Y-19169460D01*
X2313991Y-19169460D02*
X2323515Y-19159936D01*
X2323515Y-19159936D02*
X2323515Y-19178984D01*
X2523515Y-19178984D02*
X2409229Y-19178984D01*
X2466372Y-19178984D02*
X2466372Y-18978984D01*
X2466372Y-18978984D02*
X2447325Y-19007555D01*
X2447325Y-19007555D02*
X2428277Y-19026603D01*
X2428277Y-19026603D02*
X2409229Y-19036127D01*
X2647325Y-18978984D02*
X2666372Y-18978984D01*
X2666372Y-18978984D02*
X2685420Y-18988508D01*
X2685420Y-18988508D02*
X2694944Y-18998031D01*
X2694944Y-18998031D02*
X2704468Y-19017079D01*
X2704468Y-19017079D02*
X2713991Y-19055174D01*
X2713991Y-19055174D02*
X2713991Y-19102793D01*
X2713991Y-19102793D02*
X2704468Y-19140889D01*
X2704468Y-19140889D02*
X2694944Y-19159936D01*
X2694944Y-19159936D02*
X2685420Y-19169460D01*
X2685420Y-19169460D02*
X2666372Y-19178984D01*
X2666372Y-19178984D02*
X2647325Y-19178984D01*
X2647325Y-19178984D02*
X2628277Y-19169460D01*
X2628277Y-19169460D02*
X2618753Y-19159936D01*
X2618753Y-19159936D02*
X2609229Y-19140889D01*
X2609229Y-19140889D02*
X2599706Y-19102793D01*
X2599706Y-19102793D02*
X2599706Y-19055174D01*
X2599706Y-19055174D02*
X2609229Y-19017079D01*
X2609229Y-19017079D02*
X2618753Y-18998031D01*
X2618753Y-18998031D02*
X2628277Y-18988508D01*
X2628277Y-18988508D02*
X2647325Y-18978984D01*
X2885420Y-18978984D02*
X2847325Y-18978984D01*
X2847325Y-18978984D02*
X2828277Y-18988508D01*
X2828277Y-18988508D02*
X2818753Y-18998031D01*
X2818753Y-18998031D02*
X2799706Y-19026603D01*
X2799706Y-19026603D02*
X2790182Y-19064698D01*
X2790182Y-19064698D02*
X2790182Y-19140889D01*
X2790182Y-19140889D02*
X2799706Y-19159936D01*
X2799706Y-19159936D02*
X2809229Y-19169460D01*
X2809229Y-19169460D02*
X2828277Y-19178984D01*
X2828277Y-19178984D02*
X2866372Y-19178984D01*
X2866372Y-19178984D02*
X2885420Y-19169460D01*
X2885420Y-19169460D02*
X2894944Y-19159936D01*
X2894944Y-19159936D02*
X2904467Y-19140889D01*
X2904467Y-19140889D02*
X2904467Y-19093270D01*
X2904467Y-19093270D02*
X2894944Y-19074222D01*
X2894944Y-19074222D02*
X2885420Y-19064698D01*
X2885420Y-19064698D02*
X2866372Y-19055174D01*
X2866372Y-19055174D02*
X2828277Y-19055174D01*
X2828277Y-19055174D02*
X2809229Y-19064698D01*
X2809229Y-19064698D02*
X2799706Y-19074222D01*
X2799706Y-19074222D02*
X2790182Y-19093270D01*
X2971134Y-18978984D02*
X3094944Y-18978984D01*
X3094944Y-18978984D02*
X3028277Y-19055174D01*
X3028277Y-19055174D02*
X3056848Y-19055174D01*
X3056848Y-19055174D02*
X3075896Y-19064698D01*
X3075896Y-19064698D02*
X3085420Y-19074222D01*
X3085420Y-19074222D02*
X3094944Y-19093270D01*
X3094944Y-19093270D02*
X3094944Y-19140889D01*
X3094944Y-19140889D02*
X3085420Y-19159936D01*
X3085420Y-19159936D02*
X3075896Y-19169460D01*
X3075896Y-19169460D02*
X3056848Y-19178984D01*
X3056848Y-19178984D02*
X2999706Y-19178984D01*
X2999706Y-19178984D02*
X2980658Y-19169460D01*
X2980658Y-19169460D02*
X2971134Y-19159936D01*
X3171134Y-18978984D02*
X3171134Y-19017079D01*
X3247325Y-18978984D02*
X3247325Y-19017079D01*
X3542563Y-19255174D02*
X3533039Y-19245650D01*
X3533039Y-19245650D02*
X3513991Y-19217079D01*
X3513991Y-19217079D02*
X3504468Y-19198031D01*
X3504468Y-19198031D02*
X3494944Y-19169460D01*
X3494944Y-19169460D02*
X3485420Y-19121841D01*
X3485420Y-19121841D02*
X3485420Y-19083746D01*
X3485420Y-19083746D02*
X3494944Y-19036127D01*
X3494944Y-19036127D02*
X3504468Y-19007555D01*
X3504468Y-19007555D02*
X3513991Y-18988508D01*
X3513991Y-18988508D02*
X3533039Y-18959936D01*
X3533039Y-18959936D02*
X3542563Y-18950412D01*
X3704468Y-18978984D02*
X3666372Y-18978984D01*
X3666372Y-18978984D02*
X3647325Y-18988508D01*
X3647325Y-18988508D02*
X3637801Y-18998031D01*
X3637801Y-18998031D02*
X3618753Y-19026603D01*
X3618753Y-19026603D02*
X3609229Y-19064698D01*
X3609229Y-19064698D02*
X3609229Y-19140889D01*
X3609229Y-19140889D02*
X3618753Y-19159936D01*
X3618753Y-19159936D02*
X3628277Y-19169460D01*
X3628277Y-19169460D02*
X3647325Y-19178984D01*
X3647325Y-19178984D02*
X3685420Y-19178984D01*
X3685420Y-19178984D02*
X3704468Y-19169460D01*
X3704468Y-19169460D02*
X3713991Y-19159936D01*
X3713991Y-19159936D02*
X3723515Y-19140889D01*
X3723515Y-19140889D02*
X3723515Y-19093270D01*
X3723515Y-19093270D02*
X3713991Y-19074222D01*
X3713991Y-19074222D02*
X3704468Y-19064698D01*
X3704468Y-19064698D02*
X3685420Y-19055174D01*
X3685420Y-19055174D02*
X3647325Y-19055174D01*
X3647325Y-19055174D02*
X3628277Y-19064698D01*
X3628277Y-19064698D02*
X3618753Y-19074222D01*
X3618753Y-19074222D02*
X3609229Y-19093270D01*
X3961610Y-19178984D02*
X3961610Y-18978984D01*
X4047325Y-19178984D02*
X4047325Y-19074222D01*
X4047325Y-19074222D02*
X4037801Y-19055174D01*
X4037801Y-19055174D02*
X4018753Y-19045650D01*
X4018753Y-19045650D02*
X3990182Y-19045650D01*
X3990182Y-19045650D02*
X3971134Y-19055174D01*
X3971134Y-19055174D02*
X3961610Y-19064698D01*
X4171134Y-19178984D02*
X4152087Y-19169460D01*
X4152087Y-19169460D02*
X4142563Y-19159936D01*
X4142563Y-19159936D02*
X4133039Y-19140889D01*
X4133039Y-19140889D02*
X4133039Y-19083746D01*
X4133039Y-19083746D02*
X4142563Y-19064698D01*
X4142563Y-19064698D02*
X4152087Y-19055174D01*
X4152087Y-19055174D02*
X4171134Y-19045650D01*
X4171134Y-19045650D02*
X4199706Y-19045650D01*
X4199706Y-19045650D02*
X4218753Y-19055174D01*
X4218753Y-19055174D02*
X4228277Y-19064698D01*
X4228277Y-19064698D02*
X4237801Y-19083746D01*
X4237801Y-19083746D02*
X4237801Y-19140889D01*
X4237801Y-19140889D02*
X4228277Y-19159936D01*
X4228277Y-19159936D02*
X4218753Y-19169460D01*
X4218753Y-19169460D02*
X4199706Y-19178984D01*
X4199706Y-19178984D02*
X4171134Y-19178984D01*
X4352087Y-19178984D02*
X4333039Y-19169460D01*
X4333039Y-19169460D02*
X4323515Y-19150412D01*
X4323515Y-19150412D02*
X4323515Y-18978984D01*
X4504468Y-19169460D02*
X4485420Y-19178984D01*
X4485420Y-19178984D02*
X4447325Y-19178984D01*
X4447325Y-19178984D02*
X4428277Y-19169460D01*
X4428277Y-19169460D02*
X4418753Y-19150412D01*
X4418753Y-19150412D02*
X4418753Y-19074222D01*
X4418753Y-19074222D02*
X4428277Y-19055174D01*
X4428277Y-19055174D02*
X4447325Y-19045650D01*
X4447325Y-19045650D02*
X4485420Y-19045650D01*
X4485420Y-19045650D02*
X4504468Y-19055174D01*
X4504468Y-19055174D02*
X4513992Y-19074222D01*
X4513992Y-19074222D02*
X4513992Y-19093270D01*
X4513992Y-19093270D02*
X4418753Y-19112317D01*
X4590182Y-19169460D02*
X4609230Y-19178984D01*
X4609230Y-19178984D02*
X4647325Y-19178984D01*
X4647325Y-19178984D02*
X4666373Y-19169460D01*
X4666373Y-19169460D02*
X4675896Y-19150412D01*
X4675896Y-19150412D02*
X4675896Y-19140889D01*
X4675896Y-19140889D02*
X4666373Y-19121841D01*
X4666373Y-19121841D02*
X4647325Y-19112317D01*
X4647325Y-19112317D02*
X4618753Y-19112317D01*
X4618753Y-19112317D02*
X4599706Y-19102793D01*
X4599706Y-19102793D02*
X4590182Y-19083746D01*
X4590182Y-19083746D02*
X4590182Y-19074222D01*
X4590182Y-19074222D02*
X4599706Y-19055174D01*
X4599706Y-19055174D02*
X4618753Y-19045650D01*
X4618753Y-19045650D02*
X4647325Y-19045650D01*
X4647325Y-19045650D02*
X4666373Y-19055174D01*
X4742563Y-19255174D02*
X4752087Y-19245650D01*
X4752087Y-19245650D02*
X4771134Y-19217079D01*
X4771134Y-19217079D02*
X4780658Y-19198031D01*
X4780658Y-19198031D02*
X4790182Y-19169460D01*
X4790182Y-19169460D02*
X4799706Y-19121841D01*
X4799706Y-19121841D02*
X4799706Y-19083746D01*
X4799706Y-19083746D02*
X4790182Y-19036127D01*
X4790182Y-19036127D02*
X4780658Y-19007555D01*
X4780658Y-19007555D02*
X4771134Y-18988508D01*
X4771134Y-18988508D02*
X4752087Y-18959936D01*
X4752087Y-18959936D02*
X4742563Y-18950412D01*
X5104468Y-19255174D02*
X5094944Y-19245650D01*
X5094944Y-19245650D02*
X5075896Y-19217079D01*
X5075896Y-19217079D02*
X5066373Y-19198031D01*
X5066373Y-19198031D02*
X5056849Y-19169460D01*
X5056849Y-19169460D02*
X5047325Y-19121841D01*
X5047325Y-19121841D02*
X5047325Y-19083746D01*
X5047325Y-19083746D02*
X5056849Y-19036127D01*
X5056849Y-19036127D02*
X5066373Y-19007555D01*
X5066373Y-19007555D02*
X5075896Y-18988508D01*
X5075896Y-18988508D02*
X5094944Y-18959936D01*
X5094944Y-18959936D02*
X5104468Y-18950412D01*
X5180658Y-19045650D02*
X5180658Y-19178984D01*
X5180658Y-19064698D02*
X5190182Y-19055174D01*
X5190182Y-19055174D02*
X5209230Y-19045650D01*
X5209230Y-19045650D02*
X5237801Y-19045650D01*
X5237801Y-19045650D02*
X5256849Y-19055174D01*
X5256849Y-19055174D02*
X5266373Y-19074222D01*
X5266373Y-19074222D02*
X5266373Y-19178984D01*
X5390182Y-19178984D02*
X5371134Y-19169460D01*
X5371134Y-19169460D02*
X5361611Y-19159936D01*
X5361611Y-19159936D02*
X5352087Y-19140889D01*
X5352087Y-19140889D02*
X5352087Y-19083746D01*
X5352087Y-19083746D02*
X5361611Y-19064698D01*
X5361611Y-19064698D02*
X5371134Y-19055174D01*
X5371134Y-19055174D02*
X5390182Y-19045650D01*
X5390182Y-19045650D02*
X5418754Y-19045650D01*
X5418754Y-19045650D02*
X5437801Y-19055174D01*
X5437801Y-19055174D02*
X5447325Y-19064698D01*
X5447325Y-19064698D02*
X5456849Y-19083746D01*
X5456849Y-19083746D02*
X5456849Y-19140889D01*
X5456849Y-19140889D02*
X5447325Y-19159936D01*
X5447325Y-19159936D02*
X5437801Y-19169460D01*
X5437801Y-19169460D02*
X5418754Y-19178984D01*
X5418754Y-19178984D02*
X5390182Y-19178984D01*
X5513992Y-19045650D02*
X5590182Y-19045650D01*
X5542563Y-18978984D02*
X5542563Y-19150412D01*
X5542563Y-19150412D02*
X5552087Y-19169460D01*
X5552087Y-19169460D02*
X5571134Y-19178984D01*
X5571134Y-19178984D02*
X5590182Y-19178984D01*
X5809230Y-19045650D02*
X5809230Y-19245650D01*
X5809230Y-19055174D02*
X5828277Y-19045650D01*
X5828277Y-19045650D02*
X5866373Y-19045650D01*
X5866373Y-19045650D02*
X5885420Y-19055174D01*
X5885420Y-19055174D02*
X5894944Y-19064698D01*
X5894944Y-19064698D02*
X5904468Y-19083746D01*
X5904468Y-19083746D02*
X5904468Y-19140889D01*
X5904468Y-19140889D02*
X5894944Y-19159936D01*
X5894944Y-19159936D02*
X5885420Y-19169460D01*
X5885420Y-19169460D02*
X5866373Y-19178984D01*
X5866373Y-19178984D02*
X5828277Y-19178984D01*
X5828277Y-19178984D02*
X5809230Y-19169460D01*
X6018753Y-19178984D02*
X5999706Y-19169460D01*
X5999706Y-19169460D02*
X5990182Y-19150412D01*
X5990182Y-19150412D02*
X5990182Y-18978984D01*
X6180658Y-19178984D02*
X6180658Y-19074222D01*
X6180658Y-19074222D02*
X6171134Y-19055174D01*
X6171134Y-19055174D02*
X6152087Y-19045650D01*
X6152087Y-19045650D02*
X6113992Y-19045650D01*
X6113992Y-19045650D02*
X6094944Y-19055174D01*
X6180658Y-19169460D02*
X6161611Y-19178984D01*
X6161611Y-19178984D02*
X6113992Y-19178984D01*
X6113992Y-19178984D02*
X6094944Y-19169460D01*
X6094944Y-19169460D02*
X6085420Y-19150412D01*
X6085420Y-19150412D02*
X6085420Y-19131365D01*
X6085420Y-19131365D02*
X6094944Y-19112317D01*
X6094944Y-19112317D02*
X6113992Y-19102793D01*
X6113992Y-19102793D02*
X6161611Y-19102793D01*
X6161611Y-19102793D02*
X6180658Y-19093270D01*
X6247325Y-19045650D02*
X6323515Y-19045650D01*
X6275896Y-18978984D02*
X6275896Y-19150412D01*
X6275896Y-19150412D02*
X6285420Y-19169460D01*
X6285420Y-19169460D02*
X6304468Y-19178984D01*
X6304468Y-19178984D02*
X6323515Y-19178984D01*
X6466373Y-19169460D02*
X6447325Y-19178984D01*
X6447325Y-19178984D02*
X6409230Y-19178984D01*
X6409230Y-19178984D02*
X6390182Y-19169460D01*
X6390182Y-19169460D02*
X6380658Y-19150412D01*
X6380658Y-19150412D02*
X6380658Y-19074222D01*
X6380658Y-19074222D02*
X6390182Y-19055174D01*
X6390182Y-19055174D02*
X6409230Y-19045650D01*
X6409230Y-19045650D02*
X6447325Y-19045650D01*
X6447325Y-19045650D02*
X6466373Y-19055174D01*
X6466373Y-19055174D02*
X6475896Y-19074222D01*
X6475896Y-19074222D02*
X6475896Y-19093270D01*
X6475896Y-19093270D02*
X6380658Y-19112317D01*
X6647325Y-19178984D02*
X6647325Y-18978984D01*
X6647325Y-19169460D02*
X6628277Y-19178984D01*
X6628277Y-19178984D02*
X6590182Y-19178984D01*
X6590182Y-19178984D02*
X6571134Y-19169460D01*
X6571134Y-19169460D02*
X6561611Y-19159936D01*
X6561611Y-19159936D02*
X6552087Y-19140889D01*
X6552087Y-19140889D02*
X6552087Y-19083746D01*
X6552087Y-19083746D02*
X6561611Y-19064698D01*
X6561611Y-19064698D02*
X6571134Y-19055174D01*
X6571134Y-19055174D02*
X6590182Y-19045650D01*
X6590182Y-19045650D02*
X6628277Y-19045650D01*
X6628277Y-19045650D02*
X6647325Y-19055174D01*
X6723515Y-19255174D02*
X6733039Y-19245650D01*
X6733039Y-19245650D02*
X6752087Y-19217079D01*
X6752087Y-19217079D02*
X6761611Y-19198031D01*
X6761611Y-19198031D02*
X6771134Y-19169460D01*
X6771134Y-19169460D02*
X6780658Y-19121841D01*
X6780658Y-19121841D02*
X6780658Y-19083746D01*
X6780658Y-19083746D02*
X6771134Y-19036127D01*
X6771134Y-19036127D02*
X6761611Y-19007555D01*
X6761611Y-19007555D02*
X6752087Y-18988508D01*
X6752087Y-18988508D02*
X6733039Y-18959936D01*
X6733039Y-18959936D02*
X6723515Y-18950412D01*
M02*
