G04 #@! TF.GenerationSoftware,KiCad,Pcbnew,7.0.11+dfsg-1build4*
G04 #@! TF.CreationDate,2026-06-02T17:31:25-04:00*
G04 #@! TF.ProjectId,mission-control-plate-fkeys,6d697373-696f-46e2-9d63-6f6e74726f6c,rev?*
G04 #@! TF.SameCoordinates,Original*
G04 #@! TF.FileFunction,Legend,Top*
G04 #@! TF.FilePolarity,Positive*
%FSLAX46Y46*%
G04 Gerber Fmt 4.6, Leading zero omitted, Abs format (unit mm)*
G04 Created by KiCad (PCBNEW 7.0.11+dfsg-1build4) date 2026-06-02 17:31:25*
%MOMM*%
%LPD*%
G01*
G04 APERTURE LIST*
%ADD10C,0.300000*%
%ADD11C,2.700000*%
G04 APERTURE END LIST*
D10*
G36*
X93656141Y-38275063D02*
G01*
X93656141Y-43050500D01*
X92631176Y-43050500D01*
X92631176Y-40106030D01*
X92631512Y-40058749D01*
X92632519Y-40009890D01*
X92634199Y-39959452D01*
X92636549Y-39907436D01*
X92639415Y-39861067D01*
X92643308Y-39814368D01*
X92648230Y-39767339D01*
X92654181Y-39719981D01*
X92658043Y-39692771D01*
X91052757Y-42294006D01*
X91017599Y-42344587D01*
X90977950Y-42388424D01*
X90933809Y-42425517D01*
X90885176Y-42455866D01*
X90832051Y-42479470D01*
X90774434Y-42496331D01*
X90712326Y-42506447D01*
X90645726Y-42509819D01*
X90483182Y-42509819D01*
X90425302Y-42507237D01*
X90370379Y-42499492D01*
X90318413Y-42486583D01*
X90262643Y-42465508D01*
X90242725Y-42455866D01*
X90193610Y-42425087D01*
X90154903Y-42392858D01*
X90120183Y-42355686D01*
X90089447Y-42313569D01*
X90077495Y-42294006D01*
X88464149Y-39682439D01*
X88468722Y-39732780D01*
X88473038Y-39782351D01*
X88477097Y-39831153D01*
X88480899Y-39879186D01*
X88482956Y-39906288D01*
X88486096Y-39952336D01*
X88488741Y-40003347D01*
X88490378Y-40052637D01*
X88491008Y-40100205D01*
X88491016Y-40106030D01*
X88491016Y-43050500D01*
X87466051Y-43050500D01*
X87466051Y-38275063D01*
X88347279Y-38275063D01*
X88404649Y-38275063D01*
X88460481Y-38275063D01*
X88478926Y-38275063D01*
X88534338Y-38278794D01*
X88582362Y-38289987D01*
X88629684Y-38312223D01*
X88662963Y-38337052D01*
X88698897Y-38374360D01*
X88727599Y-38413971D01*
X88734159Y-38424296D01*
X90305862Y-40986501D01*
X90332734Y-41030221D01*
X90358945Y-41074426D01*
X90384494Y-41119115D01*
X90409383Y-41164288D01*
X90433610Y-41209946D01*
X90441539Y-41225273D01*
X90465530Y-41271536D01*
X90489143Y-41318202D01*
X90512379Y-41365272D01*
X90535237Y-41412746D01*
X90557717Y-41460623D01*
X90565126Y-41476672D01*
X90586976Y-41427369D01*
X90609204Y-41378469D01*
X90631810Y-41329973D01*
X90654794Y-41281881D01*
X90678155Y-41234192D01*
X90686026Y-41218385D01*
X90710537Y-41171396D01*
X90735709Y-41125133D01*
X90761541Y-41079596D01*
X90788036Y-41034786D01*
X90815191Y-40990703D01*
X90824390Y-40976169D01*
X92382659Y-38424296D01*
X92411702Y-38382761D01*
X92446866Y-38345195D01*
X92456542Y-38337052D01*
X92499451Y-38307761D01*
X92539829Y-38289987D01*
X92593526Y-38277920D01*
X92640579Y-38275063D01*
X92697901Y-38275063D01*
X92754742Y-38275063D01*
X92773570Y-38275063D01*
X93656141Y-38275063D01*
G37*
G36*
X98232886Y-42389285D02*
G01*
X98232886Y-43050500D01*
X95084107Y-43050500D01*
X95084107Y-42389285D01*
X96197732Y-42389285D01*
X96197732Y-39811009D01*
X96198051Y-39763599D01*
X96199007Y-39715645D01*
X96200601Y-39667145D01*
X96201762Y-39639966D01*
X96204348Y-39590064D01*
X96207571Y-39539799D01*
X96211432Y-39489171D01*
X96213852Y-39460887D01*
X95477704Y-39982052D01*
X95430110Y-40009428D01*
X95378363Y-40031513D01*
X95327251Y-40045189D01*
X95272972Y-40051269D01*
X95216727Y-40050206D01*
X95187544Y-40046337D01*
X95133034Y-40033216D01*
X95081478Y-40012331D01*
X95072017Y-40007307D01*
X95027687Y-39978321D01*
X94994104Y-39948762D01*
X94658270Y-39561906D01*
X96383113Y-38275063D01*
X97261654Y-38275063D01*
X97261654Y-42389285D01*
X98232886Y-42389285D01*
G37*
G36*
X102454990Y-42242349D02*
G01*
X102517329Y-42245174D01*
X102574379Y-42253649D01*
X102626139Y-42267774D01*
X102679841Y-42291394D01*
X102726344Y-42322705D01*
X102765077Y-42359830D01*
X102794298Y-42401899D01*
X102814004Y-42448912D01*
X102824197Y-42500869D01*
X102825750Y-42532778D01*
X102825750Y-43050500D01*
X98934107Y-43050500D01*
X98934107Y-42752035D01*
X98937401Y-42701871D01*
X98945860Y-42655451D01*
X98959524Y-42607309D01*
X98975750Y-42563772D01*
X98997321Y-42520456D01*
X99024420Y-42478896D01*
X99057047Y-42439095D01*
X99095202Y-42401052D01*
X99119487Y-42380102D01*
X100782537Y-40948619D01*
X100822136Y-40914527D01*
X100860839Y-40880697D01*
X100898644Y-40847130D01*
X100947654Y-40802782D01*
X100995070Y-40758900D01*
X101040890Y-40715485D01*
X101085115Y-40672536D01*
X101127745Y-40630053D01*
X101158671Y-40598497D01*
X101198446Y-40556704D01*
X101236500Y-40515127D01*
X101272833Y-40473766D01*
X101307445Y-40432619D01*
X101340336Y-40391688D01*
X101371506Y-40350972D01*
X101400954Y-40310471D01*
X101428681Y-40270185D01*
X101455023Y-40229667D01*
X101485530Y-40178867D01*
X101513348Y-40127899D01*
X101538477Y-40076763D01*
X101560916Y-40025459D01*
X101580666Y-39973986D01*
X101591225Y-39943022D01*
X101607092Y-39890614D01*
X101620269Y-39837421D01*
X101630758Y-39783443D01*
X101638557Y-39728680D01*
X101643666Y-39673133D01*
X101646087Y-39616801D01*
X101646302Y-39594048D01*
X101644602Y-39534928D01*
X101639501Y-39478532D01*
X101631000Y-39424860D01*
X101619099Y-39373912D01*
X101603798Y-39325689D01*
X101585096Y-39280189D01*
X101562994Y-39237414D01*
X101528235Y-39184617D01*
X101487431Y-39136664D01*
X101452861Y-39103877D01*
X101402025Y-39064596D01*
X101346234Y-39030552D01*
X101285490Y-39001746D01*
X101219793Y-38978177D01*
X101167269Y-38963938D01*
X101111958Y-38952645D01*
X101053862Y-38944297D01*
X100992979Y-38938896D01*
X100929309Y-38936441D01*
X100907467Y-38936278D01*
X100849929Y-38937650D01*
X100794186Y-38941766D01*
X100740238Y-38948627D01*
X100679566Y-38960100D01*
X100621337Y-38975308D01*
X100566202Y-38993309D01*
X100513639Y-39014167D01*
X100463647Y-39037882D01*
X100416226Y-39064452D01*
X100390283Y-39080918D01*
X100346967Y-39111648D01*
X100306351Y-39144575D01*
X100268434Y-39179699D01*
X100233218Y-39217021D01*
X100214306Y-39239334D01*
X100183846Y-39279834D01*
X100157114Y-39321981D01*
X100134111Y-39365777D01*
X100114836Y-39411220D01*
X100105496Y-39437928D01*
X100082873Y-39487887D01*
X100057823Y-39532297D01*
X100024560Y-39578264D01*
X99987802Y-39616240D01*
X99940500Y-39650446D01*
X99918772Y-39661777D01*
X99862361Y-39681371D01*
X99806539Y-39691783D01*
X99743822Y-39696303D01*
X99686291Y-39695569D01*
X99623972Y-39690743D01*
X99584282Y-39685883D01*
X99018737Y-39599788D01*
X99031280Y-39535112D01*
X99045735Y-39471949D01*
X99062103Y-39410300D01*
X99080384Y-39350164D01*
X99100577Y-39291542D01*
X99122683Y-39234433D01*
X99146702Y-39178837D01*
X99172633Y-39124755D01*
X99200477Y-39072186D01*
X99230234Y-39021131D01*
X99251134Y-38987935D01*
X99283866Y-38939422D01*
X99318086Y-38892463D01*
X99353793Y-38847058D01*
X99390988Y-38803206D01*
X99429671Y-38760908D01*
X99469841Y-38720164D01*
X99511499Y-38680974D01*
X99554644Y-38643337D01*
X99599277Y-38607254D01*
X99645398Y-38572725D01*
X99676972Y-38550569D01*
X99725466Y-38518620D01*
X99775235Y-38488204D01*
X99826279Y-38459321D01*
X99878598Y-38431973D01*
X99932192Y-38406157D01*
X99987062Y-38381876D01*
X100043206Y-38359128D01*
X100100626Y-38337913D01*
X100159321Y-38318232D01*
X100219291Y-38300085D01*
X100259979Y-38288839D01*
X100322137Y-38273247D01*
X100385193Y-38259189D01*
X100449146Y-38246665D01*
X100513996Y-38235675D01*
X100579743Y-38226218D01*
X100646388Y-38218294D01*
X100713930Y-38211904D01*
X100782369Y-38207048D01*
X100851706Y-38203725D01*
X100921939Y-38201936D01*
X100969261Y-38201595D01*
X101043190Y-38202493D01*
X101115868Y-38205187D01*
X101187294Y-38209677D01*
X101257469Y-38215962D01*
X101326392Y-38224044D01*
X101394064Y-38233921D01*
X101460485Y-38245595D01*
X101525653Y-38259064D01*
X101589571Y-38274329D01*
X101652237Y-38291390D01*
X101693318Y-38303762D01*
X101753938Y-38323419D01*
X101812881Y-38344509D01*
X101870147Y-38367032D01*
X101925737Y-38390987D01*
X101979650Y-38416376D01*
X102031886Y-38443196D01*
X102082446Y-38471450D01*
X102131330Y-38501136D01*
X102178537Y-38532255D01*
X102224067Y-38564806D01*
X102253489Y-38587303D01*
X102296143Y-38621977D01*
X102336955Y-38657983D01*
X102375925Y-38695320D01*
X102413053Y-38733989D01*
X102448339Y-38773990D01*
X102481783Y-38815322D01*
X102513386Y-38857987D01*
X102543146Y-38901983D01*
X102571065Y-38947311D01*
X102597142Y-38993971D01*
X102613503Y-39025817D01*
X102636310Y-39074290D01*
X102656873Y-39123710D01*
X102675193Y-39174080D01*
X102691270Y-39225397D01*
X102705103Y-39277663D01*
X102716694Y-39330878D01*
X102726041Y-39385041D01*
X102733144Y-39440152D01*
X102738005Y-39496212D01*
X102740622Y-39553220D01*
X102741120Y-39591752D01*
X102740329Y-39641550D01*
X102737956Y-39690641D01*
X102734001Y-39739026D01*
X102728464Y-39786705D01*
X102721344Y-39833677D01*
X102712643Y-39879944D01*
X102702359Y-39925504D01*
X102690493Y-39970358D01*
X102672211Y-40029064D01*
X102651117Y-40086515D01*
X102627944Y-40142728D01*
X102602757Y-40198296D01*
X102575554Y-40253217D01*
X102546337Y-40307494D01*
X102515104Y-40361124D01*
X102481857Y-40414109D01*
X102446594Y-40466448D01*
X102409316Y-40518141D01*
X102370591Y-40569063D01*
X102330311Y-40619662D01*
X102299083Y-40657399D01*
X102266981Y-40694955D01*
X102234005Y-40732329D01*
X102200155Y-40769522D01*
X102165431Y-40806533D01*
X102129834Y-40843362D01*
X102093364Y-40880010D01*
X102056019Y-40916476D01*
X102018037Y-40952667D01*
X101979654Y-40988918D01*
X101940869Y-41025229D01*
X101901682Y-41061601D01*
X101862095Y-41098034D01*
X101822106Y-41134527D01*
X101781715Y-41171081D01*
X101740923Y-41207695D01*
X101699730Y-41244370D01*
X101658135Y-41281105D01*
X101630182Y-41305629D01*
X100438643Y-42355995D01*
X100500254Y-42340054D01*
X100561668Y-42325234D01*
X100622886Y-42311535D01*
X100683907Y-42298957D01*
X100744731Y-42287500D01*
X100805358Y-42277164D01*
X100829554Y-42273343D01*
X100889446Y-42264414D01*
X100948224Y-42256998D01*
X101005886Y-42251096D01*
X101062433Y-42246707D01*
X101117866Y-42243832D01*
X101172183Y-42242470D01*
X101193598Y-42242349D01*
X102454990Y-42242349D01*
G37*
G36*
X106920238Y-42242349D02*
G01*
X106982577Y-42245174D01*
X107039626Y-42253649D01*
X107091387Y-42267774D01*
X107145089Y-42291394D01*
X107191591Y-42322705D01*
X107230325Y-42359830D01*
X107259545Y-42401899D01*
X107279252Y-42448912D01*
X107289445Y-42500869D01*
X107290998Y-42532778D01*
X107290998Y-43050500D01*
X103399355Y-43050500D01*
X103399355Y-42752035D01*
X103402649Y-42701871D01*
X103411108Y-42655451D01*
X103424772Y-42607309D01*
X103440998Y-42563772D01*
X103462569Y-42520456D01*
X103489668Y-42478896D01*
X103522295Y-42439095D01*
X103560450Y-42401052D01*
X103584735Y-42380102D01*
X105247785Y-40948619D01*
X105287384Y-40914527D01*
X105326086Y-40880697D01*
X105363891Y-40847130D01*
X105412902Y-40802782D01*
X105460318Y-40758900D01*
X105506138Y-40715485D01*
X105550363Y-40672536D01*
X105592993Y-40630053D01*
X105623919Y-40598497D01*
X105663694Y-40556704D01*
X105701748Y-40515127D01*
X105738081Y-40473766D01*
X105772693Y-40432619D01*
X105805584Y-40391688D01*
X105836753Y-40350972D01*
X105866202Y-40310471D01*
X105893929Y-40270185D01*
X105920271Y-40229667D01*
X105950778Y-40178867D01*
X105978596Y-40127899D01*
X106003724Y-40076763D01*
X106026164Y-40025459D01*
X106045914Y-39973986D01*
X106056473Y-39943022D01*
X106072340Y-39890614D01*
X106085517Y-39837421D01*
X106096005Y-39783443D01*
X106103804Y-39728680D01*
X106108914Y-39673133D01*
X106111334Y-39616801D01*
X106111549Y-39594048D01*
X106109849Y-39534928D01*
X106104749Y-39478532D01*
X106096248Y-39424860D01*
X106084347Y-39373912D01*
X106069045Y-39325689D01*
X106050344Y-39280189D01*
X106028242Y-39237414D01*
X105993483Y-39184617D01*
X105952679Y-39136664D01*
X105918109Y-39103877D01*
X105867272Y-39064596D01*
X105811482Y-39030552D01*
X105750738Y-39001746D01*
X105685040Y-38978177D01*
X105632517Y-38963938D01*
X105577206Y-38952645D01*
X105519110Y-38944297D01*
X105458227Y-38938896D01*
X105394557Y-38936441D01*
X105372715Y-38936278D01*
X105315177Y-38937650D01*
X105259434Y-38941766D01*
X105205485Y-38948627D01*
X105144814Y-38960100D01*
X105086584Y-38975308D01*
X105031450Y-38993309D01*
X104978887Y-39014167D01*
X104928895Y-39037882D01*
X104881474Y-39064452D01*
X104855531Y-39080918D01*
X104812215Y-39111648D01*
X104771598Y-39144575D01*
X104733682Y-39179699D01*
X104698465Y-39217021D01*
X104679554Y-39239334D01*
X104649094Y-39279834D01*
X104622362Y-39321981D01*
X104599359Y-39365777D01*
X104580084Y-39411220D01*
X104570743Y-39437928D01*
X104548121Y-39487887D01*
X104523071Y-39532297D01*
X104489807Y-39578264D01*
X104453049Y-39616240D01*
X104405748Y-39650446D01*
X104384020Y-39661777D01*
X104327609Y-39681371D01*
X104271787Y-39691783D01*
X104209070Y-39696303D01*
X104151539Y-39695569D01*
X104089219Y-39690743D01*
X104049529Y-39685883D01*
X103483985Y-39599788D01*
X103496528Y-39535112D01*
X103510983Y-39471949D01*
X103527351Y-39410300D01*
X103545631Y-39350164D01*
X103565825Y-39291542D01*
X103587931Y-39234433D01*
X103611949Y-39178837D01*
X103637881Y-39124755D01*
X103665725Y-39072186D01*
X103695482Y-39021131D01*
X103716382Y-38987935D01*
X103749114Y-38939422D01*
X103783334Y-38892463D01*
X103819041Y-38847058D01*
X103856236Y-38803206D01*
X103894918Y-38760908D01*
X103935089Y-38720164D01*
X103976746Y-38680974D01*
X104019892Y-38643337D01*
X104064525Y-38607254D01*
X104110646Y-38572725D01*
X104142219Y-38550569D01*
X104190713Y-38518620D01*
X104240482Y-38488204D01*
X104291526Y-38459321D01*
X104343846Y-38431973D01*
X104397440Y-38406157D01*
X104452310Y-38381876D01*
X104508454Y-38359128D01*
X104565874Y-38337913D01*
X104624569Y-38318232D01*
X104684539Y-38300085D01*
X104725227Y-38288839D01*
X104787385Y-38273247D01*
X104850441Y-38259189D01*
X104914393Y-38246665D01*
X104979243Y-38235675D01*
X105044991Y-38226218D01*
X105111635Y-38218294D01*
X105179177Y-38211904D01*
X105247617Y-38207048D01*
X105316953Y-38203725D01*
X105387187Y-38201936D01*
X105434508Y-38201595D01*
X105508438Y-38202493D01*
X105581116Y-38205187D01*
X105652542Y-38209677D01*
X105722717Y-38215962D01*
X105791640Y-38224044D01*
X105859312Y-38233921D01*
X105925732Y-38245595D01*
X105990901Y-38259064D01*
X106054818Y-38274329D01*
X106117484Y-38291390D01*
X106158566Y-38303762D01*
X106219186Y-38323419D01*
X106278128Y-38344509D01*
X106335395Y-38367032D01*
X106390984Y-38390987D01*
X106444897Y-38416376D01*
X106497134Y-38443196D01*
X106547694Y-38471450D01*
X106596578Y-38501136D01*
X106643785Y-38532255D01*
X106689315Y-38564806D01*
X106718737Y-38587303D01*
X106761391Y-38621977D01*
X106802202Y-38657983D01*
X106841172Y-38695320D01*
X106878300Y-38733989D01*
X106913586Y-38773990D01*
X106947031Y-38815322D01*
X106978633Y-38857987D01*
X107008394Y-38901983D01*
X107036313Y-38947311D01*
X107062390Y-38993971D01*
X107078751Y-39025817D01*
X107101558Y-39074290D01*
X107122121Y-39123710D01*
X107140441Y-39174080D01*
X107156518Y-39225397D01*
X107170351Y-39277663D01*
X107181941Y-39330878D01*
X107191288Y-39385041D01*
X107198392Y-39440152D01*
X107203252Y-39496212D01*
X107205870Y-39553220D01*
X107206368Y-39591752D01*
X107205577Y-39641550D01*
X107203204Y-39690641D01*
X107199249Y-39739026D01*
X107193711Y-39786705D01*
X107186592Y-39833677D01*
X107177890Y-39879944D01*
X107167607Y-39925504D01*
X107155741Y-39970358D01*
X107137459Y-40029064D01*
X107116365Y-40086515D01*
X107093192Y-40142728D01*
X107068004Y-40198296D01*
X107040802Y-40253217D01*
X107011584Y-40307494D01*
X106980352Y-40361124D01*
X106947104Y-40414109D01*
X106911842Y-40466448D01*
X106874564Y-40518141D01*
X106835838Y-40569063D01*
X106795559Y-40619662D01*
X106764331Y-40657399D01*
X106732228Y-40694955D01*
X106699252Y-40732329D01*
X106665403Y-40769522D01*
X106630679Y-40806533D01*
X106595082Y-40843362D01*
X106558611Y-40880010D01*
X106521267Y-40916476D01*
X106483285Y-40952667D01*
X106444901Y-40988918D01*
X106406116Y-41025229D01*
X106366930Y-41061601D01*
X106327342Y-41098034D01*
X106287353Y-41134527D01*
X106246963Y-41171081D01*
X106206171Y-41207695D01*
X106164977Y-41244370D01*
X106123382Y-41281105D01*
X106095429Y-41305629D01*
X104903891Y-42355995D01*
X104965502Y-42340054D01*
X105026916Y-42325234D01*
X105088134Y-42311535D01*
X105149154Y-42298957D01*
X105209978Y-42287500D01*
X105270606Y-42277164D01*
X105294801Y-42273343D01*
X105354694Y-42264414D01*
X105413471Y-42256998D01*
X105471134Y-42251096D01*
X105527681Y-42246707D01*
X105583113Y-42243832D01*
X105637431Y-42242470D01*
X105658845Y-42242349D01*
X106920238Y-42242349D01*
G37*
G36*
X109354362Y-43050500D02*
G01*
X108185660Y-43050500D01*
X108185660Y-38275063D01*
X109354362Y-38275063D01*
X109354362Y-43050500D01*
G37*
G36*
X113147653Y-38202331D02*
G01*
X113227052Y-38204537D01*
X113305537Y-38208214D01*
X113383109Y-38213362D01*
X113459769Y-38219980D01*
X113535515Y-38228070D01*
X113610348Y-38237630D01*
X113684268Y-38248661D01*
X113757276Y-38261162D01*
X113829370Y-38275135D01*
X113900551Y-38290578D01*
X113970819Y-38307493D01*
X114040174Y-38325878D01*
X114108616Y-38345733D01*
X114176144Y-38367060D01*
X114242760Y-38389857D01*
X114308484Y-38413807D01*
X114373001Y-38438878D01*
X114436311Y-38465070D01*
X114498414Y-38492383D01*
X114559310Y-38520817D01*
X114618999Y-38550372D01*
X114677481Y-38581048D01*
X114734757Y-38612845D01*
X114790825Y-38645763D01*
X114845687Y-38679802D01*
X114899342Y-38714963D01*
X114951790Y-38751244D01*
X115003030Y-38788646D01*
X115053064Y-38827169D01*
X115101892Y-38866814D01*
X115149512Y-38907579D01*
X115196030Y-38949232D01*
X115241215Y-38991827D01*
X115285068Y-39035364D01*
X115327588Y-39079842D01*
X115368775Y-39125262D01*
X115408629Y-39171624D01*
X115447150Y-39218927D01*
X115484338Y-39267172D01*
X115520194Y-39316358D01*
X115554716Y-39366487D01*
X115587906Y-39417556D01*
X115619763Y-39469568D01*
X115650287Y-39522521D01*
X115679479Y-39576416D01*
X115707337Y-39631253D01*
X115733863Y-39687031D01*
X115759077Y-39743572D01*
X115782664Y-39800695D01*
X115804624Y-39858402D01*
X115824958Y-39916691D01*
X115843665Y-39975564D01*
X115860745Y-40035019D01*
X115876199Y-40095057D01*
X115890026Y-40155678D01*
X115902226Y-40216882D01*
X115912799Y-40278669D01*
X115921746Y-40341039D01*
X115929066Y-40403992D01*
X115934760Y-40467528D01*
X115938826Y-40531647D01*
X115941266Y-40596349D01*
X115942080Y-40661633D01*
X115941266Y-40727205D01*
X115938826Y-40792194D01*
X115934760Y-40856600D01*
X115929066Y-40920423D01*
X115921746Y-40983662D01*
X115912799Y-41046319D01*
X115902226Y-41108393D01*
X115890026Y-41169885D01*
X115876199Y-41230793D01*
X115860745Y-41291118D01*
X115843665Y-41350860D01*
X115824958Y-41410020D01*
X115804624Y-41468596D01*
X115782664Y-41526589D01*
X115759077Y-41584000D01*
X115733863Y-41640827D01*
X115707337Y-41696740D01*
X115679479Y-41751694D01*
X115650287Y-41805687D01*
X115619763Y-41858721D01*
X115587906Y-41910795D01*
X115554716Y-41961910D01*
X115520194Y-42012065D01*
X115484338Y-42061261D01*
X115447150Y-42109497D01*
X115408629Y-42156773D01*
X115368775Y-42203090D01*
X115327588Y-42248447D01*
X115285068Y-42292845D01*
X115241215Y-42336283D01*
X115196030Y-42378761D01*
X115149512Y-42420280D01*
X115101892Y-42460772D01*
X115053064Y-42500169D01*
X115003030Y-42538473D01*
X114951790Y-42575682D01*
X114899342Y-42611798D01*
X114845687Y-42646819D01*
X114790825Y-42680746D01*
X114734757Y-42713579D01*
X114677481Y-42745317D01*
X114618999Y-42775962D01*
X114559310Y-42805513D01*
X114498414Y-42833969D01*
X114436311Y-42861331D01*
X114373001Y-42887599D01*
X114308484Y-42912773D01*
X114242760Y-42936853D01*
X114176144Y-42959512D01*
X114108616Y-42980708D01*
X114040174Y-43000443D01*
X113970819Y-43018716D01*
X113900551Y-43035527D01*
X113829370Y-43050876D01*
X113757276Y-43064764D01*
X113684268Y-43077189D01*
X113610348Y-43088153D01*
X113535515Y-43097655D01*
X113459769Y-43105695D01*
X113383109Y-43112273D01*
X113305537Y-43117390D01*
X113227052Y-43121044D01*
X113147653Y-43123237D01*
X113067342Y-43123968D01*
X112987025Y-43123237D01*
X112907611Y-43121044D01*
X112829099Y-43117390D01*
X112751490Y-43112273D01*
X112674783Y-43105695D01*
X112598979Y-43097655D01*
X112524078Y-43088153D01*
X112450079Y-43077189D01*
X112376982Y-43064764D01*
X112304789Y-43050876D01*
X112233497Y-43035527D01*
X112163109Y-43018716D01*
X112093623Y-43000443D01*
X112025039Y-42980708D01*
X111957358Y-42959512D01*
X111890579Y-42936853D01*
X111825003Y-42912773D01*
X111760591Y-42887599D01*
X111697344Y-42861331D01*
X111635262Y-42833969D01*
X111574345Y-42805513D01*
X111514592Y-42775962D01*
X111456005Y-42745317D01*
X111398583Y-42713579D01*
X111342325Y-42680746D01*
X111287233Y-42646819D01*
X111233305Y-42611798D01*
X111180543Y-42575682D01*
X111128945Y-42538473D01*
X111078512Y-42500169D01*
X111029244Y-42460772D01*
X110981141Y-42420280D01*
X110934460Y-42378761D01*
X110889123Y-42336283D01*
X110845129Y-42292845D01*
X110802478Y-42248447D01*
X110761170Y-42203090D01*
X110721206Y-42156773D01*
X110682585Y-42109497D01*
X110645307Y-42061261D01*
X110609373Y-42012065D01*
X110574782Y-41961910D01*
X110541535Y-41910795D01*
X110509630Y-41858721D01*
X110479070Y-41805687D01*
X110449852Y-41751694D01*
X110421978Y-41696740D01*
X110395447Y-41640827D01*
X110370396Y-41584000D01*
X110346961Y-41526589D01*
X110325142Y-41468596D01*
X110304940Y-41410020D01*
X110286353Y-41350860D01*
X110269383Y-41291118D01*
X110254029Y-41230793D01*
X110240292Y-41169885D01*
X110228170Y-41108393D01*
X110217665Y-41046319D01*
X110208776Y-40983662D01*
X110201503Y-40920423D01*
X110195846Y-40856600D01*
X110191806Y-40792194D01*
X110189381Y-40727205D01*
X110188587Y-40662781D01*
X111376082Y-40662781D01*
X111376533Y-40711103D01*
X111377887Y-40758778D01*
X111380143Y-40805808D01*
X111383302Y-40852192D01*
X111389733Y-40920557D01*
X111398194Y-40987469D01*
X111408687Y-41052929D01*
X111421210Y-41116936D01*
X111435763Y-41179490D01*
X111452348Y-41240591D01*
X111470963Y-41300239D01*
X111491609Y-41358434D01*
X111514407Y-41414880D01*
X111538977Y-41469712D01*
X111565318Y-41522930D01*
X111593429Y-41574534D01*
X111623312Y-41624523D01*
X111654966Y-41672898D01*
X111688390Y-41719659D01*
X111723586Y-41764805D01*
X111760553Y-41808337D01*
X111799290Y-41850255D01*
X111826099Y-41877303D01*
X111867982Y-41916255D01*
X111911517Y-41953471D01*
X111956705Y-41988952D01*
X112003546Y-42022697D01*
X112052040Y-42054707D01*
X112102186Y-42084982D01*
X112153986Y-42113521D01*
X112207439Y-42140325D01*
X112262544Y-42165394D01*
X112319303Y-42188727D01*
X112358060Y-42203319D01*
X112417708Y-42223423D01*
X112478772Y-42241551D01*
X112541252Y-42257700D01*
X112605150Y-42271872D01*
X112670465Y-42284067D01*
X112737196Y-42294284D01*
X112805344Y-42302524D01*
X112874909Y-42308786D01*
X112945890Y-42313070D01*
X113018289Y-42315378D01*
X113067342Y-42315817D01*
X113140421Y-42314828D01*
X113212060Y-42311862D01*
X113282258Y-42306918D01*
X113351016Y-42299997D01*
X113418334Y-42291098D01*
X113484211Y-42280222D01*
X113548648Y-42267368D01*
X113611644Y-42252537D01*
X113673200Y-42235728D01*
X113733316Y-42216942D01*
X113772593Y-42203319D01*
X113830213Y-42181142D01*
X113886204Y-42157231D01*
X113940566Y-42131584D01*
X113993299Y-42104201D01*
X114044402Y-42075083D01*
X114093876Y-42044230D01*
X114141720Y-42011642D01*
X114187935Y-41977318D01*
X114232521Y-41941259D01*
X114275478Y-41903464D01*
X114303210Y-41877303D01*
X114343357Y-41836462D01*
X114381685Y-41794006D01*
X114418195Y-41749936D01*
X114452887Y-41704251D01*
X114485761Y-41656952D01*
X114516816Y-41608039D01*
X114546054Y-41557512D01*
X114573473Y-41505370D01*
X114599073Y-41451614D01*
X114622856Y-41396244D01*
X114637701Y-41358434D01*
X114658347Y-41300239D01*
X114676962Y-41240591D01*
X114693546Y-41179490D01*
X114708100Y-41116936D01*
X114720623Y-41052929D01*
X114731115Y-40987469D01*
X114739577Y-40920557D01*
X114746007Y-40852192D01*
X114749166Y-40805808D01*
X114751423Y-40758778D01*
X114752776Y-40711103D01*
X114753228Y-40662781D01*
X114752776Y-40614882D01*
X114751423Y-40567610D01*
X114749166Y-40520966D01*
X114746007Y-40474950D01*
X114739577Y-40407102D01*
X114731115Y-40340667D01*
X114720623Y-40275645D01*
X114708100Y-40212035D01*
X114693546Y-40149838D01*
X114676962Y-40089053D01*
X114658347Y-40029681D01*
X114637701Y-39971721D01*
X114615131Y-39915059D01*
X114590742Y-39860012D01*
X114564535Y-39806579D01*
X114536510Y-39754760D01*
X114506667Y-39704555D01*
X114475005Y-39655965D01*
X114441525Y-39608989D01*
X114406227Y-39563628D01*
X114369111Y-39519880D01*
X114330177Y-39477747D01*
X114303210Y-39450555D01*
X114261340Y-39411204D01*
X114217840Y-39373648D01*
X114172711Y-39337888D01*
X114125953Y-39303924D01*
X114077565Y-39271756D01*
X114027548Y-39241383D01*
X113975902Y-39212807D01*
X113922627Y-39186027D01*
X113867722Y-39161042D01*
X113811187Y-39137853D01*
X113772593Y-39123392D01*
X113713437Y-39103082D01*
X113652842Y-39084770D01*
X113590806Y-39068456D01*
X113527329Y-39054139D01*
X113462412Y-39041820D01*
X113396055Y-39031498D01*
X113328257Y-39023175D01*
X113259019Y-39016849D01*
X113188340Y-39012520D01*
X113116221Y-39010190D01*
X113067342Y-39009746D01*
X112993999Y-39010745D01*
X112922072Y-39013741D01*
X112851563Y-39018735D01*
X112782470Y-39025727D01*
X112714795Y-39034717D01*
X112648536Y-39045704D01*
X112583693Y-39058689D01*
X112520268Y-39073672D01*
X112458259Y-39090652D01*
X112397668Y-39109630D01*
X112358060Y-39123392D01*
X112300200Y-39145383D01*
X112243992Y-39169171D01*
X112189438Y-39194754D01*
X112136536Y-39222133D01*
X112085287Y-39251308D01*
X112035691Y-39282279D01*
X111987748Y-39315046D01*
X111941458Y-39349608D01*
X111896821Y-39385967D01*
X111853837Y-39424121D01*
X111826099Y-39450555D01*
X111786181Y-39491612D01*
X111748034Y-39534283D01*
X111711657Y-39578569D01*
X111677052Y-39624468D01*
X111644218Y-39671982D01*
X111613154Y-39721111D01*
X111583862Y-39771853D01*
X111556341Y-39824210D01*
X111530590Y-39878181D01*
X111506611Y-39933767D01*
X111491609Y-39971721D01*
X111470963Y-40029681D01*
X111452348Y-40089053D01*
X111435763Y-40149838D01*
X111421210Y-40212035D01*
X111408687Y-40275645D01*
X111398194Y-40340667D01*
X111389733Y-40407102D01*
X111383302Y-40474950D01*
X111380143Y-40520966D01*
X111377887Y-40567610D01*
X111376533Y-40614882D01*
X111376082Y-40662781D01*
X110188587Y-40662781D01*
X110188573Y-40661633D01*
X110189381Y-40595932D01*
X110191806Y-40530840D01*
X110195846Y-40466358D01*
X110201503Y-40402486D01*
X110208776Y-40339223D01*
X110217665Y-40276571D01*
X110228170Y-40214528D01*
X110240292Y-40153095D01*
X110254029Y-40092272D01*
X110269383Y-40032059D01*
X110286353Y-39972456D01*
X110304940Y-39913463D01*
X110325142Y-39855079D01*
X110346961Y-39797305D01*
X110370396Y-39740141D01*
X110395447Y-39683587D01*
X110421978Y-39627814D01*
X110449852Y-39572990D01*
X110479070Y-39519118D01*
X110509630Y-39466196D01*
X110541535Y-39414225D01*
X110574782Y-39363204D01*
X110609373Y-39313134D01*
X110645307Y-39264015D01*
X110682585Y-39215846D01*
X110721206Y-39168628D01*
X110761170Y-39122361D01*
X110802478Y-39077044D01*
X110845129Y-39032678D01*
X110889123Y-38989262D01*
X110934460Y-38946797D01*
X110981141Y-38905283D01*
X111029244Y-38864796D01*
X111078512Y-38825412D01*
X111128945Y-38787130D01*
X111180543Y-38749952D01*
X111233305Y-38713877D01*
X111287233Y-38678906D01*
X111342325Y-38645037D01*
X111398583Y-38612271D01*
X111456005Y-38580609D01*
X111514592Y-38550049D01*
X111574345Y-38520593D01*
X111635262Y-38492240D01*
X111697344Y-38464989D01*
X111760591Y-38438842D01*
X111825003Y-38413798D01*
X111890579Y-38389857D01*
X111957358Y-38367060D01*
X112025039Y-38345733D01*
X112093623Y-38325878D01*
X112163109Y-38307493D01*
X112233497Y-38290578D01*
X112304789Y-38275135D01*
X112376982Y-38261162D01*
X112450079Y-38248661D01*
X112524078Y-38237630D01*
X112598979Y-38228070D01*
X112674783Y-38219980D01*
X112751490Y-38213362D01*
X112829099Y-38208214D01*
X112907611Y-38204537D01*
X112987025Y-38202331D01*
X113067342Y-38201595D01*
X113147653Y-38202331D01*
G37*
G36*
X121570656Y-38275063D02*
G01*
X121570656Y-43050500D01*
X120970185Y-43050500D01*
X120912884Y-43048687D01*
X120852433Y-43042176D01*
X120797357Y-43030930D01*
X120741818Y-43012617D01*
X120689999Y-42986950D01*
X120644472Y-42956817D01*
X120605050Y-42924800D01*
X120566013Y-42887510D01*
X120560468Y-42881752D01*
X117763643Y-39840855D01*
X117768088Y-39890968D01*
X117772018Y-39940861D01*
X117775434Y-39990534D01*
X117778336Y-40039987D01*
X117779763Y-40068148D01*
X117782380Y-40116597D01*
X117784354Y-40163508D01*
X117785824Y-40215237D01*
X117786453Y-40264957D01*
X117786480Y-40277073D01*
X117786480Y-43050500D01*
X116761515Y-43050500D01*
X116761515Y-38275063D01*
X117372732Y-38275063D01*
X117428994Y-38276011D01*
X117484544Y-38279458D01*
X117497663Y-38280803D01*
X117550673Y-38289570D01*
X117593039Y-38303762D01*
X117639699Y-38327129D01*
X117673639Y-38350827D01*
X117711932Y-38383097D01*
X117747985Y-38418000D01*
X117759613Y-38430035D01*
X120575245Y-41485855D01*
X120569939Y-41438826D01*
X120565107Y-41392442D01*
X120560065Y-41339143D01*
X120555666Y-41286723D01*
X120552408Y-41242492D01*
X120549267Y-41191814D01*
X120546898Y-41142235D01*
X120545300Y-41093755D01*
X120544474Y-41046373D01*
X120544348Y-41019791D01*
X120544348Y-38275063D01*
X121570656Y-38275063D01*
G37*
G36*
X128363905Y-41904854D02*
G01*
X128421338Y-41910795D01*
X128472736Y-41928620D01*
X128518100Y-41958327D01*
X128526448Y-41965695D01*
X128987212Y-42395025D01*
X128943921Y-42439122D01*
X128899350Y-42481874D01*
X128853498Y-42523281D01*
X128806366Y-42563342D01*
X128757953Y-42602058D01*
X128708260Y-42639429D01*
X128657287Y-42675454D01*
X128605033Y-42710135D01*
X128551499Y-42743470D01*
X128496685Y-42775460D01*
X128440590Y-42806105D01*
X128383215Y-42835404D01*
X128324560Y-42863358D01*
X128264624Y-42889967D01*
X128203408Y-42915231D01*
X128140911Y-42939149D01*
X128077186Y-42961530D01*
X128011951Y-42982466D01*
X127945204Y-43001959D01*
X127876945Y-43020007D01*
X127807176Y-43036612D01*
X127735895Y-43051773D01*
X127663103Y-43065490D01*
X127588800Y-43077763D01*
X127512985Y-43088592D01*
X127435660Y-43097978D01*
X127356823Y-43105919D01*
X127276474Y-43112417D01*
X127194615Y-43117470D01*
X127111244Y-43121080D01*
X127026362Y-43123246D01*
X126939969Y-43123968D01*
X126861709Y-43123250D01*
X126784436Y-43121098D01*
X126708149Y-43117511D01*
X126632849Y-43112488D01*
X126558535Y-43106031D01*
X126485208Y-43098139D01*
X126412867Y-43088812D01*
X126341513Y-43078050D01*
X126271145Y-43065853D01*
X126201764Y-43052221D01*
X126133369Y-43037155D01*
X126065961Y-43020653D01*
X125999539Y-43002716D01*
X125934104Y-42983345D01*
X125869656Y-42962538D01*
X125806194Y-42940297D01*
X125743980Y-42916634D01*
X125682943Y-42891850D01*
X125623080Y-42865946D01*
X125564393Y-42838920D01*
X125506882Y-42810773D01*
X125450545Y-42781505D01*
X125395385Y-42751115D01*
X125341399Y-42719605D01*
X125288590Y-42686974D01*
X125236955Y-42653222D01*
X125186496Y-42618349D01*
X125137212Y-42582355D01*
X125089104Y-42545239D01*
X125042171Y-42507003D01*
X124996414Y-42467646D01*
X124951832Y-42427167D01*
X124908473Y-42385649D01*
X124866383Y-42343170D01*
X124825564Y-42299732D01*
X124786014Y-42255335D01*
X124747734Y-42209978D01*
X124710724Y-42163661D01*
X124674984Y-42116385D01*
X124640514Y-42068149D01*
X124607314Y-42018953D01*
X124575383Y-41968798D01*
X124544723Y-41917683D01*
X124515332Y-41865609D01*
X124487211Y-41812575D01*
X124460360Y-41758581D01*
X124434779Y-41703628D01*
X124410468Y-41647715D01*
X124387531Y-41590861D01*
X124366075Y-41533369D01*
X124346098Y-41475241D01*
X124327601Y-41416477D01*
X124310583Y-41357075D01*
X124295046Y-41297037D01*
X124280988Y-41236362D01*
X124268410Y-41175050D01*
X124257312Y-41113102D01*
X124247693Y-41050517D01*
X124239555Y-40987295D01*
X124232896Y-40923436D01*
X124227716Y-40858940D01*
X124224017Y-40793808D01*
X124221797Y-40728039D01*
X124221057Y-40661633D01*
X124221849Y-40594576D01*
X124224222Y-40528145D01*
X124228177Y-40462339D01*
X124233714Y-40397159D01*
X124240834Y-40332604D01*
X124249535Y-40268674D01*
X124259819Y-40205371D01*
X124271684Y-40142692D01*
X124285132Y-40080640D01*
X124300162Y-40019212D01*
X124311061Y-39978608D01*
X124328909Y-39918365D01*
X124348197Y-39859030D01*
X124368925Y-39800602D01*
X124391094Y-39743083D01*
X124414704Y-39686472D01*
X124439754Y-39630769D01*
X124466244Y-39575974D01*
X124494174Y-39522086D01*
X124523545Y-39469107D01*
X124554357Y-39417036D01*
X124575698Y-39382827D01*
X124609068Y-39332289D01*
X124643689Y-39282700D01*
X124679561Y-39234060D01*
X124716685Y-39186367D01*
X124755061Y-39139624D01*
X124794688Y-39093828D01*
X124835567Y-39048981D01*
X124877697Y-39005082D01*
X124921078Y-38962132D01*
X124965711Y-38920130D01*
X124996162Y-38892656D01*
X125042810Y-38852120D01*
X125090568Y-38812735D01*
X125139436Y-38774500D01*
X125189414Y-38737415D01*
X125240501Y-38701480D01*
X125292698Y-38666695D01*
X125346005Y-38633061D01*
X125400422Y-38600576D01*
X125455949Y-38569242D01*
X125512586Y-38539058D01*
X125550960Y-38519575D01*
X125609627Y-38491163D01*
X125669263Y-38464043D01*
X125729866Y-38438215D01*
X125791438Y-38413677D01*
X125853978Y-38390431D01*
X125917486Y-38368477D01*
X125981962Y-38347814D01*
X126047406Y-38328443D01*
X126113819Y-38310363D01*
X126181199Y-38293574D01*
X126226658Y-38283099D01*
X126295593Y-38268533D01*
X126365378Y-38255400D01*
X126436013Y-38243700D01*
X126507499Y-38233433D01*
X126579834Y-38224598D01*
X126653020Y-38217195D01*
X126727055Y-38211226D01*
X126801941Y-38206689D01*
X126877677Y-38203585D01*
X126954263Y-38201913D01*
X127005792Y-38201595D01*
X127063680Y-38201989D01*
X127120978Y-38203169D01*
X127177685Y-38205136D01*
X127233803Y-38207891D01*
X127289329Y-38211432D01*
X127344266Y-38215761D01*
X127398612Y-38220876D01*
X127452367Y-38226778D01*
X127505533Y-38233467D01*
X127575502Y-38243610D01*
X127592830Y-38246365D01*
X127661424Y-38258113D01*
X127728843Y-38270974D01*
X127795086Y-38284946D01*
X127860154Y-38300031D01*
X127924046Y-38316228D01*
X127986763Y-38333537D01*
X128048305Y-38351957D01*
X128108671Y-38371490D01*
X128168197Y-38392100D01*
X128226549Y-38413749D01*
X128283724Y-38436439D01*
X128339725Y-38460169D01*
X128394550Y-38484939D01*
X128448199Y-38510750D01*
X128500673Y-38537601D01*
X128551972Y-38565493D01*
X128602053Y-38594227D01*
X128650875Y-38623607D01*
X128698437Y-38653633D01*
X128744740Y-38684304D01*
X128789784Y-38715622D01*
X128833568Y-38747585D01*
X128876093Y-38780193D01*
X128917359Y-38813448D01*
X128526448Y-39271476D01*
X128492288Y-39307668D01*
X128450928Y-39339905D01*
X128437788Y-39348389D01*
X128387479Y-39369943D01*
X128334519Y-39379598D01*
X128290021Y-39381679D01*
X128231827Y-39376074D01*
X128179004Y-39361444D01*
X128125756Y-39337734D01*
X128101954Y-39324282D01*
X128052251Y-39294722D01*
X128004352Y-39267445D01*
X127952340Y-39238850D01*
X127904484Y-39213290D01*
X127870900Y-39195712D01*
X127817062Y-39169507D01*
X127768445Y-39148409D01*
X127716417Y-39127984D01*
X127660978Y-39108231D01*
X127602128Y-39089151D01*
X127539868Y-39070744D01*
X127527007Y-39067143D01*
X127473546Y-39053690D01*
X127416601Y-39042032D01*
X127356172Y-39032167D01*
X127292259Y-39024095D01*
X127224861Y-39017817D01*
X127153979Y-39013333D01*
X127098531Y-39011147D01*
X127041123Y-39009970D01*
X127001762Y-39009746D01*
X126936279Y-39010725D01*
X126871810Y-39013660D01*
X126808357Y-39018554D01*
X126745920Y-39025404D01*
X126684498Y-39034212D01*
X126624091Y-39044978D01*
X126564699Y-39057700D01*
X126506323Y-39072380D01*
X126448963Y-39089018D01*
X126392617Y-39107612D01*
X126355618Y-39121096D01*
X126301429Y-39142852D01*
X126248681Y-39166364D01*
X126197373Y-39191631D01*
X126147506Y-39218653D01*
X126099079Y-39247431D01*
X126052092Y-39277965D01*
X126006546Y-39310254D01*
X125962440Y-39344299D01*
X125919775Y-39380099D01*
X125878550Y-39417655D01*
X125851867Y-39443668D01*
X125813149Y-39483914D01*
X125776084Y-39525876D01*
X125740672Y-39569552D01*
X125706913Y-39614944D01*
X125674806Y-39662051D01*
X125644353Y-39710873D01*
X125615553Y-39761411D01*
X125588405Y-39813664D01*
X125562911Y-39867631D01*
X125539069Y-39923314D01*
X125524093Y-39961389D01*
X125503447Y-40019605D01*
X125484832Y-40079313D01*
X125468248Y-40140515D01*
X125453694Y-40203210D01*
X125441171Y-40267399D01*
X125430679Y-40333080D01*
X125422217Y-40400255D01*
X125415787Y-40468923D01*
X125412628Y-40515531D01*
X125410371Y-40562803D01*
X125409017Y-40610738D01*
X125408566Y-40659338D01*
X125409054Y-40708363D01*
X125410518Y-40756715D01*
X125412958Y-40804395D01*
X125416374Y-40851403D01*
X125420766Y-40897737D01*
X125429185Y-40965978D01*
X125439799Y-41032706D01*
X125452609Y-41097920D01*
X125467615Y-41161620D01*
X125484818Y-41223808D01*
X125504216Y-41284481D01*
X125525810Y-41343642D01*
X125533496Y-41363026D01*
X125557987Y-41420077D01*
X125584108Y-41475434D01*
X125611857Y-41529096D01*
X125641236Y-41581063D01*
X125672244Y-41631335D01*
X125704882Y-41679911D01*
X125739149Y-41726793D01*
X125775045Y-41771980D01*
X125812570Y-41815472D01*
X125851725Y-41857268D01*
X125878734Y-41884191D01*
X125920427Y-41923112D01*
X125963395Y-41960238D01*
X126007639Y-41995567D01*
X126053157Y-42029101D01*
X126099951Y-42060838D01*
X126148020Y-42090780D01*
X126197364Y-42118926D01*
X126247983Y-42145276D01*
X126299877Y-42169830D01*
X126353047Y-42192588D01*
X126389201Y-42206763D01*
X126444224Y-42226252D01*
X126499979Y-42243824D01*
X126556466Y-42259479D01*
X126613685Y-42273218D01*
X126671636Y-42285039D01*
X126730319Y-42294943D01*
X126789734Y-42302931D01*
X126849881Y-42309001D01*
X126910761Y-42313155D01*
X126972372Y-42315391D01*
X127013852Y-42315817D01*
X127074644Y-42315425D01*
X127133598Y-42314248D01*
X127190716Y-42312286D01*
X127245998Y-42309539D01*
X127309911Y-42305208D01*
X127371180Y-42299746D01*
X127430780Y-42292482D01*
X127488680Y-42283603D01*
X127544879Y-42273110D01*
X127599379Y-42261003D01*
X127652178Y-42247281D01*
X127669400Y-42242349D01*
X127720263Y-42226085D01*
X127770087Y-42208287D01*
X127818872Y-42188956D01*
X127874475Y-42164465D01*
X127928664Y-42137886D01*
X127974552Y-42112609D01*
X128020535Y-42084991D01*
X128066613Y-42055033D01*
X128112785Y-42022733D01*
X128159051Y-41988093D01*
X128174494Y-41976026D01*
X128218153Y-41947902D01*
X128263154Y-41925517D01*
X128315005Y-41909394D01*
X128363905Y-41904854D01*
G37*
G36*
X132120926Y-38202331D02*
G01*
X132200324Y-38204537D01*
X132278810Y-38208214D01*
X132356382Y-38213362D01*
X132433042Y-38219980D01*
X132508788Y-38228070D01*
X132583621Y-38237630D01*
X132657541Y-38248661D01*
X132730548Y-38261162D01*
X132802643Y-38275135D01*
X132873824Y-38290578D01*
X132944092Y-38307493D01*
X133013447Y-38325878D01*
X133081888Y-38345733D01*
X133149417Y-38367060D01*
X133216033Y-38389857D01*
X133281757Y-38413807D01*
X133346274Y-38438878D01*
X133409584Y-38465070D01*
X133471687Y-38492383D01*
X133532583Y-38520817D01*
X133592272Y-38550372D01*
X133650754Y-38581048D01*
X133708030Y-38612845D01*
X133764098Y-38645763D01*
X133818960Y-38679802D01*
X133872615Y-38714963D01*
X133925062Y-38751244D01*
X133976303Y-38788646D01*
X134026337Y-38827169D01*
X134075164Y-38866814D01*
X134122785Y-38907579D01*
X134169303Y-38949232D01*
X134214488Y-38991827D01*
X134258341Y-39035364D01*
X134300861Y-39079842D01*
X134342047Y-39125262D01*
X134381901Y-39171624D01*
X134420423Y-39218927D01*
X134457611Y-39267172D01*
X134493467Y-39316358D01*
X134527989Y-39366487D01*
X134561179Y-39417556D01*
X134593036Y-39469568D01*
X134623560Y-39522521D01*
X134652752Y-39576416D01*
X134680610Y-39631253D01*
X134707136Y-39687031D01*
X134732349Y-39743572D01*
X134755937Y-39800695D01*
X134777897Y-39858402D01*
X134798231Y-39916691D01*
X134816938Y-39975564D01*
X134834018Y-40035019D01*
X134849472Y-40095057D01*
X134863298Y-40155678D01*
X134875499Y-40216882D01*
X134886072Y-40278669D01*
X134895019Y-40341039D01*
X134902339Y-40403992D01*
X134908033Y-40467528D01*
X134912099Y-40531647D01*
X134914539Y-40596349D01*
X134915353Y-40661633D01*
X134914539Y-40727205D01*
X134912099Y-40792194D01*
X134908033Y-40856600D01*
X134902339Y-40920423D01*
X134895019Y-40983662D01*
X134886072Y-41046319D01*
X134875499Y-41108393D01*
X134863298Y-41169885D01*
X134849472Y-41230793D01*
X134834018Y-41291118D01*
X134816938Y-41350860D01*
X134798231Y-41410020D01*
X134777897Y-41468596D01*
X134755937Y-41526589D01*
X134732349Y-41584000D01*
X134707136Y-41640827D01*
X134680610Y-41696740D01*
X134652752Y-41751694D01*
X134623560Y-41805687D01*
X134593036Y-41858721D01*
X134561179Y-41910795D01*
X134527989Y-41961910D01*
X134493467Y-42012065D01*
X134457611Y-42061261D01*
X134420423Y-42109497D01*
X134381901Y-42156773D01*
X134342047Y-42203090D01*
X134300861Y-42248447D01*
X134258341Y-42292845D01*
X134214488Y-42336283D01*
X134169303Y-42378761D01*
X134122785Y-42420280D01*
X134075164Y-42460772D01*
X134026337Y-42500169D01*
X133976303Y-42538473D01*
X133925062Y-42575682D01*
X133872615Y-42611798D01*
X133818960Y-42646819D01*
X133764098Y-42680746D01*
X133708030Y-42713579D01*
X133650754Y-42745317D01*
X133592272Y-42775962D01*
X133532583Y-42805513D01*
X133471687Y-42833969D01*
X133409584Y-42861331D01*
X133346274Y-42887599D01*
X133281757Y-42912773D01*
X133216033Y-42936853D01*
X133149417Y-42959512D01*
X133081888Y-42980708D01*
X133013447Y-43000443D01*
X132944092Y-43018716D01*
X132873824Y-43035527D01*
X132802643Y-43050876D01*
X132730548Y-43064764D01*
X132657541Y-43077189D01*
X132583621Y-43088153D01*
X132508788Y-43097655D01*
X132433042Y-43105695D01*
X132356382Y-43112273D01*
X132278810Y-43117390D01*
X132200324Y-43121044D01*
X132120926Y-43123237D01*
X132040614Y-43123968D01*
X131960298Y-43123237D01*
X131880883Y-43121044D01*
X131802372Y-43117390D01*
X131724763Y-43112273D01*
X131648056Y-43105695D01*
X131572252Y-43097655D01*
X131497351Y-43088153D01*
X131423352Y-43077189D01*
X131350255Y-43064764D01*
X131278061Y-43050876D01*
X131206770Y-43035527D01*
X131136382Y-43018716D01*
X131066895Y-43000443D01*
X130998312Y-42980708D01*
X130930631Y-42959512D01*
X130863852Y-42936853D01*
X130798276Y-42912773D01*
X130733864Y-42887599D01*
X130670617Y-42861331D01*
X130608535Y-42833969D01*
X130547617Y-42805513D01*
X130487865Y-42775962D01*
X130429278Y-42745317D01*
X130371856Y-42713579D01*
X130315598Y-42680746D01*
X130260506Y-42646819D01*
X130206578Y-42611798D01*
X130153815Y-42575682D01*
X130102218Y-42538473D01*
X130051785Y-42500169D01*
X130002517Y-42460772D01*
X129954414Y-42420280D01*
X129907733Y-42378761D01*
X129862396Y-42336283D01*
X129818401Y-42292845D01*
X129775750Y-42248447D01*
X129734443Y-42203090D01*
X129694479Y-42156773D01*
X129655858Y-42109497D01*
X129618580Y-42061261D01*
X129582646Y-42012065D01*
X129548055Y-41961910D01*
X129514807Y-41910795D01*
X129482903Y-41858721D01*
X129452342Y-41805687D01*
X129423125Y-41751694D01*
X129395251Y-41696740D01*
X129368720Y-41640827D01*
X129343669Y-41584000D01*
X129320234Y-41526589D01*
X129298415Y-41468596D01*
X129278213Y-41410020D01*
X129259626Y-41350860D01*
X129242656Y-41291118D01*
X129227302Y-41230793D01*
X129213564Y-41169885D01*
X129201443Y-41108393D01*
X129190938Y-41046319D01*
X129182049Y-40983662D01*
X129174776Y-40920423D01*
X129169119Y-40856600D01*
X129165078Y-40792194D01*
X129162654Y-40727205D01*
X129161860Y-40662781D01*
X130349355Y-40662781D01*
X130349806Y-40711103D01*
X130351160Y-40758778D01*
X130353416Y-40805808D01*
X130356575Y-40852192D01*
X130363006Y-40920557D01*
X130371467Y-40987469D01*
X130381960Y-41052929D01*
X130394482Y-41116936D01*
X130409036Y-41179490D01*
X130425621Y-41240591D01*
X130444236Y-41300239D01*
X130464882Y-41358434D01*
X130487680Y-41414880D01*
X130512250Y-41469712D01*
X130538591Y-41522930D01*
X130566702Y-41574534D01*
X130596585Y-41624523D01*
X130628239Y-41672898D01*
X130661663Y-41719659D01*
X130696859Y-41764805D01*
X130733826Y-41808337D01*
X130772563Y-41850255D01*
X130799372Y-41877303D01*
X130841254Y-41916255D01*
X130884789Y-41953471D01*
X130929978Y-41988952D01*
X130976818Y-42022697D01*
X131025312Y-42054707D01*
X131075459Y-42084982D01*
X131127259Y-42113521D01*
X131180712Y-42140325D01*
X131235817Y-42165394D01*
X131292576Y-42188727D01*
X131331333Y-42203319D01*
X131390980Y-42223423D01*
X131452044Y-42241551D01*
X131514525Y-42257700D01*
X131578423Y-42271872D01*
X131643737Y-42284067D01*
X131710469Y-42294284D01*
X131778617Y-42302524D01*
X131848182Y-42308786D01*
X131919163Y-42313070D01*
X131991562Y-42315378D01*
X132040614Y-42315817D01*
X132113694Y-42314828D01*
X132185333Y-42311862D01*
X132255531Y-42306918D01*
X132324289Y-42299997D01*
X132391607Y-42291098D01*
X132457484Y-42280222D01*
X132521921Y-42267368D01*
X132584917Y-42252537D01*
X132646473Y-42235728D01*
X132706589Y-42216942D01*
X132745866Y-42203319D01*
X132803486Y-42181142D01*
X132859477Y-42157231D01*
X132913839Y-42131584D01*
X132966571Y-42104201D01*
X133017675Y-42075083D01*
X133067148Y-42044230D01*
X133114993Y-42011642D01*
X133161208Y-41977318D01*
X133205794Y-41941259D01*
X133248751Y-41903464D01*
X133276483Y-41877303D01*
X133316630Y-41836462D01*
X133354958Y-41794006D01*
X133391468Y-41749936D01*
X133426160Y-41704251D01*
X133459034Y-41656952D01*
X133490089Y-41608039D01*
X133519327Y-41557512D01*
X133546746Y-41505370D01*
X133572346Y-41451614D01*
X133596129Y-41396244D01*
X133610974Y-41358434D01*
X133631620Y-41300239D01*
X133650235Y-41240591D01*
X133666819Y-41179490D01*
X133681373Y-41116936D01*
X133693896Y-41052929D01*
X133704388Y-40987469D01*
X133712849Y-40920557D01*
X133719280Y-40852192D01*
X133722439Y-40805808D01*
X133724696Y-40758778D01*
X133726049Y-40711103D01*
X133726501Y-40662781D01*
X133726049Y-40614882D01*
X133724696Y-40567610D01*
X133722439Y-40520966D01*
X133719280Y-40474950D01*
X133712849Y-40407102D01*
X133704388Y-40340667D01*
X133693896Y-40275645D01*
X133681373Y-40212035D01*
X133666819Y-40149838D01*
X133650235Y-40089053D01*
X133631620Y-40029681D01*
X133610974Y-39971721D01*
X133588403Y-39915059D01*
X133564015Y-39860012D01*
X133537808Y-39806579D01*
X133509783Y-39754760D01*
X133479939Y-39704555D01*
X133448278Y-39655965D01*
X133414798Y-39608989D01*
X133379500Y-39563628D01*
X133342384Y-39519880D01*
X133303450Y-39477747D01*
X133276483Y-39450555D01*
X133234613Y-39411204D01*
X133191113Y-39373648D01*
X133145984Y-39337888D01*
X133099226Y-39303924D01*
X133050838Y-39271756D01*
X133000821Y-39241383D01*
X132949175Y-39212807D01*
X132895899Y-39186027D01*
X132840994Y-39161042D01*
X132784460Y-39137853D01*
X132745866Y-39123392D01*
X132686710Y-39103082D01*
X132626115Y-39084770D01*
X132564078Y-39068456D01*
X132500602Y-39054139D01*
X132435685Y-39041820D01*
X132369328Y-39031498D01*
X132301530Y-39023175D01*
X132232292Y-39016849D01*
X132161613Y-39012520D01*
X132089494Y-39010190D01*
X132040614Y-39009746D01*
X131967271Y-39010745D01*
X131895345Y-39013741D01*
X131824836Y-39018735D01*
X131755743Y-39025727D01*
X131688067Y-39034717D01*
X131621808Y-39045704D01*
X131556966Y-39058689D01*
X131493541Y-39073672D01*
X131431532Y-39090652D01*
X131370941Y-39109630D01*
X131331333Y-39123392D01*
X131273473Y-39145383D01*
X131217265Y-39169171D01*
X131162710Y-39194754D01*
X131109809Y-39222133D01*
X131058560Y-39251308D01*
X131008964Y-39282279D01*
X130961021Y-39315046D01*
X130914731Y-39349608D01*
X130870094Y-39385967D01*
X130827110Y-39424121D01*
X130799372Y-39450555D01*
X130759454Y-39491612D01*
X130721307Y-39534283D01*
X130684930Y-39578569D01*
X130650325Y-39624468D01*
X130617491Y-39671982D01*
X130586427Y-39721111D01*
X130557135Y-39771853D01*
X130529614Y-39824210D01*
X130503863Y-39878181D01*
X130479884Y-39933767D01*
X130464882Y-39971721D01*
X130444236Y-40029681D01*
X130425621Y-40089053D01*
X130409036Y-40149838D01*
X130394482Y-40212035D01*
X130381960Y-40275645D01*
X130371467Y-40340667D01*
X130363006Y-40407102D01*
X130356575Y-40474950D01*
X130353416Y-40520966D01*
X130351160Y-40567610D01*
X130349806Y-40614882D01*
X130349355Y-40662781D01*
X129161860Y-40662781D01*
X129161846Y-40661633D01*
X129162654Y-40595932D01*
X129165078Y-40530840D01*
X129169119Y-40466358D01*
X129174776Y-40402486D01*
X129182049Y-40339223D01*
X129190938Y-40276571D01*
X129201443Y-40214528D01*
X129213564Y-40153095D01*
X129227302Y-40092272D01*
X129242656Y-40032059D01*
X129259626Y-39972456D01*
X129278213Y-39913463D01*
X129298415Y-39855079D01*
X129320234Y-39797305D01*
X129343669Y-39740141D01*
X129368720Y-39683587D01*
X129395251Y-39627814D01*
X129423125Y-39572990D01*
X129452342Y-39519118D01*
X129482903Y-39466196D01*
X129514807Y-39414225D01*
X129548055Y-39363204D01*
X129582646Y-39313134D01*
X129618580Y-39264015D01*
X129655858Y-39215846D01*
X129694479Y-39168628D01*
X129734443Y-39122361D01*
X129775750Y-39077044D01*
X129818401Y-39032678D01*
X129862396Y-38989262D01*
X129907733Y-38946797D01*
X129954414Y-38905283D01*
X130002517Y-38864796D01*
X130051785Y-38825412D01*
X130102218Y-38787130D01*
X130153815Y-38749952D01*
X130206578Y-38713877D01*
X130260506Y-38678906D01*
X130315598Y-38645037D01*
X130371856Y-38612271D01*
X130429278Y-38580609D01*
X130487865Y-38550049D01*
X130547617Y-38520593D01*
X130608535Y-38492240D01*
X130670617Y-38464989D01*
X130733864Y-38438842D01*
X130798276Y-38413798D01*
X130863852Y-38389857D01*
X130930631Y-38367060D01*
X130998312Y-38345733D01*
X131066895Y-38325878D01*
X131136382Y-38307493D01*
X131206770Y-38290578D01*
X131278061Y-38275135D01*
X131350255Y-38261162D01*
X131423352Y-38248661D01*
X131497351Y-38237630D01*
X131572252Y-38228070D01*
X131648056Y-38219980D01*
X131724763Y-38213362D01*
X131802372Y-38208214D01*
X131880883Y-38204537D01*
X131960298Y-38202331D01*
X132040614Y-38201595D01*
X132120926Y-38202331D01*
G37*
G36*
X140543929Y-38275063D02*
G01*
X140543929Y-43050500D01*
X139943458Y-43050500D01*
X139886156Y-43048687D01*
X139825706Y-43042176D01*
X139770630Y-43030930D01*
X139715091Y-43012617D01*
X139663272Y-42986950D01*
X139617745Y-42956817D01*
X139578323Y-42924800D01*
X139539286Y-42887510D01*
X139533741Y-42881752D01*
X136736916Y-39840855D01*
X136741360Y-39890968D01*
X136745291Y-39940861D01*
X136748707Y-39990534D01*
X136751609Y-40039987D01*
X136753036Y-40068148D01*
X136755653Y-40116597D01*
X136757627Y-40163508D01*
X136759097Y-40215237D01*
X136759726Y-40264957D01*
X136759753Y-40277073D01*
X136759753Y-43050500D01*
X135734787Y-43050500D01*
X135734787Y-38275063D01*
X136346005Y-38275063D01*
X136402267Y-38276011D01*
X136457817Y-38279458D01*
X136470935Y-38280803D01*
X136523946Y-38289570D01*
X136566312Y-38303762D01*
X136612972Y-38327129D01*
X136646912Y-38350827D01*
X136685205Y-38383097D01*
X136721258Y-38418000D01*
X136732886Y-38430035D01*
X139548517Y-41485855D01*
X139543212Y-41438826D01*
X139538379Y-41392442D01*
X139533338Y-41339143D01*
X139528939Y-41286723D01*
X139525681Y-41242492D01*
X139522540Y-41191814D01*
X139520171Y-41142235D01*
X139518573Y-41093755D01*
X139517747Y-41046373D01*
X139517621Y-41019791D01*
X139517621Y-38275063D01*
X140543929Y-38275063D01*
G37*
G36*
X145662038Y-39083214D02*
G01*
X144020482Y-39083214D01*
X144020482Y-43050500D01*
X142857153Y-43050500D01*
X142857153Y-39083214D01*
X141215597Y-39083214D01*
X141215597Y-38275063D01*
X145662038Y-38275063D01*
X145662038Y-39083214D01*
G37*
G36*
X148173073Y-38275467D02*
G01*
X148244622Y-38276678D01*
X148314837Y-38278696D01*
X148383720Y-38281521D01*
X148451270Y-38285153D01*
X148517487Y-38289592D01*
X148582371Y-38294838D01*
X148645922Y-38300892D01*
X148708141Y-38307753D01*
X148769026Y-38315421D01*
X148828579Y-38323896D01*
X148886799Y-38333178D01*
X148943686Y-38343267D01*
X148999241Y-38354164D01*
X149053462Y-38365867D01*
X149106351Y-38378378D01*
X149157980Y-38391611D01*
X149233200Y-38412654D01*
X149305752Y-38435129D01*
X149375636Y-38459038D01*
X149442851Y-38484379D01*
X149507398Y-38511153D01*
X149569277Y-38539359D01*
X149628487Y-38568998D01*
X149685029Y-38600070D01*
X149738903Y-38632574D01*
X149790108Y-38666511D01*
X149838968Y-38701575D01*
X149885302Y-38737890D01*
X149929108Y-38775456D01*
X149970388Y-38814273D01*
X150009142Y-38854341D01*
X150045368Y-38895660D01*
X150079069Y-38938230D01*
X150110242Y-38982052D01*
X150138889Y-39027124D01*
X150165009Y-39073448D01*
X150181019Y-39105025D01*
X150203346Y-39153252D01*
X150223476Y-39202367D01*
X150241410Y-39252370D01*
X150257148Y-39303260D01*
X150270691Y-39355039D01*
X150282037Y-39407705D01*
X150291187Y-39461259D01*
X150298141Y-39515701D01*
X150302899Y-39571031D01*
X150305461Y-39627249D01*
X150305949Y-39665220D01*
X150304711Y-39724232D01*
X150300996Y-39782454D01*
X150294804Y-39839887D01*
X150286135Y-39896531D01*
X150274990Y-39952385D01*
X150261367Y-40007450D01*
X150245268Y-40061726D01*
X150226693Y-40115213D01*
X150205745Y-40167445D01*
X150182530Y-40218528D01*
X150157049Y-40268464D01*
X150129301Y-40317251D01*
X150099286Y-40364891D01*
X150067004Y-40411382D01*
X150032455Y-40456726D01*
X149995639Y-40500922D01*
X149956934Y-40543916D01*
X149916046Y-40585654D01*
X149872975Y-40626137D01*
X149827722Y-40665364D01*
X149780285Y-40703336D01*
X149730666Y-40740052D01*
X149678863Y-40775513D01*
X149624878Y-40809718D01*
X149568815Y-40842488D01*
X149510779Y-40873644D01*
X149450769Y-40903185D01*
X149388787Y-40931113D01*
X149324832Y-40957426D01*
X149275570Y-40976101D01*
X149225199Y-40993868D01*
X149173718Y-41010728D01*
X149121127Y-41026679D01*
X149169723Y-41050825D01*
X149216777Y-41077058D01*
X149262288Y-41105379D01*
X149306256Y-41135787D01*
X149330688Y-41154100D01*
X149372039Y-41187616D01*
X149411461Y-41223878D01*
X149448955Y-41262887D01*
X149484521Y-41304642D01*
X149503978Y-41329735D01*
X150812387Y-43050500D01*
X149763242Y-43050500D01*
X149692549Y-43047486D01*
X149626893Y-43038446D01*
X149566275Y-43023379D01*
X149510695Y-43002286D01*
X149460152Y-42975166D01*
X149414646Y-42942019D01*
X149374178Y-42902846D01*
X149338748Y-42857645D01*
X148270796Y-41380245D01*
X148237045Y-41339636D01*
X148201614Y-41305055D01*
X148159748Y-41273354D01*
X148125716Y-41253971D01*
X148075183Y-41234549D01*
X148020274Y-41222621D01*
X147964515Y-41216304D01*
X147901557Y-41213833D01*
X147891975Y-41213793D01*
X147497034Y-41213793D01*
X147497034Y-43050500D01*
X146336392Y-43050500D01*
X146336392Y-39009746D01*
X147497034Y-39009746D01*
X147497034Y-40552579D01*
X148092132Y-40552579D01*
X148161755Y-40551610D01*
X148228901Y-40548705D01*
X148293570Y-40543862D01*
X148355762Y-40537082D01*
X148415477Y-40528365D01*
X148472716Y-40517710D01*
X148527478Y-40505119D01*
X148579763Y-40490590D01*
X148642187Y-40470070D01*
X148701004Y-40447251D01*
X148756214Y-40422134D01*
X148807815Y-40394719D01*
X148855809Y-40365006D01*
X148900196Y-40332995D01*
X148916940Y-40319547D01*
X148956375Y-40284212D01*
X148992398Y-40247083D01*
X149025011Y-40208161D01*
X149054212Y-40167445D01*
X149080003Y-40124935D01*
X149102384Y-40080632D01*
X149110381Y-40062408D01*
X149128182Y-40015459D01*
X149142967Y-39967165D01*
X149154734Y-39917525D01*
X149163484Y-39866541D01*
X149169217Y-39814211D01*
X149171933Y-39760535D01*
X149172174Y-39738689D01*
X149169836Y-39675254D01*
X149162823Y-39614523D01*
X149151135Y-39556496D01*
X149134771Y-39501172D01*
X149113731Y-39448553D01*
X149088016Y-39398638D01*
X149057626Y-39351427D01*
X149022560Y-39306919D01*
X148982819Y-39265116D01*
X148938402Y-39226016D01*
X148906194Y-39201452D01*
X148854142Y-39167192D01*
X148797226Y-39136302D01*
X148735446Y-39108782D01*
X148668801Y-39084631D01*
X148597292Y-39063850D01*
X148520919Y-39046440D01*
X148467301Y-39036705D01*
X148411521Y-39028467D01*
X148353579Y-39021727D01*
X148293475Y-39016486D01*
X148231209Y-39012741D01*
X148166782Y-39010495D01*
X148100192Y-39009746D01*
X147497034Y-39009746D01*
X146336392Y-39009746D01*
X146336392Y-38275063D01*
X148100192Y-38275063D01*
X148173073Y-38275467D01*
G37*
G36*
X153877590Y-38202331D02*
G01*
X153956989Y-38204537D01*
X154035474Y-38208214D01*
X154113047Y-38213362D01*
X154189706Y-38219980D01*
X154265452Y-38228070D01*
X154340285Y-38237630D01*
X154414206Y-38248661D01*
X154487213Y-38261162D01*
X154559307Y-38275135D01*
X154630488Y-38290578D01*
X154700756Y-38307493D01*
X154770111Y-38325878D01*
X154838553Y-38345733D01*
X154906082Y-38367060D01*
X154972697Y-38389857D01*
X155038421Y-38413807D01*
X155102938Y-38438878D01*
X155166248Y-38465070D01*
X155228351Y-38492383D01*
X155289247Y-38520817D01*
X155348936Y-38550372D01*
X155407419Y-38581048D01*
X155464694Y-38612845D01*
X155520763Y-38645763D01*
X155575624Y-38679802D01*
X155629279Y-38714963D01*
X155681727Y-38751244D01*
X155732968Y-38788646D01*
X155783002Y-38827169D01*
X155831829Y-38866814D01*
X155879449Y-38907579D01*
X155925967Y-38949232D01*
X155971153Y-38991827D01*
X156015005Y-39035364D01*
X156057525Y-39079842D01*
X156098712Y-39125262D01*
X156138566Y-39171624D01*
X156177087Y-39218927D01*
X156214275Y-39267172D01*
X156250131Y-39316358D01*
X156284654Y-39366487D01*
X156317843Y-39417556D01*
X156349700Y-39469568D01*
X156380225Y-39522521D01*
X156409416Y-39576416D01*
X156437274Y-39631253D01*
X156463800Y-39687031D01*
X156489014Y-39743572D01*
X156512601Y-39800695D01*
X156534561Y-39858402D01*
X156554895Y-39916691D01*
X156573602Y-39975564D01*
X156590682Y-40035019D01*
X156606136Y-40095057D01*
X156619963Y-40155678D01*
X156632163Y-40216882D01*
X156642737Y-40278669D01*
X156651683Y-40341039D01*
X156659003Y-40403992D01*
X156664697Y-40467528D01*
X156668764Y-40531647D01*
X156671204Y-40596349D01*
X156672017Y-40661633D01*
X156671204Y-40727205D01*
X156668764Y-40792194D01*
X156664697Y-40856600D01*
X156659003Y-40920423D01*
X156651683Y-40983662D01*
X156642737Y-41046319D01*
X156632163Y-41108393D01*
X156619963Y-41169885D01*
X156606136Y-41230793D01*
X156590682Y-41291118D01*
X156573602Y-41350860D01*
X156554895Y-41410020D01*
X156534561Y-41468596D01*
X156512601Y-41526589D01*
X156489014Y-41584000D01*
X156463800Y-41640827D01*
X156437274Y-41696740D01*
X156409416Y-41751694D01*
X156380225Y-41805687D01*
X156349700Y-41858721D01*
X156317843Y-41910795D01*
X156284654Y-41961910D01*
X156250131Y-42012065D01*
X156214275Y-42061261D01*
X156177087Y-42109497D01*
X156138566Y-42156773D01*
X156098712Y-42203090D01*
X156057525Y-42248447D01*
X156015005Y-42292845D01*
X155971153Y-42336283D01*
X155925967Y-42378761D01*
X155879449Y-42420280D01*
X155831829Y-42460772D01*
X155783002Y-42500169D01*
X155732968Y-42538473D01*
X155681727Y-42575682D01*
X155629279Y-42611798D01*
X155575624Y-42646819D01*
X155520763Y-42680746D01*
X155464694Y-42713579D01*
X155407419Y-42745317D01*
X155348936Y-42775962D01*
X155289247Y-42805513D01*
X155228351Y-42833969D01*
X155166248Y-42861331D01*
X155102938Y-42887599D01*
X155038421Y-42912773D01*
X154972697Y-42936853D01*
X154906082Y-42959512D01*
X154838553Y-42980708D01*
X154770111Y-43000443D01*
X154700756Y-43018716D01*
X154630488Y-43035527D01*
X154559307Y-43050876D01*
X154487213Y-43064764D01*
X154414206Y-43077189D01*
X154340285Y-43088153D01*
X154265452Y-43097655D01*
X154189706Y-43105695D01*
X154113047Y-43112273D01*
X154035474Y-43117390D01*
X153956989Y-43121044D01*
X153877590Y-43123237D01*
X153797279Y-43123968D01*
X153716962Y-43123237D01*
X153637548Y-43121044D01*
X153559036Y-43117390D01*
X153481427Y-43112273D01*
X153404720Y-43105695D01*
X153328916Y-43097655D01*
X153254015Y-43088153D01*
X153180016Y-43077189D01*
X153106920Y-43064764D01*
X153034726Y-43050876D01*
X152963435Y-43035527D01*
X152893046Y-43018716D01*
X152823560Y-43000443D01*
X152754976Y-42980708D01*
X152687295Y-42959512D01*
X152620517Y-42936853D01*
X152554940Y-42912773D01*
X152490528Y-42887599D01*
X152427281Y-42861331D01*
X152365199Y-42833969D01*
X152304282Y-42805513D01*
X152244530Y-42775962D01*
X152185942Y-42745317D01*
X152128520Y-42713579D01*
X152072263Y-42680746D01*
X152017170Y-42646819D01*
X151963242Y-42611798D01*
X151910480Y-42575682D01*
X151858882Y-42538473D01*
X151808449Y-42500169D01*
X151759181Y-42460772D01*
X151711078Y-42420280D01*
X151664398Y-42378761D01*
X151619060Y-42336283D01*
X151575066Y-42292845D01*
X151532415Y-42248447D01*
X151491107Y-42203090D01*
X151451143Y-42156773D01*
X151412522Y-42109497D01*
X151375245Y-42061261D01*
X151339310Y-42012065D01*
X151304719Y-41961910D01*
X151271472Y-41910795D01*
X151239568Y-41858721D01*
X151209007Y-41805687D01*
X151179789Y-41751694D01*
X151151915Y-41696740D01*
X151125384Y-41640827D01*
X151100333Y-41584000D01*
X151076898Y-41526589D01*
X151055079Y-41468596D01*
X151034877Y-41410020D01*
X151016291Y-41350860D01*
X150999320Y-41291118D01*
X150983967Y-41230793D01*
X150970229Y-41169885D01*
X150958107Y-41108393D01*
X150947602Y-41046319D01*
X150938713Y-40983662D01*
X150931440Y-40920423D01*
X150925783Y-40856600D01*
X150921743Y-40792194D01*
X150919318Y-40727205D01*
X150918524Y-40662781D01*
X152106019Y-40662781D01*
X152106470Y-40711103D01*
X152107824Y-40758778D01*
X152110081Y-40805808D01*
X152113240Y-40852192D01*
X152119670Y-40920557D01*
X152128132Y-40987469D01*
X152138624Y-41052929D01*
X152151147Y-41116936D01*
X152165700Y-41179490D01*
X152182285Y-41240591D01*
X152200900Y-41300239D01*
X152221546Y-41358434D01*
X152244345Y-41414880D01*
X152268914Y-41469712D01*
X152295255Y-41522930D01*
X152323367Y-41574534D01*
X152353249Y-41624523D01*
X152384903Y-41672898D01*
X152418328Y-41719659D01*
X152453523Y-41764805D01*
X152490490Y-41808337D01*
X152529228Y-41850255D01*
X152556037Y-41877303D01*
X152597919Y-41916255D01*
X152641454Y-41953471D01*
X152686642Y-41988952D01*
X152733483Y-42022697D01*
X152781977Y-42054707D01*
X152832124Y-42084982D01*
X152883923Y-42113521D01*
X152937376Y-42140325D01*
X152992482Y-42165394D01*
X153049240Y-42188727D01*
X153087997Y-42203319D01*
X153147645Y-42223423D01*
X153208709Y-42241551D01*
X153271190Y-42257700D01*
X153335087Y-42271872D01*
X153400402Y-42284067D01*
X153467133Y-42294284D01*
X153535281Y-42302524D01*
X153604846Y-42308786D01*
X153675828Y-42313070D01*
X153748226Y-42315378D01*
X153797279Y-42315817D01*
X153870358Y-42314828D01*
X153941997Y-42311862D01*
X154012195Y-42306918D01*
X154080953Y-42299997D01*
X154148271Y-42291098D01*
X154214148Y-42280222D01*
X154278585Y-42267368D01*
X154341582Y-42252537D01*
X154403138Y-42235728D01*
X154463253Y-42216942D01*
X154502530Y-42203319D01*
X154560150Y-42181142D01*
X154616141Y-42157231D01*
X154670503Y-42131584D01*
X154723236Y-42104201D01*
X154774339Y-42075083D01*
X154823813Y-42044230D01*
X154871657Y-42011642D01*
X154917873Y-41977318D01*
X154962458Y-41941259D01*
X155005415Y-41903464D01*
X155033148Y-41877303D01*
X155073294Y-41836462D01*
X155111622Y-41794006D01*
X155148133Y-41749936D01*
X155182824Y-41704251D01*
X155215698Y-41656952D01*
X155246754Y-41608039D01*
X155275991Y-41557512D01*
X155303410Y-41505370D01*
X155329011Y-41451614D01*
X155352793Y-41396244D01*
X155367638Y-41358434D01*
X155388284Y-41300239D01*
X155406899Y-41240591D01*
X155423484Y-41179490D01*
X155438037Y-41116936D01*
X155450560Y-41052929D01*
X155461052Y-40987469D01*
X155469514Y-40920557D01*
X155475945Y-40852192D01*
X155479103Y-40805808D01*
X155481360Y-40758778D01*
X155482714Y-40711103D01*
X155483165Y-40662781D01*
X155482714Y-40614882D01*
X155481360Y-40567610D01*
X155479103Y-40520966D01*
X155475945Y-40474950D01*
X155469514Y-40407102D01*
X155461052Y-40340667D01*
X155450560Y-40275645D01*
X155438037Y-40212035D01*
X155423484Y-40149838D01*
X155406899Y-40089053D01*
X155388284Y-40029681D01*
X155367638Y-39971721D01*
X155345068Y-39915059D01*
X155320679Y-39860012D01*
X155294472Y-39806579D01*
X155266447Y-39754760D01*
X155236604Y-39704555D01*
X155204942Y-39655965D01*
X155171463Y-39608989D01*
X155136165Y-39563628D01*
X155099048Y-39519880D01*
X155060114Y-39477747D01*
X155033148Y-39450555D01*
X154991277Y-39411204D01*
X154947777Y-39373648D01*
X154902648Y-39337888D01*
X154855890Y-39303924D01*
X154807503Y-39271756D01*
X154757486Y-39241383D01*
X154705839Y-39212807D01*
X154652564Y-39186027D01*
X154597659Y-39161042D01*
X154541125Y-39137853D01*
X154502530Y-39123392D01*
X154443375Y-39103082D01*
X154382779Y-39084770D01*
X154320743Y-39068456D01*
X154257266Y-39054139D01*
X154192349Y-39041820D01*
X154125992Y-39031498D01*
X154058194Y-39023175D01*
X153988956Y-39016849D01*
X153918277Y-39012520D01*
X153846158Y-39010190D01*
X153797279Y-39009746D01*
X153723936Y-39010745D01*
X153652010Y-39013741D01*
X153581500Y-39018735D01*
X153512408Y-39025727D01*
X153444732Y-39034717D01*
X153378473Y-39045704D01*
X153313631Y-39058689D01*
X153250205Y-39073672D01*
X153188197Y-39090652D01*
X153127605Y-39109630D01*
X153087997Y-39123392D01*
X153030137Y-39145383D01*
X152973929Y-39169171D01*
X152919375Y-39194754D01*
X152866473Y-39222133D01*
X152815224Y-39251308D01*
X152765628Y-39282279D01*
X152717685Y-39315046D01*
X152671396Y-39349608D01*
X152626758Y-39385967D01*
X152583774Y-39424121D01*
X152556037Y-39450555D01*
X152516118Y-39491612D01*
X152477971Y-39534283D01*
X152441595Y-39578569D01*
X152406989Y-39624468D01*
X152374155Y-39671982D01*
X152343092Y-39721111D01*
X152313799Y-39771853D01*
X152286278Y-39824210D01*
X152260528Y-39878181D01*
X152236548Y-39933767D01*
X152221546Y-39971721D01*
X152200900Y-40029681D01*
X152182285Y-40089053D01*
X152165700Y-40149838D01*
X152151147Y-40212035D01*
X152138624Y-40275645D01*
X152128132Y-40340667D01*
X152119670Y-40407102D01*
X152113240Y-40474950D01*
X152110081Y-40520966D01*
X152107824Y-40567610D01*
X152106470Y-40614882D01*
X152106019Y-40662781D01*
X150918524Y-40662781D01*
X150918510Y-40661633D01*
X150919318Y-40595932D01*
X150921743Y-40530840D01*
X150925783Y-40466358D01*
X150931440Y-40402486D01*
X150938713Y-40339223D01*
X150947602Y-40276571D01*
X150958107Y-40214528D01*
X150970229Y-40153095D01*
X150983967Y-40092272D01*
X150999320Y-40032059D01*
X151016291Y-39972456D01*
X151034877Y-39913463D01*
X151055079Y-39855079D01*
X151076898Y-39797305D01*
X151100333Y-39740141D01*
X151125384Y-39683587D01*
X151151915Y-39627814D01*
X151179789Y-39572990D01*
X151209007Y-39519118D01*
X151239568Y-39466196D01*
X151271472Y-39414225D01*
X151304719Y-39363204D01*
X151339310Y-39313134D01*
X151375245Y-39264015D01*
X151412522Y-39215846D01*
X151451143Y-39168628D01*
X151491107Y-39122361D01*
X151532415Y-39077044D01*
X151575066Y-39032678D01*
X151619060Y-38989262D01*
X151664398Y-38946797D01*
X151711078Y-38905283D01*
X151759181Y-38864796D01*
X151808449Y-38825412D01*
X151858882Y-38787130D01*
X151910480Y-38749952D01*
X151963242Y-38713877D01*
X152017170Y-38678906D01*
X152072263Y-38645037D01*
X152128520Y-38612271D01*
X152185942Y-38580609D01*
X152244530Y-38550049D01*
X152304282Y-38520593D01*
X152365199Y-38492240D01*
X152427281Y-38464989D01*
X152490528Y-38438842D01*
X152554940Y-38413798D01*
X152620517Y-38389857D01*
X152687295Y-38367060D01*
X152754976Y-38345733D01*
X152823560Y-38325878D01*
X152893046Y-38307493D01*
X152963435Y-38290578D01*
X153034726Y-38275135D01*
X153106920Y-38261162D01*
X153180016Y-38248661D01*
X153254015Y-38237630D01*
X153328916Y-38228070D01*
X153404720Y-38219980D01*
X153481427Y-38213362D01*
X153559036Y-38208214D01*
X153637548Y-38204537D01*
X153716962Y-38202331D01*
X153797279Y-38201595D01*
X153877590Y-38202331D01*
G37*
G36*
X160821581Y-42242349D02*
G01*
X160821581Y-43050500D01*
X157491452Y-43050500D01*
X157491452Y-38275063D01*
X158652094Y-38275063D01*
X158652094Y-42242349D01*
X160821581Y-42242349D01*
G37*
G36*
X209177104Y-38628232D02*
G01*
X209278463Y-38634899D01*
X209403790Y-38645050D01*
X209517897Y-38656644D01*
X209620784Y-38669681D01*
X209733616Y-38688005D01*
X209828916Y-38708583D01*
X209892533Y-38726668D01*
X209993011Y-38757441D01*
X210089282Y-38785433D01*
X210181346Y-38810642D01*
X210281409Y-38836047D01*
X210317516Y-38844638D01*
X210408802Y-38869963D01*
X210502010Y-38905861D01*
X210585172Y-38949604D01*
X210635031Y-38983123D01*
X210705893Y-39033974D01*
X210775595Y-39082660D01*
X210851682Y-39134218D01*
X210881717Y-39154093D01*
X210953177Y-39207254D01*
X211017958Y-39268429D01*
X211070552Y-39330339D01*
X211086881Y-39352419D01*
X211128204Y-39421075D01*
X211156003Y-39494330D01*
X211169360Y-39563306D01*
X211172366Y-39617422D01*
X211165191Y-39689764D01*
X211143667Y-39759755D01*
X211107794Y-39827395D01*
X211057572Y-39892684D01*
X211001777Y-39957198D01*
X210940640Y-40017385D01*
X210874160Y-40073244D01*
X210802338Y-40124775D01*
X210725172Y-40171979D01*
X210642664Y-40214855D01*
X210554813Y-40253404D01*
X210461619Y-40287624D01*
X210365448Y-40318292D01*
X210273786Y-40347756D01*
X210175111Y-40379674D01*
X210084951Y-40408986D01*
X210021982Y-40429529D01*
X209925182Y-40460765D01*
X209825290Y-40491640D01*
X209722307Y-40522154D01*
X209616233Y-40552307D01*
X209507068Y-40582100D01*
X209469993Y-40591951D01*
X209571888Y-40627028D01*
X209672409Y-40662376D01*
X209771557Y-40697994D01*
X209869330Y-40733883D01*
X209965730Y-40770042D01*
X210060755Y-40806472D01*
X210154407Y-40843172D01*
X210246685Y-40880142D01*
X210337589Y-40917383D01*
X210427120Y-40954895D01*
X210486043Y-40980053D01*
X210571502Y-41016402D01*
X210677767Y-41061269D01*
X210775254Y-41102021D01*
X210863964Y-41138659D01*
X210962508Y-41178672D01*
X211062657Y-41218202D01*
X211143057Y-41248476D01*
X211236327Y-41281174D01*
X211328071Y-41310880D01*
X211418288Y-41337594D01*
X211506978Y-41361316D01*
X211605317Y-41387402D01*
X211702497Y-41415652D01*
X211798517Y-41446066D01*
X211851361Y-41463898D01*
X211951233Y-41496409D01*
X212042023Y-41529828D01*
X212142737Y-41572880D01*
X212229260Y-41617350D01*
X212314354Y-41672588D01*
X212379011Y-41729870D01*
X212396022Y-41749418D01*
X212419862Y-41818106D01*
X212418717Y-41888631D01*
X212376359Y-41954502D01*
X212289822Y-42002701D01*
X212180485Y-42029949D01*
X212159107Y-42033228D01*
X212115143Y-42033228D01*
X212012914Y-42011222D01*
X211925256Y-41978145D01*
X211863573Y-41935775D01*
X211765628Y-41899958D01*
X211667797Y-41863888D01*
X211570081Y-41827563D01*
X211472479Y-41790985D01*
X211374992Y-41754153D01*
X211277619Y-41717067D01*
X211180361Y-41679727D01*
X211083217Y-41642134D01*
X210986188Y-41604287D01*
X210889273Y-41566186D01*
X210792473Y-41527831D01*
X210695787Y-41489223D01*
X210599216Y-41450361D01*
X210502759Y-41411245D01*
X210406416Y-41371875D01*
X210310188Y-41332251D01*
X210213751Y-41292861D01*
X210116779Y-41254193D01*
X210019272Y-41216245D01*
X209921232Y-41179019D01*
X209822657Y-41142514D01*
X209723548Y-41106731D01*
X209623904Y-41071669D01*
X209523727Y-41037328D01*
X209423014Y-41003708D01*
X209321768Y-40970810D01*
X209219988Y-40938633D01*
X209117673Y-40907177D01*
X209014824Y-40876442D01*
X208911440Y-40846429D01*
X208807523Y-40817137D01*
X208703071Y-40788566D01*
X208644452Y-40773179D01*
X208588276Y-40759502D01*
X208488185Y-40772685D01*
X208390325Y-40782743D01*
X208263319Y-40791291D01*
X208140282Y-40794283D01*
X208021213Y-40791719D01*
X207906114Y-40783598D01*
X207794983Y-40769920D01*
X207687822Y-40750686D01*
X207635729Y-40738985D01*
X207582492Y-40860848D01*
X207532689Y-40978958D01*
X207486321Y-41093314D01*
X207443388Y-41203917D01*
X207403889Y-41310766D01*
X207367825Y-41413862D01*
X207335196Y-41513205D01*
X207306001Y-41608795D01*
X207280241Y-41700631D01*
X207257916Y-41788714D01*
X207239025Y-41873044D01*
X207223569Y-41953620D01*
X207211548Y-42030443D01*
X207202961Y-42103513D01*
X207197809Y-42172829D01*
X207196092Y-42238392D01*
X207172634Y-42311988D01*
X207119778Y-42376662D01*
X207039140Y-42420607D01*
X206945791Y-42442053D01*
X206915213Y-42445266D01*
X206817840Y-42431201D01*
X206744243Y-42400813D01*
X206681954Y-42345240D01*
X206653148Y-42274590D01*
X206648988Y-42248650D01*
X206649895Y-42167960D01*
X206652614Y-42087458D01*
X206657146Y-42007142D01*
X206663490Y-41927013D01*
X206671647Y-41847071D01*
X206681618Y-41767316D01*
X206693400Y-41687748D01*
X206706996Y-41608368D01*
X206722404Y-41529174D01*
X206739625Y-41450167D01*
X206758659Y-41371347D01*
X206779505Y-41292714D01*
X206802165Y-41214268D01*
X206826637Y-41136010D01*
X206852921Y-41057938D01*
X206881019Y-40980053D01*
X206910395Y-40902282D01*
X206939904Y-40824550D01*
X206969547Y-40746859D01*
X206999324Y-40669208D01*
X207029234Y-40591597D01*
X207059278Y-40514026D01*
X207089455Y-40436495D01*
X207119766Y-40359004D01*
X207150211Y-40281554D01*
X207178204Y-40210688D01*
X207845778Y-40210688D01*
X207963833Y-40218986D01*
X208062312Y-40229111D01*
X208164379Y-40242334D01*
X208270033Y-40258656D01*
X208379275Y-40278077D01*
X208492103Y-40300597D01*
X208608519Y-40326216D01*
X208698186Y-40347464D01*
X208861008Y-40318987D01*
X209016083Y-40289975D01*
X209163411Y-40260429D01*
X209302992Y-40230349D01*
X209434826Y-40199735D01*
X209558913Y-40168587D01*
X209675252Y-40136904D01*
X209783845Y-40104686D01*
X209884691Y-40071935D01*
X209977789Y-40038649D01*
X210063141Y-40004829D01*
X210176642Y-39953098D01*
X210272712Y-39900164D01*
X210351352Y-39846028D01*
X210373692Y-39827715D01*
X210438378Y-39770173D01*
X210507873Y-39715516D01*
X210556874Y-39680681D01*
X210548995Y-39602227D01*
X210525361Y-39528431D01*
X210485969Y-39459293D01*
X210430822Y-39394814D01*
X210359917Y-39334993D01*
X210273256Y-39279830D01*
X210170839Y-39229325D01*
X210052665Y-39183479D01*
X209918734Y-39142291D01*
X209820694Y-39117420D01*
X209715650Y-39094619D01*
X209660502Y-39083996D01*
X209530186Y-39061771D01*
X209399353Y-39043183D01*
X209268006Y-39028232D01*
X209136144Y-39016917D01*
X209003766Y-39009238D01*
X208870873Y-39005196D01*
X208737465Y-39004790D01*
X208603542Y-39008021D01*
X208469103Y-39014888D01*
X208334149Y-39025392D01*
X208243894Y-39034414D01*
X208146135Y-39046511D01*
X208112003Y-39049802D01*
X208055827Y-39073737D01*
X208053981Y-39161879D01*
X208048442Y-39253837D01*
X208039212Y-39349612D01*
X208026289Y-39449204D01*
X208015622Y-39517718D01*
X208003315Y-39587930D01*
X207989366Y-39659837D01*
X207973777Y-39733441D01*
X207956546Y-39808741D01*
X207937675Y-39885738D01*
X207917162Y-39964431D01*
X207895008Y-40044820D01*
X207871214Y-40126906D01*
X207845778Y-40210688D01*
X207178204Y-40210688D01*
X207180789Y-40204143D01*
X207211500Y-40126772D01*
X207242346Y-40049442D01*
X207273324Y-39972151D01*
X207304437Y-39894901D01*
X207335683Y-39817691D01*
X207367062Y-39740520D01*
X207367062Y-39730262D01*
X207380801Y-39661928D01*
X207395398Y-39577862D01*
X207407133Y-39495299D01*
X207416006Y-39414238D01*
X207422017Y-39334680D01*
X207425165Y-39256625D01*
X207425680Y-39210513D01*
X207328308Y-39186471D01*
X207252745Y-39139454D01*
X207211529Y-39071066D01*
X207205862Y-39046382D01*
X207215350Y-38974029D01*
X207265797Y-38912765D01*
X207345023Y-38867618D01*
X207425680Y-38839509D01*
X207494068Y-38820702D01*
X207566435Y-38773952D01*
X207668628Y-38750297D01*
X207769843Y-38752581D01*
X207794487Y-38755733D01*
X207890150Y-38731901D01*
X208010420Y-38703771D01*
X208122371Y-38679809D01*
X208226003Y-38660013D01*
X208321315Y-38644386D01*
X208428755Y-38630711D01*
X208540525Y-38622898D01*
X208573622Y-38622377D01*
X208672912Y-38622377D01*
X208785061Y-38622377D01*
X208893236Y-38622377D01*
X208997438Y-38622377D01*
X209069435Y-38622377D01*
X209177104Y-38628232D01*
G37*
G36*
X215198719Y-38745719D02*
G01*
X215295805Y-38779379D01*
X215375213Y-38833538D01*
X215418156Y-38903732D01*
X215425941Y-38976662D01*
X215424634Y-38989962D01*
X215481420Y-39063479D01*
X215532101Y-39136996D01*
X215576675Y-39210513D01*
X215615143Y-39284031D01*
X215647505Y-39357548D01*
X215673761Y-39431065D01*
X215693911Y-39504582D01*
X215707955Y-39578099D01*
X215718565Y-39649933D01*
X215728411Y-39718401D01*
X215739645Y-39799253D01*
X215749687Y-39874845D01*
X215758536Y-39945178D01*
X215767580Y-40022636D01*
X215771459Y-40058525D01*
X215781309Y-40136783D01*
X215791628Y-40208497D01*
X215803992Y-40282442D01*
X215818633Y-40355411D01*
X215820307Y-40362851D01*
X215835725Y-40436368D01*
X215852669Y-40509885D01*
X215871140Y-40583402D01*
X215891138Y-40656920D01*
X215959163Y-40714422D01*
X215986607Y-40784616D01*
X215968480Y-40854741D01*
X215964410Y-40862084D01*
X215993395Y-40951248D01*
X216020510Y-41037515D01*
X216045755Y-41120883D01*
X216069130Y-41201352D01*
X216090634Y-41278923D01*
X216110269Y-41353596D01*
X216128034Y-41425370D01*
X216143929Y-41494245D01*
X216164265Y-41592124D01*
X216180394Y-41683481D01*
X216192315Y-41768316D01*
X216200028Y-41846630D01*
X216203535Y-41918423D01*
X216203768Y-41940904D01*
X216182547Y-42014418D01*
X216135111Y-42078799D01*
X216052185Y-42126193D01*
X215952198Y-42146068D01*
X215849774Y-42134005D01*
X215761689Y-42103326D01*
X215698744Y-42046871D01*
X215664588Y-41973874D01*
X215646193Y-41896965D01*
X215644452Y-41886194D01*
X215633061Y-41808361D01*
X215619952Y-41730017D01*
X215605125Y-41651162D01*
X215588582Y-41571796D01*
X215570321Y-41491919D01*
X215550342Y-41411532D01*
X215528647Y-41330633D01*
X215505234Y-41249224D01*
X215480104Y-41167303D01*
X215453256Y-41084872D01*
X215434403Y-41029634D01*
X215296881Y-41030400D01*
X215168245Y-41032700D01*
X215048497Y-41036531D01*
X214937636Y-41041896D01*
X214835663Y-41048793D01*
X214713522Y-41060374D01*
X214607181Y-41074679D01*
X214496473Y-41096393D01*
X214425680Y-41116829D01*
X214424526Y-41185224D01*
X214378502Y-41246933D01*
X214313329Y-41284379D01*
X214222024Y-41310192D01*
X214122132Y-41314967D01*
X214024888Y-41301278D01*
X213990928Y-41292928D01*
X213922540Y-41245056D01*
X213874753Y-41305881D01*
X213827562Y-41366539D01*
X213780968Y-41427029D01*
X213725841Y-41499398D01*
X213671573Y-41571526D01*
X213627006Y-41631449D01*
X213576431Y-41700671D01*
X213529118Y-41764725D01*
X213478044Y-41832921D01*
X213431412Y-41894081D01*
X213394976Y-41940904D01*
X213347320Y-42003949D01*
X213304959Y-42065926D01*
X213304606Y-42067422D01*
X213292394Y-42058873D01*
X213220650Y-42109796D01*
X213134246Y-42149060D01*
X213029260Y-42155552D01*
X212996860Y-42146068D01*
X212906533Y-42104075D01*
X212835931Y-42046667D01*
X212800135Y-41979214D01*
X212799142Y-41901716D01*
X212801466Y-41891323D01*
X212847089Y-41820424D01*
X212892980Y-41749632D01*
X212939138Y-41678946D01*
X212985564Y-41608368D01*
X213032256Y-41537896D01*
X213079215Y-41467531D01*
X213126442Y-41397273D01*
X213173936Y-41327122D01*
X213221697Y-41257078D01*
X213269725Y-41187140D01*
X213318020Y-41117310D01*
X213366582Y-41047586D01*
X213415412Y-40977969D01*
X213464509Y-40908459D01*
X213513872Y-40839056D01*
X213563503Y-40769760D01*
X213602952Y-40715049D01*
X214286462Y-40715049D01*
X214381583Y-40695348D01*
X214500556Y-40678985D01*
X214612908Y-40668300D01*
X214740525Y-40659751D01*
X214846255Y-40654742D01*
X214960572Y-40650936D01*
X215083476Y-40648331D01*
X215214966Y-40646928D01*
X215307397Y-40646661D01*
X215292743Y-40581693D01*
X215279605Y-40508844D01*
X215260953Y-40440322D01*
X215251221Y-40407303D01*
X215231224Y-40330367D01*
X215214978Y-40251828D01*
X215201984Y-40176173D01*
X215191811Y-40107251D01*
X215182235Y-40032986D01*
X215180391Y-40017492D01*
X215170922Y-39939528D01*
X215159306Y-39861649D01*
X215145543Y-39783852D01*
X215129634Y-39706139D01*
X215111578Y-39628510D01*
X215091376Y-39550964D01*
X215082694Y-39519969D01*
X215030792Y-39580610D01*
X214999651Y-39615712D01*
X214941083Y-39675869D01*
X214895478Y-39741853D01*
X214860433Y-39800360D01*
X214812109Y-39880268D01*
X214765445Y-39957145D01*
X214720441Y-40030989D01*
X214677098Y-40101801D01*
X214635414Y-40169582D01*
X214595391Y-40234330D01*
X214538469Y-40325767D01*
X214485281Y-40410382D01*
X214435829Y-40488175D01*
X214390113Y-40559146D01*
X214348131Y-40623295D01*
X214297966Y-40698214D01*
X214286462Y-40715049D01*
X213602952Y-40715049D01*
X213612905Y-40701245D01*
X213660971Y-40634186D01*
X213707702Y-40568583D01*
X213753097Y-40504436D01*
X213797156Y-40441744D01*
X213860740Y-40350437D01*
X213921319Y-40262406D01*
X213978893Y-40177651D01*
X214033461Y-40096171D01*
X214085024Y-40017968D01*
X214133581Y-39943040D01*
X214179134Y-39871388D01*
X214193650Y-39848231D01*
X214236039Y-39781037D01*
X214276196Y-39717299D01*
X214326266Y-39637691D01*
X214372367Y-39564228D01*
X214414499Y-39496908D01*
X214461582Y-39421399D01*
X214502464Y-39355491D01*
X214530705Y-39309676D01*
X214572322Y-39246183D01*
X214618403Y-39185215D01*
X214677809Y-39117276D01*
X214743292Y-39052774D01*
X214804257Y-39000220D01*
X214781750Y-38929769D01*
X214808572Y-38861419D01*
X214831124Y-38834379D01*
X214901150Y-38781541D01*
X214993688Y-38745268D01*
X215097348Y-38726668D01*
X215198719Y-38745719D01*
G37*
G36*
X220670970Y-41180088D02*
G01*
X220615395Y-41268598D01*
X220564076Y-41352901D01*
X220517011Y-41432996D01*
X220474202Y-41508884D01*
X220435648Y-41580565D01*
X220401349Y-41648038D01*
X220357879Y-41741359D01*
X220323983Y-41825212D01*
X220299661Y-41899599D01*
X220282125Y-41984056D01*
X220284141Y-42065959D01*
X220292394Y-42091358D01*
X220267969Y-42166371D01*
X220214217Y-42231857D01*
X220132644Y-42277328D01*
X220062805Y-42296522D01*
X219955923Y-42302412D01*
X219863337Y-42275845D01*
X219793041Y-42224982D01*
X219747732Y-42170004D01*
X219747732Y-42159746D01*
X219672971Y-42103967D01*
X219611118Y-42034243D01*
X219560820Y-41972267D01*
X219503270Y-41897895D01*
X219455349Y-41833981D01*
X219403350Y-41763095D01*
X219352280Y-41692029D01*
X219306235Y-41627575D01*
X219252654Y-41551921D01*
X219208003Y-41488021D01*
X219164748Y-41424675D01*
X219124562Y-41361523D01*
X219117586Y-41345929D01*
X219063957Y-41267349D01*
X219011760Y-41188476D01*
X218960993Y-41109309D01*
X218911658Y-41029848D01*
X218863754Y-40950093D01*
X218817281Y-40870044D01*
X218772240Y-40789702D01*
X218728629Y-40709065D01*
X218686449Y-40628135D01*
X218645701Y-40546911D01*
X218606383Y-40465393D01*
X218568497Y-40383581D01*
X218532042Y-40301476D01*
X218497018Y-40219076D01*
X218463425Y-40136383D01*
X218431263Y-40053395D01*
X218402612Y-39979438D01*
X218378636Y-39904171D01*
X218359336Y-39827595D01*
X218344710Y-39749710D01*
X218338451Y-39704617D01*
X218326162Y-39626066D01*
X218306394Y-39548987D01*
X218279146Y-39473381D01*
X218244417Y-39399248D01*
X218221214Y-39357548D01*
X218142103Y-39309542D01*
X218097946Y-39246529D01*
X218081996Y-39181449D01*
X218102461Y-39104091D01*
X218138708Y-39032225D01*
X218196449Y-38974336D01*
X218282208Y-38940120D01*
X218304257Y-38936961D01*
X218403819Y-38936375D01*
X218506287Y-38961420D01*
X218591166Y-39007086D01*
X218626657Y-39034414D01*
X218685691Y-39106283D01*
X218729998Y-39170330D01*
X218771710Y-39240201D01*
X218810827Y-39315895D01*
X218847349Y-39397413D01*
X218881276Y-39484755D01*
X218905018Y-39554083D01*
X218927300Y-39626687D01*
X218934403Y-39651616D01*
X218962024Y-39748428D01*
X218988709Y-39840538D01*
X219014460Y-39927946D01*
X219039275Y-40010653D01*
X219063156Y-40088658D01*
X219086101Y-40161961D01*
X219108112Y-40230563D01*
X219139374Y-40324650D01*
X219168533Y-40408158D01*
X219195588Y-40481088D01*
X219228389Y-40561871D01*
X219264131Y-40636403D01*
X219305920Y-40708170D01*
X219352517Y-40781140D01*
X219395021Y-40842866D01*
X219440864Y-40905427D01*
X219490046Y-40968823D01*
X219542568Y-41033054D01*
X219597344Y-41097418D01*
X219651762Y-41162283D01*
X219705822Y-41227649D01*
X219759524Y-41293516D01*
X219812869Y-41359883D01*
X219865856Y-41426752D01*
X219886951Y-41453640D01*
X219931267Y-41379896D01*
X219976901Y-41305697D01*
X220023851Y-41231045D01*
X220072117Y-41155938D01*
X220121700Y-41080377D01*
X220172600Y-41004363D01*
X220224817Y-40927894D01*
X220278350Y-40850970D01*
X220333199Y-40773593D01*
X220389366Y-40695762D01*
X220446849Y-40617476D01*
X220505648Y-40538737D01*
X220565764Y-40459543D01*
X220627197Y-40379895D01*
X220689947Y-40299793D01*
X220754013Y-40219236D01*
X220809516Y-40150827D01*
X220863979Y-40084083D01*
X220917402Y-40019006D01*
X220969786Y-39955595D01*
X221021129Y-39893851D01*
X221071433Y-39833772D01*
X221168920Y-39718615D01*
X221262248Y-39610122D01*
X221351415Y-39508295D01*
X221436423Y-39413133D01*
X221517272Y-39324636D01*
X221593960Y-39242804D01*
X221666489Y-39167637D01*
X221734858Y-39099136D01*
X221799067Y-39037299D01*
X221859116Y-38982128D01*
X221941391Y-38911869D01*
X222014306Y-38856606D01*
X222107576Y-38821450D01*
X222204205Y-38803177D01*
X222304191Y-38801788D01*
X222407537Y-38817282D01*
X222479436Y-38867398D01*
X222534533Y-38931545D01*
X222550512Y-39004035D01*
X222546755Y-39024156D01*
X222513277Y-39090126D01*
X222442523Y-39143661D01*
X222366015Y-39171190D01*
X222296807Y-39223824D01*
X222225957Y-39281279D01*
X222153467Y-39343556D01*
X222079335Y-39410655D01*
X222003563Y-39482576D01*
X221926149Y-39559319D01*
X221847095Y-39640884D01*
X221766399Y-39727270D01*
X221684063Y-39818479D01*
X221600085Y-39914509D01*
X221514467Y-40015361D01*
X221427207Y-40121035D01*
X221338306Y-40231532D01*
X221247765Y-40346849D01*
X221155582Y-40466989D01*
X221108876Y-40528867D01*
X221061759Y-40591951D01*
X221007033Y-40669582D01*
X220953986Y-40746038D01*
X220902619Y-40821318D01*
X220852931Y-40895423D01*
X220804922Y-40968352D01*
X220758592Y-41040106D01*
X220713942Y-41110685D01*
X220670970Y-41180088D01*
G37*
G36*
X228806699Y-42014421D02*
G01*
X228697315Y-42014421D01*
X228587758Y-42014421D01*
X228478030Y-42014421D01*
X228368131Y-42014421D01*
X228258059Y-42014421D01*
X228147816Y-42014421D01*
X228037401Y-42014421D01*
X227926814Y-42014421D01*
X227816056Y-42014421D01*
X227705126Y-42014421D01*
X227594024Y-42014421D01*
X227482750Y-42014421D01*
X227371305Y-42014421D01*
X227259688Y-42014421D01*
X227147899Y-42014421D01*
X227035939Y-42014421D01*
X226924045Y-42015109D01*
X226812456Y-42017173D01*
X226701173Y-42020612D01*
X226590195Y-42025427D01*
X226479523Y-42031618D01*
X226369156Y-42039185D01*
X226259094Y-42048128D01*
X226149337Y-42058446D01*
X226039886Y-42070140D01*
X225930740Y-42083210D01*
X225821899Y-42097656D01*
X225713364Y-42113477D01*
X225605134Y-42130674D01*
X225497209Y-42149247D01*
X225389589Y-42169196D01*
X225282275Y-42190520D01*
X225184017Y-42211566D01*
X225081586Y-42238372D01*
X224974980Y-42270938D01*
X224886690Y-42301138D01*
X224795728Y-42335025D01*
X224702096Y-42372598D01*
X224605791Y-42413858D01*
X224581298Y-42424749D01*
X224486196Y-42467705D01*
X224396284Y-42507670D01*
X224311562Y-42544642D01*
X224212959Y-42586650D01*
X224122465Y-42623983D01*
X224024577Y-42662611D01*
X223965806Y-42684624D01*
X223866213Y-42718657D01*
X223764048Y-42747455D01*
X223659312Y-42771017D01*
X223552005Y-42789343D01*
X223489533Y-42797464D01*
X223390822Y-42778622D01*
X223299918Y-42745764D01*
X223231847Y-42693299D01*
X223204682Y-42625617D01*
X223213955Y-42555493D01*
X223218423Y-42542719D01*
X223252226Y-42466804D01*
X223296848Y-42392933D01*
X223352289Y-42321105D01*
X223406755Y-42262810D01*
X223468734Y-42205934D01*
X223523727Y-42161455D01*
X223593970Y-42105631D01*
X223659682Y-42048221D01*
X223720862Y-41989225D01*
X223777510Y-41928642D01*
X223829626Y-41866474D01*
X223877211Y-41802719D01*
X223894976Y-41776773D01*
X223941272Y-41708210D01*
X223991623Y-41632884D01*
X224034824Y-41567756D01*
X224080619Y-41498299D01*
X224129010Y-41424515D01*
X224179996Y-41346403D01*
X224233576Y-41263963D01*
X224261340Y-41221121D01*
X224305268Y-41157332D01*
X224348208Y-41092913D01*
X224390161Y-41027863D01*
X224431127Y-40962181D01*
X224471105Y-40895868D01*
X224510096Y-40828925D01*
X224548099Y-40761350D01*
X224585114Y-40693144D01*
X224621143Y-40624307D01*
X224656183Y-40554838D01*
X224678995Y-40508176D01*
X224738768Y-40397967D01*
X224795354Y-40290456D01*
X224848753Y-40185643D01*
X224898966Y-40083529D01*
X224945993Y-39984113D01*
X224989832Y-39887394D01*
X225030485Y-39793374D01*
X225067952Y-39702052D01*
X225102232Y-39613428D01*
X225133325Y-39527502D01*
X225161232Y-39444275D01*
X225185952Y-39363745D01*
X225207485Y-39285914D01*
X225225832Y-39210781D01*
X225240992Y-39138345D01*
X225252966Y-39068608D01*
X225164008Y-39030300D01*
X225105962Y-38971797D01*
X225084438Y-38921574D01*
X225082418Y-38852041D01*
X225122449Y-38787576D01*
X225169923Y-38757443D01*
X225256076Y-38717425D01*
X225331124Y-38689055D01*
X225422219Y-38659509D01*
X225436148Y-38654861D01*
X225531412Y-38635009D01*
X225631247Y-38632124D01*
X225727751Y-38657626D01*
X225802751Y-38714216D01*
X225849920Y-38787466D01*
X225856246Y-38801895D01*
X225856246Y-38909606D01*
X225966413Y-38894680D01*
X226077095Y-38879393D01*
X226188292Y-38863745D01*
X226300004Y-38847736D01*
X226412232Y-38831367D01*
X226449756Y-38825831D01*
X226563500Y-38810063D01*
X226677589Y-38796098D01*
X226792020Y-38783937D01*
X226906795Y-38773578D01*
X227021914Y-38765023D01*
X227060363Y-38762572D01*
X227191767Y-38753095D01*
X227318535Y-38747105D01*
X227440666Y-38744600D01*
X227558160Y-38745582D01*
X227671018Y-38750050D01*
X227779238Y-38758004D01*
X227882822Y-38769444D01*
X227981769Y-38784371D01*
X228076079Y-38802783D01*
X228194613Y-38832757D01*
X228222959Y-38841218D01*
X228298579Y-38886258D01*
X228358266Y-38950799D01*
X228370936Y-39020470D01*
X228336589Y-39095269D01*
X228320656Y-39114770D01*
X228259130Y-39168544D01*
X228174218Y-39204154D01*
X228073735Y-39212195D01*
X227973039Y-39196615D01*
X227942080Y-39188287D01*
X227847226Y-39163303D01*
X227751341Y-39143488D01*
X227654426Y-39128842D01*
X227556481Y-39119365D01*
X227457506Y-39115057D01*
X227424285Y-39114770D01*
X227324193Y-39116032D01*
X227223586Y-39119819D01*
X227122464Y-39126130D01*
X227020826Y-39134966D01*
X226918673Y-39146326D01*
X226884508Y-39150674D01*
X226782499Y-39164038D01*
X226679802Y-39178483D01*
X226576419Y-39194011D01*
X226472348Y-39210620D01*
X226367591Y-39228312D01*
X226332519Y-39234449D01*
X226227705Y-39251740D01*
X226123921Y-39267708D01*
X226021167Y-39282354D01*
X225919444Y-39295678D01*
X225818751Y-39307679D01*
X225785415Y-39311386D01*
X225761563Y-39393772D01*
X225739617Y-39461031D01*
X225714194Y-39532979D01*
X225685292Y-39609615D01*
X225652914Y-39690939D01*
X225617057Y-39776952D01*
X225577723Y-39867653D01*
X225534911Y-39963042D01*
X225504438Y-40029239D01*
X225472419Y-40097520D01*
X225438855Y-40167885D01*
X225421493Y-40203849D01*
X225541647Y-40194399D01*
X225640432Y-40187079D01*
X225741583Y-40179973D01*
X225845100Y-40173081D01*
X225950983Y-40166403D01*
X226059232Y-40159938D01*
X226169847Y-40153687D01*
X226254362Y-40149139D01*
X226364996Y-40142220D01*
X226468532Y-40133431D01*
X226587970Y-40119815D01*
X226696317Y-40103277D01*
X226793573Y-40083818D01*
X226895640Y-40056610D01*
X226940684Y-40041428D01*
X227035769Y-40009766D01*
X227128696Y-39985804D01*
X227229053Y-39974142D01*
X227270412Y-39978169D01*
X227356014Y-40012249D01*
X227394976Y-40046557D01*
X227435428Y-40111205D01*
X227443350Y-40187255D01*
X227416979Y-40257806D01*
X227368109Y-40321818D01*
X227254803Y-40362450D01*
X227138368Y-40398862D01*
X227018803Y-40431052D01*
X226896110Y-40459022D01*
X226770286Y-40482771D01*
X226673865Y-40497812D01*
X226575684Y-40510480D01*
X226475742Y-40520773D01*
X226374041Y-40528692D01*
X226272389Y-40535149D01*
X226171682Y-40541695D01*
X226071919Y-40548332D01*
X225973101Y-40555059D01*
X225875227Y-40561876D01*
X225746198Y-40571106D01*
X225618848Y-40580496D01*
X225493178Y-40590046D01*
X225369186Y-40599756D01*
X225338451Y-40602209D01*
X225241956Y-40588665D01*
X225211445Y-40581693D01*
X225169055Y-40655704D01*
X225126150Y-40728994D01*
X225082731Y-40801563D01*
X225038795Y-40873410D01*
X224994345Y-40944536D01*
X224979414Y-40968085D01*
X224935622Y-41038790D01*
X224892173Y-41109856D01*
X224849068Y-41181283D01*
X224806307Y-41253071D01*
X224763889Y-41325219D01*
X224749826Y-41349348D01*
X224707694Y-41421696D01*
X224665562Y-41495127D01*
X224623430Y-41569639D01*
X224581298Y-41645233D01*
X224546188Y-41709055D01*
X224525122Y-41747708D01*
X224484507Y-41821078D01*
X224445094Y-41886034D01*
X224400632Y-41951179D01*
X224351822Y-42011606D01*
X224322401Y-42041776D01*
X224263890Y-42101032D01*
X224232031Y-42140939D01*
X224339929Y-42091526D01*
X224442891Y-42045870D01*
X224540914Y-42003971D01*
X224634001Y-41965828D01*
X224722150Y-41931442D01*
X224832002Y-41891438D01*
X224933077Y-41858112D01*
X225025374Y-41831465D01*
X225128402Y-41807548D01*
X225242624Y-41786223D01*
X225356922Y-41766274D01*
X225471296Y-41747701D01*
X225585747Y-41730504D01*
X225700274Y-41714683D01*
X225814877Y-41700237D01*
X225929557Y-41687167D01*
X226044313Y-41675473D01*
X226159145Y-41665155D01*
X226274054Y-41656212D01*
X226389039Y-41648646D01*
X226504100Y-41642455D01*
X226619237Y-41637639D01*
X226734451Y-41634200D01*
X226849742Y-41632136D01*
X226965108Y-41631449D01*
X227080551Y-41631449D01*
X227196070Y-41631449D01*
X227311666Y-41631449D01*
X227427338Y-41631449D01*
X227543086Y-41631449D01*
X227658911Y-41631449D01*
X227774811Y-41631449D01*
X227890789Y-41631449D01*
X228006842Y-41631449D01*
X228122972Y-41631449D01*
X228239178Y-41631449D01*
X228355461Y-41631449D01*
X228471819Y-41631449D01*
X228588255Y-41631449D01*
X228704766Y-41631449D01*
X228821354Y-41631449D01*
X228914619Y-41660387D01*
X228993159Y-41703877D01*
X229045752Y-41766087D01*
X229060712Y-41833193D01*
X229040619Y-41905592D01*
X228980341Y-41961220D01*
X228893024Y-41996590D01*
X228806699Y-42014421D01*
G37*
G36*
X238420098Y-42014421D02*
G01*
X238310713Y-42014421D01*
X238201157Y-42014421D01*
X238091429Y-42014421D01*
X237981529Y-42014421D01*
X237871458Y-42014421D01*
X237761215Y-42014421D01*
X237650800Y-42014421D01*
X237540213Y-42014421D01*
X237429454Y-42014421D01*
X237318524Y-42014421D01*
X237207422Y-42014421D01*
X237096149Y-42014421D01*
X236984704Y-42014421D01*
X236873086Y-42014421D01*
X236761298Y-42014421D01*
X236649337Y-42014421D01*
X236537443Y-42015109D01*
X236425855Y-42017173D01*
X236314572Y-42020612D01*
X236203594Y-42025427D01*
X236092921Y-42031618D01*
X235982554Y-42039185D01*
X235872492Y-42048128D01*
X235762736Y-42058446D01*
X235653284Y-42070140D01*
X235544138Y-42083210D01*
X235435298Y-42097656D01*
X235326762Y-42113477D01*
X235218532Y-42130674D01*
X235110607Y-42149247D01*
X235002988Y-42169196D01*
X234895673Y-42190520D01*
X234797416Y-42211566D01*
X234694984Y-42238372D01*
X234588378Y-42270938D01*
X234500088Y-42301138D01*
X234409127Y-42335025D01*
X234315494Y-42372598D01*
X234219190Y-42413858D01*
X234194696Y-42424749D01*
X234099594Y-42467705D01*
X234009683Y-42507670D01*
X233924961Y-42544642D01*
X233826357Y-42586650D01*
X233735863Y-42623983D01*
X233637975Y-42662611D01*
X233579205Y-42684624D01*
X233479611Y-42718657D01*
X233377447Y-42747455D01*
X233272711Y-42771017D01*
X233165404Y-42789343D01*
X233102931Y-42797464D01*
X233004220Y-42778622D01*
X232913316Y-42745764D01*
X232845245Y-42693299D01*
X232818080Y-42625617D01*
X232827354Y-42555493D01*
X232831821Y-42542719D01*
X232865624Y-42466804D01*
X232910246Y-42392933D01*
X232965687Y-42321105D01*
X233020153Y-42262810D01*
X233082132Y-42205934D01*
X233137125Y-42161455D01*
X233207369Y-42105631D01*
X233273080Y-42048221D01*
X233334260Y-41989225D01*
X233390909Y-41928642D01*
X233443025Y-41866474D01*
X233490609Y-41802719D01*
X233508374Y-41776773D01*
X233554671Y-41708210D01*
X233605022Y-41632884D01*
X233648222Y-41567756D01*
X233694018Y-41498299D01*
X233742408Y-41424515D01*
X233793394Y-41346403D01*
X233846975Y-41263963D01*
X233874738Y-41221121D01*
X233918666Y-41157332D01*
X233961607Y-41092913D01*
X234003560Y-41027863D01*
X234044525Y-40962181D01*
X234084503Y-40895868D01*
X234123494Y-40828925D01*
X234161497Y-40761350D01*
X234198513Y-40693144D01*
X234234541Y-40624307D01*
X234269582Y-40554838D01*
X234292394Y-40508176D01*
X234352166Y-40397967D01*
X234408752Y-40290456D01*
X234462152Y-40185643D01*
X234512365Y-40083529D01*
X234559391Y-39984113D01*
X234603231Y-39887394D01*
X234643884Y-39793374D01*
X234681350Y-39702052D01*
X234715630Y-39613428D01*
X234746723Y-39527502D01*
X234774630Y-39444275D01*
X234799350Y-39363745D01*
X234820884Y-39285914D01*
X234839230Y-39210781D01*
X234854391Y-39138345D01*
X234866364Y-39068608D01*
X234777406Y-39030300D01*
X234719361Y-38971797D01*
X234697837Y-38921574D01*
X234695817Y-38852041D01*
X234735847Y-38787576D01*
X234783322Y-38757443D01*
X234869475Y-38717425D01*
X234944522Y-38689055D01*
X235035617Y-38659509D01*
X235049546Y-38654861D01*
X235144811Y-38635009D01*
X235244645Y-38632124D01*
X235341150Y-38657626D01*
X235416149Y-38714216D01*
X235463319Y-38787466D01*
X235469644Y-38801895D01*
X235469644Y-38909606D01*
X235579811Y-38894680D01*
X235690493Y-38879393D01*
X235801690Y-38863745D01*
X235913403Y-38847736D01*
X236025631Y-38831367D01*
X236063154Y-38825831D01*
X236176899Y-38810063D01*
X236290987Y-38796098D01*
X236405419Y-38783937D01*
X236520194Y-38773578D01*
X236635312Y-38765023D01*
X236673761Y-38762572D01*
X236805166Y-38753095D01*
X236931934Y-38747105D01*
X237054065Y-38744600D01*
X237171559Y-38745582D01*
X237284416Y-38750050D01*
X237392637Y-38758004D01*
X237496221Y-38769444D01*
X237595168Y-38784371D01*
X237689478Y-38802783D01*
X237808012Y-38832757D01*
X237836357Y-38841218D01*
X237911977Y-38886258D01*
X237971664Y-38950799D01*
X237984334Y-39020470D01*
X237949988Y-39095269D01*
X237934054Y-39114770D01*
X237872529Y-39168544D01*
X237787616Y-39204154D01*
X237687133Y-39212195D01*
X237586438Y-39196615D01*
X237555478Y-39188287D01*
X237460624Y-39163303D01*
X237364740Y-39143488D01*
X237267825Y-39128842D01*
X237169880Y-39119365D01*
X237070904Y-39115057D01*
X237037683Y-39114770D01*
X236937591Y-39116032D01*
X236836984Y-39119819D01*
X236735862Y-39126130D01*
X236634225Y-39134966D01*
X236532072Y-39146326D01*
X236497907Y-39150674D01*
X236395897Y-39164038D01*
X236293201Y-39178483D01*
X236189817Y-39194011D01*
X236085747Y-39210620D01*
X235980989Y-39228312D01*
X235945918Y-39234449D01*
X235841103Y-39251740D01*
X235737319Y-39267708D01*
X235634565Y-39282354D01*
X235532842Y-39295678D01*
X235432149Y-39307679D01*
X235398814Y-39311386D01*
X235374962Y-39393772D01*
X235353016Y-39461031D01*
X235327592Y-39532979D01*
X235298691Y-39609615D01*
X235266312Y-39690939D01*
X235230456Y-39776952D01*
X235191121Y-39867653D01*
X235148310Y-39963042D01*
X235117837Y-40029239D01*
X235085818Y-40097520D01*
X235052254Y-40167885D01*
X235034892Y-40203849D01*
X235155046Y-40194399D01*
X235253830Y-40187079D01*
X235354981Y-40179973D01*
X235458498Y-40173081D01*
X235564381Y-40166403D01*
X235672630Y-40159938D01*
X235783246Y-40153687D01*
X235867760Y-40149139D01*
X235978394Y-40142220D01*
X236081930Y-40133431D01*
X236201369Y-40119815D01*
X236309716Y-40103277D01*
X236406971Y-40083818D01*
X236509038Y-40056610D01*
X236554082Y-40041428D01*
X236649168Y-40009766D01*
X236742095Y-39985804D01*
X236842451Y-39974142D01*
X236883810Y-39978169D01*
X236969412Y-40012249D01*
X237008374Y-40046557D01*
X237048827Y-40111205D01*
X237056748Y-40187255D01*
X237030377Y-40257806D01*
X236981507Y-40321818D01*
X236868202Y-40362450D01*
X236751766Y-40398862D01*
X236632202Y-40431052D01*
X236509508Y-40459022D01*
X236383685Y-40482771D01*
X236287264Y-40497812D01*
X236189082Y-40510480D01*
X236089141Y-40520773D01*
X235987439Y-40528692D01*
X235885787Y-40535149D01*
X235785080Y-40541695D01*
X235685317Y-40548332D01*
X235586499Y-40555059D01*
X235488625Y-40561876D01*
X235359597Y-40571106D01*
X235232247Y-40580496D01*
X235106576Y-40590046D01*
X234982585Y-40599756D01*
X234951849Y-40602209D01*
X234855354Y-40588665D01*
X234824843Y-40581693D01*
X234782454Y-40655704D01*
X234739549Y-40728994D01*
X234696129Y-40801563D01*
X234652194Y-40873410D01*
X234607744Y-40944536D01*
X234592812Y-40968085D01*
X234549020Y-41038790D01*
X234505572Y-41109856D01*
X234462467Y-41181283D01*
X234419705Y-41253071D01*
X234377287Y-41325219D01*
X234363224Y-41349348D01*
X234321092Y-41421696D01*
X234278960Y-41495127D01*
X234236828Y-41569639D01*
X234194696Y-41645233D01*
X234159587Y-41709055D01*
X234138521Y-41747708D01*
X234097906Y-41821078D01*
X234058493Y-41886034D01*
X234014031Y-41951179D01*
X233965220Y-42011606D01*
X233935799Y-42041776D01*
X233877288Y-42101032D01*
X233845429Y-42140939D01*
X233953328Y-42091526D01*
X234056289Y-42045870D01*
X234154313Y-42003971D01*
X234247400Y-41965828D01*
X234335549Y-41931442D01*
X234445401Y-41891438D01*
X234546475Y-41858112D01*
X234638772Y-41831465D01*
X234741800Y-41807548D01*
X234856022Y-41786223D01*
X234970320Y-41766274D01*
X235084695Y-41747701D01*
X235199145Y-41730504D01*
X235313672Y-41714683D01*
X235428276Y-41700237D01*
X235542955Y-41687167D01*
X235657711Y-41675473D01*
X235772543Y-41665155D01*
X235887452Y-41656212D01*
X236002437Y-41648646D01*
X236117498Y-41642455D01*
X236232636Y-41637639D01*
X236347850Y-41634200D01*
X236463140Y-41632136D01*
X236578507Y-41631449D01*
X236693950Y-41631449D01*
X236809469Y-41631449D01*
X236925064Y-41631449D01*
X237040736Y-41631449D01*
X237156484Y-41631449D01*
X237272309Y-41631449D01*
X237388210Y-41631449D01*
X237504187Y-41631449D01*
X237620241Y-41631449D01*
X237736370Y-41631449D01*
X237852577Y-41631449D01*
X237968859Y-41631449D01*
X238085218Y-41631449D01*
X238201653Y-41631449D01*
X238318165Y-41631449D01*
X238434752Y-41631449D01*
X238528018Y-41660387D01*
X238606557Y-41703877D01*
X238659150Y-41766087D01*
X238674110Y-41833193D01*
X238654018Y-41905592D01*
X238593739Y-41961220D01*
X238506422Y-41996590D01*
X238420098Y-42014421D01*
G37*
G36*
X241651149Y-38798053D02*
G01*
X241746175Y-38838953D01*
X241803419Y-38898097D01*
X241841940Y-38966026D01*
X241841940Y-39005349D01*
X241907087Y-38948984D01*
X241994861Y-38912119D01*
X242097107Y-38890646D01*
X242122819Y-38887380D01*
X242227729Y-38887380D01*
X242332410Y-38887380D01*
X242436862Y-38887380D01*
X242541085Y-38887380D01*
X242645079Y-38887380D01*
X242748844Y-38887380D01*
X242852380Y-38887380D01*
X242955687Y-38887380D01*
X243060063Y-38888235D01*
X243166805Y-38890800D01*
X243275913Y-38895074D01*
X243387387Y-38901058D01*
X243501227Y-38908751D01*
X243617433Y-38918155D01*
X243736005Y-38929268D01*
X243856944Y-38942091D01*
X243977691Y-38957505D01*
X244094470Y-38977246D01*
X244207279Y-39001316D01*
X244316120Y-39029713D01*
X244420992Y-39062437D01*
X244521895Y-39099490D01*
X244618829Y-39140870D01*
X244711793Y-39186578D01*
X244799835Y-39235304D01*
X244880779Y-39286595D01*
X244954624Y-39340451D01*
X245021371Y-39396871D01*
X245081020Y-39455855D01*
X245133570Y-39517405D01*
X245179022Y-39581518D01*
X245217376Y-39648197D01*
X245252400Y-39718147D01*
X245280536Y-39789087D01*
X245301783Y-39861014D01*
X245316142Y-39933930D01*
X245323612Y-40007835D01*
X245324194Y-40082728D01*
X245317888Y-40158609D01*
X245304693Y-40235479D01*
X245284610Y-40313337D01*
X245257638Y-40392183D01*
X245223778Y-40472018D01*
X245183030Y-40552842D01*
X245135393Y-40634653D01*
X245080867Y-40717454D01*
X245019454Y-40801242D01*
X244951151Y-40886019D01*
X244849781Y-40997010D01*
X244738011Y-41103445D01*
X244615842Y-41205326D01*
X244483274Y-41302652D01*
X244340306Y-41395423D01*
X244264922Y-41440101D01*
X244186939Y-41483640D01*
X244106355Y-41526040D01*
X244023172Y-41567301D01*
X243937389Y-41607424D01*
X243849006Y-41646408D01*
X243758023Y-41684254D01*
X243664440Y-41720961D01*
X243568258Y-41756529D01*
X243469475Y-41790958D01*
X243368093Y-41824249D01*
X243264111Y-41856401D01*
X243157529Y-41887414D01*
X243048347Y-41917289D01*
X242936565Y-41946025D01*
X242822184Y-41973622D01*
X242705203Y-42000081D01*
X242585621Y-42025401D01*
X242463440Y-42049582D01*
X242338659Y-42072625D01*
X242211279Y-42094528D01*
X242081298Y-42115294D01*
X241975396Y-42131527D01*
X241872928Y-42146890D01*
X241773896Y-42161380D01*
X241647195Y-42179346D01*
X241526600Y-42195761D01*
X241412111Y-42210628D01*
X241303728Y-42223945D01*
X241201451Y-42235712D01*
X241128751Y-42243521D01*
X241014381Y-42255559D01*
X240907883Y-42267096D01*
X240809256Y-42278132D01*
X240701293Y-42290715D01*
X240604664Y-42302576D01*
X240532798Y-42311909D01*
X240424721Y-42325907D01*
X240315422Y-42338837D01*
X240218784Y-42349274D01*
X240121211Y-42358892D01*
X240093161Y-42361490D01*
X239995302Y-42367391D01*
X239870967Y-42370677D01*
X239753654Y-42368727D01*
X239643363Y-42361540D01*
X239540094Y-42349118D01*
X239443847Y-42331460D01*
X239333413Y-42302025D01*
X239252966Y-42272586D01*
X239188659Y-42219133D01*
X239167481Y-42188811D01*
X239137964Y-42120773D01*
X239125960Y-42096487D01*
X239140614Y-42038357D01*
X239171502Y-41972662D01*
X239229763Y-41910557D01*
X239318969Y-41871054D01*
X239384857Y-41862258D01*
X239483518Y-41865819D01*
X239581015Y-41895517D01*
X239647609Y-41946708D01*
X239658409Y-41959711D01*
X239756125Y-41959711D01*
X239834264Y-41959711D01*
X239934384Y-41959711D01*
X240010119Y-41959711D01*
X239980810Y-41949453D01*
X239995464Y-41939194D01*
X240000132Y-41891323D01*
X240569435Y-41891323D01*
X240732572Y-41877779D01*
X240889813Y-41864075D01*
X241041157Y-41850210D01*
X241186606Y-41836185D01*
X241326158Y-41822000D01*
X241459814Y-41807654D01*
X241587574Y-41793149D01*
X241709438Y-41778483D01*
X241825406Y-41763656D01*
X241935477Y-41748670D01*
X242039653Y-41733523D01*
X242137932Y-41718216D01*
X242274295Y-41694955D01*
X242397392Y-41671333D01*
X242472087Y-41655384D01*
X242615169Y-41622406D01*
X242753767Y-41587584D01*
X242887881Y-41550919D01*
X243017511Y-41512411D01*
X243142657Y-41472059D01*
X243263319Y-41429864D01*
X243379496Y-41385826D01*
X243491190Y-41339945D01*
X243598399Y-41292220D01*
X243701124Y-41242652D01*
X243799365Y-41191241D01*
X243893122Y-41137986D01*
X243982395Y-41082889D01*
X244067183Y-41025948D01*
X244147488Y-40967163D01*
X244223308Y-40906536D01*
X244305702Y-40836385D01*
X244381302Y-40766554D01*
X244450110Y-40697044D01*
X244512125Y-40627855D01*
X244567347Y-40558986D01*
X244615776Y-40490438D01*
X244657411Y-40422210D01*
X244692254Y-40354303D01*
X244720304Y-40286716D01*
X244741561Y-40219450D01*
X244760709Y-40119152D01*
X244764573Y-40019575D01*
X244753153Y-39920720D01*
X244726448Y-39822586D01*
X244694654Y-39750408D01*
X244651172Y-39682404D01*
X244596002Y-39618574D01*
X244529146Y-39558918D01*
X244450602Y-39503436D01*
X244360370Y-39452129D01*
X244321005Y-39432774D01*
X244217214Y-39388446D01*
X244107340Y-39351630D01*
X244015062Y-39327588D01*
X243918892Y-39308354D01*
X243818828Y-39293928D01*
X243714872Y-39284311D01*
X243607024Y-39279502D01*
X243551640Y-39278901D01*
X243428107Y-39278901D01*
X243324787Y-39278901D01*
X243212324Y-39278901D01*
X243090715Y-39278901D01*
X242959962Y-39278901D01*
X242820063Y-39278901D01*
X242721718Y-39278901D01*
X242619307Y-39278901D01*
X242512833Y-39278901D01*
X242402294Y-39278901D01*
X242287690Y-39278901D01*
X242169023Y-39278901D01*
X242108165Y-39278901D01*
X242007415Y-39270994D01*
X241910672Y-39238870D01*
X241846367Y-39182036D01*
X241829728Y-39152384D01*
X241799302Y-39222328D01*
X241754039Y-39294357D01*
X241698257Y-39356078D01*
X241631956Y-39407491D01*
X241578158Y-39437904D01*
X241547871Y-39506216D01*
X241518986Y-39575020D01*
X241491504Y-39644315D01*
X241465424Y-39714100D01*
X241451151Y-39754198D01*
X241424237Y-39829745D01*
X241397447Y-39902835D01*
X241372498Y-39969620D01*
X241345163Y-40041748D01*
X241315444Y-40119219D01*
X241289951Y-40185042D01*
X241262588Y-40255915D01*
X241233012Y-40333466D01*
X241201222Y-40417695D01*
X241175927Y-40485250D01*
X241149388Y-40556562D01*
X241121603Y-40631630D01*
X241092572Y-40710455D01*
X241062297Y-40793036D01*
X241030777Y-40879374D01*
X241009072Y-40939020D01*
X240975741Y-41029606D01*
X240940779Y-41119921D01*
X240904186Y-41209966D01*
X240865961Y-41299740D01*
X240826104Y-41389244D01*
X240784617Y-41478477D01*
X240741497Y-41567440D01*
X240696746Y-41656132D01*
X240650364Y-41744554D01*
X240602350Y-41832706D01*
X240569435Y-41891323D01*
X240000132Y-41891323D01*
X240002391Y-41868155D01*
X240010119Y-41841742D01*
X240061467Y-41748166D01*
X240111098Y-41654650D01*
X240159011Y-41561194D01*
X240205208Y-41467798D01*
X240249687Y-41374463D01*
X240292448Y-41281187D01*
X240333492Y-41187972D01*
X240372819Y-41094816D01*
X240410429Y-41001721D01*
X240446321Y-40908686D01*
X240469295Y-40846696D01*
X240503019Y-40755459D01*
X240535498Y-40667679D01*
X240566732Y-40583354D01*
X240596721Y-40502486D01*
X240625465Y-40425073D01*
X240652964Y-40351117D01*
X240679218Y-40280617D01*
X240704226Y-40213573D01*
X240735634Y-40129557D01*
X240764829Y-40051686D01*
X240791810Y-39979264D01*
X240816578Y-39911597D01*
X240844425Y-39833701D01*
X240868814Y-39763234D01*
X240893515Y-39688481D01*
X240916038Y-39614792D01*
X240918702Y-39605454D01*
X240940379Y-39530548D01*
X240963887Y-39454573D01*
X240985959Y-39387219D01*
X241009434Y-39319046D01*
X241016399Y-39299418D01*
X241046367Y-39231908D01*
X241089796Y-39149281D01*
X241137194Y-39075096D01*
X241188562Y-39009353D01*
X241243898Y-38952052D01*
X241318650Y-38892296D01*
X241399603Y-38845730D01*
X241451151Y-38824121D01*
X241550471Y-38797855D01*
X241651149Y-38798053D01*
G37*
G36*
X247723308Y-41841742D02*
G01*
X247821332Y-41871428D01*
X247903878Y-41915773D01*
X247959155Y-41978945D01*
X247974878Y-42046906D01*
X247954012Y-42121092D01*
X247891416Y-42178239D01*
X247800740Y-42214730D01*
X247711096Y-42233263D01*
X247600118Y-42234438D01*
X247491888Y-42237965D01*
X247386405Y-42243842D01*
X247283671Y-42252070D01*
X247181089Y-42262221D01*
X247076064Y-42272159D01*
X246968597Y-42281882D01*
X246858688Y-42291393D01*
X246826250Y-42355907D01*
X246790300Y-42409362D01*
X246718248Y-42459157D01*
X246624749Y-42495555D01*
X246527434Y-42503235D01*
X246487439Y-42498266D01*
X246390756Y-42467779D01*
X246322356Y-42416281D01*
X246284717Y-42351232D01*
X246185799Y-42359781D01*
X246089113Y-42342831D01*
X246007883Y-42297751D01*
X245962317Y-42252070D01*
X245928421Y-42183052D01*
X245940156Y-42113662D01*
X246003888Y-42051953D01*
X246033147Y-42034938D01*
X246122296Y-41994225D01*
X246221214Y-41960993D01*
X246315782Y-41938051D01*
X246417830Y-41920835D01*
X246448360Y-41916968D01*
X246481781Y-41828184D01*
X246513046Y-41734939D01*
X246542155Y-41637232D01*
X246569108Y-41535064D01*
X246593904Y-41428435D01*
X246616544Y-41317345D01*
X246637028Y-41201793D01*
X246655356Y-41081780D01*
X246671527Y-40957306D01*
X246685543Y-40828370D01*
X246697402Y-40694974D01*
X246702523Y-40626602D01*
X246707105Y-40557116D01*
X246711148Y-40486514D01*
X246714652Y-40414797D01*
X246717616Y-40341964D01*
X246720042Y-40268016D01*
X246721929Y-40192953D01*
X246723276Y-40116775D01*
X246724085Y-40039481D01*
X246724355Y-39961072D01*
X246724355Y-39877644D01*
X246724355Y-39795765D01*
X246724355Y-39715436D01*
X246724355Y-39636656D01*
X246724355Y-39559426D01*
X246724355Y-39483745D01*
X246724355Y-39409613D01*
X246724355Y-39337031D01*
X246382415Y-39337031D01*
X246285049Y-39324083D01*
X246196027Y-39290549D01*
X246155269Y-39260095D01*
X246113137Y-39198118D01*
X246099093Y-39131867D01*
X246116800Y-39058030D01*
X246179054Y-38996676D01*
X246272019Y-38961440D01*
X246382415Y-38945510D01*
X246438590Y-38945510D01*
X246552698Y-38937229D01*
X246661157Y-38929481D01*
X246763968Y-38922269D01*
X246907594Y-38912451D01*
X247038512Y-38903836D01*
X247156722Y-38896423D01*
X247262223Y-38890212D01*
X247383123Y-38883800D01*
X247481431Y-38879526D01*
X247586532Y-38877122D01*
X247682702Y-38912171D01*
X247758050Y-38963862D01*
X247798622Y-39028537D01*
X247806350Y-39078867D01*
X247791839Y-39146847D01*
X247738227Y-39208381D01*
X247645112Y-39250772D01*
X247533857Y-39271869D01*
X247418975Y-39278706D01*
X247393580Y-39278901D01*
X247294204Y-39283319D01*
X247242149Y-39289160D01*
X247242149Y-39361555D01*
X247242149Y-39435125D01*
X247242149Y-39509871D01*
X247242149Y-39585793D01*
X247242149Y-39662889D01*
X247242149Y-39741162D01*
X247242149Y-39820609D01*
X247242149Y-39901232D01*
X247242149Y-39983031D01*
X247242149Y-40065150D01*
X247242149Y-40147589D01*
X247242149Y-40230349D01*
X247242149Y-40313430D01*
X247242149Y-40396831D01*
X247242149Y-40480553D01*
X247242149Y-40564596D01*
X247241491Y-40660018D01*
X247239516Y-40753518D01*
X247236225Y-40845093D01*
X247231616Y-40934746D01*
X247225692Y-41022475D01*
X247218450Y-41108280D01*
X247209892Y-41192162D01*
X247200017Y-41274121D01*
X247188826Y-41354157D01*
X247176318Y-41432268D01*
X247162494Y-41508457D01*
X247147353Y-41582722D01*
X247130895Y-41655064D01*
X247113120Y-41725482D01*
X247094029Y-41793977D01*
X247073622Y-41860548D01*
X247174830Y-41852320D01*
X247282485Y-41845874D01*
X247383572Y-41842403D01*
X247447313Y-41841742D01*
X247723308Y-41841742D01*
G37*
G36*
X254564550Y-39017317D02*
G01*
X254519775Y-39078860D01*
X254452923Y-39129917D01*
X254437544Y-39140416D01*
X254312980Y-39169481D01*
X254173485Y-39170102D01*
X254030994Y-39171965D01*
X253885507Y-39175071D01*
X253737025Y-39179418D01*
X253585546Y-39185008D01*
X253431072Y-39191840D01*
X253273602Y-39199915D01*
X253113137Y-39209231D01*
X252949675Y-39219790D01*
X252783218Y-39231591D01*
X252613765Y-39244634D01*
X252441316Y-39258919D01*
X252265872Y-39274447D01*
X252087431Y-39291217D01*
X251905995Y-39309229D01*
X251721563Y-39328483D01*
X251708397Y-39417574D01*
X251696986Y-39507894D01*
X251689580Y-39576441D01*
X251683162Y-39645679D01*
X251677731Y-39715608D01*
X251673287Y-39786228D01*
X251669831Y-39857540D01*
X251667362Y-39929542D01*
X251665881Y-40002236D01*
X251665387Y-40075622D01*
X251664915Y-40149032D01*
X251663498Y-40222442D01*
X251661137Y-40295852D01*
X251657831Y-40369263D01*
X251653581Y-40442673D01*
X251648386Y-40516083D01*
X251642246Y-40589493D01*
X251635162Y-40662904D01*
X251627134Y-40736314D01*
X251618161Y-40809724D01*
X251611654Y-40858664D01*
X251597171Y-40975805D01*
X251581200Y-41089580D01*
X251563740Y-41199990D01*
X251544792Y-41307033D01*
X251524356Y-41410710D01*
X251502432Y-41511022D01*
X251479019Y-41607967D01*
X251454117Y-41701546D01*
X251427728Y-41791760D01*
X251399850Y-41878607D01*
X251370483Y-41962088D01*
X251339628Y-42042204D01*
X251307285Y-42118953D01*
X251273454Y-42192337D01*
X251238134Y-42262354D01*
X251201326Y-42329006D01*
X251155559Y-42390595D01*
X251080378Y-42446909D01*
X250989016Y-42473730D01*
X250881473Y-42471058D01*
X250852059Y-42465782D01*
X250762433Y-42437721D01*
X250694350Y-42388219D01*
X250662904Y-42320125D01*
X250665442Y-42245291D01*
X250671319Y-42221295D01*
X250705599Y-42153728D01*
X250738219Y-42085668D01*
X250769178Y-42017113D01*
X250798478Y-41948064D01*
X250826117Y-41878520D01*
X250852097Y-41808483D01*
X250876416Y-41737951D01*
X250899075Y-41666925D01*
X250920075Y-41595405D01*
X250939414Y-41523390D01*
X250957093Y-41450881D01*
X250973112Y-41377879D01*
X250987470Y-41304382D01*
X251000169Y-41230390D01*
X251011208Y-41155905D01*
X251020586Y-41080925D01*
X251029163Y-41006426D01*
X251037187Y-40933811D01*
X251044658Y-40863079D01*
X251051575Y-40794230D01*
X251060913Y-40694488D01*
X251069005Y-40598983D01*
X251075853Y-40507717D01*
X251081456Y-40420687D01*
X251085814Y-40337895D01*
X251088927Y-40259341D01*
X251090794Y-40185024D01*
X251091417Y-40114945D01*
X251092714Y-40024090D01*
X251096607Y-39933610D01*
X251103095Y-39843503D01*
X251112177Y-39753771D01*
X251123855Y-39664412D01*
X251138128Y-39575427D01*
X251154996Y-39486817D01*
X251174459Y-39398580D01*
X251065695Y-39414555D01*
X250956778Y-39431706D01*
X250847708Y-39450032D01*
X250738486Y-39469533D01*
X250629111Y-39490210D01*
X250519583Y-39512062D01*
X250409903Y-39535089D01*
X250300070Y-39559292D01*
X250190237Y-39582133D01*
X250080557Y-39601928D01*
X249971029Y-39618678D01*
X249861654Y-39632382D01*
X249752432Y-39643041D01*
X249643362Y-39650654D01*
X249534445Y-39655222D01*
X249425680Y-39656745D01*
X249344608Y-39699696D01*
X249244941Y-39716585D01*
X249143532Y-39704683D01*
X249076413Y-39678971D01*
X249011114Y-39624239D01*
X248972837Y-39555878D01*
X248973333Y-39481319D01*
X249005573Y-39410996D01*
X249020237Y-39390032D01*
X249091807Y-39340624D01*
X249183322Y-39305789D01*
X249284936Y-39282321D01*
X249388033Y-39267414D01*
X249425680Y-39263514D01*
X249577912Y-39242423D01*
X249729915Y-39221466D01*
X249881689Y-39200643D01*
X250033235Y-39179953D01*
X250184551Y-39159396D01*
X250335638Y-39138973D01*
X250486496Y-39118684D01*
X250637125Y-39098528D01*
X250787525Y-39078506D01*
X250937696Y-39058617D01*
X251087639Y-39038862D01*
X251237352Y-39019241D01*
X251386836Y-38999753D01*
X251536091Y-38980398D01*
X251685118Y-38961178D01*
X251833915Y-38942091D01*
X251982827Y-38923457D01*
X252132196Y-38906027D01*
X252282024Y-38889798D01*
X252432310Y-38874771D01*
X252583054Y-38860947D01*
X252734255Y-38848324D01*
X252885915Y-38836904D01*
X253038032Y-38826686D01*
X253190608Y-38817670D01*
X253343641Y-38809856D01*
X253497132Y-38803244D01*
X253651082Y-38797835D01*
X253805489Y-38793627D01*
X253960354Y-38790622D01*
X254115677Y-38788819D01*
X254271459Y-38788218D01*
X254339847Y-38788218D01*
X254429362Y-38818601D01*
X254510912Y-38857714D01*
X254535241Y-38883961D01*
X254557223Y-38921574D01*
X254564550Y-38931832D01*
X254564550Y-38948929D01*
X254564550Y-39017317D01*
G37*
G36*
X257112003Y-41841742D02*
G01*
X257210027Y-41871428D01*
X257292573Y-41915773D01*
X257347850Y-41978945D01*
X257363573Y-42046906D01*
X257342707Y-42121092D01*
X257280111Y-42178239D01*
X257189435Y-42214730D01*
X257099791Y-42233263D01*
X256988813Y-42234438D01*
X256880583Y-42237965D01*
X256775100Y-42243842D01*
X256672366Y-42252070D01*
X256569784Y-42262221D01*
X256464759Y-42272159D01*
X256357292Y-42281882D01*
X256247383Y-42291393D01*
X256214945Y-42355907D01*
X256178995Y-42409362D01*
X256106944Y-42459157D01*
X256013444Y-42495555D01*
X255916129Y-42503235D01*
X255876134Y-42498266D01*
X255779451Y-42467779D01*
X255711051Y-42416281D01*
X255673412Y-42351232D01*
X255574494Y-42359781D01*
X255477808Y-42342831D01*
X255396578Y-42297751D01*
X255351012Y-42252070D01*
X255317116Y-42183052D01*
X255328851Y-42113662D01*
X255392583Y-42051953D01*
X255421842Y-42034938D01*
X255510991Y-41994225D01*
X255609909Y-41960993D01*
X255704477Y-41938051D01*
X255806525Y-41920835D01*
X255837055Y-41916968D01*
X255870476Y-41828184D01*
X255901741Y-41734939D01*
X255930850Y-41637232D01*
X255957803Y-41535064D01*
X255982599Y-41428435D01*
X256005239Y-41317345D01*
X256025723Y-41201793D01*
X256044051Y-41081780D01*
X256060223Y-40957306D01*
X256074238Y-40828370D01*
X256086097Y-40694974D01*
X256091218Y-40626602D01*
X256095800Y-40557116D01*
X256099843Y-40486514D01*
X256103347Y-40414797D01*
X256106311Y-40341964D01*
X256108737Y-40268016D01*
X256110624Y-40192953D01*
X256111971Y-40116775D01*
X256112780Y-40039481D01*
X256113050Y-39961072D01*
X256113050Y-39877644D01*
X256113050Y-39795765D01*
X256113050Y-39715436D01*
X256113050Y-39636656D01*
X256113050Y-39559426D01*
X256113050Y-39483745D01*
X256113050Y-39409613D01*
X256113050Y-39337031D01*
X255771110Y-39337031D01*
X255673744Y-39324083D01*
X255584722Y-39290549D01*
X255543964Y-39260095D01*
X255501832Y-39198118D01*
X255487788Y-39131867D01*
X255505496Y-39058030D01*
X255567749Y-38996676D01*
X255660714Y-38961440D01*
X255771110Y-38945510D01*
X255827285Y-38945510D01*
X255941393Y-38937229D01*
X256049852Y-38929481D01*
X256152663Y-38922269D01*
X256296289Y-38912451D01*
X256427207Y-38903836D01*
X256545417Y-38896423D01*
X256650918Y-38890212D01*
X256771818Y-38883800D01*
X256870126Y-38879526D01*
X256975227Y-38877122D01*
X257071397Y-38912171D01*
X257146745Y-38963862D01*
X257187317Y-39028537D01*
X257195045Y-39078867D01*
X257180534Y-39146847D01*
X257126922Y-39208381D01*
X257033807Y-39250772D01*
X256922552Y-39271869D01*
X256807670Y-39278706D01*
X256782275Y-39278901D01*
X256682899Y-39283319D01*
X256630844Y-39289160D01*
X256630844Y-39361555D01*
X256630844Y-39435125D01*
X256630844Y-39509871D01*
X256630844Y-39585793D01*
X256630844Y-39662889D01*
X256630844Y-39741162D01*
X256630844Y-39820609D01*
X256630844Y-39901232D01*
X256630844Y-39983031D01*
X256630844Y-40065150D01*
X256630844Y-40147589D01*
X256630844Y-40230349D01*
X256630844Y-40313430D01*
X256630844Y-40396831D01*
X256630844Y-40480553D01*
X256630844Y-40564596D01*
X256630186Y-40660018D01*
X256628211Y-40753518D01*
X256624920Y-40845093D01*
X256620311Y-40934746D01*
X256614387Y-41022475D01*
X256607145Y-41108280D01*
X256598587Y-41192162D01*
X256588713Y-41274121D01*
X256577521Y-41354157D01*
X256565013Y-41432268D01*
X256551189Y-41508457D01*
X256536048Y-41582722D01*
X256519590Y-41655064D01*
X256501816Y-41725482D01*
X256482725Y-41793977D01*
X256462317Y-41860548D01*
X256563525Y-41852320D01*
X256671180Y-41845874D01*
X256772267Y-41842403D01*
X256836008Y-41841742D01*
X257112003Y-41841742D01*
G37*
G36*
X261202598Y-38462723D02*
G01*
X261322998Y-38476157D01*
X261439705Y-38498547D01*
X261552719Y-38529893D01*
X261662042Y-38570194D01*
X261767672Y-38619451D01*
X261869610Y-38677665D01*
X261967856Y-38744834D01*
X262062409Y-38820959D01*
X262123394Y-38876684D01*
X262182737Y-38936390D01*
X262211793Y-38967736D01*
X262264248Y-39027602D01*
X262312925Y-39087094D01*
X262378857Y-39175632D01*
X262436287Y-39263327D01*
X262485217Y-39350181D01*
X262525646Y-39436194D01*
X262557574Y-39521365D01*
X262581001Y-39605695D01*
X262595927Y-39689183D01*
X262602353Y-39771829D01*
X262600278Y-39853634D01*
X262597697Y-39880716D01*
X262587121Y-39961289D01*
X262573712Y-40041441D01*
X262557469Y-40121172D01*
X262538392Y-40200483D01*
X262516482Y-40279373D01*
X262491738Y-40357842D01*
X262464160Y-40435891D01*
X262433749Y-40513518D01*
X262400504Y-40590725D01*
X262364426Y-40667512D01*
X262338800Y-40718469D01*
X262298063Y-40793647D01*
X262254622Y-40867233D01*
X262208476Y-40939225D01*
X262159625Y-41009625D01*
X262108069Y-41078432D01*
X262053808Y-41145647D01*
X261996843Y-41211268D01*
X261937173Y-41275297D01*
X261874798Y-41337732D01*
X261809718Y-41398575D01*
X261764829Y-41438252D01*
X261658049Y-41522128D01*
X261547758Y-41599792D01*
X261433956Y-41671246D01*
X261316643Y-41736488D01*
X261195820Y-41795520D01*
X261071485Y-41848340D01*
X260943639Y-41894949D01*
X260812282Y-41935348D01*
X260677414Y-41969535D01*
X260539035Y-41997511D01*
X260397145Y-42019277D01*
X260251745Y-42034831D01*
X260102833Y-42044174D01*
X259950410Y-42047306D01*
X259794476Y-42044228D01*
X259635031Y-42034938D01*
X259508750Y-42023210D01*
X259388804Y-42006835D01*
X259275193Y-41985811D01*
X259167917Y-41960138D01*
X259066976Y-41929818D01*
X258972370Y-41894849D01*
X258884099Y-41855232D01*
X258802163Y-41810967D01*
X258726792Y-41763069D01*
X258658213Y-41712552D01*
X258596427Y-41659418D01*
X258528747Y-41589319D01*
X258471682Y-41515129D01*
X258425230Y-41436848D01*
X258395711Y-41371279D01*
X258389393Y-41354477D01*
X258366495Y-41285982D01*
X258346650Y-41215564D01*
X258329859Y-41143222D01*
X258316120Y-41068957D01*
X258305434Y-40992769D01*
X258297802Y-40914657D01*
X258293222Y-40834621D01*
X258293115Y-40828851D01*
X258833457Y-40828851D01*
X258836484Y-40930687D01*
X258850373Y-41029908D01*
X258865666Y-41094603D01*
X258892047Y-41172574D01*
X258928445Y-41246205D01*
X258974860Y-41315495D01*
X259031294Y-41380443D01*
X259097745Y-41441051D01*
X259174214Y-41497317D01*
X259207606Y-41518608D01*
X259299412Y-41566877D01*
X259403859Y-41606965D01*
X259496519Y-41633145D01*
X259597269Y-41654089D01*
X259706110Y-41669797D01*
X259823041Y-41680268D01*
X259948063Y-41685504D01*
X260013608Y-41686159D01*
X260028262Y-41675901D01*
X260124433Y-41659238D01*
X260220604Y-41645580D01*
X260326391Y-41634028D01*
X260336008Y-41633158D01*
X260433574Y-41617876D01*
X260538790Y-41593166D01*
X260645128Y-41562954D01*
X260746880Y-41530676D01*
X260782973Y-41518608D01*
X260875995Y-41483279D01*
X260971879Y-41439268D01*
X261050648Y-41397807D01*
X261131248Y-41350791D01*
X261213680Y-41298217D01*
X261297944Y-41240088D01*
X261384039Y-41176401D01*
X261427774Y-41142474D01*
X261494292Y-41090337D01*
X261557375Y-41037147D01*
X261617024Y-40982906D01*
X261691213Y-40908948D01*
X261759295Y-40833120D01*
X261821272Y-40755423D01*
X261877143Y-40675855D01*
X261926907Y-40594417D01*
X261960223Y-40532111D01*
X262005198Y-40437878D01*
X262042426Y-40344953D01*
X262071907Y-40253337D01*
X262093641Y-40163030D01*
X262107628Y-40074032D01*
X262113867Y-39986343D01*
X262112360Y-39899963D01*
X262103105Y-39814892D01*
X262086104Y-39731130D01*
X262061355Y-39648677D01*
X262028859Y-39567533D01*
X261988617Y-39487699D01*
X261940627Y-39409173D01*
X261884890Y-39331956D01*
X261821406Y-39256048D01*
X261750175Y-39181449D01*
X261680756Y-39113541D01*
X261605613Y-39053435D01*
X261524746Y-39001129D01*
X261438154Y-38956623D01*
X261345838Y-38919918D01*
X261247798Y-38891013D01*
X261144032Y-38869909D01*
X261034543Y-38856606D01*
X260993022Y-38856606D01*
X261022026Y-38922088D01*
X261016530Y-38995819D01*
X260978367Y-39053221D01*
X260907155Y-39103711D01*
X260809854Y-39124765D01*
X260748779Y-39121609D01*
X260647456Y-39106462D01*
X260550952Y-39089399D01*
X260516748Y-39082286D01*
X260418688Y-39059205D01*
X260336008Y-39041253D01*
X260213970Y-39084420D01*
X260095153Y-39135701D01*
X259979555Y-39195096D01*
X259904278Y-39239201D01*
X259830433Y-39286912D01*
X259758019Y-39338230D01*
X259687036Y-39393154D01*
X259617484Y-39451685D01*
X259549363Y-39513822D01*
X259482673Y-39579565D01*
X259417414Y-39648915D01*
X259353587Y-39721871D01*
X259291190Y-39798433D01*
X259230225Y-39878602D01*
X259200279Y-39920039D01*
X259143159Y-40002165D01*
X259090866Y-40083128D01*
X259043401Y-40162930D01*
X259000763Y-40241569D01*
X258962953Y-40319047D01*
X258929971Y-40395362D01*
X258901816Y-40470516D01*
X258878489Y-40544507D01*
X258859990Y-40617336D01*
X258846318Y-40689003D01*
X258837474Y-40759508D01*
X258833457Y-40828851D01*
X258293115Y-40828851D01*
X258291696Y-40752663D01*
X258294100Y-40669315D01*
X258301313Y-40585967D01*
X258313334Y-40502619D01*
X258330164Y-40419271D01*
X258351802Y-40335923D01*
X258378249Y-40252576D01*
X258409505Y-40169228D01*
X258445569Y-40085880D01*
X258488951Y-39998732D01*
X258534832Y-39913815D01*
X258583213Y-39831128D01*
X258634094Y-39750672D01*
X258687474Y-39672446D01*
X258743354Y-39596451D01*
X258801734Y-39522687D01*
X258862613Y-39451154D01*
X258925993Y-39381851D01*
X258991871Y-39314778D01*
X259060250Y-39249937D01*
X259131128Y-39187326D01*
X259204506Y-39126945D01*
X259280383Y-39068795D01*
X259358760Y-39012876D01*
X259439637Y-38959188D01*
X259406412Y-38884750D01*
X259420532Y-38807894D01*
X259478468Y-38747833D01*
X259561988Y-38701691D01*
X259635031Y-38673668D01*
X259740619Y-38645958D01*
X259835730Y-38620533D01*
X259933454Y-38593758D01*
X260027678Y-38566963D01*
X260077111Y-38552279D01*
X260175264Y-38524142D01*
X260268221Y-38500854D01*
X260348221Y-38483891D01*
X260447253Y-38468263D01*
X260544671Y-38460274D01*
X260629100Y-38458245D01*
X261078507Y-38458245D01*
X261202598Y-38462723D01*
G37*
G36*
X265372296Y-39007059D02*
G01*
X265372296Y-39075447D01*
X265482575Y-39101710D01*
X265566934Y-39138228D01*
X265647859Y-39188531D01*
X265725348Y-39252618D01*
X265781212Y-39309729D01*
X265835143Y-39374595D01*
X265887143Y-39447213D01*
X265937210Y-39527586D01*
X265985345Y-39615712D01*
X266029939Y-39693746D01*
X266080371Y-39773973D01*
X266136642Y-39856394D01*
X266198753Y-39941009D01*
X266266702Y-40027818D01*
X266340490Y-40116821D01*
X266392926Y-40177375D01*
X266447957Y-40238905D01*
X266505583Y-40301409D01*
X266565804Y-40364888D01*
X266628620Y-40429342D01*
X266694031Y-40494772D01*
X266762038Y-40561176D01*
X266831103Y-40627380D01*
X266899081Y-40692636D01*
X266965971Y-40756944D01*
X267031773Y-40820303D01*
X267096488Y-40882713D01*
X267160115Y-40944176D01*
X267222655Y-41004690D01*
X267284107Y-41064256D01*
X267344471Y-41122873D01*
X267403748Y-41180542D01*
X267461937Y-41237262D01*
X267519038Y-41293035D01*
X267602651Y-41374915D01*
X267683816Y-41454662D01*
X267736567Y-41506640D01*
X267752745Y-41427961D01*
X267763450Y-41357917D01*
X267771235Y-41285468D01*
X267776101Y-41210615D01*
X267778047Y-41133358D01*
X267778088Y-41120248D01*
X267781368Y-41050825D01*
X267791206Y-40975057D01*
X267807605Y-40892945D01*
X267825446Y-40822687D01*
X267847485Y-40748368D01*
X267873722Y-40669989D01*
X267904157Y-40587550D01*
X267912422Y-40566305D01*
X267948829Y-40478256D01*
X267979040Y-40409414D01*
X268011741Y-40338167D01*
X268046932Y-40264517D01*
X268084613Y-40188462D01*
X268124784Y-40110003D01*
X268167445Y-40029139D01*
X268212597Y-39945871D01*
X268260239Y-39860199D01*
X268310370Y-39772123D01*
X268327634Y-39742230D01*
X268379462Y-39651895D01*
X268429615Y-39561049D01*
X268478094Y-39469692D01*
X268524899Y-39377824D01*
X268570029Y-39285445D01*
X268613484Y-39192555D01*
X268655266Y-39099154D01*
X268695373Y-39005243D01*
X268733805Y-38910820D01*
X268770563Y-38815887D01*
X268794138Y-38752314D01*
X268860208Y-38693676D01*
X268951560Y-38652403D01*
X269055395Y-38630104D01*
X269094557Y-38625796D01*
X269123866Y-38625796D01*
X269214520Y-38652108D01*
X269295409Y-38695653D01*
X269346127Y-38757443D01*
X269360483Y-38830199D01*
X269332112Y-38898440D01*
X269304606Y-38928413D01*
X269274574Y-39020236D01*
X269242181Y-39111698D01*
X269207426Y-39202800D01*
X269170310Y-39293541D01*
X269130833Y-39383921D01*
X269088995Y-39473941D01*
X269044795Y-39563600D01*
X268998234Y-39652898D01*
X268949311Y-39741836D01*
X268898027Y-39830413D01*
X268862526Y-39889264D01*
X268809733Y-39976654D01*
X268759429Y-40062512D01*
X268711616Y-40146836D01*
X268666292Y-40229628D01*
X268623459Y-40310887D01*
X268583116Y-40390614D01*
X268545263Y-40468807D01*
X268509901Y-40545468D01*
X268477028Y-40620597D01*
X268446646Y-40694192D01*
X268427774Y-40742405D01*
X268402021Y-40813170D01*
X268378801Y-40882493D01*
X268358115Y-40950374D01*
X268334473Y-41038637D01*
X268315334Y-41124335D01*
X268300699Y-41207470D01*
X268290566Y-41288039D01*
X268284937Y-41366044D01*
X268283671Y-41422865D01*
X268283022Y-41497424D01*
X268281076Y-41571502D01*
X268277832Y-41645099D01*
X268273290Y-41718216D01*
X268267451Y-41790851D01*
X268260315Y-41863006D01*
X268251881Y-41934680D01*
X268242149Y-42005873D01*
X268188826Y-42076017D01*
X268109903Y-42130960D01*
X268012981Y-42156941D01*
X267898060Y-42153961D01*
X267804955Y-42134100D01*
X267726454Y-42083344D01*
X267649097Y-42031518D01*
X267572886Y-41978624D01*
X267497819Y-41924662D01*
X267423898Y-41869631D01*
X267351121Y-41813532D01*
X267279489Y-41756363D01*
X267209002Y-41698127D01*
X267139660Y-41638822D01*
X267071463Y-41578448D01*
X267004411Y-41517005D01*
X266938503Y-41454495D01*
X266873741Y-41390915D01*
X266810123Y-41326267D01*
X266747650Y-41260550D01*
X266686322Y-41193765D01*
X266626664Y-41127160D01*
X266568590Y-41062412D01*
X266512099Y-40999521D01*
X266457192Y-40938486D01*
X266403869Y-40879307D01*
X266326854Y-40794021D01*
X266253402Y-40712912D01*
X266183514Y-40635981D01*
X266117189Y-40563227D01*
X266054428Y-40494650D01*
X265995230Y-40430251D01*
X265939595Y-40370029D01*
X265921842Y-40350883D01*
X265854447Y-40276485D01*
X265792699Y-40205452D01*
X265736599Y-40137785D01*
X265686148Y-40073484D01*
X265641345Y-40012550D01*
X265593283Y-39941115D01*
X265554047Y-39874939D01*
X265540823Y-39849941D01*
X265501897Y-39778314D01*
X265460223Y-39710894D01*
X265415802Y-39647682D01*
X265360504Y-39579253D01*
X265301466Y-39516550D01*
X265284815Y-39584390D01*
X265266919Y-39651990D01*
X265247777Y-39719349D01*
X265227391Y-39786469D01*
X265205760Y-39853347D01*
X265182884Y-39919985D01*
X265158762Y-39986383D01*
X265133396Y-40052541D01*
X265106784Y-40118458D01*
X265078928Y-40184134D01*
X265059665Y-40227785D01*
X265021884Y-40312575D01*
X264986698Y-40393412D01*
X264954106Y-40470295D01*
X264924110Y-40543225D01*
X264896709Y-40612200D01*
X264866107Y-40692860D01*
X264839560Y-40767342D01*
X264830077Y-40795405D01*
X264808312Y-40862533D01*
X264785185Y-40938347D01*
X264765321Y-41008993D01*
X264746271Y-41084879D01*
X264731662Y-41153729D01*
X264729937Y-41162991D01*
X264727249Y-41232706D01*
X264719185Y-41304221D01*
X264705744Y-41377536D01*
X264686928Y-41452651D01*
X264673761Y-41496382D01*
X264649890Y-41576339D01*
X264624989Y-41650796D01*
X264599057Y-41719754D01*
X264562879Y-41803141D01*
X264524869Y-41876752D01*
X264485027Y-41940585D01*
X264432648Y-42006627D01*
X264366015Y-42065712D01*
X264273508Y-42095098D01*
X264172472Y-42106284D01*
X264072638Y-42082242D01*
X264058269Y-42074261D01*
X263984472Y-42026237D01*
X263928754Y-41969149D01*
X263902565Y-41902115D01*
X263911724Y-41840032D01*
X263938621Y-41768851D01*
X263964360Y-41699563D01*
X263988939Y-41632168D01*
X264002094Y-41595545D01*
X264029475Y-41522816D01*
X264059720Y-41452090D01*
X264092826Y-41383368D01*
X264099791Y-41369864D01*
X264099791Y-41359606D01*
X264128108Y-41276712D01*
X264156882Y-41194727D01*
X264186115Y-41113650D01*
X264215806Y-41033481D01*
X264245955Y-40954220D01*
X264276561Y-40875868D01*
X264307626Y-40798424D01*
X264339149Y-40721888D01*
X264366664Y-40644257D01*
X264394256Y-40567801D01*
X264421924Y-40492521D01*
X264449669Y-40418416D01*
X264477489Y-40345487D01*
X264505386Y-40273733D01*
X264533360Y-40203155D01*
X264561410Y-40133751D01*
X264592169Y-40053769D01*
X264620944Y-39975390D01*
X264647734Y-39898614D01*
X264672540Y-39823441D01*
X264695362Y-39749870D01*
X264716199Y-39677903D01*
X264735051Y-39607538D01*
X264751919Y-39538776D01*
X264773500Y-39438638D01*
X264790616Y-39342107D01*
X264803267Y-39249182D01*
X264811453Y-39159864D01*
X264815174Y-39074151D01*
X264815422Y-39046382D01*
X264815422Y-39017317D01*
X264827634Y-38988252D01*
X264866961Y-38924780D01*
X264936017Y-38870711D01*
X265028162Y-38842501D01*
X265037683Y-38841218D01*
X265141028Y-38849767D01*
X265238680Y-38879820D01*
X265316626Y-38931512D01*
X265357641Y-38977994D01*
X265372296Y-39007059D01*
G37*
%LPC*%
D11*
X276230000Y-58250000D03*
X161940000Y-24110000D03*
X238110000Y-44540000D03*
X180975000Y-58250000D03*
X238130000Y-23960000D03*
X123860000Y-24110000D03*
X85700000Y-58250000D03*
X123820000Y-44560000D03*
X161940000Y-44520000D03*
X276230000Y-23950000D03*
X200030000Y-44520000D03*
X200030000Y-23940000D03*
X85700000Y-24110000D03*
%LPD*%
M02*
