G04 #@! TF.GenerationSoftware,KiCad,Pcbnew,7.0.11+dfsg-1build4*
G04 #@! TF.CreationDate,2026-06-02T17:31:25-04:00*
G04 #@! TF.ProjectId,mission-control-plate-fkeys,6d697373-696f-46e2-9d63-6f6e74726f6c,rev?*
G04 #@! TF.SameCoordinates,Original*
G04 #@! TF.FileFunction,Profile,NP*
%FSLAX46Y46*%
G04 Gerber Fmt 4.6, Leading zero omitted, Abs format (unit mm)*
G04 Created by KiCad (PCBNEW 7.0.11+dfsg-1build4) date 2026-06-02 17:31:25*
%MOMM*%
%LPD*%
G01*
G04 APERTURE LIST*
G04 #@! TA.AperFunction,Profile*
%ADD10C,0.150000*%
G04 #@! TD*
G04 #@! TA.AperFunction,Profile*
%ADD11C,0.120000*%
G04 #@! TD*
G04 APERTURE END LIST*
D10*
X296000000Y-23125000D02*
X296000000Y-59125000D01*
X69000000Y-62125000D02*
X293000000Y-62125000D01*
X66000000Y-23125000D02*
X66000000Y-59125000D01*
X296000000Y-23125000D02*
G75*
G03*
X293000000Y-20125000I-3000000J0D01*
G01*
X69000000Y-20125000D02*
X293000000Y-20125000D01*
X293000000Y-62125000D02*
G75*
G03*
X296000000Y-59125000I0J3000000D01*
G01*
X66000000Y-59125000D02*
G75*
G03*
X69000000Y-62125000I3000000J0D01*
G01*
X69000000Y-20125000D02*
G75*
G03*
X66000000Y-23125000I0J-3000000D01*
G01*
D11*
X278750000Y-23840034D02*
X292750000Y-23840034D01*
X278750000Y-37840034D02*
X278750000Y-23840034D01*
X292750000Y-23840034D02*
X292750000Y-37840034D01*
X292750000Y-37840034D02*
X278750000Y-37840034D01*
X202550000Y-23840034D02*
X216550000Y-23840034D01*
X202550000Y-37840034D02*
X202550000Y-23840034D01*
X216550000Y-23840034D02*
X216550000Y-37840034D01*
X216550000Y-37840034D02*
X202550000Y-37840034D01*
X145400000Y-44400055D02*
X159400000Y-44400055D01*
X145400000Y-58400055D02*
X145400000Y-44400055D01*
X159400000Y-44400055D02*
X159400000Y-58400055D01*
X159400000Y-58400055D02*
X145400000Y-58400055D01*
X240650000Y-23840034D02*
X254650000Y-23840034D01*
X240650000Y-37840034D02*
X240650000Y-23840034D01*
X254650000Y-23840034D02*
X254650000Y-37840034D01*
X254650000Y-37840034D02*
X240650000Y-37840034D01*
X164450000Y-23840034D02*
X178450000Y-23840034D01*
X164450000Y-37840034D02*
X164450000Y-23840034D01*
X178450000Y-23840034D02*
X178450000Y-37840034D01*
X178450000Y-37840034D02*
X164450000Y-37840034D01*
X145400000Y-23840034D02*
X159400000Y-23840034D01*
X145400000Y-37840034D02*
X145400000Y-23840034D01*
X159400000Y-23840034D02*
X159400000Y-37840034D01*
X159400000Y-37840034D02*
X145400000Y-37840034D01*
X69200000Y-23840034D02*
X83200000Y-23840034D01*
X69200000Y-37840034D02*
X69200000Y-23840034D01*
X83200000Y-23840034D02*
X83200000Y-37840034D01*
X83200000Y-37840034D02*
X69200000Y-37840034D01*
X126350000Y-23840034D02*
X140350000Y-23840034D01*
X126350000Y-37840034D02*
X126350000Y-23840034D01*
X140350000Y-23840034D02*
X140350000Y-37840034D01*
X140350000Y-37840034D02*
X126350000Y-37840034D01*
X183500000Y-23840034D02*
X197500000Y-23840034D01*
X183500000Y-37840034D02*
X183500000Y-23840034D01*
X197500000Y-23840034D02*
X197500000Y-37840034D01*
X197500000Y-37840034D02*
X183500000Y-37840034D01*
X126350000Y-44400055D02*
X140350000Y-44400055D01*
X126350000Y-58400055D02*
X126350000Y-44400055D01*
X140350000Y-44400055D02*
X140350000Y-58400055D01*
X140350000Y-58400055D02*
X126350000Y-58400055D01*
X278750000Y-44400055D02*
X292750000Y-44400055D01*
X278750000Y-58400055D02*
X278750000Y-44400055D01*
X292750000Y-44400055D02*
X292750000Y-58400055D01*
X292750000Y-58400055D02*
X278750000Y-58400055D01*
X259700000Y-44400055D02*
X273700000Y-44400055D01*
X259700000Y-58400055D02*
X259700000Y-44400055D01*
X273700000Y-44400055D02*
X273700000Y-58400055D01*
X273700000Y-58400055D02*
X259700000Y-58400055D01*
X183500000Y-44400055D02*
X197500000Y-44400055D01*
X183500000Y-58400055D02*
X183500000Y-44400055D01*
X197500000Y-44400055D02*
X197500000Y-58400055D01*
X197500000Y-58400055D02*
X183500000Y-58400055D01*
X259700000Y-23840034D02*
X273700000Y-23840034D01*
X259700000Y-37840034D02*
X259700000Y-23840034D01*
X273700000Y-23840034D02*
X273700000Y-37840034D01*
X273700000Y-37840034D02*
X259700000Y-37840034D01*
X202550000Y-44400055D02*
X216550000Y-44400055D01*
X202550000Y-58400055D02*
X202550000Y-44400055D01*
X216550000Y-44400055D02*
X216550000Y-58400055D01*
X216550000Y-58400055D02*
X202550000Y-58400055D01*
X88250000Y-44400055D02*
X102250000Y-44400055D01*
X88250000Y-58400055D02*
X88250000Y-44400055D01*
X102250000Y-44400055D02*
X102250000Y-58400055D01*
X102250000Y-58400055D02*
X88250000Y-58400055D01*
X107300000Y-44400055D02*
X121300000Y-44400055D01*
X107300000Y-58400055D02*
X107300000Y-44400055D01*
X121300000Y-44400055D02*
X121300000Y-58400055D01*
X121300000Y-58400055D02*
X107300000Y-58400055D01*
X221600000Y-44400055D02*
X235600000Y-44400055D01*
X221600000Y-58400055D02*
X221600000Y-44400055D01*
X235600000Y-44400055D02*
X235600000Y-58400055D01*
X235600000Y-58400055D02*
X221600000Y-58400055D01*
X88250000Y-23840034D02*
X102250000Y-23840034D01*
X88250000Y-37840034D02*
X88250000Y-23840034D01*
X102250000Y-23840034D02*
X102250000Y-37840034D01*
X102250000Y-37840034D02*
X88250000Y-37840034D01*
X240650000Y-44400055D02*
X254650000Y-44400055D01*
X240650000Y-58400055D02*
X240650000Y-44400055D01*
X254650000Y-44400055D02*
X254650000Y-58400055D01*
X254650000Y-58400055D02*
X240650000Y-58400055D01*
X221600000Y-23840034D02*
X235600000Y-23840034D01*
X221600000Y-37840034D02*
X221600000Y-23840034D01*
X235600000Y-23840034D02*
X235600000Y-37840034D01*
X235600000Y-37840034D02*
X221600000Y-37840034D01*
X107300000Y-23840034D02*
X121300000Y-23840034D01*
X107300000Y-37840034D02*
X107300000Y-23840034D01*
X121300000Y-23840034D02*
X121300000Y-37840034D01*
X121300000Y-37840034D02*
X107300000Y-37840034D01*
X69200000Y-44400055D02*
X83200000Y-44400055D01*
X69200000Y-58400055D02*
X69200000Y-44400055D01*
X83200000Y-44400055D02*
X83200000Y-58400055D01*
X83200000Y-58400055D02*
X69200000Y-58400055D01*
X164450000Y-44400055D02*
X178450000Y-44400055D01*
X164450000Y-58400055D02*
X164450000Y-44400055D01*
X178450000Y-44400055D02*
X178450000Y-58400055D01*
X178450000Y-58400055D02*
X164450000Y-58400055D01*
M02*
