%TF.GenerationSoftware,KiCad,Pcbnew,7.0.11+dfsg-1build4*%
%TF.CreationDate,2026-06-02T17:31:28-04:00*%
%TF.ProjectId,mission-control-plate-fkeys,6d697373-696f-46e2-9d63-6f6e74726f6c,rev?*%
%TF.SameCoordinates,Original*%
%TF.FileFunction,Drillmap*%
%TF.FilePolarity,Positive*%
%FSLAX45Y45*%
G04 Gerber Fmt 4.5, Leading zero omitted, Abs format (unit mm)*
G04 Created by KiCad (PCBNEW 7.0.11+dfsg-1build4) date 2026-06-02 17:31:28*
%MOMM*%
%LPD*%
G01*
G04 APERTURE LIST*
%ADD10C,0.150000*%
%ADD11C,0.120000*%
%ADD12C,0.200000*%
%ADD13C,0.270000*%
G04 APERTURE END LIST*
D10*
X29600000Y-2312500D02*
X29600000Y-5912500D01*
X6900000Y-6212500D02*
X29300000Y-6212500D01*
X6600000Y-2312500D02*
X6600000Y-5912500D01*
X29600000Y-2312500D02*
G75*
G03*
X29300000Y-2012500I-300000J0D01*
G01*
X6900000Y-2012500D02*
X29300000Y-2012500D01*
X29300000Y-6212500D02*
G75*
G03*
X29600000Y-5912500I0J300000D01*
G01*
X6600000Y-5912500D02*
G75*
G03*
X6900000Y-6212500I300000J0D01*
G01*
X6900000Y-2012500D02*
G75*
G03*
X6600000Y-2312500I0J-300000D01*
G01*
D11*
X27875000Y-2384003D02*
X29275000Y-2384003D01*
X27875000Y-3784003D02*
X27875000Y-2384003D01*
X29275000Y-2384003D02*
X29275000Y-3784003D01*
X29275000Y-3784003D02*
X27875000Y-3784003D01*
X20255000Y-2384003D02*
X21655000Y-2384003D01*
X20255000Y-3784003D02*
X20255000Y-2384003D01*
X21655000Y-2384003D02*
X21655000Y-3784003D01*
X21655000Y-3784003D02*
X20255000Y-3784003D01*
X14540000Y-4440006D02*
X15940000Y-4440006D01*
X14540000Y-5840005D02*
X14540000Y-4440006D01*
X15940000Y-4440006D02*
X15940000Y-5840005D01*
X15940000Y-5840005D02*
X14540000Y-5840005D01*
X24065000Y-2384003D02*
X25465000Y-2384003D01*
X24065000Y-3784003D02*
X24065000Y-2384003D01*
X25465000Y-2384003D02*
X25465000Y-3784003D01*
X25465000Y-3784003D02*
X24065000Y-3784003D01*
X16445000Y-2384003D02*
X17845000Y-2384003D01*
X16445000Y-3784003D02*
X16445000Y-2384003D01*
X17845000Y-2384003D02*
X17845000Y-3784003D01*
X17845000Y-3784003D02*
X16445000Y-3784003D01*
X14540000Y-2384003D02*
X15940000Y-2384003D01*
X14540000Y-3784003D02*
X14540000Y-2384003D01*
X15940000Y-2384003D02*
X15940000Y-3784003D01*
X15940000Y-3784003D02*
X14540000Y-3784003D01*
X6920000Y-2384003D02*
X8320000Y-2384003D01*
X6920000Y-3784003D02*
X6920000Y-2384003D01*
X8320000Y-2384003D02*
X8320000Y-3784003D01*
X8320000Y-3784003D02*
X6920000Y-3784003D01*
X12635000Y-2384003D02*
X14035000Y-2384003D01*
X12635000Y-3784003D02*
X12635000Y-2384003D01*
X14035000Y-2384003D02*
X14035000Y-3784003D01*
X14035000Y-3784003D02*
X12635000Y-3784003D01*
X18350000Y-2384003D02*
X19750000Y-2384003D01*
X18350000Y-3784003D02*
X18350000Y-2384003D01*
X19750000Y-2384003D02*
X19750000Y-3784003D01*
X19750000Y-3784003D02*
X18350000Y-3784003D01*
X12635000Y-4440006D02*
X14035000Y-4440006D01*
X12635000Y-5840005D02*
X12635000Y-4440006D01*
X14035000Y-4440006D02*
X14035000Y-5840005D01*
X14035000Y-5840005D02*
X12635000Y-5840005D01*
X27875000Y-4440006D02*
X29275000Y-4440006D01*
X27875000Y-5840005D02*
X27875000Y-4440006D01*
X29275000Y-4440006D02*
X29275000Y-5840005D01*
X29275000Y-5840005D02*
X27875000Y-5840005D01*
X25970000Y-4440006D02*
X27370000Y-4440006D01*
X25970000Y-5840005D02*
X25970000Y-4440006D01*
X27370000Y-4440006D02*
X27370000Y-5840005D01*
X27370000Y-5840005D02*
X25970000Y-5840005D01*
X18350000Y-4440006D02*
X19750000Y-4440006D01*
X18350000Y-5840005D02*
X18350000Y-4440006D01*
X19750000Y-4440006D02*
X19750000Y-5840005D01*
X19750000Y-5840005D02*
X18350000Y-5840005D01*
X25970000Y-2384003D02*
X27370000Y-2384003D01*
X25970000Y-3784003D02*
X25970000Y-2384003D01*
X27370000Y-2384003D02*
X27370000Y-3784003D01*
X27370000Y-3784003D02*
X25970000Y-3784003D01*
X20255000Y-4440006D02*
X21655000Y-4440006D01*
X20255000Y-5840005D02*
X20255000Y-4440006D01*
X21655000Y-4440006D02*
X21655000Y-5840005D01*
X21655000Y-5840005D02*
X20255000Y-5840005D01*
X8825000Y-4440006D02*
X10225000Y-4440006D01*
X8825000Y-5840005D02*
X8825000Y-4440006D01*
X10225000Y-4440006D02*
X10225000Y-5840005D01*
X10225000Y-5840005D02*
X8825000Y-5840005D01*
X10730000Y-4440006D02*
X12130000Y-4440006D01*
X10730000Y-5840005D02*
X10730000Y-4440006D01*
X12130000Y-4440006D02*
X12130000Y-5840005D01*
X12130000Y-5840005D02*
X10730000Y-5840005D01*
X22160000Y-4440006D02*
X23560000Y-4440006D01*
X22160000Y-5840005D02*
X22160000Y-4440006D01*
X23560000Y-4440006D02*
X23560000Y-5840005D01*
X23560000Y-5840005D02*
X22160000Y-5840005D01*
X8825000Y-2384003D02*
X10225000Y-2384003D01*
X8825000Y-3784003D02*
X8825000Y-2384003D01*
X10225000Y-2384003D02*
X10225000Y-3784003D01*
X10225000Y-3784003D02*
X8825000Y-3784003D01*
X24065000Y-4440006D02*
X25465000Y-4440006D01*
X24065000Y-5840005D02*
X24065000Y-4440006D01*
X25465000Y-4440006D02*
X25465000Y-5840005D01*
X25465000Y-5840005D02*
X24065000Y-5840005D01*
X22160000Y-2384003D02*
X23560000Y-2384003D01*
X22160000Y-3784003D02*
X22160000Y-2384003D01*
X23560000Y-2384003D02*
X23560000Y-3784003D01*
X23560000Y-3784003D02*
X22160000Y-3784003D01*
X10730000Y-2384003D02*
X12130000Y-2384003D01*
X10730000Y-3784003D02*
X10730000Y-2384003D01*
X12130000Y-2384003D02*
X12130000Y-3784003D01*
X12130000Y-3784003D02*
X10730000Y-3784003D01*
X6920000Y-4440006D02*
X8320000Y-4440006D01*
X6920000Y-5840005D02*
X6920000Y-4440006D01*
X8320000Y-4440006D02*
X8320000Y-5840005D01*
X8320000Y-5840005D02*
X6920000Y-5840005D01*
X16445000Y-4440006D02*
X17845000Y-4440006D01*
X16445000Y-5840005D02*
X16445000Y-4440006D01*
X17845000Y-4440006D02*
X17845000Y-5840005D01*
X17845000Y-5840005D02*
X16445000Y-5840005D01*
D12*
D13*
X8435000Y-2276000D02*
X8705000Y-2546000D01*
X8705000Y-2276000D02*
X8435000Y-2546000D01*
X8435000Y-5690000D02*
X8705000Y-5960000D01*
X8705000Y-5690000D02*
X8435000Y-5960000D01*
X12247000Y-4321000D02*
X12517000Y-4591000D01*
X12517000Y-4321000D02*
X12247000Y-4591000D01*
X12251000Y-2276000D02*
X12521000Y-2546000D01*
X12521000Y-2276000D02*
X12251000Y-2546000D01*
X16059000Y-2276000D02*
X16329000Y-2546000D01*
X16329000Y-2276000D02*
X16059000Y-2546000D01*
X16059000Y-4317000D02*
X16329000Y-4587000D01*
X16329000Y-4317000D02*
X16059000Y-4587000D01*
X17962500Y-5690000D02*
X18232500Y-5960000D01*
X18232500Y-5690000D02*
X17962500Y-5960000D01*
X19868000Y-2259000D02*
X20138000Y-2529000D01*
X20138000Y-2259000D02*
X19868000Y-2529000D01*
X19868000Y-4317000D02*
X20138000Y-4587000D01*
X20138000Y-4317000D02*
X19868000Y-4587000D01*
X23676000Y-4319000D02*
X23946000Y-4589000D01*
X23946000Y-4319000D02*
X23676000Y-4589000D01*
X23678000Y-2261000D02*
X23948000Y-2531000D01*
X23948000Y-2261000D02*
X23678000Y-2531000D01*
X27488000Y-2260000D02*
X27758000Y-2530000D01*
X27758000Y-2260000D02*
X27488000Y-2530000D01*
X27488000Y-5690000D02*
X27758000Y-5960000D01*
X27758000Y-5690000D02*
X27488000Y-5960000D01*
D12*
X6853277Y-6531484D02*
X6853277Y-6331484D01*
X6853277Y-6331484D02*
X6900896Y-6331484D01*
X6900896Y-6331484D02*
X6929467Y-6341008D01*
X6929467Y-6341008D02*
X6948515Y-6360055D01*
X6948515Y-6360055D02*
X6958039Y-6379103D01*
X6958039Y-6379103D02*
X6967562Y-6417198D01*
X6967562Y-6417198D02*
X6967562Y-6445769D01*
X6967562Y-6445769D02*
X6958039Y-6483865D01*
X6958039Y-6483865D02*
X6948515Y-6502912D01*
X6948515Y-6502912D02*
X6929467Y-6521960D01*
X6929467Y-6521960D02*
X6900896Y-6531484D01*
X6900896Y-6531484D02*
X6853277Y-6531484D01*
X7053277Y-6531484D02*
X7053277Y-6398150D01*
X7053277Y-6436246D02*
X7062801Y-6417198D01*
X7062801Y-6417198D02*
X7072324Y-6407674D01*
X7072324Y-6407674D02*
X7091372Y-6398150D01*
X7091372Y-6398150D02*
X7110420Y-6398150D01*
X7177086Y-6531484D02*
X7177086Y-6398150D01*
X7177086Y-6331484D02*
X7167562Y-6341008D01*
X7167562Y-6341008D02*
X7177086Y-6350531D01*
X7177086Y-6350531D02*
X7186610Y-6341008D01*
X7186610Y-6341008D02*
X7177086Y-6331484D01*
X7177086Y-6331484D02*
X7177086Y-6350531D01*
X7300896Y-6531484D02*
X7281848Y-6521960D01*
X7281848Y-6521960D02*
X7272324Y-6502912D01*
X7272324Y-6502912D02*
X7272324Y-6331484D01*
X7405658Y-6531484D02*
X7386610Y-6521960D01*
X7386610Y-6521960D02*
X7377086Y-6502912D01*
X7377086Y-6502912D02*
X7377086Y-6331484D01*
X7634229Y-6531484D02*
X7634229Y-6331484D01*
X7634229Y-6331484D02*
X7700896Y-6474341D01*
X7700896Y-6474341D02*
X7767562Y-6331484D01*
X7767562Y-6331484D02*
X7767562Y-6531484D01*
X7948515Y-6531484D02*
X7948515Y-6426722D01*
X7948515Y-6426722D02*
X7938991Y-6407674D01*
X7938991Y-6407674D02*
X7919943Y-6398150D01*
X7919943Y-6398150D02*
X7881848Y-6398150D01*
X7881848Y-6398150D02*
X7862801Y-6407674D01*
X7948515Y-6521960D02*
X7929467Y-6531484D01*
X7929467Y-6531484D02*
X7881848Y-6531484D01*
X7881848Y-6531484D02*
X7862801Y-6521960D01*
X7862801Y-6521960D02*
X7853277Y-6502912D01*
X7853277Y-6502912D02*
X7853277Y-6483865D01*
X7853277Y-6483865D02*
X7862801Y-6464817D01*
X7862801Y-6464817D02*
X7881848Y-6455293D01*
X7881848Y-6455293D02*
X7929467Y-6455293D01*
X7929467Y-6455293D02*
X7948515Y-6445769D01*
X8043753Y-6398150D02*
X8043753Y-6598150D01*
X8043753Y-6407674D02*
X8062801Y-6398150D01*
X8062801Y-6398150D02*
X8100896Y-6398150D01*
X8100896Y-6398150D02*
X8119943Y-6407674D01*
X8119943Y-6407674D02*
X8129467Y-6417198D01*
X8129467Y-6417198D02*
X8138991Y-6436246D01*
X8138991Y-6436246D02*
X8138991Y-6493388D01*
X8138991Y-6493388D02*
X8129467Y-6512436D01*
X8129467Y-6512436D02*
X8119943Y-6521960D01*
X8119943Y-6521960D02*
X8100896Y-6531484D01*
X8100896Y-6531484D02*
X8062801Y-6531484D01*
X8062801Y-6531484D02*
X8043753Y-6521960D01*
X8224705Y-6512436D02*
X8234229Y-6521960D01*
X8234229Y-6521960D02*
X8224705Y-6531484D01*
X8224705Y-6531484D02*
X8215182Y-6521960D01*
X8215182Y-6521960D02*
X8224705Y-6512436D01*
X8224705Y-6512436D02*
X8224705Y-6531484D01*
X8224705Y-6407674D02*
X8234229Y-6417198D01*
X8234229Y-6417198D02*
X8224705Y-6426722D01*
X8224705Y-6426722D02*
X8215182Y-6417198D01*
X8215182Y-6417198D02*
X8224705Y-6407674D01*
X8224705Y-6407674D02*
X8224705Y-6426722D01*
X6392500Y-6760000D02*
X6592500Y-6960000D01*
X6592500Y-6760000D02*
X6392500Y-6960000D01*
X6843753Y-6770531D02*
X6853277Y-6761008D01*
X6853277Y-6761008D02*
X6872324Y-6751484D01*
X6872324Y-6751484D02*
X6919943Y-6751484D01*
X6919943Y-6751484D02*
X6938991Y-6761008D01*
X6938991Y-6761008D02*
X6948515Y-6770531D01*
X6948515Y-6770531D02*
X6958039Y-6789579D01*
X6958039Y-6789579D02*
X6958039Y-6808627D01*
X6958039Y-6808627D02*
X6948515Y-6837198D01*
X6948515Y-6837198D02*
X6834229Y-6951484D01*
X6834229Y-6951484D02*
X6958039Y-6951484D01*
X7043753Y-6932436D02*
X7053277Y-6941960D01*
X7053277Y-6941960D02*
X7043753Y-6951484D01*
X7043753Y-6951484D02*
X7034229Y-6941960D01*
X7034229Y-6941960D02*
X7043753Y-6932436D01*
X7043753Y-6932436D02*
X7043753Y-6951484D01*
X7119943Y-6751484D02*
X7253277Y-6751484D01*
X7253277Y-6751484D02*
X7167562Y-6951484D01*
X7367562Y-6751484D02*
X7386610Y-6751484D01*
X7386610Y-6751484D02*
X7405658Y-6761008D01*
X7405658Y-6761008D02*
X7415182Y-6770531D01*
X7415182Y-6770531D02*
X7424705Y-6789579D01*
X7424705Y-6789579D02*
X7434229Y-6827674D01*
X7434229Y-6827674D02*
X7434229Y-6875293D01*
X7434229Y-6875293D02*
X7424705Y-6913388D01*
X7424705Y-6913388D02*
X7415182Y-6932436D01*
X7415182Y-6932436D02*
X7405658Y-6941960D01*
X7405658Y-6941960D02*
X7386610Y-6951484D01*
X7386610Y-6951484D02*
X7367562Y-6951484D01*
X7367562Y-6951484D02*
X7348515Y-6941960D01*
X7348515Y-6941960D02*
X7338991Y-6932436D01*
X7338991Y-6932436D02*
X7329467Y-6913388D01*
X7329467Y-6913388D02*
X7319943Y-6875293D01*
X7319943Y-6875293D02*
X7319943Y-6827674D01*
X7319943Y-6827674D02*
X7329467Y-6789579D01*
X7329467Y-6789579D02*
X7338991Y-6770531D01*
X7338991Y-6770531D02*
X7348515Y-6761008D01*
X7348515Y-6761008D02*
X7367562Y-6751484D01*
X7558039Y-6751484D02*
X7577086Y-6751484D01*
X7577086Y-6751484D02*
X7596134Y-6761008D01*
X7596134Y-6761008D02*
X7605658Y-6770531D01*
X7605658Y-6770531D02*
X7615182Y-6789579D01*
X7615182Y-6789579D02*
X7624705Y-6827674D01*
X7624705Y-6827674D02*
X7624705Y-6875293D01*
X7624705Y-6875293D02*
X7615182Y-6913388D01*
X7615182Y-6913388D02*
X7605658Y-6932436D01*
X7605658Y-6932436D02*
X7596134Y-6941960D01*
X7596134Y-6941960D02*
X7577086Y-6951484D01*
X7577086Y-6951484D02*
X7558039Y-6951484D01*
X7558039Y-6951484D02*
X7538991Y-6941960D01*
X7538991Y-6941960D02*
X7529467Y-6932436D01*
X7529467Y-6932436D02*
X7519943Y-6913388D01*
X7519943Y-6913388D02*
X7510420Y-6875293D01*
X7510420Y-6875293D02*
X7510420Y-6827674D01*
X7510420Y-6827674D02*
X7519943Y-6789579D01*
X7519943Y-6789579D02*
X7529467Y-6770531D01*
X7529467Y-6770531D02*
X7538991Y-6761008D01*
X7538991Y-6761008D02*
X7558039Y-6751484D01*
X7710420Y-6951484D02*
X7710420Y-6818150D01*
X7710420Y-6837198D02*
X7719943Y-6827674D01*
X7719943Y-6827674D02*
X7738991Y-6818150D01*
X7738991Y-6818150D02*
X7767563Y-6818150D01*
X7767563Y-6818150D02*
X7786610Y-6827674D01*
X7786610Y-6827674D02*
X7796134Y-6846722D01*
X7796134Y-6846722D02*
X7796134Y-6951484D01*
X7796134Y-6846722D02*
X7805658Y-6827674D01*
X7805658Y-6827674D02*
X7824705Y-6818150D01*
X7824705Y-6818150D02*
X7853277Y-6818150D01*
X7853277Y-6818150D02*
X7872324Y-6827674D01*
X7872324Y-6827674D02*
X7881848Y-6846722D01*
X7881848Y-6846722D02*
X7881848Y-6951484D01*
X7977086Y-6951484D02*
X7977086Y-6818150D01*
X7977086Y-6837198D02*
X7986610Y-6827674D01*
X7986610Y-6827674D02*
X8005658Y-6818150D01*
X8005658Y-6818150D02*
X8034229Y-6818150D01*
X8034229Y-6818150D02*
X8053277Y-6827674D01*
X8053277Y-6827674D02*
X8062801Y-6846722D01*
X8062801Y-6846722D02*
X8062801Y-6951484D01*
X8062801Y-6846722D02*
X8072324Y-6827674D01*
X8072324Y-6827674D02*
X8091372Y-6818150D01*
X8091372Y-6818150D02*
X8119943Y-6818150D01*
X8119943Y-6818150D02*
X8138991Y-6827674D01*
X8138991Y-6827674D02*
X8148515Y-6846722D01*
X8148515Y-6846722D02*
X8148515Y-6951484D01*
X8538991Y-6741960D02*
X8367563Y-6999103D01*
X8796134Y-6751484D02*
X8815182Y-6751484D01*
X8815182Y-6751484D02*
X8834229Y-6761008D01*
X8834229Y-6761008D02*
X8843753Y-6770531D01*
X8843753Y-6770531D02*
X8853277Y-6789579D01*
X8853277Y-6789579D02*
X8862801Y-6827674D01*
X8862801Y-6827674D02*
X8862801Y-6875293D01*
X8862801Y-6875293D02*
X8853277Y-6913388D01*
X8853277Y-6913388D02*
X8843753Y-6932436D01*
X8843753Y-6932436D02*
X8834229Y-6941960D01*
X8834229Y-6941960D02*
X8815182Y-6951484D01*
X8815182Y-6951484D02*
X8796134Y-6951484D01*
X8796134Y-6951484D02*
X8777087Y-6941960D01*
X8777087Y-6941960D02*
X8767563Y-6932436D01*
X8767563Y-6932436D02*
X8758039Y-6913388D01*
X8758039Y-6913388D02*
X8748515Y-6875293D01*
X8748515Y-6875293D02*
X8748515Y-6827674D01*
X8748515Y-6827674D02*
X8758039Y-6789579D01*
X8758039Y-6789579D02*
X8767563Y-6770531D01*
X8767563Y-6770531D02*
X8777087Y-6761008D01*
X8777087Y-6761008D02*
X8796134Y-6751484D01*
X8948515Y-6932436D02*
X8958039Y-6941960D01*
X8958039Y-6941960D02*
X8948515Y-6951484D01*
X8948515Y-6951484D02*
X8938991Y-6941960D01*
X8938991Y-6941960D02*
X8948515Y-6932436D01*
X8948515Y-6932436D02*
X8948515Y-6951484D01*
X9148515Y-6951484D02*
X9034229Y-6951484D01*
X9091372Y-6951484D02*
X9091372Y-6751484D01*
X9091372Y-6751484D02*
X9072325Y-6780055D01*
X9072325Y-6780055D02*
X9053277Y-6799103D01*
X9053277Y-6799103D02*
X9034229Y-6808627D01*
X9272325Y-6751484D02*
X9291372Y-6751484D01*
X9291372Y-6751484D02*
X9310420Y-6761008D01*
X9310420Y-6761008D02*
X9319944Y-6770531D01*
X9319944Y-6770531D02*
X9329468Y-6789579D01*
X9329468Y-6789579D02*
X9338991Y-6827674D01*
X9338991Y-6827674D02*
X9338991Y-6875293D01*
X9338991Y-6875293D02*
X9329468Y-6913388D01*
X9329468Y-6913388D02*
X9319944Y-6932436D01*
X9319944Y-6932436D02*
X9310420Y-6941960D01*
X9310420Y-6941960D02*
X9291372Y-6951484D01*
X9291372Y-6951484D02*
X9272325Y-6951484D01*
X9272325Y-6951484D02*
X9253277Y-6941960D01*
X9253277Y-6941960D02*
X9243753Y-6932436D01*
X9243753Y-6932436D02*
X9234229Y-6913388D01*
X9234229Y-6913388D02*
X9224706Y-6875293D01*
X9224706Y-6875293D02*
X9224706Y-6827674D01*
X9224706Y-6827674D02*
X9234229Y-6789579D01*
X9234229Y-6789579D02*
X9243753Y-6770531D01*
X9243753Y-6770531D02*
X9253277Y-6761008D01*
X9253277Y-6761008D02*
X9272325Y-6751484D01*
X9510420Y-6751484D02*
X9472325Y-6751484D01*
X9472325Y-6751484D02*
X9453277Y-6761008D01*
X9453277Y-6761008D02*
X9443753Y-6770531D01*
X9443753Y-6770531D02*
X9424706Y-6799103D01*
X9424706Y-6799103D02*
X9415182Y-6837198D01*
X9415182Y-6837198D02*
X9415182Y-6913388D01*
X9415182Y-6913388D02*
X9424706Y-6932436D01*
X9424706Y-6932436D02*
X9434229Y-6941960D01*
X9434229Y-6941960D02*
X9453277Y-6951484D01*
X9453277Y-6951484D02*
X9491372Y-6951484D01*
X9491372Y-6951484D02*
X9510420Y-6941960D01*
X9510420Y-6941960D02*
X9519944Y-6932436D01*
X9519944Y-6932436D02*
X9529468Y-6913388D01*
X9529468Y-6913388D02*
X9529468Y-6865769D01*
X9529468Y-6865769D02*
X9519944Y-6846722D01*
X9519944Y-6846722D02*
X9510420Y-6837198D01*
X9510420Y-6837198D02*
X9491372Y-6827674D01*
X9491372Y-6827674D02*
X9453277Y-6827674D01*
X9453277Y-6827674D02*
X9434229Y-6837198D01*
X9434229Y-6837198D02*
X9424706Y-6846722D01*
X9424706Y-6846722D02*
X9415182Y-6865769D01*
X9596134Y-6751484D02*
X9719944Y-6751484D01*
X9719944Y-6751484D02*
X9653277Y-6827674D01*
X9653277Y-6827674D02*
X9681849Y-6827674D01*
X9681849Y-6827674D02*
X9700896Y-6837198D01*
X9700896Y-6837198D02*
X9710420Y-6846722D01*
X9710420Y-6846722D02*
X9719944Y-6865769D01*
X9719944Y-6865769D02*
X9719944Y-6913388D01*
X9719944Y-6913388D02*
X9710420Y-6932436D01*
X9710420Y-6932436D02*
X9700896Y-6941960D01*
X9700896Y-6941960D02*
X9681849Y-6951484D01*
X9681849Y-6951484D02*
X9624706Y-6951484D01*
X9624706Y-6951484D02*
X9605658Y-6941960D01*
X9605658Y-6941960D02*
X9596134Y-6932436D01*
X9796134Y-6751484D02*
X9796134Y-6789579D01*
X9872325Y-6751484D02*
X9872325Y-6789579D01*
X10167563Y-7027674D02*
X10158039Y-7018150D01*
X10158039Y-7018150D02*
X10138991Y-6989579D01*
X10138991Y-6989579D02*
X10129468Y-6970531D01*
X10129468Y-6970531D02*
X10119944Y-6941960D01*
X10119944Y-6941960D02*
X10110420Y-6894341D01*
X10110420Y-6894341D02*
X10110420Y-6856246D01*
X10110420Y-6856246D02*
X10119944Y-6808627D01*
X10119944Y-6808627D02*
X10129468Y-6780055D01*
X10129468Y-6780055D02*
X10138991Y-6761008D01*
X10138991Y-6761008D02*
X10158039Y-6732436D01*
X10158039Y-6732436D02*
X10167563Y-6722912D01*
X10348515Y-6951484D02*
X10234230Y-6951484D01*
X10291372Y-6951484D02*
X10291372Y-6751484D01*
X10291372Y-6751484D02*
X10272325Y-6780055D01*
X10272325Y-6780055D02*
X10253277Y-6799103D01*
X10253277Y-6799103D02*
X10234230Y-6808627D01*
X10415182Y-6751484D02*
X10538991Y-6751484D01*
X10538991Y-6751484D02*
X10472325Y-6827674D01*
X10472325Y-6827674D02*
X10500896Y-6827674D01*
X10500896Y-6827674D02*
X10519944Y-6837198D01*
X10519944Y-6837198D02*
X10529468Y-6846722D01*
X10529468Y-6846722D02*
X10538991Y-6865769D01*
X10538991Y-6865769D02*
X10538991Y-6913388D01*
X10538991Y-6913388D02*
X10529468Y-6932436D01*
X10529468Y-6932436D02*
X10519944Y-6941960D01*
X10519944Y-6941960D02*
X10500896Y-6951484D01*
X10500896Y-6951484D02*
X10443753Y-6951484D01*
X10443753Y-6951484D02*
X10424706Y-6941960D01*
X10424706Y-6941960D02*
X10415182Y-6932436D01*
X10777087Y-6951484D02*
X10777087Y-6751484D01*
X10862801Y-6951484D02*
X10862801Y-6846722D01*
X10862801Y-6846722D02*
X10853277Y-6827674D01*
X10853277Y-6827674D02*
X10834230Y-6818150D01*
X10834230Y-6818150D02*
X10805658Y-6818150D01*
X10805658Y-6818150D02*
X10786611Y-6827674D01*
X10786611Y-6827674D02*
X10777087Y-6837198D01*
X10986611Y-6951484D02*
X10967563Y-6941960D01*
X10967563Y-6941960D02*
X10958039Y-6932436D01*
X10958039Y-6932436D02*
X10948515Y-6913388D01*
X10948515Y-6913388D02*
X10948515Y-6856246D01*
X10948515Y-6856246D02*
X10958039Y-6837198D01*
X10958039Y-6837198D02*
X10967563Y-6827674D01*
X10967563Y-6827674D02*
X10986611Y-6818150D01*
X10986611Y-6818150D02*
X11015182Y-6818150D01*
X11015182Y-6818150D02*
X11034230Y-6827674D01*
X11034230Y-6827674D02*
X11043753Y-6837198D01*
X11043753Y-6837198D02*
X11053277Y-6856246D01*
X11053277Y-6856246D02*
X11053277Y-6913388D01*
X11053277Y-6913388D02*
X11043753Y-6932436D01*
X11043753Y-6932436D02*
X11034230Y-6941960D01*
X11034230Y-6941960D02*
X11015182Y-6951484D01*
X11015182Y-6951484D02*
X10986611Y-6951484D01*
X11167563Y-6951484D02*
X11148515Y-6941960D01*
X11148515Y-6941960D02*
X11138992Y-6922912D01*
X11138992Y-6922912D02*
X11138992Y-6751484D01*
X11319944Y-6941960D02*
X11300896Y-6951484D01*
X11300896Y-6951484D02*
X11262801Y-6951484D01*
X11262801Y-6951484D02*
X11243753Y-6941960D01*
X11243753Y-6941960D02*
X11234230Y-6922912D01*
X11234230Y-6922912D02*
X11234230Y-6846722D01*
X11234230Y-6846722D02*
X11243753Y-6827674D01*
X11243753Y-6827674D02*
X11262801Y-6818150D01*
X11262801Y-6818150D02*
X11300896Y-6818150D01*
X11300896Y-6818150D02*
X11319944Y-6827674D01*
X11319944Y-6827674D02*
X11329468Y-6846722D01*
X11329468Y-6846722D02*
X11329468Y-6865769D01*
X11329468Y-6865769D02*
X11234230Y-6884817D01*
X11405658Y-6941960D02*
X11424706Y-6951484D01*
X11424706Y-6951484D02*
X11462801Y-6951484D01*
X11462801Y-6951484D02*
X11481849Y-6941960D01*
X11481849Y-6941960D02*
X11491372Y-6922912D01*
X11491372Y-6922912D02*
X11491372Y-6913388D01*
X11491372Y-6913388D02*
X11481849Y-6894341D01*
X11481849Y-6894341D02*
X11462801Y-6884817D01*
X11462801Y-6884817D02*
X11434230Y-6884817D01*
X11434230Y-6884817D02*
X11415182Y-6875293D01*
X11415182Y-6875293D02*
X11405658Y-6856246D01*
X11405658Y-6856246D02*
X11405658Y-6846722D01*
X11405658Y-6846722D02*
X11415182Y-6827674D01*
X11415182Y-6827674D02*
X11434230Y-6818150D01*
X11434230Y-6818150D02*
X11462801Y-6818150D01*
X11462801Y-6818150D02*
X11481849Y-6827674D01*
X11558039Y-7027674D02*
X11567563Y-7018150D01*
X11567563Y-7018150D02*
X11586611Y-6989579D01*
X11586611Y-6989579D02*
X11596134Y-6970531D01*
X11596134Y-6970531D02*
X11605658Y-6941960D01*
X11605658Y-6941960D02*
X11615182Y-6894341D01*
X11615182Y-6894341D02*
X11615182Y-6856246D01*
X11615182Y-6856246D02*
X11605658Y-6808627D01*
X11605658Y-6808627D02*
X11596134Y-6780055D01*
X11596134Y-6780055D02*
X11586611Y-6761008D01*
X11586611Y-6761008D02*
X11567563Y-6732436D01*
X11567563Y-6732436D02*
X11558039Y-6722912D01*
X11919944Y-7027674D02*
X11910420Y-7018150D01*
X11910420Y-7018150D02*
X11891372Y-6989579D01*
X11891372Y-6989579D02*
X11881849Y-6970531D01*
X11881849Y-6970531D02*
X11872325Y-6941960D01*
X11872325Y-6941960D02*
X11862801Y-6894341D01*
X11862801Y-6894341D02*
X11862801Y-6856246D01*
X11862801Y-6856246D02*
X11872325Y-6808627D01*
X11872325Y-6808627D02*
X11881849Y-6780055D01*
X11881849Y-6780055D02*
X11891372Y-6761008D01*
X11891372Y-6761008D02*
X11910420Y-6732436D01*
X11910420Y-6732436D02*
X11919944Y-6722912D01*
X11996134Y-6818150D02*
X11996134Y-6951484D01*
X11996134Y-6837198D02*
X12005658Y-6827674D01*
X12005658Y-6827674D02*
X12024706Y-6818150D01*
X12024706Y-6818150D02*
X12053277Y-6818150D01*
X12053277Y-6818150D02*
X12072325Y-6827674D01*
X12072325Y-6827674D02*
X12081849Y-6846722D01*
X12081849Y-6846722D02*
X12081849Y-6951484D01*
X12205658Y-6951484D02*
X12186611Y-6941960D01*
X12186611Y-6941960D02*
X12177087Y-6932436D01*
X12177087Y-6932436D02*
X12167563Y-6913388D01*
X12167563Y-6913388D02*
X12167563Y-6856246D01*
X12167563Y-6856246D02*
X12177087Y-6837198D01*
X12177087Y-6837198D02*
X12186611Y-6827674D01*
X12186611Y-6827674D02*
X12205658Y-6818150D01*
X12205658Y-6818150D02*
X12234230Y-6818150D01*
X12234230Y-6818150D02*
X12253277Y-6827674D01*
X12253277Y-6827674D02*
X12262801Y-6837198D01*
X12262801Y-6837198D02*
X12272325Y-6856246D01*
X12272325Y-6856246D02*
X12272325Y-6913388D01*
X12272325Y-6913388D02*
X12262801Y-6932436D01*
X12262801Y-6932436D02*
X12253277Y-6941960D01*
X12253277Y-6941960D02*
X12234230Y-6951484D01*
X12234230Y-6951484D02*
X12205658Y-6951484D01*
X12329468Y-6818150D02*
X12405658Y-6818150D01*
X12358039Y-6751484D02*
X12358039Y-6922912D01*
X12358039Y-6922912D02*
X12367563Y-6941960D01*
X12367563Y-6941960D02*
X12386611Y-6951484D01*
X12386611Y-6951484D02*
X12405658Y-6951484D01*
X12624706Y-6818150D02*
X12624706Y-7018150D01*
X12624706Y-6827674D02*
X12643753Y-6818150D01*
X12643753Y-6818150D02*
X12681849Y-6818150D01*
X12681849Y-6818150D02*
X12700896Y-6827674D01*
X12700896Y-6827674D02*
X12710420Y-6837198D01*
X12710420Y-6837198D02*
X12719944Y-6856246D01*
X12719944Y-6856246D02*
X12719944Y-6913388D01*
X12719944Y-6913388D02*
X12710420Y-6932436D01*
X12710420Y-6932436D02*
X12700896Y-6941960D01*
X12700896Y-6941960D02*
X12681849Y-6951484D01*
X12681849Y-6951484D02*
X12643753Y-6951484D01*
X12643753Y-6951484D02*
X12624706Y-6941960D01*
X12834230Y-6951484D02*
X12815182Y-6941960D01*
X12815182Y-6941960D02*
X12805658Y-6922912D01*
X12805658Y-6922912D02*
X12805658Y-6751484D01*
X12996134Y-6951484D02*
X12996134Y-6846722D01*
X12996134Y-6846722D02*
X12986611Y-6827674D01*
X12986611Y-6827674D02*
X12967563Y-6818150D01*
X12967563Y-6818150D02*
X12929468Y-6818150D01*
X12929468Y-6818150D02*
X12910420Y-6827674D01*
X12996134Y-6941960D02*
X12977087Y-6951484D01*
X12977087Y-6951484D02*
X12929468Y-6951484D01*
X12929468Y-6951484D02*
X12910420Y-6941960D01*
X12910420Y-6941960D02*
X12900896Y-6922912D01*
X12900896Y-6922912D02*
X12900896Y-6903865D01*
X12900896Y-6903865D02*
X12910420Y-6884817D01*
X12910420Y-6884817D02*
X12929468Y-6875293D01*
X12929468Y-6875293D02*
X12977087Y-6875293D01*
X12977087Y-6875293D02*
X12996134Y-6865769D01*
X13062801Y-6818150D02*
X13138992Y-6818150D01*
X13091373Y-6751484D02*
X13091373Y-6922912D01*
X13091373Y-6922912D02*
X13100896Y-6941960D01*
X13100896Y-6941960D02*
X13119944Y-6951484D01*
X13119944Y-6951484D02*
X13138992Y-6951484D01*
X13281849Y-6941960D02*
X13262801Y-6951484D01*
X13262801Y-6951484D02*
X13224706Y-6951484D01*
X13224706Y-6951484D02*
X13205658Y-6941960D01*
X13205658Y-6941960D02*
X13196134Y-6922912D01*
X13196134Y-6922912D02*
X13196134Y-6846722D01*
X13196134Y-6846722D02*
X13205658Y-6827674D01*
X13205658Y-6827674D02*
X13224706Y-6818150D01*
X13224706Y-6818150D02*
X13262801Y-6818150D01*
X13262801Y-6818150D02*
X13281849Y-6827674D01*
X13281849Y-6827674D02*
X13291373Y-6846722D01*
X13291373Y-6846722D02*
X13291373Y-6865769D01*
X13291373Y-6865769D02*
X13196134Y-6884817D01*
X13462801Y-6951484D02*
X13462801Y-6751484D01*
X13462801Y-6941960D02*
X13443754Y-6951484D01*
X13443754Y-6951484D02*
X13405658Y-6951484D01*
X13405658Y-6951484D02*
X13386611Y-6941960D01*
X13386611Y-6941960D02*
X13377087Y-6932436D01*
X13377087Y-6932436D02*
X13367563Y-6913388D01*
X13367563Y-6913388D02*
X13367563Y-6856246D01*
X13367563Y-6856246D02*
X13377087Y-6837198D01*
X13377087Y-6837198D02*
X13386611Y-6827674D01*
X13386611Y-6827674D02*
X13405658Y-6818150D01*
X13405658Y-6818150D02*
X13443754Y-6818150D01*
X13443754Y-6818150D02*
X13462801Y-6827674D01*
X13538992Y-7027674D02*
X13548515Y-7018150D01*
X13548515Y-7018150D02*
X13567563Y-6989579D01*
X13567563Y-6989579D02*
X13577087Y-6970531D01*
X13577087Y-6970531D02*
X13586611Y-6941960D01*
X13586611Y-6941960D02*
X13596134Y-6894341D01*
X13596134Y-6894341D02*
X13596134Y-6856246D01*
X13596134Y-6856246D02*
X13586611Y-6808627D01*
X13586611Y-6808627D02*
X13577087Y-6780055D01*
X13577087Y-6780055D02*
X13567563Y-6761008D01*
X13567563Y-6761008D02*
X13548515Y-6732436D01*
X13548515Y-6732436D02*
X13538992Y-6722912D01*
M02*
