%TF.GenerationSoftware,KiCad,Pcbnew,7.0.11+dfsg-1build4*%
%TF.CreationDate,2026-06-02T17:31:28-04:00*%
%TF.ProjectId,mission-control-plate-fkeys,6d697373-696f-46e2-9d63-6f6e74726f6c,rev?*%
%TF.SameCoordinates,Original*%
%TF.FileFunction,Drillmap*%
%TF.FilePolarity,Positive*%
%FSLAX45Y45*%
G04 Gerber Fmt 4.5, Leading zero omitted, Abs format (unit mm)*
G04 Created by KiCad (PCBNEW 7.0.11+dfsg-1build4) date 2026-06-02 17:31:28*
%MOMM*%
%LPD*%
G01*
G04 APERTURE LIST*
%ADD10C,0.150000*%
%ADD11C,0.120000*%
%ADD12C,0.200000*%
G04 APERTURE END LIST*
D10*
X29600000Y-2312500D02*
X29600000Y-5912500D01*
X6900000Y-6212500D02*
X29300000Y-6212500D01*
X6600000Y-2312500D02*
X6600000Y-5912500D01*
X29600000Y-2312500D02*
G75*
G03*
X29300000Y-2012500I-300000J0D01*
G01*
X6900000Y-2012500D02*
X29300000Y-2012500D01*
X29300000Y-6212500D02*
G75*
G03*
X29600000Y-5912500I0J300000D01*
G01*
X6600000Y-5912500D02*
G75*
G03*
X6900000Y-6212500I300000J0D01*
G01*
X6900000Y-2012500D02*
G75*
G03*
X6600000Y-2312500I0J-300000D01*
G01*
D11*
X27875000Y-2384003D02*
X29275000Y-2384003D01*
X27875000Y-3784003D02*
X27875000Y-2384003D01*
X29275000Y-2384003D02*
X29275000Y-3784003D01*
X29275000Y-3784003D02*
X27875000Y-3784003D01*
X20255000Y-2384003D02*
X21655000Y-2384003D01*
X20255000Y-3784003D02*
X20255000Y-2384003D01*
X21655000Y-2384003D02*
X21655000Y-3784003D01*
X21655000Y-3784003D02*
X20255000Y-3784003D01*
X14540000Y-4440006D02*
X15940000Y-4440006D01*
X14540000Y-5840005D02*
X14540000Y-4440006D01*
X15940000Y-4440006D02*
X15940000Y-5840005D01*
X15940000Y-5840005D02*
X14540000Y-5840005D01*
X24065000Y-2384003D02*
X25465000Y-2384003D01*
X24065000Y-3784003D02*
X24065000Y-2384003D01*
X25465000Y-2384003D02*
X25465000Y-3784003D01*
X25465000Y-3784003D02*
X24065000Y-3784003D01*
X16445000Y-2384003D02*
X17845000Y-2384003D01*
X16445000Y-3784003D02*
X16445000Y-2384003D01*
X17845000Y-2384003D02*
X17845000Y-3784003D01*
X17845000Y-3784003D02*
X16445000Y-3784003D01*
X14540000Y-2384003D02*
X15940000Y-2384003D01*
X14540000Y-3784003D02*
X14540000Y-2384003D01*
X15940000Y-2384003D02*
X15940000Y-3784003D01*
X15940000Y-3784003D02*
X14540000Y-3784003D01*
X6920000Y-2384003D02*
X8320000Y-2384003D01*
X6920000Y-3784003D02*
X6920000Y-2384003D01*
X8320000Y-2384003D02*
X8320000Y-3784003D01*
X8320000Y-3784003D02*
X6920000Y-3784003D01*
X12635000Y-2384003D02*
X14035000Y-2384003D01*
X12635000Y-3784003D02*
X12635000Y-2384003D01*
X14035000Y-2384003D02*
X14035000Y-3784003D01*
X14035000Y-3784003D02*
X12635000Y-3784003D01*
X18350000Y-2384003D02*
X19750000Y-2384003D01*
X18350000Y-3784003D02*
X18350000Y-2384003D01*
X19750000Y-2384003D02*
X19750000Y-3784003D01*
X19750000Y-3784003D02*
X18350000Y-3784003D01*
X12635000Y-4440006D02*
X14035000Y-4440006D01*
X12635000Y-5840005D02*
X12635000Y-4440006D01*
X14035000Y-4440006D02*
X14035000Y-5840005D01*
X14035000Y-5840005D02*
X12635000Y-5840005D01*
X27875000Y-4440006D02*
X29275000Y-4440006D01*
X27875000Y-5840005D02*
X27875000Y-4440006D01*
X29275000Y-4440006D02*
X29275000Y-5840005D01*
X29275000Y-5840005D02*
X27875000Y-5840005D01*
X25970000Y-4440006D02*
X27370000Y-4440006D01*
X25970000Y-5840005D02*
X25970000Y-4440006D01*
X27370000Y-4440006D02*
X27370000Y-5840005D01*
X27370000Y-5840005D02*
X25970000Y-5840005D01*
X18350000Y-4440006D02*
X19750000Y-4440006D01*
X18350000Y-5840005D02*
X18350000Y-4440006D01*
X19750000Y-4440006D02*
X19750000Y-5840005D01*
X19750000Y-5840005D02*
X18350000Y-5840005D01*
X25970000Y-2384003D02*
X27370000Y-2384003D01*
X25970000Y-3784003D02*
X25970000Y-2384003D01*
X27370000Y-2384003D02*
X27370000Y-3784003D01*
X27370000Y-3784003D02*
X25970000Y-3784003D01*
X20255000Y-4440006D02*
X21655000Y-4440006D01*
X20255000Y-5840005D02*
X20255000Y-4440006D01*
X21655000Y-4440006D02*
X21655000Y-5840005D01*
X21655000Y-5840005D02*
X20255000Y-5840005D01*
X8825000Y-4440006D02*
X10225000Y-4440006D01*
X8825000Y-5840005D02*
X8825000Y-4440006D01*
X10225000Y-4440006D02*
X10225000Y-5840005D01*
X10225000Y-5840005D02*
X8825000Y-5840005D01*
X10730000Y-4440006D02*
X12130000Y-4440006D01*
X10730000Y-5840005D02*
X10730000Y-4440006D01*
X12130000Y-4440006D02*
X12130000Y-5840005D01*
X12130000Y-5840005D02*
X10730000Y-5840005D01*
X22160000Y-4440006D02*
X23560000Y-4440006D01*
X22160000Y-5840005D02*
X22160000Y-4440006D01*
X23560000Y-4440006D02*
X23560000Y-5840005D01*
X23560000Y-5840005D02*
X22160000Y-5840005D01*
X8825000Y-2384003D02*
X10225000Y-2384003D01*
X8825000Y-3784003D02*
X8825000Y-2384003D01*
X10225000Y-2384003D02*
X10225000Y-3784003D01*
X10225000Y-3784003D02*
X8825000Y-3784003D01*
X24065000Y-4440006D02*
X25465000Y-4440006D01*
X24065000Y-5840005D02*
X24065000Y-4440006D01*
X25465000Y-4440006D02*
X25465000Y-5840005D01*
X25465000Y-5840005D02*
X24065000Y-5840005D01*
X22160000Y-2384003D02*
X23560000Y-2384003D01*
X22160000Y-3784003D02*
X22160000Y-2384003D01*
X23560000Y-2384003D02*
X23560000Y-3784003D01*
X23560000Y-3784003D02*
X22160000Y-3784003D01*
X10730000Y-2384003D02*
X12130000Y-2384003D01*
X10730000Y-3784003D02*
X10730000Y-2384003D01*
X12130000Y-2384003D02*
X12130000Y-3784003D01*
X12130000Y-3784003D02*
X10730000Y-3784003D01*
X6920000Y-4440006D02*
X8320000Y-4440006D01*
X6920000Y-5840005D02*
X6920000Y-4440006D01*
X8320000Y-4440006D02*
X8320000Y-5840005D01*
X8320000Y-5840005D02*
X6920000Y-5840005D01*
X16445000Y-4440006D02*
X17845000Y-4440006D01*
X16445000Y-5840005D02*
X16445000Y-4440006D01*
X17845000Y-4440006D02*
X17845000Y-5840005D01*
X17845000Y-5840005D02*
X16445000Y-5840005D01*
D12*
X6853277Y-6531484D02*
X6853277Y-6331484D01*
X6853277Y-6331484D02*
X6900896Y-6331484D01*
X6900896Y-6331484D02*
X6929467Y-6341008D01*
X6929467Y-6341008D02*
X6948515Y-6360055D01*
X6948515Y-6360055D02*
X6958039Y-6379103D01*
X6958039Y-6379103D02*
X6967562Y-6417198D01*
X6967562Y-6417198D02*
X6967562Y-6445769D01*
X6967562Y-6445769D02*
X6958039Y-6483865D01*
X6958039Y-6483865D02*
X6948515Y-6502912D01*
X6948515Y-6502912D02*
X6929467Y-6521960D01*
X6929467Y-6521960D02*
X6900896Y-6531484D01*
X6900896Y-6531484D02*
X6853277Y-6531484D01*
X7053277Y-6531484D02*
X7053277Y-6398150D01*
X7053277Y-6436246D02*
X7062801Y-6417198D01*
X7062801Y-6417198D02*
X7072324Y-6407674D01*
X7072324Y-6407674D02*
X7091372Y-6398150D01*
X7091372Y-6398150D02*
X7110420Y-6398150D01*
X7177086Y-6531484D02*
X7177086Y-6398150D01*
X7177086Y-6331484D02*
X7167562Y-6341008D01*
X7167562Y-6341008D02*
X7177086Y-6350531D01*
X7177086Y-6350531D02*
X7186610Y-6341008D01*
X7186610Y-6341008D02*
X7177086Y-6331484D01*
X7177086Y-6331484D02*
X7177086Y-6350531D01*
X7300896Y-6531484D02*
X7281848Y-6521960D01*
X7281848Y-6521960D02*
X7272324Y-6502912D01*
X7272324Y-6502912D02*
X7272324Y-6331484D01*
X7405658Y-6531484D02*
X7386610Y-6521960D01*
X7386610Y-6521960D02*
X7377086Y-6502912D01*
X7377086Y-6502912D02*
X7377086Y-6331484D01*
X7634229Y-6531484D02*
X7634229Y-6331484D01*
X7634229Y-6331484D02*
X7700896Y-6474341D01*
X7700896Y-6474341D02*
X7767562Y-6331484D01*
X7767562Y-6331484D02*
X7767562Y-6531484D01*
X7948515Y-6531484D02*
X7948515Y-6426722D01*
X7948515Y-6426722D02*
X7938991Y-6407674D01*
X7938991Y-6407674D02*
X7919943Y-6398150D01*
X7919943Y-6398150D02*
X7881848Y-6398150D01*
X7881848Y-6398150D02*
X7862801Y-6407674D01*
X7948515Y-6521960D02*
X7929467Y-6531484D01*
X7929467Y-6531484D02*
X7881848Y-6531484D01*
X7881848Y-6531484D02*
X7862801Y-6521960D01*
X7862801Y-6521960D02*
X7853277Y-6502912D01*
X7853277Y-6502912D02*
X7853277Y-6483865D01*
X7853277Y-6483865D02*
X7862801Y-6464817D01*
X7862801Y-6464817D02*
X7881848Y-6455293D01*
X7881848Y-6455293D02*
X7929467Y-6455293D01*
X7929467Y-6455293D02*
X7948515Y-6445769D01*
X8043753Y-6398150D02*
X8043753Y-6598150D01*
X8043753Y-6407674D02*
X8062801Y-6398150D01*
X8062801Y-6398150D02*
X8100896Y-6398150D01*
X8100896Y-6398150D02*
X8119943Y-6407674D01*
X8119943Y-6407674D02*
X8129467Y-6417198D01*
X8129467Y-6417198D02*
X8138991Y-6436246D01*
X8138991Y-6436246D02*
X8138991Y-6493388D01*
X8138991Y-6493388D02*
X8129467Y-6512436D01*
X8129467Y-6512436D02*
X8119943Y-6521960D01*
X8119943Y-6521960D02*
X8100896Y-6531484D01*
X8100896Y-6531484D02*
X8062801Y-6531484D01*
X8062801Y-6531484D02*
X8043753Y-6521960D01*
X8224705Y-6512436D02*
X8234229Y-6521960D01*
X8234229Y-6521960D02*
X8224705Y-6531484D01*
X8224705Y-6531484D02*
X8215182Y-6521960D01*
X8215182Y-6521960D02*
X8224705Y-6512436D01*
X8224705Y-6512436D02*
X8224705Y-6531484D01*
X8224705Y-6407674D02*
X8234229Y-6417198D01*
X8234229Y-6417198D02*
X8224705Y-6426722D01*
X8224705Y-6426722D02*
X8215182Y-6417198D01*
X8215182Y-6417198D02*
X8224705Y-6407674D01*
X8224705Y-6407674D02*
X8224705Y-6426722D01*
M02*
