G04 #@! TF.GenerationSoftware,KiCad,Pcbnew,7.0.11+dfsg-1build4*
G04 #@! TF.CreationDate,2026-06-03T16:08:01-04:00*
G04 #@! TF.ProjectId,pcb,7063622e-6b69-4636-9164-5f7063625858,rev?*
G04 #@! TF.SameCoordinates,Original*
G04 #@! TF.FileFunction,Soldermask,Bot*
G04 #@! TF.FilePolarity,Negative*
%FSLAX46Y46*%
G04 Gerber Fmt 4.6, Leading zero omitted, Abs format (unit mm)*
G04 Created by KiCad (PCBNEW 7.0.11+dfsg-1build4) date 2026-06-03 16:08:01*
%MOMM*%
%LPD*%
G01*
G04 APERTURE LIST*
G04 Aperture macros list*
%AMRoundRect*
0 Rectangle with rounded corners*
0 $1 Rounding radius*
0 $2 $3 $4 $5 $6 $7 $8 $9 X,Y pos of 4 corners*
0 Add a 4 corners polygon primitive as box body*
4,1,4,$2,$3,$4,$5,$6,$7,$8,$9,$2,$3,0*
0 Add four circle primitives for the rounded corners*
1,1,$1+$1,$2,$3*
1,1,$1+$1,$4,$5*
1,1,$1+$1,$6,$7*
1,1,$1+$1,$8,$9*
0 Add four rect primitives between the rounded corners*
20,1,$1+$1,$2,$3,$4,$5,0*
20,1,$1+$1,$4,$5,$6,$7,0*
20,1,$1+$1,$6,$7,$8,$9,0*
20,1,$1+$1,$8,$9,$2,$3,0*%
%AMOutline5P*
0 Free polygon, 5 corners , with rotation*
0 The origin of the aperture is its center*
0 number of corners: always 5*
0 $1 to $10 corner X, Y*
0 $11 Rotation angle, in degrees counterclockwise*
0 create outline with 5 corners*
4,1,5,$1,$2,$3,$4,$5,$6,$7,$8,$9,$10,$1,$2,$11*%
%AMOutline6P*
0 Free polygon, 6 corners , with rotation*
0 The origin of the aperture is its center*
0 number of corners: always 6*
0 $1 to $12 corner X, Y*
0 $13 Rotation angle, in degrees counterclockwise*
0 create outline with 6 corners*
4,1,6,$1,$2,$3,$4,$5,$6,$7,$8,$9,$10,$11,$12,$1,$2,$13*%
%AMOutline7P*
0 Free polygon, 7 corners , with rotation*
0 The origin of the aperture is its center*
0 number of corners: always 7*
0 $1 to $14 corner X, Y*
0 $15 Rotation angle, in degrees counterclockwise*
0 create outline with 7 corners*
4,1,7,$1,$2,$3,$4,$5,$6,$7,$8,$9,$10,$11,$12,$13,$14,$1,$2,$15*%
%AMOutline8P*
0 Free polygon, 8 corners , with rotation*
0 The origin of the aperture is its center*
0 number of corners: always 8*
0 $1 to $16 corner X, Y*
0 $17 Rotation angle, in degrees counterclockwise*
0 create outline with 8 corners*
4,1,8,$1,$2,$3,$4,$5,$6,$7,$8,$9,$10,$11,$12,$13,$14,$15,$16,$1,$2,$17*%
G04 Aperture macros list end*
%ADD10RoundRect,0.250002X-1.699998X-1.699998X1.699998X-1.699998X1.699998X1.699998X-1.699998X1.699998X0*%
%ADD11C,3.900000*%
%ADD12C,3.000000*%
%ADD13R,3.000000X3.000000*%
%ADD14C,3.450000*%
%ADD15C,1.750000*%
%ADD16C,3.987800*%
%ADD17R,2.550000X2.500000*%
%ADD18R,1.600000X0.820000*%
%ADD19Outline5P,-0.800000X0.410000X0.800000X0.410000X0.800000X-0.082000X0.472000X-0.410000X-0.800000X-0.410000X0.000000*%
%ADD20Outline5P,-0.800000X0.410000X0.800000X0.410000X0.800000X-0.082000X0.472000X-0.410000X-0.800000X-0.410000X180.000000*%
%ADD21C,3.048000*%
%ADD22O,3.987800X4.387800*%
%ADD23O,3.048000X3.448000*%
%ADD24O,4.500000X14.000000*%
%ADD25R,1.700000X1.700000*%
%ADD26O,1.700000X1.700000*%
%ADD27R,0.820000X1.600000*%
%ADD28Outline5P,-0.800000X0.410000X0.800000X0.410000X0.800000X-0.082000X0.472000X-0.410000X-0.800000X-0.410000X90.000000*%
%ADD29Outline5P,-0.800000X0.410000X0.800000X0.410000X0.800000X-0.082000X0.472000X-0.410000X-0.800000X-0.410000X270.000000*%
%ADD30R,0.800000X1.900000*%
%ADD31R,1.500000X1.200000*%
%ADD32C,1.600000*%
%ADD33RoundRect,0.225000X-0.250000X0.225000X-0.250000X-0.225000X0.250000X-0.225000X0.250000X0.225000X0*%
%ADD34R,2.200000X2.200000*%
%ADD35O,2.200000X2.200000*%
%ADD36C,1.700000*%
%ADD37RoundRect,0.150000X0.150000X-0.512500X0.150000X0.512500X-0.150000X0.512500X-0.150000X-0.512500X0*%
%ADD38R,1.905000X2.000000*%
%ADD39O,1.905000X2.000000*%
G04 APERTURE END LIST*
D10*
X362500000Y-33000000D03*
D11*
X370300000Y-33000000D03*
D12*
X367615000Y-26475000D03*
D13*
X362535000Y-26475000D03*
D14*
X50000000Y-106222800D03*
D15*
X311626250Y-154200150D03*
D12*
X312896250Y-151660150D03*
D16*
X316706250Y-154200150D03*
D12*
X319246250Y-149120150D03*
D15*
X321786250Y-154200150D03*
D17*
X309621250Y-151660150D03*
X322548250Y-149120150D03*
D18*
X349183500Y-96670097D03*
X349183500Y-98170097D03*
D19*
X354383500Y-98170097D03*
D18*
X354383500Y-96670097D03*
D14*
X380339600Y-147574000D03*
D15*
X199707500Y-133640143D03*
D12*
X200977500Y-131100143D03*
D16*
X204787500Y-133640143D03*
D12*
X207327500Y-128560143D03*
D15*
X209867500Y-133640143D03*
D17*
X197702500Y-131100143D03*
X210629500Y-128560143D03*
D18*
X178812500Y-159850165D03*
X178812500Y-158350165D03*
D20*
X173612500Y-158350165D03*
D18*
X173612500Y-159850165D03*
X216912500Y-159850165D03*
X216912500Y-158350165D03*
D20*
X211712500Y-158350165D03*
D18*
X211712500Y-159850165D03*
D14*
X190500000Y-106330000D03*
D18*
X193100000Y-57050055D03*
X193100000Y-55550055D03*
D20*
X187900000Y-55550055D03*
D18*
X187900000Y-57050055D03*
X439467000Y-159850160D03*
X439467000Y-158350160D03*
D20*
X434267000Y-158350160D03*
D18*
X434267000Y-159850160D03*
D14*
X446325000Y-181300000D03*
D15*
X365753500Y-92520097D03*
D12*
X367023500Y-89980097D03*
D16*
X370833500Y-92520097D03*
D12*
X373373500Y-87440097D03*
D15*
X375913500Y-92520097D03*
D17*
X363748500Y-89980097D03*
X376675500Y-87440097D03*
D15*
X280670000Y-30840034D03*
D12*
X281940000Y-28300034D03*
D16*
X285750000Y-30840034D03*
D12*
X288290000Y-25760034D03*
D15*
X290830000Y-30840034D03*
D17*
X278665000Y-28300034D03*
X291592000Y-25760034D03*
D12*
X65780000Y-65000000D03*
D14*
X19710400Y-85598000D03*
X345000000Y-102825000D03*
X446400000Y-164700000D03*
D18*
X159762500Y-159850165D03*
X159762500Y-158350165D03*
D20*
X154562500Y-158350165D03*
D18*
X154562500Y-159850165D03*
X87887500Y-137790143D03*
X87887500Y-139290143D03*
D19*
X93087500Y-139290143D03*
D18*
X93087500Y-137790143D03*
D14*
X217450000Y-181500000D03*
D18*
X273625000Y-178910187D03*
X273625000Y-180410187D03*
D19*
X278825000Y-180410187D03*
D18*
X278825000Y-178910187D03*
D15*
X204470000Y-30840034D03*
D12*
X205740000Y-28300034D03*
D16*
X209550000Y-30840034D03*
D12*
X212090000Y-25760034D03*
D15*
X214630000Y-30840034D03*
D17*
X202465000Y-28300034D03*
X215392000Y-25760034D03*
D15*
X147320000Y-51400055D03*
D12*
X148590000Y-48860055D03*
D16*
X152400000Y-51400055D03*
D12*
X154940000Y-46320055D03*
D15*
X157480000Y-51400055D03*
D17*
X145315000Y-48860055D03*
X158242000Y-46320055D03*
D12*
X65860000Y-24040000D03*
D15*
X190182500Y-154200165D03*
D12*
X191452500Y-151660165D03*
D16*
X195262500Y-154200165D03*
D12*
X197802500Y-149120165D03*
D15*
X200342500Y-154200165D03*
D17*
X188177500Y-151660165D03*
X201104500Y-149120165D03*
D14*
X19710400Y-147580000D03*
D15*
X242570000Y-30840034D03*
D12*
X243840000Y-28300034D03*
D16*
X247650000Y-30840034D03*
D12*
X250190000Y-25760034D03*
D15*
X252730000Y-30840034D03*
D17*
X240565000Y-28300034D03*
X253492000Y-25760034D03*
D18*
X420417000Y-118730118D03*
X420417000Y-117230118D03*
D20*
X415217000Y-117230118D03*
D18*
X415217000Y-118730118D03*
D14*
X200190000Y-168148000D03*
D12*
X660400Y-168046400D03*
D14*
X72034400Y-106222800D03*
D18*
X354383500Y-118730118D03*
X354383500Y-117230118D03*
D20*
X349183500Y-117230118D03*
D18*
X349183500Y-118730118D03*
D12*
X342260000Y-127152400D03*
D18*
X174050000Y-57050055D03*
X174050000Y-55550055D03*
D20*
X168850000Y-55550055D03*
D18*
X168850000Y-57050055D03*
D14*
X482967000Y-144000000D03*
D12*
X399415000Y-85648800D03*
D18*
X226000000Y-96670099D03*
X226000000Y-98170099D03*
D19*
X231200000Y-98170099D03*
D18*
X231200000Y-96670099D03*
X168850000Y-96670099D03*
X168850000Y-98170099D03*
D19*
X174050000Y-98170099D03*
D18*
X174050000Y-96670099D03*
D15*
X166370000Y-30840034D03*
D12*
X167640000Y-28300034D03*
D16*
X171450000Y-30840034D03*
D12*
X173990000Y-25760034D03*
D15*
X176530000Y-30840034D03*
D17*
X164365000Y-28300034D03*
X177292000Y-25760034D03*
D18*
X116900000Y-57050055D03*
X116900000Y-55550055D03*
D20*
X111700000Y-55550055D03*
D18*
X111700000Y-57050055D03*
X145475000Y-118730121D03*
X145475000Y-117230121D03*
D20*
X140275000Y-117230121D03*
D18*
X140275000Y-118730121D03*
D15*
X180657500Y-133640143D03*
D12*
X181927500Y-131100143D03*
D16*
X185737500Y-133640143D03*
D12*
X188277500Y-128560143D03*
D15*
X190817500Y-133640143D03*
D17*
X178652500Y-131100143D03*
X191579500Y-128560143D03*
D14*
X166690000Y-147580000D03*
D18*
X130750000Y-34990034D03*
X130750000Y-36490034D03*
D19*
X135950000Y-36490034D03*
D18*
X135950000Y-34990034D03*
X140712500Y-159850165D03*
X140712500Y-158350165D03*
D20*
X135512500Y-158350165D03*
D18*
X135512500Y-159850165D03*
X88325000Y-118730121D03*
X88325000Y-117230121D03*
D20*
X83125000Y-117230121D03*
D18*
X83125000Y-118730121D03*
D15*
X431787000Y-133640139D03*
D12*
X433057000Y-131100139D03*
D16*
X436867000Y-133640139D03*
D12*
X439407000Y-128560139D03*
D15*
X441947000Y-133640139D03*
D17*
X429782000Y-131100139D03*
X442709000Y-128560139D03*
D18*
X316487500Y-178910187D03*
X316487500Y-180410187D03*
D19*
X321687500Y-180410187D03*
D18*
X321687500Y-178910187D03*
D15*
X113982500Y-154200165D03*
D12*
X115252500Y-151660165D03*
D16*
X119062500Y-154200165D03*
D12*
X121602500Y-149120165D03*
D15*
X124142500Y-154200165D03*
D17*
X111977500Y-151660165D03*
X124904500Y-149120165D03*
D15*
X80645000Y-113080121D03*
D12*
X81915000Y-110540121D03*
D16*
X85725000Y-113080121D03*
D12*
X88265000Y-108000121D03*
D15*
X90805000Y-113080121D03*
D17*
X78640000Y-110540121D03*
X91567000Y-108000121D03*
D15*
X99695000Y-174760187D03*
D12*
X100965000Y-172220187D03*
D16*
X104775000Y-174760187D03*
D12*
X107315000Y-169680187D03*
D15*
X109855000Y-174760187D03*
D17*
X97690000Y-172220187D03*
X110617000Y-169680187D03*
D18*
X26617000Y-96670097D03*
X26617000Y-98170097D03*
D19*
X31817000Y-98170097D03*
D18*
X31817000Y-96670097D03*
D15*
X412737000Y-154200160D03*
D12*
X414007000Y-151660160D03*
D16*
X417817000Y-154200160D03*
D12*
X420357000Y-149120160D03*
D15*
X422897000Y-154200160D03*
D17*
X410732000Y-151660160D03*
X423659000Y-149120160D03*
D15*
X228282500Y-154200165D03*
D12*
X229552500Y-151660165D03*
D16*
X233362500Y-154200165D03*
D12*
X235902500Y-149120165D03*
D15*
X238442500Y-154200165D03*
D17*
X226277500Y-151660165D03*
X239204500Y-149120165D03*
D14*
X410700000Y-181300000D03*
D18*
X164087500Y-137790143D03*
X164087500Y-139290143D03*
D19*
X169287500Y-139290143D03*
D18*
X169287500Y-137790143D03*
D15*
X450837000Y-133640139D03*
D12*
X452107000Y-131100139D03*
D16*
X455917000Y-133640139D03*
D12*
X458457000Y-128560139D03*
D15*
X460997000Y-133640139D03*
D17*
X448832000Y-131100139D03*
X461759000Y-128560139D03*
D18*
X121662500Y-159850165D03*
X121662500Y-158350165D03*
D20*
X116462500Y-158350165D03*
D18*
X116462500Y-159850165D03*
D15*
X24137000Y-92520097D03*
D12*
X25407000Y-89980097D03*
D16*
X29217000Y-92520097D03*
D12*
X31757000Y-87440097D03*
D15*
X34297000Y-92520097D03*
D17*
X22132000Y-89980097D03*
X35059000Y-87440097D03*
D18*
X145037500Y-137790143D03*
X145037500Y-139290143D03*
D19*
X150237500Y-139290143D03*
D18*
X150237500Y-137790143D03*
X264100000Y-96670099D03*
X264100000Y-98170099D03*
D19*
X269300000Y-98170099D03*
D18*
X269300000Y-96670099D03*
X92650000Y-34990034D03*
X92650000Y-36490034D03*
D19*
X97850000Y-36490034D03*
D18*
X97850000Y-34990034D03*
D21*
X57118250Y-147215150D03*
D22*
X57118250Y-162455150D03*
D15*
X63976250Y-154200150D03*
D12*
X65246250Y-151660150D03*
D16*
X69056250Y-154200150D03*
D12*
X71596250Y-149120150D03*
D15*
X74136250Y-154200150D03*
D21*
X80994250Y-147215150D03*
D22*
X80994250Y-162455150D03*
D17*
X61971250Y-151660150D03*
X74898250Y-149120150D03*
D18*
X420417000Y-159850160D03*
X420417000Y-158350160D03*
D20*
X415217000Y-158350160D03*
D18*
X415217000Y-159850160D03*
D14*
X276230000Y-58250000D03*
D12*
X90932000Y-188823600D03*
X283565600Y-188823600D03*
D18*
X130750000Y-96670099D03*
X130750000Y-98170099D03*
D19*
X135950000Y-98170099D03*
D18*
X135950000Y-96670099D03*
D15*
X99695000Y-113080121D03*
D12*
X100965000Y-110540121D03*
D16*
X104775000Y-113080121D03*
D12*
X107315000Y-108000121D03*
D15*
X109855000Y-113080121D03*
D17*
X97690000Y-110540121D03*
X110617000Y-108000121D03*
D14*
X19710400Y-181500000D03*
D15*
X147320000Y-30840034D03*
D12*
X148590000Y-28300034D03*
D16*
X152400000Y-30840034D03*
D12*
X154940000Y-25760034D03*
D15*
X157480000Y-30840034D03*
D17*
X145315000Y-28300034D03*
X158242000Y-25760034D03*
D14*
X361340400Y-120600000D03*
D15*
X185420000Y-92520099D03*
D12*
X186690000Y-89980099D03*
D16*
X190500000Y-92520099D03*
D12*
X193040000Y-87440099D03*
D15*
X195580000Y-92520099D03*
D17*
X183415000Y-89980099D03*
X196342000Y-87440099D03*
D12*
X237998000Y-188823600D03*
D15*
X24137000Y-174760187D03*
D12*
X25407000Y-172220187D03*
D16*
X29217000Y-174760187D03*
D12*
X31757000Y-169680187D03*
D15*
X34297000Y-174760187D03*
D17*
X22132000Y-172220187D03*
X35059000Y-169680187D03*
D15*
X123507500Y-133640143D03*
D12*
X124777500Y-131100143D03*
D16*
X128587500Y-133640143D03*
D12*
X131127500Y-128560143D03*
D15*
X133667500Y-133640143D03*
D17*
X121502500Y-131100143D03*
X134429500Y-128560143D03*
D12*
X484610000Y-127304800D03*
X313480000Y-23980000D03*
D15*
X384803500Y-154200150D03*
D12*
X386073500Y-151660150D03*
D16*
X389883500Y-154200150D03*
D12*
X392423500Y-149120150D03*
D15*
X394963500Y-154200150D03*
D17*
X382798500Y-151660150D03*
X395725500Y-149120150D03*
D22*
X466712000Y-111422132D03*
X466712000Y-135298132D03*
D15*
X469887000Y-123360132D03*
D12*
X471157000Y-120820132D03*
D16*
X474967000Y-123360132D03*
D12*
X477507000Y-118280132D03*
D15*
X480047000Y-123360132D03*
D23*
X481952000Y-111422132D03*
X481952000Y-135298132D03*
D17*
X467882000Y-120820132D03*
X480809000Y-118280132D03*
D15*
X194945000Y-113080121D03*
D12*
X196215000Y-110540121D03*
D16*
X200025000Y-113080121D03*
D12*
X202565000Y-108000121D03*
D15*
X205105000Y-113080121D03*
D17*
X192940000Y-110540121D03*
X205867000Y-108000121D03*
D15*
X71120000Y-30840034D03*
D12*
X72390000Y-28300034D03*
D16*
X76200000Y-30840034D03*
D12*
X78740000Y-25760034D03*
D15*
X81280000Y-30840034D03*
D17*
X69115000Y-28300034D03*
X82042000Y-25760034D03*
D15*
X128270000Y-30840034D03*
D12*
X129540000Y-28300034D03*
D16*
X133350000Y-30840034D03*
D12*
X135890000Y-25760034D03*
D15*
X138430000Y-30840034D03*
D17*
X126265000Y-28300034D03*
X139192000Y-25760034D03*
D18*
X164525000Y-118730121D03*
X164525000Y-117230121D03*
D20*
X159325000Y-117230121D03*
D18*
X159325000Y-118730121D03*
D14*
X427350000Y-127304800D03*
X396500000Y-102825000D03*
D15*
X384803500Y-92520097D03*
D12*
X386073500Y-89980097D03*
D16*
X389883500Y-92520097D03*
D12*
X392423500Y-87440097D03*
D15*
X394963500Y-92520097D03*
D17*
X382798500Y-89980097D03*
X395725500Y-87440097D03*
D15*
X5087000Y-133640139D03*
D12*
X6357000Y-131100139D03*
D16*
X10167000Y-133640139D03*
D12*
X12707000Y-128560139D03*
D15*
X15247000Y-133640139D03*
D17*
X3082000Y-131100139D03*
X16009000Y-128560139D03*
D15*
X185420000Y-30840034D03*
D12*
X186690000Y-28300034D03*
D16*
X190500000Y-30840034D03*
D12*
X193040000Y-25760034D03*
D15*
X195580000Y-30840034D03*
D17*
X183415000Y-28300034D03*
X196342000Y-25760034D03*
D15*
X56832500Y-113080121D03*
D12*
X58102500Y-110540121D03*
D16*
X61912500Y-113080121D03*
D12*
X64452500Y-108000121D03*
D15*
X66992500Y-113080121D03*
D17*
X54827500Y-110540121D03*
X67754500Y-108000121D03*
D18*
X434267000Y-137790139D03*
X434267000Y-139290139D03*
D19*
X439467000Y-139290139D03*
D18*
X439467000Y-137790139D03*
D14*
X238130000Y-85660000D03*
D15*
X209232500Y-154200165D03*
D12*
X210502500Y-151660165D03*
D16*
X214312500Y-154200165D03*
D12*
X216852500Y-149120165D03*
D15*
X219392500Y-154200165D03*
D17*
X207227500Y-151660165D03*
X220154500Y-149120165D03*
D18*
X373433500Y-159850167D03*
X373433500Y-158350167D03*
D20*
X368233500Y-158350167D03*
D18*
X368233500Y-159850167D03*
X121225000Y-178910187D03*
X121225000Y-180410187D03*
D19*
X126425000Y-180410187D03*
D18*
X126425000Y-178910187D03*
X7567000Y-96670097D03*
X7567000Y-98170097D03*
D19*
X12767000Y-98170097D03*
D18*
X12767000Y-96670097D03*
X187900000Y-34990034D03*
X187900000Y-36490034D03*
D19*
X193100000Y-36490034D03*
D18*
X193100000Y-34990034D03*
D15*
X5087000Y-113080118D03*
D12*
X6357000Y-110540118D03*
D16*
X10167000Y-113080118D03*
D12*
X12707000Y-108000118D03*
D15*
X15247000Y-113080118D03*
D17*
X3082000Y-110540118D03*
X16009000Y-108000118D03*
D15*
X218757500Y-133640143D03*
D12*
X220027500Y-131100143D03*
D16*
X223837500Y-133640143D03*
D12*
X226377500Y-128560143D03*
D15*
X228917500Y-133640143D03*
D17*
X216752500Y-131100143D03*
X229679500Y-128560143D03*
D18*
X183575000Y-118730121D03*
X183575000Y-117230121D03*
D20*
X178375000Y-117230121D03*
D18*
X178375000Y-118730121D03*
D12*
X313320000Y-65040000D03*
D18*
X26617000Y-178910187D03*
X26617000Y-180410187D03*
D19*
X31817000Y-180410187D03*
D18*
X31817000Y-178910187D03*
D12*
X380360000Y-168148000D03*
X19710400Y-188823600D03*
D18*
X102175000Y-178910187D03*
X102175000Y-180410187D03*
D19*
X107375000Y-180410187D03*
D18*
X107375000Y-178910187D03*
D14*
X204800000Y-147580000D03*
D12*
X342260000Y-168148000D03*
D18*
X415217000Y-96670097D03*
X415217000Y-98170097D03*
D19*
X420417000Y-98170097D03*
D18*
X420417000Y-96670097D03*
D14*
X161940000Y-24110000D03*
X238110000Y-44540000D03*
D18*
X168850000Y-34990034D03*
X168850000Y-36490034D03*
D19*
X174050000Y-36490034D03*
D18*
X174050000Y-34990034D03*
D15*
X5087000Y-154200160D03*
D12*
X6357000Y-151660160D03*
D16*
X10167000Y-154200160D03*
D12*
X12707000Y-149120160D03*
D15*
X15247000Y-154200160D03*
D17*
X3082000Y-151660160D03*
X16009000Y-149120160D03*
D15*
X365753500Y-113080118D03*
D12*
X367023500Y-110540118D03*
D16*
X370833500Y-113080118D03*
D12*
X373373500Y-108000118D03*
D15*
X375913500Y-113080118D03*
D17*
X363748500Y-110540118D03*
X376675500Y-108000118D03*
D14*
X465500000Y-85800000D03*
D15*
X204470000Y-92520099D03*
D12*
X205740000Y-89980099D03*
D16*
X209550000Y-92520099D03*
D12*
X212090000Y-87440099D03*
D15*
X214630000Y-92520099D03*
D17*
X202465000Y-89980099D03*
X215392000Y-87440099D03*
D15*
X24137000Y-113080110D03*
D12*
X25407000Y-110540110D03*
D16*
X29217000Y-113080110D03*
D12*
X31757000Y-108000110D03*
D15*
X34297000Y-113080110D03*
D17*
X22132000Y-110540110D03*
X35059000Y-108000110D03*
D15*
X137795000Y-113080121D03*
D12*
X139065000Y-110540121D03*
D16*
X142875000Y-113080121D03*
D12*
X145415000Y-108000121D03*
D15*
X147955000Y-113080121D03*
D17*
X135790000Y-110540121D03*
X148717000Y-108000121D03*
D14*
X161920000Y-85670000D03*
D21*
X142875000Y-167775170D03*
D16*
X142875000Y-183015170D03*
D15*
X185420000Y-174760170D03*
D12*
X186690000Y-172220170D03*
D16*
X190500000Y-174760170D03*
D12*
X193040000Y-169680170D03*
D15*
X195580000Y-174760170D03*
D21*
X238125000Y-167775170D03*
D16*
X238125000Y-183015170D03*
D17*
X183415000Y-172220170D03*
X196342000Y-169680170D03*
D18*
X472367000Y-96670097D03*
X472367000Y-98170097D03*
D19*
X477567000Y-98170097D03*
D18*
X477567000Y-96670097D03*
D15*
X290195000Y-113080121D03*
D12*
X291465000Y-110540121D03*
D16*
X295275000Y-113080121D03*
D12*
X297815000Y-108000121D03*
D15*
X300355000Y-113080121D03*
D17*
X288190000Y-110540121D03*
X301117000Y-108000121D03*
D15*
X314007500Y-174760187D03*
D12*
X315277500Y-172220187D03*
D16*
X319087500Y-174760187D03*
D12*
X321627500Y-169680187D03*
D15*
X324167500Y-174760187D03*
D17*
X312002500Y-172220187D03*
X324929500Y-169680187D03*
D15*
X128270000Y-51400055D03*
D12*
X129540000Y-48860055D03*
D16*
X133350000Y-51400055D03*
D12*
X135890000Y-46320055D03*
D15*
X138430000Y-51400055D03*
D17*
X126265000Y-48860055D03*
X139192000Y-46320055D03*
D24*
X403850500Y-73295097D03*
D15*
X261620000Y-92520099D03*
D12*
X262890000Y-89980099D03*
D16*
X266700000Y-92520099D03*
D12*
X269240000Y-87440099D03*
D15*
X271780000Y-92520099D03*
D17*
X259615000Y-89980099D03*
X272542000Y-87440099D03*
D14*
X329500000Y-106310000D03*
D12*
X484124000Y-188823600D03*
D18*
X197862500Y-159850165D03*
X197862500Y-158350165D03*
D20*
X192662500Y-158350165D03*
D18*
X192662500Y-159850165D03*
D15*
X365753500Y-154200167D03*
D12*
X367023500Y-151660167D03*
D16*
X370833500Y-154200167D03*
D12*
X373373500Y-149120167D03*
D15*
X375913500Y-154200167D03*
D17*
X363748500Y-151660167D03*
X376675500Y-149120167D03*
D18*
X7567000Y-178910187D03*
X7567000Y-180410187D03*
D19*
X12767000Y-180410187D03*
D18*
X12767000Y-178910187D03*
D15*
X271145000Y-174760187D03*
D12*
X272415000Y-172220187D03*
D16*
X276225000Y-174760187D03*
D12*
X278765000Y-169680187D03*
D15*
X281305000Y-174760187D03*
D17*
X269140000Y-172220187D03*
X282067000Y-169680187D03*
D15*
X314007500Y-113080121D03*
D12*
X315277500Y-110540121D03*
D16*
X319087500Y-113080121D03*
D12*
X321627500Y-108000121D03*
D15*
X324167500Y-113080121D03*
D17*
X312002500Y-110540121D03*
X324929500Y-108000121D03*
D15*
X161607500Y-133640143D03*
D12*
X162877500Y-131100143D03*
D16*
X166687500Y-133640143D03*
D12*
X169227500Y-128560143D03*
D15*
X171767500Y-133640143D03*
D17*
X159602500Y-131100143D03*
X172529500Y-128560143D03*
D18*
X12767000Y-159850160D03*
X12767000Y-158350160D03*
D20*
X7567000Y-158350160D03*
D18*
X7567000Y-159850160D03*
D14*
X119070000Y-127203200D03*
X114310000Y-106470000D03*
X380225000Y-120600000D03*
D18*
X283150000Y-96670099D03*
X283150000Y-98170099D03*
D19*
X288350000Y-98170099D03*
D18*
X288350000Y-96670099D03*
X439467000Y-118730118D03*
X439467000Y-117230118D03*
D20*
X434267000Y-117230118D03*
D18*
X434267000Y-118730118D03*
X126425000Y-118730121D03*
X126425000Y-117230121D03*
D20*
X121225000Y-117230121D03*
D18*
X121225000Y-118730121D03*
D14*
X180975000Y-58250000D03*
D15*
X412737000Y-113080118D03*
D12*
X414007000Y-110540118D03*
D16*
X417817000Y-113080118D03*
D12*
X420357000Y-108000118D03*
D15*
X422897000Y-113080118D03*
D17*
X410732000Y-110540118D03*
X423659000Y-108000118D03*
D18*
X259775000Y-118730121D03*
X259775000Y-117230121D03*
D20*
X254575000Y-117230121D03*
D18*
X254575000Y-118730121D03*
D15*
X118745000Y-113080121D03*
D12*
X120015000Y-110540121D03*
D16*
X123825000Y-113080121D03*
D12*
X126365000Y-108000121D03*
D15*
X128905000Y-113080121D03*
D17*
X116740000Y-110540121D03*
X129667000Y-108000121D03*
D15*
X450837000Y-92520097D03*
D12*
X452107000Y-89980097D03*
D16*
X455917000Y-92520097D03*
D12*
X458457000Y-87440097D03*
D15*
X460997000Y-92520097D03*
D17*
X448832000Y-89980097D03*
X461759000Y-87440097D03*
D15*
X280670000Y-51400055D03*
D12*
X281940000Y-48860055D03*
D16*
X285750000Y-51400055D03*
D12*
X288290000Y-46320055D03*
D15*
X290830000Y-51400055D03*
D17*
X278665000Y-48860055D03*
X291592000Y-46320055D03*
D15*
X261620000Y-51400055D03*
D12*
X262890000Y-48860055D03*
D16*
X266700000Y-51400055D03*
D12*
X269240000Y-46320055D03*
D15*
X271780000Y-51400055D03*
D17*
X259615000Y-48860055D03*
X272542000Y-46320055D03*
D14*
X446390000Y-85800000D03*
D18*
X226000000Y-34990034D03*
X226000000Y-36490034D03*
D19*
X231200000Y-36490034D03*
D18*
X231200000Y-34990034D03*
D12*
X65800000Y-44380000D03*
D14*
X361315000Y-85648800D03*
D15*
X118745000Y-174760187D03*
D12*
X120015000Y-172220187D03*
D16*
X123825000Y-174760187D03*
D12*
X126365000Y-169680187D03*
D15*
X128905000Y-174760187D03*
D17*
X116740000Y-172220187D03*
X129667000Y-169680187D03*
D18*
X12767000Y-118730118D03*
X12767000Y-117230118D03*
D20*
X7567000Y-117230118D03*
D18*
X7567000Y-118730118D03*
X387283500Y-96670097D03*
X387283500Y-98170097D03*
D19*
X392483500Y-98170097D03*
D18*
X392483500Y-96670097D03*
D15*
X185420000Y-51400055D03*
D12*
X186690000Y-48860055D03*
D16*
X190500000Y-51400055D03*
D12*
X193040000Y-46320055D03*
D15*
X195580000Y-51400055D03*
D17*
X183415000Y-48860055D03*
X196342000Y-46320055D03*
D14*
X238130000Y-23960000D03*
D15*
X128270000Y-92520099D03*
D12*
X129540000Y-89980099D03*
D16*
X133350000Y-92520099D03*
D12*
X135890000Y-87440099D03*
D15*
X138430000Y-92520099D03*
D17*
X126265000Y-89980099D03*
X139192000Y-87440099D03*
D15*
X450837000Y-113080118D03*
D12*
X452107000Y-110540118D03*
D16*
X455917000Y-113080118D03*
D12*
X458457000Y-108000118D03*
D15*
X460997000Y-113080118D03*
D17*
X448832000Y-110540118D03*
X461759000Y-108000118D03*
D14*
X114350000Y-181750000D03*
D18*
X453317000Y-178910187D03*
X453317000Y-180410187D03*
D19*
X458517000Y-180410187D03*
D18*
X458517000Y-178910187D03*
X250250000Y-57050055D03*
X250250000Y-55550055D03*
D20*
X245050000Y-55550055D03*
D18*
X245050000Y-57050055D03*
X354383500Y-159850150D03*
X354383500Y-158350150D03*
D20*
X349183500Y-158350150D03*
D18*
X349183500Y-159850150D03*
X54550000Y-96670097D03*
X54550000Y-98170097D03*
D19*
X59750000Y-98170097D03*
D18*
X59750000Y-96670097D03*
D15*
X223520000Y-92520099D03*
D12*
X224790000Y-89980099D03*
D16*
X228600000Y-92520099D03*
D12*
X231140000Y-87440099D03*
D15*
X233680000Y-92520099D03*
D17*
X221515000Y-89980099D03*
X234442000Y-87440099D03*
D14*
X90490000Y-147580000D03*
X123860000Y-24110000D03*
X482967000Y-106426000D03*
D15*
X412737000Y-133640139D03*
D12*
X414007000Y-131100139D03*
D16*
X417817000Y-133640139D03*
D12*
X420357000Y-128560139D03*
D15*
X422897000Y-133640139D03*
D17*
X410732000Y-131100139D03*
X423659000Y-128560139D03*
D15*
X261620000Y-30840034D03*
D12*
X262890000Y-28300034D03*
D16*
X266700000Y-30840034D03*
D12*
X269240000Y-25760034D03*
D15*
X271780000Y-30840034D03*
D17*
X259615000Y-28300034D03*
X272542000Y-25760034D03*
D18*
X221675000Y-118730121D03*
X221675000Y-117230121D03*
D20*
X216475000Y-117230121D03*
D18*
X216475000Y-118730121D03*
D14*
X85700000Y-58250000D03*
D15*
X256857500Y-133640143D03*
D12*
X258127500Y-131100143D03*
D16*
X261937500Y-133640143D03*
D12*
X264477500Y-128560143D03*
D15*
X267017500Y-133640143D03*
D17*
X254852500Y-131100143D03*
X267779500Y-128560143D03*
D18*
X240725000Y-118730121D03*
X240725000Y-117230121D03*
D20*
X235525000Y-117230121D03*
D18*
X235525000Y-118730121D03*
D22*
X466712000Y-152542176D03*
X466712000Y-176418176D03*
D15*
X469887000Y-164480176D03*
D12*
X471157000Y-161940176D03*
D16*
X474967000Y-164480176D03*
D12*
X477507000Y-159400176D03*
D15*
X480047000Y-164480176D03*
D23*
X481952000Y-152542176D03*
X481952000Y-176418176D03*
D17*
X467882000Y-161940176D03*
X480809000Y-159400176D03*
D18*
X458517000Y-159850160D03*
X458517000Y-158350160D03*
D20*
X453317000Y-158350160D03*
D18*
X453317000Y-159850160D03*
D14*
X482967000Y-181300000D03*
D18*
X319306250Y-159850150D03*
X319306250Y-158350150D03*
D20*
X314106250Y-158350150D03*
D18*
X314106250Y-159850150D03*
X202187500Y-137790143D03*
X202187500Y-139290143D03*
D19*
X207387500Y-139290143D03*
D18*
X207387500Y-137790143D03*
D12*
X484610000Y-147726400D03*
D15*
X346703500Y-92520097D03*
D12*
X347973500Y-89980097D03*
D16*
X351783500Y-92520097D03*
D12*
X354323500Y-87440097D03*
D15*
X356863500Y-92520097D03*
D17*
X344698500Y-89980097D03*
X357625500Y-87440097D03*
D14*
X72725000Y-181500000D03*
X329500000Y-147580000D03*
D15*
X204470000Y-51400055D03*
D12*
X205740000Y-48860055D03*
D16*
X209550000Y-51400055D03*
D12*
X212090000Y-46320055D03*
D15*
X214630000Y-51400055D03*
D17*
X202465000Y-48860055D03*
X215392000Y-46320055D03*
D14*
X123820000Y-44560000D03*
X266725000Y-168148000D03*
D18*
X293112500Y-159850150D03*
X293112500Y-158350150D03*
D20*
X287912500Y-158350150D03*
D18*
X287912500Y-159850150D03*
X434267000Y-96670097D03*
X434267000Y-98170097D03*
D19*
X439467000Y-98170097D03*
D18*
X439467000Y-96670097D03*
D14*
X361375000Y-161025000D03*
D12*
X398983200Y-188823600D03*
D15*
X285432500Y-154200150D03*
D12*
X286702500Y-151660150D03*
D16*
X290512500Y-154200150D03*
D12*
X293052500Y-149120150D03*
D15*
X295592500Y-154200150D03*
D17*
X283427500Y-151660150D03*
X296354500Y-149120150D03*
D18*
X321250000Y-96670108D03*
X321250000Y-98170108D03*
D19*
X326450000Y-98170108D03*
D18*
X326450000Y-96670108D03*
X92650000Y-96670099D03*
X92650000Y-98170099D03*
D19*
X97850000Y-98170099D03*
D18*
X97850000Y-96670099D03*
D15*
X90170000Y-51400055D03*
D12*
X91440000Y-48860055D03*
D16*
X95250000Y-51400055D03*
D12*
X97790000Y-46320055D03*
D15*
X100330000Y-51400055D03*
D17*
X88165000Y-48860055D03*
X101092000Y-46320055D03*
D18*
X125987500Y-137790143D03*
X125987500Y-139290143D03*
D19*
X131187500Y-139290143D03*
D18*
X131187500Y-137790143D03*
D14*
X164250000Y-181500000D03*
D15*
X152082500Y-154200165D03*
D12*
X153352500Y-151660165D03*
D16*
X157162500Y-154200165D03*
D12*
X159702500Y-149120165D03*
D15*
X162242500Y-154200165D03*
D17*
X150077500Y-151660165D03*
X163004500Y-149120165D03*
D18*
X309343750Y-137790130D03*
X309343750Y-139290130D03*
D19*
X314543750Y-139290130D03*
D18*
X314543750Y-137790130D03*
X149800000Y-96670099D03*
X149800000Y-98170099D03*
D19*
X155000000Y-98170099D03*
D18*
X155000000Y-96670099D03*
X202625000Y-118730121D03*
X202625000Y-117230121D03*
D20*
X197425000Y-117230121D03*
D18*
X197425000Y-118730121D03*
D12*
X341985600Y-188823600D03*
D14*
X329500000Y-127152400D03*
D15*
X24137000Y-133640139D03*
D12*
X25407000Y-131100139D03*
D16*
X29217000Y-133640139D03*
D12*
X31757000Y-128560139D03*
D15*
X34297000Y-133640139D03*
D17*
X22132000Y-131100139D03*
X35059000Y-128560139D03*
D14*
X281010000Y-147580000D03*
D18*
X264100000Y-34990034D03*
X264100000Y-36490034D03*
D19*
X269300000Y-36490034D03*
D18*
X269300000Y-34990034D03*
D15*
X233045000Y-113080121D03*
D12*
X234315000Y-110540121D03*
D16*
X238125000Y-113080121D03*
D12*
X240665000Y-108000121D03*
D15*
X243205000Y-113080121D03*
D17*
X231040000Y-110540121D03*
X243967000Y-108000121D03*
D18*
X149800000Y-34990034D03*
X149800000Y-36490034D03*
D19*
X155000000Y-36490034D03*
D18*
X155000000Y-34990034D03*
D15*
X109220000Y-51400055D03*
D12*
X110490000Y-48860055D03*
D16*
X114300000Y-51400055D03*
D12*
X116840000Y-46320055D03*
D15*
X119380000Y-51400055D03*
D17*
X107215000Y-48860055D03*
X120142000Y-46320055D03*
D18*
X59312500Y-178910187D03*
X59312500Y-180410187D03*
D19*
X64512500Y-180410187D03*
D18*
X64512500Y-178910187D03*
X392483500Y-118730118D03*
X392483500Y-117230118D03*
D20*
X387283500Y-117230118D03*
D18*
X387283500Y-118730118D03*
X71656250Y-159850150D03*
X71656250Y-158350150D03*
D20*
X66456250Y-158350150D03*
D18*
X66456250Y-159850150D03*
D15*
X5087000Y-92520097D03*
D12*
X6357000Y-89980097D03*
D16*
X10167000Y-92520097D03*
D12*
X12707000Y-87440097D03*
D15*
X15247000Y-92520097D03*
D17*
X3082000Y-89980097D03*
X16009000Y-87440097D03*
D15*
X147320000Y-92520099D03*
D12*
X148590000Y-89980099D03*
D16*
X152400000Y-92520099D03*
D12*
X154940000Y-87440099D03*
D15*
X157480000Y-92520099D03*
D17*
X145315000Y-89980099D03*
X158242000Y-87440099D03*
D18*
X458517000Y-118730118D03*
X458517000Y-117230118D03*
D20*
X453317000Y-117230118D03*
D18*
X453317000Y-118730118D03*
D15*
X252095000Y-174760187D03*
D12*
X253365000Y-172220187D03*
D16*
X257175000Y-174760187D03*
D12*
X259715000Y-169680187D03*
D15*
X262255000Y-174760187D03*
D17*
X250090000Y-172220187D03*
X263017000Y-169680187D03*
D14*
X361340400Y-147574000D03*
D15*
X109220000Y-92520099D03*
D12*
X110490000Y-89980099D03*
D16*
X114300000Y-92520099D03*
D12*
X116840000Y-87440099D03*
D15*
X119380000Y-92520099D03*
D17*
X107215000Y-89980099D03*
X120142000Y-87440099D03*
D14*
X446379600Y-106426000D03*
D15*
X223520000Y-51400055D03*
D12*
X224790000Y-48860055D03*
D16*
X228600000Y-51400055D03*
D12*
X231140000Y-46320055D03*
D15*
X233680000Y-51400055D03*
D17*
X221515000Y-48860055D03*
X234442000Y-46320055D03*
D15*
X431787000Y-92520097D03*
D12*
X433057000Y-89980097D03*
D16*
X436867000Y-92520097D03*
D12*
X439407000Y-87440097D03*
D15*
X441947000Y-92520097D03*
D17*
X429782000Y-89980097D03*
X442709000Y-87440097D03*
D15*
X280670000Y-92520099D03*
D12*
X281940000Y-89980099D03*
D16*
X285750000Y-92520099D03*
D12*
X288290000Y-87440099D03*
D15*
X290830000Y-92520099D03*
D17*
X278665000Y-89980099D03*
X291592000Y-87440099D03*
D18*
X31817000Y-118730110D03*
X31817000Y-117230110D03*
D20*
X26617000Y-117230110D03*
D18*
X26617000Y-118730110D03*
X274062500Y-159850165D03*
X274062500Y-158350165D03*
D20*
X268862500Y-158350165D03*
D18*
X268862500Y-159850165D03*
D15*
X384803500Y-113080118D03*
D12*
X386073500Y-110540118D03*
D16*
X389883500Y-113080118D03*
D12*
X392423500Y-108000118D03*
D15*
X394963500Y-113080118D03*
D17*
X382798500Y-110540118D03*
X395725500Y-108000118D03*
D18*
X269300000Y-57050055D03*
X269300000Y-55550055D03*
D20*
X264100000Y-55550055D03*
D18*
X264100000Y-57050055D03*
X392483500Y-159850150D03*
X392483500Y-158350150D03*
D20*
X387283500Y-158350150D03*
D18*
X387283500Y-159850150D03*
D14*
X446300000Y-144000000D03*
D18*
X288350000Y-57050055D03*
X288350000Y-55550055D03*
D20*
X283150000Y-55550055D03*
D18*
X283150000Y-57050055D03*
D14*
X309580000Y-168148000D03*
D15*
X104457500Y-133640143D03*
D12*
X105727500Y-131100143D03*
D16*
X109537500Y-133640143D03*
D12*
X112077500Y-128560143D03*
D15*
X114617500Y-133640143D03*
D17*
X102452500Y-131100143D03*
X115379500Y-128560143D03*
D14*
X85750400Y-85648800D03*
D12*
X408300000Y-106420000D03*
D18*
X135950000Y-57050055D03*
X135950000Y-55550055D03*
D20*
X130750000Y-55550055D03*
D18*
X130750000Y-57050055D03*
X221237500Y-137790143D03*
X221237500Y-139290143D03*
D19*
X226437500Y-139290143D03*
D18*
X226437500Y-137790143D03*
D15*
X5087000Y-174760187D03*
D12*
X6357000Y-172220187D03*
D16*
X10167000Y-174760187D03*
D12*
X12707000Y-169680187D03*
D15*
X15247000Y-174760187D03*
D17*
X3082000Y-172220187D03*
X16009000Y-169680187D03*
D15*
X271145000Y-113080121D03*
D12*
X272415000Y-110540121D03*
D16*
X276225000Y-113080121D03*
D12*
X278765000Y-108000121D03*
D15*
X281305000Y-113080121D03*
D17*
X269140000Y-110540121D03*
X282067000Y-108000121D03*
D15*
X431787000Y-113080118D03*
D12*
X433057000Y-110540118D03*
D16*
X436867000Y-113080118D03*
D12*
X439407000Y-108000118D03*
D15*
X441947000Y-113080118D03*
D17*
X429782000Y-110540118D03*
X442709000Y-108000118D03*
D15*
X450837000Y-154200160D03*
D12*
X452107000Y-151660160D03*
D16*
X455917000Y-154200160D03*
D12*
X458457000Y-149120160D03*
D15*
X460997000Y-154200160D03*
D17*
X448832000Y-151660160D03*
X461759000Y-149120160D03*
D18*
X373433500Y-118730118D03*
X373433500Y-117230118D03*
D20*
X368233500Y-117230118D03*
D18*
X368233500Y-118730118D03*
D15*
X52070000Y-92520097D03*
D12*
X53340000Y-89980097D03*
D16*
X57150000Y-92520097D03*
D12*
X59690000Y-87440097D03*
D15*
X62230000Y-92520097D03*
D17*
X50065000Y-89980097D03*
X62992000Y-87440097D03*
D18*
X259337500Y-137790143D03*
X259337500Y-139290143D03*
D19*
X264537500Y-139290143D03*
D18*
X264537500Y-137790143D03*
D15*
X346703500Y-113080118D03*
D12*
X347973500Y-110540118D03*
D16*
X351783500Y-113080118D03*
D12*
X354323500Y-108000118D03*
D15*
X356863500Y-113080118D03*
D17*
X344698500Y-110540118D03*
X357625500Y-108000118D03*
D15*
X24137000Y-154200160D03*
D12*
X25407000Y-151660160D03*
D16*
X29217000Y-154200160D03*
D12*
X31757000Y-149120160D03*
D15*
X34297000Y-154200160D03*
D17*
X22132000Y-151660160D03*
X35059000Y-149120160D03*
D21*
X415404000Y-167775181D03*
D22*
X415404000Y-183015181D03*
D15*
X422262000Y-174760181D03*
D12*
X423532000Y-172220181D03*
D16*
X427342000Y-174760181D03*
D12*
X429882000Y-169680181D03*
D15*
X432422000Y-174760181D03*
D21*
X439280000Y-167775181D03*
D22*
X439280000Y-183015181D03*
D17*
X420257000Y-172220181D03*
X433184000Y-169680181D03*
D18*
X368233500Y-137790130D03*
X368233500Y-139290130D03*
D19*
X373433500Y-139290130D03*
D18*
X373433500Y-137790130D03*
D15*
X431787000Y-154200160D03*
D12*
X433057000Y-151660160D03*
D16*
X436867000Y-154200160D03*
D12*
X439407000Y-149120160D03*
D15*
X441947000Y-154200160D03*
D17*
X429782000Y-151660160D03*
X442709000Y-149120160D03*
D15*
X94932500Y-154200165D03*
D12*
X96202500Y-151660165D03*
D16*
X100012500Y-154200165D03*
D12*
X102552500Y-149120165D03*
D15*
X105092500Y-154200165D03*
D17*
X92927500Y-151660165D03*
X105854500Y-149120165D03*
D15*
X142557500Y-133640143D03*
D12*
X143827500Y-131100143D03*
D16*
X147637500Y-133640143D03*
D12*
X150177500Y-128560143D03*
D15*
X152717500Y-133640143D03*
D17*
X140552500Y-131100143D03*
X153479500Y-128560143D03*
D15*
X346703500Y-154200150D03*
D12*
X347973500Y-151660150D03*
D16*
X351783500Y-154200150D03*
D12*
X354323500Y-149120150D03*
D15*
X356863500Y-154200150D03*
D17*
X344698500Y-151660150D03*
X357625500Y-149120150D03*
D15*
X365753500Y-174760188D03*
D12*
X367023500Y-172220188D03*
D16*
X370833500Y-174760188D03*
D12*
X373373500Y-169680188D03*
D15*
X375913500Y-174760188D03*
D17*
X363748500Y-172220188D03*
X376675500Y-169680188D03*
D18*
X31817000Y-159850160D03*
X31817000Y-158350160D03*
D20*
X26617000Y-158350160D03*
D18*
X26617000Y-159850160D03*
D15*
X175895000Y-113080121D03*
D12*
X177165000Y-110540121D03*
D16*
X180975000Y-113080121D03*
D12*
X183515000Y-108000121D03*
D15*
X186055000Y-113080121D03*
D17*
X173890000Y-110540121D03*
X186817000Y-108000121D03*
D18*
X368233500Y-96670097D03*
X368233500Y-98170097D03*
D19*
X373433500Y-98170097D03*
D18*
X373433500Y-96670097D03*
D12*
X200030000Y-64910000D03*
D18*
X477567000Y-170130176D03*
X477567000Y-168630176D03*
D20*
X472367000Y-168630176D03*
D18*
X472367000Y-170130176D03*
D15*
X365753500Y-133640130D03*
D12*
X367023500Y-131100130D03*
D16*
X370833500Y-133640130D03*
D12*
X373373500Y-128560130D03*
D15*
X375913500Y-133640130D03*
D17*
X363748500Y-131100130D03*
X376675500Y-128560130D03*
D14*
X161940000Y-44520000D03*
D12*
X342260000Y-147574000D03*
D15*
X90170000Y-30840034D03*
D12*
X91440000Y-28300034D03*
D16*
X95250000Y-30840034D03*
D12*
X97790000Y-25760034D03*
D15*
X100330000Y-30840034D03*
D17*
X88165000Y-28300034D03*
X101092000Y-25760034D03*
D18*
X278387500Y-137790143D03*
X278387500Y-139290143D03*
D19*
X283587500Y-139290143D03*
D18*
X283587500Y-137790143D03*
D15*
X247332500Y-154200165D03*
D12*
X248602500Y-151660165D03*
D16*
X252412500Y-154200165D03*
D12*
X254952500Y-149120165D03*
D15*
X257492500Y-154200165D03*
D17*
X245327500Y-151660165D03*
X258254500Y-149120165D03*
D18*
X453317000Y-137790139D03*
X453317000Y-139290139D03*
D19*
X458517000Y-139290139D03*
D18*
X458517000Y-137790139D03*
D15*
X469887000Y-92520097D03*
D12*
X471157000Y-89980097D03*
D16*
X474967000Y-92520097D03*
D12*
X477507000Y-87440097D03*
D15*
X480047000Y-92520097D03*
D17*
X467882000Y-89980097D03*
X480809000Y-87440097D03*
D14*
X427400000Y-85800000D03*
X276230000Y-23950000D03*
D18*
X7567000Y-137790139D03*
X7567000Y-139290139D03*
D19*
X12767000Y-139290139D03*
D18*
X12767000Y-137790139D03*
D15*
X133032500Y-154200165D03*
D12*
X134302500Y-151660165D03*
D16*
X138112500Y-154200165D03*
D12*
X140652500Y-149120165D03*
D15*
X143192500Y-154200165D03*
D17*
X131027500Y-151660165D03*
X143954500Y-149120165D03*
D15*
X450837000Y-174760187D03*
D12*
X452107000Y-172220187D03*
D16*
X455917000Y-174760187D03*
D12*
X458457000Y-169680187D03*
D15*
X460997000Y-174760187D03*
D17*
X448832000Y-172220187D03*
X461759000Y-169680187D03*
D18*
X278825000Y-118730121D03*
X278825000Y-117230121D03*
D20*
X273625000Y-117230121D03*
D18*
X273625000Y-118730121D03*
D12*
X337870800Y-106222800D03*
X167284400Y-188823600D03*
D18*
X240287500Y-137790143D03*
X240287500Y-139290143D03*
D19*
X245487500Y-139290143D03*
D18*
X245487500Y-137790143D03*
D15*
X171132500Y-154200165D03*
D12*
X172402500Y-151660165D03*
D16*
X176212500Y-154200165D03*
D12*
X178752500Y-149120165D03*
D15*
X181292500Y-154200165D03*
D17*
X169127500Y-151660165D03*
X182054500Y-149120165D03*
D14*
X50000000Y-147580000D03*
D18*
X155000000Y-57050055D03*
X155000000Y-55550055D03*
D20*
X149800000Y-55550055D03*
D18*
X149800000Y-57050055D03*
D12*
X484610000Y-168452800D03*
D15*
X242570000Y-51400055D03*
D12*
X243840000Y-48860055D03*
D16*
X247650000Y-51400055D03*
D12*
X250190000Y-46320055D03*
D15*
X252730000Y-51400055D03*
D17*
X240565000Y-48860055D03*
X253492000Y-46320055D03*
D14*
X329500000Y-180500000D03*
X200030000Y-44520000D03*
D18*
X212150000Y-57050055D03*
X212150000Y-55550055D03*
D20*
X206950000Y-55550055D03*
D18*
X206950000Y-57050055D03*
D16*
X300005750Y-125385130D03*
D21*
X300005750Y-140625130D03*
D15*
X306863750Y-133640130D03*
D12*
X308133750Y-131100130D03*
D16*
X311943750Y-133640130D03*
D12*
X314483750Y-128560130D03*
D15*
X317023750Y-133640130D03*
D16*
X323881750Y-125385130D03*
D21*
X323881750Y-140625130D03*
D17*
X304858750Y-131100130D03*
X317785750Y-128560130D03*
D15*
X266382500Y-154200165D03*
D12*
X267652500Y-151660165D03*
D16*
X271462500Y-154200165D03*
D12*
X274002500Y-149120165D03*
D15*
X276542500Y-154200165D03*
D17*
X264377500Y-151660165D03*
X277304500Y-149120165D03*
D14*
X195270000Y-127152400D03*
X114350000Y-168148000D03*
X19700000Y-168097200D03*
D18*
X472367000Y-127510132D03*
X472367000Y-129010132D03*
D19*
X477567000Y-129010132D03*
D18*
X477567000Y-127510132D03*
D15*
X69373750Y-133640130D03*
D12*
X68103750Y-136180130D03*
D16*
X64293750Y-133640130D03*
D12*
X61753750Y-138720130D03*
D15*
X59213750Y-133640130D03*
D17*
X71378750Y-136180130D03*
X58451750Y-138720130D03*
D14*
X271627600Y-127152400D03*
X49970000Y-127101600D03*
D18*
X255012500Y-159850165D03*
X255012500Y-158350165D03*
D20*
X249812500Y-158350165D03*
D18*
X249812500Y-159850165D03*
D15*
X166370000Y-92520099D03*
D12*
X167640000Y-89980099D03*
D16*
X171450000Y-92520099D03*
D12*
X173990000Y-87440099D03*
D15*
X176530000Y-92520099D03*
D17*
X164365000Y-89980099D03*
X177292000Y-87440099D03*
D14*
X380339600Y-161025000D03*
D18*
X187900000Y-178910170D03*
X187900000Y-180410170D03*
D19*
X193100000Y-180410170D03*
D18*
X193100000Y-178910170D03*
X206950000Y-34990034D03*
X206950000Y-36490034D03*
D19*
X212150000Y-36490034D03*
D18*
X212150000Y-34990034D03*
D14*
X314350400Y-85648800D03*
D18*
X26617000Y-137790139D03*
X26617000Y-139290139D03*
D19*
X31817000Y-139290139D03*
D18*
X31817000Y-137790139D03*
X424742000Y-178910181D03*
X424742000Y-180410181D03*
D19*
X429942000Y-180410181D03*
D18*
X429942000Y-178910181D03*
X415217000Y-137790139D03*
X415217000Y-139290139D03*
D19*
X420417000Y-139290139D03*
D18*
X420417000Y-137790139D03*
D14*
X200030000Y-23940000D03*
D15*
X90170000Y-92520099D03*
D12*
X91440000Y-89980099D03*
D16*
X95250000Y-92520099D03*
D12*
X97790000Y-87440099D03*
D15*
X100330000Y-92520099D03*
D17*
X88165000Y-89980099D03*
X101092000Y-87440099D03*
D15*
X54451250Y-133640130D03*
D12*
X55721250Y-131100130D03*
D16*
X59531250Y-133640130D03*
D12*
X62071250Y-128560130D03*
D15*
X64611250Y-133640130D03*
D17*
X52446250Y-131100130D03*
X65373250Y-128560130D03*
D15*
X223520000Y-30840034D03*
D12*
X224790000Y-28300034D03*
D16*
X228600000Y-30840034D03*
D12*
X231140000Y-25760034D03*
D15*
X233680000Y-30840034D03*
D17*
X221515000Y-28300034D03*
X234442000Y-25760034D03*
D15*
X71120000Y-92520099D03*
D12*
X72390000Y-89980099D03*
D16*
X76200000Y-92520099D03*
D12*
X78740000Y-87440099D03*
D15*
X81280000Y-92520099D03*
D17*
X69115000Y-89980099D03*
X82042000Y-87440099D03*
D18*
X368233500Y-178910188D03*
X368233500Y-180410188D03*
D19*
X373433500Y-180410188D03*
D18*
X373433500Y-178910188D03*
D25*
X436698000Y-46482000D03*
D26*
X434158000Y-46482000D03*
X431618000Y-46482000D03*
X429078000Y-46482000D03*
X426538000Y-46482000D03*
X423998000Y-46482000D03*
X421458000Y-46482000D03*
X418918000Y-46482000D03*
D14*
X410700000Y-164700000D03*
D12*
X380360000Y-127203200D03*
D15*
X299720000Y-92520099D03*
D12*
X300990000Y-89980099D03*
D16*
X304800000Y-92520099D03*
D12*
X307340000Y-87440099D03*
D15*
X309880000Y-92520099D03*
D17*
X297715000Y-89980099D03*
X310642000Y-87440099D03*
D15*
X85407500Y-133640143D03*
D12*
X86677500Y-131100143D03*
D16*
X90487500Y-133640143D03*
D12*
X93027500Y-128560143D03*
D15*
X95567500Y-133640143D03*
D17*
X83402500Y-131100143D03*
X96329500Y-128560143D03*
D18*
X231200000Y-57050055D03*
X231200000Y-55550055D03*
D20*
X226000000Y-55550055D03*
D18*
X226000000Y-57050055D03*
D14*
X266725000Y-181500000D03*
D18*
X302200000Y-96670099D03*
X302200000Y-98170099D03*
D19*
X307400000Y-98170099D03*
D18*
X307400000Y-96670099D03*
D14*
X427400000Y-106426000D03*
D18*
X111700000Y-34990034D03*
X111700000Y-36490034D03*
D19*
X116900000Y-36490034D03*
D18*
X116900000Y-34990034D03*
X97850000Y-57050055D03*
X97850000Y-55550055D03*
D20*
X92650000Y-55550055D03*
D18*
X92650000Y-57050055D03*
D14*
X266750000Y-106310000D03*
D12*
X484632000Y-85598000D03*
X276310000Y-65040000D03*
D18*
X73600000Y-34990034D03*
X73600000Y-36490034D03*
D19*
X78800000Y-36490034D03*
D18*
X78800000Y-34990034D03*
D14*
X85700000Y-24110000D03*
X19710400Y-106222800D03*
X380400000Y-85648800D03*
D18*
X111700000Y-96670099D03*
X111700000Y-98170099D03*
D19*
X116900000Y-98170099D03*
D18*
X116900000Y-96670099D03*
D15*
X213995000Y-113080121D03*
D12*
X215265000Y-110540121D03*
D16*
X219075000Y-113080121D03*
D12*
X221615000Y-108000121D03*
D15*
X224155000Y-113080121D03*
D17*
X211990000Y-110540121D03*
X224917000Y-108000121D03*
D15*
X109220000Y-30840034D03*
D12*
X110490000Y-28300034D03*
D16*
X114300000Y-30840034D03*
D12*
X116840000Y-25760034D03*
D15*
X119380000Y-30840034D03*
D17*
X107215000Y-28300034D03*
X120142000Y-25760034D03*
D18*
X183137500Y-137790143D03*
X183137500Y-139290143D03*
D19*
X188337500Y-139290143D03*
D18*
X188337500Y-137790143D03*
D15*
X156845000Y-113080121D03*
D12*
X158115000Y-110540121D03*
D16*
X161925000Y-113080121D03*
D12*
X164465000Y-108000121D03*
D15*
X167005000Y-113080121D03*
D17*
X154840000Y-110540121D03*
X167767000Y-108000121D03*
D15*
X242570000Y-92520099D03*
D12*
X243840000Y-89980099D03*
D16*
X247650000Y-92520099D03*
D12*
X250190000Y-87440099D03*
D15*
X252730000Y-92520099D03*
D17*
X240565000Y-89980099D03*
X253492000Y-87440099D03*
D18*
X297875000Y-118730121D03*
X297875000Y-117230121D03*
D20*
X292675000Y-117230121D03*
D18*
X292675000Y-118730121D03*
D15*
X412737000Y-92520097D03*
D12*
X414007000Y-89980097D03*
D16*
X417817000Y-92520097D03*
D12*
X420357000Y-87440097D03*
D15*
X422897000Y-92520097D03*
D17*
X410732000Y-89980097D03*
X423659000Y-87440097D03*
D15*
X275907500Y-133640143D03*
D12*
X277177500Y-131100143D03*
D16*
X280987500Y-133640143D03*
D12*
X283527500Y-128560143D03*
D15*
X286067500Y-133640143D03*
D17*
X273902500Y-131100143D03*
X286829500Y-128560143D03*
D14*
X410700000Y-144000000D03*
D18*
X245050000Y-34990034D03*
X245050000Y-36490034D03*
D19*
X250250000Y-36490034D03*
D18*
X250250000Y-34990034D03*
X73600000Y-96670099D03*
X73600000Y-98170099D03*
D19*
X78800000Y-98170099D03*
D18*
X78800000Y-96670099D03*
D15*
X71120000Y-51400055D03*
D12*
X72390000Y-48860055D03*
D16*
X76200000Y-51400055D03*
D12*
X78740000Y-46320055D03*
D15*
X81280000Y-51400055D03*
D17*
X69115000Y-48860055D03*
X82042000Y-46320055D03*
D15*
X237807500Y-133640143D03*
D12*
X239077500Y-131100143D03*
D16*
X242887500Y-133640143D03*
D12*
X245427500Y-128560143D03*
D15*
X247967500Y-133640143D03*
D17*
X235802500Y-131100143D03*
X248729500Y-128560143D03*
D27*
X68750000Y-131500000D03*
X70250000Y-131500000D03*
D28*
X70250000Y-126300000D03*
D27*
X68750000Y-126300000D03*
D18*
X245050000Y-96670099D03*
X245050000Y-98170099D03*
D19*
X250250000Y-98170099D03*
D18*
X250250000Y-96670099D03*
D15*
X252095000Y-113080121D03*
D12*
X253365000Y-110540121D03*
D16*
X257175000Y-113080121D03*
D12*
X259715000Y-108000121D03*
D15*
X262255000Y-113080121D03*
D17*
X250090000Y-110540121D03*
X263017000Y-108000121D03*
D18*
X206950000Y-96670099D03*
X206950000Y-98170099D03*
D19*
X212150000Y-98170099D03*
D18*
X212150000Y-96670099D03*
X106937500Y-137790143D03*
X106937500Y-139290143D03*
D19*
X112137500Y-139290143D03*
D18*
X112137500Y-137790143D03*
D15*
X318770000Y-92520108D03*
D12*
X320040000Y-89980108D03*
D16*
X323850000Y-92520108D03*
D12*
X326390000Y-87440108D03*
D15*
X328930000Y-92520108D03*
D17*
X316765000Y-89980108D03*
X329692000Y-87440108D03*
D18*
X107375000Y-118730121D03*
X107375000Y-117230121D03*
D20*
X102175000Y-117230121D03*
D18*
X102175000Y-118730121D03*
D14*
X52582800Y-168148000D03*
D12*
X361340400Y-127152400D03*
D18*
X254575000Y-178910187D03*
X254575000Y-180410187D03*
D19*
X259775000Y-180410187D03*
D18*
X259775000Y-178910187D03*
D15*
X56832500Y-174760187D03*
D12*
X58102500Y-172220187D03*
D16*
X61912500Y-174760187D03*
D12*
X64452500Y-169680187D03*
D15*
X66992500Y-174760187D03*
D17*
X54827500Y-172220187D03*
X67754500Y-169680187D03*
D18*
X78800000Y-57050055D03*
X78800000Y-55550055D03*
D20*
X73600000Y-55550055D03*
D18*
X73600000Y-57050055D03*
X102612500Y-159850165D03*
X102612500Y-158350165D03*
D20*
X97412500Y-158350165D03*
D18*
X97412500Y-159850165D03*
X321687500Y-118730121D03*
X321687500Y-117230121D03*
D20*
X316487500Y-117230121D03*
D18*
X316487500Y-118730121D03*
X283150000Y-34990034D03*
X283150000Y-36490034D03*
D19*
X288350000Y-36490034D03*
D18*
X288350000Y-34990034D03*
D12*
X313410000Y-44280000D03*
D15*
X166370000Y-51400055D03*
D12*
X167640000Y-48860055D03*
D16*
X171450000Y-51400055D03*
D12*
X173990000Y-46320055D03*
D15*
X176530000Y-51400055D03*
D17*
X164365000Y-48860055D03*
X177292000Y-46320055D03*
D12*
X660400Y-127101600D03*
D18*
X453317000Y-96670097D03*
X453317000Y-98170097D03*
D19*
X458517000Y-98170097D03*
D18*
X458517000Y-96670097D03*
X64512500Y-118730121D03*
X64512500Y-117230121D03*
D20*
X59312500Y-117230121D03*
D18*
X59312500Y-118730121D03*
X235962500Y-159850165D03*
X235962500Y-158350165D03*
D20*
X230762500Y-158350165D03*
D18*
X230762500Y-159850165D03*
D27*
X55275000Y-135775000D03*
X53775000Y-135775000D03*
D29*
X53775000Y-140975000D03*
D27*
X55275000Y-140975000D03*
D18*
X187900000Y-96670099D03*
X187900000Y-98170099D03*
D19*
X193100000Y-98170099D03*
D18*
X193100000Y-96670099D03*
D14*
X19710400Y-127101600D03*
D12*
X123860000Y-65120000D03*
D30*
X256225000Y-95302653D03*
X258125000Y-95302653D03*
X257175000Y-98302653D03*
D31*
X426712000Y-56515000D03*
D32*
X424162000Y-56515000D03*
X431962000Y-56515000D03*
D31*
X429412000Y-56515000D03*
D30*
X132400000Y-115862685D03*
X134300000Y-115862685D03*
X133350000Y-118862685D03*
X208600000Y-115862685D03*
X210500000Y-115862685D03*
X209550000Y-118862685D03*
D25*
X426085000Y-33787000D03*
D26*
X426085000Y-31247000D03*
D30*
X445137500Y-156982749D03*
X447037500Y-156982749D03*
X446087500Y-159982749D03*
X103825000Y-33622557D03*
X105725000Y-33622557D03*
X104775000Y-36622557D03*
X189550000Y-115862685D03*
X191450000Y-115862685D03*
X190500000Y-118862685D03*
X445137500Y-115862685D03*
X447037500Y-115862685D03*
X446087500Y-118862685D03*
X381637500Y-137065218D03*
X383537500Y-137065218D03*
X382587500Y-140065218D03*
X137162500Y-136422717D03*
X139062500Y-136422717D03*
X138112500Y-139422717D03*
X180025000Y-51982589D03*
X181925000Y-51982589D03*
X180975000Y-54982589D03*
X256225000Y-33622557D03*
X258125000Y-33622557D03*
X257175000Y-36622557D03*
X37943750Y-136422717D03*
X39843750Y-136422717D03*
X38893750Y-139422717D03*
D33*
X305500000Y-35450000D03*
X305500000Y-37000000D03*
D30*
X379256250Y-95302653D03*
X381156250Y-95302653D03*
X380206250Y-98302653D03*
X37943750Y-115862685D03*
X39843750Y-115862685D03*
X38893750Y-118862685D03*
X194312500Y-136422717D03*
X196212500Y-136422717D03*
X195262500Y-139422717D03*
X275275000Y-33622557D03*
X277175000Y-33622557D03*
X276225000Y-36622557D03*
X37943750Y-176542781D03*
X39843750Y-176542781D03*
X38893750Y-179542781D03*
X18893750Y-156982749D03*
X20793750Y-156982749D03*
X19843750Y-159982749D03*
X103825000Y-54182589D03*
X105725000Y-54182589D03*
X104775000Y-57182589D03*
D34*
X423109000Y-60706000D03*
D35*
X433269000Y-60706000D03*
D30*
X127637500Y-156982749D03*
X129537500Y-156982749D03*
X128587500Y-159982749D03*
X426087500Y-95302653D03*
X427987500Y-95302653D03*
X427037500Y-98302653D03*
X260987500Y-156982749D03*
X262887500Y-156982749D03*
X261937500Y-159982749D03*
X122875000Y-33622557D03*
X124775000Y-33622557D03*
X123825000Y-36622557D03*
X199075000Y-54182589D03*
X200975000Y-54182589D03*
X200025000Y-57182589D03*
X218125000Y-173542781D03*
X220025000Y-173542781D03*
X219075000Y-176542781D03*
D25*
X373761000Y-25019000D03*
D36*
X376301000Y-25019000D03*
X378841000Y-25019000D03*
X381381000Y-25019000D03*
X383921000Y-25019000D03*
X386461000Y-25019000D03*
X389001000Y-25019000D03*
X391541000Y-25019000D03*
X394081000Y-25019000D03*
X396621000Y-25019000D03*
X399161000Y-25019000D03*
X401701000Y-25019000D03*
X404241000Y-25019000D03*
X406781000Y-25019000D03*
X409321000Y-25019000D03*
X411861000Y-25019000D03*
X414401000Y-25019000D03*
X416941000Y-25019000D03*
X419481000Y-25019000D03*
X422021000Y-25019000D03*
X422021000Y-40259000D03*
X419481000Y-40259000D03*
X416941000Y-40259000D03*
X414401000Y-40259000D03*
X411861000Y-40259000D03*
X409321000Y-40259000D03*
X406781000Y-40259000D03*
X404241000Y-40259000D03*
X401701000Y-40259000D03*
X399161000Y-40259000D03*
X396621000Y-40259000D03*
X394081000Y-40259000D03*
X391541000Y-40259000D03*
X389001000Y-40259000D03*
X386461000Y-40259000D03*
X383921000Y-40259000D03*
X381381000Y-40259000D03*
X378841000Y-40259000D03*
X376301000Y-40259000D03*
X373761000Y-40259000D03*
X418210000Y-36451000D03*
X418210000Y-33911000D03*
X418210000Y-31371000D03*
X418210000Y-28831000D03*
D30*
X379256250Y-113862685D03*
X381156250Y-113862685D03*
X380206250Y-116862685D03*
X180025000Y-33622557D03*
X181925000Y-33622557D03*
X180975000Y-36622557D03*
X134150000Y-174225000D03*
X136050000Y-174225000D03*
X135100000Y-177225000D03*
X426087500Y-115862685D03*
X427987500Y-115862685D03*
X427037500Y-118862685D03*
X184787500Y-156982749D03*
X186687500Y-156982749D03*
X185737500Y-159982749D03*
X180025000Y-95302653D03*
X181925000Y-95302653D03*
X180975000Y-98302653D03*
X113350000Y-115862685D03*
X115250000Y-115862685D03*
X114300000Y-118862685D03*
X360206250Y-177542781D03*
X362106250Y-177542781D03*
X361156250Y-180542781D03*
X122875000Y-53182589D03*
X124775000Y-53182589D03*
X123825000Y-56182589D03*
X84775000Y-33622557D03*
X86675000Y-33622557D03*
X85725000Y-36622557D03*
X270512500Y-136422717D03*
X272412500Y-136422717D03*
X271462500Y-139422717D03*
D37*
X303125000Y-37187500D03*
X302175000Y-37187500D03*
X301225000Y-37187500D03*
X301225000Y-34912500D03*
X303125000Y-34912500D03*
D30*
X284800000Y-115862685D03*
X286700000Y-115862685D03*
X285750000Y-118862685D03*
X278450000Y-156982749D03*
X280350000Y-156982749D03*
X279400000Y-159982749D03*
X265750000Y-115862685D03*
X267650000Y-115862685D03*
X266700000Y-118862685D03*
X18893750Y-175242781D03*
X20793750Y-175242781D03*
X19843750Y-178242781D03*
X256225000Y-54182589D03*
X258125000Y-54182589D03*
X257175000Y-57182589D03*
X445137500Y-95302653D03*
X447037500Y-95302653D03*
X446087500Y-98302653D03*
X420125000Y-182650000D03*
X422025000Y-182650000D03*
X421075000Y-185650000D03*
X275275000Y-51982589D03*
X277175000Y-51982589D03*
X276225000Y-54982589D03*
X37943750Y-156982749D03*
X39843750Y-156982749D03*
X38893750Y-159982749D03*
X287975000Y-136422717D03*
X289875000Y-136422717D03*
X288925000Y-139422717D03*
X108587500Y-156982749D03*
X110487500Y-156982749D03*
X109537500Y-159982749D03*
X18893750Y-136422717D03*
X20793750Y-136422717D03*
X19843750Y-139422717D03*
X18893750Y-113562685D03*
X20793750Y-113562685D03*
X19843750Y-116562685D03*
X118112500Y-136422717D03*
X120012500Y-136422717D03*
X119062500Y-139422717D03*
X199075000Y-95302653D03*
X200975000Y-95302653D03*
X200025000Y-98302653D03*
X37943750Y-95302653D03*
X39843750Y-95302653D03*
X38893750Y-98302653D03*
X426087500Y-156982749D03*
X427987500Y-156982749D03*
X427037500Y-159982749D03*
D38*
X411933000Y-49982000D03*
D39*
X414473000Y-49982000D03*
X417013000Y-49982000D03*
D30*
X122875000Y-95302653D03*
X124775000Y-95302653D03*
X123825000Y-98302653D03*
X199075000Y-33622557D03*
X200975000Y-33622557D03*
X200025000Y-36622557D03*
X103825000Y-95302653D03*
X105725000Y-95302653D03*
X104775000Y-98302653D03*
X445137500Y-136422717D03*
X447037500Y-136422717D03*
X446087500Y-139422717D03*
X275275000Y-95302653D03*
X277175000Y-95302653D03*
X276225000Y-98302653D03*
X203837500Y-156982749D03*
X205737500Y-156982749D03*
X204787500Y-159982749D03*
X426087500Y-136422717D03*
X427987500Y-136422717D03*
X427037500Y-139422717D03*
X213362500Y-136422717D03*
X215262500Y-136422717D03*
X214312500Y-139422717D03*
X332425000Y-177542781D03*
X334325000Y-177542781D03*
X333375000Y-180542781D03*
X18893750Y-95302653D03*
X20793750Y-95302653D03*
X19843750Y-98302653D03*
M02*
