G04 #@! TF.GenerationSoftware,KiCad,Pcbnew,7.0.11+dfsg-1build4*
G04 #@! TF.CreationDate,2026-06-03T16:08:01-04:00*
G04 #@! TF.ProjectId,pcb,7063622e-6b69-4636-9164-5f7063625858,rev?*
G04 #@! TF.SameCoordinates,Original*
G04 #@! TF.FileFunction,Profile,NP*
%FSLAX46Y46*%
G04 Gerber Fmt 4.6, Leading zero omitted, Abs format (unit mm)*
G04 Created by KiCad (PCBNEW 7.0.11+dfsg-1build4) date 2026-06-03 16:08:01*
%MOMM*%
%LPD*%
G01*
G04 APERTURE LIST*
G04 #@! TA.AperFunction,Profile*
%ADD10C,0.100000*%
G04 #@! TD*
G04 #@! TA.AperFunction,Profile*
%ADD11C,0.120000*%
G04 #@! TD*
G04 APERTURE END LIST*
D10*
X10795000Y-187452000D02*
X-127000Y-187452000D01*
X327406000Y-187452000D02*
X327406000Y-191770000D01*
X-127000Y-81804000D02*
G75*
G03*
X-2159000Y-83836000I0J-2032000D01*
G01*
X202692000Y-191770000D02*
X202692000Y-187452000D01*
X434467000Y-191770000D02*
X474726000Y-191770000D01*
X65024000Y-20082000D02*
G75*
G03*
X62992000Y-22114000I0J-2032000D01*
G01*
X206629000Y-187452000D02*
X206629000Y-191770000D01*
X-2159000Y-83836000D02*
X-2159000Y-185420000D01*
X357124000Y-75277100D02*
G75*
G03*
X359156000Y-73245114I0J2032000D01*
G01*
X323342000Y-191770000D02*
X323342000Y-187452000D01*
X10795000Y-190754000D02*
G75*
G03*
X11811000Y-191770000I1016000J0D01*
G01*
X229743000Y-191770000D02*
X206629000Y-191770000D01*
X202692000Y-187452000D02*
X206629000Y-187452000D01*
X140843000Y-191770000D02*
X120269000Y-191770000D01*
X144780000Y-187452000D02*
X144780000Y-191770000D01*
X49657000Y-191770000D02*
X49657000Y-187452000D01*
X446398000Y-21082000D02*
X361188000Y-21082000D01*
X430530000Y-187452000D02*
X434467000Y-187452000D01*
X68326000Y-187452000D02*
X72390000Y-187452000D01*
X140843000Y-187452000D02*
X144780000Y-187452000D01*
X257556000Y-187452000D02*
X261620000Y-187452000D01*
X60960000Y-81804000D02*
G75*
G03*
X62992000Y-79772000I0J2032000D01*
G01*
X323342000Y-187452000D02*
X327406000Y-187452000D01*
X72390000Y-191770000D02*
X116332000Y-191770000D01*
X229743000Y-187452000D02*
X233680000Y-187452000D01*
X116332000Y-187452000D02*
X120269000Y-187452000D01*
X347218000Y-187452000D02*
X347218000Y-191770000D01*
X166878000Y-187452000D02*
X166878000Y-191770000D01*
X347218000Y-191770000D02*
X387096000Y-191770000D01*
X486410000Y-191770000D02*
G75*
G03*
X487426000Y-190754000I0J1016000D01*
G01*
X49657000Y-187452000D02*
X53594000Y-187452000D01*
X162941000Y-191770000D02*
X162941000Y-187452000D01*
X166878000Y-191770000D02*
X202692000Y-191770000D01*
X316229986Y-73245114D02*
G75*
G03*
X318262000Y-75277114I2032014J14D01*
G01*
X387096000Y-187452000D02*
X393954000Y-187452000D01*
X481076000Y-187452000D02*
X481076000Y-191770000D01*
X430530000Y-191770000D02*
X393954000Y-191770000D01*
X162941000Y-187452000D02*
X166878000Y-187452000D01*
X487426000Y-190754000D02*
X487426000Y-84836000D01*
X343281000Y-191770000D02*
X327406000Y-191770000D01*
X361188000Y-21082000D02*
G75*
G03*
X359156000Y-23114000I0J-2032000D01*
G01*
X233680000Y-191770000D02*
X257556000Y-191770000D01*
X276479000Y-191770000D02*
X261620000Y-191770000D01*
X318262000Y-75277114D02*
X357124000Y-75277114D01*
X359156000Y-23114000D02*
X359156000Y-73245114D01*
X343281000Y-187452000D02*
X347218000Y-187452000D01*
X314198000Y-20082000D02*
X65024000Y-20082000D01*
X448430000Y-23114000D02*
G75*
G03*
X446398000Y-21082000I-2032000J0D01*
G01*
X481076000Y-191770000D02*
X486410000Y-191770000D01*
X53594000Y-191770000D02*
X68326000Y-191770000D01*
X280416000Y-191770000D02*
X323342000Y-191770000D01*
X53594000Y-187452000D02*
X53594000Y-191770000D01*
X10795000Y-190754000D02*
X10795000Y-187452000D01*
X474726000Y-191770000D02*
X474726000Y-187452000D01*
X261620000Y-187452000D02*
X261620000Y-191770000D01*
X-2159000Y-185420000D02*
G75*
G03*
X-127000Y-187452000I2032000J0D01*
G01*
X-127000Y-81804000D02*
X60960000Y-81804000D01*
X387096000Y-191770000D02*
X387096000Y-187452000D01*
X276479000Y-191770000D02*
X276479000Y-187452000D01*
X120269000Y-187452000D02*
X120269000Y-191770000D01*
X450469000Y-82804000D02*
X485394000Y-82804000D01*
X448437000Y-80772000D02*
G75*
G03*
X450469000Y-82804000I2032000J0D01*
G01*
X276479000Y-187452000D02*
X280416000Y-187452000D01*
X68326000Y-191770000D02*
X68326000Y-187452000D01*
X140843000Y-191770000D02*
X140843000Y-187452000D01*
X257556000Y-191770000D02*
X257556000Y-187452000D01*
X448430000Y-23114000D02*
X448437000Y-80772000D01*
X62992000Y-22114000D02*
X62992000Y-79772000D01*
X116332000Y-191770000D02*
X116332000Y-187452000D01*
X430530000Y-191770000D02*
X430530000Y-187452000D01*
X343281000Y-191770000D02*
X343281000Y-187452000D01*
X229743000Y-191770000D02*
X229743000Y-187452000D01*
X316230000Y-22114000D02*
X316230000Y-73245114D01*
X434467000Y-187452000D02*
X434467000Y-191770000D01*
X162941000Y-191770000D02*
X144780000Y-191770000D01*
X11811000Y-191770000D02*
X49657000Y-191770000D01*
X280416000Y-187452000D02*
X280416000Y-191770000D01*
X487426000Y-84836000D02*
G75*
G03*
X485394000Y-82804000I-2032000J0D01*
G01*
X393954000Y-187452000D02*
X393954000Y-191770000D01*
X316230000Y-22114000D02*
G75*
G03*
X314198000Y-20082000I-2032000J0D01*
G01*
X72390000Y-187452000D02*
X72390000Y-191770000D01*
X233680000Y-187452000D02*
X233680000Y-191770000D01*
X474726000Y-187452000D02*
X481076000Y-187452000D01*
D11*
X350083500Y-96070097D02*
X350083500Y-98770097D01*
X350233500Y-95920097D02*
X353333500Y-95920097D01*
X350233500Y-98920097D02*
X353333500Y-98920097D01*
X353483500Y-96070097D02*
X353483500Y-98770097D01*
X350233500Y-95920097D02*
G75*
G03*
X350083500Y-96070097I0J-150000D01*
G01*
X350083500Y-98770097D02*
G75*
G03*
X350233500Y-98920097I150000J0D01*
G01*
X353483500Y-96070097D02*
G75*
G03*
X353333500Y-95920097I-150000J0D01*
G01*
X353333500Y-98920097D02*
G75*
G03*
X353483500Y-98770097I0J150000D01*
G01*
X177912500Y-160450165D02*
X177912500Y-157750165D01*
X177762500Y-160600165D02*
X174662500Y-160600165D01*
X177762500Y-157600165D02*
X174662500Y-157600165D01*
X174512500Y-160450165D02*
X174512500Y-157750165D01*
X177762500Y-160600165D02*
G75*
G03*
X177912500Y-160450165I0J150000D01*
G01*
X177912500Y-157750165D02*
G75*
G03*
X177762500Y-157600165I-150000J0D01*
G01*
X174512500Y-160450165D02*
G75*
G03*
X174662500Y-160600165I150000J0D01*
G01*
X174662500Y-157600165D02*
G75*
G03*
X174512500Y-157750165I0J-150000D01*
G01*
X216012500Y-160450165D02*
X216012500Y-157750165D01*
X215862500Y-160600165D02*
X212762500Y-160600165D01*
X215862500Y-157600165D02*
X212762500Y-157600165D01*
X212612500Y-160450165D02*
X212612500Y-157750165D01*
X215862500Y-160600165D02*
G75*
G03*
X216012500Y-160450165I0J150000D01*
G01*
X216012500Y-157750165D02*
G75*
G03*
X215862500Y-157600165I-150000J0D01*
G01*
X212612500Y-160450165D02*
G75*
G03*
X212762500Y-160600165I150000J0D01*
G01*
X212762500Y-157600165D02*
G75*
G03*
X212612500Y-157750165I0J-150000D01*
G01*
X192200000Y-57650055D02*
X192200000Y-54950055D01*
X192050000Y-57800055D02*
X188950000Y-57800055D01*
X192050000Y-54800055D02*
X188950000Y-54800055D01*
X188800000Y-57650055D02*
X188800000Y-54950055D01*
X192050000Y-57800055D02*
G75*
G03*
X192200000Y-57650055I0J150000D01*
G01*
X192200000Y-54950055D02*
G75*
G03*
X192050000Y-54800055I-150000J0D01*
G01*
X188800000Y-57650055D02*
G75*
G03*
X188950000Y-57800055I150000J0D01*
G01*
X188950000Y-54800055D02*
G75*
G03*
X188800000Y-54950055I0J-150000D01*
G01*
X438567000Y-160450160D02*
X438567000Y-157750160D01*
X438417000Y-160600160D02*
X435317000Y-160600160D01*
X438417000Y-157600160D02*
X435317000Y-157600160D01*
X435167000Y-160450160D02*
X435167000Y-157750160D01*
X438417000Y-160600160D02*
G75*
G03*
X438567000Y-160450160I0J150000D01*
G01*
X438567000Y-157750160D02*
G75*
G03*
X438417000Y-157600160I-150000J0D01*
G01*
X435167000Y-160450160D02*
G75*
G03*
X435317000Y-160600160I150000J0D01*
G01*
X435317000Y-157600160D02*
G75*
G03*
X435167000Y-157750160I0J-150000D01*
G01*
X158862500Y-160450165D02*
X158862500Y-157750165D01*
X158712500Y-160600165D02*
X155612500Y-160600165D01*
X158712500Y-157600165D02*
X155612500Y-157600165D01*
X155462500Y-160450165D02*
X155462500Y-157750165D01*
X158712500Y-160600165D02*
G75*
G03*
X158862500Y-160450165I0J150000D01*
G01*
X158862500Y-157750165D02*
G75*
G03*
X158712500Y-157600165I-150000J0D01*
G01*
X155462500Y-160450165D02*
G75*
G03*
X155612500Y-160600165I150000J0D01*
G01*
X155612500Y-157600165D02*
G75*
G03*
X155462500Y-157750165I0J-150000D01*
G01*
X88787500Y-137190143D02*
X88787500Y-139890143D01*
X88937500Y-137040143D02*
X92037500Y-137040143D01*
X88937500Y-140040143D02*
X92037500Y-140040143D01*
X92187500Y-137190143D02*
X92187500Y-139890143D01*
X88937500Y-137040143D02*
G75*
G03*
X88787500Y-137190143I0J-150000D01*
G01*
X88787500Y-139890143D02*
G75*
G03*
X88937500Y-140040143I150000J0D01*
G01*
X92187500Y-137190143D02*
G75*
G03*
X92037500Y-137040143I-150000J0D01*
G01*
X92037500Y-140040143D02*
G75*
G03*
X92187500Y-139890143I0J150000D01*
G01*
X274525000Y-178310187D02*
X274525000Y-181010187D01*
X274675000Y-178160187D02*
X277775000Y-178160187D01*
X274675000Y-181160187D02*
X277775000Y-181160187D01*
X277925000Y-178310187D02*
X277925000Y-181010187D01*
X274675000Y-178160187D02*
G75*
G03*
X274525000Y-178310187I0J-150000D01*
G01*
X274525000Y-181010187D02*
G75*
G03*
X274675000Y-181160187I150000J0D01*
G01*
X277925000Y-178310187D02*
G75*
G03*
X277775000Y-178160187I-150000J0D01*
G01*
X277775000Y-181160187D02*
G75*
G03*
X277925000Y-181010187I0J150000D01*
G01*
X419517000Y-119330118D02*
X419517000Y-116630118D01*
X419367000Y-119480118D02*
X416267000Y-119480118D01*
X419367000Y-116480118D02*
X416267000Y-116480118D01*
X416117000Y-119330118D02*
X416117000Y-116630118D01*
X419367000Y-119480118D02*
G75*
G03*
X419517000Y-119330118I0J150000D01*
G01*
X419517000Y-116630118D02*
G75*
G03*
X419367000Y-116480118I-150000J0D01*
G01*
X416117000Y-119330118D02*
G75*
G03*
X416267000Y-119480118I150000J0D01*
G01*
X416267000Y-116480118D02*
G75*
G03*
X416117000Y-116630118I0J-150000D01*
G01*
X353483500Y-119330118D02*
X353483500Y-116630118D01*
X353333500Y-119480118D02*
X350233500Y-119480118D01*
X353333500Y-116480118D02*
X350233500Y-116480118D01*
X350083500Y-119330118D02*
X350083500Y-116630118D01*
X353333500Y-119480118D02*
G75*
G03*
X353483500Y-119330118I0J150000D01*
G01*
X353483500Y-116630118D02*
G75*
G03*
X353333500Y-116480118I-150000J0D01*
G01*
X350083500Y-119330118D02*
G75*
G03*
X350233500Y-119480118I150000J0D01*
G01*
X350233500Y-116480118D02*
G75*
G03*
X350083500Y-116630118I0J-150000D01*
G01*
X173150000Y-57650055D02*
X173150000Y-54950055D01*
X173000000Y-57800055D02*
X169900000Y-57800055D01*
X173000000Y-54800055D02*
X169900000Y-54800055D01*
X169750000Y-57650055D02*
X169750000Y-54950055D01*
X173000000Y-57800055D02*
G75*
G03*
X173150000Y-57650055I0J150000D01*
G01*
X173150000Y-54950055D02*
G75*
G03*
X173000000Y-54800055I-150000J0D01*
G01*
X169750000Y-57650055D02*
G75*
G03*
X169900000Y-57800055I150000J0D01*
G01*
X169900000Y-54800055D02*
G75*
G03*
X169750000Y-54950055I0J-150000D01*
G01*
X226900000Y-96070099D02*
X226900000Y-98770099D01*
X227050000Y-95920099D02*
X230150000Y-95920099D01*
X227050000Y-98920099D02*
X230150000Y-98920099D01*
X230300000Y-96070099D02*
X230300000Y-98770099D01*
X227050000Y-95920099D02*
G75*
G03*
X226900000Y-96070099I0J-150000D01*
G01*
X226900000Y-98770099D02*
G75*
G03*
X227050000Y-98920099I150000J0D01*
G01*
X230300000Y-96070099D02*
G75*
G03*
X230150000Y-95920099I-150000J0D01*
G01*
X230150000Y-98920099D02*
G75*
G03*
X230300000Y-98770099I0J150000D01*
G01*
X169750000Y-96070099D02*
X169750000Y-98770099D01*
X169900000Y-95920099D02*
X173000000Y-95920099D01*
X169900000Y-98920099D02*
X173000000Y-98920099D01*
X173150000Y-96070099D02*
X173150000Y-98770099D01*
X169900000Y-95920099D02*
G75*
G03*
X169750000Y-96070099I0J-150000D01*
G01*
X169750000Y-98770099D02*
G75*
G03*
X169900000Y-98920099I150000J0D01*
G01*
X173150000Y-96070099D02*
G75*
G03*
X173000000Y-95920099I-150000J0D01*
G01*
X173000000Y-98920099D02*
G75*
G03*
X173150000Y-98770099I0J150000D01*
G01*
X116000000Y-57650055D02*
X116000000Y-54950055D01*
X115850000Y-57800055D02*
X112750000Y-57800055D01*
X115850000Y-54800055D02*
X112750000Y-54800055D01*
X112600000Y-57650055D02*
X112600000Y-54950055D01*
X115850000Y-57800055D02*
G75*
G03*
X116000000Y-57650055I0J150000D01*
G01*
X116000000Y-54950055D02*
G75*
G03*
X115850000Y-54800055I-150000J0D01*
G01*
X112600000Y-57650055D02*
G75*
G03*
X112750000Y-57800055I150000J0D01*
G01*
X112750000Y-54800055D02*
G75*
G03*
X112600000Y-54950055I0J-150000D01*
G01*
X144575000Y-119330121D02*
X144575000Y-116630121D01*
X144425000Y-119480121D02*
X141325000Y-119480121D01*
X144425000Y-116480121D02*
X141325000Y-116480121D01*
X141175000Y-119330121D02*
X141175000Y-116630121D01*
X144425000Y-119480121D02*
G75*
G03*
X144575000Y-119330121I0J150000D01*
G01*
X144575000Y-116630121D02*
G75*
G03*
X144425000Y-116480121I-150000J0D01*
G01*
X141175000Y-119330121D02*
G75*
G03*
X141325000Y-119480121I150000J0D01*
G01*
X141325000Y-116480121D02*
G75*
G03*
X141175000Y-116630121I0J-150000D01*
G01*
X131650000Y-34390034D02*
X131650000Y-37090034D01*
X131800000Y-34240034D02*
X134900000Y-34240034D01*
X131800000Y-37240034D02*
X134900000Y-37240034D01*
X135050000Y-34390034D02*
X135050000Y-37090034D01*
X131800000Y-34240034D02*
G75*
G03*
X131650000Y-34390034I0J-150000D01*
G01*
X131650000Y-37090034D02*
G75*
G03*
X131800000Y-37240034I150000J0D01*
G01*
X135050000Y-34390034D02*
G75*
G03*
X134900000Y-34240034I-150000J0D01*
G01*
X134900000Y-37240034D02*
G75*
G03*
X135050000Y-37090034I0J150000D01*
G01*
X139812500Y-160450165D02*
X139812500Y-157750165D01*
X139662500Y-160600165D02*
X136562500Y-160600165D01*
X139662500Y-157600165D02*
X136562500Y-157600165D01*
X136412500Y-160450165D02*
X136412500Y-157750165D01*
X139662500Y-160600165D02*
G75*
G03*
X139812500Y-160450165I0J150000D01*
G01*
X139812500Y-157750165D02*
G75*
G03*
X139662500Y-157600165I-150000J0D01*
G01*
X136412500Y-160450165D02*
G75*
G03*
X136562500Y-160600165I150000J0D01*
G01*
X136562500Y-157600165D02*
G75*
G03*
X136412500Y-157750165I0J-150000D01*
G01*
X87425000Y-119330121D02*
X87425000Y-116630121D01*
X87275000Y-119480121D02*
X84175000Y-119480121D01*
X87275000Y-116480121D02*
X84175000Y-116480121D01*
X84025000Y-119330121D02*
X84025000Y-116630121D01*
X87275000Y-119480121D02*
G75*
G03*
X87425000Y-119330121I0J150000D01*
G01*
X87425000Y-116630121D02*
G75*
G03*
X87275000Y-116480121I-150000J0D01*
G01*
X84025000Y-119330121D02*
G75*
G03*
X84175000Y-119480121I150000J0D01*
G01*
X84175000Y-116480121D02*
G75*
G03*
X84025000Y-116630121I0J-150000D01*
G01*
X317387500Y-178310187D02*
X317387500Y-181010187D01*
X317537500Y-178160187D02*
X320637500Y-178160187D01*
X317537500Y-181160187D02*
X320637500Y-181160187D01*
X320787500Y-178310187D02*
X320787500Y-181010187D01*
X317537500Y-178160187D02*
G75*
G03*
X317387500Y-178310187I0J-150000D01*
G01*
X317387500Y-181010187D02*
G75*
G03*
X317537500Y-181160187I150000J0D01*
G01*
X320787500Y-178310187D02*
G75*
G03*
X320637500Y-178160187I-150000J0D01*
G01*
X320637500Y-181160187D02*
G75*
G03*
X320787500Y-181010187I0J150000D01*
G01*
X27517000Y-96070097D02*
X27517000Y-98770097D01*
X27667000Y-95920097D02*
X30767000Y-95920097D01*
X27667000Y-98920097D02*
X30767000Y-98920097D01*
X30917000Y-96070097D02*
X30917000Y-98770097D01*
X27667000Y-95920097D02*
G75*
G03*
X27517000Y-96070097I0J-150000D01*
G01*
X27517000Y-98770097D02*
G75*
G03*
X27667000Y-98920097I150000J0D01*
G01*
X30917000Y-96070097D02*
G75*
G03*
X30767000Y-95920097I-150000J0D01*
G01*
X30767000Y-98920097D02*
G75*
G03*
X30917000Y-98770097I0J150000D01*
G01*
X164987500Y-137190143D02*
X164987500Y-139890143D01*
X165137500Y-137040143D02*
X168237500Y-137040143D01*
X165137500Y-140040143D02*
X168237500Y-140040143D01*
X168387500Y-137190143D02*
X168387500Y-139890143D01*
X165137500Y-137040143D02*
G75*
G03*
X164987500Y-137190143I0J-150000D01*
G01*
X164987500Y-139890143D02*
G75*
G03*
X165137500Y-140040143I150000J0D01*
G01*
X168387500Y-137190143D02*
G75*
G03*
X168237500Y-137040143I-150000J0D01*
G01*
X168237500Y-140040143D02*
G75*
G03*
X168387500Y-139890143I0J150000D01*
G01*
X120762500Y-160450165D02*
X120762500Y-157750165D01*
X120612500Y-160600165D02*
X117512500Y-160600165D01*
X120612500Y-157600165D02*
X117512500Y-157600165D01*
X117362500Y-160450165D02*
X117362500Y-157750165D01*
X120612500Y-160600165D02*
G75*
G03*
X120762500Y-160450165I0J150000D01*
G01*
X120762500Y-157750165D02*
G75*
G03*
X120612500Y-157600165I-150000J0D01*
G01*
X117362500Y-160450165D02*
G75*
G03*
X117512500Y-160600165I150000J0D01*
G01*
X117512500Y-157600165D02*
G75*
G03*
X117362500Y-157750165I0J-150000D01*
G01*
X145937500Y-137190143D02*
X145937500Y-139890143D01*
X146087500Y-137040143D02*
X149187500Y-137040143D01*
X146087500Y-140040143D02*
X149187500Y-140040143D01*
X149337500Y-137190143D02*
X149337500Y-139890143D01*
X146087500Y-137040143D02*
G75*
G03*
X145937500Y-137190143I0J-150000D01*
G01*
X145937500Y-139890143D02*
G75*
G03*
X146087500Y-140040143I150000J0D01*
G01*
X149337500Y-137190143D02*
G75*
G03*
X149187500Y-137040143I-150000J0D01*
G01*
X149187500Y-140040143D02*
G75*
G03*
X149337500Y-139890143I0J150000D01*
G01*
X265000000Y-96070099D02*
X265000000Y-98770099D01*
X265150000Y-95920099D02*
X268250000Y-95920099D01*
X265150000Y-98920099D02*
X268250000Y-98920099D01*
X268400000Y-96070099D02*
X268400000Y-98770099D01*
X265150000Y-95920099D02*
G75*
G03*
X265000000Y-96070099I0J-150000D01*
G01*
X265000000Y-98770099D02*
G75*
G03*
X265150000Y-98920099I150000J0D01*
G01*
X268400000Y-96070099D02*
G75*
G03*
X268250000Y-95920099I-150000J0D01*
G01*
X268250000Y-98920099D02*
G75*
G03*
X268400000Y-98770099I0J150000D01*
G01*
X93550000Y-34390034D02*
X93550000Y-37090034D01*
X93700000Y-34240034D02*
X96800000Y-34240034D01*
X93700000Y-37240034D02*
X96800000Y-37240034D01*
X96950000Y-34390034D02*
X96950000Y-37090034D01*
X93700000Y-34240034D02*
G75*
G03*
X93550000Y-34390034I0J-150000D01*
G01*
X93550000Y-37090034D02*
G75*
G03*
X93700000Y-37240034I150000J0D01*
G01*
X96950000Y-34390034D02*
G75*
G03*
X96800000Y-34240034I-150000J0D01*
G01*
X96800000Y-37240034D02*
G75*
G03*
X96950000Y-37090034I0J150000D01*
G01*
X419517000Y-160450160D02*
X419517000Y-157750160D01*
X419367000Y-160600160D02*
X416267000Y-160600160D01*
X419367000Y-157600160D02*
X416267000Y-157600160D01*
X416117000Y-160450160D02*
X416117000Y-157750160D01*
X419367000Y-160600160D02*
G75*
G03*
X419517000Y-160450160I0J150000D01*
G01*
X419517000Y-157750160D02*
G75*
G03*
X419367000Y-157600160I-150000J0D01*
G01*
X416117000Y-160450160D02*
G75*
G03*
X416267000Y-160600160I150000J0D01*
G01*
X416267000Y-157600160D02*
G75*
G03*
X416117000Y-157750160I0J-150000D01*
G01*
X131650000Y-96070099D02*
X131650000Y-98770099D01*
X131800000Y-95920099D02*
X134900000Y-95920099D01*
X131800000Y-98920099D02*
X134900000Y-98920099D01*
X135050000Y-96070099D02*
X135050000Y-98770099D01*
X131800000Y-95920099D02*
G75*
G03*
X131650000Y-96070099I0J-150000D01*
G01*
X131650000Y-98770099D02*
G75*
G03*
X131800000Y-98920099I150000J0D01*
G01*
X135050000Y-96070099D02*
G75*
G03*
X134900000Y-95920099I-150000J0D01*
G01*
X134900000Y-98920099D02*
G75*
G03*
X135050000Y-98770099I0J150000D01*
G01*
X163625000Y-119330121D02*
X163625000Y-116630121D01*
X163475000Y-119480121D02*
X160375000Y-119480121D01*
X163475000Y-116480121D02*
X160375000Y-116480121D01*
X160225000Y-119330121D02*
X160225000Y-116630121D01*
X163475000Y-119480121D02*
G75*
G03*
X163625000Y-119330121I0J150000D01*
G01*
X163625000Y-116630121D02*
G75*
G03*
X163475000Y-116480121I-150000J0D01*
G01*
X160225000Y-119330121D02*
G75*
G03*
X160375000Y-119480121I150000J0D01*
G01*
X160375000Y-116480121D02*
G75*
G03*
X160225000Y-116630121I0J-150000D01*
G01*
X435167000Y-137190139D02*
X435167000Y-139890139D01*
X435317000Y-137040139D02*
X438417000Y-137040139D01*
X435317000Y-140040139D02*
X438417000Y-140040139D01*
X438567000Y-137190139D02*
X438567000Y-139890139D01*
X435317000Y-137040139D02*
G75*
G03*
X435167000Y-137190139I0J-150000D01*
G01*
X435167000Y-139890139D02*
G75*
G03*
X435317000Y-140040139I150000J0D01*
G01*
X438567000Y-137190139D02*
G75*
G03*
X438417000Y-137040139I-150000J0D01*
G01*
X438417000Y-140040139D02*
G75*
G03*
X438567000Y-139890139I0J150000D01*
G01*
X372533500Y-160450167D02*
X372533500Y-157750167D01*
X372383500Y-160600167D02*
X369283500Y-160600167D01*
X372383500Y-157600167D02*
X369283500Y-157600167D01*
X369133500Y-160450167D02*
X369133500Y-157750167D01*
X372383500Y-160600167D02*
G75*
G03*
X372533500Y-160450167I0J150000D01*
G01*
X372533500Y-157750167D02*
G75*
G03*
X372383500Y-157600167I-150000J0D01*
G01*
X369133500Y-160450167D02*
G75*
G03*
X369283500Y-160600167I150000J0D01*
G01*
X369283500Y-157600167D02*
G75*
G03*
X369133500Y-157750167I0J-150000D01*
G01*
X122125000Y-178310187D02*
X122125000Y-181010187D01*
X122275000Y-178160187D02*
X125375000Y-178160187D01*
X122275000Y-181160187D02*
X125375000Y-181160187D01*
X125525000Y-178310187D02*
X125525000Y-181010187D01*
X122275000Y-178160187D02*
G75*
G03*
X122125000Y-178310187I0J-150000D01*
G01*
X122125000Y-181010187D02*
G75*
G03*
X122275000Y-181160187I150000J0D01*
G01*
X125525000Y-178310187D02*
G75*
G03*
X125375000Y-178160187I-150000J0D01*
G01*
X125375000Y-181160187D02*
G75*
G03*
X125525000Y-181010187I0J150000D01*
G01*
X8467000Y-96070097D02*
X8467000Y-98770097D01*
X8617000Y-95920097D02*
X11717000Y-95920097D01*
X8617000Y-98920097D02*
X11717000Y-98920097D01*
X11867000Y-96070097D02*
X11867000Y-98770097D01*
X8617000Y-95920097D02*
G75*
G03*
X8467000Y-96070097I0J-150000D01*
G01*
X8467000Y-98770097D02*
G75*
G03*
X8617000Y-98920097I150000J0D01*
G01*
X11867000Y-96070097D02*
G75*
G03*
X11717000Y-95920097I-150000J0D01*
G01*
X11717000Y-98920097D02*
G75*
G03*
X11867000Y-98770097I0J150000D01*
G01*
X188800000Y-34390034D02*
X188800000Y-37090034D01*
X188950000Y-34240034D02*
X192050000Y-34240034D01*
X188950000Y-37240034D02*
X192050000Y-37240034D01*
X192200000Y-34390034D02*
X192200000Y-37090034D01*
X188950000Y-34240034D02*
G75*
G03*
X188800000Y-34390034I0J-150000D01*
G01*
X188800000Y-37090034D02*
G75*
G03*
X188950000Y-37240034I150000J0D01*
G01*
X192200000Y-34390034D02*
G75*
G03*
X192050000Y-34240034I-150000J0D01*
G01*
X192050000Y-37240034D02*
G75*
G03*
X192200000Y-37090034I0J150000D01*
G01*
X182675000Y-119330121D02*
X182675000Y-116630121D01*
X182525000Y-119480121D02*
X179425000Y-119480121D01*
X182525000Y-116480121D02*
X179425000Y-116480121D01*
X179275000Y-119330121D02*
X179275000Y-116630121D01*
X182525000Y-119480121D02*
G75*
G03*
X182675000Y-119330121I0J150000D01*
G01*
X182675000Y-116630121D02*
G75*
G03*
X182525000Y-116480121I-150000J0D01*
G01*
X179275000Y-119330121D02*
G75*
G03*
X179425000Y-119480121I150000J0D01*
G01*
X179425000Y-116480121D02*
G75*
G03*
X179275000Y-116630121I0J-150000D01*
G01*
X27517000Y-178310187D02*
X27517000Y-181010187D01*
X27667000Y-178160187D02*
X30767000Y-178160187D01*
X27667000Y-181160187D02*
X30767000Y-181160187D01*
X30917000Y-178310187D02*
X30917000Y-181010187D01*
X27667000Y-178160187D02*
G75*
G03*
X27517000Y-178310187I0J-150000D01*
G01*
X27517000Y-181010187D02*
G75*
G03*
X27667000Y-181160187I150000J0D01*
G01*
X30917000Y-178310187D02*
G75*
G03*
X30767000Y-178160187I-150000J0D01*
G01*
X30767000Y-181160187D02*
G75*
G03*
X30917000Y-181010187I0J150000D01*
G01*
X103075000Y-178310187D02*
X103075000Y-181010187D01*
X103225000Y-178160187D02*
X106325000Y-178160187D01*
X103225000Y-181160187D02*
X106325000Y-181160187D01*
X106475000Y-178310187D02*
X106475000Y-181010187D01*
X103225000Y-178160187D02*
G75*
G03*
X103075000Y-178310187I0J-150000D01*
G01*
X103075000Y-181010187D02*
G75*
G03*
X103225000Y-181160187I150000J0D01*
G01*
X106475000Y-178310187D02*
G75*
G03*
X106325000Y-178160187I-150000J0D01*
G01*
X106325000Y-181160187D02*
G75*
G03*
X106475000Y-181010187I0J150000D01*
G01*
X416117000Y-96070097D02*
X416117000Y-98770097D01*
X416267000Y-95920097D02*
X419367000Y-95920097D01*
X416267000Y-98920097D02*
X419367000Y-98920097D01*
X419517000Y-96070097D02*
X419517000Y-98770097D01*
X416267000Y-95920097D02*
G75*
G03*
X416117000Y-96070097I0J-150000D01*
G01*
X416117000Y-98770097D02*
G75*
G03*
X416267000Y-98920097I150000J0D01*
G01*
X419517000Y-96070097D02*
G75*
G03*
X419367000Y-95920097I-150000J0D01*
G01*
X419367000Y-98920097D02*
G75*
G03*
X419517000Y-98770097I0J150000D01*
G01*
X169750000Y-34390034D02*
X169750000Y-37090034D01*
X169900000Y-34240034D02*
X173000000Y-34240034D01*
X169900000Y-37240034D02*
X173000000Y-37240034D01*
X173150000Y-34390034D02*
X173150000Y-37090034D01*
X169900000Y-34240034D02*
G75*
G03*
X169750000Y-34390034I0J-150000D01*
G01*
X169750000Y-37090034D02*
G75*
G03*
X169900000Y-37240034I150000J0D01*
G01*
X173150000Y-34390034D02*
G75*
G03*
X173000000Y-34240034I-150000J0D01*
G01*
X173000000Y-37240034D02*
G75*
G03*
X173150000Y-37090034I0J150000D01*
G01*
X473267000Y-96070097D02*
X473267000Y-98770097D01*
X473417000Y-95920097D02*
X476517000Y-95920097D01*
X473417000Y-98920097D02*
X476517000Y-98920097D01*
X476667000Y-96070097D02*
X476667000Y-98770097D01*
X473417000Y-95920097D02*
G75*
G03*
X473267000Y-96070097I0J-150000D01*
G01*
X473267000Y-98770097D02*
G75*
G03*
X473417000Y-98920097I150000J0D01*
G01*
X476667000Y-96070097D02*
G75*
G03*
X476517000Y-95920097I-150000J0D01*
G01*
X476517000Y-98920097D02*
G75*
G03*
X476667000Y-98770097I0J150000D01*
G01*
X196962500Y-160450165D02*
X196962500Y-157750165D01*
X196812500Y-160600165D02*
X193712500Y-160600165D01*
X196812500Y-157600165D02*
X193712500Y-157600165D01*
X193562500Y-160450165D02*
X193562500Y-157750165D01*
X196812500Y-160600165D02*
G75*
G03*
X196962500Y-160450165I0J150000D01*
G01*
X196962500Y-157750165D02*
G75*
G03*
X196812500Y-157600165I-150000J0D01*
G01*
X193562500Y-160450165D02*
G75*
G03*
X193712500Y-160600165I150000J0D01*
G01*
X193712500Y-157600165D02*
G75*
G03*
X193562500Y-157750165I0J-150000D01*
G01*
X8467000Y-178310187D02*
X8467000Y-181010187D01*
X8617000Y-178160187D02*
X11717000Y-178160187D01*
X8617000Y-181160187D02*
X11717000Y-181160187D01*
X11867000Y-178310187D02*
X11867000Y-181010187D01*
X8617000Y-178160187D02*
G75*
G03*
X8467000Y-178310187I0J-150000D01*
G01*
X8467000Y-181010187D02*
G75*
G03*
X8617000Y-181160187I150000J0D01*
G01*
X11867000Y-178310187D02*
G75*
G03*
X11717000Y-178160187I-150000J0D01*
G01*
X11717000Y-181160187D02*
G75*
G03*
X11867000Y-181010187I0J150000D01*
G01*
X11867000Y-160450160D02*
X11867000Y-157750160D01*
X11717000Y-160600160D02*
X8617000Y-160600160D01*
X11717000Y-157600160D02*
X8617000Y-157600160D01*
X8467000Y-160450160D02*
X8467000Y-157750160D01*
X11717000Y-160600160D02*
G75*
G03*
X11867000Y-160450160I0J150000D01*
G01*
X11867000Y-157750160D02*
G75*
G03*
X11717000Y-157600160I-150000J0D01*
G01*
X8467000Y-160450160D02*
G75*
G03*
X8617000Y-160600160I150000J0D01*
G01*
X8617000Y-157600160D02*
G75*
G03*
X8467000Y-157750160I0J-150000D01*
G01*
X284050000Y-96070099D02*
X284050000Y-98770099D01*
X284200000Y-95920099D02*
X287300000Y-95920099D01*
X284200000Y-98920099D02*
X287300000Y-98920099D01*
X287450000Y-96070099D02*
X287450000Y-98770099D01*
X284200000Y-95920099D02*
G75*
G03*
X284050000Y-96070099I0J-150000D01*
G01*
X284050000Y-98770099D02*
G75*
G03*
X284200000Y-98920099I150000J0D01*
G01*
X287450000Y-96070099D02*
G75*
G03*
X287300000Y-95920099I-150000J0D01*
G01*
X287300000Y-98920099D02*
G75*
G03*
X287450000Y-98770099I0J150000D01*
G01*
X438567000Y-119330118D02*
X438567000Y-116630118D01*
X438417000Y-119480118D02*
X435317000Y-119480118D01*
X438417000Y-116480118D02*
X435317000Y-116480118D01*
X435167000Y-119330118D02*
X435167000Y-116630118D01*
X438417000Y-119480118D02*
G75*
G03*
X438567000Y-119330118I0J150000D01*
G01*
X438567000Y-116630118D02*
G75*
G03*
X438417000Y-116480118I-150000J0D01*
G01*
X435167000Y-119330118D02*
G75*
G03*
X435317000Y-119480118I150000J0D01*
G01*
X435317000Y-116480118D02*
G75*
G03*
X435167000Y-116630118I0J-150000D01*
G01*
X125525000Y-119330121D02*
X125525000Y-116630121D01*
X125375000Y-119480121D02*
X122275000Y-119480121D01*
X125375000Y-116480121D02*
X122275000Y-116480121D01*
X122125000Y-119330121D02*
X122125000Y-116630121D01*
X125375000Y-119480121D02*
G75*
G03*
X125525000Y-119330121I0J150000D01*
G01*
X125525000Y-116630121D02*
G75*
G03*
X125375000Y-116480121I-150000J0D01*
G01*
X122125000Y-119330121D02*
G75*
G03*
X122275000Y-119480121I150000J0D01*
G01*
X122275000Y-116480121D02*
G75*
G03*
X122125000Y-116630121I0J-150000D01*
G01*
X258875000Y-119330121D02*
X258875000Y-116630121D01*
X258725000Y-119480121D02*
X255625000Y-119480121D01*
X258725000Y-116480121D02*
X255625000Y-116480121D01*
X255475000Y-119330121D02*
X255475000Y-116630121D01*
X258725000Y-119480121D02*
G75*
G03*
X258875000Y-119330121I0J150000D01*
G01*
X258875000Y-116630121D02*
G75*
G03*
X258725000Y-116480121I-150000J0D01*
G01*
X255475000Y-119330121D02*
G75*
G03*
X255625000Y-119480121I150000J0D01*
G01*
X255625000Y-116480121D02*
G75*
G03*
X255475000Y-116630121I0J-150000D01*
G01*
X226900000Y-34390034D02*
X226900000Y-37090034D01*
X227050000Y-34240034D02*
X230150000Y-34240034D01*
X227050000Y-37240034D02*
X230150000Y-37240034D01*
X230300000Y-34390034D02*
X230300000Y-37090034D01*
X227050000Y-34240034D02*
G75*
G03*
X226900000Y-34390034I0J-150000D01*
G01*
X226900000Y-37090034D02*
G75*
G03*
X227050000Y-37240034I150000J0D01*
G01*
X230300000Y-34390034D02*
G75*
G03*
X230150000Y-34240034I-150000J0D01*
G01*
X230150000Y-37240034D02*
G75*
G03*
X230300000Y-37090034I0J150000D01*
G01*
X11867000Y-119330118D02*
X11867000Y-116630118D01*
X11717000Y-119480118D02*
X8617000Y-119480118D01*
X11717000Y-116480118D02*
X8617000Y-116480118D01*
X8467000Y-119330118D02*
X8467000Y-116630118D01*
X11717000Y-119480118D02*
G75*
G03*
X11867000Y-119330118I0J150000D01*
G01*
X11867000Y-116630118D02*
G75*
G03*
X11717000Y-116480118I-150000J0D01*
G01*
X8467000Y-119330118D02*
G75*
G03*
X8617000Y-119480118I150000J0D01*
G01*
X8617000Y-116480118D02*
G75*
G03*
X8467000Y-116630118I0J-150000D01*
G01*
X388183500Y-96070097D02*
X388183500Y-98770097D01*
X388333500Y-95920097D02*
X391433500Y-95920097D01*
X388333500Y-98920097D02*
X391433500Y-98920097D01*
X391583500Y-96070097D02*
X391583500Y-98770097D01*
X388333500Y-95920097D02*
G75*
G03*
X388183500Y-96070097I0J-150000D01*
G01*
X388183500Y-98770097D02*
G75*
G03*
X388333500Y-98920097I150000J0D01*
G01*
X391583500Y-96070097D02*
G75*
G03*
X391433500Y-95920097I-150000J0D01*
G01*
X391433500Y-98920097D02*
G75*
G03*
X391583500Y-98770097I0J150000D01*
G01*
X454217000Y-178310187D02*
X454217000Y-181010187D01*
X454367000Y-178160187D02*
X457467000Y-178160187D01*
X454367000Y-181160187D02*
X457467000Y-181160187D01*
X457617000Y-178310187D02*
X457617000Y-181010187D01*
X454367000Y-178160187D02*
G75*
G03*
X454217000Y-178310187I0J-150000D01*
G01*
X454217000Y-181010187D02*
G75*
G03*
X454367000Y-181160187I150000J0D01*
G01*
X457617000Y-178310187D02*
G75*
G03*
X457467000Y-178160187I-150000J0D01*
G01*
X457467000Y-181160187D02*
G75*
G03*
X457617000Y-181010187I0J150000D01*
G01*
X249350000Y-57650055D02*
X249350000Y-54950055D01*
X249200000Y-57800055D02*
X246100000Y-57800055D01*
X249200000Y-54800055D02*
X246100000Y-54800055D01*
X245950000Y-57650055D02*
X245950000Y-54950055D01*
X249200000Y-57800055D02*
G75*
G03*
X249350000Y-57650055I0J150000D01*
G01*
X249350000Y-54950055D02*
G75*
G03*
X249200000Y-54800055I-150000J0D01*
G01*
X245950000Y-57650055D02*
G75*
G03*
X246100000Y-57800055I150000J0D01*
G01*
X246100000Y-54800055D02*
G75*
G03*
X245950000Y-54950055I0J-150000D01*
G01*
X353483500Y-160450150D02*
X353483500Y-157750150D01*
X353333500Y-160600150D02*
X350233500Y-160600150D01*
X353333500Y-157600150D02*
X350233500Y-157600150D01*
X350083500Y-160450150D02*
X350083500Y-157750150D01*
X353333500Y-160600150D02*
G75*
G03*
X353483500Y-160450150I0J150000D01*
G01*
X353483500Y-157750150D02*
G75*
G03*
X353333500Y-157600150I-150000J0D01*
G01*
X350083500Y-160450150D02*
G75*
G03*
X350233500Y-160600150I150000J0D01*
G01*
X350233500Y-157600150D02*
G75*
G03*
X350083500Y-157750150I0J-150000D01*
G01*
X55450000Y-96070097D02*
X55450000Y-98770097D01*
X55600000Y-95920097D02*
X58700000Y-95920097D01*
X55600000Y-98920097D02*
X58700000Y-98920097D01*
X58850000Y-96070097D02*
X58850000Y-98770097D01*
X55600000Y-95920097D02*
G75*
G03*
X55450000Y-96070097I0J-150000D01*
G01*
X55450000Y-98770097D02*
G75*
G03*
X55600000Y-98920097I150000J0D01*
G01*
X58850000Y-96070097D02*
G75*
G03*
X58700000Y-95920097I-150000J0D01*
G01*
X58700000Y-98920097D02*
G75*
G03*
X58850000Y-98770097I0J150000D01*
G01*
X220775000Y-119330121D02*
X220775000Y-116630121D01*
X220625000Y-119480121D02*
X217525000Y-119480121D01*
X220625000Y-116480121D02*
X217525000Y-116480121D01*
X217375000Y-119330121D02*
X217375000Y-116630121D01*
X220625000Y-119480121D02*
G75*
G03*
X220775000Y-119330121I0J150000D01*
G01*
X220775000Y-116630121D02*
G75*
G03*
X220625000Y-116480121I-150000J0D01*
G01*
X217375000Y-119330121D02*
G75*
G03*
X217525000Y-119480121I150000J0D01*
G01*
X217525000Y-116480121D02*
G75*
G03*
X217375000Y-116630121I0J-150000D01*
G01*
X239825000Y-119330121D02*
X239825000Y-116630121D01*
X239675000Y-119480121D02*
X236575000Y-119480121D01*
X239675000Y-116480121D02*
X236575000Y-116480121D01*
X236425000Y-119330121D02*
X236425000Y-116630121D01*
X239675000Y-119480121D02*
G75*
G03*
X239825000Y-119330121I0J150000D01*
G01*
X239825000Y-116630121D02*
G75*
G03*
X239675000Y-116480121I-150000J0D01*
G01*
X236425000Y-119330121D02*
G75*
G03*
X236575000Y-119480121I150000J0D01*
G01*
X236575000Y-116480121D02*
G75*
G03*
X236425000Y-116630121I0J-150000D01*
G01*
X457617000Y-160450160D02*
X457617000Y-157750160D01*
X457467000Y-160600160D02*
X454367000Y-160600160D01*
X457467000Y-157600160D02*
X454367000Y-157600160D01*
X454217000Y-160450160D02*
X454217000Y-157750160D01*
X457467000Y-160600160D02*
G75*
G03*
X457617000Y-160450160I0J150000D01*
G01*
X457617000Y-157750160D02*
G75*
G03*
X457467000Y-157600160I-150000J0D01*
G01*
X454217000Y-160450160D02*
G75*
G03*
X454367000Y-160600160I150000J0D01*
G01*
X454367000Y-157600160D02*
G75*
G03*
X454217000Y-157750160I0J-150000D01*
G01*
X318406250Y-160450150D02*
X318406250Y-157750150D01*
X318256250Y-160600150D02*
X315156250Y-160600150D01*
X318256250Y-157600150D02*
X315156250Y-157600150D01*
X315006250Y-160450150D02*
X315006250Y-157750150D01*
X318256250Y-160600150D02*
G75*
G03*
X318406250Y-160450150I0J150000D01*
G01*
X318406250Y-157750150D02*
G75*
G03*
X318256250Y-157600150I-150000J0D01*
G01*
X315006250Y-160450150D02*
G75*
G03*
X315156250Y-160600150I150000J0D01*
G01*
X315156250Y-157600150D02*
G75*
G03*
X315006250Y-157750150I0J-150000D01*
G01*
X203087500Y-137190143D02*
X203087500Y-139890143D01*
X203237500Y-137040143D02*
X206337500Y-137040143D01*
X203237500Y-140040143D02*
X206337500Y-140040143D01*
X206487500Y-137190143D02*
X206487500Y-139890143D01*
X203237500Y-137040143D02*
G75*
G03*
X203087500Y-137190143I0J-150000D01*
G01*
X203087500Y-139890143D02*
G75*
G03*
X203237500Y-140040143I150000J0D01*
G01*
X206487500Y-137190143D02*
G75*
G03*
X206337500Y-137040143I-150000J0D01*
G01*
X206337500Y-140040143D02*
G75*
G03*
X206487500Y-139890143I0J150000D01*
G01*
X292212500Y-160450150D02*
X292212500Y-157750150D01*
X292062500Y-160600150D02*
X288962500Y-160600150D01*
X292062500Y-157600150D02*
X288962500Y-157600150D01*
X288812500Y-160450150D02*
X288812500Y-157750150D01*
X292062500Y-160600150D02*
G75*
G03*
X292212500Y-160450150I0J150000D01*
G01*
X292212500Y-157750150D02*
G75*
G03*
X292062500Y-157600150I-150000J0D01*
G01*
X288812500Y-160450150D02*
G75*
G03*
X288962500Y-160600150I150000J0D01*
G01*
X288962500Y-157600150D02*
G75*
G03*
X288812500Y-157750150I0J-150000D01*
G01*
X435167000Y-96070097D02*
X435167000Y-98770097D01*
X435317000Y-95920097D02*
X438417000Y-95920097D01*
X435317000Y-98920097D02*
X438417000Y-98920097D01*
X438567000Y-96070097D02*
X438567000Y-98770097D01*
X435317000Y-95920097D02*
G75*
G03*
X435167000Y-96070097I0J-150000D01*
G01*
X435167000Y-98770097D02*
G75*
G03*
X435317000Y-98920097I150000J0D01*
G01*
X438567000Y-96070097D02*
G75*
G03*
X438417000Y-95920097I-150000J0D01*
G01*
X438417000Y-98920097D02*
G75*
G03*
X438567000Y-98770097I0J150000D01*
G01*
X322150000Y-96070108D02*
X322150000Y-98770108D01*
X322300000Y-95920108D02*
X325400000Y-95920108D01*
X322300000Y-98920108D02*
X325400000Y-98920108D01*
X325550000Y-96070108D02*
X325550000Y-98770108D01*
X322300000Y-95920108D02*
G75*
G03*
X322150000Y-96070108I0J-150000D01*
G01*
X322150000Y-98770108D02*
G75*
G03*
X322300000Y-98920108I150000J0D01*
G01*
X325550000Y-96070108D02*
G75*
G03*
X325400000Y-95920108I-150000J0D01*
G01*
X325400000Y-98920108D02*
G75*
G03*
X325550000Y-98770108I0J150000D01*
G01*
X93550000Y-96070099D02*
X93550000Y-98770099D01*
X93700000Y-95920099D02*
X96800000Y-95920099D01*
X93700000Y-98920099D02*
X96800000Y-98920099D01*
X96950000Y-96070099D02*
X96950000Y-98770099D01*
X93700000Y-95920099D02*
G75*
G03*
X93550000Y-96070099I0J-150000D01*
G01*
X93550000Y-98770099D02*
G75*
G03*
X93700000Y-98920099I150000J0D01*
G01*
X96950000Y-96070099D02*
G75*
G03*
X96800000Y-95920099I-150000J0D01*
G01*
X96800000Y-98920099D02*
G75*
G03*
X96950000Y-98770099I0J150000D01*
G01*
X126887500Y-137190143D02*
X126887500Y-139890143D01*
X127037500Y-137040143D02*
X130137500Y-137040143D01*
X127037500Y-140040143D02*
X130137500Y-140040143D01*
X130287500Y-137190143D02*
X130287500Y-139890143D01*
X127037500Y-137040143D02*
G75*
G03*
X126887500Y-137190143I0J-150000D01*
G01*
X126887500Y-139890143D02*
G75*
G03*
X127037500Y-140040143I150000J0D01*
G01*
X130287500Y-137190143D02*
G75*
G03*
X130137500Y-137040143I-150000J0D01*
G01*
X130137500Y-140040143D02*
G75*
G03*
X130287500Y-139890143I0J150000D01*
G01*
X310243750Y-137190130D02*
X310243750Y-139890130D01*
X310393750Y-137040130D02*
X313493750Y-137040130D01*
X310393750Y-140040130D02*
X313493750Y-140040130D01*
X313643750Y-137190130D02*
X313643750Y-139890130D01*
X310393750Y-137040130D02*
G75*
G03*
X310243750Y-137190130I0J-150000D01*
G01*
X310243750Y-139890130D02*
G75*
G03*
X310393750Y-140040130I150000J0D01*
G01*
X313643750Y-137190130D02*
G75*
G03*
X313493750Y-137040130I-150000J0D01*
G01*
X313493750Y-140040130D02*
G75*
G03*
X313643750Y-139890130I0J150000D01*
G01*
X150700000Y-96070099D02*
X150700000Y-98770099D01*
X150850000Y-95920099D02*
X153950000Y-95920099D01*
X150850000Y-98920099D02*
X153950000Y-98920099D01*
X154100000Y-96070099D02*
X154100000Y-98770099D01*
X150850000Y-95920099D02*
G75*
G03*
X150700000Y-96070099I0J-150000D01*
G01*
X150700000Y-98770099D02*
G75*
G03*
X150850000Y-98920099I150000J0D01*
G01*
X154100000Y-96070099D02*
G75*
G03*
X153950000Y-95920099I-150000J0D01*
G01*
X153950000Y-98920099D02*
G75*
G03*
X154100000Y-98770099I0J150000D01*
G01*
X201725000Y-119330121D02*
X201725000Y-116630121D01*
X201575000Y-119480121D02*
X198475000Y-119480121D01*
X201575000Y-116480121D02*
X198475000Y-116480121D01*
X198325000Y-119330121D02*
X198325000Y-116630121D01*
X201575000Y-119480121D02*
G75*
G03*
X201725000Y-119330121I0J150000D01*
G01*
X201725000Y-116630121D02*
G75*
G03*
X201575000Y-116480121I-150000J0D01*
G01*
X198325000Y-119330121D02*
G75*
G03*
X198475000Y-119480121I150000J0D01*
G01*
X198475000Y-116480121D02*
G75*
G03*
X198325000Y-116630121I0J-150000D01*
G01*
X265000000Y-34390034D02*
X265000000Y-37090034D01*
X265150000Y-34240034D02*
X268250000Y-34240034D01*
X265150000Y-37240034D02*
X268250000Y-37240034D01*
X268400000Y-34390034D02*
X268400000Y-37090034D01*
X265150000Y-34240034D02*
G75*
G03*
X265000000Y-34390034I0J-150000D01*
G01*
X265000000Y-37090034D02*
G75*
G03*
X265150000Y-37240034I150000J0D01*
G01*
X268400000Y-34390034D02*
G75*
G03*
X268250000Y-34240034I-150000J0D01*
G01*
X268250000Y-37240034D02*
G75*
G03*
X268400000Y-37090034I0J150000D01*
G01*
X150700000Y-34390034D02*
X150700000Y-37090034D01*
X150850000Y-34240034D02*
X153950000Y-34240034D01*
X150850000Y-37240034D02*
X153950000Y-37240034D01*
X154100000Y-34390034D02*
X154100000Y-37090034D01*
X150850000Y-34240034D02*
G75*
G03*
X150700000Y-34390034I0J-150000D01*
G01*
X150700000Y-37090034D02*
G75*
G03*
X150850000Y-37240034I150000J0D01*
G01*
X154100000Y-34390034D02*
G75*
G03*
X153950000Y-34240034I-150000J0D01*
G01*
X153950000Y-37240034D02*
G75*
G03*
X154100000Y-37090034I0J150000D01*
G01*
X60212500Y-178310187D02*
X60212500Y-181010187D01*
X60362500Y-178160187D02*
X63462500Y-178160187D01*
X60362500Y-181160187D02*
X63462500Y-181160187D01*
X63612500Y-178310187D02*
X63612500Y-181010187D01*
X60362500Y-178160187D02*
G75*
G03*
X60212500Y-178310187I0J-150000D01*
G01*
X60212500Y-181010187D02*
G75*
G03*
X60362500Y-181160187I150000J0D01*
G01*
X63612500Y-178310187D02*
G75*
G03*
X63462500Y-178160187I-150000J0D01*
G01*
X63462500Y-181160187D02*
G75*
G03*
X63612500Y-181010187I0J150000D01*
G01*
X391583500Y-119330118D02*
X391583500Y-116630118D01*
X391433500Y-119480118D02*
X388333500Y-119480118D01*
X391433500Y-116480118D02*
X388333500Y-116480118D01*
X388183500Y-119330118D02*
X388183500Y-116630118D01*
X391433500Y-119480118D02*
G75*
G03*
X391583500Y-119330118I0J150000D01*
G01*
X391583500Y-116630118D02*
G75*
G03*
X391433500Y-116480118I-150000J0D01*
G01*
X388183500Y-119330118D02*
G75*
G03*
X388333500Y-119480118I150000J0D01*
G01*
X388333500Y-116480118D02*
G75*
G03*
X388183500Y-116630118I0J-150000D01*
G01*
X70756250Y-160450150D02*
X70756250Y-157750150D01*
X70606250Y-160600150D02*
X67506250Y-160600150D01*
X70606250Y-157600150D02*
X67506250Y-157600150D01*
X67356250Y-160450150D02*
X67356250Y-157750150D01*
X70606250Y-160600150D02*
G75*
G03*
X70756250Y-160450150I0J150000D01*
G01*
X70756250Y-157750150D02*
G75*
G03*
X70606250Y-157600150I-150000J0D01*
G01*
X67356250Y-160450150D02*
G75*
G03*
X67506250Y-160600150I150000J0D01*
G01*
X67506250Y-157600150D02*
G75*
G03*
X67356250Y-157750150I0J-150000D01*
G01*
X457617000Y-119330118D02*
X457617000Y-116630118D01*
X457467000Y-119480118D02*
X454367000Y-119480118D01*
X457467000Y-116480118D02*
X454367000Y-116480118D01*
X454217000Y-119330118D02*
X454217000Y-116630118D01*
X457467000Y-119480118D02*
G75*
G03*
X457617000Y-119330118I0J150000D01*
G01*
X457617000Y-116630118D02*
G75*
G03*
X457467000Y-116480118I-150000J0D01*
G01*
X454217000Y-119330118D02*
G75*
G03*
X454367000Y-119480118I150000J0D01*
G01*
X454367000Y-116480118D02*
G75*
G03*
X454217000Y-116630118I0J-150000D01*
G01*
X30917000Y-119330110D02*
X30917000Y-116630110D01*
X30767000Y-119480110D02*
X27667000Y-119480110D01*
X30767000Y-116480110D02*
X27667000Y-116480110D01*
X27517000Y-119330110D02*
X27517000Y-116630110D01*
X30767000Y-119480110D02*
G75*
G03*
X30917000Y-119330110I0J150000D01*
G01*
X30917000Y-116630110D02*
G75*
G03*
X30767000Y-116480110I-150000J0D01*
G01*
X27517000Y-119330110D02*
G75*
G03*
X27667000Y-119480110I150000J0D01*
G01*
X27667000Y-116480110D02*
G75*
G03*
X27517000Y-116630110I0J-150000D01*
G01*
X273162500Y-160450165D02*
X273162500Y-157750165D01*
X273012500Y-160600165D02*
X269912500Y-160600165D01*
X273012500Y-157600165D02*
X269912500Y-157600165D01*
X269762500Y-160450165D02*
X269762500Y-157750165D01*
X273012500Y-160600165D02*
G75*
G03*
X273162500Y-160450165I0J150000D01*
G01*
X273162500Y-157750165D02*
G75*
G03*
X273012500Y-157600165I-150000J0D01*
G01*
X269762500Y-160450165D02*
G75*
G03*
X269912500Y-160600165I150000J0D01*
G01*
X269912500Y-157600165D02*
G75*
G03*
X269762500Y-157750165I0J-150000D01*
G01*
X268400000Y-57650055D02*
X268400000Y-54950055D01*
X268250000Y-57800055D02*
X265150000Y-57800055D01*
X268250000Y-54800055D02*
X265150000Y-54800055D01*
X265000000Y-57650055D02*
X265000000Y-54950055D01*
X268250000Y-57800055D02*
G75*
G03*
X268400000Y-57650055I0J150000D01*
G01*
X268400000Y-54950055D02*
G75*
G03*
X268250000Y-54800055I-150000J0D01*
G01*
X265000000Y-57650055D02*
G75*
G03*
X265150000Y-57800055I150000J0D01*
G01*
X265150000Y-54800055D02*
G75*
G03*
X265000000Y-54950055I0J-150000D01*
G01*
X391583500Y-160450150D02*
X391583500Y-157750150D01*
X391433500Y-160600150D02*
X388333500Y-160600150D01*
X391433500Y-157600150D02*
X388333500Y-157600150D01*
X388183500Y-160450150D02*
X388183500Y-157750150D01*
X391433500Y-160600150D02*
G75*
G03*
X391583500Y-160450150I0J150000D01*
G01*
X391583500Y-157750150D02*
G75*
G03*
X391433500Y-157600150I-150000J0D01*
G01*
X388183500Y-160450150D02*
G75*
G03*
X388333500Y-160600150I150000J0D01*
G01*
X388333500Y-157600150D02*
G75*
G03*
X388183500Y-157750150I0J-150000D01*
G01*
X287450000Y-57650055D02*
X287450000Y-54950055D01*
X287300000Y-57800055D02*
X284200000Y-57800055D01*
X287300000Y-54800055D02*
X284200000Y-54800055D01*
X284050000Y-57650055D02*
X284050000Y-54950055D01*
X287300000Y-57800055D02*
G75*
G03*
X287450000Y-57650055I0J150000D01*
G01*
X287450000Y-54950055D02*
G75*
G03*
X287300000Y-54800055I-150000J0D01*
G01*
X284050000Y-57650055D02*
G75*
G03*
X284200000Y-57800055I150000J0D01*
G01*
X284200000Y-54800055D02*
G75*
G03*
X284050000Y-54950055I0J-150000D01*
G01*
X135050000Y-57650055D02*
X135050000Y-54950055D01*
X134900000Y-57800055D02*
X131800000Y-57800055D01*
X134900000Y-54800055D02*
X131800000Y-54800055D01*
X131650000Y-57650055D02*
X131650000Y-54950055D01*
X134900000Y-57800055D02*
G75*
G03*
X135050000Y-57650055I0J150000D01*
G01*
X135050000Y-54950055D02*
G75*
G03*
X134900000Y-54800055I-150000J0D01*
G01*
X131650000Y-57650055D02*
G75*
G03*
X131800000Y-57800055I150000J0D01*
G01*
X131800000Y-54800055D02*
G75*
G03*
X131650000Y-54950055I0J-150000D01*
G01*
X222137500Y-137190143D02*
X222137500Y-139890143D01*
X222287500Y-137040143D02*
X225387500Y-137040143D01*
X222287500Y-140040143D02*
X225387500Y-140040143D01*
X225537500Y-137190143D02*
X225537500Y-139890143D01*
X222287500Y-137040143D02*
G75*
G03*
X222137500Y-137190143I0J-150000D01*
G01*
X222137500Y-139890143D02*
G75*
G03*
X222287500Y-140040143I150000J0D01*
G01*
X225537500Y-137190143D02*
G75*
G03*
X225387500Y-137040143I-150000J0D01*
G01*
X225387500Y-140040143D02*
G75*
G03*
X225537500Y-139890143I0J150000D01*
G01*
X372533500Y-119330118D02*
X372533500Y-116630118D01*
X372383500Y-119480118D02*
X369283500Y-119480118D01*
X372383500Y-116480118D02*
X369283500Y-116480118D01*
X369133500Y-119330118D02*
X369133500Y-116630118D01*
X372383500Y-119480118D02*
G75*
G03*
X372533500Y-119330118I0J150000D01*
G01*
X372533500Y-116630118D02*
G75*
G03*
X372383500Y-116480118I-150000J0D01*
G01*
X369133500Y-119330118D02*
G75*
G03*
X369283500Y-119480118I150000J0D01*
G01*
X369283500Y-116480118D02*
G75*
G03*
X369133500Y-116630118I0J-150000D01*
G01*
X260237500Y-137190143D02*
X260237500Y-139890143D01*
X260387500Y-137040143D02*
X263487500Y-137040143D01*
X260387500Y-140040143D02*
X263487500Y-140040143D01*
X263637500Y-137190143D02*
X263637500Y-139890143D01*
X260387500Y-137040143D02*
G75*
G03*
X260237500Y-137190143I0J-150000D01*
G01*
X260237500Y-139890143D02*
G75*
G03*
X260387500Y-140040143I150000J0D01*
G01*
X263637500Y-137190143D02*
G75*
G03*
X263487500Y-137040143I-150000J0D01*
G01*
X263487500Y-140040143D02*
G75*
G03*
X263637500Y-139890143I0J150000D01*
G01*
X369133500Y-137190130D02*
X369133500Y-139890130D01*
X369283500Y-137040130D02*
X372383500Y-137040130D01*
X369283500Y-140040130D02*
X372383500Y-140040130D01*
X372533500Y-137190130D02*
X372533500Y-139890130D01*
X369283500Y-137040130D02*
G75*
G03*
X369133500Y-137190130I0J-150000D01*
G01*
X369133500Y-139890130D02*
G75*
G03*
X369283500Y-140040130I150000J0D01*
G01*
X372533500Y-137190130D02*
G75*
G03*
X372383500Y-137040130I-150000J0D01*
G01*
X372383500Y-140040130D02*
G75*
G03*
X372533500Y-139890130I0J150000D01*
G01*
X30917000Y-160450160D02*
X30917000Y-157750160D01*
X30767000Y-160600160D02*
X27667000Y-160600160D01*
X30767000Y-157600160D02*
X27667000Y-157600160D01*
X27517000Y-160450160D02*
X27517000Y-157750160D01*
X30767000Y-160600160D02*
G75*
G03*
X30917000Y-160450160I0J150000D01*
G01*
X30917000Y-157750160D02*
G75*
G03*
X30767000Y-157600160I-150000J0D01*
G01*
X27517000Y-160450160D02*
G75*
G03*
X27667000Y-160600160I150000J0D01*
G01*
X27667000Y-157600160D02*
G75*
G03*
X27517000Y-157750160I0J-150000D01*
G01*
X369133500Y-96070097D02*
X369133500Y-98770097D01*
X369283500Y-95920097D02*
X372383500Y-95920097D01*
X369283500Y-98920097D02*
X372383500Y-98920097D01*
X372533500Y-96070097D02*
X372533500Y-98770097D01*
X369283500Y-95920097D02*
G75*
G03*
X369133500Y-96070097I0J-150000D01*
G01*
X369133500Y-98770097D02*
G75*
G03*
X369283500Y-98920097I150000J0D01*
G01*
X372533500Y-96070097D02*
G75*
G03*
X372383500Y-95920097I-150000J0D01*
G01*
X372383500Y-98920097D02*
G75*
G03*
X372533500Y-98770097I0J150000D01*
G01*
X476667000Y-170730176D02*
X476667000Y-168030176D01*
X476517000Y-170880176D02*
X473417000Y-170880176D01*
X476517000Y-167880176D02*
X473417000Y-167880176D01*
X473267000Y-170730176D02*
X473267000Y-168030176D01*
X476517000Y-170880176D02*
G75*
G03*
X476667000Y-170730176I0J150000D01*
G01*
X476667000Y-168030176D02*
G75*
G03*
X476517000Y-167880176I-150000J0D01*
G01*
X473267000Y-170730176D02*
G75*
G03*
X473417000Y-170880176I150000J0D01*
G01*
X473417000Y-167880176D02*
G75*
G03*
X473267000Y-168030176I0J-150000D01*
G01*
X279287500Y-137190143D02*
X279287500Y-139890143D01*
X279437500Y-137040143D02*
X282537500Y-137040143D01*
X279437500Y-140040143D02*
X282537500Y-140040143D01*
X282687500Y-137190143D02*
X282687500Y-139890143D01*
X279437500Y-137040143D02*
G75*
G03*
X279287500Y-137190143I0J-150000D01*
G01*
X279287500Y-139890143D02*
G75*
G03*
X279437500Y-140040143I150000J0D01*
G01*
X282687500Y-137190143D02*
G75*
G03*
X282537500Y-137040143I-150000J0D01*
G01*
X282537500Y-140040143D02*
G75*
G03*
X282687500Y-139890143I0J150000D01*
G01*
X454217000Y-137190139D02*
X454217000Y-139890139D01*
X454367000Y-137040139D02*
X457467000Y-137040139D01*
X454367000Y-140040139D02*
X457467000Y-140040139D01*
X457617000Y-137190139D02*
X457617000Y-139890139D01*
X454367000Y-137040139D02*
G75*
G03*
X454217000Y-137190139I0J-150000D01*
G01*
X454217000Y-139890139D02*
G75*
G03*
X454367000Y-140040139I150000J0D01*
G01*
X457617000Y-137190139D02*
G75*
G03*
X457467000Y-137040139I-150000J0D01*
G01*
X457467000Y-140040139D02*
G75*
G03*
X457617000Y-139890139I0J150000D01*
G01*
X8467000Y-137190139D02*
X8467000Y-139890139D01*
X8617000Y-137040139D02*
X11717000Y-137040139D01*
X8617000Y-140040139D02*
X11717000Y-140040139D01*
X11867000Y-137190139D02*
X11867000Y-139890139D01*
X8617000Y-137040139D02*
G75*
G03*
X8467000Y-137190139I0J-150000D01*
G01*
X8467000Y-139890139D02*
G75*
G03*
X8617000Y-140040139I150000J0D01*
G01*
X11867000Y-137190139D02*
G75*
G03*
X11717000Y-137040139I-150000J0D01*
G01*
X11717000Y-140040139D02*
G75*
G03*
X11867000Y-139890139I0J150000D01*
G01*
X277925000Y-119330121D02*
X277925000Y-116630121D01*
X277775000Y-119480121D02*
X274675000Y-119480121D01*
X277775000Y-116480121D02*
X274675000Y-116480121D01*
X274525000Y-119330121D02*
X274525000Y-116630121D01*
X277775000Y-119480121D02*
G75*
G03*
X277925000Y-119330121I0J150000D01*
G01*
X277925000Y-116630121D02*
G75*
G03*
X277775000Y-116480121I-150000J0D01*
G01*
X274525000Y-119330121D02*
G75*
G03*
X274675000Y-119480121I150000J0D01*
G01*
X274675000Y-116480121D02*
G75*
G03*
X274525000Y-116630121I0J-150000D01*
G01*
X241187500Y-137190143D02*
X241187500Y-139890143D01*
X241337500Y-137040143D02*
X244437500Y-137040143D01*
X241337500Y-140040143D02*
X244437500Y-140040143D01*
X244587500Y-137190143D02*
X244587500Y-139890143D01*
X241337500Y-137040143D02*
G75*
G03*
X241187500Y-137190143I0J-150000D01*
G01*
X241187500Y-139890143D02*
G75*
G03*
X241337500Y-140040143I150000J0D01*
G01*
X244587500Y-137190143D02*
G75*
G03*
X244437500Y-137040143I-150000J0D01*
G01*
X244437500Y-140040143D02*
G75*
G03*
X244587500Y-139890143I0J150000D01*
G01*
X154100000Y-57650055D02*
X154100000Y-54950055D01*
X153950000Y-57800055D02*
X150850000Y-57800055D01*
X153950000Y-54800055D02*
X150850000Y-54800055D01*
X150700000Y-57650055D02*
X150700000Y-54950055D01*
X153950000Y-57800055D02*
G75*
G03*
X154100000Y-57650055I0J150000D01*
G01*
X154100000Y-54950055D02*
G75*
G03*
X153950000Y-54800055I-150000J0D01*
G01*
X150700000Y-57650055D02*
G75*
G03*
X150850000Y-57800055I150000J0D01*
G01*
X150850000Y-54800055D02*
G75*
G03*
X150700000Y-54950055I0J-150000D01*
G01*
X211250000Y-57650055D02*
X211250000Y-54950055D01*
X211100000Y-57800055D02*
X208000000Y-57800055D01*
X211100000Y-54800055D02*
X208000000Y-54800055D01*
X207850000Y-57650055D02*
X207850000Y-54950055D01*
X211100000Y-57800055D02*
G75*
G03*
X211250000Y-57650055I0J150000D01*
G01*
X211250000Y-54950055D02*
G75*
G03*
X211100000Y-54800055I-150000J0D01*
G01*
X207850000Y-57650055D02*
G75*
G03*
X208000000Y-57800055I150000J0D01*
G01*
X208000000Y-54800055D02*
G75*
G03*
X207850000Y-54950055I0J-150000D01*
G01*
X473267000Y-126910132D02*
X473267000Y-129610132D01*
X473417000Y-126760132D02*
X476517000Y-126760132D01*
X473417000Y-129760132D02*
X476517000Y-129760132D01*
X476667000Y-126910132D02*
X476667000Y-129610132D01*
X473417000Y-126760132D02*
G75*
G03*
X473267000Y-126910132I0J-150000D01*
G01*
X473267000Y-129610132D02*
G75*
G03*
X473417000Y-129760132I150000J0D01*
G01*
X476667000Y-126910132D02*
G75*
G03*
X476517000Y-126760132I-150000J0D01*
G01*
X476517000Y-129760132D02*
G75*
G03*
X476667000Y-129610132I0J150000D01*
G01*
X254112500Y-160450165D02*
X254112500Y-157750165D01*
X253962500Y-160600165D02*
X250862500Y-160600165D01*
X253962500Y-157600165D02*
X250862500Y-157600165D01*
X250712500Y-160450165D02*
X250712500Y-157750165D01*
X253962500Y-160600165D02*
G75*
G03*
X254112500Y-160450165I0J150000D01*
G01*
X254112500Y-157750165D02*
G75*
G03*
X253962500Y-157600165I-150000J0D01*
G01*
X250712500Y-160450165D02*
G75*
G03*
X250862500Y-160600165I150000J0D01*
G01*
X250862500Y-157600165D02*
G75*
G03*
X250712500Y-157750165I0J-150000D01*
G01*
X188800000Y-178310170D02*
X188800000Y-181010170D01*
X188950000Y-178160170D02*
X192050000Y-178160170D01*
X188950000Y-181160170D02*
X192050000Y-181160170D01*
X192200000Y-178310170D02*
X192200000Y-181010170D01*
X188950000Y-178160170D02*
G75*
G03*
X188800000Y-178310170I0J-150000D01*
G01*
X188800000Y-181010170D02*
G75*
G03*
X188950000Y-181160170I150000J0D01*
G01*
X192200000Y-178310170D02*
G75*
G03*
X192050000Y-178160170I-150000J0D01*
G01*
X192050000Y-181160170D02*
G75*
G03*
X192200000Y-181010170I0J150000D01*
G01*
X207850000Y-34390034D02*
X207850000Y-37090034D01*
X208000000Y-34240034D02*
X211100000Y-34240034D01*
X208000000Y-37240034D02*
X211100000Y-37240034D01*
X211250000Y-34390034D02*
X211250000Y-37090034D01*
X208000000Y-34240034D02*
G75*
G03*
X207850000Y-34390034I0J-150000D01*
G01*
X207850000Y-37090034D02*
G75*
G03*
X208000000Y-37240034I150000J0D01*
G01*
X211250000Y-34390034D02*
G75*
G03*
X211100000Y-34240034I-150000J0D01*
G01*
X211100000Y-37240034D02*
G75*
G03*
X211250000Y-37090034I0J150000D01*
G01*
X27517000Y-137190139D02*
X27517000Y-139890139D01*
X27667000Y-137040139D02*
X30767000Y-137040139D01*
X27667000Y-140040139D02*
X30767000Y-140040139D01*
X30917000Y-137190139D02*
X30917000Y-139890139D01*
X27667000Y-137040139D02*
G75*
G03*
X27517000Y-137190139I0J-150000D01*
G01*
X27517000Y-139890139D02*
G75*
G03*
X27667000Y-140040139I150000J0D01*
G01*
X30917000Y-137190139D02*
G75*
G03*
X30767000Y-137040139I-150000J0D01*
G01*
X30767000Y-140040139D02*
G75*
G03*
X30917000Y-139890139I0J150000D01*
G01*
X425642000Y-178310181D02*
X425642000Y-181010181D01*
X425792000Y-178160181D02*
X428892000Y-178160181D01*
X425792000Y-181160181D02*
X428892000Y-181160181D01*
X429042000Y-178310181D02*
X429042000Y-181010181D01*
X425792000Y-178160181D02*
G75*
G03*
X425642000Y-178310181I0J-150000D01*
G01*
X425642000Y-181010181D02*
G75*
G03*
X425792000Y-181160181I150000J0D01*
G01*
X429042000Y-178310181D02*
G75*
G03*
X428892000Y-178160181I-150000J0D01*
G01*
X428892000Y-181160181D02*
G75*
G03*
X429042000Y-181010181I0J150000D01*
G01*
X416117000Y-137190139D02*
X416117000Y-139890139D01*
X416267000Y-137040139D02*
X419367000Y-137040139D01*
X416267000Y-140040139D02*
X419367000Y-140040139D01*
X419517000Y-137190139D02*
X419517000Y-139890139D01*
X416267000Y-137040139D02*
G75*
G03*
X416117000Y-137190139I0J-150000D01*
G01*
X416117000Y-139890139D02*
G75*
G03*
X416267000Y-140040139I150000J0D01*
G01*
X419517000Y-137190139D02*
G75*
G03*
X419367000Y-137040139I-150000J0D01*
G01*
X419367000Y-140040139D02*
G75*
G03*
X419517000Y-139890139I0J150000D01*
G01*
X369133500Y-178310188D02*
X369133500Y-181010188D01*
X369283500Y-178160188D02*
X372383500Y-178160188D01*
X369283500Y-181160188D02*
X372383500Y-181160188D01*
X372533500Y-178310188D02*
X372533500Y-181010188D01*
X369283500Y-178160188D02*
G75*
G03*
X369133500Y-178310188I0J-150000D01*
G01*
X369133500Y-181010188D02*
G75*
G03*
X369283500Y-181160188I150000J0D01*
G01*
X372533500Y-178310188D02*
G75*
G03*
X372383500Y-178160188I-150000J0D01*
G01*
X372383500Y-181160188D02*
G75*
G03*
X372533500Y-181010188I0J150000D01*
G01*
X230300000Y-57650055D02*
X230300000Y-54950055D01*
X230150000Y-57800055D02*
X227050000Y-57800055D01*
X230150000Y-54800055D02*
X227050000Y-54800055D01*
X226900000Y-57650055D02*
X226900000Y-54950055D01*
X230150000Y-57800055D02*
G75*
G03*
X230300000Y-57650055I0J150000D01*
G01*
X230300000Y-54950055D02*
G75*
G03*
X230150000Y-54800055I-150000J0D01*
G01*
X226900000Y-57650055D02*
G75*
G03*
X227050000Y-57800055I150000J0D01*
G01*
X227050000Y-54800055D02*
G75*
G03*
X226900000Y-54950055I0J-150000D01*
G01*
X303100000Y-96070099D02*
X303100000Y-98770099D01*
X303250000Y-95920099D02*
X306350000Y-95920099D01*
X303250000Y-98920099D02*
X306350000Y-98920099D01*
X306500000Y-96070099D02*
X306500000Y-98770099D01*
X303250000Y-95920099D02*
G75*
G03*
X303100000Y-96070099I0J-150000D01*
G01*
X303100000Y-98770099D02*
G75*
G03*
X303250000Y-98920099I150000J0D01*
G01*
X306500000Y-96070099D02*
G75*
G03*
X306350000Y-95920099I-150000J0D01*
G01*
X306350000Y-98920099D02*
G75*
G03*
X306500000Y-98770099I0J150000D01*
G01*
X112600000Y-34390034D02*
X112600000Y-37090034D01*
X112750000Y-34240034D02*
X115850000Y-34240034D01*
X112750000Y-37240034D02*
X115850000Y-37240034D01*
X116000000Y-34390034D02*
X116000000Y-37090034D01*
X112750000Y-34240034D02*
G75*
G03*
X112600000Y-34390034I0J-150000D01*
G01*
X112600000Y-37090034D02*
G75*
G03*
X112750000Y-37240034I150000J0D01*
G01*
X116000000Y-34390034D02*
G75*
G03*
X115850000Y-34240034I-150000J0D01*
G01*
X115850000Y-37240034D02*
G75*
G03*
X116000000Y-37090034I0J150000D01*
G01*
X96950000Y-57650055D02*
X96950000Y-54950055D01*
X96800000Y-57800055D02*
X93700000Y-57800055D01*
X96800000Y-54800055D02*
X93700000Y-54800055D01*
X93550000Y-57650055D02*
X93550000Y-54950055D01*
X96800000Y-57800055D02*
G75*
G03*
X96950000Y-57650055I0J150000D01*
G01*
X96950000Y-54950055D02*
G75*
G03*
X96800000Y-54800055I-150000J0D01*
G01*
X93550000Y-57650055D02*
G75*
G03*
X93700000Y-57800055I150000J0D01*
G01*
X93700000Y-54800055D02*
G75*
G03*
X93550000Y-54950055I0J-150000D01*
G01*
X74500000Y-34390034D02*
X74500000Y-37090034D01*
X74650000Y-34240034D02*
X77750000Y-34240034D01*
X74650000Y-37240034D02*
X77750000Y-37240034D01*
X77900000Y-34390034D02*
X77900000Y-37090034D01*
X74650000Y-34240034D02*
G75*
G03*
X74500000Y-34390034I0J-150000D01*
G01*
X74500000Y-37090034D02*
G75*
G03*
X74650000Y-37240034I150000J0D01*
G01*
X77900000Y-34390034D02*
G75*
G03*
X77750000Y-34240034I-150000J0D01*
G01*
X77750000Y-37240034D02*
G75*
G03*
X77900000Y-37090034I0J150000D01*
G01*
X112600000Y-96070099D02*
X112600000Y-98770099D01*
X112750000Y-95920099D02*
X115850000Y-95920099D01*
X112750000Y-98920099D02*
X115850000Y-98920099D01*
X116000000Y-96070099D02*
X116000000Y-98770099D01*
X112750000Y-95920099D02*
G75*
G03*
X112600000Y-96070099I0J-150000D01*
G01*
X112600000Y-98770099D02*
G75*
G03*
X112750000Y-98920099I150000J0D01*
G01*
X116000000Y-96070099D02*
G75*
G03*
X115850000Y-95920099I-150000J0D01*
G01*
X115850000Y-98920099D02*
G75*
G03*
X116000000Y-98770099I0J150000D01*
G01*
X184037500Y-137190143D02*
X184037500Y-139890143D01*
X184187500Y-137040143D02*
X187287500Y-137040143D01*
X184187500Y-140040143D02*
X187287500Y-140040143D01*
X187437500Y-137190143D02*
X187437500Y-139890143D01*
X184187500Y-137040143D02*
G75*
G03*
X184037500Y-137190143I0J-150000D01*
G01*
X184037500Y-139890143D02*
G75*
G03*
X184187500Y-140040143I150000J0D01*
G01*
X187437500Y-137190143D02*
G75*
G03*
X187287500Y-137040143I-150000J0D01*
G01*
X187287500Y-140040143D02*
G75*
G03*
X187437500Y-139890143I0J150000D01*
G01*
X296975000Y-119330121D02*
X296975000Y-116630121D01*
X296825000Y-119480121D02*
X293725000Y-119480121D01*
X296825000Y-116480121D02*
X293725000Y-116480121D01*
X293575000Y-119330121D02*
X293575000Y-116630121D01*
X296825000Y-119480121D02*
G75*
G03*
X296975000Y-119330121I0J150000D01*
G01*
X296975000Y-116630121D02*
G75*
G03*
X296825000Y-116480121I-150000J0D01*
G01*
X293575000Y-119330121D02*
G75*
G03*
X293725000Y-119480121I150000J0D01*
G01*
X293725000Y-116480121D02*
G75*
G03*
X293575000Y-116630121I0J-150000D01*
G01*
X245950000Y-34390034D02*
X245950000Y-37090034D01*
X246100000Y-34240034D02*
X249200000Y-34240034D01*
X246100000Y-37240034D02*
X249200000Y-37240034D01*
X249350000Y-34390034D02*
X249350000Y-37090034D01*
X246100000Y-34240034D02*
G75*
G03*
X245950000Y-34390034I0J-150000D01*
G01*
X245950000Y-37090034D02*
G75*
G03*
X246100000Y-37240034I150000J0D01*
G01*
X249350000Y-34390034D02*
G75*
G03*
X249200000Y-34240034I-150000J0D01*
G01*
X249200000Y-37240034D02*
G75*
G03*
X249350000Y-37090034I0J150000D01*
G01*
X74500000Y-96070099D02*
X74500000Y-98770099D01*
X74650000Y-95920099D02*
X77750000Y-95920099D01*
X74650000Y-98920099D02*
X77750000Y-98920099D01*
X77900000Y-96070099D02*
X77900000Y-98770099D01*
X74650000Y-95920099D02*
G75*
G03*
X74500000Y-96070099I0J-150000D01*
G01*
X74500000Y-98770099D02*
G75*
G03*
X74650000Y-98920099I150000J0D01*
G01*
X77900000Y-96070099D02*
G75*
G03*
X77750000Y-95920099I-150000J0D01*
G01*
X77750000Y-98920099D02*
G75*
G03*
X77900000Y-98770099I0J150000D01*
G01*
X68150000Y-130600000D02*
X70850000Y-130600000D01*
X68000000Y-130450000D02*
X68000000Y-127350000D01*
X71000000Y-130450000D02*
X71000000Y-127350000D01*
X68150000Y-127200000D02*
X70850000Y-127200000D01*
X68000000Y-130450000D02*
G75*
G03*
X68150000Y-130600000I150000J0D01*
G01*
X70850000Y-130600000D02*
G75*
G03*
X71000000Y-130450000I0J150000D01*
G01*
X68150000Y-127200000D02*
G75*
G03*
X68000000Y-127350000I0J-150000D01*
G01*
X71000000Y-127350000D02*
G75*
G03*
X70850000Y-127200000I-150000J0D01*
G01*
X245950000Y-96070099D02*
X245950000Y-98770099D01*
X246100000Y-95920099D02*
X249200000Y-95920099D01*
X246100000Y-98920099D02*
X249200000Y-98920099D01*
X249350000Y-96070099D02*
X249350000Y-98770099D01*
X246100000Y-95920099D02*
G75*
G03*
X245950000Y-96070099I0J-150000D01*
G01*
X245950000Y-98770099D02*
G75*
G03*
X246100000Y-98920099I150000J0D01*
G01*
X249350000Y-96070099D02*
G75*
G03*
X249200000Y-95920099I-150000J0D01*
G01*
X249200000Y-98920099D02*
G75*
G03*
X249350000Y-98770099I0J150000D01*
G01*
X207850000Y-96070099D02*
X207850000Y-98770099D01*
X208000000Y-95920099D02*
X211100000Y-95920099D01*
X208000000Y-98920099D02*
X211100000Y-98920099D01*
X211250000Y-96070099D02*
X211250000Y-98770099D01*
X208000000Y-95920099D02*
G75*
G03*
X207850000Y-96070099I0J-150000D01*
G01*
X207850000Y-98770099D02*
G75*
G03*
X208000000Y-98920099I150000J0D01*
G01*
X211250000Y-96070099D02*
G75*
G03*
X211100000Y-95920099I-150000J0D01*
G01*
X211100000Y-98920099D02*
G75*
G03*
X211250000Y-98770099I0J150000D01*
G01*
X107837500Y-137190143D02*
X107837500Y-139890143D01*
X107987500Y-137040143D02*
X111087500Y-137040143D01*
X107987500Y-140040143D02*
X111087500Y-140040143D01*
X111237500Y-137190143D02*
X111237500Y-139890143D01*
X107987500Y-137040143D02*
G75*
G03*
X107837500Y-137190143I0J-150000D01*
G01*
X107837500Y-139890143D02*
G75*
G03*
X107987500Y-140040143I150000J0D01*
G01*
X111237500Y-137190143D02*
G75*
G03*
X111087500Y-137040143I-150000J0D01*
G01*
X111087500Y-140040143D02*
G75*
G03*
X111237500Y-139890143I0J150000D01*
G01*
X106475000Y-119330121D02*
X106475000Y-116630121D01*
X106325000Y-119480121D02*
X103225000Y-119480121D01*
X106325000Y-116480121D02*
X103225000Y-116480121D01*
X103075000Y-119330121D02*
X103075000Y-116630121D01*
X106325000Y-119480121D02*
G75*
G03*
X106475000Y-119330121I0J150000D01*
G01*
X106475000Y-116630121D02*
G75*
G03*
X106325000Y-116480121I-150000J0D01*
G01*
X103075000Y-119330121D02*
G75*
G03*
X103225000Y-119480121I150000J0D01*
G01*
X103225000Y-116480121D02*
G75*
G03*
X103075000Y-116630121I0J-150000D01*
G01*
X255475000Y-178310187D02*
X255475000Y-181010187D01*
X255625000Y-178160187D02*
X258725000Y-178160187D01*
X255625000Y-181160187D02*
X258725000Y-181160187D01*
X258875000Y-178310187D02*
X258875000Y-181010187D01*
X255625000Y-178160187D02*
G75*
G03*
X255475000Y-178310187I0J-150000D01*
G01*
X255475000Y-181010187D02*
G75*
G03*
X255625000Y-181160187I150000J0D01*
G01*
X258875000Y-178310187D02*
G75*
G03*
X258725000Y-178160187I-150000J0D01*
G01*
X258725000Y-181160187D02*
G75*
G03*
X258875000Y-181010187I0J150000D01*
G01*
X77900000Y-57650055D02*
X77900000Y-54950055D01*
X77750000Y-57800055D02*
X74650000Y-57800055D01*
X77750000Y-54800055D02*
X74650000Y-54800055D01*
X74500000Y-57650055D02*
X74500000Y-54950055D01*
X77750000Y-57800055D02*
G75*
G03*
X77900000Y-57650055I0J150000D01*
G01*
X77900000Y-54950055D02*
G75*
G03*
X77750000Y-54800055I-150000J0D01*
G01*
X74500000Y-57650055D02*
G75*
G03*
X74650000Y-57800055I150000J0D01*
G01*
X74650000Y-54800055D02*
G75*
G03*
X74500000Y-54950055I0J-150000D01*
G01*
X101712500Y-160450165D02*
X101712500Y-157750165D01*
X101562500Y-160600165D02*
X98462500Y-160600165D01*
X101562500Y-157600165D02*
X98462500Y-157600165D01*
X98312500Y-160450165D02*
X98312500Y-157750165D01*
X101562500Y-160600165D02*
G75*
G03*
X101712500Y-160450165I0J150000D01*
G01*
X101712500Y-157750165D02*
G75*
G03*
X101562500Y-157600165I-150000J0D01*
G01*
X98312500Y-160450165D02*
G75*
G03*
X98462500Y-160600165I150000J0D01*
G01*
X98462500Y-157600165D02*
G75*
G03*
X98312500Y-157750165I0J-150000D01*
G01*
X320787500Y-119330121D02*
X320787500Y-116630121D01*
X320637500Y-119480121D02*
X317537500Y-119480121D01*
X320637500Y-116480121D02*
X317537500Y-116480121D01*
X317387500Y-119330121D02*
X317387500Y-116630121D01*
X320637500Y-119480121D02*
G75*
G03*
X320787500Y-119330121I0J150000D01*
G01*
X320787500Y-116630121D02*
G75*
G03*
X320637500Y-116480121I-150000J0D01*
G01*
X317387500Y-119330121D02*
G75*
G03*
X317537500Y-119480121I150000J0D01*
G01*
X317537500Y-116480121D02*
G75*
G03*
X317387500Y-116630121I0J-150000D01*
G01*
X284050000Y-34390034D02*
X284050000Y-37090034D01*
X284200000Y-34240034D02*
X287300000Y-34240034D01*
X284200000Y-37240034D02*
X287300000Y-37240034D01*
X287450000Y-34390034D02*
X287450000Y-37090034D01*
X284200000Y-34240034D02*
G75*
G03*
X284050000Y-34390034I0J-150000D01*
G01*
X284050000Y-37090034D02*
G75*
G03*
X284200000Y-37240034I150000J0D01*
G01*
X287450000Y-34390034D02*
G75*
G03*
X287300000Y-34240034I-150000J0D01*
G01*
X287300000Y-37240034D02*
G75*
G03*
X287450000Y-37090034I0J150000D01*
G01*
X454217000Y-96070097D02*
X454217000Y-98770097D01*
X454367000Y-95920097D02*
X457467000Y-95920097D01*
X454367000Y-98920097D02*
X457467000Y-98920097D01*
X457617000Y-96070097D02*
X457617000Y-98770097D01*
X454367000Y-95920097D02*
G75*
G03*
X454217000Y-96070097I0J-150000D01*
G01*
X454217000Y-98770097D02*
G75*
G03*
X454367000Y-98920097I150000J0D01*
G01*
X457617000Y-96070097D02*
G75*
G03*
X457467000Y-95920097I-150000J0D01*
G01*
X457467000Y-98920097D02*
G75*
G03*
X457617000Y-98770097I0J150000D01*
G01*
X63612500Y-119330121D02*
X63612500Y-116630121D01*
X63462500Y-119480121D02*
X60362500Y-119480121D01*
X63462500Y-116480121D02*
X60362500Y-116480121D01*
X60212500Y-119330121D02*
X60212500Y-116630121D01*
X63462500Y-119480121D02*
G75*
G03*
X63612500Y-119330121I0J150000D01*
G01*
X63612500Y-116630121D02*
G75*
G03*
X63462500Y-116480121I-150000J0D01*
G01*
X60212500Y-119330121D02*
G75*
G03*
X60362500Y-119480121I150000J0D01*
G01*
X60362500Y-116480121D02*
G75*
G03*
X60212500Y-116630121I0J-150000D01*
G01*
X235062500Y-160450165D02*
X235062500Y-157750165D01*
X234912500Y-160600165D02*
X231812500Y-160600165D01*
X234912500Y-157600165D02*
X231812500Y-157600165D01*
X231662500Y-160450165D02*
X231662500Y-157750165D01*
X234912500Y-160600165D02*
G75*
G03*
X235062500Y-160450165I0J150000D01*
G01*
X235062500Y-157750165D02*
G75*
G03*
X234912500Y-157600165I-150000J0D01*
G01*
X231662500Y-160450165D02*
G75*
G03*
X231812500Y-160600165I150000J0D01*
G01*
X231812500Y-157600165D02*
G75*
G03*
X231662500Y-157750165I0J-150000D01*
G01*
X55875000Y-136675000D02*
X53175000Y-136675000D01*
X56025000Y-136825000D02*
X56025000Y-139925000D01*
X53025000Y-136825000D02*
X53025000Y-139925000D01*
X55875000Y-140075000D02*
X53175000Y-140075000D01*
X56025000Y-136825000D02*
G75*
G03*
X55875000Y-136675000I-150000J0D01*
G01*
X53175000Y-136675000D02*
G75*
G03*
X53025000Y-136825000I0J-150000D01*
G01*
X55875000Y-140075000D02*
G75*
G03*
X56025000Y-139925000I0J150000D01*
G01*
X53025000Y-139925000D02*
G75*
G03*
X53175000Y-140075000I150000J0D01*
G01*
X188800000Y-96070099D02*
X188800000Y-98770099D01*
X188950000Y-95920099D02*
X192050000Y-95920099D01*
X188950000Y-98920099D02*
X192050000Y-98920099D01*
X192200000Y-96070099D02*
X192200000Y-98770099D01*
X188950000Y-95920099D02*
G75*
G03*
X188800000Y-96070099I0J-150000D01*
G01*
X188800000Y-98770099D02*
G75*
G03*
X188950000Y-98920099I150000J0D01*
G01*
X192200000Y-96070099D02*
G75*
G03*
X192050000Y-95920099I-150000J0D01*
G01*
X192050000Y-98920099D02*
G75*
G03*
X192200000Y-98770099I0J150000D01*
G01*
X437043000Y-26115000D02*
G75*
G03*
X434843000Y-26115000I-1100000J0D01*
G01*
X434843000Y-26115000D02*
G75*
G03*
X437043000Y-26115000I1100000J0D01*
G01*
X431043000Y-36115000D02*
G75*
G03*
X428843000Y-36115000I-1100000J0D01*
G01*
X428843000Y-36115000D02*
G75*
G03*
X431043000Y-36115000I1100000J0D01*
G01*
M02*
