M48
; DRILL file {KiCad 7.0.11+dfsg-1build4} date Wed 03 Jun 2026 04:08:07 PM EDT
; FORMAT={-:-/ absolute / metric / decimal}
; #@! TF.CreationDate,2026-06-03T16:08:07-04:00
; #@! TF.GenerationSoftware,Kicad,Pcbnew,7.0.11+dfsg-1build4
; #@! TF.FileFunction,NonPlated,1,2,NPTH
FMAT,2
METRIC
; #@! TA.AperFunction,NonPlated,NPTH,ComponentDrill
T1C1.750
; #@! TA.AperFunction,NonPlated,NPTH,ComponentDrill
T2C3.000
; #@! TA.AperFunction,NonPlated,NPTH,ComponentDrill
T3C3.048
; #@! TA.AperFunction,NonPlated,NPTH,ComponentDrill
T4C3.988
; #@! TA.AperFunction,NonPlated,NPTH,ComponentDrill
T5C4.500
%
G90
G05
T1
X5.087Y-92.52
X5.087Y-113.08
X5.087Y-133.64
X5.087Y-154.2
X5.087Y-174.76
X15.247Y-92.52
X15.247Y-113.08
X15.247Y-133.64
X15.247Y-154.2
X15.247Y-174.76
X24.137Y-92.52
X24.137Y-113.08
X24.137Y-133.64
X24.137Y-154.2
X24.137Y-174.76
X34.297Y-92.52
X34.297Y-113.08
X34.297Y-133.64
X34.297Y-154.2
X34.297Y-174.76
X52.07Y-92.52
X54.451Y-133.64
X56.832Y-113.08
X56.832Y-174.76
X59.214Y-133.64
X62.23Y-92.52
X63.976Y-154.2
X64.611Y-133.64
X66.992Y-113.08
X66.992Y-174.76
X69.374Y-133.64
X71.12Y-30.84
X71.12Y-51.4
X71.12Y-92.52
X74.136Y-154.2
X80.645Y-113.08
X81.28Y-30.84
X81.28Y-51.4
X81.28Y-92.52
X85.407Y-133.64
X90.17Y-30.84
X90.17Y-51.4
X90.17Y-92.52
X90.805Y-113.08
X94.932Y-154.2
X95.567Y-133.64
X99.695Y-113.08
X99.695Y-174.76
X100.33Y-30.84
X100.33Y-51.4
X100.33Y-92.52
X104.457Y-133.64
X105.093Y-154.2
X109.22Y-30.84
X109.22Y-51.4
X109.22Y-92.52
X109.855Y-113.08
X109.855Y-174.76
X113.983Y-154.2
X114.617Y-133.64
X118.745Y-113.08
X118.745Y-174.76
X119.38Y-30.84
X119.38Y-51.4
X119.38Y-92.52
X123.507Y-133.64
X124.142Y-154.2
X128.27Y-30.84
X128.27Y-51.4
X128.27Y-92.52
X128.905Y-113.08
X128.905Y-174.76
X133.032Y-154.2
X133.667Y-133.64
X137.795Y-113.08
X138.43Y-30.84
X138.43Y-51.4
X138.43Y-92.52
X142.558Y-133.64
X143.192Y-154.2
X147.32Y-30.84
X147.32Y-51.4
X147.32Y-92.52
X147.955Y-113.08
X152.082Y-154.2
X152.718Y-133.64
X156.845Y-113.08
X157.48Y-30.84
X157.48Y-51.4
X157.48Y-92.52
X161.607Y-133.64
X162.243Y-154.2
X166.37Y-30.84
X166.37Y-51.4
X166.37Y-92.52
X167.005Y-113.08
X171.132Y-154.2
X171.767Y-133.64
X175.895Y-113.08
X176.53Y-30.84
X176.53Y-51.4
X176.53Y-92.52
X180.657Y-133.64
X181.292Y-154.2
X185.42Y-30.84
X185.42Y-51.4
X185.42Y-92.52
X185.42Y-174.76
X186.055Y-113.08
X190.183Y-154.2
X190.817Y-133.64
X194.945Y-113.08
X195.58Y-30.84
X195.58Y-51.4
X195.58Y-92.52
X195.58Y-174.76
X199.707Y-133.64
X200.343Y-154.2
X204.47Y-30.84
X204.47Y-51.4
X204.47Y-92.52
X205.105Y-113.08
X209.232Y-154.2
X209.867Y-133.64
X213.995Y-113.08
X214.63Y-30.84
X214.63Y-51.4
X214.63Y-92.52
X218.757Y-133.64
X219.392Y-154.2
X223.52Y-30.84
X223.52Y-51.4
X223.52Y-92.52
X224.155Y-113.08
X228.282Y-154.2
X228.917Y-133.64
X233.045Y-113.08
X233.68Y-30.84
X233.68Y-51.4
X233.68Y-92.52
X237.807Y-133.64
X238.442Y-154.2
X242.57Y-30.84
X242.57Y-51.4
X242.57Y-92.52
X243.205Y-113.08
X247.332Y-154.2
X247.968Y-133.64
X252.095Y-113.08
X252.095Y-174.76
X252.73Y-30.84
X252.73Y-51.4
X252.73Y-92.52
X256.858Y-133.64
X257.493Y-154.2
X261.62Y-30.84
X261.62Y-51.4
X261.62Y-92.52
X262.255Y-113.08
X262.255Y-174.76
X266.382Y-154.2
X267.017Y-133.64
X271.145Y-113.08
X271.145Y-174.76
X271.78Y-30.84
X271.78Y-51.4
X271.78Y-92.52
X275.907Y-133.64
X276.542Y-154.2
X280.67Y-30.84
X280.67Y-51.4
X280.67Y-92.52
X281.305Y-113.08
X281.305Y-174.76
X285.433Y-154.2
X286.067Y-133.64
X290.195Y-113.08
X290.83Y-30.84
X290.83Y-51.4
X290.83Y-92.52
X295.592Y-154.2
X299.72Y-92.52
X300.355Y-113.08
X306.864Y-133.64
X309.88Y-92.52
X311.626Y-154.2
X314.007Y-113.08
X314.007Y-174.76
X317.024Y-133.64
X318.77Y-92.52
X321.786Y-154.2
X324.167Y-113.08
X324.167Y-174.76
X328.93Y-92.52
X346.703Y-92.52
X346.703Y-113.08
X346.703Y-154.2
X356.863Y-92.52
X356.863Y-113.08
X356.863Y-154.2
X365.753Y-92.52
X365.753Y-113.08
X365.753Y-133.64
X365.753Y-154.2
X365.753Y-174.76
X375.913Y-92.52
X375.913Y-113.08
X375.913Y-133.64
X375.913Y-154.2
X375.913Y-174.76
X384.803Y-92.52
X384.803Y-113.08
X384.803Y-154.2
X394.964Y-92.52
X394.964Y-113.08
X394.964Y-154.2
X412.737Y-92.52
X412.737Y-113.08
X412.737Y-133.64
X412.737Y-154.2
X422.262Y-174.76
X422.897Y-92.52
X422.897Y-113.08
X422.897Y-133.64
X422.897Y-154.2
X431.787Y-92.52
X431.787Y-113.08
X431.787Y-133.64
X431.787Y-154.2
X432.422Y-174.76
X441.947Y-92.52
X441.947Y-113.08
X441.947Y-133.64
X441.947Y-154.2
X450.837Y-92.52
X450.837Y-113.08
X450.837Y-133.64
X450.837Y-154.2
X450.837Y-174.76
X460.997Y-92.52
X460.997Y-113.08
X460.997Y-133.64
X460.997Y-154.2
X460.997Y-174.76
X469.887Y-92.52
X469.887Y-123.36
X469.887Y-164.48
X480.047Y-92.52
X480.047Y-123.36
X480.047Y-164.48
T2
X0.66Y-127.102
X0.66Y-168.046
X6.357Y-89.98
X6.357Y-110.54
X6.357Y-131.1
X6.357Y-151.66
X6.357Y-172.22
X12.707Y-87.44
X12.707Y-108.0
X12.707Y-128.56
X12.707Y-149.12
X12.707Y-169.68
X19.71Y-188.824
X25.407Y-89.98
X25.407Y-110.54
X25.407Y-131.1
X25.407Y-151.66
X25.407Y-172.22
X31.757Y-87.44
X31.757Y-108.0
X31.757Y-128.56
X31.757Y-149.12
X31.757Y-169.68
X53.34Y-89.98
X55.721Y-131.1
X58.102Y-110.54
X58.102Y-172.22
X59.69Y-87.44
X61.754Y-138.72
X62.071Y-128.56
X64.453Y-108.0
X64.453Y-169.68
X65.246Y-151.66
X65.78Y-65.0
X65.8Y-44.38
X65.86Y-24.04
X68.104Y-136.18
X71.596Y-149.12
X72.39Y-28.3
X72.39Y-48.86
X72.39Y-89.98
X78.74Y-25.76
X78.74Y-46.32
X78.74Y-87.44
X81.915Y-110.54
X86.677Y-131.1
X88.265Y-108.0
X90.932Y-188.824
X91.44Y-28.3
X91.44Y-48.86
X91.44Y-89.98
X93.027Y-128.56
X96.203Y-151.66
X97.79Y-25.76
X97.79Y-46.32
X97.79Y-87.44
X100.965Y-110.54
X100.965Y-172.22
X102.552Y-149.12
X105.727Y-131.1
X107.315Y-108.0
X107.315Y-169.68
X110.49Y-28.3
X110.49Y-48.86
X110.49Y-89.98
X112.078Y-128.56
X115.252Y-151.66
X116.84Y-25.76
X116.84Y-46.32
X116.84Y-87.44
X120.015Y-110.54
X120.015Y-172.22
X121.602Y-149.12
X123.86Y-65.12
X124.777Y-131.1
X126.365Y-108.0
X126.365Y-169.68
X129.54Y-28.3
X129.54Y-48.86
X129.54Y-89.98
X131.127Y-128.56
X134.302Y-151.66
X135.89Y-25.76
X135.89Y-46.32
X135.89Y-87.44
X139.065Y-110.54
X140.653Y-149.12
X143.827Y-131.1
X145.415Y-108.0
X148.59Y-28.3
X148.59Y-48.86
X148.59Y-89.98
X150.177Y-128.56
X153.352Y-151.66
X154.94Y-25.76
X154.94Y-46.32
X154.94Y-87.44
X158.115Y-110.54
X159.702Y-149.12
X162.877Y-131.1
X164.465Y-108.0
X167.284Y-188.824
X167.64Y-28.3
X167.64Y-48.86
X167.64Y-89.98
X169.227Y-128.56
X172.403Y-151.66
X173.99Y-25.76
X173.99Y-46.32
X173.99Y-87.44
X177.165Y-110.54
X178.752Y-149.12
X181.927Y-131.1
X183.515Y-108.0
X186.69Y-28.3
X186.69Y-48.86
X186.69Y-89.98
X186.69Y-172.22
X188.278Y-128.56
X191.452Y-151.66
X193.04Y-25.76
X193.04Y-46.32
X193.04Y-87.44
X193.04Y-169.68
X196.215Y-110.54
X197.802Y-149.12
X200.03Y-64.91
X200.977Y-131.1
X202.565Y-108.0
X205.74Y-28.3
X205.74Y-48.86
X205.74Y-89.98
X207.327Y-128.56
X210.502Y-151.66
X212.09Y-25.76
X212.09Y-46.32
X212.09Y-87.44
X215.265Y-110.54
X216.852Y-149.12
X220.028Y-131.1
X221.615Y-108.0
X224.79Y-28.3
X224.79Y-48.86
X224.79Y-89.98
X226.377Y-128.56
X229.552Y-151.66
X231.14Y-25.76
X231.14Y-46.32
X231.14Y-87.44
X234.315Y-110.54
X235.903Y-149.12
X237.998Y-188.824
X239.077Y-131.1
X240.665Y-108.0
X243.84Y-28.3
X243.84Y-48.86
X243.84Y-89.98
X245.427Y-128.56
X248.602Y-151.66
X250.19Y-25.76
X250.19Y-46.32
X250.19Y-87.44
X253.365Y-110.54
X253.365Y-172.22
X254.952Y-149.12
X258.127Y-131.1
X259.715Y-108.0
X259.715Y-169.68
X262.89Y-28.3
X262.89Y-48.86
X262.89Y-89.98
X264.477Y-128.56
X267.652Y-151.66
X269.24Y-25.76
X269.24Y-46.32
X269.24Y-87.44
X272.415Y-110.54
X272.415Y-172.22
X274.002Y-149.12
X276.31Y-65.04
X277.178Y-131.1
X278.765Y-108.0
X278.765Y-169.68
X281.94Y-28.3
X281.94Y-48.86
X281.94Y-89.98
X283.527Y-128.56
X283.566Y-188.824
X286.702Y-151.66
X288.29Y-25.76
X288.29Y-46.32
X288.29Y-87.44
X291.465Y-110.54
X293.053Y-149.12
X297.815Y-108.0
X300.99Y-89.98
X307.34Y-87.44
X308.134Y-131.1
X312.896Y-151.66
X313.32Y-65.04
X313.41Y-44.28
X313.48Y-23.98
X314.484Y-128.56
X315.277Y-110.54
X315.277Y-172.22
X319.246Y-149.12
X320.04Y-89.98
X321.627Y-108.0
X321.627Y-169.68
X326.39Y-87.44
X337.871Y-106.223
X341.986Y-188.824
X342.26Y-127.152
X342.26Y-147.574
X342.26Y-168.148
X347.974Y-89.98
X347.974Y-110.54
X347.974Y-151.66
X354.323Y-87.44
X354.323Y-108.0
X354.323Y-149.12
X361.34Y-127.152
X367.023Y-89.98
X367.023Y-110.54
X367.023Y-131.1
X367.023Y-151.66
X367.023Y-172.22
X373.373Y-87.44
X373.373Y-108.0
X373.373Y-128.56
X373.373Y-149.12
X373.373Y-169.68
X380.36Y-127.203
X380.36Y-168.148
X386.073Y-89.98
X386.073Y-110.54
X386.073Y-151.66
X392.423Y-87.44
X392.423Y-108.0
X392.423Y-149.12
X398.983Y-188.824
X399.415Y-85.649
X408.3Y-106.42
X414.007Y-89.98
X414.007Y-110.54
X414.007Y-131.1
X414.007Y-151.66
X420.357Y-87.44
X420.357Y-108.0
X420.357Y-128.56
X420.357Y-149.12
X423.532Y-172.22
X429.882Y-169.68
X433.057Y-89.98
X433.057Y-110.54
X433.057Y-131.1
X433.057Y-151.66
X439.407Y-87.44
X439.407Y-108.0
X439.407Y-128.56
X439.407Y-149.12
X452.107Y-89.98
X452.107Y-110.54
X452.107Y-131.1
X452.107Y-151.66
X452.107Y-172.22
X458.457Y-87.44
X458.457Y-108.0
X458.457Y-128.56
X458.457Y-149.12
X458.457Y-169.68
X471.157Y-89.98
X471.157Y-120.82
X471.157Y-161.94
X477.507Y-87.44
X477.507Y-118.28
X477.507Y-159.4
X484.124Y-188.824
X484.61Y-127.305
X484.61Y-147.726
X484.61Y-168.453
X484.632Y-85.598
T3
X57.118Y-147.215
X80.994Y-147.215
X142.875Y-167.775
X238.125Y-167.775
X300.006Y-140.625
X323.882Y-140.625
X415.404Y-167.775
X439.28Y-167.775
T4
X10.167Y-92.52
X10.167Y-113.08
X10.167Y-133.64
X10.167Y-154.2
X10.167Y-174.76
X29.217Y-92.52
X29.217Y-113.08
X29.217Y-133.64
X29.217Y-154.2
X29.217Y-174.76
X57.15Y-92.52
X59.531Y-133.64
X61.912Y-113.08
X61.912Y-174.76
X64.294Y-133.64
X69.056Y-154.2
X76.2Y-30.84
X76.2Y-51.4
X76.2Y-92.52
X85.725Y-113.08
X90.487Y-133.64
X95.25Y-30.84
X95.25Y-51.4
X95.25Y-92.52
X100.012Y-154.2
X104.775Y-113.08
X104.775Y-174.76
X109.537Y-133.64
X114.3Y-30.84
X114.3Y-51.4
X114.3Y-92.52
X119.062Y-154.2
X123.825Y-113.08
X123.825Y-174.76
X128.588Y-133.64
X133.35Y-30.84
X133.35Y-51.4
X133.35Y-92.52
X138.112Y-154.2
X142.875Y-113.08
X142.875Y-183.015
X147.637Y-133.64
X152.4Y-30.84
X152.4Y-51.4
X152.4Y-92.52
X157.162Y-154.2
X161.925Y-113.08
X166.688Y-133.64
X171.45Y-30.84
X171.45Y-51.4
X171.45Y-92.52
X176.213Y-154.2
X180.975Y-113.08
X185.737Y-133.64
X190.5Y-30.84
X190.5Y-51.4
X190.5Y-92.52
X190.5Y-174.76
X195.262Y-154.2
X200.025Y-113.08
X204.787Y-133.64
X209.55Y-30.84
X209.55Y-51.4
X209.55Y-92.52
X214.312Y-154.2
X219.075Y-113.08
X223.837Y-133.64
X228.6Y-30.84
X228.6Y-51.4
X228.6Y-92.52
X233.362Y-154.2
X238.125Y-113.08
X238.125Y-183.015
X242.887Y-133.64
X247.65Y-30.84
X247.65Y-51.4
X247.65Y-92.52
X252.412Y-154.2
X257.175Y-113.08
X257.175Y-174.76
X261.938Y-133.64
X266.7Y-30.84
X266.7Y-51.4
X266.7Y-92.52
X271.462Y-154.2
X276.225Y-113.08
X276.225Y-174.76
X280.988Y-133.64
X285.75Y-30.84
X285.75Y-51.4
X285.75Y-92.52
X290.512Y-154.2
X295.275Y-113.08
X300.006Y-125.385
X304.8Y-92.52
X311.944Y-133.64
X316.706Y-154.2
X319.087Y-113.08
X319.087Y-174.76
X323.85Y-92.52
X323.882Y-125.385
X351.784Y-92.52
X351.784Y-113.08
X351.784Y-154.2
X370.833Y-92.52
X370.833Y-113.08
X370.833Y-133.64
X370.833Y-154.2
X370.833Y-174.76
X389.883Y-92.52
X389.883Y-113.08
X389.883Y-154.2
X417.817Y-92.52
X417.817Y-113.08
X417.817Y-133.64
X417.817Y-154.2
X427.342Y-174.76
X436.867Y-92.52
X436.867Y-113.08
X436.867Y-133.64
X436.867Y-154.2
X455.917Y-92.52
X455.917Y-113.08
X455.917Y-133.64
X455.917Y-154.2
X455.917Y-174.76
X474.967Y-92.52
X474.967Y-123.36
X474.967Y-164.48
T3
X481.952Y-111.622G85X481.952Y-111.222
G05
X481.952Y-135.498G85X481.952Y-135.098
G05
X481.952Y-152.742G85X481.952Y-152.342
G05
X481.952Y-176.618G85X481.952Y-176.218
G05
T4
X57.118Y-162.255G85X57.118Y-162.655
G05
X80.994Y-162.255G85X80.994Y-162.655
G05
X415.404Y-182.815G85X415.404Y-183.215
G05
X439.28Y-182.815G85X439.28Y-183.215
G05
X466.712Y-111.622G85X466.712Y-111.222
G05
X466.712Y-135.498G85X466.712Y-135.098
G05
X466.712Y-152.742G85X466.712Y-152.342
G05
X466.712Y-176.618G85X466.712Y-176.218
G05
T5
X403.85Y-68.545G85X403.85Y-78.045
G05
M30
