G04 #@! TF.GenerationSoftware,KiCad,Pcbnew,7.0.11+dfsg-1build4*
G04 #@! TF.CreationDate,2026-06-03T16:08:01-04:00*
G04 #@! TF.ProjectId,pcb,7063622e-6b69-4636-9164-5f7063625858,rev?*
G04 #@! TF.SameCoordinates,Original*
G04 #@! TF.FileFunction,Paste,Bot*
G04 #@! TF.FilePolarity,Positive*
%FSLAX46Y46*%
G04 Gerber Fmt 4.6, Leading zero omitted, Abs format (unit mm)*
G04 Created by KiCad (PCBNEW 7.0.11+dfsg-1build4) date 2026-06-03 16:08:01*
%MOMM*%
%LPD*%
G01*
G04 APERTURE LIST*
G04 Aperture macros list*
%AMRoundRect*
0 Rectangle with rounded corners*
0 $1 Rounding radius*
0 $2 $3 $4 $5 $6 $7 $8 $9 X,Y pos of 4 corners*
0 Add a 4 corners polygon primitive as box body*
4,1,4,$2,$3,$4,$5,$6,$7,$8,$9,$2,$3,0*
0 Add four circle primitives for the rounded corners*
1,1,$1+$1,$2,$3*
1,1,$1+$1,$4,$5*
1,1,$1+$1,$6,$7*
1,1,$1+$1,$8,$9*
0 Add four rect primitives between the rounded corners*
20,1,$1+$1,$2,$3,$4,$5,0*
20,1,$1+$1,$4,$5,$6,$7,0*
20,1,$1+$1,$6,$7,$8,$9,0*
20,1,$1+$1,$8,$9,$2,$3,0*%
%AMOutline5P*
0 Free polygon, 5 corners , with rotation*
0 The origin of the aperture is its center*
0 number of corners: always 5*
0 $1 to $10 corner X, Y*
0 $11 Rotation angle, in degrees counterclockwise*
0 create outline with 5 corners*
4,1,5,$1,$2,$3,$4,$5,$6,$7,$8,$9,$10,$1,$2,$11*%
%AMOutline6P*
0 Free polygon, 6 corners , with rotation*
0 The origin of the aperture is its center*
0 number of corners: always 6*
0 $1 to $12 corner X, Y*
0 $13 Rotation angle, in degrees counterclockwise*
0 create outline with 6 corners*
4,1,6,$1,$2,$3,$4,$5,$6,$7,$8,$9,$10,$11,$12,$1,$2,$13*%
%AMOutline7P*
0 Free polygon, 7 corners , with rotation*
0 The origin of the aperture is its center*
0 number of corners: always 7*
0 $1 to $14 corner X, Y*
0 $15 Rotation angle, in degrees counterclockwise*
0 create outline with 7 corners*
4,1,7,$1,$2,$3,$4,$5,$6,$7,$8,$9,$10,$11,$12,$13,$14,$1,$2,$15*%
%AMOutline8P*
0 Free polygon, 8 corners , with rotation*
0 The origin of the aperture is its center*
0 number of corners: always 8*
0 $1 to $16 corner X, Y*
0 $17 Rotation angle, in degrees counterclockwise*
0 create outline with 8 corners*
4,1,8,$1,$2,$3,$4,$5,$6,$7,$8,$9,$10,$11,$12,$13,$14,$15,$16,$1,$2,$17*%
G04 Aperture macros list end*
%ADD10R,2.550000X2.500000*%
%ADD11R,1.600000X0.820000*%
%ADD12Outline5P,-0.800000X0.410000X0.800000X0.410000X0.800000X-0.082000X0.472000X-0.410000X-0.800000X-0.410000X0.000000*%
%ADD13Outline5P,-0.800000X0.410000X0.800000X0.410000X0.800000X-0.082000X0.472000X-0.410000X-0.800000X-0.410000X180.000000*%
%ADD14R,0.820000X1.600000*%
%ADD15Outline5P,-0.800000X0.410000X0.800000X0.410000X0.800000X-0.082000X0.472000X-0.410000X-0.800000X-0.410000X90.000000*%
%ADD16Outline5P,-0.800000X0.410000X0.800000X0.410000X0.800000X-0.082000X0.472000X-0.410000X-0.800000X-0.410000X270.000000*%
%ADD17R,0.800000X1.900000*%
%ADD18R,1.500000X1.200000*%
%ADD19RoundRect,0.225000X-0.250000X0.225000X-0.250000X-0.225000X0.250000X-0.225000X0.250000X0.225000X0*%
%ADD20RoundRect,0.150000X0.150000X-0.512500X0.150000X0.512500X-0.150000X0.512500X-0.150000X-0.512500X0*%
G04 APERTURE END LIST*
D10*
X309621250Y-151660150D03*
X322548250Y-149120150D03*
D11*
X349183500Y-96670097D03*
X349183500Y-98170097D03*
D12*
X354383500Y-98170097D03*
D11*
X354383500Y-96670097D03*
D10*
X197702500Y-131100143D03*
X210629500Y-128560143D03*
D11*
X178812500Y-159850165D03*
X178812500Y-158350165D03*
D13*
X173612500Y-158350165D03*
D11*
X173612500Y-159850165D03*
X216912500Y-159850165D03*
X216912500Y-158350165D03*
D13*
X211712500Y-158350165D03*
D11*
X211712500Y-159850165D03*
X193100000Y-57050055D03*
X193100000Y-55550055D03*
D13*
X187900000Y-55550055D03*
D11*
X187900000Y-57050055D03*
X439467000Y-159850160D03*
X439467000Y-158350160D03*
D13*
X434267000Y-158350160D03*
D11*
X434267000Y-159850160D03*
D10*
X363748500Y-89980097D03*
X376675500Y-87440097D03*
X278665000Y-28300034D03*
X291592000Y-25760034D03*
D11*
X159762500Y-159850165D03*
X159762500Y-158350165D03*
D13*
X154562500Y-158350165D03*
D11*
X154562500Y-159850165D03*
X87887500Y-137790143D03*
X87887500Y-139290143D03*
D12*
X93087500Y-139290143D03*
D11*
X93087500Y-137790143D03*
X273625000Y-178910187D03*
X273625000Y-180410187D03*
D12*
X278825000Y-180410187D03*
D11*
X278825000Y-178910187D03*
D10*
X202465000Y-28300034D03*
X215392000Y-25760034D03*
X145315000Y-48860055D03*
X158242000Y-46320055D03*
X188177500Y-151660165D03*
X201104500Y-149120165D03*
X240565000Y-28300034D03*
X253492000Y-25760034D03*
D11*
X420417000Y-118730118D03*
X420417000Y-117230118D03*
D13*
X415217000Y-117230118D03*
D11*
X415217000Y-118730118D03*
X354383500Y-118730118D03*
X354383500Y-117230118D03*
D13*
X349183500Y-117230118D03*
D11*
X349183500Y-118730118D03*
X174050000Y-57050055D03*
X174050000Y-55550055D03*
D13*
X168850000Y-55550055D03*
D11*
X168850000Y-57050055D03*
X226000000Y-96670099D03*
X226000000Y-98170099D03*
D12*
X231200000Y-98170099D03*
D11*
X231200000Y-96670099D03*
X168850000Y-96670099D03*
X168850000Y-98170099D03*
D12*
X174050000Y-98170099D03*
D11*
X174050000Y-96670099D03*
D10*
X164365000Y-28300034D03*
X177292000Y-25760034D03*
D11*
X116900000Y-57050055D03*
X116900000Y-55550055D03*
D13*
X111700000Y-55550055D03*
D11*
X111700000Y-57050055D03*
X145475000Y-118730121D03*
X145475000Y-117230121D03*
D13*
X140275000Y-117230121D03*
D11*
X140275000Y-118730121D03*
D10*
X178652500Y-131100143D03*
X191579500Y-128560143D03*
D11*
X130750000Y-34990034D03*
X130750000Y-36490034D03*
D12*
X135950000Y-36490034D03*
D11*
X135950000Y-34990034D03*
X140712500Y-159850165D03*
X140712500Y-158350165D03*
D13*
X135512500Y-158350165D03*
D11*
X135512500Y-159850165D03*
X88325000Y-118730121D03*
X88325000Y-117230121D03*
D13*
X83125000Y-117230121D03*
D11*
X83125000Y-118730121D03*
D10*
X429782000Y-131100139D03*
X442709000Y-128560139D03*
D11*
X316487500Y-178910187D03*
X316487500Y-180410187D03*
D12*
X321687500Y-180410187D03*
D11*
X321687500Y-178910187D03*
D10*
X111977500Y-151660165D03*
X124904500Y-149120165D03*
X78640000Y-110540121D03*
X91567000Y-108000121D03*
X97690000Y-172220187D03*
X110617000Y-169680187D03*
D11*
X26617000Y-96670097D03*
X26617000Y-98170097D03*
D12*
X31817000Y-98170097D03*
D11*
X31817000Y-96670097D03*
D10*
X410732000Y-151660160D03*
X423659000Y-149120160D03*
X226277500Y-151660165D03*
X239204500Y-149120165D03*
D11*
X164087500Y-137790143D03*
X164087500Y-139290143D03*
D12*
X169287500Y-139290143D03*
D11*
X169287500Y-137790143D03*
D10*
X448832000Y-131100139D03*
X461759000Y-128560139D03*
D11*
X121662500Y-159850165D03*
X121662500Y-158350165D03*
D13*
X116462500Y-158350165D03*
D11*
X116462500Y-159850165D03*
D10*
X22132000Y-89980097D03*
X35059000Y-87440097D03*
D11*
X145037500Y-137790143D03*
X145037500Y-139290143D03*
D12*
X150237500Y-139290143D03*
D11*
X150237500Y-137790143D03*
X264100000Y-96670099D03*
X264100000Y-98170099D03*
D12*
X269300000Y-98170099D03*
D11*
X269300000Y-96670099D03*
X92650000Y-34990034D03*
X92650000Y-36490034D03*
D12*
X97850000Y-36490034D03*
D11*
X97850000Y-34990034D03*
D10*
X61971250Y-151660150D03*
X74898250Y-149120150D03*
D11*
X420417000Y-159850160D03*
X420417000Y-158350160D03*
D13*
X415217000Y-158350160D03*
D11*
X415217000Y-159850160D03*
X130750000Y-96670099D03*
X130750000Y-98170099D03*
D12*
X135950000Y-98170099D03*
D11*
X135950000Y-96670099D03*
D10*
X97690000Y-110540121D03*
X110617000Y-108000121D03*
X145315000Y-28300034D03*
X158242000Y-25760034D03*
X183415000Y-89980099D03*
X196342000Y-87440099D03*
X22132000Y-172220187D03*
X35059000Y-169680187D03*
X121502500Y-131100143D03*
X134429500Y-128560143D03*
X382798500Y-151660150D03*
X395725500Y-149120150D03*
X467882000Y-120820132D03*
X480809000Y-118280132D03*
X192940000Y-110540121D03*
X205867000Y-108000121D03*
X69115000Y-28300034D03*
X82042000Y-25760034D03*
X126265000Y-28300034D03*
X139192000Y-25760034D03*
D11*
X164525000Y-118730121D03*
X164525000Y-117230121D03*
D13*
X159325000Y-117230121D03*
D11*
X159325000Y-118730121D03*
D10*
X382798500Y-89980097D03*
X395725500Y-87440097D03*
X3082000Y-131100139D03*
X16009000Y-128560139D03*
X183415000Y-28300034D03*
X196342000Y-25760034D03*
X54827500Y-110540121D03*
X67754500Y-108000121D03*
D11*
X434267000Y-137790139D03*
X434267000Y-139290139D03*
D12*
X439467000Y-139290139D03*
D11*
X439467000Y-137790139D03*
D10*
X207227500Y-151660165D03*
X220154500Y-149120165D03*
D11*
X373433500Y-159850167D03*
X373433500Y-158350167D03*
D13*
X368233500Y-158350167D03*
D11*
X368233500Y-159850167D03*
X121225000Y-178910187D03*
X121225000Y-180410187D03*
D12*
X126425000Y-180410187D03*
D11*
X126425000Y-178910187D03*
X7567000Y-96670097D03*
X7567000Y-98170097D03*
D12*
X12767000Y-98170097D03*
D11*
X12767000Y-96670097D03*
X187900000Y-34990034D03*
X187900000Y-36490034D03*
D12*
X193100000Y-36490034D03*
D11*
X193100000Y-34990034D03*
D10*
X3082000Y-110540118D03*
X16009000Y-108000118D03*
X216752500Y-131100143D03*
X229679500Y-128560143D03*
D11*
X183575000Y-118730121D03*
X183575000Y-117230121D03*
D13*
X178375000Y-117230121D03*
D11*
X178375000Y-118730121D03*
X26617000Y-178910187D03*
X26617000Y-180410187D03*
D12*
X31817000Y-180410187D03*
D11*
X31817000Y-178910187D03*
X102175000Y-178910187D03*
X102175000Y-180410187D03*
D12*
X107375000Y-180410187D03*
D11*
X107375000Y-178910187D03*
X415217000Y-96670097D03*
X415217000Y-98170097D03*
D12*
X420417000Y-98170097D03*
D11*
X420417000Y-96670097D03*
X168850000Y-34990034D03*
X168850000Y-36490034D03*
D12*
X174050000Y-36490034D03*
D11*
X174050000Y-34990034D03*
D10*
X3082000Y-151660160D03*
X16009000Y-149120160D03*
X363748500Y-110540118D03*
X376675500Y-108000118D03*
X202465000Y-89980099D03*
X215392000Y-87440099D03*
X22132000Y-110540110D03*
X35059000Y-108000110D03*
X135790000Y-110540121D03*
X148717000Y-108000121D03*
X183415000Y-172220170D03*
X196342000Y-169680170D03*
D11*
X472367000Y-96670097D03*
X472367000Y-98170097D03*
D12*
X477567000Y-98170097D03*
D11*
X477567000Y-96670097D03*
D10*
X288190000Y-110540121D03*
X301117000Y-108000121D03*
X312002500Y-172220187D03*
X324929500Y-169680187D03*
X126265000Y-48860055D03*
X139192000Y-46320055D03*
X259615000Y-89980099D03*
X272542000Y-87440099D03*
D11*
X197862500Y-159850165D03*
X197862500Y-158350165D03*
D13*
X192662500Y-158350165D03*
D11*
X192662500Y-159850165D03*
D10*
X363748500Y-151660167D03*
X376675500Y-149120167D03*
D11*
X7567000Y-178910187D03*
X7567000Y-180410187D03*
D12*
X12767000Y-180410187D03*
D11*
X12767000Y-178910187D03*
D10*
X269140000Y-172220187D03*
X282067000Y-169680187D03*
X312002500Y-110540121D03*
X324929500Y-108000121D03*
X159602500Y-131100143D03*
X172529500Y-128560143D03*
D11*
X12767000Y-159850160D03*
X12767000Y-158350160D03*
D13*
X7567000Y-158350160D03*
D11*
X7567000Y-159850160D03*
X283150000Y-96670099D03*
X283150000Y-98170099D03*
D12*
X288350000Y-98170099D03*
D11*
X288350000Y-96670099D03*
X439467000Y-118730118D03*
X439467000Y-117230118D03*
D13*
X434267000Y-117230118D03*
D11*
X434267000Y-118730118D03*
X126425000Y-118730121D03*
X126425000Y-117230121D03*
D13*
X121225000Y-117230121D03*
D11*
X121225000Y-118730121D03*
D10*
X410732000Y-110540118D03*
X423659000Y-108000118D03*
D11*
X259775000Y-118730121D03*
X259775000Y-117230121D03*
D13*
X254575000Y-117230121D03*
D11*
X254575000Y-118730121D03*
D10*
X116740000Y-110540121D03*
X129667000Y-108000121D03*
X448832000Y-89980097D03*
X461759000Y-87440097D03*
X278665000Y-48860055D03*
X291592000Y-46320055D03*
X259615000Y-48860055D03*
X272542000Y-46320055D03*
D11*
X226000000Y-34990034D03*
X226000000Y-36490034D03*
D12*
X231200000Y-36490034D03*
D11*
X231200000Y-34990034D03*
D10*
X116740000Y-172220187D03*
X129667000Y-169680187D03*
D11*
X12767000Y-118730118D03*
X12767000Y-117230118D03*
D13*
X7567000Y-117230118D03*
D11*
X7567000Y-118730118D03*
X387283500Y-96670097D03*
X387283500Y-98170097D03*
D12*
X392483500Y-98170097D03*
D11*
X392483500Y-96670097D03*
D10*
X183415000Y-48860055D03*
X196342000Y-46320055D03*
X126265000Y-89980099D03*
X139192000Y-87440099D03*
X448832000Y-110540118D03*
X461759000Y-108000118D03*
D11*
X453317000Y-178910187D03*
X453317000Y-180410187D03*
D12*
X458517000Y-180410187D03*
D11*
X458517000Y-178910187D03*
X250250000Y-57050055D03*
X250250000Y-55550055D03*
D13*
X245050000Y-55550055D03*
D11*
X245050000Y-57050055D03*
X354383500Y-159850150D03*
X354383500Y-158350150D03*
D13*
X349183500Y-158350150D03*
D11*
X349183500Y-159850150D03*
X54550000Y-96670097D03*
X54550000Y-98170097D03*
D12*
X59750000Y-98170097D03*
D11*
X59750000Y-96670097D03*
D10*
X221515000Y-89980099D03*
X234442000Y-87440099D03*
X410732000Y-131100139D03*
X423659000Y-128560139D03*
X259615000Y-28300034D03*
X272542000Y-25760034D03*
D11*
X221675000Y-118730121D03*
X221675000Y-117230121D03*
D13*
X216475000Y-117230121D03*
D11*
X216475000Y-118730121D03*
D10*
X254852500Y-131100143D03*
X267779500Y-128560143D03*
D11*
X240725000Y-118730121D03*
X240725000Y-117230121D03*
D13*
X235525000Y-117230121D03*
D11*
X235525000Y-118730121D03*
D10*
X467882000Y-161940176D03*
X480809000Y-159400176D03*
D11*
X458517000Y-159850160D03*
X458517000Y-158350160D03*
D13*
X453317000Y-158350160D03*
D11*
X453317000Y-159850160D03*
X319306250Y-159850150D03*
X319306250Y-158350150D03*
D13*
X314106250Y-158350150D03*
D11*
X314106250Y-159850150D03*
X202187500Y-137790143D03*
X202187500Y-139290143D03*
D12*
X207387500Y-139290143D03*
D11*
X207387500Y-137790143D03*
D10*
X344698500Y-89980097D03*
X357625500Y-87440097D03*
X202465000Y-48860055D03*
X215392000Y-46320055D03*
D11*
X293112500Y-159850150D03*
X293112500Y-158350150D03*
D13*
X287912500Y-158350150D03*
D11*
X287912500Y-159850150D03*
X434267000Y-96670097D03*
X434267000Y-98170097D03*
D12*
X439467000Y-98170097D03*
D11*
X439467000Y-96670097D03*
D10*
X283427500Y-151660150D03*
X296354500Y-149120150D03*
D11*
X321250000Y-96670108D03*
X321250000Y-98170108D03*
D12*
X326450000Y-98170108D03*
D11*
X326450000Y-96670108D03*
X92650000Y-96670099D03*
X92650000Y-98170099D03*
D12*
X97850000Y-98170099D03*
D11*
X97850000Y-96670099D03*
D10*
X88165000Y-48860055D03*
X101092000Y-46320055D03*
D11*
X125987500Y-137790143D03*
X125987500Y-139290143D03*
D12*
X131187500Y-139290143D03*
D11*
X131187500Y-137790143D03*
D10*
X150077500Y-151660165D03*
X163004500Y-149120165D03*
D11*
X309343750Y-137790130D03*
X309343750Y-139290130D03*
D12*
X314543750Y-139290130D03*
D11*
X314543750Y-137790130D03*
X149800000Y-96670099D03*
X149800000Y-98170099D03*
D12*
X155000000Y-98170099D03*
D11*
X155000000Y-96670099D03*
X202625000Y-118730121D03*
X202625000Y-117230121D03*
D13*
X197425000Y-117230121D03*
D11*
X197425000Y-118730121D03*
D10*
X22132000Y-131100139D03*
X35059000Y-128560139D03*
D11*
X264100000Y-34990034D03*
X264100000Y-36490034D03*
D12*
X269300000Y-36490034D03*
D11*
X269300000Y-34990034D03*
D10*
X231040000Y-110540121D03*
X243967000Y-108000121D03*
D11*
X149800000Y-34990034D03*
X149800000Y-36490034D03*
D12*
X155000000Y-36490034D03*
D11*
X155000000Y-34990034D03*
D10*
X107215000Y-48860055D03*
X120142000Y-46320055D03*
D11*
X59312500Y-178910187D03*
X59312500Y-180410187D03*
D12*
X64512500Y-180410187D03*
D11*
X64512500Y-178910187D03*
X392483500Y-118730118D03*
X392483500Y-117230118D03*
D13*
X387283500Y-117230118D03*
D11*
X387283500Y-118730118D03*
X71656250Y-159850150D03*
X71656250Y-158350150D03*
D13*
X66456250Y-158350150D03*
D11*
X66456250Y-159850150D03*
D10*
X3082000Y-89980097D03*
X16009000Y-87440097D03*
X145315000Y-89980099D03*
X158242000Y-87440099D03*
D11*
X458517000Y-118730118D03*
X458517000Y-117230118D03*
D13*
X453317000Y-117230118D03*
D11*
X453317000Y-118730118D03*
D10*
X250090000Y-172220187D03*
X263017000Y-169680187D03*
X107215000Y-89980099D03*
X120142000Y-87440099D03*
X221515000Y-48860055D03*
X234442000Y-46320055D03*
X429782000Y-89980097D03*
X442709000Y-87440097D03*
X278665000Y-89980099D03*
X291592000Y-87440099D03*
D11*
X31817000Y-118730110D03*
X31817000Y-117230110D03*
D13*
X26617000Y-117230110D03*
D11*
X26617000Y-118730110D03*
X274062500Y-159850165D03*
X274062500Y-158350165D03*
D13*
X268862500Y-158350165D03*
D11*
X268862500Y-159850165D03*
D10*
X382798500Y-110540118D03*
X395725500Y-108000118D03*
D11*
X269300000Y-57050055D03*
X269300000Y-55550055D03*
D13*
X264100000Y-55550055D03*
D11*
X264100000Y-57050055D03*
X392483500Y-159850150D03*
X392483500Y-158350150D03*
D13*
X387283500Y-158350150D03*
D11*
X387283500Y-159850150D03*
X288350000Y-57050055D03*
X288350000Y-55550055D03*
D13*
X283150000Y-55550055D03*
D11*
X283150000Y-57050055D03*
D10*
X102452500Y-131100143D03*
X115379500Y-128560143D03*
D11*
X135950000Y-57050055D03*
X135950000Y-55550055D03*
D13*
X130750000Y-55550055D03*
D11*
X130750000Y-57050055D03*
X221237500Y-137790143D03*
X221237500Y-139290143D03*
D12*
X226437500Y-139290143D03*
D11*
X226437500Y-137790143D03*
D10*
X3082000Y-172220187D03*
X16009000Y-169680187D03*
X269140000Y-110540121D03*
X282067000Y-108000121D03*
X429782000Y-110540118D03*
X442709000Y-108000118D03*
X448832000Y-151660160D03*
X461759000Y-149120160D03*
D11*
X373433500Y-118730118D03*
X373433500Y-117230118D03*
D13*
X368233500Y-117230118D03*
D11*
X368233500Y-118730118D03*
D10*
X50065000Y-89980097D03*
X62992000Y-87440097D03*
D11*
X259337500Y-137790143D03*
X259337500Y-139290143D03*
D12*
X264537500Y-139290143D03*
D11*
X264537500Y-137790143D03*
D10*
X344698500Y-110540118D03*
X357625500Y-108000118D03*
X22132000Y-151660160D03*
X35059000Y-149120160D03*
X420257000Y-172220181D03*
X433184000Y-169680181D03*
D11*
X368233500Y-137790130D03*
X368233500Y-139290130D03*
D12*
X373433500Y-139290130D03*
D11*
X373433500Y-137790130D03*
D10*
X429782000Y-151660160D03*
X442709000Y-149120160D03*
X92927500Y-151660165D03*
X105854500Y-149120165D03*
X140552500Y-131100143D03*
X153479500Y-128560143D03*
X344698500Y-151660150D03*
X357625500Y-149120150D03*
X363748500Y-172220188D03*
X376675500Y-169680188D03*
D11*
X31817000Y-159850160D03*
X31817000Y-158350160D03*
D13*
X26617000Y-158350160D03*
D11*
X26617000Y-159850160D03*
D10*
X173890000Y-110540121D03*
X186817000Y-108000121D03*
D11*
X368233500Y-96670097D03*
X368233500Y-98170097D03*
D12*
X373433500Y-98170097D03*
D11*
X373433500Y-96670097D03*
X477567000Y-170130176D03*
X477567000Y-168630176D03*
D13*
X472367000Y-168630176D03*
D11*
X472367000Y-170130176D03*
D10*
X363748500Y-131100130D03*
X376675500Y-128560130D03*
X88165000Y-28300034D03*
X101092000Y-25760034D03*
D11*
X278387500Y-137790143D03*
X278387500Y-139290143D03*
D12*
X283587500Y-139290143D03*
D11*
X283587500Y-137790143D03*
D10*
X245327500Y-151660165D03*
X258254500Y-149120165D03*
D11*
X453317000Y-137790139D03*
X453317000Y-139290139D03*
D12*
X458517000Y-139290139D03*
D11*
X458517000Y-137790139D03*
D10*
X467882000Y-89980097D03*
X480809000Y-87440097D03*
D11*
X7567000Y-137790139D03*
X7567000Y-139290139D03*
D12*
X12767000Y-139290139D03*
D11*
X12767000Y-137790139D03*
D10*
X131027500Y-151660165D03*
X143954500Y-149120165D03*
X448832000Y-172220187D03*
X461759000Y-169680187D03*
D11*
X278825000Y-118730121D03*
X278825000Y-117230121D03*
D13*
X273625000Y-117230121D03*
D11*
X273625000Y-118730121D03*
X240287500Y-137790143D03*
X240287500Y-139290143D03*
D12*
X245487500Y-139290143D03*
D11*
X245487500Y-137790143D03*
D10*
X169127500Y-151660165D03*
X182054500Y-149120165D03*
D11*
X155000000Y-57050055D03*
X155000000Y-55550055D03*
D13*
X149800000Y-55550055D03*
D11*
X149800000Y-57050055D03*
D10*
X240565000Y-48860055D03*
X253492000Y-46320055D03*
D11*
X212150000Y-57050055D03*
X212150000Y-55550055D03*
D13*
X206950000Y-55550055D03*
D11*
X206950000Y-57050055D03*
D10*
X304858750Y-131100130D03*
X317785750Y-128560130D03*
X264377500Y-151660165D03*
X277304500Y-149120165D03*
D11*
X472367000Y-127510132D03*
X472367000Y-129010132D03*
D12*
X477567000Y-129010132D03*
D11*
X477567000Y-127510132D03*
D10*
X71378750Y-136180130D03*
X58451750Y-138720130D03*
D11*
X255012500Y-159850165D03*
X255012500Y-158350165D03*
D13*
X249812500Y-158350165D03*
D11*
X249812500Y-159850165D03*
D10*
X164365000Y-89980099D03*
X177292000Y-87440099D03*
D11*
X187900000Y-178910170D03*
X187900000Y-180410170D03*
D12*
X193100000Y-180410170D03*
D11*
X193100000Y-178910170D03*
X206950000Y-34990034D03*
X206950000Y-36490034D03*
D12*
X212150000Y-36490034D03*
D11*
X212150000Y-34990034D03*
X26617000Y-137790139D03*
X26617000Y-139290139D03*
D12*
X31817000Y-139290139D03*
D11*
X31817000Y-137790139D03*
X424742000Y-178910181D03*
X424742000Y-180410181D03*
D12*
X429942000Y-180410181D03*
D11*
X429942000Y-178910181D03*
X415217000Y-137790139D03*
X415217000Y-139290139D03*
D12*
X420417000Y-139290139D03*
D11*
X420417000Y-137790139D03*
D10*
X88165000Y-89980099D03*
X101092000Y-87440099D03*
X52446250Y-131100130D03*
X65373250Y-128560130D03*
X221515000Y-28300034D03*
X234442000Y-25760034D03*
X69115000Y-89980099D03*
X82042000Y-87440099D03*
D11*
X368233500Y-178910188D03*
X368233500Y-180410188D03*
D12*
X373433500Y-180410188D03*
D11*
X373433500Y-178910188D03*
D10*
X297715000Y-89980099D03*
X310642000Y-87440099D03*
X83402500Y-131100143D03*
X96329500Y-128560143D03*
D11*
X231200000Y-57050055D03*
X231200000Y-55550055D03*
D13*
X226000000Y-55550055D03*
D11*
X226000000Y-57050055D03*
X302200000Y-96670099D03*
X302200000Y-98170099D03*
D12*
X307400000Y-98170099D03*
D11*
X307400000Y-96670099D03*
X111700000Y-34990034D03*
X111700000Y-36490034D03*
D12*
X116900000Y-36490034D03*
D11*
X116900000Y-34990034D03*
X97850000Y-57050055D03*
X97850000Y-55550055D03*
D13*
X92650000Y-55550055D03*
D11*
X92650000Y-57050055D03*
X73600000Y-34990034D03*
X73600000Y-36490034D03*
D12*
X78800000Y-36490034D03*
D11*
X78800000Y-34990034D03*
X111700000Y-96670099D03*
X111700000Y-98170099D03*
D12*
X116900000Y-98170099D03*
D11*
X116900000Y-96670099D03*
D10*
X211990000Y-110540121D03*
X224917000Y-108000121D03*
X107215000Y-28300034D03*
X120142000Y-25760034D03*
D11*
X183137500Y-137790143D03*
X183137500Y-139290143D03*
D12*
X188337500Y-139290143D03*
D11*
X188337500Y-137790143D03*
D10*
X154840000Y-110540121D03*
X167767000Y-108000121D03*
X240565000Y-89980099D03*
X253492000Y-87440099D03*
D11*
X297875000Y-118730121D03*
X297875000Y-117230121D03*
D13*
X292675000Y-117230121D03*
D11*
X292675000Y-118730121D03*
D10*
X410732000Y-89980097D03*
X423659000Y-87440097D03*
X273902500Y-131100143D03*
X286829500Y-128560143D03*
D11*
X245050000Y-34990034D03*
X245050000Y-36490034D03*
D12*
X250250000Y-36490034D03*
D11*
X250250000Y-34990034D03*
X73600000Y-96670099D03*
X73600000Y-98170099D03*
D12*
X78800000Y-98170099D03*
D11*
X78800000Y-96670099D03*
D10*
X69115000Y-48860055D03*
X82042000Y-46320055D03*
X235802500Y-131100143D03*
X248729500Y-128560143D03*
D14*
X68750000Y-131500000D03*
X70250000Y-131500000D03*
D15*
X70250000Y-126300000D03*
D14*
X68750000Y-126300000D03*
D11*
X245050000Y-96670099D03*
X245050000Y-98170099D03*
D12*
X250250000Y-98170099D03*
D11*
X250250000Y-96670099D03*
D10*
X250090000Y-110540121D03*
X263017000Y-108000121D03*
D11*
X206950000Y-96670099D03*
X206950000Y-98170099D03*
D12*
X212150000Y-98170099D03*
D11*
X212150000Y-96670099D03*
X106937500Y-137790143D03*
X106937500Y-139290143D03*
D12*
X112137500Y-139290143D03*
D11*
X112137500Y-137790143D03*
D10*
X316765000Y-89980108D03*
X329692000Y-87440108D03*
D11*
X107375000Y-118730121D03*
X107375000Y-117230121D03*
D13*
X102175000Y-117230121D03*
D11*
X102175000Y-118730121D03*
X254575000Y-178910187D03*
X254575000Y-180410187D03*
D12*
X259775000Y-180410187D03*
D11*
X259775000Y-178910187D03*
D10*
X54827500Y-172220187D03*
X67754500Y-169680187D03*
D11*
X78800000Y-57050055D03*
X78800000Y-55550055D03*
D13*
X73600000Y-55550055D03*
D11*
X73600000Y-57050055D03*
X102612500Y-159850165D03*
X102612500Y-158350165D03*
D13*
X97412500Y-158350165D03*
D11*
X97412500Y-159850165D03*
X321687500Y-118730121D03*
X321687500Y-117230121D03*
D13*
X316487500Y-117230121D03*
D11*
X316487500Y-118730121D03*
X283150000Y-34990034D03*
X283150000Y-36490034D03*
D12*
X288350000Y-36490034D03*
D11*
X288350000Y-34990034D03*
D10*
X164365000Y-48860055D03*
X177292000Y-46320055D03*
D11*
X453317000Y-96670097D03*
X453317000Y-98170097D03*
D12*
X458517000Y-98170097D03*
D11*
X458517000Y-96670097D03*
X64512500Y-118730121D03*
X64512500Y-117230121D03*
D13*
X59312500Y-117230121D03*
D11*
X59312500Y-118730121D03*
X235962500Y-159850165D03*
X235962500Y-158350165D03*
D13*
X230762500Y-158350165D03*
D11*
X230762500Y-159850165D03*
D14*
X55275000Y-135775000D03*
X53775000Y-135775000D03*
D16*
X53775000Y-140975000D03*
D14*
X55275000Y-140975000D03*
D11*
X187900000Y-96670099D03*
X187900000Y-98170099D03*
D12*
X193100000Y-98170099D03*
D11*
X193100000Y-96670099D03*
D17*
X256225000Y-95302653D03*
X258125000Y-95302653D03*
X257175000Y-98302653D03*
D18*
X426712000Y-56515000D03*
X429412000Y-56515000D03*
D17*
X132400000Y-115862685D03*
X134300000Y-115862685D03*
X133350000Y-118862685D03*
X208600000Y-115862685D03*
X210500000Y-115862685D03*
X209550000Y-118862685D03*
X445137500Y-156982749D03*
X447037500Y-156982749D03*
X446087500Y-159982749D03*
X103825000Y-33622557D03*
X105725000Y-33622557D03*
X104775000Y-36622557D03*
X189550000Y-115862685D03*
X191450000Y-115862685D03*
X190500000Y-118862685D03*
X445137500Y-115862685D03*
X447037500Y-115862685D03*
X446087500Y-118862685D03*
X381637500Y-137065218D03*
X383537500Y-137065218D03*
X382587500Y-140065218D03*
X137162500Y-136422717D03*
X139062500Y-136422717D03*
X138112500Y-139422717D03*
X180025000Y-51982589D03*
X181925000Y-51982589D03*
X180975000Y-54982589D03*
X256225000Y-33622557D03*
X258125000Y-33622557D03*
X257175000Y-36622557D03*
X37943750Y-136422717D03*
X39843750Y-136422717D03*
X38893750Y-139422717D03*
D19*
X305500000Y-35450000D03*
X305500000Y-37000000D03*
D17*
X379256250Y-95302653D03*
X381156250Y-95302653D03*
X380206250Y-98302653D03*
X37943750Y-115862685D03*
X39843750Y-115862685D03*
X38893750Y-118862685D03*
X194312500Y-136422717D03*
X196212500Y-136422717D03*
X195262500Y-139422717D03*
X275275000Y-33622557D03*
X277175000Y-33622557D03*
X276225000Y-36622557D03*
X37943750Y-176542781D03*
X39843750Y-176542781D03*
X38893750Y-179542781D03*
X18893750Y-156982749D03*
X20793750Y-156982749D03*
X19843750Y-159982749D03*
X103825000Y-54182589D03*
X105725000Y-54182589D03*
X104775000Y-57182589D03*
X127637500Y-156982749D03*
X129537500Y-156982749D03*
X128587500Y-159982749D03*
X426087500Y-95302653D03*
X427987500Y-95302653D03*
X427037500Y-98302653D03*
X260987500Y-156982749D03*
X262887500Y-156982749D03*
X261937500Y-159982749D03*
X122875000Y-33622557D03*
X124775000Y-33622557D03*
X123825000Y-36622557D03*
X199075000Y-54182589D03*
X200975000Y-54182589D03*
X200025000Y-57182589D03*
X218125000Y-173542781D03*
X220025000Y-173542781D03*
X219075000Y-176542781D03*
X379256250Y-113862685D03*
X381156250Y-113862685D03*
X380206250Y-116862685D03*
X180025000Y-33622557D03*
X181925000Y-33622557D03*
X180975000Y-36622557D03*
X134150000Y-174225000D03*
X136050000Y-174225000D03*
X135100000Y-177225000D03*
X426087500Y-115862685D03*
X427987500Y-115862685D03*
X427037500Y-118862685D03*
X184787500Y-156982749D03*
X186687500Y-156982749D03*
X185737500Y-159982749D03*
X180025000Y-95302653D03*
X181925000Y-95302653D03*
X180975000Y-98302653D03*
X113350000Y-115862685D03*
X115250000Y-115862685D03*
X114300000Y-118862685D03*
X360206250Y-177542781D03*
X362106250Y-177542781D03*
X361156250Y-180542781D03*
X122875000Y-53182589D03*
X124775000Y-53182589D03*
X123825000Y-56182589D03*
X84775000Y-33622557D03*
X86675000Y-33622557D03*
X85725000Y-36622557D03*
X270512500Y-136422717D03*
X272412500Y-136422717D03*
X271462500Y-139422717D03*
D20*
X303125000Y-37187500D03*
X302175000Y-37187500D03*
X301225000Y-37187500D03*
X301225000Y-34912500D03*
X303125000Y-34912500D03*
D17*
X284800000Y-115862685D03*
X286700000Y-115862685D03*
X285750000Y-118862685D03*
X278450000Y-156982749D03*
X280350000Y-156982749D03*
X279400000Y-159982749D03*
X265750000Y-115862685D03*
X267650000Y-115862685D03*
X266700000Y-118862685D03*
X18893750Y-175242781D03*
X20793750Y-175242781D03*
X19843750Y-178242781D03*
X256225000Y-54182589D03*
X258125000Y-54182589D03*
X257175000Y-57182589D03*
X445137500Y-95302653D03*
X447037500Y-95302653D03*
X446087500Y-98302653D03*
X420125000Y-182650000D03*
X422025000Y-182650000D03*
X421075000Y-185650000D03*
X275275000Y-51982589D03*
X277175000Y-51982589D03*
X276225000Y-54982589D03*
X37943750Y-156982749D03*
X39843750Y-156982749D03*
X38893750Y-159982749D03*
X287975000Y-136422717D03*
X289875000Y-136422717D03*
X288925000Y-139422717D03*
X108587500Y-156982749D03*
X110487500Y-156982749D03*
X109537500Y-159982749D03*
X18893750Y-136422717D03*
X20793750Y-136422717D03*
X19843750Y-139422717D03*
X18893750Y-113562685D03*
X20793750Y-113562685D03*
X19843750Y-116562685D03*
X118112500Y-136422717D03*
X120012500Y-136422717D03*
X119062500Y-139422717D03*
X199075000Y-95302653D03*
X200975000Y-95302653D03*
X200025000Y-98302653D03*
X37943750Y-95302653D03*
X39843750Y-95302653D03*
X38893750Y-98302653D03*
X426087500Y-156982749D03*
X427987500Y-156982749D03*
X427037500Y-159982749D03*
X122875000Y-95302653D03*
X124775000Y-95302653D03*
X123825000Y-98302653D03*
X199075000Y-33622557D03*
X200975000Y-33622557D03*
X200025000Y-36622557D03*
X103825000Y-95302653D03*
X105725000Y-95302653D03*
X104775000Y-98302653D03*
X445137500Y-136422717D03*
X447037500Y-136422717D03*
X446087500Y-139422717D03*
X275275000Y-95302653D03*
X277175000Y-95302653D03*
X276225000Y-98302653D03*
X203837500Y-156982749D03*
X205737500Y-156982749D03*
X204787500Y-159982749D03*
X426087500Y-136422717D03*
X427987500Y-136422717D03*
X427037500Y-139422717D03*
X213362500Y-136422717D03*
X215262500Y-136422717D03*
X214312500Y-139422717D03*
X332425000Y-177542781D03*
X334325000Y-177542781D03*
X333375000Y-180542781D03*
X18893750Y-95302653D03*
X20793750Y-95302653D03*
X19843750Y-98302653D03*
M02*
