M48
; DRILL file {KiCad 7.0.11+dfsg-1build4} date Wed 03 Jun 2026 04:08:07 PM EDT
; FORMAT={-:-/ absolute / metric / decimal}
; #@! TF.CreationDate,2026-06-03T16:08:07-04:00
; #@! TF.GenerationSoftware,Kicad,Pcbnew,7.0.11+dfsg-1build4
; #@! TF.FileFunction,Plated,1,2,PTH
FMAT,2
METRIC
; #@! TA.AperFunction,Plated,PTH,ViaDrill
T1C0.400
; #@! TA.AperFunction,Plated,PTH,ComponentDrill
T2C0.400
; #@! TA.AperFunction,Plated,PTH,ComponentDrill
T3C1.000
; #@! TA.AperFunction,Plated,PTH,ComponentDrill
T4C1.100
; #@! TA.AperFunction,Plated,PTH,ComponentDrill
T5C1.520
; #@! TA.AperFunction,Plated,PTH,ComponentDrill
T6C2.500
; #@! TA.AperFunction,Plated,PTH,ComponentDrill
T7C3.100
%
G90
G05
T1
X5.825Y-137.775
X5.825Y-142.125
X7.525Y-101.425
X15.025Y-182.475
X17.25Y-101.425
X24.475Y-142.15
X24.675Y-137.775
X24.925Y-96.675
X24.925Y-178.95
X27.177Y-103.798
X33.575Y-159.85
X33.7Y-118.725
X33.7Y-122.65
X33.725Y-96.675
X33.825Y-185.725
X34.0Y-158.35
X34.05Y-178.925
X34.55Y-117.25
X35.775Y-135.75
X43.5Y-178.925
X43.8Y-96.65
X44.175Y-135.8
X44.575Y-117.25
X45.72Y-161.925
X52.324Y-131.064
X52.725Y-96.7
X54.175Y-144.725
X54.864Y-110.49
X54.864Y-172.085
X56.25Y-134.225
X56.55Y-140.975
X58.35Y-158.35
X58.938Y-167.058
X60.35Y-104.3
X61.976Y-151.765
X63.425Y-148.95
X64.95Y-125.2
X66.675Y-118.75
X66.675Y-122.65
X67.45Y-131.5
X67.691Y-162.306
X68.391Y-75.946
X68.5Y-181.525
X68.75Y-124.85
X69.209Y-75.221
X70.275Y-54.775
X71.45Y-96.675
X71.675Y-133.3
X71.95Y-127.925
X72.0Y-114.8
X72.475Y-36.525
X73.35Y-167.05
X73.375Y-159.85
X74.898Y-149.12
X75.35Y-62.1
X75.675Y-103.8
X77.2Y-132.3
X78.8Y-34.05
X81.25Y-96.675
X82.85Y-36.475
X85.25Y-96.65
X85.8Y-137.8
X85.8Y-144.725
X85.825Y-41.075
X87.475Y-36.475
X88.025Y-157.0
X89.925Y-118.725
X89.925Y-122.65
X90.375Y-34.975
X90.375Y-41.075
X90.575Y-96.675
X90.675Y-117.25
X92.425Y-103.798
X94.825Y-135.75
X94.975Y-117.25
X100.3Y-178.925
X101.225Y-96.675
X104.325Y-159.85
X104.325Y-164.925
X104.7Y-137.775
X104.7Y-144.725
X105.35Y-92.5
X105.35Y-158.35
X107.215Y-74.772
X108.975Y-118.725
X108.975Y-122.675
X109.325Y-117.25
X109.9Y-34.925
X109.9Y-41.025
X110.125Y-96.675
X110.2Y-154.425
X110.675Y-183.875
X112.025Y-171.975
X116.15Y-137.8
X117.65Y-117.25
X118.125Y-103.825
X118.775Y-57.05
X118.775Y-61.225
X119.0Y-178.95
X119.325Y-35.0
X119.425Y-96.675
X119.575Y-54.025
X122.275Y-137.8
X123.5Y-159.85
X123.5Y-164.9
X124.1Y-144.7
X124.1Y-158.375
X124.125Y-137.775
X125.64Y-35.6
X125.64Y-96.675
X128.15Y-34.975
X128.15Y-118.725
X128.15Y-122.65
X128.175Y-41.075
X128.95Y-117.25
X129.075Y-96.65
X131.1Y-103.798
X131.2Y-43.575
X131.575Y-158.375
X135.075Y-185.675
X135.1Y-179.525
X135.25Y-137.8
X136.9Y-117.25
X137.825Y-57.05
X137.85Y-61.275
X140.975Y-137.8
X142.6Y-159.85
X142.6Y-164.9
X142.875Y-172.212
X143.475Y-137.8
X143.475Y-144.75
X145.315Y-74.322
X147.075Y-35.0
X147.075Y-41.075
X147.125Y-118.75
X147.125Y-122.625
X147.875Y-96.675
X149.825Y-103.798
X150.1Y-163.45
X154.775Y-147.2
X156.75Y-57.05
X156.75Y-61.275
X157.45Y-96.7
X157.85Y-35.0
X158.05Y-55.55
X161.075Y-96.7
X161.575Y-159.85
X161.575Y-164.9
X161.625Y-35.0
X161.65Y-158.35
X161.825Y-55.55
X162.025Y-137.85
X162.05Y-144.675
X165.4Y-158.35
X166.175Y-118.725
X166.175Y-122.7
X166.225Y-34.975
X166.225Y-41.075
X166.7Y-117.225
X166.925Y-96.675
X168.175Y-103.798
X171.225Y-137.8
X171.425Y-117.225
X175.525Y-137.8
X175.775Y-57.05
X175.775Y-61.275
X176.525Y-35.0
X176.8Y-96.675
X179.35Y-106.725
X180.5Y-159.85
X180.5Y-164.9
X180.825Y-137.75
X180.825Y-144.725
X181.2Y-158.35
X182.729Y-36.496
X183.125Y-96.675
X183.415Y-73.871
X185.2Y-118.725
X185.225Y-122.625
X185.275Y-35.0
X185.275Y-41.075
X185.675Y-178.9
X186.2Y-117.225
X186.325Y-96.675
X186.875Y-155.0
X188.209Y-162.116
X189.175Y-46.675
X192.075Y-137.8
X193.625Y-117.225
X194.25Y-103.825
X194.675Y-96.675
X194.8Y-57.05
X195.95Y-35.0
X195.975Y-146.8
X196.675Y-106.1
X198.05Y-137.8
X199.075Y-61.275
X199.925Y-159.85
X199.925Y-164.9
X200.2Y-137.775
X200.2Y-144.8
X200.825Y-158.35
X201.775Y-96.675
X201.84Y-36.475
X204.325Y-118.725
X204.325Y-122.675
X204.375Y-35.0
X204.375Y-41.05
X205.175Y-96.65
X205.65Y-117.25
X206.091Y-103.757
X207.425Y-158.35
X211.425Y-137.8
X212.4Y-117.25
X214.85Y-57.025
X216.875Y-137.8
X219.075Y-159.85
X219.075Y-164.875
X219.15Y-61.275
X219.525Y-137.775
X219.525Y-144.7
X221.515Y-73.406
X223.275Y-118.725
X223.275Y-122.6
X223.425Y-35.0
X223.45Y-41.075
X223.85Y-96.675
X225.375Y-103.798
X229.2Y-146.425
X229.425Y-163.45
X232.35Y-162.925
X232.5Y-164.925
X232.875Y-55.575
X233.025Y-57.05
X233.05Y-34.95
X233.875Y-96.7
X236.75Y-34.975
X237.05Y-55.575
X237.3Y-61.275
X237.575Y-159.85
X237.875Y-158.35
X238.35Y-137.8
X238.35Y-144.725
X239.175Y-96.7
X242.025Y-158.35
X242.375Y-118.725
X242.375Y-122.65
X242.6Y-117.25
X242.675Y-35.0
X242.675Y-41.075
X242.85Y-96.65
X244.8Y-103.798
X246.825Y-117.25
X247.675Y-139.975
X249.1Y-42.35
X249.325Y-137.8
X252.175Y-57.05
X252.3Y-35.0
X252.3Y-137.8
X252.3Y-178.9
X252.925Y-96.675
X256.4Y-61.275
X256.65Y-159.85
X256.65Y-164.875
X257.2Y-101.925
X257.375Y-137.8
X257.375Y-144.725
X258.166Y-60.175
X258.375Y-92.6
X258.89Y-38.315
X258.89Y-76.67
X258.89Y-77.67
X259.179Y-35.571
X259.615Y-72.971
X261.375Y-118.725
X261.375Y-122.65
X262.025Y-35.0
X262.025Y-41.05
X262.175Y-96.65
X262.5Y-117.225
X264.2Y-45.7
X265.55Y-24.8
X269.55Y-117.225
X270.025Y-103.825
X270.975Y-57.075
X271.3Y-35.0
X271.775Y-178.925
X271.9Y-96.675
X274.45Y-152.325
X275.2Y-61.275
X275.525Y-159.85
X275.525Y-164.925
X275.825Y-39.5
X276.625Y-137.8
X276.625Y-144.75
X277.94Y-36.023
X278.04Y-77.471
X278.4Y-94.85
X278.91Y-71.86
X279.389Y-36.62
X280.225Y-71.8
X280.7Y-118.75
X280.7Y-122.65
X280.7Y-124.55
X280.925Y-58.025
X281.025Y-55.175
X281.075Y-141.125
X281.175Y-178.9
X281.275Y-117.225
X281.425Y-71.646
X281.525Y-96.7
X284.925Y-103.798
X287.05Y-178.9
X288.4Y-115.725
X290.25Y-55.55
X294.225Y-77.471
X295.025Y-159.85
X295.025Y-164.9
X295.91Y-54.229
X295.925Y-95.325
X296.418Y-33.655
X296.672Y-131.699
X296.9Y-96.65
X296.9Y-103.798
X299.75Y-118.725
X299.775Y-122.575
X302.0Y-41.075
X302.175Y-38.975
X302.725Y-63.75
X304.175Y-155.825
X304.8Y-131.064
X306.9Y-127.9
X307.375Y-137.775
X307.375Y-144.7
X311.55Y-129.975
X312.0Y-163.6
X312.0Y-169.775
X312.039Y-110.49
X312.95Y-106.25
X314.75Y-178.9
X317.125Y-103.798
X318.7Y-137.8
X319.0Y-96.675
X319.913Y-131.445
X321.025Y-159.85
X321.025Y-164.925
X323.2Y-118.75
X323.2Y-122.625
X324.325Y-137.8
X326.2Y-183.05
X326.727Y-109.798
X327.975Y-124.725
X328.125Y-175.875
X330.25Y-168.15
X330.425Y-142.1
X332.525Y-175.875
X333.125Y-83.636
X333.2Y-122.65
X333.225Y-123.375
X333.25Y-144.725
X333.25Y-164.925
X334.0Y-122.675
X334.0Y-123.392
X334.0Y-124.122
X334.0Y-144.725
X334.0Y-164.925
X334.75Y-123.4
X334.75Y-124.125
X334.75Y-144.7
X334.75Y-164.925
X336.025Y-175.875
X336.296Y-89.408
X339.4Y-114.225
X339.7Y-103.8
X340.7Y-103.8
X341.75Y-103.8
X343.9Y-118.725
X344.698Y-163.65
X347.1Y-96.675
X349.885Y-86.233
X350.6Y-103.9
X355.875Y-159.85
X355.875Y-164.825
X356.05Y-96.675
X356.05Y-118.75
X356.05Y-124.122
X357.625Y-149.12
X357.977Y-160.177
X358.125Y-162.85
X358.757Y-170.7
X360.6Y-156.175
X361.175Y-186.425
X361.8Y-96.675
X364.275Y-159.85
X364.678Y-62.8
X364.975Y-158.025
X365.1Y-180.4
X365.128Y-61.2
X365.45Y-83.425
X366.0Y-178.925
X366.025Y-96.675
X366.025Y-103.9
X366.075Y-137.8
X366.075Y-144.7
X366.453Y-65.024
X368.229Y-125.629
X372.025Y-52.425
X372.175Y-51.65
X372.387Y-50.887
X372.6Y-53.05
X372.75Y-52.25
X373.012Y-51.512
X373.1Y-50.6
X373.15Y-53.65
X373.375Y-52.775
X373.475Y-71.725
X373.475Y-72.675
X373.5Y-73.575
X373.5Y-74.6
X373.55Y-124.125
X373.6Y-52.0
X373.725Y-51.15
X373.8Y-54.15
X373.925Y-50.475
X373.975Y-53.45
X374.1Y-71.275
X374.1Y-72.175
X374.125Y-74.1
X374.125Y-75.05
X374.15Y-52.6
X374.15Y-73.225
X374.4Y-51.775
X374.525Y-50.975
X374.55Y-54.0
X374.725Y-75.45
X374.775Y-118.725
X374.8Y-71.725
X374.8Y-74.575
X374.825Y-53.325
X374.825Y-70.9
X374.825Y-72.75
X374.825Y-73.725
X375.075Y-52.4
X375.275Y-51.575
X375.45Y-53.75
X375.5Y-73.225
X375.525Y-74.15
X375.575Y-71.25
X375.575Y-72.175
X375.6Y-75.0
X375.65Y-53.0
X375.85Y-52.175
X376.3Y-71.775
X376.325Y-72.75
X376.325Y-74.475
X376.35Y-73.65
X376.45Y-180.35
X376.7Y-146.3
X377.15Y-159.85
X377.15Y-164.925
X380.206Y-98.303
X382.575Y-140.03
X382.875Y-119.45
X383.423Y-104.9
X383.5Y-180.725
X383.55Y-134.075
X384.65Y-118.8
X385.275Y-57.4
X385.35Y-96.675
X385.35Y-103.9
X385.5Y-117.775
X388.725Y-61.976
X389.325Y-63.525
X389.928Y-59.725
X390.528Y-64.084
X392.303Y-78.105
X392.811Y-36.486
X393.05Y-82.025
X393.668Y-78.105
X394.175Y-118.75
X394.175Y-123.55
X394.5Y-117.25
X394.843Y-78.105
X395.725Y-149.12
X395.986Y-177.268
X396.24Y-78.105
X397.392Y-77.207
X397.625Y-110.65
X397.95Y-113.85
X399.275Y-174.675
X399.288Y-77.597
X399.669Y-65.659
X400.431Y-60.452
X400.589Y-119.214
X401.156Y-58.965
X401.197Y-120.008
X401.647Y-121.0
X402.375Y-124.025
X402.998Y-139.954
X403.472Y-156.775
X405.346Y-138.557
X405.796Y-116.413
X406.514Y-115.717
X407.35Y-100.9
X408.762Y-100.112
X409.4Y-99.113
X411.337Y-83.774
X411.457Y-137.922
X412.775Y-82.025
X413.2Y-96.65
X413.2Y-103.9
X413.375Y-137.8
X413.766Y-43.98
X415.625Y-144.725
X419.65Y-167.475
X420.116Y-172.085
X422.225Y-118.725
X422.225Y-122.55
X422.475Y-117.25
X422.75Y-161.8
X423.525Y-137.75
X424.15Y-52.825
X425.069Y-121.475
X427.037Y-159.983
X427.5Y-133.825
X429.157Y-112.925
X431.55Y-178.9
X432.075Y-137.8
X432.075Y-144.725
X432.825Y-96.675
X432.825Y-103.925
X433.225Y-94.675
X440.525Y-115.2
X441.225Y-159.85
X441.225Y-164.925
X441.3Y-118.725
X441.3Y-122.65
X441.375Y-137.8
X441.475Y-158.35
X442.0Y-178.9
X442.175Y-117.225
X442.725Y-96.675
X445.0Y-141.375
X445.463Y-120.513
X446.087Y-159.983
X448.075Y-96.675
X448.207Y-118.725
X449.1Y-161.5
X449.457Y-137.775
X449.525Y-122.575
X450.55Y-116.95
X451.65Y-96.65
X451.65Y-103.9
X453.4Y-164.925
X453.4Y-168.6
X467.741Y-120.777
X467.868Y-161.925
X469.35Y-96.675
X469.35Y-99.55
X477.0Y-90.475
T2
X3.082Y-89.98
X3.082Y-110.54
X3.082Y-131.1
X3.082Y-151.66
X3.082Y-172.22
X22.132Y-89.98
X22.132Y-110.54
X22.132Y-131.1
X22.132Y-151.66
X22.132Y-172.22
X50.065Y-89.98
X69.115Y-28.3
X69.115Y-48.86
X69.115Y-89.98
X78.64Y-110.54
X83.402Y-131.1
X88.165Y-28.3
X88.165Y-48.86
X88.165Y-89.98
X92.927Y-151.66
X97.69Y-110.54
X97.69Y-172.22
X102.453Y-131.1
X107.215Y-28.3
X107.215Y-48.86
X107.215Y-89.98
X111.977Y-151.66
X116.74Y-110.54
X116.74Y-172.22
X121.502Y-131.1
X126.265Y-28.3
X126.265Y-48.86
X126.265Y-89.98
X131.028Y-151.66
X135.79Y-110.54
X140.552Y-131.1
X145.315Y-28.3
X145.315Y-48.86
X145.315Y-89.98
X150.077Y-151.66
X154.84Y-110.54
X159.602Y-131.1
X164.365Y-28.3
X164.365Y-48.86
X164.365Y-89.98
X169.127Y-151.66
X173.89Y-110.54
X178.653Y-131.1
X183.415Y-28.3
X183.415Y-48.86
X183.415Y-89.98
X188.177Y-151.66
X192.94Y-110.54
X197.702Y-131.1
X202.465Y-28.3
X202.465Y-48.86
X202.465Y-89.98
X207.227Y-151.66
X211.99Y-110.54
X216.752Y-131.1
X221.515Y-28.3
X221.515Y-48.86
X221.515Y-89.98
X226.278Y-151.66
X231.04Y-110.54
X235.802Y-131.1
X240.565Y-28.3
X240.565Y-48.86
X240.565Y-89.98
X245.327Y-151.66
X250.09Y-110.54
X250.09Y-172.22
X254.852Y-131.1
X259.615Y-28.3
X259.615Y-48.86
X259.615Y-89.98
X264.377Y-151.66
X269.14Y-110.54
X269.14Y-172.22
X273.902Y-131.1
X278.665Y-28.3
X278.665Y-48.86
X278.665Y-89.98
X283.428Y-151.66
X288.19Y-110.54
X297.715Y-89.98
X316.765Y-89.98
X344.698Y-89.98
X344.698Y-110.54
X344.698Y-151.66
X363.748Y-89.98
X363.748Y-110.54
X363.748Y-131.1
X363.748Y-151.66
X363.748Y-172.22
X382.798Y-89.98
X382.798Y-110.54
X382.798Y-151.66
X410.732Y-89.98
X410.732Y-110.54
X410.732Y-131.1
X410.732Y-151.66
X429.782Y-89.98
X429.782Y-110.54
X429.782Y-131.1
X429.782Y-151.66
X448.832Y-89.98
X448.832Y-110.54
X448.832Y-131.1
X448.832Y-151.66
X448.832Y-172.22
X467.882Y-89.98
T3
X373.761Y-25.019
X373.761Y-40.259
X376.301Y-25.019
X376.301Y-40.259
X378.841Y-25.019
X378.841Y-40.259
X381.381Y-25.019
X381.381Y-40.259
X383.921Y-25.019
X383.921Y-40.259
X386.461Y-25.019
X386.461Y-40.259
X389.001Y-25.019
X389.001Y-40.259
X391.541Y-25.019
X391.541Y-40.259
X394.081Y-25.019
X394.081Y-40.259
X396.621Y-25.019
X396.621Y-40.259
X399.161Y-25.019
X399.161Y-40.259
X401.701Y-25.019
X401.701Y-40.259
X404.241Y-25.019
X404.241Y-40.259
X406.781Y-25.019
X406.781Y-40.259
X409.321Y-25.019
X409.321Y-40.259
X411.861Y-25.019
X411.861Y-40.259
X414.401Y-25.019
X414.401Y-40.259
X416.941Y-25.019
X416.941Y-40.259
X418.21Y-28.831
X418.21Y-31.371
X418.21Y-33.911
X418.21Y-36.451
X418.918Y-46.482
X419.481Y-25.019
X419.481Y-40.259
X421.458Y-46.482
X422.021Y-25.019
X422.021Y-40.259
X423.998Y-46.482
X424.162Y-56.515
X426.085Y-31.247
X426.085Y-33.787
X426.538Y-46.482
X429.078Y-46.482
X431.618Y-46.482
X431.962Y-56.515
X434.158Y-46.482
X436.698Y-46.482
T4
X411.933Y-49.982
X414.473Y-49.982
X417.013Y-49.982
X423.109Y-60.706
X433.269Y-60.706
T5
X362.535Y-26.475
X367.615Y-26.475
T6
X362.5Y-33.0
X370.3Y-33.0
T7
X19.7Y-168.097
X19.71Y-85.598
X19.71Y-106.223
X19.71Y-127.102
X19.71Y-147.58
X19.71Y-181.5
X49.97Y-127.102
X50.0Y-106.223
X50.0Y-147.58
X52.583Y-168.148
X72.034Y-106.223
X72.725Y-181.5
X85.7Y-24.11
X85.7Y-58.25
X85.75Y-85.649
X90.49Y-147.58
X114.31Y-106.47
X114.35Y-168.148
X114.35Y-181.75
X119.07Y-127.203
X123.82Y-44.56
X123.86Y-24.11
X161.92Y-85.67
X161.94Y-24.11
X161.94Y-44.52
X164.25Y-181.5
X166.69Y-147.58
X180.975Y-58.25
X190.5Y-106.33
X195.27Y-127.152
X200.03Y-23.94
X200.03Y-44.52
X200.19Y-168.148
X204.8Y-147.58
X217.45Y-181.5
X238.11Y-44.54
X238.13Y-23.96
X238.13Y-85.66
X266.725Y-168.148
X266.725Y-181.5
X266.75Y-106.31
X271.628Y-127.152
X276.23Y-23.95
X276.23Y-58.25
X281.01Y-147.58
X309.58Y-168.148
X314.35Y-85.649
X329.5Y-106.31
X329.5Y-127.152
X329.5Y-147.58
X329.5Y-180.5
X345.0Y-102.825
X361.315Y-85.649
X361.34Y-120.6
X361.34Y-147.574
X361.375Y-161.025
X380.225Y-120.6
X380.34Y-147.574
X380.34Y-161.025
X380.4Y-85.649
X396.5Y-102.825
X410.7Y-144.0
X410.7Y-164.7
X410.7Y-181.3
X427.35Y-127.305
X427.4Y-85.8
X427.4Y-106.426
X446.3Y-144.0
X446.325Y-181.3
X446.38Y-106.426
X446.39Y-85.8
X446.4Y-164.7
X465.5Y-85.8
X482.967Y-106.426
X482.967Y-144.0
X482.967Y-181.3
M30
